<svg viewBox="-300 -300 600 600" width="600" height="600" stroke="green" stroke-width="1" transform="scale(1,1) translate(0,0)"><rect x="0" y="0" width="290" height="290" fill="green" /><text font-size="3" x="-51.35541497443365" y="14.95098232695802" fill="black" stroke="none">M-40</text><text font-size="3" x="47.7423076980474" y="62.93449633799075" fill="black" stroke="none">Avenida de Arcentales</text><text font-size="3" x="40.090497549999554" y="65.92960884999957" fill="black" stroke="none">Plaza de Grecia</text><text font-size="3" x="42.68023134059284" y="62.32248839151851" fill="black" stroke="none">Calle de Mánchester</text><text font-size="3" x="41.66917447843959" y="65.85344905890284" fill="black" stroke="none">Avenida de Arcentales</text><text font-size="3" x="47.45147310409982" y="62.87864438697154" fill="black" stroke="none">Avenida de Arcentales</text><text font-size="3" x="41.366008147467085" y="65.7548372197001" fill="black" stroke="none">Calle de Suecia</text><text font-size="3" x="41.22156291344153" y="65.73092779401347" fill="black" stroke="none">Calle de Suecia</text><text font-size="3" x="39.48871294101215" y="58.11046364141192" fill="black" stroke="none">Avenida de Guadalajara</text><g><polyline fill="none" stroke="black" stroke-width="0.5" points="-55.199522450000586,14.846058849998371 -54.907832450000114,14.873358849996293 -54.625382450000416,14.89085884999804 -54.37135245000036,14.899748849999014 -53.63796245000049,14.886798850002378 -52.97107245000052,14.854808849999245 -51.99772245000031,14.827298849995714 -50.98692245000029,14.835208849999617 -50.19795245000023,14.90044884999952 -49.2408424500004,15.029948849998618 -48.556382450000456,15.155388850002055 -48.10292245000028,15.258848849996866 -47.546912450000036,15.404168850000133" opacity="1.0" /><polyline fill="none" stroke="black" stroke-width="0.5" points="47.85846754999966,62.967418849999376 47.77768754999943,62.9498488499994 47.675487549999616,62.91309884999646 47.629987549999896,62.89034885000001" opacity="1.0" /><polyline fill="none" stroke="black" stroke-width="0.5" points="40.07950754999956,65.94073885000034 40.10148754999955,65.91847884999879" opacity="1.0" /><polyline fill="none" stroke="black" stroke-width="0.5" points="40.88758754999935,62.08422884999891 41.061607549999735,62.10662884999692 41.966847549999784,62.223108849997516 42.11342754999987,62.24312884999745 42.246847549999984,62.26062884999919 42.89980754999988,62.347708850000345 43.67085754999971,62.456348849995265 44.37001754999983,62.56078884999806 44.47088754999959,62.57513884999571" opacity="1.0" /><polyline fill="none" stroke="black" stroke-width="0.5" points="41.05845754999973,65.94969884999955 41.17234754999981,65.95816885000022 41.1957975499995,65.960128849998 41.220157549999385,65.96341884999492 41.266637549999814,65.96915884999908 41.32270754999945,65.96936885000105 41.36638754999967,65.9648888499978 41.43204754999988,65.94983884999601 41.493997549999676,65.93142884999907 41.945567549999396,65.77462884999841 42.26651754999966,65.66262884999742" opacity="1.0" /><polyline fill="none" stroke="black" stroke-width="0.5" points="47.5707675499998,62.87984884999605 47.42922754999972,62.87326884999857 47.33297754999967,62.89006884999617" opacity="1.0" /><polyline fill="none" stroke="black" stroke-width="0.5" points="41.36694754999962,65.49959884999771 41.343287549999786,65.70021885000097 41.324387549999756,65.81039885000064 41.32690754999976,65.83881884999937 41.34209754999938,65.86898884999755 41.355047549999654,65.88515884999651 41.365687550000075,65.8958688499988 41.40936754999939,65.9106388500004 41.493997549999676,65.93142884999907" opacity="1.0" /><polyline fill="none" stroke="black" stroke-width="0.5" points="41.36694754999962,65.49959884999771 41.29519754999956,65.6405088499996 41.2590775499998,65.6875488500009 41.21651754999948,65.73633884999799 41.18900754999959,65.76594884999577 41.15246754999953,65.83132884999941 41.14196754999966,65.84980884999823 41.131607549999444,65.8696888500017 41.12747754999964,65.87647885000115 41.10248754999975,65.90545885000029 41.05845754999973,65.94969884999955" opacity="1.0" /><polyline fill="none" stroke="black" stroke-width="0.5" points="41.21833754999989,58.71001885000078 41.00770754999985,58.63686884999697 40.74534754999968,58.552518849999615 40.143207549999715,58.3520388500001 40.00796754999965,58.305348849997245 39.147737549999874,57.99328885000068 39.02761754999938,57.94890885000132 38.48448754999981,57.74912884999867 38.13833754999996,57.62578885000039 38.04278754999996,57.590368849996594 37.93449754999983,57.552848849998554 37.873947549999684,57.530938849999075 37.76334754999971,57.49908884999968" opacity="1.0" /></g></svg>