<svg viewBox="-300 -300 600 600" width="600" height="600" stroke="green" stroke-width="1"><path fill-rule="evenodd" fill="#66cc99" stroke="#555555" stroke-width="2.0" opacity="0.6" d="M 29.32324600000038,44.03442489998997 L 29.092545999999402,43.84662489999755 L 28.781145999999808,43.63572489999933 L 28.47544599999992,43.50702490000549 L 28.03264599999966,43.366024899994954 L 27.689746000000014,43.31292489999032 L 26.935245999999097,43.26972489999753 L 26.813445999998294,43.241224899982626 L 26.73964599999954,43.22802490000322 L 26.367045999998936,42.97692489998735 L 40.38334599999871,35.15622490000533 L 60.68254599999909,25.241524899996875 L 61.74814599999945,26.259124899996095 L 61.06924599999866,26.619724900003348 L 61.21444599999904,27.02262490001158 L 64.72924599999897,30.09612490001018 L 65.55094599999848,30.853324900010193 L 68.25034599999935,33.27042490000895 L 72.19384599999921,36.73662489998242 L 72.55624599999965,36.61812490000011 L 73.00714599999992,36.214924899992184 L 74.36254599999984,37.09902490001696 L 79.70104599999831,39.746524899994256 L 79.57834599999978,40.26282489999721 L 81.3996459999994,40.558924900011334 L 90.97834599999987,44.67312489998585 L 92.30134599999928,45.055624900014664 L 92.25844599999891,45.13542489999236 L 92.32324599999947,45.15432490000967 L 92.0232460000002,45.547624899991206 L 90.71554600000036,47.34492490001867 L 90.66334599999936,47.39712490000238 L 90.54004599999917,46.80312490000506 L 88.45444600000019,46.27422490000026 L 88.76344599999993,45.86292490000778 L 85.94284599999992,45.50322489998507 L 83.66044599999987,45.281824899997446 L 83.59114599999975,47.83902490001492 L 83.29714599999943,49.23462490001111 L 77.56384600000047,48.508924899986596 L 77.5305459999986,49.79712489999656 L 77.01154599999973,51.82452490001015 L 76.63174600000048,51.830824899996514 L 76.40854599999966,52.541224900007364 L 75.91534599999841,53.58972490000451 L 75.27874599999859,54.77952489999734 L 74.29294600000003,56.17122489999747 L 74.55874600000107,56.29392490001919 L 73.29724599999918,57.85152489999746 L 71.51464599999872,57.01062490001641 L 70.89964600000076,58.39482490000228 L 69.93064599999934,59.2840248999928 L 69.50104599999895,59.549824900015665 L 68.76184600000079,61.64742490000208 L 68.83594600000015,62.22312490000331 L 66.98404600000003,64.12662489998183 L 63.18454599999859,63.592624899996736 L 60.714946000000964,62.77872489999572 L 58.67164600000069,62.87562489998527 L 56.44324599999891,63.02922489999037 L 55.90654599999925,63.38982489998307 L 55.16404599999987,64.87842490000185 L 54.429945999998836,66.27432490000501 L 54.17104600000039,66.55812489998061 L 53.886945999998716,66.74532490001002 L 53.59714599999961,66.83892489999562 L 53.194545999998354,66.8632249000002 L 52.72654600000078,66.83232489998773 L 52.20994599999949,66.72942490001878 L 49.03414600000042,65.72292490000109 L 48.60994599999913,65.4199249000012 L 48.4029459999997,65.3242248999959 L 45.43024600000035,64.85952490001364 L 45.17104599999993,64.69512489999761 L 44.969145999999455,64.39842489999137 L 44.977546000000075,63.73122489999514 L 44.918446000000586,63.47562489999109 L 44.62864599999966,63.01182490000065 L 42.76834599999893,60.77952489999734 L 42.11914599999909,60.517624899999646 L 41.593545999999606,60.4147249000016 L 39.80434600000035,60.18852489998244 L 39.659745999999814,59.43942490000336 L 39.24844600000006,58.58502489999955 L 37.9353459999993,56.99712489999365 L 37.72894599999972,56.74212490001082 L 37.49464599999874,56.50842489999923 L 37.33564599999909,56.27022489999945 L 37.24234599999909,55.975324900005944 L 37.472445999998854,55.99122489999718 L 37.8150459999988,55.91622490001464 L 37.81234599999925,55.910524900013115 L 37.7238459999985,55.72302489999129 L 37.5612459999993,55.54512489998888 L 37.278045999998994,55.32282490000216 L 36.8148459999984,55.080124899999646 L 36.343545999999606,54.96102489999612 L 35.961046000000806,54.95892489999096 L 30.754245999999057,48.50922489998629 L 30.66214599999921,48.39402489999338 L 30.581145999999535,48.292924900008074 L 29.138145999999324,46.49142489998485 L 29.36944599999879,46.26582489998691 L 29.58244599999898,46.02192490000016 L 29.7132459999998,45.94062489999487 L 29.826645999999982,45.870424900000216 L 29.7204459999989,45.80172490000405 L 29.78704599999901,45.58182489999308 L 29.827545999999984,45.335224899987224 L 29.814945999999964,45.02862489999825 L 29.786145999999462,44.862124900006165 L 29.744745999998486,44.731024900014745 L 29.690446000000065,44.56992490000266 L 29.552146000000448,44.3239248999962 L 29.32324600000038,44.03442489998997 z" /><text font-size="7" x="56.32024740456508" y="46.68557330506138" fill="rgba(3,3,113,0.5)" stroke="none">Parque Juan Carlos I</text><path fill-rule="evenodd" fill="#66cc99" stroke="#555555" stroke-width="2.0" opacity="0.6" d="M -97.60575400000016,-34.00367510002252 L -95.63295399999924,-32.92577510002593 L -95.27475399999821,-32.70617510002194 L -94.84125399999857,-32.28227510002034 L -93.71115399999917,-30.04187510002521 L -93.48435399999926,-29.60807510001905 L -93.24885399999857,-28.947175100031018 L -93.03615399999808,-27.718375100012054 L -92.82015399999818,-26.216275100014172 L -92.64255399999956,-24.7726751000082 L -92.19375400000035,-21.174175100015418 L -91.63095399999929,-16.70687510001153 L -96.25095399999873,-16.113475100028154 L -96.89895399999841,-25.921675100005814 L -96.98265399999764,-27.642475100008596 L -97.60275399999864,-28.74227510001947 L -98.32755399999724,-29.82017510001606 L -98.82645399999728,-30.206275100026687 L -98.81055400000014,-30.974575100008224 L -98.60175399999889,-31.09607510002388 L -98.64525399999911,-31.651075100002345 L -98.91495399999803,-31.89137510002911 L -99.37995399999818,-32.08877510001912 L -99.65895399999863,-32.32457510000677 L -99.41205399999853,-32.500675100025546 L -97.60575400000016,-34.00367510002252 z" /><text font-size="7" x="-95.0805731593428" y="-24.815062220355987" fill="rgba(3,3,113,0.5)" stroke="none">Parque de Aluche</text><path fill-rule="evenodd" fill="#66cc99" stroke="#555555" stroke-width="2.0" opacity="0.6" d="M 40.44584600000144,12.321624899981543 L 40.34084600000051,11.96252489998733 L 39.82304600000134,11.713224899976922 L 36.06554600000072,9.983724899982917 L 34.36334600000009,9.237924899993232 L 33.834146000001056,8.917224899989378 L 33.50324599999931,8.70482489997812 L 32.9233460000014,8.196624899996095 L 30.498446000000058,5.574924899970938 L 28.53044600000203,3.341124899990973 L 27.739646000001358,2.846124899973802 L 26.381246000000374,2.157624899991788 L 25.59854600000017,3.233724899982917 L 25.610846000000038,3.700824899991858 L 30.4282460000004,7.701624899978924 L 31.077746000002207,8.273724899991066 L 30.219746000001123,9.066624899984163 L 29.30894600000147,10.060524899985467 L 29.192845999999918,10.246224899987283 L 29.331146000001354,10.363224899971101 L 30.86954600000081,11.917824899996049 L 31.28924600000073,12.488124899988179 L 31.80344600000035,13.552524899991113 L 32.23814600000014,14.949024899979122 L 32.828846000001704,17.83172489998833 L 33.50864600000068,20.395824899991567 L 34.49234600000136,24.51662489998853 L 34.61054600000034,24.997824899983243 L 35.665646000000834,25.41422489998513 L 35.909545999999864,25.070424899975478 L 36.20924599999944,24.64832490000117 L 37.0591459999996,24.631524899989017 L 37.68734600000107,24.55352490000223 L 38.45204600000079,24.892824899994594 L 39.13274600000068,25.186824899974454 L 40.56224600000132,25.648824899973988 L 41.64854600000035,25.899924899989855 L 42.4873460000008,26.081424899981357 L 43.870646000001216,26.306724899965047 L 43.603646000001845,26.433024899968586 L 43.32764600000064,26.56322489999002 L 43.15964600000052,26.72072489999846 L 43.07924600000206,26.89412489996903 L 43.09964600000103,27.044724899977155 L 43.2724460000004,27.113124899980903 L 43.73024600000008,27.146424899983685 L 44.58794600000101,27.19202489998861 L 45.85424600000033,27.20822489997954 L 47.92964600000096,27.176124899997376 L 49.76564599999983,27.16052489998401 L 49.881746000001385,27.159324899985222 L 52.63874600000054,27.13592489999428 L 52.68764600000168,27.139524899976095 L 52.780646000001525,27.146124899983988 L 54.256346000001486,27.251724899964756 L 56.275946000000204,27.644124899976305 L 56.410646000000725,27.66152489999513 L 56.88014600000179,27.74552489998314 L 59.8663460000007,28.335924899976817 L 64.48244600000044,29.24882489999436 L 65.26154600000109,26.700024899982964 L 61.44524600000068,26.175924899973325 L 53.16914600000109,24.872424899993348 L 52.11974599999985,24.812724899988098 L 43.776746,24.775224899982277 L 43.11464600000045,24.64862489997904 L 42.572545999999875,24.212124899990158 L 42.309146000001874,23.649624899975606 L 40.44584600000144,12.321624899981543 z" /><text font-size="7" x="40.58682513539235" y="18.684069156013347" fill="rgba(3,3,113,0.5)" stroke="none">Parque del Paraíso</text><path fill-rule="evenodd" fill="#66cc99" stroke="#555555" stroke-width="2.0" opacity="0.6" d="M -26.97405399999934,11.967224899992289 L -27.094653999998172,11.703824899996107 L -28.012653999998747,9.698324899996805 L -27.292653999998947,9.496424899989506 L -22.471353999999337,8.119724900010624 L -22.35525399999824,8.70952489998308 L -21.861153999998805,11.213924899988342 L -22.01985399999876,11.52112489999854 L -22.138053999998192,11.736224900007073 L -26.303553999997348,11.93122489999223 L -26.97405399999934,11.967224899992289 z" /><text font-size="7" x="-24.643777260979274" y="10.305635362707617" fill="rgba(3,3,113,0.5)" stroke="none">Jardines del Descubrimiento</text><path fill-rule="evenodd" fill="#66cc99" stroke="#555555" stroke-width="2.0" opacity="0.6" d="M -75.93845399999827,24.019724899968423 L -72.85415399999874,20.75662489997194 L -72.03395399999727,19.758824899967294 L -71.1714539999989,18.36682489998202 L -70.17065399999728,16.950224899970635 L -69.86675399999876,17.08822489996237 L -69.70085399999789,16.90042489996995 L -69.96995399999832,16.7468248999794 L -69.75605399999813,16.49572489997081 L -69.63335399999778,16.572824899980333 L -68.03285399999731,17.447624899970833 L -66.52145399999927,15.835124899960647 L -64.46585399999913,13.58422489996883 L -64.37825399999838,13.556924899974547 L -64.21685399999888,13.383224899982451 L -64.7373539999976,12.912224899977446 L -64.89515399999755,12.699224899988621 L -64.95275399999946,12.529724899992289 L -64.94555399999854,11.920424899981299 L -65.135753999999,11.912324899982195 L -65.35325399999874,11.784824899972591 L -63.00035399999888,9.615524899971206 L -60.810653999999886,7.3058248999586795 L -60.530153999997765,7.28182489999017 L -60.639653999998245,8.610224899966852 L -59.85095399999909,8.990324899968982 L -56.641553999997996,5.45872489996691 L -56.370953999999074,5.6156248999759555 L -56.06825399999843,7.217624899974908 L -55.32905399999845,6.7754248999699485 L -54.98795399999881,6.531824899975618 L -54.79475399999865,6.315524899975571 L -54.59045399999877,6.413624899978458 L -54.46205399999917,6.475124899974617 L -60.86795399999801,14.180624899978284 L -67.32095399999844,21.882824899978004 L -67.90355399999999,22.50892489997932 L -68.45645399999876,22.98682489998464 L -71.03735399999869,21.597224899975117 L -74.09825399999818,24.91492489997472 L -75.93845399999827,24.019724899968423 z" /><text font-size="7" x="-64.9586269252202" y="15.449301074046222" fill="rgba(3,3,113,0.5)" stroke="none">Parque de la Bombilla</text><path fill-rule="evenodd" fill="#66cc99" stroke="#555555" stroke-width="2.0" opacity="0.6" d="M -45.808553999997,14.119524899993849 L -45.852353999997376,14.15402489999542 L -45.88055399999803,14.169024899987562 L -45.91745399999763,14.178324900000007 L -45.95795399999861,14.178024899993034 L -45.989453999999114,14.170224899986351 L -46.51115399999753,13.935624899997492 L -47.16575399999829,13.59272489999421 L -49.100453999997626,12.513024899984885 L -52.20935399999871,10.86002489997918 L -52.52375399999755,10.591524899980868 L -52.760453999997935,10.335624899991672 L -53.48525399999835,9.539724899994326 L -53.792153999999755,9.204024899983779 L -53.26325399999905,8.899524899985408 L -52.860953999999765,9.319224899998517 L -51.425753999998506,7.857924899995851 L -51.29645399999936,7.941024899992044 L -50.63525399999935,7.27892489999067 L -50.54165400000011,7.1670249000017066 L -50.490953999997146,7.085724899981869 L -50.557853999999224,6.21482489999471 L -50.04125399999839,6.351624899987655 L -49.055753999997705,5.512524899997516 L -49.622453999998015,0.35672489998250967 L -48.49145399999861,0.19622489997709636 L -48.26135399999748,2.9766248999876552 L -48.08855399999766,4.587624899999355 L -47.68205399999897,5.383824899981846 L -47.83235399999694,7.0689248999842675 L -48.1320539999997,7.318824899979518 L -48.33965399999943,7.930224899981113 L -48.21455399999786,8.607024899989483 L -48.221453999998175,8.955624899979739 L -45.44645399999854,10.58462489998783 L -44.0430539999993,11.448324900004081 L -43.76015399999733,11.671824899989588 L -43.68845399999782,11.727024899999378 L -43.6437539999979,11.786424899983103 L -43.61765399999831,11.861424899987469 L -43.61945399999831,11.938524899989716 L -43.672553999997035,12.045624899998074 L -43.76105399999733,12.11882489999698 L -43.93295399999897,12.284124899990275 L -44.293553999997584,12.59432489999017 L -45.052553999998054,13.51652489999833 L -45.38945399999875,13.7925248999818 L -45.808553999997,14.119524899993849 z" /><text font-size="7" x="-48.648540543031174" y="9.185919121474205" fill="rgba(3,3,113,0.5)" stroke="none">Plaza de España</text><path fill-rule="evenodd" fill="#66cc99" stroke="#555555" stroke-width="2.0" opacity="0.6" d="M -48.77195399999846,8.974124899992603 L -49.558254000000034,10.126424900008715 L -48.94145399999843,10.379324900000938 L -48.859253999999055,10.41622490001464 L -48.622253999998975,10.514624899995397 L -48.53075399999898,10.552724900007888 L -48.422153999998045,10.403624900005525 L -48.39155399999936,10.361324900004547 L -47.77055399999881,9.503624899989518 L -48.08945399999857,9.339524899995013 L -48.11585399999785,9.325424899994687 L -48.33425399999942,9.207524899989949 L -48.37865399999964,9.184424899998703 L -48.77195399999846,8.974124899992603 z" /><text font-size="7" x="-48.66257464030796" y="9.783316530767923" fill="rgba(3,3,113,0.5)" stroke="none">Plaza de José Moreno Villa</text><path fill-rule="evenodd" fill="#66cc99" stroke="#555555" stroke-width="2.0" opacity="0.6" d="M -46.69325400000071,19.154024900002696 L -47.217354000000796,19.178324900007283 L -48.9699540000006,19.222424899991893 L -49.05185399999982,17.992724900010217 L -46.860053999999764,17.925824900004955 L -46.784454000001006,17.966024900000775 L -46.68905400000176,19.10332490001747 L -46.69325400000071,19.154024900002696 z" /><text font-size="7" x="-47.87323523791517" y="18.576506201333725" fill="rgba(3,3,113,0.5)" stroke="none">Jardines del Concejal Alejandro Muñoz Revenga</text><path fill-rule="evenodd" fill="#66cc99" stroke="#555555" stroke-width="2.0" opacity="0.6" d="M -43.72125399999959,59.196224899977096 L -43.70295400000032,59.228024899995944 L -46.0429539999991,59.228024899995944 L -46.811253999999735,59.231924899962905 L -49.15815400000065,59.26762489997054 L -49.46745400000009,59.31262489997607 L -49.945654000000104,59.521424899983685 L -50.23755400000073,59.648924899986014 L -51.1261540000005,59.198024899982556 L -51.28275400000075,59.14912489998824 L -52.37805400000025,58.39672489997611 L -53.66775400000097,57.444524899976386 L -54.34725399999979,57.63772489996336 L -54.386253999998644,57.81232489998365 L -55.50495400000182,58.05052489998343 L -54.81075400000009,59.86882489997515 L -55.23015400000031,59.97592489998351 L -55.0321540000009,60.464024899971264 L -55.29375399999935,60.63292489997548 L -54.94305400000076,61.036124899968854 L -54.252754000000095,61.808324899968284 L -53.067754000000605,61.27642489998834 L -51.806254000000536,60.69532489996345 L -51.565054000001055,60.72862489998079 L -51.03975399999945,60.76552489997994 L -51.130053999999745,61.34392489998572 L -51.04875399999992,61.625324899978295 L -50.90535399999908,61.844324899961066 L -50.73675400000093,62.04322489997867 L -50.59545400000161,62.18392489998223 L -50.39505399999916,62.3180248999779 L -50.21595400000069,62.42362489998777 L -50.02605399999993,62.519324899963976 L -49.76415399999996,62.627024899964454 L -49.46205399999917,62.71252489998005 L -49.19205400000055,62.76112489998923 L -48.89025399999991,62.79172489998018 L -47.40405399999918,62.78752489996987 L -46.50615399999924,62.839124899976014 L -47.055454000000736,64.32532489998266 L -48.27255400000058,64.04002489997947 L -48.58545399999957,63.93022489998839 L -50.237254000000576,63.5990248999733 L -50.69955399999935,63.49102489998768 L -51.1621540000001,63.359024899982614 L -51.814353999999184,63.119024899977376 L -52.48785400000088,62.85892489998514 L -53.01975400000083,62.57002489997103 L -53.629054,62.21212489998288 L -54.08085400000027,61.931624899967574 L -54.23595400000113,61.92772489998606 L -54.52995400000145,61.68142489998718 L -54.519453999999314,61.62142489996768 L -54.82125399999995,61.26892489998863 L -55.13955400000032,60.94132489996991 L -55.38795400000026,60.616124899977876 L -55.139854000000014,60.417524899974524 L -55.25385400000005,60.196424899986596 L -55.341153999998824,59.930024899986165 L -54.901654000000235,59.82112489996507 L -55.71465400000079,57.741224899982626 L -55.07745399999931,57.44152489998669 L -54.48525400000108,57.086324899981264 L -53.96385399999917,56.7353248999716 L -53.212654000001294,56.40112489995954 L -52.73625399999901,56.20042489996558 L -52.565853999999035,56.03902489997563 L -52.316253999998935,55.97782489996462 L -50.71215400000119,55.647224899985304 L -49.89975400000003,55.64092489997711 L -49.241254000000026,57.24202489997697 L -47.311653999999635,56.817824899975676 L -46.15875399999868,56.483924899977865 L -46.02195399999846,56.37442489998648 L -45.52155400000038,55.445624899970426 L -45.30885399999988,55.24012489998131 L -44.909254000000146,54.86212489998434 L -44.686053999999785,54.77452489998541 L -44.52405399999998,54.77722489998996 L -41.389354000001276,55.0541248999798 L -35.003854000000956,55.61842489996343 L -34.718553999999585,55.606124899983115 L -34.25835400000051,55.64572489998682 L -33.709353999999166,55.731524899965734 L -33.21465399999988,55.8440248999832 L -32.886153999999806,55.949324899986095 L -32.575054000000364,56.08642489997146 L -32.3554539999991,56.209124899993185 L -32.02005400000007,56.42962489997444 L -31.819053999999596,56.603624899966235 L -31.520254000000023,56.969924899989564 L -31.15815400000156,57.318824899964966 L -29.85765400000082,58.32382489996962 L -29.774853999999323,58.47262489998684 L -32.1079539999987,57.99652489997243 L -34.42635399999881,57.57502489999024 L -35.584053999999014,57.43162489997485 L -36.25125399999979,57.35332489995926 L -36.652653999999075,57.323324899982254 L -36.891154000000824,57.30532489998586 L -38.13135400000101,57.21202489997813 L -38.86785399999917,57.16162489997805 L -39.646654000000126,57.10552489998372 L -41.027254000000994,57.08482489999005 L -41.175753999999415,57.082724899984896 L -41.545954000000165,57.07702489998337 L -42.85185400000046,57.09472489996551 L -42.83685400000104,57.805724899961206 L -43.3213539999997,57.80152489998727 L -43.3162540000003,58.521524899988435 L -43.70925399999942,58.52902489998087 L -43.72125399999959,59.196224899977096 z" /><text font-size="7" x="-44.7396651959759" y="57.93667014874433" fill="rgba(3,3,113,0.5)" stroke="none">Parque de la Alcazaba</text><path fill-rule="evenodd" fill="#66cc99" stroke="#555555" stroke-width="2.0" opacity="0.6" d="M -35.24675399999933,64.3273249000049 L -35.178954000000886,64.16652489999979 L -35.10485400000016,63.96132489998854 L -34.89605399999891,63.29892489998019 L -34.34765399999924,61.73112489999039 L -34.84835399999929,61.619824899993546 L -34.97045399999979,61.59282489999896 L -34.78805399999965,61.08372489998874 L -34.49195400000008,60.25632489997952 L -37.688753999999335,59.816224900001544 L -42.5421539999993,59.60922489998484 L -43.85705400000006,59.29812489999313 L -43.92275400000062,58.510924899987 L -44.71805400000039,58.52352489998157 L -44.75285399999848,57.808924899989506 L -46.338353999999526,57.82872489999136 L -46.3386540000015,57.724924899986945 L -46.33925399999953,57.20472489997337 L -46.93745399999989,57.22662489998038 L -47.29985400000032,57.23262489999615 L -48.82715399999961,57.25752489997831 L -49.5033540000004,57.29952489997231 L -49.70285399999966,57.35082489998604 L -49.920053999999254,57.42582489997585 L -49.96475399999963,57.44502490000741 L -50.12405399999943,57.51312489998236 L -50.25155399999903,57.60702489998948 L -50.362253999999666,57.691024899992044 L -50.54075399999829,57.85602489999292 L -50.66435400000046,58.00482489999558 L -50.77475400000094,58.19232489998831 L -50.8512539999997,58.46412489998329 L -50.850053999999545,58.51722489998792 L -50.8470540000003,58.661524900002405 L -50.81615399999964,58.81692489999841 L -50.77055399999972,58.972024900002 L -50.736353999999665,59.077324899990344 L -50.681153999999424,59.1760248999999 L -50.61485399999901,59.28102489998855 L -50.52245399999947,59.38812489998236 L -50.42585399999825,59.47722490000888 L -50.28995399999849,59.564224899986584 L -50.06885400000101,59.6902248999977 L -49.737053999999716,59.83572489998187 L -49.38845400000082,59.91402489999746 L -48.78155399999969,59.91222489998472 L -47.82455399999981,59.909224899995024 L -46.86305400000083,59.909224899995024 L -46.013453999999,59.88282489998528 L -45.668153999999504,59.87862489998952 L -45.4185539999994,59.875924899984966 L -44.62985399999843,59.88462489997619 L -43.93085400000109,60.02232489999005 L -43.81055400000014,60.04602490000252 L -43.210553999999775,60.34332490000088 L -42.92225400000052,60.51192489998357 L -42.70295399999941,60.677824899983534 L -42.51605400000017,60.84522489998926 L -42.317153999998936,61.07172489998629 L -42.208254000000125,61.20222490000015 L -42.0015540000004,61.450024899982964 L -41.849153999999544,61.84902489998058 L -41.833853999999974,62.273524900003395 L -41.82815399999936,62.39652489998116 L -41.86175399999911,62.87292489998799 L -41.72735400000056,63.04722489997221 L -41.37845399999833,63.2155248999843 L -41.02775399999973,63.363424899987876 L -40.17845399999942,63.442024899981334 L -38.762454000000616,63.73962489999394 L -37.61615400000028,63.98622489999252 L -37.34555399999999,64.02762489999441 L -37.22165399999949,63.95712490000005 L -37.152653999999984,63.92532489999576 L -36.871253999999226,63.14412489999086 L -36.196253999998135,63.287224899992 L -36.48035400000026,64.0624248999884 L -36.44705399999975,64.10172489998513 L -35.24675399999933,64.3273249000049 z" /><text font-size="7" x="-41.640889129515514" y="60.627772134396544" fill="rgba(3,3,113,0.5)" stroke="none">Parque de la Alcazaba (Parque de Altamira)</text><path fill-rule="evenodd" fill="#66cc99" stroke="#555555" stroke-width="2.0" opacity="0.6" d="M -35.97135399999888,59.40282489996025 L -35.62995399999727,59.40642489997117 L -35.29365399999824,59.40522489997238 L -35.12715399999934,59.36802489998081 L -34.99245399999745,59.323624899974675 L -34.842453999999634,59.25912489996699 L -34.68405399999938,59.182324899978994 L -34.56585399999858,59.087224899965804 L -34.44105399999853,58.903024899962475 L -34.3258539999988,58.71882489996642 L -34.089753999998265,57.42852489998768 L -34.27695399999902,57.200824899977306 L -34.63155399999869,57.21282489997975 L -38.149953999997706,59.113924899975245 L -38.041353999999046,59.24352489998273 L -38.01075399999854,59.422024899984535 L -37.668753999998444,59.56662489998416 L -37.46565399999827,59.39472489999025 L -37.20645399999967,59.274724899980356 L -36.87375399999837,59.27262489998975 L -36.61605399999962,59.28942489998735 L -36.37035399999877,59.334724899985304 L -35.97135399999888,59.40282489996025 z" /><text font-size="7" x="-35.71696579418092" y="58.542436230780076" fill="rgba(3,3,113,0.5)" stroke="none">Parque de la Ventilla</text><path fill-rule="evenodd" fill="#66cc99" stroke="#555555" stroke-width="2.0" opacity="0.6" d="M -19.43775399999913,60.804324899974745 L -18.491253999997753,60.60662489997776 L -17.718153999997867,60.585024899977725 L -16.44945399999915,60.74012489998131 L -15.786753999999746,58.81742489997123 L -15.200553999999102,58.564524899979006 L -14.798853999997846,58.269024899971555 L -14.728653999998187,58.21742489996541 L -15.660753999998178,57.594324899982894 L -15.783753999998225,57.50372489995789 L -16.127553999997872,57.50252489997365 L -17.294853999998395,57.54962489996251 L -19.14405399999896,57.69032489996607 L -19.854753999998138,57.75302489998285 L -21.86025399999926,57.93002489997161 L -22.71585399999867,58.06442489998153 L -23.119053999997504,58.10522489997675 L -23.413653999997678,58.13882489997195 L -23.440653999999085,58.16582489995926 L -23.52435399999831,58.146324899978936 L -23.612853999998606,58.15112489998137 L -23.688753999999335,58.17842489997565 L -23.723853999998937,58.166724899972905 L -23.83575399999745,58.12442489997193 L -25.577253999998902,58.310124899973744 L -25.98735399999714,58.3068248999698 L -26.703453999999056,58.3008248999613 L -29.224053999997523,58.280124899982184 L -31.18605399999842,58.26392489999125 L -34.50855399999773,57.14972489998763 L -34.68705399999817,57.624924899981124 L -34.68045399999937,58.13072489998012 L -38.46885399999883,58.1304248999877 L -39.401853999998366,58.347024899972894 L -41.95425399999749,58.93952489997173 L -42.230853999998544,58.22672489997785 L -42.535653999998885,57.394524899958924 L -42.58155399999896,57.32252489997336 L -42.70605399999886,57.00152489998436 L -42.98355399999855,56.28602489997138 L -43.440153999998074,56.273724899976514 L -43.569153999999344,56.311824899974454 L -43.675953999998455,56.79332489998342 L -43.741353999998864,57.06662489996961 L -43.84095399999933,57.337524899994605 L -43.988853999999264,57.51152489997912 L -44.17335399999729,57.65552489997208 L -44.42055399999754,57.78752489997714 L -44.852553999999145,57.98582489997352 L -44.86875399999872,58.16942489998473 L -45.46425399999771,58.1817248999796 L -45.46425399999771,57.98582489997352 L -45.80205399999841,57.98582489997352 L -46.41375399999879,57.85112489997118 L -46.1434539999982,58.17332489996625 L -45.98265399999855,58.73252489997685 L -45.19095399999787,58.79852489998302 L -45.193353999997726,58.879224899967085 L -45.22425399999793,59.95022489997791 L -47.35635399999728,59.9283248999709 L -47.761053999997785,59.91692489998968 L -47.50845399999798,60.36302489996888 L -45.50445399999853,60.36422489996767 L -45.51405399999703,61.442124899964256 L -46.945653999999195,61.34822489997168 L -46.72845399999915,61.757124899981136 L -45.96315399999821,61.95212489998812 L -44.7307539999988,62.17502489998151 L -44.33445399999846,62.19032489997335 L -44.00175399999716,62.18882489997486 L -43.63905399999885,62.17202489997726 L -43.29165399999829,62.148024899965094 L -42.4837539999985,62.02112489998399 L -41.97165399999858,61.88612489998195 L -41.46435399999791,61.687224899971625 L -40.70625399999881,61.39802489998692 L -40.549953999998706,61.33682489996863 L -40.19895399999814,61.22102489999088 L -39.55725399999892,61.071924899973965 L -38.69805399999859,60.975924899976235 L -37.84365399999888,60.899124899973685 L -37.27545399999872,60.903324899984 L -36.54915399999845,60.971724899973196 L -35.45625399999881,61.17902489998232 L -35.024553999998716,61.27412489996641 L -34.353753999998844,61.42232489997696 L -33.25845399999753,61.62992489995668 L -32.411853999998584,61.586124899971765 L -31.397853999998915,61.463424899979145 L -29.454453999998805,61.12412489997223 L -28.09395399999812,60.99062489996868 L -27.19035399999757,60.96122489998379 L -26.48715399999719,61.02602489996934 L -25.33995399999867,61.118424899970705 L -24.813153999999486,61.20842489997449 L -23.372253999998975,61.39052489998721 L -22.869153999997707,61.41932489998726 L -22.14435399999911,61.40222489997541 L -21.375753999998324,61.298724899985245 L -20.567253999998684,61.1331248999777 L -19.43775399999913,60.804324899974745 z" /><text font-size="7" x="-31.502122035591928" y="59.61751051182676" fill="rgba(3,3,113,0.5)" stroke="none">Parque de La Ventilla</text><path fill-rule="evenodd" fill="#66cc99" stroke="#555555" stroke-width="2.0" opacity="0.6" d="M 52.360746000001654,-39.21837510003388 L 53.75454600000239,-37.58757510002033 L 54.503946000000724,-37.46967510001559 L 56.63244600000189,-38.53197510002792 L 59.106546000002254,-39.84897510003066 L 59.13174600000184,-39.94947510003112 L 55.981746000000385,-43.65177510002104 L 55.847946000001684,-43.67217510002956 L 55.70514600000115,-43.69737510001141 L 50.84994600000118,-41.29527510002663 L 50.781546000001526,-41.06607510001777 L 52.360746000001654,-39.21837510003388 z" /><text font-size="7" x="54.944546959741636" y="-40.5278938525318" fill="rgba(3,3,113,0.5)" stroke="none">Parque Lola Camarena</text><path fill-rule="evenodd" fill="#66cc99" stroke="#555555" stroke-width="2.0" opacity="0.6" d="M -45.148453999998765,-8.879275100000086 L -47.703253999999106,-8.405275100005383 L -47.84845399999949,-7.689175100014836 L -47.74435399999811,-7.551175099993998 L -47.6399539999984,-7.549675099995511 L -47.64295399999946,-7.503175100013323 L -47.30545399999892,-7.498075100018468 L -47.19955399999799,-7.4935751000011805 L -47.23105399999986,-6.476575100008631 L -44.98915399999851,-6.392875100005767 L -45.06385399999772,-6.813775100017665 L -44.73295399999961,-6.844075100008922 L -45.148453999998765,-8.879275100000086 z" /><text font-size="7" x="-46.17548962623157" y="-7.588781064483691" fill="rgba(3,3,113,0.5)" stroke="none">Jardín de las Heroínas de Sálvora</text><path fill-rule="evenodd" fill="#66cc99" stroke="#555555" stroke-width="2.0" opacity="0.6" d="M -46.44185400000015,-9.815775099981693 L -46.30145400000083,-9.499875099980272 L -46.33295400000134,-9.3549750999955 L -46.35785400000077,-9.259875099989586 L -46.55165399999896,-8.321475099990494 L -46.71425400000044,-7.4526751000012155 L -46.50065399999994,-7.491975099983392 L -43.29875399999946,-8.062275100004626 L -43.263653999999406,-8.175975099991774 L -43.220454000001155,-8.424975100002484 L -42.835854000000836,-10.71337509998557 L -42.87125400000059,-10.758375099983823 L -42.93185399999993,-10.773975099997187 L -45.37715399999979,-10.110675100011576 L -46.44185400000015,-9.815775099981693 z" /><text font-size="7" x="-44.73569453406127" y="-9.054856171852522" fill="rgba(3,3,113,0.5)" stroke="none">Jardín del Rastro</text><path fill-rule="evenodd" fill="#66cc99" stroke="#555555" stroke-width="2.0" opacity="0.6" d="M -40.14085399999885,-11.880675100001099 L -40.08745399999816,-11.954175099999702 L -39.45415399999774,-12.822975100010808 L -39.122653999999784,-13.276875100003963 L -38.7296539999993,-13.816875100004836 L -38.68165399999771,-13.882875100011006 L -39.16345399999864,-13.851375100006408 L -39.58375399999886,-13.824075100004848 L -40.08055399999921,-13.791675100008433 L -40.54075399999829,-13.761675100002321 L -41.04085399999849,-13.72897510000621 L -41.07205399999884,-13.684575100000075 L -41.28655399999934,-13.381875099992612 L -41.563753999998426,-12.972075100013171 L -41.62045399999852,-12.888375100003032 L -41.521153999998205,-12.821475100012321 L -40.14085399999885,-11.880675100001099 z" /><text font-size="7" x="-40.23810205008229" y="-13.06878032022714" fill="rgba(3,3,113,0.5)" stroke="none">Jardín del Párroco Sánchez Cámara</text><path fill-rule="evenodd" fill="#66cc99" stroke="#555555" stroke-width="2.0" opacity="0.6" d="M -24.315153999998984,-49.37467510001443 L -19.444354000000203,-48.21487510001316 L -19.19235399999843,-49.06987510000181 L -19.130553999999393,-49.86397510000825 L -21.882753999999295,-50.88787510000111 L -24.28005399999938,-49.51357510001253 L -24.315153999998984,-49.37467510001443 z" /><text font-size="7" x="-21.342985023957276" y="-49.547417065564346" fill="rgba(3,3,113,0.5)" stroke="none">Parque Oligisto</text><path fill-rule="evenodd" fill="#66cc99" stroke="#555555" stroke-width="2.0" opacity="0.6" d="M 48.60054599999921,27.59542489999876 L 48.92484600000034,26.908724900007655 L 48.92724599999974,26.780624899998656 L 48.89364599999999,26.67412490001152 L 48.795845999999074,26.532224899994617 L 48.663546000000224,26.45242490000237 L 47.02194599999939,25.940924900009122 L 45.964746000001014,25.611524899999495 L 45.7403460000005,25.600724900003115 L 45.50364600000012,25.62682489999861 L 45.3653460000005,25.69162489999144 L 45.19554600000038,25.82632489999378 L 43.72794600000043,26.990024899983837 L 43.09464600000001,27.49222490000102 L 43.05414600000131,27.574724900005094 L 43.079946000000746,27.676124899997376 L 43.17564599999969,27.727124899996852 L 44.773446000000604,28.16062490001059 L 45.44514600000048,28.34302490000846 L 45.47784599999886,28.259324900005595 L 46.93344600000046,27.14422490001016 L 48.60054599999921,27.59542489999876 z" /><text font-size="7" x="45.956460320766666" y="26.93586683293829" fill="rgba(3,3,113,0.5)" stroke="none">Parque del registro de la propiedad</text><path fill-rule="evenodd" fill="#66cc99" stroke="#555555" stroke-width="2.0" opacity="0.6" d="M -38.98755400000118,64.47202490000927 L -38.207254000000376,62.200724900008936 L -38.289454000000205,58.13752489999024 L -37.86675400000058,57.86182489998464 L -37.71675400000095,57.90112490001047 L -37.59765400000151,59.56552489999012 L -37.43475400000034,59.8520248999921 L -37.25475400000005,59.971724900009576 L -36.43995399999949,60.25402490000124 L -36.776854000000185,60.72502490000625 L -37.164454000000205,61.24462490001315 L -36.635554000000866,61.470224900003814 L -37.0096539999995,61.98412489999464 L -36.50025400000095,62.20972490001441 L -36.891153999999915,62.725424900010694 L -37.354054000000815,63.334724899999856 L -37.30725400000074,63.545024900005956 L -36.821554000000106,63.73942490000627 L -37.54095400000142,64.68772489999537 L -37.66665399999965,64.74652490000153 L -37.7566539999998,64.77022489999945 L -37.915054000000055,64.78252489999431 L -38.589154000001145,64.6682249000005 L -38.702854000001025,64.50772490000963 L -38.98755400000118,64.47202490000927 z" /><text font-size="7" x="-37.72609845843819" y="61.85788695949797" fill="rgba(3,3,113,0.5)" stroke="none">Canal Bajo de Madrid</text><path fill-rule="evenodd" fill="#66cc99" stroke="#555555" stroke-width="2.0" opacity="0.6" d="M -37.22255399999858,68.39252489998762 L -37.06805399999803,68.74502489999577 L -30.141653999998653,71.58452489999036 L -30.53915399999869,70.67642489999707 L -31.8642539999978,70.02872489999572 L -31.893353999998453,69.56432489999861 L -34.86725399999705,68.38922489998367 L -34.44935399999849,67.84862489999068 L -35.259054000000106,67.55522489998839 L -34.62845399999924,66.91832489998342 L -35.78045399999837,66.53192489998764 L -37.22255399999858,68.39252489998762 z" /><text font-size="7" x="-34.246377533603045" y="69.02854008148755" fill="rgba(3,3,113,0.5)" stroke="none">Canal Bajo de Madrid</text><path fill-rule="evenodd" fill="#66cc99" stroke="#555555" stroke-width="2.0" opacity="0.6" d="M -51.968353999998726,63.802024899981916 L -52.10365399999864,63.793624899983115 L -52.218253999998524,63.74772489997849 L -52.41745399999945,63.573424900001555 L -53.07175399999869,62.918224899985944 L -53.672353999998904,61.775524899981974 L -53.915053999998236,60.824524899995595 L -54.12265399999933,60.53172489998542 L -54.06745399999727,59.79042489999847 L -54.01735399999825,59.518024899982265 L -53.94565399999874,59.27142489997641 L -53.68765399999984,58.765324899992265 L -52.65805399999908,57.36042489999818 L -50.82715399999961,54.994924899998296 L -48.0497539999983,51.357424899986654 L -47.788754000000154,50.44542489999003 L -47.779753999999684,50.31012489999557 L -47.711053999999876,50.1136248999901 L -47.57395399999996,49.83042489999207 L -47.517853999999716,49.676524899979995 L -47.55925399999842,49.4230248999811 L -47.569453999998586,49.316824899971834 L -47.47885399999859,48.9802248999913 L -47.22655399999894,48.12162489999173 L -45.23365399999966,45.90162489998329 L -45.16435399999955,45.85302489996684 L -45.0455539999989,45.819724899985886 L -44.81695399999899,45.77652489997854 L -44.6666539999992,45.7501248999979 L -44.54965399999992,45.69972489997599 L -44.472853999997824,45.631324899986794 L -44.42695399999957,45.53982489997725 L -44.37655399999858,45.4063248999737 L -44.28505399999858,44.74872489998961 L -44.092453999998725,43.210624899984396 L -44.02315399999861,42.9883248999904 L -43.90915399999858,42.6766248999993 L -42.24655399999756,40.166524899985234 L -42.15835399999878,40.04592489998322 L -42.067153999998936,39.983524899980694 L -41.96545399999877,39.93762489997607 L -41.75995399999874,39.89502489998995 L -41.64895399999841,39.889324899988424 L -41.5709539999998,39.91152489998785 L -41.505253999999695,39.93822489998274 L -41.442253999998684,39.97362489999796 L -41.378953999999794,40.01862489998166 L -41.30155399999967,40.11012489999848 L -39.8234539999994,41.95902489998116 L -39.70015399999738,42.08352489999379 L -39.54775399999835,42.2326248999816 L -39.37525399999868,42.37092489998031 L -39.04915399999982,42.611524899963115 L -38.73775399999886,42.81822489997285 L -38.39185399999951,43.0336248999738 L -38.04355399999895,43.221124899988354 L -37.56535399999893,43.45482489997812 L -37.41475399999945,43.52352489999612 L -37.21315399999912,43.64682489998086 L -37.00255399999969,43.79352489996381 L -36.76885399999901,44.00172489997203 L -36.64045399999941,44.14872489999834 L -36.563353999999435,44.266924899988226 L -36.50365399999964,44.3779248999781 L -36.4568539999982,44.52072489999409 L -36.433754000000135,44.60352489996876 L -36.39715399999841,44.81682489997911 L -36.36505399999987,45.012424899978214 L -36.36205399999881,45.05382489999465 L -36.373453999998674,45.1987248999867 L -36.354253999998036,45.297724899995956 L -36.34705399999939,45.34752489999664 L -36.40225399999781,45.661324899992906 L -36.547454000000016,46.01352489997225 L -36.84175399999822,46.42452489997231 L -37.03885399999763,46.61772489998839 L -37.18945399999893,46.734424899979786 L -37.32535399999915,46.8100248999981 L -38.18335399999842,47.104324899977655 L -38.22475399999894,47.059324899972125 L -38.560153999997965,47.181424899972626 L -38.9258539999978,47.31492489997618 L -38.89375399999926,47.383024900002056 L -39.14515399999891,47.50122489998466 L -39.43045399999892,47.662024899989774 L -39.754753999997774,47.86212489997706 L -40.27825399999938,48.22452489997522 L -40.762153999998645,48.60012489997462 L -40.97635399999899,48.79782489999343 L -41.144053999999414,48.96612489999097 L -41.302453999999216,49.13262489998306 L -41.64265399999931,49.51302489999216 L -41.815453999999136,49.69122489998699 L -41.90335399999958,49.793224899985944 L -42.03265399999873,49.99362489996565 L -42.355753999999706,50.649424899987935 L -42.640453999998044,51.46032489997742 L -42.73735399999896,51.99462489997677 L -42.73555399999941,53.00592489998962 L -42.71245399999907,53.34972489998472 L -42.58735399999932,53.80422489997727 L -42.2984539999984,54.44772489999741 L -42.82285399999819,54.574924899978214 L -42.46495399999867,55.50252489997365 L -43.60345399999869,55.77792489998683 L -43.22935400000006,56.72082489996683 L -41.53945399999975,56.3290248999765 L -41.63665399999854,56.467624899982184 L -41.83915399999887,56.55222489998414 L -42.897853999998915,56.80512489997636 L -43.018453999999565,56.84412489998067 L -43.69015399999944,57.28542489998654 L -44.10115399999904,57.55782489998819 L -44.26975399999901,57.648724899991066 L -44.43055399999912,57.709024899988435 L -44.59915399999909,57.747124899986375 L -44.85565399999996,57.78312489998643 L -45.38815400000021,57.86052489999565 L -45.68695399999979,57.916924899982405 L -45.89395399999921,57.980524899990996 L -46.11655399999836,58.069924899995385 L -46.30315399999927,58.16052489999129 L -46.48405399999956,58.27122489998146 L -46.67515400000002,58.421824899996864 L -46.87615399999868,58.621924899976875 L -47.015354000000116,58.82292489998508 L -47.13685399999895,59.04072489999817 L -47.224153999999544,59.23812489997363 L -47.58205399999861,60.16902489997301 L -47.62405399999898,60.269224899981054 L -47.70625399999881,60.396124899991264 L -47.81725399999914,60.54072489997634 L -48.48655399999916,61.305424899983336 L -49.013653999998496,61.831924899976 L -49.391353999998046,62.09412489999522 L -49.53655399999843,62.250724899997294 L -49.60915399999976,62.334424899985606 L -50.32315400000016,62.96742489999451 L -50.586853999999676,63.16032489998179 L -51.0455539999989,63.451024899986805 L -51.14815399999907,63.46782489998441 L -51.292753999999604,63.58872489997157 L -51.52615400000013,63.69282489999023 L -51.761653999999,63.76152490000095 L -51.968353999998726,63.802024899981916 z" /><text font-size="7" x="-45.53978135885862" y="52.02868040362593" fill="rgba(3,3,113,0.5)" stroke="none">Parque Agustín Rodríguez Sahagún</text><path fill-rule="evenodd" fill="#66cc99" stroke="#555555" stroke-width="2.0" opacity="0.6" d="M -26.387354000000414,53.275224899975 L -19.869553999999425,54.645324899975094 L -19.68325400000049,54.6189248999799 L -19.47145399999954,54.536124899983406 L -19.364654000000428,54.45632489996933 L -19.2959539999988,54.355824899968866 L -19.017553999999564,52.984224899970286 L -18.0338540000007,48.175824899968575 L -18.014054000000215,48.040524899974116 L -27.581054000000677,46.2951248999816 L -28.109353999999712,46.623624899977585 L -28.106654000000162,47.099124899970775 L -28.116253999998662,47.472624899994116 L -28.076353999999355,51.12362489998486 L -27.513554000000568,51.396924899971054 L -27.06685399999924,51.72662489996583 L -26.788454,52.06142489998456 L -26.498653999999078,52.51772489998257 L -26.388554000000568,52.92122489999019 L -26.387354000000414,53.275224899975 z" /><text font-size="7" x="-23.200122263970478" y="50.33013712796319" fill="rgba(3,3,113,0.5)" stroke="none">Parque del Cuarto Depósito</text><path fill-rule="evenodd" fill="#66cc99" stroke="#555555" stroke-width="2.0" opacity="0.6" d="M 24.962945999997828,117.62382489999436 L 26.977445999998963,118.19772489998286 L 29.52324599999929,118.93362489999708 L 32.03394599999774,119.66232489998947 L 34.52184599999964,120.34932489998755 L 37.4708459999988,121.13862489999883 L 37.42134599999781,121.23822489997838 L 37.11774599999899,121.87332489997789 L 36.26634600000034,123.5944249000022 L 35.72544599999992,123.59322489998885 L 35.62044599999854,123.66582490000292 L 35.5013459999991,123.6955248999875 L 35.372645999999804,123.70242490000237 L 35.118245999998635,123.77142489999824 L 34.99194599999919,123.83082489998196 L 34.88184600000022,123.89292489999207 L 34.73964599999954,123.96852489999583 L 34.66044599999941,124.01652489998378 L 25.18644599999834,121.32012489999033 L 25.233545999999933,121.17612490000465 L 24.162845999998353,120.89712489998055 L 24.078245999999126,120.5401248999915 L 23.852945999999065,120.28452489998745 L 24.11094599999933,119.76792489999934 L 23.922545999998874,119.72262489999412 L 24.962945999997828,117.62382489999436 z" /><text font-size="7" x="30.43987092966068" y="120.95718094603123" fill="rgba(3,3,113,0.5)" stroke="none">Jardín de la Vega (sector oeste)</text><path fill-rule="evenodd" fill="#66cc99" stroke="#555555" stroke-width="2.0" opacity="0.6" d="M 29.87814600000047,118.99922489999153 L 35.28534600000103,120.57392489998165 L 40.24284600000101,122.10842490000505 L 39.34014600000137,123.97262490000139 L 39.143646000000444,124.16612489997351 L 38.89524600000004,124.27262489998975 L 38.51754600000049,124.32182489999104 L 38.23044600000094,124.40162489997601 L 37.97244600000022,124.49372489999223 L 37.758846000000176,124.64192490000278 L 37.43784600000026,124.76822489997721 L 37.13394599999992,124.78052489998663 L 29.595246000000316,122.63822489998711 L 29.43624600000021,122.55962489999365 L 29.364846000000853,122.45912489998591 L 29.342046000000664,122.30012489997898 L 29.27724600000056,122.1735248999903 L 29.186346000000412,122.05352489999495 L 29.04684600000064,121.91072489998623 L 28.978746000000683,121.81022489998577 L 28.990446000000702,121.68092489999253 L 28.673646000002464,121.45502490000217 L 29.525046000000657,119.73392489997059 L 29.82864599999948,119.09882489997835 L 29.87814600000047,118.99922489999153 z" /><text font-size="7" x="34.22967162494921" y="122.06155167959763" fill="rgba(3,3,113,0.5)" stroke="none">Jardín de la Vega (sector centro)</text><path fill-rule="evenodd" fill="#66cc99" stroke="#555555" stroke-width="2.0" opacity="0.6" d="M 33.553746000001865,120.22342490001756 L 38.66514600000028,121.52752490001876 L 41.36364600000161,122.29282489999605 L 41.686446000002434,122.29852490000485 L 41.93244600000162,122.28172490000725 L 42.18054600000187,122.18932490000589 L 42.37014600000248,122.10022490000847 L 42.55944600000112,121.98022490001313 L 42.67614600000252,121.85632490002172 L 42.8003460000009,121.64482490001683 L 42.87834600000269,121.30822490000719 L 42.86004600000206,121.02682490000007 L 42.76794600000221,120.86122490000707 L 43.082646000003024,120.7418249000184 L 43.703046000001905,121.53352490001271 L 43.74114600000303,121.73332490000757 L 43.46514600000182,122.9312248999995 L 43.120446000000356,123.46072490001097 L 41.12094600000228,125.36932490002073 L 40.67844600000217,125.65252490000421 L 40.25934600000164,125.65132490000542 L 37.14834600000131,124.7960249000098 L 33.654246000001876,123.83542490001855 L 33.38424600000144,123.63562490000186 L 33.17004600000109,123.04702490001364 L 32.897946000002776,122.71792490000371 L 32.63184600000204,122.42422490000172 L 32.6150460000008,122.19172490000346 L 33.553746000001865,120.22342490001756 z" /><text font-size="7" x="37.96900363610271" y="122.96619198558555" fill="rgba(3,3,113,0.5)" stroke="none">Jardín de la Vega (sector este)</text><path fill-rule="evenodd" fill="#66cc99" stroke="#555555" stroke-width="2.0" opacity="0.6" d="M 31.967245999998795,125.23232489999646 L 32.833046000000195,123.50342490000912 L 34.01924599999984,123.65252489999693 L 34.95254599999953,123.59702490000927 L 35.62274599999955,123.54182489999948 L 36.02144599999929,123.64742490000208 L 36.78824599999871,122.12492490000295 L 39.13064600000007,122.78612489999068 L 39.26114599999937,122.78612489999068 L 39.376045999999405,122.60582490000525 L 41.53244599999971,123.24122489999718 L 41.75174600000082,123.36482489999617 L 41.90084600000091,123.57242490000499 L 41.94644600000083,123.84482490000664 L 41.805145999999695,124.07312490000913 L 39.501445999999305,125.99732489999587 L 38.26544600000034,126.48662490001152 L 36.9595460000005,126.5061249000064 L 34.13024600000017,125.9682249000034 L 31.967245999998795,125.23232489999646 z" /><text font-size="7" x="37.12467517182777" y="124.50259414739756" fill="rgba(3,3,113,0.5)" stroke="none">Jardín de la Vega (sector norte)</text><path fill-rule="evenodd" fill="#66cc99" stroke="#555555" stroke-width="2.0" opacity="0.6" d="M 28.2982460000012,117.34882490000746 L 28.80104600000095,117.51052489998256 L 30.801746000002368,118.15432489998784 L 33.289646000001085,119.04982489998656 L 32.713346000002275,119.75422489998891 L 32.6368460000017,119.84782490000362 L 31.98764600000186,120.61012489999848 L 31.275446000001466,119.58592489997682 L 31.074446000002354,119.54512489999615 L 31.189046000002236,119.2847249000115 L 30.49394600000096,119.09002489998966 L 29.194646000001285,118.7108248999939 L 29.071946000000935,118.95862489999126 L 28.830446000001302,118.88842490000388 L 28.90694600000006,118.74142489997757 L 28.810946000000968,118.71652489999542 L 28.206746000001203,119.91712489999918 L 27.61934600000086,119.74432490001345 L 27.385946000001695,120.19072489999962 L 27.863546000000042,120.33112489998894 L 27.511046000001443,121.0481249000004 L 27.353546000001188,120.99952489998395 L 27.213446000002023,121.26562490000651 L 27.40274600000066,121.32562490001146 L 27.36914600000091,121.39432489999308 L 27.22784600000159,121.68412489998445 L 26.899346000001515,121.71652489999542 L 26.47964600000114,121.86742490000324 L 26.199146000000383,122.07112490000145 L 23.926646000000346,123.84982489998947 L 18.358946000002106,128.2484248999899 L 17.431946000001062,128.15062490000128 L 17.36714600000232,128.25172489999386 L 13.981646000002002,130.81192490000103 L 14.419346000001042,131.2034248999771 L 13.775546000002578,131.51632489998883 L 13.003346000002239,131.84902489998785 L 12.205046000000948,131.86852489999728 L 10.211846000001515,131.65402489998814 L 9.460646000001816,131.54092489997856 L 9.261446000000888,131.51092489999428 L 8.446646000000328,131.2868249000021 L 8.625746000000618,130.85122489999776 L 8.703146000003017,130.32262489998539 L 7.0396460000015395,129.50632490000862 L 6.283346000001075,129.04462489998696 L 5.99354600000197,128.8244249000054 L 13.26074600000129,126.19402490000357 L 11.56124600000021,124.82422490001045 L 11.715746000001218,124.56982489999064 L 21.964046000001872,121.77142489999096 L 22.53044600000203,121.61482489998889 L 24.79634600000145,120.65602489999583 L 26.98514600000044,119.50132489999669 L 27.65444600000228,118.87522489999537 L 28.117946000000757,118.26862489999621 L 28.2982460000012,117.34882490000746 z" /><text font-size="7" x="17.486824962878835" y="125.66311200923398" fill="rgba(3,3,113,0.5)" stroke="none">Parque de Andalucía</text><path fill-rule="evenodd" fill="#66cc99" stroke="#555555" stroke-width="2.0" opacity="0.6" d="M -29.582854000000225,82.81432489999861 L -29.537254000000303,77.70802489997732 L -28.584453999998004,77.35552489999827 L -27.03945399999793,77.35552489999827 L -27.03945399999793,78.4718248999925 L -26.641053999997894,79.29892489998747 L -26.73735399999896,80.12602489999699 L -26.260953999998947,81.26722489998792 L -26.202753999999004,82.57852489998186 L -26.85135399999899,83.25502489998325 L -27.056253999998717,83.20072489999438 L -27.302853999999115,83.22622489999048 L -27.47625399999879,83.29612489998544 L -27.61035399999946,83.42812489998323 L -29.582854000000225,82.81432489999861 z" /><text font-size="7" x="-28.044305843744127" y="80.4472111771711" fill="rgba(3,3,113,0.5)" stroke="none">Parque Fuente Chica</text><path fill-rule="evenodd" fill="#66cc99" stroke="#555555" stroke-width="2.0" opacity="0.6" d="M -30.048054000001684,40.74772489997122 L -30.274853999999777,38.20582489998924 L -29.477454000000307,38.16412489996583 L -29.38445400000046,38.80252489997656 L -29.125554000000193,39.020324899975094 L -28.794954000000416,39.005324899975676 L -28.592454000001908,40.692824899975676 L -30.048054000001684,40.74772489997122 z" /><text font-size="7" x="-29.500563041817816" y="39.59025504700158" fill="rgba(3,3,113,0.5)" stroke="none">Avenida de Brasil</text><path fill-rule="evenodd" fill="#66cc99" stroke="#555555" stroke-width="2.0" opacity="0.6" d="M -24.546153999998296,46.94372489998932 L -24.615753999999924,46.19972489999054 L -24.710253999999622,46.053924899977574 L -24.857853999999406,45.96692489997076 L -24.942154000000755,44.8176248999589 L -24.957754000000023,44.60612489996856 L -25.056453999998666,43.260624899972754 L -21.579753999998502,43.11212489997706 L -21.230553999997937,45.87122489998001 L -21.254253999997673,45.891324899981555 L -21.40065400000003,45.92372489997797 L -21.58185400000002,46.112424899984035 L -21.508053999998992,46.74962489997415 L -24.071253999999954,46.91342489996896 L -24.546153999998296,46.94372489998932 z" /><text font-size="7" x="-23.15667329036866" y="44.97570524564424" fill="rgba(3,3,113,0.5)" stroke="none">Parque de San Fernando</text><path fill-rule="evenodd" fill="#66cc99" stroke="#555555" stroke-width="2.0" opacity="0.6" d="M -31.48785399999997,36.66402489997563 L -31.827753999999914,32.898124899984396 L -28.074454000000514,32.7049249000047 L -28.008154000000104,33.32322489998478 L -27.089253999998164,33.27432489999046 L -26.808153999999377,33.46662489998562 L -26.698953999998594,34.596724899995024 L -26.367454000000635,34.58562489999167 L -26.27985400000034,35.386324899998726 L -26.3479540000003,35.38272489998781 L -26.24115399999937,36.4030248999843 L -31.48785399999997,36.66402489997563 z" /><text font-size="7" x="-29.17112386613766" y="34.74945227855781" fill="rgba(3,3,113,0.5)" stroke="none">Plaza de Pablo Ruiz Picasso</text><path fill-rule="evenodd" fill="#66cc99" stroke="#555555" stroke-width="2.0" opacity="0.6" d="M -29.99955399999817,37.2778248999748 L -29.932953999999427,38.15832489999593 L -29.902653999999075,38.56122489997506 L -33.70545399999992,38.727124899989576 L -33.698853999998846,38.93592489997536 L -33.88725399999976,38.94402489998902 L -34.448253999999,38.96892489997117 L -34.48515400000042,38.39322489997721 L -34.55415399999856,37.47672489997058 L -34.29495399999996,37.46532489998208 L -29.99955399999817,37.2778248999748 z" /><text font-size="7" x="-32.27705754721602" y="38.040657964695185" fill="rgba(3,3,113,0.5)" stroke="none">Jardines de Perón</text><path fill-rule="evenodd" fill="#66cc99" stroke="#555555" stroke-width="2.0" opacity="0.6" d="M -31.588153999999577,37.40512489998946 L -31.452554000001328,38.823824900006 L -32.94055400000161,38.91322489999584 L -32.95615400000088,38.7554248999877 L -35.856554000000415,38.91292490000342 L -35.970254000000295,37.69882489999145 L -31.588153999999577,37.40512489998946 z" /><text font-size="7" x="-33.64398315198746" y="38.19689870665729" fill="rgba(3,3,113,0.5)" stroke="none">Jardines de Perón</text><path fill-rule="evenodd" fill="#66cc99" stroke="#555555" stroke-width="2.0" opacity="0.6" d="M 30.29584599999953,5.4369248999792035 L 30.371146000000408,5.427024900003744 L 30.423346000000947,5.44172490001074 L 30.465946000001622,5.464224899980763 L 30.47884600000134,5.490924899997481 L 30.550846000000547,5.640624899991963 L 30.564046000000417,5.668524899985641 L 30.5511460000007,5.795424899995851 L 30.501945999999407,5.912424900001497 L 29.851246000001538,6.975624900005641 L 29.78584599999931,7.057824900002743 L 29.736645999999837,7.067724899992754 L 29.553346000000147,7.324224900003173 L 29.052946000000247,7.573224899999332 L 27.19534600000088,8.633724899991648 L 27.123645999999553,8.671524899997166 L 26.865346000000955,8.807424899983744 L 24.94504600000073,9.816624899998715 L 23.979346000000987,10.322424899997714 L 23.90224600000056,10.362624899993534 L 23.76214600000094,10.436124899992137 L 23.613946000001306,10.513524899986805 L 21.748846000001322,11.519124899990857 L 21.467746000000716,11.670924899997772 L 20.653846000000158,12.109524899984535 L 20.583346000000347,12.148524899996119 L 19.60744599999998,12.684624900000927 L 18.56644599999936,13.230324900003325 L 18.472845999999663,13.27922490000492 L 18.38944600000059,13.323024899989832 L 17.724345999999514,13.67162489999464 L 16.972245999999814,14.088624899981369 L 16.77154599999949,14.199924900000042 L 16.025746000000254,14.602524899986747 L 15.788146000000324,14.730924899995443 L 14.685046000000511,15.326424899998528 L 14.190945999999258,15.562824900000123 L 14.031946000000971,15.629124899998715 L 13.644946000001255,15.789624900011404 L 12.885945999998967,16.035924899995734 L 12.843646000000263,16.04102490000514 L 12.823845999999776,16.020924900003592 L 12.817246000000978,15.948924899988924 L 12.787846000000172,15.722124900006747 L 12.763246000000436,15.545124899996154 L 12.751846000000569,15.465924899981474 L 12.647446000000855,14.629224900003464 L 12.647446000000855,14.549724899974535 L 12.676845999999841,14.454924899975595 L 12.74554599999965,14.34542489998421 L 12.85654599999998,14.245824899997388 L 15.670846000000893,12.735024899993732 L 15.746145999999499,12.694524899983662 L 15.801946000000044,12.664524899999378 L 16.98424600000135,12.030024899999262 L 22.24354600000015,9.213924899995618 L 22.309246000000712,9.178524899994954 L 22.384546000001592,9.138024899984885 L 26.132446000000073,7.119924899998296 L 26.16334599999891,7.104024899985234 L 26.22754599999962,7.071024899982149 L 26.29294600000003,7.037124899994524 L 27.181245999999646,6.578724899976805 L 27.25174600000082,6.542424899991602 L 27.315046000000166,6.509724899980938 L 27.368446000000404,6.482124899986957 L 27.682546000001366,6.325824899984582 L 28.140645999998924,6.1191248999821255 L 28.536346000000776,5.959824900004605 L 29.180745999999544,5.7405249000075855 L 29.733346000000438,5.5812248999936855 L 30.29584599999953,5.4369248999792035 z" /><text font-size="7" x="21.391526709748405" y="10.696299065420192" fill="rgba(3,3,113,0.5)" stroke="none">Parque Arriaga</text><path fill-rule="evenodd" fill="#66cc99" stroke="#555555" stroke-width="2.0" opacity="0.6" d="M 19.50484599999936,11.227824899971893 L 19.676145999997516,12.581724899973779 L 19.678545999998732,12.599124899992603 L 19.70134599999892,12.768324899981963 L 19.724445999998807,12.799824899986561 L 19.724445999998807,12.828024899972661 L 19.70374599999832,12.854424899982405 L 19.676145999997516,12.872124899986375 L 17.39344599999913,14.118324899980507 L 17.347245999998904,14.127324899985979 L 17.273145999998178,14.121924899984151 L 17.199345999998968,14.10242489996017 L 17.148345999998128,14.06912489997194 L 17.135745999999926,14.051724899967667 L 17.12284599999839,14.034024899985525 L 16.680045999998583,13.422624899969378 L 16.167945999998665,12.71522489997733 L 16.14694599999848,12.675024899974233 L 16.128645999999208,12.621924899976875 L 16.13314599999876,12.5622248999789 L 16.165545999998812,12.502224899973953 L 16.20964599999934,12.45662489998358 L 16.26274599999806,12.424824899964733 L 16.419945999998163,12.356124899983115 L 19.220445999999356,11.088924899981066 L 19.248045999998794,11.076324899957399 L 19.319745999999668,11.064024899977085 L 19.39384599999903,11.074824899966188 L 19.435545999999704,11.09582489998138 L 19.474845999998706,11.127624899971124 L 19.500345999998444,11.171424899970589 L 19.50484599999936,11.227824899971893 z" /><text font-size="7" x="18.068343384309223" y="12.61230054973227" fill="rgba(3,3,113,0.5)" stroke="none">Parque de Arriaga</text><path fill-rule="evenodd" fill="#66cc99" stroke="#555555" stroke-width="2.0" opacity="0.6" d="M -16.312553999997817,38.998724899982335 L -16.41545399999768,38.29912489998969 L -14.922653999998602,38.17852489998768 L -15.036353999998482,37.361324899989995 L -14.574653999997736,36.75772489999508 L -14.722853999997824,35.23672490000172 L -14.740853999998308,35.052524900005665 L -14.763053999998647,34.82602490000136 L -14.863553999998658,33.80692490000365 L -15.23045399999819,33.53332490000321 L -15.366653999998562,32.85862489998544 L -15.2967539999986,32.79622490001202 L -15.257153999999446,32.7467248999892 L -15.217253999998775,32.69752490000246 L -15.190253999997367,32.66362489997846 L -15.16295399999808,32.6135248999999 L -12.076853999999003,32.56072490000952 L -11.882753999997476,32.55742490000557 L -11.665553999999702,32.55382490000193 L -6.732053999997788,32.44492489998811 L -6.792953999999099,32.57872489999136 L -7.090553999998519,33.2330249000006 L -8.304353999998966,38.54632489998039 L -8.628653999997823,38.72992489999888 L -9.199253999997836,39.05302490000031 L -11.501753999998527,39.03532489999634 L -14.487353999998959,39.012524899997516 L -14.715353999999024,39.01072490000661 L -16.23905399999876,38.99932490000356 L -16.312553999997817,38.998724899982335 z" /><text font-size="7" x="-11.352037897623823" y="35.704209227668926" fill="rgba(3,3,113,0.5)" stroke="none">Parque de Berlín</text><path fill-rule="evenodd" fill="#66cc99" stroke="#555555" stroke-width="2.0" opacity="0.6" d="M -16.180853999999727,45.03022489998693 L -17.262053999999807,44.89642489999824 L -17.63585400000011,46.2842249000023 L -17.652053999999225,46.344224899992696 L -17.69645399999945,46.50802489999478 L -17.846153999998933,46.467524899991986 L -18.702954000000318,46.23502490000101 L -18.73415400000067,46.34062490001088 L -19.078853999999865,45.70432490001258 L -21.67535400000088,45.84472490000917 L -21.732953999999154,45.10252490001585 L -22.291554000000815,44.92792489999556 L -22.2309539999992,45.70102490000863 L -22.81985399999985,45.76342490000388 L -23.097953999998936,44.075024899997516 L -22.351254000000154,43.9772249000016 L -21.26255399999991,43.337024900007236 L -21.328253999998196,44.13412490001065 L -21.016854000000876,44.038724900005036 L -20.832953999999518,43.98682489999919 L -20.55575399999816,43.94032490000245 L -20.50265399999944,43.93612489999941 L -20.466653999999835,43.93102490000456 L -20.406654000000344,43.91842489999544 L -20.36285399999997,43.90492490000179 L -20.285153999999693,43.871624900020834 L -20.25215399999979,43.85392489998776 L -20.22155400000065,43.83442490001471 L -20.192453999999998,43.81342489999224 L -20.163653999999042,43.789724899994326 L -20.141753999998855,43.76812489999429 L -20.11595399999942,43.737824900003034 L -20.094053999999232,43.708124900003895 L -20.0754539999989,43.676924899998994 L -20.061954000000696,43.650824900010775 L -20.051453999999012,43.621124899997085 L -20.04515399999991,43.60042490000342 L -20.039154000000963,43.57612490001338 L -20.034654000000046,43.54102490000514 L -18.17465399999901,43.31512490000023 L -17.984153999998853,43.83742490000441 L -16.650353999999425,43.71952490001422 L -16.445153999999548,44.411024900000484 L -16.212354000000232,44.956424900003185 L -16.180853999999727,45.03022489998693 z" /><text font-size="7" x="-19.6228936932238" y="44.74467169159851" fill="rgba(3,3,113,0.5)" stroke="none">Olivar de Castillejo</text><path fill-rule="evenodd" fill="#66cc99" stroke="#555555" stroke-width="2.0" opacity="0.6" d="M -23.065954000000602,-50.11557509999693 L -22.058853999999883,-49.836275100009516 L -22.28355400000055,-49.26477510001132 L -21.688353999999435,-49.13727510000899 L -21.76005400000031,-48.96897510001145 L -21.965254000000186,-48.45087510000303 L -22.037853999999697,-48.31617510001524 L -22.058853999999883,-48.24267510000209 L -22.105053999999654,-48.08367510000244 L -22.118253999999524,-48.038075100012065 L -22.19865400000117,-47.76117510000768 L -22.26705400000128,-47.48067510002147 L -22.339054000000488,-47.27577510000265 L -22.40145399999983,-47.09997509999812 L -22.482153999999355,-46.868975100012904 L -22.52085400000078,-46.76637509999273 L -22.721854000001258,-46.23477510000521 L -22.742854000001444,-46.172375100017234 L -22.856254000001627,-46.19547510000848 L -23.502754000000095,-46.327475100013544 L -23.654854000000796,-45.9005751000077 L -23.78025400000115,-45.54777510000713 L -24.520054000000982,-45.69207509999251 L -24.493354000001546,-45.779975100005686 L -25.050754000001234,-45.886475100021926 L -25.1959539999998,-45.91407510001591 L -26.242953999999827,-46.114175100003195 L -26.39145400000143,-46.142675100003544 L -28.185754000000088,-46.48887510001077 L -28.176754000001438,-47.42307509999955 L -27.943054000000757,-48.03927510002541 L -27.86325400000078,-48.2495751000024 L -27.905854000001,-48.317675100006454 L -27.760954000000766,-48.688475100025244 L -27.736654000000726,-48.716075100019225 L -27.686853999999585,-48.713675100007094 L -27.625654000000395,-48.875075100004324 L -27.666454000001067,-48.90297510000528 L -27.670354000000316,-48.9491751000096 L -27.569854000000305,-49.17447510000056 L -27.537453999999798,-49.18827510002302 L -27.506854000001113,-49.188575100008165 L -27.24615399999948,-49.875575100006245 L -27.122854000000643,-50.21487510001316 L -27.074853999999505,-50.34627510001155 L -26.85255400000051,-50.95827510000527 L -26.251054000000295,-50.82447510001657 L -26.057854000000134,-50.781275100009225 L -25.58505400000149,-50.676275100020575 L -24.60675399999991,-50.458475100000214 L -23.065954000000602,-50.11557509999693 z" /><text font-size="7" x="-25.047459859555836" y="-48.21693554216554" fill="rgba(3,3,113,0.5)" stroke="none">Parque La Perla</text><path fill-rule="evenodd" fill="#66cc99" stroke="#555555" stroke-width="2.0" opacity="0.6" d="M -26.48695399999906,68.22912489999726 L -24.04195399999935,67.77402489999076 L -22.894754000001285,67.56042490000982 L -21.307754000000386,67.44882489999873 L -18.966554000000542,67.29432489998726 L -18.058154000000286,67.61652490000415 L -17.63635400000021,67.97082490001776 L -17.177654000000985,68.91972489998443 L -17.085253999999622,69.40962489999947 L -17.008754000000863,70.07772490001662 L -17.142554000001383,70.51332490000641 L -17.70115400000077,70.76862490001076 L -19.005553999999393,69.60522490001313 L -19.32745400000067,69.81942490000074 L -19.39585400000078,69.76422489998367 L -20.35615400000006,68.97102489999088 L -21.193454000000656,69.32562490000419 L -22.24615399999948,68.71272489999683 L -22.551854000001185,68.59572490000573 L -26.48695399999906,68.22912489999726 z" /><text font-size="7" x="-20.20719851675395" y="68.55864375976711" fill="rgba(3,3,113,0.5)" stroke="none">Parque de Begoña</text><path fill-rule="evenodd" fill="#66cc99" stroke="#555555" stroke-width="2.0" opacity="0.6" d="M -37.42715399999952,32.146024899986514 L -37.54715400000032,32.05962490000093 L -37.59485399999994,31.6846248999791 L -37.456554000000324,31.516924899988226 L -37.461353999999574,31.35192489999463 L -36.08855399999902,31.283524899976328 L -34.682754000000386,31.213624899974093 L -34.38875400000006,31.198924899967096 L -33.629453999999896,31.161124899983406 L -33.307854000000134,31.145224899984896 L -33.26645399999961,31.305424899983336 L -33.12065399999938,31.40832489998138 L -33.07745400000067,31.85232489996997 L -33.22145399999954,31.943824899979518 L -37.42715399999952,32.146024899986514 z" /><text font-size="7" x="-35.33831979349226" y="31.65016827898888" fill="rgba(3,3,113,0.5)" stroke="none">Jardines de Andrés Saborit</text><path fill-rule="evenodd" fill="#66cc99" stroke="#555555" stroke-width="2.0" opacity="0.6" d="M -26.37145399999781,23.043624899997667 L -25.389253999998346,23.652624899994407 L -25.21735400000034,23.991024899994954 L -25.141153999998096,24.38432490001287 L -25.22965399999839,24.71942489999492 L -25.407853999999134,25.202424899987818 L -25.273453999998765,25.251324899982137 L -25.379053999998177,25.559424899991427 L -25.478353999998944,25.53392489998805 L -25.825153999997838,26.491224899982626 L -26.18155399999887,27.399024900005315 L -26.511853999998948,27.759924899997714 L -26.80345399999942,27.913824899995234 L -27.089653999998973,28.026624900005118 L -27.338653999999224,28.080924899993988 L -27.661753999998382,28.111824899991916 L -27.862153999999464,28.003524899984768 L -27.93895399999974,27.755124900009832 L -27.92785399999957,27.386724899995897 L -27.60175399999889,26.45102489997953 L -26.637553999999,23.763324899984582 L -26.37145399999781,23.043624899997667 z" /><text font-size="7" x="-26.497769597034342" y="25.725967267470928" fill="rgba(3,3,113,0.5)" stroke="none">Jardín de las Bellas Artes</text><path fill-rule="evenodd" fill="#66cc99" stroke="#555555" stroke-width="2.0" opacity="0.6" d="M 19.95134600000074,23.073624899974675 L 18.30944600000157,25.169424899984733 L 13.351046000000224,22.74662489999173 L 8.356646000001092,20.281824899997446 L 6.841646000001674,20.29562489996897 L 6.154346000000714,20.31572489997052 L 5.443946000001688,20.290224899981695 L 3.464546000000155,19.359324899996864 L 3.3397460000001047,19.232724899979075 L 2.9791460000010375,17.78342489998613 L 3.0298460000003615,17.61122489997797 L 3.118346000000656,17.538324899986037 L 3.2419460000010076,17.458224899994093 L 3.4414460000016334,17.452824899992265 L 3.9310460000001513,17.396424899998237 L 5.1436460000004445,17.28632489998563 L 9.67724600000065,18.161124899990682 L 10.618046000000959,18.5655248999974 L 19.95134600000074,23.073624899974675 z" /><text font-size="7" x="11.409287705867332" y="20.69697930551736" fill="rgba(3,3,113,0.5)" stroke="none">Parque Calero</text><path fill-rule="evenodd" fill="#66cc99" stroke="#555555" stroke-width="2.0" opacity="0.6" d="M -12.25395399999843,34.264824899990344 L -12.353253999998742,33.35642490000464 L -10.969053999998323,33.28772489999392 L -10.852953999999045,34.246524899994256 L -12.25395399999843,34.264824899990344 z" /><text font-size="7" x="-11.600926039774945" y="33.78928941868747" fill="rgba(3,3,113,0.5)" stroke="none">Jardines de Próspero Soynard</text><path fill-rule="evenodd" fill="#66cc99" stroke="#555555" stroke-width="2.0" opacity="0.6" d="M -13.816253999998935,28.715824899991276 L -12.40415399999938,27.25152490000619 L -13.666253999999299,26.596924899989972 L -14.11115399999926,26.81832489999215 L -13.816253999998935,28.715824899991276 z" /><text font-size="7" x="-13.436104551019397" y="27.48575618370763" fill="rgba(3,3,113,0.5)" stroke="none">Jardín de Joaquín Masmitjá</text><path fill-rule="evenodd" fill="#66cc99" stroke="#555555" stroke-width="2.0" opacity="0.6" d="M -1.8399540000009438,31.76812489999429 L -2.1051539999989473,30.770924899967213 L -2.124954000001253,30.714524899973185 L -2.36705400000028,29.77432489999046 L -2.381754000000001,29.710424899989448 L -2.3961539999995694,29.655224899979657 L -1.2312540000002627,29.475224899979366 L -0.9606539999999768,29.435024899983546 L 0.3368459999996958,29.23132489996351 L 0.10254600000098435,28.39282489998004 L 0.7163460000006125,28.596824899977946 L 0.9836459999996805,28.685324899983243 L 1.7036459999994804,28.919924899979378 L 2.1539459999999053,30.611624899989692 L 2.521745999999439,32.03332489996683 L 1.8218460000002779,32.13232489997608 L 1.7576459999995677,32.135924899987 L 1.1378459999987172,32.2529248999781 L 0.9035460000000057,31.367924899983336 L -0.14015400000016598,31.508024899980228 L -0.38105399999994916,31.5536248999706 L -1.8399540000009438,31.76812489999429 z" /><text font-size="7" x="0.20197764776255275" y="30.45326728375847" fill="rgba(3,3,113,0.5)" stroke="none">Jardín de Luis de Trelles</text><path fill-rule="evenodd" fill="#66cc99" stroke="#555555" stroke-width="2.0" opacity="0.6" d="M 0.13114600000108112,13.410824899976433 L -0.8177539999996952,12.95542489997024 L -2.468653999999333,12.162824899969564 L -2.280554000000393,11.916524899985234 L -2.183353999999781,11.886524899979122 L -1.4897539999997207,11.729324899955827 L -0.8873539999995046,11.580824899981963 L -0.6767539999987093,11.579624899961345 L 0.007846000000881759,11.575724899979832 L 0.5520460000011553,11.572724899961031 L 0.625246000000061,12.819824899990635 L 0.542746000000534,12.918524899956537 L 0.42814600000065184,13.055624899978284 L 0.13114600000108112,13.410824899976433 z" /><text font-size="7" x="-0.5898748588719169" y="12.311765737864373" fill="rgba(3,3,113,0.5)" stroke="none">Parque de Isabel II</text><path fill-rule="evenodd" fill="#66cc99" stroke="#555555" stroke-width="2.0" opacity="0.6" d="M -51.87475399999903,35.32172489998629 L -51.6785539999978,35.34482489997754 L -51.54325399999743,35.360724899983325 L -51.39025399999855,35.378724900001544 L -47.78755399999818,35.80172489998222 L -47.74945399999706,35.80262489998859 L -47.71165399999791,35.79122489999281 L -47.68885399999772,35.77532489998703 L -47.6726539999986,35.755524899985176 L -47.33815399999776,34.97522489999392 L -46.764253999998346,33.64712489998783 L -46.7624539999988,33.62162489997718 L -46.77775399999791,33.597624899979564 L -46.80475399999932,33.58352489999379 L -49.196953999998186,33.01862489999621 L -52.30825399999867,32.28512490000139 L -52.342453999998725,32.27762489998713 L -52.37935399999833,32.27702489998046 L -52.43245399999705,32.28302489998168 L -51.61375399999724,33.643524899984186 L -51.87475399999903,35.32172489998629 z" /><text font-size="7" x="-49.61700598672389" y="34.18955922203141" fill="rgba(3,3,113,0.5)" stroke="none">Parque Almansa</text><path fill-rule="evenodd" fill="#66cc99" stroke="#555555" stroke-width="2.0" opacity="0.6" d="M 2.3822459999987586,0.96482489999471 L 2.418846000000485,1.1724249000035343 L 2.480645999999524,1.3194249000007403 L 2.5490459999996347,1.4055248999939067 L 2.69754599999942,1.5192248999956064 L 2.9066459999985454,1.5996248999945237 L 3.099545999998554,1.617924900005164 L 3.282845999998699,1.6086248999999953 L 3.424145999999382,1.5633249000020442 L 3.5774459999984174,1.5201249000092503 L 3.7205459999995583,1.5177248999971198 L 3.834245999999439,1.5588248999993084 L 3.9416459999984,1.645224899999448 L 3.9674459999996543,1.7571249000102398 L 3.919745999998213,1.889124900000752 L 3.8000459999975646,1.9800248999890755 L 3.6470459999982268,1.9968249000012293 L 2.547845999998117,1.906224900012603 L 2.0207459999987805,2.019324900000356 L 1.723745999998755,2.2770249000095646 L 1.5599459999993996,2.4822249000062584 L 1.5014459999997598,2.649324899990461 L 1.4951459999988401,2.7876249000109965 L 1.5170459999990271,2.8761248999944655 L 1.5536459999989347,2.9673248999970383 L 1.553945999998632,3.0174249000046984 L 1.5260459999994964,3.058524899999611 L 1.493345999999292,3.098124899988761 L 1.4198460000002342,3.1389248999985284 L 1.3061459999998988,3.1698248999964562 L 1.2284459999982573,3.1674248999988777 L 1.150145999999495,3.1341249000106473 L 1.067645999998149,3.086724900014815 L 0.9269459999991341,2.9658248999985517 L 0.8738459999999577,2.8848248999929638 L -0.38765400000147565,3.47282489999634 L -0.5679540000000998,3.276924899990263 L -0.9027540000010958,3.47282489999634 L -2.138754000001427,2.8848248999929638 L -2.9112540000014633,3.47282489999634 L -5.012454000000162,2.599524900004326 L -5.269254000000728,2.587224899994908 L -5.507754000000659,2.6163249000019277 L -5.934954000001653,2.939724899988505 L -6.372954000000391,3.1341249000106473 L -8.964654000000792,1.9896249000012176 L -9.297054000000117,1.8654248999882839 L -9.108353999999508,1.8045249000060721 L -8.676654000001236,1.8885249000086333 L -7.5228540000020985,1.9404248999999254 L -6.5274540000013985,1.9281249000050593 L -6.220254000001205,2.0382248999885633 L -5.376054000001659,2.1015249000120093 L -4.113654000002043,2.1975248999951873 L -2.370954000000893,2.254524899995886 L -2.3415540000019064,1.8717249000110314 L -1.1088540000009743,1.8849249000122654 L -0.8511540000004061,2.0613249000089127 L -0.18185400000174923,1.963524899991171 L 0.07584600000063801,1.6692249000116135 L -0.027354000001196255,1.2576248999903328 L -0.670854000001782,1.1793248999892967 L -0.6453540000002249,0.12062490000243997 L -0.18515400000114823,0.07382489999872632 L -0.0198540000005778,0.333624900005816 L 0.20004599999901984,0.5289249000124983 L 0.40764599999829443,0.6333249000090291 L 1.0454460000000836,0.8313248999911593 L 2.0171459999992294,0.8280249000017648 L 2.1620459999976447,0.8223249000002397 L 2.3093459999995503,0.8859248999870033 L 2.3822459999987586,0.96482489999471 z" /><text font-size="7" x="-1.6348007955012382" y="2.1645446606849053" fill="rgba(3,3,113,0.5)" stroke="none">Jardines de John Lennon</text><path fill-rule="evenodd" fill="#66cc99" stroke="#555555" stroke-width="2.0" opacity="0.6" d="M -10.049553999997443,1.8321249000073294 L -10.122154000000137,0.1740248999922187 L -8.159253999997873,0.11132489998999517 L -8.018853999998555,2.0976248999868403 L -10.049553999997443,1.8321249000073294 z" /><text font-size="7" x="-9.057492764770856" y="1.0589936120590977" fill="rgba(3,3,113,0.5)" stroke="none">Jardines Doce de Octubre</text><path fill-rule="evenodd" fill="#66cc99" stroke="#555555" stroke-width="2.0" opacity="0.6" d="M -59.12445399999842,29.62612490000174 L -65.28945399999748,28.97122490000038 L -66.13155399999732,33.61432489998697 L -65.9803539999998,33.713024899981974 L -65.81745399999681,33.85222489998705 L -66.05775399999811,34.02952490000462 L -65.43435399999817,34.505924900004175 L -65.4244539999977,34.51342490001116 L -65.28945399999748,34.61782489997859 L -65.240253999998,34.71922489999997 L -65.2348539999989,34.7303249000106 L -64.91025399999808,35.400524899981974 L -64.63425399999869,35.343524899981276 L -64.59375399999772,35.45602489999874 L -64.56615399999691,35.533424899993406 L -59.30055399999901,36.10732490000373 L -59.0833539999976,36.086924899987935 L -58.915653999998995,36.04192490000423 L -58.74765399999842,35.94412490000104 L -58.599753999998484,35.809124899999006 L -58.50165399999969,35.64412489999813 L -57.78135399999837,31.70302489999449 L -57.81525399999691,31.655624899998656 L -57.99705399999857,31.343324899979052 L -58.024953999997706,31.295324899998377 L -58.50465399999757,30.457124899978226 L -58.918953999998394,29.73382490000222 L -58.99785399999837,29.66122489999543 L -59.12445399999842,29.62612490000174 z" /><text font-size="7" x="-61.948326585471314" y="32.561603107480494" fill="rgba(3,3,113,0.5)" stroke="none">Real Jardín Botánico Alfonso XIII</text></svg>