<svg viewBox="-300 -300 600 600" width="600" height="600" stroke="green" stroke-width="1" transform="scale(1,1) translate(0,0)"><rect x="0" y="0" width="290" height="290" fill="green" /><g><path fill-rule="evenodd" fill="red" stroke="#555555" stroke-width="2.0" opacity="1.0" d="M 121.64329130000078,118.70160914998269 L 121.48949129999983,118.57640914998774 L 121.2818913000001,118.43580914998893 L 121.07809129999987,118.35000915000273 L 120.7828913000003,118.25600914999086 L 120.55429129999993,118.22060914999747 L 120.05129130000023,118.19180914999743 L 119.9700912999997,118.17280914999719 L 119.92089130000022,118.16400915000122 L 119.67249129999982,117.99660914999549 L 129.01669130000028,112.78280914999777 L 142.54949130000023,106.17300914999214 L 143.25989130000016,106.85140914999647 L 142.80729130000054,107.09180915000616 L 142.9040912999999,107.36040915000194 L 145.24729130000014,109.40940915000101 L 145.7950912999995,109.91420914999617 L 147.5946912999998,111.52560915000504 L 150.2236912999997,113.83640914999705 L 150.4652913,113.7574091499846 L 150.76589130000048,113.48860914999386 L 151.66949130000012,114.07800915000553 L 155.2284912999994,115.8430091499904 L 155.14669130000038,116.18720914999722 L 156.36089129999982,116.38460915000178 L 162.74669130000075,119.12740914999449 L 163.62869130000036,119.38240914999915 L 163.6000912999998,119.43560914999398 L 163.64329129999987,119.44820914999582 L 163.44329130000006,119.71040914999321 L 162.57149130000016,120.90860915000667 L 162.5366913000007,120.94340915000066 L 162.45449129999997,120.5474091500073 L 161.06409129999975,120.1948091499944 L 161.27009129999988,119.92060914999456 L 159.38969129999987,119.68080914999882 L 157.86809129999983,119.53320915000222 L 157.82189130000006,121.23800914999447 L 157.62589130000015,122.16840915000648 L 153.80369129999963,121.68460914999014 L 153.7814913000002,122.54340914999193 L 153.43549130000065,123.89500915000099 L 153.18229129999963,123.89920914999675 L 153.0334913000006,124.37280914999428 L 152.70469130000038,125.07180915000208 L 152.2802913000005,125.86500915000215 L 151.62309129999994,126.79280914999254 L 151.80029130000094,126.87460915000702 L 150.9592913000006,127.91300914999738 L 149.77089129999968,127.35240915000031 L 149.36089130000073,128.2752091500006 L 148.7148913000001,128.86800914998457 L 148.42849130000013,129.04520915000467 L 147.93569130000014,130.4436091499956 L 147.98509130000093,130.82740914999158 L 146.75049130000025,132.0964091499918 L 144.2174912999999,131.74040914999205 L 142.57109130000026,131.19780914999137 L 141.2088913000007,131.26240914998925 L 139.7232912999998,131.36480914999265 L 139.36549130000003,131.6052091499878 L 138.87049130000014,132.5976091499906 L 138.38109129999975,133.52820914999756 L 138.20849129999988,133.717409149991 L 138.01909129999967,133.84220914999605 L 137.82589129999997,133.9046091499913 L 137.55749130000004,133.9208091499895 L 137.24549130000014,133.9002091500006 L 136.9010913000002,133.8316091500019 L 134.7838913000005,133.16060914998525 L 134.50109130000055,132.95860914999503 L 134.36309129999972,132.8948091499915 L 132.38129130000016,132.58500915000332 L 132.20849129999988,132.47540914999263 L 132.07389129999956,132.27760914998362 L 132.07949130000088,131.83280914998613 L 132.0400913000003,131.66240914998343 L 131.8468912999997,131.35320914999465 L 130.60669130000042,129.8650091499876 L 130.17389129999992,129.69040914998914 L 129.82349130000057,129.62180914999044 L 128.63069130000076,129.47100914998737 L 128.5342913000004,128.9716091500013 L 128.26009130000057,128.40200914998422 L 127.38469130000067,127.34340914999484 L 127.24709129999974,127.17340914999659 L 127.09089129999938,127.01760915000341 L 126.98489129999962,126.8588091499987 L 126.92269129999931,126.66220914998848 L 127.07609130000037,126.67280914998264 L 127.30449130000034,126.62280914999428 L 127.30269130000033,126.61900915000297 L 127.24369130000014,126.49400914998841 L 127.13529130000006,126.37540915000136 L 126.94649130000016,126.22720914999081 L 126.63769129999946,126.06540914998914 L 126.32349129999966,125.98600914998678 L 126.06849130000046,125.98460914999305 L 122.5972912999996,121.68480914998509 L 122.5358913,121.60800914998981 L 122.48189129999992,121.54060915000446 L 121.51989130000038,120.33960914998897 L 121.67409129999942,120.18920914999035 L 121.81609130000015,120.02660914999433 L 121.90329130000009,119.97240914999566 L 121.97889130000021,119.92560914999922 L 121.9080912999998,119.87980915000662 L 121.95249129999956,119.73320914999931 L 121.97949130000052,119.56880914999056 L 121.97109130000081,119.3644091499882 L 121.95189130000017,119.25340914999833 L 121.92429129999982,119.16600914999435 L 121.88809130000027,119.05860915000085 L 121.79589130000022,118.89460914999654 L 121.64329130000078,118.70160914998269 z" /><path fill-rule="evenodd" fill="red" stroke="#555555" stroke-width="2.0" opacity="1.0" d="M -19.005908699999964,34.9786091499991 L -17.990508699999737,35.211609149992 L -17.919908699999723,35.03160914998443 L -17.607508699999926,35.100809149982524 L -17.425908700000036,35.140809150005225 L -17.134308699999565,35.2060091500025 L -17.20750869999938,35.390609149995726 L -17.038308700000016,35.42940914999053 L -16.774508699999387,35.49040914999205 L -16.5297086999999,35.54840914999659 L -16.26330869999947,35.61260915000457 L -16.03430870000011,35.66760914999759 L -15.906308700000409,35.357609149985365 L -15.274108700000397,33.761009149995516 L -15.305508700000246,33.74260914999468 L -15.256708699999763,33.603409150004154 L -15.21170869999969,33.603209149994655 L -15.196708699999363,33.56540914998914 L -15.240308699999332,33.53420915000606 L -15.2813086999995,33.49800914998923 L -15.336508700000195,33.4332091499964 L -15.376308699999754,33.36200914999063 L -15.39710869999999,33.298609149991535 L -15.405708700000105,33.23360915000376 L -15.401908699999694,33.16820914999698 L -15.385708699999668,33.104009149989 L -15.35770870000033,33.04220914999314 L -15.318108700000266,32.9842091499886 L -15.26790869999968,32.93100914999377 L -15.208108699999684,32.88380915000744 L -15.140108700000383,32.843809149984736 L -15.06530870000006,32.81180914999277 L -14.975308699999914,32.786009149989695 L -14.881108700000368,32.771609150004224 L -14.867908700000044,32.735009149997495 L -14.906908699999804,32.69880914999521 L -14.863908700000138,32.57620914999279 L -14.799308700000438,32.56360914999095 L -14.744508699999642,32.425809149994166 L -14.689308699999856,32.438609150005504 L -14.06910869999956,30.852009149995865 L -17.097308699999303,30.15720914999838 L -19.005908699999964,34.9786091499991 z" /><path fill-rule="evenodd" fill="red" stroke="#555555" stroke-width="2.0" opacity="1.0" d="M -169.62950869999986,-28.13839085001382 L -168.31430869999986,-27.419790850006393 L -168.07550869999977,-27.27339085000858 L -167.7865087,-26.990790850002668 L -167.0331087000004,-25.497190850015613 L -166.88190870000017,-25.207990850001806 L -166.72490870000001,-24.767390850014635 L -166.58310869999968,-23.948190850001993 L -166.43910869999945,-22.946790850008256 L -166.32070870000007,-21.984390850004274 L -166.0215087000006,-19.585390849999385 L -165.6463087000002,-16.607190850001643 L -168.7263086999992,-16.211590850012726 L -169.1583086999999,-22.750390849992982 L -169.2141087,-23.897590849999688 L -169.62750869999945,-24.630790850002086 L -170.11070869999912,-25.34939084999496 L -170.44330869999976,-25.60679085001175 L -170.43270870000015,-26.11899084999459 L -170.29350869999962,-26.19999085001473 L -170.32250870000007,-26.56999084999552 L -170.50230869999996,-26.730190850008512 L -170.81230869999945,-26.861790850016405 L -170.99830870000005,-27.01899085000332 L -170.8337087,-27.136390850006137 L -169.62950869999986,-28.13839085001382 z" /><path fill-rule="evenodd" fill="red" stroke="#555555" stroke-width="2.0" opacity="1.0" d="M 110.50489130000005,57.09420914998918 L 110.43489130000034,56.85480914999789 L 110.0896913000006,56.68860914999095 L 107.58469130000049,55.5356091499998 L 106.44989130000067,55.038409150001826 L 106.0970913000001,54.82460915000411 L 105.87649129999954,54.6830091499869 L 105.48989130000064,54.344209150003735 L 103.87329130000035,52.596409149991814 L 102.56129130000045,51.10720914999547 L 102.0340913,50.77720914999372 L 101.12849129999995,50.318209150005714 L 100.60669130000042,51.0356091499998 L 100.61489129999973,51.34700915000576 L 103.82649130000027,54.01420914998744 L 104.25949130000026,54.39560915000038 L 103.68749130000015,54.92420914999093 L 103.08029129999977,55.5868091500015 L 103.00289129999965,55.71060914998816 L 103.0950912999997,55.78860914999677 L 104.12069130000054,56.825009149994 L 104.4004913000008,57.20520914999361 L 104.74329130000024,57.91480914999556 L 105.0330912999998,58.84580914999242 L 105.42689130000053,60.76760915000341 L 105.88009130000046,62.477009149995865 L 106.5358913,65.22420914999384 L 106.61469129999932,65.54500914999517 L 107.31809130000056,65.82260914999642 L 107.48069130000022,65.59340914999484 L 107.68049129999963,65.31200915000227 L 108.24709129999974,65.30080914999417 L 108.66589130000011,65.24880914999812 L 109.17569129999993,65.47500915000273 L 109.62949130000015,65.67100914998446 L 110.58249130000058,65.979009149989 L 111.30669130000024,66.14640915000928 L 111.86589129999993,66.26740914999391 L 112.7880912999999,66.41760914998304 L 112.61009130000002,66.5018091499951 L 112.42609130000073,66.58860914999968 L 112.31409129999975,66.69360914999561 L 112.26049130000047,66.80920914998569 L 112.27409130000069,66.90960914999596 L 112.38929129999997,66.9552091499936 L 112.69449129999975,66.97740915000031 L 113.26629130000038,67.00780914998904 L 114.11049129999992,67.0186091499927 L 115.49409130000004,66.99720914999489 L 116.7180913000002,66.98680914999568 L 116.79549130000032,66.98600915000134 L 118.63349130000006,66.97040915000252 L 118.66609130000052,66.9728091500001 L 118.72809130000041,66.97720914999081 L 119.71189130000039,67.0476091499877 L 121.05829130000075,67.30920914998569 L 121.14809129999958,67.32080914999824 L 121.46109130000059,67.3768091499951 L 123.45189130000017,67.77040914999088 L 126.5292913000003,68.37900914999773 L 127.04869130000043,66.67980914999498 L 124.50449130000015,66.33040914998855 L 118.98709129999952,65.46140914999705 L 118.2874912999996,65.4216091499984 L 112.7254912999997,65.39660914998967 L 112.2840913,65.31220914998266 L 111.92269130000022,65.02120914999978 L 111.74709130000065,64.64620914999978 L 110.50489130000005,57.09420914998918 z" /><path fill-rule="evenodd" fill="red" stroke="#555555" stroke-width="2.0" opacity="1.0" d="M -28.264308699999674,49.31160914998327 L -28.3447086999995,49.136009149995516 L -28.95670870000049,47.79900914999598 L -28.476708700000017,47.664409149991116 L -25.26250870000058,46.74660914999549 L -25.185108699999546,47.13980914998683 L -24.855708699999923,48.80940914999519 L -24.961508700000195,49.01420915000199 L -25.040308699999514,49.157609149988275 L -27.817308699999558,49.28760914999293 L -28.264308699999674,49.31160914998327 z" /><path fill-rule="evenodd" fill="red" stroke="#555555" stroke-width="2.0" opacity="1.0" d="M -114.5917086999998,64.20440914998471 L -112.53550869999981,62.02900914999191 L -111.98870869999973,61.36380914998881 L -111.41370869999992,60.43580915000348 L -110.74650869999914,59.49140914999589 L -110.54390869999952,59.58340914998553 L -110.43330869999954,59.45820914999058 L -110.61270869999953,59.35580915000173 L -110.4701086999994,59.188409149996005 L -110.38830869999947,59.23980914999265 L -109.32130869999946,59.82300914998632 L -108.31370870000046,58.74800914998923 L -106.94330870000067,57.247409149989835 L -106.88490869999987,57.229209149983944 L -106.7773087000005,57.113409149998915 L -107.12430869999935,56.79940915000043 L -107.22950870000022,56.65740914999333 L -107.26790870000059,56.54440914999577 L -107.26310869999998,56.13820914999815 L -107.38990869999998,56.13280914998904 L -107.53490870000041,56.04780914999719 L -105.9663086999999,54.60160914999142 L -104.50650870000027,53.06180914999277 L -104.31950870000037,53.04580915000406 L -104.39250869999978,53.931409149983665 L -103.86670870000034,54.18480914999964 L -101.72710869999992,51.830409149988554 L -101.54670869999973,51.935009149994585 L -101.3449086999999,53.003009149993886 L -100.85210869999992,52.70820914999058 L -100.62470870000016,52.54580915000406 L -100.49590869999975,52.40160914999433 L -100.35970870000074,52.467009150001104 L -100.2741087000004,52.50800914999854 L -104.54470870000023,57.64500915000099 L -108.84670869999991,62.7798091500008 L -109.23510870000064,63.19720914999198 L -109.60370870000042,63.515809150005225 L -111.32430870000007,62.58940915000858 L -113.36490869999943,64.80120914999861 L -114.5917086999998,64.20440914998471 z" /><path fill-rule="evenodd" fill="red" stroke="#555555" stroke-width="2.0" opacity="1.0" d="M -72.51130869999997,46.93820915000106 L -72.54050869999992,46.96120914998755 L -72.55930869999975,46.97120914999687 L -72.58390869999948,46.97740915000031 L -72.61090870000044,46.97720914999081 L -72.63190870000017,46.97200914999121 L -72.97970869999972,46.815609149998636 L -73.41610870000022,46.58700914999645 L -74.70590869999978,45.86720915000478 L -76.77850869999929,44.76520914999128 L -76.98810869999943,44.58620914998755 L -77.14590869999938,44.41560915000446 L -77.62910869999996,43.885009149991674 L -77.83370869999999,43.661209149999195 L -77.48110869999982,43.45820914999058 L -77.2129087000003,43.73800914999447 L -76.25610870000037,42.76380914999754 L -76.16990869999972,42.819209149995004 L -75.72910870000032,42.37780914998439 L -75.66670870000053,42.303209150006296 L -75.63290869999946,42.24900914999307 L -75.67750870000054,41.66840915000648 L -75.33310869999968,41.75960915000178 L -74.67610869999953,41.2002091500035 L -75.05390869999974,37.76300914998865 L -74.29990869999983,37.65600914999959 L -74.14650869999969,39.50960915000178 L -74.0313086999995,40.58360914999503 L -73.76030869999977,41.114409149988205 L -73.86050869999963,42.23780914998497 L -74.06030869999995,42.404409149996354 L -74.19870870000068,42.812009149987716 L -74.11530870000024,43.26320914999815 L -74.11990869999954,43.49560914999165 L -72.26990870000009,44.581609150001896 L -71.33430870000029,45.15740915000788 L -71.14570869999989,45.30640914999822 L -71.0979086999996,45.34320914999989 L -71.06810869999936,45.38280914998904 L -71.05070869999963,45.432809149991954 L -71.05190869999933,45.48420915000315 L -71.08730869999908,45.55560914998932 L -71.14630869999928,45.604409149993444 L -71.26090869999916,45.71460914998897 L -71.50130869999975,45.921409149988904 L -72.00730870000007,46.536209149999195 L -72.23190870000053,46.720209149993025 L -72.51130869999997,46.93820915000106 z" /><path fill-rule="evenodd" fill="red" stroke="#555555" stroke-width="2.0" opacity="1.0" d="M -74.43290869999964,46.942809149986715 L -74.95710869999948,47.71100915000716 L -74.54590869999993,47.87960914999712 L -74.49110869999913,47.90420915000141 L -74.33310869999968,47.96980915000313 L -74.27210869999999,47.995209150001756 L -74.19970869999906,47.89580914999533 L -74.17930869999964,47.86760914999468 L -73.76530869999988,47.29580914998951 L -73.97790869999972,47.18640914998832 L -73.99550869999985,47.177009149992955 L -74.14110870000059,47.098409149984946 L -74.17070869999952,47.08300914999563 L -74.43290869999964,46.942809149986715 z" /><path fill-rule="evenodd" fill="red" stroke="#555555" stroke-width="2.0" opacity="1.0" d="M -71.98850870000024,65.47700914999587 L -72.3379087000003,65.49320914999407 L -73.50630869999986,65.52260914999351 L -73.56090869999935,64.70280914999603 L -72.09970869999961,64.65820914998767 L -72.04930869999953,64.68500914999458 L -71.98570870000003,65.44320915000571 L -71.98850870000024,65.47700914999587 z" /><path fill-rule="evenodd" fill="red" stroke="#555555" stroke-width="2.0" opacity="1.0" d="M -63.172908699999425,146.80620914998872 L -63.160708700000214,146.82740915000613 L -64.7207086999997,146.82740915000613 L -65.23290869999983,146.8300091499841 L -66.79750869999953,146.85380914999405 L -67.00370870000006,146.88380914999289 L -67.32250869999916,147.02300914999796 L -67.51710869999988,147.10800915000436 L -68.10950870000033,146.8074091499875 L -68.21390869999959,146.77480914999614 L -68.94410869999956,146.2732091499929 L -69.80390870000065,145.6384091499931 L -70.25690869999926,145.7672091499844 L -70.28290870000001,145.88360914999794 L -71.0287087000006,146.0424091499881 L -70.56590870000036,147.25460914999712 L -70.84550870000021,147.32600914999784 L -70.7135087000006,147.65140914999938 L -70.88790869999957,147.7640091499925 L -70.6541086999996,148.03280914998322 L -70.19390870000007,148.5476091499877 L -69.4039087000001,148.19300914999621 L -68.56290869999975,147.80560914998932 L -68.4021087000001,147.82780914999603 L -68.05190869999933,147.8524091500003 L -68.11210869999923,148.23800914999447 L -68.05790869999964,148.42560914998467 L -67.9623087,148.57160914999258 L -67.84990870000001,148.70420914998977 L -67.75570870000047,148.79800914999214 L -67.62210869999944,148.8874091500038 L -67.50270869999986,148.95780915000068 L -67.37610869999935,149.02160914998967 L -67.20150869999998,149.09340914999484 L -67.00010870000006,149.15040914999554 L -66.82010869999976,149.1828091500065 L -66.61890870000025,149.20320915000048 L -65.62810869999976,149.20040914999845 L -65.0295086999995,149.23480915000255 L -65.39570869999989,150.22560914998758 L -66.20710869999948,150.03540915000485 L -66.41570869999941,149.96220915000595 L -67.51690870000039,149.7414091499959 L -67.82510869999987,149.66940914999577 L -68.13350869999977,149.5814091499924 L -68.56830869999976,149.4214091499889 L -69.01730869999938,149.24800914998923 L -69.37190869999995,149.05540914999438 L -69.7781086999994,148.81680914999743 L -70.07930870000018,148.62980914999207 L -70.18270870000015,148.62720914999954 L -70.37870870000006,148.4630091500003 L -70.37170869999954,148.42300914999214 L -70.57290869999997,148.1880091500061 L -70.78510869999991,147.96960914999363 L -70.95070870000018,147.75280914999894 L -70.78530870000031,147.62040914998215 L -70.86130869999943,147.47300914999505 L -70.91950869999982,147.2954091499996 L -70.62650869999925,147.22280914998555 L -71.16850869999962,145.8362091500021 L -70.74370869999984,145.63640914999996 L -70.34890869999981,145.3996091500012 L -70.00130869999975,145.1656091499899 L -69.50050869999995,144.94280914998672 L -69.18290869999964,144.80900914999074 L -69.06930869999997,144.7014091500023 L -68.9029086999999,144.66060914998525 L -67.83350869999958,144.4402091499942 L -67.29190870000002,144.43600914999843 L -66.85290869999972,145.50340914998378 L -65.56650869999976,145.22060914999747 L -64.79790869999943,144.99800914998923 L -64.70670869999958,144.92500914999982 L -64.37310870000056,144.30580914999882 L -64.23130869999932,144.16880914999638 L -63.964908700000706,143.9168091499887 L -63.81610869999986,143.85840914999426 L -63.708108699999684,143.860209150007 L -61.61830869999994,144.04480915000022 L -57.361308700000336,144.42100914998446 L -57.17110869999942,144.41280914998788 L -56.86430870000004,144.4392091500049 L -56.49830869999914,144.496409149986 L -56.16850870000053,144.57140914999763 L -55.94950869999957,144.64160914999957 L -55.742108700000244,144.7330091499898 L -55.595708699999705,144.8148091500043 L -55.372108699999444,144.9618091500015 L -55.23810869999943,145.07780914999603 L -55.03890869999941,145.32200914999703 L -54.797508700000435,145.55460914998548 L -53.930508700000246,146.22460914998373 L -53.87530869999955,146.3238091499952 L -55.43070869999974,146.0064091499953 L -56.97630870000012,145.72540914999263 L -57.74810869999965,145.62980914999207 L -58.19290869999986,145.57760914998653 L -58.46050869999999,145.557609149997 L -58.61950869999964,145.54560914999456 L -59.44630870000037,145.48340914999426 L -59.93730869999945,145.4498091499845 L -60.456508700000086,145.41240914999798 L -61.37690870000006,145.39860914999736 L -61.47590869999931,145.39720915000362 L -61.72270870000011,145.39340914999775 L -62.5933086999994,145.4052091499907 L -62.58330870000009,145.87920914999268 L -62.9063086999995,145.8764091500052 L -62.9029086999999,146.35640915000113 L -63.164908699999614,146.36140914999123 L -63.172908699999425,146.80620914998872 z" /><path fill-rule="evenodd" fill="red" stroke="#555555" stroke-width="2.0" opacity="1.0" d="M -57.32950869999968,151.8484091499995 L -57.28430870000011,151.74120915000094 L -57.23490870000023,151.60440914999344 L -57.095708699999705,151.16280914998788 L -56.73010870000053,150.11760914999468 L -57.063908699999956,150.04340914999193 L -57.14530869999999,150.02540914999554 L -57.0237087000005,149.68600914999843 L -56.82630870000048,149.13440914999228 L -58.95750870000029,148.84100914999726 L -62.193108700000266,148.70300914999098 L -63.069708699999865,148.49560914999165 L -63.11350870000024,147.97080914999242 L -63.64370870000039,147.97920914998394 L -63.66690869999911,147.50280914999894 L -64.72390869999981,147.51600914998562 L -64.72410870000022,147.44680914998753 L -64.72450870000011,147.10000914998818 L -65.12330870000005,147.11460914998315 L -65.36490869999943,147.11860914999852 L -66.38310869999987,147.13520914998662 L -66.83390869999948,147.16320914999233 L -66.9669087000002,147.19740914998692 L -67.11170870000024,147.24740914998983 L -67.14150869999958,147.26020915000117 L -67.24770870000066,147.30560914998932 L -67.33270869999978,147.36820914999407 L -67.4065086999999,147.42420914999093 L -67.52550869999959,147.5342091499915 L -67.60790869999983,147.633409150003 L -67.68150870000045,147.75840914998844 L -67.73250869999993,147.9396091499948 L -67.73170869999922,147.97500915000273 L -67.72970870000063,148.0712091500027 L -67.70910869999989,148.17480915000488 L -67.67870870000024,148.27820914999756 L -67.65590870000051,148.3484091499995 L -67.61910869999974,148.41420914999617 L -67.57490869999947,148.4842091499886 L -67.51330870000038,148.55560914998932 L -67.44890869999927,148.61500915000215 L -67.35830869999972,148.67300914999214 L -67.21090869999989,148.7570091499947 L -66.98970869999994,148.854009149989 L -66.75730870000007,148.90620914999454 L -66.35270869999931,148.90500914999575 L -65.7147087000003,148.90300915000262 L -65.07370869999977,148.90300915000262 L -64.50730870000007,148.88540914999612 L -64.2771087000001,148.88260915000865 L -64.11070870000003,148.8808091499959 L -63.58490869999969,148.8866091499949 L -63.11890870000025,148.97840915000415 L -63.038708699999916,148.9942091499979 L -62.63870870000028,149.19240914999682 L -62.44650869999987,149.30480914999498 L -62.30030869999973,149.41540914999496 L -62.17570870000054,149.52700914999878 L -62.04310869999972,149.67800914998224 L -61.97050870000021,149.76500914999633 L -61.832708699999785,149.93020914999943 L -61.73110870000073,150.19620914998814 L -61.72090870000011,150.4792091499985 L -61.7171086999997,150.56120914999337 L -61.73950869999953,150.87880914998823 L -61.649908700000196,150.99500914999226 L -61.41730869999992,151.10720914999547 L -61.18350869999995,151.205809149993 L -60.61730869999974,151.2582091499935 L -59.673308700000234,151.4566091500019 L -58.909108700000615,151.6210091499961 L -58.728708699999515,151.64860914999736 L -58.646108699999786,151.60160915000597 L -58.60010869999951,151.58040914998855 L -58.41250870000022,151.05960914999014 L -57.96250869999949,151.15500914999575 L -58.151908699999694,151.67180914999335 L -58.129708700000265,151.69800914998632 L -57.32950869999968,151.8484091499995 z" /><path fill-rule="evenodd" fill="red" stroke="#555555" stroke-width="2.0" opacity="1.0" d="M -49.17310869999983,145.3890091499925 L -48.945508699999664,145.39140914999007 L -48.72130870000001,145.39060914999573 L -48.61030870000013,145.3658091499965 L -48.52050869999948,145.3362091500021 L -48.42050870000003,145.29320914999698 L -48.31490870000016,145.24200914999528 L -48.23610869999993,145.17860914998164 L -48.1529086999999,145.05580914998427 L -48.07610870000008,144.9330091499869 L -47.918708699999115,144.07280914999137 L -48.04350869999962,143.921009149999 L -48.279908700000306,143.92900915000064 L -50.625508699999955,145.19640914999763 L -50.55310869999994,145.28280914999777 L -50.5327086999996,145.40180914998928 L -50.30470869999954,145.49820914999873 L -50.16930869999942,145.38360914999794 L -49.99650870000005,145.3036091499962 L -49.77470869999979,145.30220915000245 L -49.602908699999716,145.313409149996 L -49.43910870000036,145.34360915000434 L -49.17310869999983,145.3890091499925 z" /><path fill-rule="evenodd" fill="red" stroke="#555555" stroke-width="2.0" opacity="1.0" d="M -31.650708699999996,147.45440914999926 L -31.019708699999683,147.32260914999642 L -30.504308699999456,147.3082091499964 L -29.65850870000031,147.4116091499891 L -29.2167086999998,146.12980914999207 L -28.825908700000582,145.9612091500021 L -28.558108700000048,145.764209150002 L -28.511308699999972,145.7298091499979 L -29.132708699999966,145.31440914999985 L -29.2147087000003,145.25400914998318 L -29.443908699999156,145.25320914998883 L -30.222108699999808,145.28460914999596 L -31.454908699999578,145.37840914999833 L -31.928708700000243,145.42020915000467 L -33.26570870000069,145.53820914999233 L -33.836108700000295,145.62780914999894 L -34.104908700000124,145.65500914999575 L -34.301308699999936,145.6774091499974 L -34.319308699999965,145.6954091499938 L -34.375108700000055,145.6824091499875 L -34.43410869999934,145.68560915000853 L -34.48470869999983,145.70380914999987 L -34.508108699999866,145.6960091499932 L -34.582708699999785,145.66780914999254 L -35.74370870000075,145.79160914999375 L -36.01710869999988,145.78940914999112 L -36.49450869999964,145.7854091499903 L -38.17490869999983,145.77160915000422 L -39.482908699999825,145.76080915000057 L -41.69790869999997,145.01800915000786 L -41.81690869999966,145.33480914999382 L -41.81250869999985,145.67200915000285 L -44.33810869999979,145.67180914999335 L -44.96010870000009,145.81620914999803 L -46.66170869999951,146.21120914998755 L -46.846108699999604,145.73600914998678 L -47.04930870000044,145.18120914998872 L -47.07990869999958,145.1332091499935 L -47.162908700000116,144.91920915000082 L -47.34790870000052,144.44220915000187 L -47.6523087000005,144.4340091500053 L -47.738308699999834,144.45940915000392 L -47.80950869999924,144.7804091500002 L -47.85310870000012,144.96260914999584 L -47.919508699999824,145.1432091500028 L -48.018108700000084,145.25920914999733 L -48.14110869999968,145.3552091499878 L -48.305908700000145,145.44320914999116 L -48.59390870000061,145.57540914999845 L -48.60470870000063,145.69780915000592 L -49.001708699999654,145.7060091500025 L -49.001708699999654,145.57540914999845 L -49.22690869999951,145.57540914999845 L -49.634708699999464,145.4856091499969 L -49.45450869999968,145.7004091499839 L -49.34730870000021,146.07320914999582 L -48.81950869999946,146.11720915000478 L -48.82110869999997,146.17100914998446 L -48.8417086999998,146.88500914999167 L -50.263108699999975,146.8704091499967 L -50.5329086999991,146.86280914999952 L -50.36450869999953,147.16020914999535 L -49.02850869999929,147.1610091499897 L -49.034908699999505,147.87960914999712 L -49.98930870000004,147.81700914999237 L -49.844508700000006,148.08960915000353 L -49.33430870000029,148.21960914999363 L -48.512708700000076,148.36820915000862 L -48.24850869999955,148.37840914999833 L -48.02670869999929,148.3774091499945 L -47.784908700000415,148.3662091499864 L -47.553308699999434,148.35020914998313 L -47.01470870000048,148.26560914999573 L -46.673308700000234,148.17560914999922 L -46.33510869999918,148.04300915000204 L -45.82970870000008,147.85020914999768 L -45.72550869999941,147.8094091499952 L -45.49150869999994,147.73220914999547 L -45.06370870000046,147.63280914998904 L -44.490908699999636,147.56880914999056 L -43.92130869999983,147.51760914998886 L -43.542508700000326,147.52040915000543 L -43.05830870000045,147.56600914998853 L -42.32970870000008,147.70420915000432 L -42.04190870000002,147.76760914998886 L -41.59470870000041,147.8664091499959 L -40.86450869999953,148.00480914999207 L -40.30010869999933,147.97560914998758 L -39.62410869999985,147.8938091500022 L -38.328508699999475,147.6676091499976 L -37.42150870000023,147.57860914999037 L -36.81910869999956,147.55900914999074 L -36.350308699999914,147.6022091499908 L -35.58550869999999,147.66380914999172 L -35.23430869999993,147.7238091499894 L -34.27370869999959,147.84520915000758 L -33.93830869999965,147.86440915000276 L -33.45510869999998,147.85300914998516 L -32.94270869999946,147.78400914999656 L -32.4037086999997,147.67360914999153 L -31.650708699999996,147.45440914999926 z" /><path fill-rule="evenodd" fill="red" stroke="#555555" stroke-width="2.0" opacity="1.0" d="M 131.15029129999948,-52.31479085001047 L 132.07949130000088,-51.227590850015986 L 132.57909130000007,-51.148990850007976 L 133.99809129999994,-51.85719085000164 L 135.64749130000018,-52.73519085001317 L 135.6642913000005,-52.80219085000863 L 133.56429129999924,-55.27039084999706 L 133.4750912999998,-55.28399085000274 L 133.37989130000005,-55.30079085000034 L 130.14309129999947,-53.69939085000078 L 130.0974913,-53.54659085000458 L 131.15029129999948,-52.31479085001047 z" /><path fill-rule="evenodd" fill="red" stroke="#555555" stroke-width="2.0" opacity="1.0" d="M -68.85230869999941,11.841209150006762 L -70.55550870000025,12.15720914999838 L -70.6523086999996,12.634609149987227 L -70.58290870000019,12.72660915000597 L -70.51330870000038,12.72760914999526 L -70.51530870000079,12.758609149997937 L -70.29030870000042,12.762009149984806 L -70.21970870000041,12.765009149996331 L -70.24070870000014,13.443009149996215 L -68.74610870000015,13.498809149998124 L -68.79590869999993,13.218209149985341 L -68.57530870000028,13.198009150000871 L -68.85230869999941,11.841209150006762 z" /><path fill-rule="evenodd" fill="red" stroke="#555555" stroke-width="2.0" opacity="1.0" d="M -67.69370869999966,9.247209149994887 L -67.60010870000042,9.457809150000685 L -67.62110870000015,9.554409149990533 L -67.63770870000008,9.617809149989625 L -67.76690869999948,10.243409150003572 L -67.87530869999955,10.822609149996424 L -67.73290869999983,10.796409150003456 L -65.5983086999995,10.4162091499893 L -65.57490869999947,10.340409149997868 L -65.54610869999942,10.174409149985877 L -65.28970870000012,8.648809149992303 L -65.31330869999965,8.618809150008019 L -65.35370870000042,8.608409149994259 L -66.98390869999912,9.050609149984666 L -67.69370869999966,9.247209149994887 z" /><path fill-rule="evenodd" fill="red" stroke="#555555" stroke-width="2.0" opacity="1.0" d="M -57.327708700000585,2.846009150001919 L -57.29210869999952,2.7970091499882983 L -56.86990869999954,2.217809149995446 L -56.64890869999999,1.9152091500000097 L -56.38690869999937,1.5552091499994276 L -56.354908700000124,1.5112091499904636 L -56.67610869999953,1.5322091499983799 L -56.95630869999968,1.5504091499897186 L -57.28750870000022,1.5720091499970295 L -57.5943086999996,1.592009150001104 L -57.92770870000004,1.6138091499888105 L -57.948508700000275,1.6434091499977512 L -58.091508699999395,1.8452091499930248 L -58.2763087000003,2.11840914998902 L -58.31410869999945,2.1742091499909293 L -58.24790869999924,2.218809149984736 L -57.327708700000585,2.846009150001919 z" /><path fill-rule="evenodd" fill="red" stroke="#555555" stroke-width="2.0" opacity="1.0" d="M -22.20630869999968,-71.04279085001326 L -18.959108699999888,-70.26959085000271 L -18.791108699999313,-70.8395908500097 L -18.74990869999965,-71.36899085000914 L -20.584708700000192,-72.05159084999468 L -22.182908699999643,-71.1353908500023 L -22.20630869999968,-71.04279085001326 z" /><path fill-rule="evenodd" fill="red" stroke="#555555" stroke-width="2.0" opacity="1.0" d="M 116.68889129999934,82.30160914998851 L 116.9050913000001,81.84380914999929 L 116.9066913000006,81.75840914998844 L 116.88429129999986,81.68740915000672 L 116.81909129999985,81.59280914999545 L 116.73089130000062,81.53960915000062 L 115.63649129999976,81.19860915000027 L 114.93169130000024,80.979009149989 L 114.7820913000005,80.97180914999626 L 114.62429129999964,80.98920914999326 L 114.53209129999959,81.03240914999333 L 114.41889130000072,81.12220914999489 L 113.44049129999985,81.89800914998341 L 113.01829129999987,82.23280914999486 L 112.99129129999983,82.28780915000243 L 113.00849130000006,82.35540914999729 L 113.07229129999996,82.38940914999694 L 114.13749129999997,82.67840915000124 L 114.58529129999988,82.80000914999982 L 114.60709129999941,82.74420914999791 L 115.57749130000047,82.00080914999126 L 116.68889129999934,82.30160914998851 z" /><path fill-rule="evenodd" fill="red" stroke="#555555" stroke-width="2.0" opacity="1.0" d="M -53.30910870000025,152.68640915000287 L -52.78890869999941,151.1722091499978 L -52.8437086999993,148.46340914999018 L -52.56190869999955,148.2796091499913 L -52.461908700000095,148.30580914999882 L -52.38250870000047,149.41540914999496 L -52.27390869999908,149.60640914998658 L -52.15390869999919,149.68620914999337 L -51.61070869999912,149.87440914999752 L -51.83530869999959,150.188409149996 L -52.0937086999993,150.5348091499909 L -51.74110870000004,150.68520914998953 L -51.99050869999974,151.02780914999312 L -51.6509087000004,151.17820914999174 L -51.91150870000001,151.52200914999412 L -52.2201086999994,151.92820914999174 L -52.188908699999956,152.06840915000066 L -51.86510869999984,152.19800914998632 L -52.34470870000041,152.8302091499936 L -52.42850869999984,152.86940914999286 L -52.48850870000024,152.88520915000117 L -52.5941086999992,152.89340914999775 L -53.04350870000053,152.81720915000187 L -53.11930870000015,152.71020914999826 L -53.30910870000025,152.68640915000287 z" /></g><text font-size="4" x="139.64129223637863" y="120.46904142003626" fill="black" stroke="none">Parque Juan Carlos I</text><text font-size="4" x="-16.559581669981405" y="32.875870592018316" fill="black" stroke="none">El Estanque Grande</text><text font-size="4" x="-167.94605480622948" y="-22.012648930231528" fill="black" stroke="none">Parque de Aluche</text><text font-size="4" x="110.59887739026306" y="61.33583865401658" fill="black" stroke="none">Parque del Paraíso</text><text font-size="4" x="-26.710790873987857" y="48.2038827917975" fill="black" stroke="none">Jardines del Descubrimiento</text><text font-size="4" x="-107.27182398348488" y="58.49079326604863" fill="black" stroke="none">Parque de la Bombilla</text><text font-size="4" x="-74.40463306202555" y="43.64913863098796" fill="black" stroke="none">Plaza de España</text><text font-size="4" x="-74.35998912687249" y="47.48227023717407" fill="black" stroke="none">Plaza de José Moreno Villa</text><text font-size="4" x="-72.77516285861019" y="65.09199668421272" fill="black" stroke="none">Jardines del Concejal Alejandro Muñoz Revenga</text><text font-size="4" x="-63.85184949731916" y="145.96650598250517" fill="black" stroke="none">Parque de la Alcazaba</text><text font-size="4" x="-61.59226545301325" y="149.382040639598" fill="black" stroke="none">Parque de la Alcazaba (Parque de Altamira)</text><text font-size="4" x="-49.0035165627851" y="144.81541670386517" fill="black" stroke="none">Parque de la Ventilla</text><text font-size="4" x="-39.69362072373362" y="146.66319955789638" fill="black" stroke="none">Parque de La Ventilla</text><text font-size="4" x="132.8728252731613" y="-53.187803351677736" fill="black" stroke="none">Parque Lola Camarena</text><text font-size="4" x="-69.53699911748875" y="12.701538507014128" fill="black" stroke="none">Jardín de las Heroínas de Sálvora</text><text font-size="4" x="-66.55626905604154" y="9.754488435423717" fill="black" stroke="none">Jardín del Rastro</text><text font-size="4" x="-57.392540733388095" y="2.0539390031796585" fill="black" stroke="none">Jardín del Párroco Sánchez Cámara</text><text font-size="4" x="-20.22486271596616" y="-71.15795216037323" fill="black" stroke="none">Parque Oligisto</text><text font-size="4" x="114.92616751383953" y="81.86190377195284" fill="black" stroke="none">Parque del registro de la propiedad</text><text font-size="4" x="-52.46813833895854" y="150.94365052299506" fill="black" stroke="none">Canal Bajo de Madrid</text></svg>