<svg viewBox="-300 -300 600 600" width="600" height="600" stroke="green" stroke-width="1"><rect x="0" y="0" width="290" height="290" fill="green" /><text size="44" x="-215.19281735621982" y="2.5098663652363533" fill="black" stroke="red">XXX</text><text size="44" x="-0.7330393389474457" y="21.156150636307586" fill="black" stroke="red">XXX</text><text size="44" x="-215.90174716985175" y="2.1459467138342707" fill="black" stroke="red">XXX</text><text size="44" x="-154.28549458390236" y="-14.181322428743899" fill="black" stroke="red">XXX</text><text size="44" x="-132.42030543447018" y="-4.986960068537443" fill="black" stroke="red">XXX</text><text size="44" x="83.26207767330064" y="98.04221490362927" fill="black" stroke="red">XXX</text><text size="44" x="112.73118487830004" y="23.087950733382293" fill="black" stroke="red">XXX</text><text size="44" x="-20.610277505351245" y="21.629941518269213" fill="black" stroke="red">XXX</text><text size="44" x="-21.307459791966902" y="11.62790257927407" fill="black" stroke="red">XXX</text><text size="44" x="-20.362254116869103" y="10.548465608688668" fill="black" stroke="red">XXX</text><text size="44" x="0.5583815948791994" y="23.122105423205646" fill="black" stroke="red">XXX</text><text size="44" x="-19.946771498545477" y="16.8294093129553" fill="black" stroke="red">XXX</text><text size="44" x="23.72116254183102" y="36.22581977879151" fill="black" stroke="red">XXX</text><text size="44" x="20.65255709459442" y="35.9123335449453" fill="black" stroke="red">XXX</text><text size="44" x="22.727548752250012" y="35.94186352742095" fill="black" stroke="red">XXX</text><text size="44" x="184.96622079255346" y="89.9746456353212" fill="black" stroke="red">XXX</text><text size="44" x="118.43747272449117" y="91.11535676650902" fill="black" stroke="red">XXX</text><text size="44" x="135.0385747583985" y="36.83563327218372" fill="black" stroke="red">XXX</text><text size="44" x="-82.72035114621904" y="-27.808374003033634" fill="black" stroke="red">XXX</text><text size="44" x="-84.91910061217963" y="-27.792625417448285" fill="black" stroke="red">XXX</text><g><path fill-rule="evenodd" fill="green" stroke="#555555" stroke-width="2.0" opacity="1" d="M -212.84748792498704,6.848238449972996 L -213.420487925011,6.680238450062461 L -214.92648792500313,9.63223845011089 L -222.20148792498912,7.481238450083765 L -220.19148792499072,3.5422384501362103 L -220.01448792501105,3.194238450167177 L -219.3514879250015,3.3892384500140906 L -217.4854879250015,-0.27376154994999524 L -218.13648792499953,-0.4657615499745589 L -215.94948792499963,-4.7557615498881205 L -208.65048792501057,-2.595761550051975 L -210.21648792500037,0.4702384500487824 L -209.6764879249995,0.6292384499902255 L -212.84748792498704,6.848238449972996 z" /><path fill-rule="evenodd" fill="green" stroke="#555555" stroke-width="2.0" opacity="1" d="M -4.795012925006631,18.469788450289343 L -5.707012925005984,20.53978845034726 L -6.8470129250054015,23.122788450134976 L -7.483012925019466,24.57178845006274 L -7.543012924996219,24.706788450232125 L -7.573012925005969,24.775788450060645 L -8.524012924992348,26.929788450077467 L -8.998012925009789,28.00678845008224 L 0.961987074996614,30.19978845017613 L 3.376987074995668,23.854788450335036 L 4.462987075003184,21.04078845027834 L 5.04498707498351,19.531788450338354 L 4.70898707500055,18.988788450340508 L 5.455987074990844,18.664788450136257 L 6.019987074994788,17.251788450295862 L 7.29198707498108,13.993788450163265 L -1.8610129249955207,11.995788450265536 L -2.092012924988012,12.502788450176013 L -4.015012925014162,16.732788450244698 L -4.384012924999297,17.55478845021571 L -4.795012925006631,18.469788450289343 z" /><path fill-rule="evenodd" fill="green" stroke="#555555" stroke-width="2.0" opacity="1" d="M -216.44988792502863,-3.680486549885245 L -216.6868879250269,-3.7494865500484593 L -217.43388792501628,-3.971486549831752 L -216.81888792501286,-5.177486549851892 L -208.74288792500374,-2.789486549918365 L -212.4208879250109,4.422513449950202 L -213.20088792500337,4.191513450023194 L -213.37488792501154,4.140513450154685 L -215.23488792500484,7.821513450071507 L -215.0788879250149,7.857513449976977 L -214.33788792501036,8.097513450054976 L -215.0428879250212,9.435513450087456 L -223.06188792500416,7.062513450109691 L -219.34188792501664,-0.23048654989543138 L -218.5468879250202,0.003513450028549414 L -218.35488792501474,0.06051345022569876 L -216.44988792502863,-3.680486549885245 z" /><path fill-rule="evenodd" fill="green" stroke="#555555" stroke-width="2.0" opacity="1" d="M -109.13373792498987,-18.355661549860088 L -102.77373792499657,-17.50966154994967 L -103.10973792500045,-16.021661549784767 L -103.83573792502193,-12.820661550023942 L -90.97773792499993,-11.128661550028482 L -92.79873792500621,-2.9716615499928594 L -105.16173792500012,-4.726661549997516 L -106.1367379250105,-0.47866154980874853 L -106.28673792501559,0.17533845007710624 L -112.64073792500312,-0.6976615499370382 L -113.71173792500667,3.496338450051553 L -118.50573792501018,2.917338449973613 L -131.44473792499957,-0.40366154999355786 L -141.89073792499403,-1.9096615499438485 L -142.21173792501486,-0.589661549864104 L -154.4277379249952,-2.350661550022778 L -160.15773792500295,-3.124661549947632 L -159.9657379250184,-3.991661549975106 L -161.59773792501164,-4.2736615497778985 L -162.7317379250053,-4.402661549793265 L -162.88773792501615,-3.490661549876677 L -184.77573792500607,-6.472661550018529 L -184.4847379250159,-7.525661549916549 L -191.4297379250038,-8.476661549902929 L -203.3907379250104,-8.989661549974699 L -210.0867379250085,-9.883661549938552 L -208.68873792499926,-16.00066155000968 L -208.3887379250109,-17.269661550046294 L -204.35373792500923,-34.34566154990898 L -197.7807379249989,-33.409661549878365 L -188.22273792500073,-30.52066154984641 L -180.23973792501147,-29.34166154992272 L -180.60573792500418,-28.32766155009449 L -168.89973792501496,-24.850661549833603 L -168.16773792500862,-27.727661550074117 L -165.95973792499808,-27.430661549973593 L -166.2447379250034,-26.19766154984245 L -144.96873792500264,-23.29066155001783 L -144.66573792500094,-24.502661549857294 L -142.46973792500285,-24.19666154994775 L -143.21673792501406,-21.259661549862358 L -131.07273792500018,-21.46966155001428 L -130.78773792499487,-22.669661550055025 L -122.16873792501337,-21.628661549955723 L -112.64973792500223,-21.73366154985706 L -108.4137379250169,-21.115661549883953 L -109.13373792498987,-18.355661549860088 z" /><path fill-rule="evenodd" fill="green" stroke="#555555" stroke-width="2.0" opacity="1" d="M -104.47271292500045,-2.611286550090881 L -106.5037129250095,6.6437134499065 L -104.28071292499408,7.090713449797477 L -105.63071292499626,15.184713449998526 L -113.6527129250153,14.134713449922856 L -113.94371292500455,15.190713449810573 L -123.06071292500837,13.969713449827395 L -123.31571292500394,14.884713449901028 L -133.7347129250029,13.609713449877745 L -134.04071292499793,14.509713449995616 L -143.83871292500862,13.318713449931238 L -144.03671292499894,14.200713449754403 L -157.90871292499742,12.25071344972821 L -157.82171292500425,11.851713449883391 L -157.12571292501343,8.614713450042473 L -156.36071292500492,5.047713449843286 L -150.79571292500805,-20.83628655011853 L -150.4627129249966,-22.387286550125282 L -148.36871292499654,-32.122286550104036 L -145.41371292499662,-31.71128655011853 L -144.53471292499853,-32.806286550083314 L -140.59571292501096,-31.585286550100136 L -135.27071292500477,-28.91828655017889 L -135.0517129250029,-26.64128654995875 L -130.23671292500967,-26.02928655013966 L -129.66671292499905,-26.629286549992685 L -128.70671292501447,-27.64028655016591 L -114.96371292500862,-20.254286550225515 L -115.87871292500131,-15.073286550177727 L -112.52171292501407,-14.683286550134653 L -114.41771292500198,-6.100286550150486 L -113.28971292501501,-5.935286550222372 L -113.68871292500899,-3.7692865500648622 L -104.47271292500045,-2.611286550090881 z" /><path fill-rule="evenodd" fill="green" stroke="#555555" stroke-width="2.0" opacity="1" d="M 127.62333707502421,87.50961345023825 L 97.67733707502157,87.95061345031718 L 80.57733707500847,88.2026134501939 L 69.42933707501652,88.36761345028935 L 38.352337075013565,88.82661345032102 L 38.80533707502036,108.53061345020251 L 70.23333707503298,108.0986134502673 L 81.55833707502552,107.94261345032282 L 97.9923370750148,107.71461345021089 L 128.13633707502868,107.30061345023569 L 127.62333707502421,87.50961345023825 z" /><path fill-rule="evenodd" fill="green" stroke="#555555" stroke-width="2.0" opacity="1" d="M 131.54216207501668,38.640813449914276 L 126.0581620750063,46.341813450082554 L 70.04216207502122,26.331813449956826 L 71.11316207502387,24.525813449909037 L 76.91816207501233,21.873813449958107 L 81.06116207501873,18.693813449797744 L 85.90916207501414,12.681813449969923 L 88.1471620750126,6.7298134498196305 L 88.30916207500832,2.6078134498311556 L 87.52016207501856,-2.0961865500648855 L 88.60616207502608,-4.055186550234794 L 145.1591620750196,16.260813449975103 L 140.26316207501804,24.18981344990607 L 148.2911620749992,27.096813449905312 L 153.0851620750036,28.80081344985956 L 144.13916207501552,43.25181344986777 L 131.54216207501668,38.640813449914276 z" /><path fill-rule="evenodd" fill="green" stroke="#555555" stroke-width="2.0" opacity="1" d="M -15.160687925015736,11.411988450134231 L -3.094687924997743,14.900988450026489 L -2.896687925007427,16.75798844993551 L -2.677687925005557,16.748988450133766 L -1.8766879250033526,24.701988450004137 L -2.080687924999438,24.707988450158155 L -1.9486879250134734,26.20198845014238 L -13.486687925000297,30.88798845007841 L -37.60968792499625,27.8519884500638 L -39.54468792501393,27.608988450170727 L -41.674687925007674,27.341988449989003 L -41.57868792499448,26.717988450029225 L -41.45268792499246,25.886988450081844 L -41.407687924999664,25.115988449986617 L -41.350687925016246,24.092988450007397 L -41.38668792500994,23.201988450040517 L -41.43768792500941,22.01998845012713 L -41.57268792500963,20.90998845003196 L -41.79168792501059,19.772988450000412 L -42.06768792499588,18.704988450139354 L -40.03968792500018,18.155988450162113 L -38.03268792499421,17.612988450164266 L -37.69068792500548,17.51698845007195 L -15.160687925015736,11.411988450134231 z" /><path fill-rule="evenodd" fill="green" stroke="#555555" stroke-width="2.0" opacity="1" d="M -26.586787924996315,17.492013450209924 L -28.893787924990647,4.514013450061611 L -28.278787924987228,4.124013449851191 L -28.293787924992102,3.944013449967315 L -22.404787924981974,3.2450134500249987 L -21.072787924977092,11.627013450008235 L -11.316787924987693,10.646013450103055 L -10.488787924989083,15.908013449945429 L -26.586787924996315,17.492013450209924 z" /><path fill-rule="evenodd" fill="green" stroke="#555555" stroke-width="2.0" opacity="1" d="M -33.98898792499767,17.75758844993834 L -33.85698792498988,18.49258844996075 L -31.513987925000947,18.249588449893054 L -30.808987924990106,18.177588449900213 L -28.87698792498668,17.97958844988898 L -21.94698792498184,17.2655884499909 L -18.65898792499138,16.92658844999096 L -13.564987924998604,16.40158845012047 L -11.770987924987821,16.215588449907955 L -7.9189879249934165,15.81958845006011 L -4.219987924995621,15.438588450168027 L -6.526987924990863,2.4605884500197135 L -11.749987924998095,2.9975884500308894 L -18.283987924979556,3.6695884500368265 L -27.496987924995665,4.620588450023206 L -28.62498792500446,4.737588449897885 L -36.16398792500604,5.514588449987059 L -34.15998792499158,16.794588449985895 L -35.332987924993176,16.91158845002792 L -35.18598792500234,16.440588450022915 L -36.004987924980924,16.29958844986686 L -37.03998792498987,16.12258844997268 L -37.51698792500065,17.58958845002053 L -35.509987924993766,17.940588449986535 L -33.98898792499767,17.75758844993834 z" /><path fill-rule="evenodd" fill="green" stroke="#555555" stroke-width="2.0" opacity="1" d="M 7.113037074988824,14.269638450205093 L 6.714037074994849,15.844638450151251 L 6.369037074991866,17.230638450062543 L 6.018037075004031,20.7436384502289 L 5.781037074983942,21.514638450324128 L 5.601037074990927,23.42563845028053 L 4.614037074989028,33.49963845025195 L 2.9070370749923313,33.39763845016569 L 0.7140370749875729,33.26863845015032 L 0.5190370749896829,33.26263845033827 L 0.6210370749877256,32.15863845022977 L -1.5359629250024227,32.068638450109574 L -1.6019629250058642,33.133638450322906 L -5.3729629250137805,32.91163845020492 L -5.288962925012129,31.87363845026266 L -4.5569629250057915,22.909638450219063 L -4.430962925004678,21.355638450215338 L -3.8339629250194776,14.059638450220518 L -3.572962925018146,13.753638450143626 L -2.807962925009633,13.345638450147817 L -2.0399629250086946,12.93763845032663 L -1.718962925008782,12.859638450179773 L 7.113037074988824,14.269638450205093 z" /><path fill-rule="evenodd" fill="green" stroke="#555555" stroke-width="2.0" opacity="1" d="M -27.673762924989205,11.98746345013933 L -10.23776292499224,15.401463450216397 L -9.895762924981682,16.17846345013095 L -13.891762924997238,21.776463449983567 L -29.323762925000665,18.19146345016634 L -27.673762924989205,11.98746345013933 z" /><path fill-rule="evenodd" fill="green" stroke="#555555" stroke-width="2.0" opacity="1" d="M 20.16618707500038,34.41838845006714 L 27.864187075005248,34.0223884500374 L 27.927187074996255,34.77838845017686 L 28.08918707499197,34.772388450022845 L 28.15518707499541,35.462388449988794 L 28.25118707500951,36.680388449982274 L 28.284187075010777,37.09138845013513 L 28.101187075004418,37.10038844994415 L 28.176187075006965,38.00038845005474 L 20.40318707499955,38.37838844995713 L 20.322187075012152,37.54138845002308 L 19.476187074995323,37.58038845009287 L 18.501187075004964,36.89938844993594 L 18.474187075009468,35.90038845007075 L 19.194187075003356,35.28838845008431 L 20.247187075009606,35.22238845007814 L 20.16618707500038,34.41838845006714 z" /><path fill-rule="evenodd" fill="green" stroke="#555555" stroke-width="2.0" opacity="1" d="M 35.251912074992106,28.984563450168935 L 32.26691207500426,29.134563450126734 L 21.85991207499592,29.656563450007525 L 22.894912075004868,41.791563450060494 L 32.95991207500265,41.293563450126385 L 32.968912075000844,41.38356345007196 L 33.31991207501051,41.401563450024696 L 36.23291207500915,41.24856345006992 L 36.55091207501664,44.60256345012749 L 33.625912075004635,44.79756345014903 L 23.9299120749929,45.27156345014373 L 23.968912075000844,45.013563450113 L 21.826912074994652,45.11556345002464 L 17.65691207501368,45.32556345000921 L 17.497912074988562,43.459563449941925 L 15.556912075007858,43.55556345004152 L 15.916912074993888,48.088563450022775 L 16.07291207500566,49.936563449962705 L 11.665912075004599,50.1525634501013 L 11.509912075014654,48.30456345016137 L 11.029912075012362,42.607563450044836 L 13.99091207499714,42.466563450063404 L 14.053912075008157,42.2625634500655 L 15.97691207499156,42.15456345016719 L 15.736912075000873,39.66156344998308 L 15.58691207499578,37.543563450213696 L 15.400912074996995,37.66356345007807 L 14.152912074992855,36.892563449982845 L 14.035912075010856,35.47056344999146 L 15.112912074999258,34.60356345013133 L 15.301912074990469,34.69056345008721 L 15.211912075004875,32.66856345007545 L 14.965912075007509,30.136563450156245 L 13.063912074992913,30.244563450221904 L 13.012912074993437,30.058563450009387 L 10.612912074999258,30.21756344995083 L 10.03391207499044,30.208563450149086 L 9.517912075013555,24.400563449969923 L 9.361912075002692,22.555563450026966 L 13.762912074997075,22.339563450062997 L 13.91891207498702,24.184563450180576 L 14.314912075010398,28.801563450113463 L 16.19591207499343,28.708563450010843 L 16.033912074997716,26.698563449972426 L 20.20091207500718,26.4855634501655 L 20.212912074997803,26.560563450148038 L 22.414912075001666,26.452563450249727 L 22.432912074998967,26.32356345023436 L 31.981912074998945,25.843563450078364 L 34.96691207500862,25.693563450120564 L 35.251912074992106,28.984563450168935 z" /><path fill-rule="evenodd" fill="green" stroke="#555555" stroke-width="2.0" opacity="1" d="M 28.820587074991636,37.10233845046605 L 28.907587074984804,38.209338450404175 L 32.33358707498883,38.05933845026448 L 32.35458707500038,37.735338450402196 L 34.40958707499158,37.657338450262614 L 35.567587074988296,36.20833845050947 L 35.49858707499243,34.54633845044009 L 34.094587074998344,33.25033845047437 L 31.871587074982926,33.31333845031622 L 31.859587074992305,33.05233845046314 L 28.547587074997864,33.136338450422045 L 28.62258707500041,34.2073384502728 L 23.096587074990566,34.42933845022344 L 22.670587075000185,28.219338450384384 L 27.24558707500273,28.03633845033619 L 27.074587074986994,25.52233845020237 L 16.46358707500349,25.945338450328563 L 14.603587074989264,26.0203384503111 L 14.777587074997427,28.540338450424315 L 16.3585870749921,28.47733845024777 L 17.411587074997442,43.75633845038101 L 15.965587074982068,43.813338450403535 L 16.142587075004485,46.384338450392534 L 28.601587075011594,45.88633845029108 L 28.42158707499675,43.276338450399635 L 23.834587075002673,43.45933845027321 L 23.4115870749838,37.31833845043002 L 28.820587074991636,37.10233845046605 z" /><path fill-rule="evenodd" fill="green" stroke="#555555" stroke-width="2.0" opacity="1" d="M 181.95408707502247,91.17778844986606 L 182.85708707502363,108.79378845007159 L 184.0120870750061,108.68578845000593 L 185.07708707500296,115.20778844990855 L 187.12908707500264,115.00078844992095 L 189.0010870750084,114.73978845006786 L 187.98408707501767,108.64978844992584 L 188.72808707501554,108.71278844993503 L 187.4530870750159,91.00078844997188 L 190.42608707501313,90.94378844994935 L 190.16808707502423,88.75978845000645 L 209.21808707501805,87.83878844994615 L 209.39208707500438,89.8397884500082 L 215.66508707500452,89.77378844983468 L 215.32908707502156,85.61278844976187 L 215.27208707501632,84.10078844983218 L 208.65708707500562,84.45178844996553 L 208.57608707501822,83.46178844990936 L 190.00908707500002,84.3707884500036 L 189.82308707500033,82.21978844980913 L 181.10808707500564,82.50478844993631 L 180.72708707500806,78.2237884500064 L 171.31608707500072,78.54778845003602 L 171.50808707502802,80.26678844996059 L 168.2710870750152,80.38978844998928 L 168.5530870750281,85.25278844999411 L 159.11508707500343,85.53178844996728 L 159.2170870750233,87.71878844990715 L 159.40008707500874,90.2537884499834 L 178.90908707501512,89.33878844990977 L 179.07108707501084,91.31278845004272 L 181.95408707502247,91.17778844986606 z" /><path fill-rule="evenodd" fill="green" stroke="#555555" stroke-width="2.0" opacity="1" d="M 132.31128707499283,104.28358845010371 L 121.77228707499853,102.90658845016878 L 122.60628707500291,99.21658845010825 L 101.6992870749882,96.47758845020144 L 102.59928707499694,92.49658845001977 L 97.3222870749969,91.80658845005382 L 99.14928707498893,83.72458844999346 L 104.43228707499475,84.41758845012373 L 105.3172870749986,80.49958845012588 L 136.76028707499427,84.61558845013496 L 134.95728707498438,92.58358844996837 L 132.31128707499283,104.28358845010371 z" /><path fill-rule="evenodd" fill="green" stroke="#555555" stroke-width="2.0" opacity="1" d="M 123.23613707499862,44.70433845003572 L 124.80513707500268,46.62433845012856 L 127.11213707499701,46.9663384501182 L 127.54413707499407,45.397338449991366 L 128.48613707500317,45.52033845002006 L 128.09913707499982,47.10733845010691 L 130.68513707499278,47.45533845007594 L 131.1501370749911,45.75433845011139 L 131.99913707497944,45.86233845017705 L 131.56113707499844,47.5933384502423 L 142.58913707499414,49.066338450102194 L 147.41013707499405,28.95733845005452 L 132.90813707498637,26.91733845009003 L 132.38313707499037,28.74433845008025 L 131.44413707499552,28.58233845014911 L 132.9891370749956,21.34633845017379 L 128.90013707500202,20.860338450038398 L 124.02513707498929,42.103338450120646 L 125.17113707499539,42.223338450159645 L 124.8621370749861,43.38733844994567 L 123.71613707500182,43.27933845004736 L 123.23613707499862,44.70433845003572 z" /><path fill-rule="evenodd" fill="green" stroke="#555555" stroke-width="2.0" opacity="1" d="M -94.98318792500777,-28.11788654994598 L -71.02218792498661,-30.604886549808725 L -70.53618792499856,-27.469886549879448 L -94.43718792500113,-25.027886549905816 L -94.98318792500777,-28.11788654994598 z" /><path fill-rule="evenodd" fill="green" stroke="#555555" stroke-width="2.0" opacity="1" d="M -84.46923792499729,-26.50568654982635 L -93.17223792500135,-26.871686549922742 L -93.24423792498965,-25.854686549762846 L -90.03123792500173,-25.71968654993543 L -90.21723792500143,-23.15168654993613 L -98.44923792500049,-23.496686549915466 L -98.26023792498745,-26.11268654979358 L -94.81623792498613,-25.968686549815175 L -94.74423792499692,-26.985686549807724 L -97.3212379249926,-27.093686549706035 L -97.03023792500244,-31.116686549779843 L -68.92023792499003,-29.940686549678503 L -69.2172379250078,-25.860686549749516 L -82.59723792499153,-26.421686549692822 L -82.64223792500525,-25.79468654991797 L -82.36323792498479,-25.78268654977728 L -82.45623792500646,-24.513686549908016 L -84.96723792499779,-24.61868654981663 L -84.87423792499794,-25.88768655002059 L -84.51723792500343,-25.87268654971558 L -84.46923792499729,-26.50568654982635 z" /></g></svg>