<svg width="400" height="400" fill="black" stroke="black"><text x="25" y="58.9" font-size="112.25" fill="black" stroke-width="0.01mm">ssss</text> <polygon points="20.0,0.0 110.0,0.0 110.0,111.0 0.0,110.0 20.0,0.0 " fill="blue" /><circle r="9" cx="0.0" cy="0.0" stroke-width="0.01mm" fill="red" stroke="red" /><circle r="2" cx="0.0" cy="0.0" stroke-width="0.01mm" fill="blue" stroke="blue" /><circle r="9" cx="8.0" cy="10.0" stroke-width="0.01mm" fill="red" stroke="red" /><circle r="2" cx="8.0" cy="10.0" stroke-width="0.01mm" fill="blue" stroke="blue" /><circle r="9" cx="16.0" cy="20.0" stroke-width="0.01mm" fill="red" stroke="red" /><circle r="2" cx="16.0" cy="20.0" stroke-width="0.01mm" fill="blue" stroke="blue" /><circle r="9" cx="24.0" cy="30.0" stroke-width="0.01mm" fill="red" stroke="red" /><circle r="2" cx="24.0" cy="30.0" stroke-width="0.01mm" fill="blue" stroke="blue" /><circle r="9" cx="32.0" cy="40.0" stroke-width="0.01mm" fill="red" stroke="red" /><circle r="2" cx="32.0" cy="40.0" stroke-width="0.01mm" fill="blue" stroke="blue" /><circle r="9" cx="40.0" cy="50.0" stroke-width="0.01mm" fill="red" stroke="red" /><circle r="2" cx="40.0" cy="50.0" stroke-width="0.01mm" fill="blue" stroke="blue" /><circle r="9" cx="48.0" cy="60.0" stroke-width="0.01mm" fill="red" stroke="red" /><circle r="2" cx="48.0" cy="60.0" stroke-width="0.01mm" fill="blue" stroke="blue" /><circle r="9" cx="56.0" cy="70.0" stroke-width="0.01mm" fill="red" stroke="red" /><circle r="2" cx="56.0" cy="70.0" stroke-width="0.01mm" fill="blue" stroke="blue" /><circle r="9" cx="64.0" cy="80.0" stroke-width="0.01mm" fill="red" stroke="red" /><circle r="2" cx="64.0" cy="80.0" stroke-width="0.01mm" fill="blue" stroke="blue" /><circle r="9" cx="72.0" cy="90.0" stroke-width="0.01mm" fill="red" stroke="red" /><circle r="2" cx="72.0" cy="90.0" stroke-width="0.01mm" fill="blue" stroke="blue" /><circle r="9" cx="80.0" cy="100.0" stroke-width="0.01mm" fill="red" stroke="red" /><circle r="2" cx="80.0" cy="100.0" stroke-width="0.01mm" fill="blue" stroke="blue" /><circle r="9" cx="88.0" cy="110.0" stroke-width="0.01mm" fill="red" stroke="red" /><circle r="2" cx="88.0" cy="110.0" stroke-width="0.01mm" fill="blue" stroke="blue" /><circle r="9" cx="96.0" cy="120.0" stroke-width="0.01mm" fill="red" stroke="red" /><circle r="2" cx="96.0" cy="120.0" stroke-width="0.01mm" fill="blue" stroke="blue" /><circle r="9" cx="104.0" cy="130.0" stroke-width="0.01mm" fill="red" stroke="red" /><circle r="2" cx="104.0" cy="130.0" stroke-width="0.01mm" fill="blue" stroke="blue" /><circle r="9" cx="112.0" cy="140.0" stroke-width="0.01mm" fill="red" stroke="red" /><circle r="2" cx="112.0" cy="140.0" stroke-width="0.01mm" fill="blue" stroke="blue" /><circle r="9" cx="120.0" cy="150.0" stroke-width="0.01mm" fill="red" stroke="red" /><circle r="2" cx="120.0" cy="150.0" stroke-width="0.01mm" fill="blue" stroke="blue" /><circle r="9" cx="128.0" cy="160.0" stroke-width="0.01mm" fill="red" stroke="red" /><circle r="2" cx="128.0" cy="160.0" stroke-width="0.01mm" fill="blue" stroke="blue" /><circle r="9" cx="136.0" cy="170.0" stroke-width="0.01mm" fill="red" stroke="red" /><circle r="2" cx="136.0" cy="170.0" stroke-width="0.01mm" fill="blue" stroke="blue" /><circle r="9" cx="144.0" cy="180.0" stroke-width="0.01mm" fill="red" stroke="red" /><circle r="2" cx="144.0" cy="180.0" stroke-width="0.01mm" fill="blue" stroke="blue" /><circle r="9" cx="152.0" cy="190.0" stroke-width="0.01mm" fill="red" stroke="red" /><circle r="2" cx="152.0" cy="190.0" stroke-width="0.01mm" fill="blue" stroke="blue" /><circle r="9" cx="160.0" cy="200.0" stroke-width="0.01mm" fill="red" stroke="red" /><circle r="2" cx="160.0" cy="200.0" stroke-width="0.01mm" fill="blue" stroke="blue" /><circle r="9" cx="168.0" cy="210.0" stroke-width="0.01mm" fill="red" stroke="red" /><circle r="2" cx="168.0" cy="210.0" stroke-width="0.01mm" fill="blue" stroke="blue" /><circle r="9" cx="176.0" cy="220.0" stroke-width="0.01mm" fill="red" stroke="red" /><circle r="2" cx="176.0" cy="220.0" stroke-width="0.01mm" fill="blue" stroke="blue" /><circle r="9" cx="184.0" cy="230.0" stroke-width="0.01mm" fill="red" stroke="red" /><circle r="2" cx="184.0" cy="230.0" stroke-width="0.01mm" fill="blue" stroke="blue" /><circle r="9" cx="192.0" cy="240.0" stroke-width="0.01mm" fill="red" stroke="red" /><circle r="2" cx="192.0" cy="240.0" stroke-width="0.01mm" fill="blue" stroke="blue" /><circle r="9" cx="200.0" cy="250.0" stroke-width="0.01mm" fill="red" stroke="red" /><circle r="2" cx="200.0" cy="250.0" stroke-width="0.01mm" fill="blue" stroke="blue" /><circle r="9" cx="208.0" cy="260.0" stroke-width="0.01mm" fill="red" stroke="red" /><circle r="2" cx="208.0" cy="260.0" stroke-width="0.01mm" fill="blue" stroke="blue" /><circle r="9" cx="216.0" cy="270.0" stroke-width="0.01mm" fill="red" stroke="red" /><circle r="2" cx="216.0" cy="270.0" stroke-width="0.01mm" fill="blue" stroke="blue" /><circle r="9" cx="224.0" cy="280.0" stroke-width="0.01mm" fill="red" stroke="red" /><circle r="2" cx="224.0" cy="280.0" stroke-width="0.01mm" fill="blue" stroke="blue" /><circle r="9" cx="232.0" cy="290.0" stroke-width="0.01mm" fill="red" stroke="red" /><circle r="2" cx="232.0" cy="290.0" stroke-width="0.01mm" fill="blue" stroke="blue" /><circle r="9" cx="240.0" cy="300.0" stroke-width="0.01mm" fill="red" stroke="red" /><circle r="2" cx="240.0" cy="300.0" stroke-width="0.01mm" fill="blue" stroke="blue" /><circle r="9" cx="248.0" cy="310.0" stroke-width="0.01mm" fill="red" stroke="red" /><circle r="2" cx="248.0" cy="310.0" stroke-width="0.01mm" fill="blue" stroke="blue" /><circle r="9" cx="256.0" cy="320.0" stroke-width="0.01mm" fill="red" stroke="red" /><circle r="2" cx="256.0" cy="320.0" stroke-width="0.01mm" fill="blue" stroke="blue" /><circle r="9" cx="39.0" cy="39.0" stroke-width="0.01mm" fill="red" stroke="red" /><circle r="2" cx="39.0" cy="39.0" stroke-width="0.01mm" fill="blue" stroke="blue" /><path fill-rule="evenodd" fill="#66cc99" stroke="#555555" stroke-width="2.0" opacity="0.6" d="M 100.25,100.25 L 300.5,120.25 L 301.5,201.5 L 0.25,310.5 L 100.25,100.25 z" /></svg>