<svg viewBox="-300 -300 600 600" width="600" height="600" stroke="green" stroke-width="1"><path fill-rule="evenodd" fill="#66cc99" stroke="#555555" stroke-width="2.0" opacity="0.6" d="M 0.5513313500005097,27.632134400009818 L 0.47443135000003167,27.69473440000729 L 0.370631350000167,27.765034400006698 L 0.26873135000005277,27.807934399999795 L 0.12113135000026887,27.85493440000573 L 0.006831350000084058,27.872634400002426 L -0.24466864999976679,27.88703440000245 L -0.28526865000003454,27.896534400002565 L -0.30986864999977115,27.90093440000055 L -0.43406864999997197,27.984634400003415 L 4.238031350000256,30.591534400002274 L 11.004431350000232,33.89643440000509 L 11.3596313500002,33.557234400002926 L 11.13333135000039,33.43703439999808 L 11.181731350000064,33.30273440000019 L 12.35333135000019,32.278234400000656 L 12.627231349999875,32.02583440000308 L 13.527031350000016,31.220134399998642 L 14.841531349999968,30.064734400002635 L 14.962331350000113,30.104234400008863 L 15.112631350000356,30.23863440000423 L 15.564431350000177,29.943934399998398 L 17.34393134999982,29.061434400005965 L 17.30303135000031,28.889334400002554 L 17.91013135000003,28.790634400000272 L 21.103031350000492,27.419234400003916 L 21.544031350000296,27.291734400001587 L 21.52973135000002,27.26513440000417 L 21.551331350000055,27.258834400003252 L 21.451331350000146,27.127734400004556 L 21.0154313500002,26.528634399997827 L 20.998031350000474,26.51123440000083 L 20.956931350000104,26.709234399997513 L 20.26173134999999,26.885534400003962 L 20.364731350000056,27.02263440000388 L 19.424531350000052,27.14253440000175 L 18.663731350000035,27.21633440000005 L 18.64063135000015,26.363934400003927 L 18.542631350000192,25.89873439999792 L 16.631531349999932,26.140634400006093 L 16.620431350000217,25.711234400005196 L 16.447431350000443,25.035434400000668 L 16.320831349999935,25.033334400002786 L 16.24643135000042,24.79653440000402 L 16.082031350000307,24.44703440000012 L 15.869831350000368,24.050434400000086 L 15.54123135000009,23.586534400004894 L 15.629831350000586,23.545634399997653 L 15.209331350000411,23.026434400002472 L 14.615131349999956,23.306734400001005 L 14.410131350000484,22.845334400000866 L 14.087131350000163,22.548934400008875 L 13.943931350000184,22.46033439999883 L 13.69753135000019,21.761134400003357 L 13.722231350000584,21.56923440000537 L 13.104931350000243,20.934734400005254 L 11.838431350000064,21.112734400005138 L 11.01523135000025,21.384034400005476 L 10.334131350000462,21.351734400006535 L 9.591331350000019,21.300534400004835 L 9.412431350000134,21.18033440000727 L 9.164931350000188,20.68413440000586 L 8.920231349999995,20.21883440000238 L 8.833931350000057,20.124234400005662 L 8.739231349999955,20.061834400003136 L 8.642631350000102,20.03063440000551 L 8.508431350000137,20.022534400006407 L 8.352431350000188,20.032834400000866 L 8.180231350000213,20.067134400000214 L 7.121631350000371,20.402634400008537 L 6.980231350000395,20.503634400003648 L 6.91123134999998,20.535534400005417 L 5.920331350000197,20.690434399999504 L 5.833931350000057,20.745234400004847 L 5.766631349999898,20.844134400009352 L 5.769431350000559,21.066534400008095 L 5.749731350000275,21.151734400009445 L 5.653131349999967,21.306334400003834 L 5.0330313500003285,22.05043440000736 L 4.81663135000008,22.137734400006593 L 4.641431350000403,22.17203440000594 L 4.0450313500004995,22.247434400007478 L 3.9968313500003205,22.497134400000505 L 3.859731350000402,22.78193440000905 L 3.422031350000452,23.31123440000374 L 3.3532313499999873,23.396234400002868 L 3.2751313499998105,23.474134399999457 L 3.222131349999927,23.55353440000181 L 3.1910313499997756,23.65183440000692 L 3.267731350000304,23.64653440000984 L 3.3819313500002863,23.67153440000402 L 3.381031350000285,23.673434399999678 L 3.3515313500001866,23.735934400006954 L 3.2973313500001495,23.79523440000048 L 3.202931350000199,23.869334400005755 L 3.0485313499998483,23.950234400006593 L 2.891431349999948,23.98993440000777 L 2.763931350000348,23.990634400004637 L 1.0283313499999167,26.14053440000862 L 0.9976313500001197,26.178934400006256 L 0.970631350000076,26.212634399998933 L 0.4896313500003089,26.813134400006675 L 0.5667313499998272,26.888334400005988 L 0.6377313500001947,26.969634400003997 L 0.6813313500001641,26.996734400003334 L 0.7191313500002252,27.020134400001552 L 0.6837313500000164,27.04303439999785 L 0.7059313499999007,27.116334400001506 L 0.7194313500003773,27.198534400005883 L 0.7152313500005221,27.30073440000706 L 0.7056313500002034,27.356234400001995 L 0.6918313500000295,27.399934400003986 L 0.6737313500002529,27.453634400000738 L 0.6276313500002288,27.53563440000289 L 0.5513313500005097,27.632134400009818 z" /><text font-size="3" x="9.550331818189417" y="26.748418264983098" fill="rgba(3,3,113,0.5)" stroke="none">Parque Juan Carlos I</text><path fill-rule="evenodd" fill="#66cc99" stroke="#555555" stroke-width="2.0" opacity="0.6" d="M -145.0850686499998,101.05213440000807 L -144.4274686499998,100.69283440000436 L -144.30806864999977,100.61963440000545 L -144.1635686499999,100.4783344000025 L -143.7868686500001,99.73153440000897 L -143.71126864999997,99.58693440000206 L -143.6327686499999,99.36663440000848 L -143.56186864999972,98.95703440000216 L -143.4898686499996,98.45633440000529 L -143.43066864999992,97.9751344000033 L -143.28106865000018,96.77563440000085 L -143.09346864999998,95.28653440000198 L -144.6334686499995,95.08873440000752 L -144.84946864999984,98.35813439999765 L -144.87736864999988,98.931734400001 L -145.0840686499996,99.2983344000022 L -145.32566864999944,99.65763439999864 L -145.49196864999976,99.78633440000704 L -145.48666864999996,100.04243439999846 L -145.4170686499997,100.08293440000853 L -145.43156864999992,100.26793439999892 L -145.52146864999986,100.34803440000542 L -145.6764686499996,100.41383440000936 L -145.7694686499999,100.49243440000282 L -145.68716864999988,100.55113440000423 L -145.0850686499998,101.05213440000807 z" /><text font-size="3" x="-144.24334170311468" y="97.98926344011693" fill="rgba(3,3,113,0.5)" stroke="none">Parque de Aluche</text><path fill-rule="evenodd" fill="#66cc99" stroke="#555555" stroke-width="2.0" opacity="0.6" d="M -5.017868649999855,58.43583440000657 L -5.052868649999709,58.555534400002216 L -5.225468649999584,58.638634400005685 L -6.477968649999639,59.21513440000126 L -7.045368649999546,59.46373440000025 L -7.221768649999831,59.57063439999911 L -7.33206865000011,59.64143440000771 L -7.525368649999564,59.810834399999294 L -8.333668649999709,60.684734400005254 L -8.989668649999658,61.42933440000343 L -9.253268649999882,61.5943344000043 L -9.706068649999906,61.823834399998304 L -9.966968649999671,61.46513440000126 L -9.962868650000019,61.30943439999828 L -8.357068649999746,59.97583440000744 L -8.14056864999975,59.78513440000097 L -8.426568649999808,59.5208344000057 L -8.730168649999996,59.18953440000041 L -8.768868650000059,59.12763440000708 L -8.722768650000035,59.088634400002775 L -8.20996864999961,58.57043440000416 L -8.070068649999484,58.38033440000436 L -7.898668649999763,58.02553440000338 L -7.753768649999984,57.56003440000495 L -7.556868649999615,56.59913439999946 L -7.3302686499996526,55.74443440000323 L -7.00236864999988,54.37083440000424 L -6.962968650000221,54.21043440000358 L -6.611268649999602,54.07163440000295 L -6.529968649999773,54.18623440000374 L -6.4300686500000666,54.32693440000003 L -6.146768650000013,54.33253440000408 L -5.937368649999826,54.3585344000021 L -5.682468649999919,54.245434399999795 L -5.455568649999805,54.14743440000893 L -4.97906864999959,53.99343440000666 L -4.616968649999762,53.90973439999652 L -4.337368649999917,53.84923440000421 L -3.876268649999929,53.77413440000964 L -3.965268649999871,53.73203440000361 L -4.057268649999514,53.68863440000132 L -4.113268650000009,53.63613440000336 L -4.140068649999648,53.578334400008316 L -4.133268649999536,53.52813440000318 L -4.075668649999898,53.50533440000436 L -3.9230686500000047,53.494234400001005 L -3.637168649999694,53.47903440000664 L -3.215068649999921,53.47363440000481 L -2.5232686499998636,53.48433440000372 L -1.9112686499997835,53.48953440000332 L -1.872568649999721,53.48993440000049 L -0.9535686499998519,53.4977343999999 L -0.9372686499996234,53.49653440000111 L -0.9062686499996744,53.494334400005755 L -0.4143686499996875,53.459134400007315 L 0.2588313500004915,53.328334400008316 L 0.30373134999990725,53.32253440000204 L 0.46023135000041293,53.29453440000361 L 1.4556313500002034,53.09773440000572 L 2.994331350000266,52.7934344000023 L 3.254031350000332,53.64303440000367 L 1.9819313500001954,53.817734400006884 L -0.7767686500001219,54.252234400002635 L -1.126568650000081,54.27213440000196 L -3.90756865000003,54.284634400006325 L -4.128268649999882,54.32683440000983 L -4.30896864999977,54.47233440000127 L -4.396768649999558,54.65983440000127 L -5.017868649999855,58.43583440000657 z" /><text font-size="3" x="-4.970875604868317" y="56.31501964799282" fill="rgba(3,3,113,0.5)" stroke="none">Parque del Paraíso</text><path fill-rule="evenodd" fill="#66cc99" stroke="#555555" stroke-width="2.0" opacity="0.6" d="M -74.40246864999972,62.32713440000953 L -74.44266864999963,62.4149344000034 L -74.74866865000013,63.08343440000317 L -74.50866864999989,63.150734400005604 L -72.90156865000017,63.609634400003415 L -72.86286864999965,63.413034400007746 L -72.69816864999984,62.578234400003566 L -72.75106864999998,62.47583440000017 L -72.79046864999964,62.404134400007024 L -74.17896864999966,62.339134400004696 L -74.40246864999972,62.32713440000953 z" /><text font-size="3" x="-73.62570973699383" y="62.88099757910242" fill="rgba(3,3,113,0.5)" stroke="none">Jardines del Descubrimiento</text><path fill-rule="evenodd" fill="#66cc99" stroke="#555555" stroke-width="2.0" opacity="0.6" d="M -117.56616864999978,54.880734400008805 L -116.53806864999979,55.96843440000521 L -116.26466864999975,56.301034400006756 L -115.97716864999984,56.76503439999942 L -115.64356864999945,57.23723440000322 L -115.54226864999964,57.1912344000084 L -115.48696864999965,57.25383440000587 L -115.57666864999965,57.305034400000295 L -115.50536864999958,57.38873440000316 L -115.46446864999962,57.363034400004835 L -114.93096864999961,57.071434400008 L -114.42716865000011,57.60893440000655 L -113.74196865000022,58.359234400006244 L -113.71276864999982,58.36833440000919 L -113.65896865000013,58.426234400001704 L -113.83246864999956,58.58323440000095 L -113.88506865,58.6542344000045 L -113.90426865000018,58.710734400003275 L -113.90186864999987,58.91383440000209 L -113.96526864999987,58.91653440000664 L -114.03776865000009,58.959034400002565 L -113.25346864999983,59.68213440000545 L -112.52356865000002,60.45203440000478 L -112.43006865000007,60.46003439999913 L -112.46656864999977,60.01723440000933 L -112.20366865000005,59.89053440000134 L -111.13386864999984,61.067734400006884 L -111.04366864999974,61.01543440000387 L -110.94276864999983,60.48143440000422 L -110.69636864999984,60.62883440000587 L -110.58266864999996,60.71003439999913 L -110.51826864999975,60.782134400004 L -110.45016865000025,60.74943440000061 L -110.40736865000008,60.72893440000189 L -112.54266865,58.16043440000067 L -114.69366864999984,55.59303440000076 L -114.8878686500002,55.38433440000517 L -115.0721686500001,55.22503439999855 L -115.93246864999992,55.68823439999687 L -116.9527686499996,54.582334400001855 L -117.56616864999978,54.880734400008805 z" /><text font-size="3" x="-113.90622629174231" y="57.737542341976855" fill="rgba(3,3,113,0.5)" stroke="none">Parque de la Bombilla</text><path fill-rule="evenodd" fill="#66cc99" stroke="#555555" stroke-width="2.0" opacity="0.6" d="M -96.52596864999987,63.51383440000063 L -96.54056864999984,63.502334400007385 L -96.54996864999976,63.49733440000273 L -96.56226864999962,63.494234400001005 L -96.5757686500001,63.494334400005755 L -96.58626864999997,63.49693440000556 L -96.76016864999974,63.57513440000184 L -96.97836865,63.68943440000294 L -97.62326864999977,64.04933439999877 L -98.65956864999953,64.60033440000552 L -98.7643686499996,64.68983440000738 L -98.84326864999957,64.77513439999893 L -99.08486864999986,65.04043440000532 L -99.18716864999988,65.15233440000156 L -99.0108686499998,65.25383440000587 L -98.87676865000003,65.11393440000393 L -98.39836865000007,65.60103440000239 L -98.35526864999974,65.57333440000366 L -98.13486865000004,65.79403440000897 L -98.10366865000015,65.83133439999801 L -98.08676864999961,65.85843440000463 L -98.10906865000015,66.14873439999792 L -97.93686864999972,66.10313440000027 L -97.60836864999965,66.38283439999941 L -97.79726864999975,68.10143440000684 L -97.4202686499998,68.15493440000137 L -97.34356864999972,67.22813440000027 L -97.28596864999963,66.69113440000365 L -97.15046864999977,66.42573440000706 L -97.2005686499997,65.86403440000868 L -97.30046864999986,65.78073440000298 L -97.36966865000022,65.5769344000073 L -97.32796865,65.35133440000209 L -97.33026864999965,65.23513440000534 L -96.40526864999993,64.69213440000021 L -95.93746865000003,64.40423439999722 L -95.84316864999982,64.32973440000205 L -95.81926864999969,64.31133440000121 L -95.80436864999956,64.29153440000664 L -95.7956686499997,64.26653440000518 L -95.79626864999955,64.24083439999959 L -95.81396864999942,64.2051344000065 L -95.84346864999952,64.18073440000444 L -95.90076864999946,64.12563440000667 L -96.02096864999976,64.02223440000671 L -96.27396864999992,63.714834400001564 L -96.38626865000015,63.62283440000465 L -96.52596864999987,63.51383440000063 z" /><text font-size="3" x="-97.47263083101262" y="65.15836965950717" fill="rgba(3,3,113,0.5)" stroke="none">Plaza de España</text><path fill-rule="evenodd" fill="#66cc99" stroke="#555555" stroke-width="2.0" opacity="0.6" d="M -97.4867686499997,63.511534400007804 L -97.74886864999962,63.12743439999758 L -97.54326864999985,63.0431344000026 L -97.51586864999945,63.03083440000046 L -97.43686864999972,62.9980343999996 L -97.40636864999988,62.98533440000028 L -97.37016864999941,63.0350344000035 L -97.3599686499997,63.04913440000382 L -97.15296864999982,63.33503440000641 L -97.25926864999974,63.389734400007 L -97.2680686499998,63.394434400004684 L -97.34086865000017,63.43373440000869 L -97.35566864999964,63.441434400003345 L -97.4867686499997,63.511534400007804 z" /><text font-size="3" x="-97.45030886343613" y="63.24180385641414" fill="rgba(3,3,113,0.5)" stroke="none">Plaza de José Moreno Villa</text><path fill-rule="evenodd" fill="#66cc99" stroke="#555555" stroke-width="2.0" opacity="0.6" d="M -96.26456865,54.24443440000323 L -96.43926865000003,54.236334400004125 L -97.02346864999981,54.221634400004405 L -97.05076864999955,54.63153440000315 L -96.32016864999969,54.65383440000733 L -96.29496864999965,54.64043440000387 L -96.2631686499999,54.261334399998304 L -96.26456865,54.24443440000323 z" /><text font-size="3" x="-96.65789572930498" y="54.4369406328948" fill="rgba(3,3,113,0.5)" stroke="none">Jardines del Concejal Alejandro Muñoz Revenga</text><path fill-rule="evenodd" fill="#66cc99" stroke="#555555" stroke-width="2.0" opacity="0.6" d="M -91.8567686499996,13.579834400006803 L -91.85066864999999,13.569234399998095 L -92.63066864999973,13.569234399998095 L -92.8867686499998,13.567934400009108 L -93.66906864999964,13.556034400004137 L -93.77216864999991,13.541034400004719 L -93.93156864999946,13.471434400002181 L -94.02886864999982,13.42893439999898 L -94.32506865000005,13.579234400007408 L -94.37726864999968,13.595534400003089 L -94.74236864999966,13.846334400004707 L -95.1722686500002,14.163734400004614 L -95.39876864999951,14.099334400008956 L -95.41176864999989,14.041134400002193 L -95.78466865000019,13.961734400007117 L -95.55326865000006,13.3556344000026 L -95.69306864999999,13.31993440000224 L -95.62706865000018,13.157234400001471 L -95.71426864999967,13.100934400004917 L -95.59736864999968,12.96653440000955 L -95.36726864999991,12.709134400007315 L -94.97226864999993,12.886434400003054 L -94.55176864999976,13.0801344000065 L -94.47136864999993,13.069034400003147 L -94.29626864999955,13.056734400001005 L -94.3263686499995,12.863934400003927 L -94.2992686499997,12.770134400008828 L -94.25146864999988,12.69713440000487 L -94.19526864999989,12.630834400006279 L -94.14816865000012,12.583934400005091 L -94.0813686499996,12.539234399999259 L -94.02166864999981,12.504034400000819 L -93.95836864999956,12.472134400006325 L -93.87106864999987,12.436234400003741 L -93.77036864999991,12.407734400003392 L -93.68036864999976,12.391534399997909 L -93.57976865,12.381334400000924 L -93.08436864999976,12.382734400001937 L -92.78506864999963,12.365534399999888 L -92.96816864999982,11.870134400007373 L -93.37386864999962,11.965234399998735 L -93.47816864999959,12.001834399998188 L -94.02876865000007,12.112234400003217 L -94.18286864999982,12.148234400003275 L -94.33706864999976,12.192234400004963 L -94.55446864999976,12.27223440000671 L -94.77896864999957,12.358934400006547 L -94.95626864999986,12.455234400003974 L -95.15936864999958,12.574534400002449 L -95.30996864999997,12.668034400005126 L -95.36166864999996,12.66933440000139 L -95.45966864999991,12.751434400001017 L -95.45616864999965,12.771434400005091 L -95.55676864999987,12.888934399998107 L -95.66286864999984,12.998134400004346 L -95.74566864999997,13.106534400001692 L -95.66296865000004,13.172734400010086 L -95.7009686499996,13.246434400003636 L -95.7300686499998,13.335234400001355 L -95.5835686499995,13.371534400008386 L -95.85456864999969,14.064834400000109 L -95.6421686499998,14.16473440000118 L -95.44476864999979,14.283134400000563 L -95.27096864999976,14.400134400006209 L -95.02056864999986,14.511534400007804 L -94.8617686499997,14.57843440000579 L -94.80496864999986,14.632234400000016 L -94.72176864999983,14.652634400008537 L -94.18706864999967,14.762834400004067 L -93.91626864999989,14.764934400001948 L -93.69676864999974,14.23123440000927 L -93.05356864999976,14.372634400002426 L -92.6692686499996,14.483934400006547 L -92.62366864999967,14.52043440000125 L -92.45686865000016,14.83003440000175 L -92.38596864999954,14.898534400002973 L -92.25276865000023,15.024534400006814 L -92.17836864999981,15.053734400004032 L -92.12436864999972,15.052834399997664 L -91.07946864999985,14.960534400001052 L -88.95096865000005,14.772434400008933 L -88.85586864999959,14.776534400007222 L -88.7024686499999,14.763334399998712 L -88.51946864999945,14.734734400008165 L -88.35456865000015,14.697234400002344 L -88.24506864999967,14.662134400001378 L -88.14136865,14.616434400006256 L -88.06816864999973,14.575534399999015 L -87.9563686499996,14.502034400000412 L -87.8893686499996,14.444034400003147 L -87.78976864999959,14.321934400002647 L -87.6690686500001,14.205634400008421 L -87.23556865,13.870634400009294 L -87.20796864999966,13.821034400003555 L -87.98566864999975,13.979734400003508 L -88.75846864999994,14.120234400004847 L -89.1443686499997,14.168034400005126 L -89.36676864999981,14.194134400007897 L -89.50056864999988,14.204134400002658 L -89.5800686499997,14.21013440000388 L -89.99346865000007,14.241234400004032 L -90.2389686499996,14.25803440000891 L -90.49856864999992,14.27673440000217 L -90.95876864999991,14.283634400002484 L -91.00826864999954,14.284334399999352 L -91.13166864999994,14.286234400002286 L -91.56696864999958,14.280334400005813 L -91.56196864999993,14.043334400004824 L -91.72346864999963,14.04473439999856 L -91.72176864999983,13.804734400000598 L -91.85276864999969,13.802234400005545 L -91.8567686499996,13.579834400006803 z" /><text font-size="3" x="-92.19623904865942" y="13.999685983748577" fill="rgba(3,3,113,0.5)" stroke="none">Parque de la Alcazaba</text><path fill-rule="evenodd" fill="#66cc99" stroke="#555555" stroke-width="2.0" opacity="0.6" d="M -88.93506864999972,11.058734400001413 L -88.91246864999994,11.112334400000691 L -88.88776865,11.18073440000444 L -88.81816864999973,11.401534400007222 L -88.63536865000015,11.924134400003823 L -88.80226864999986,11.961234400005196 L -88.84296864999988,11.970234400003392 L -88.78216865000013,12.139934400001948 L -88.68346865000012,12.415734400005022 L -89.74906865000003,12.56243440000253 L -91.36686865000001,12.631434400005674 L -91.80516864999981,12.735134400005336 L -91.82706865,12.997534400004952 L -92.09216865000008,12.99333440000919 L -92.10376864999944,13.231534400001692 L -92.63226864999979,13.224934400008351 L -92.63236864999999,13.259534400007396 L -92.63256864999994,13.43293440000707 L -92.83196864999991,13.425634400009585 L -92.9527686499996,13.423634400001902 L -93.46186864999981,13.41533440000785 L -93.68726864999962,13.401334400004998 L -93.75376864999998,13.3842344000077 L -93.82616865,13.359234400006244 L -93.84106864999967,13.352834400000575 L -93.89416865000021,13.3301344000065 L -93.93666864999977,13.298834400004125 L -93.97356864999983,13.270834400005697 L -94.03306864999968,13.215834400005406 L -94.0742686499998,13.166234399999666 L -94.1110686500001,13.103734400006942 L -94.13656864999984,13.013134400003764 L -94.13616864999949,12.995434399999795 L -94.1351686500002,12.947334399999818 L -94.12486864999983,12.895534399998724 L -94.10966865,12.843834400002379 L -94.09826865000014,12.808734400001413 L -94.07986864999975,12.775834400003077 L -94.05776864999962,12.740834400006861 L -94.02696865000007,12.7051344000065 L -93.99476864999951,12.675434400000086 L -93.94946864999974,12.646434400005091 L -93.87576864999983,12.60443440000381 L -93.76516864999985,12.555934400006663 L -93.64896864999992,12.529834400003892 L -93.44666864999954,12.530434400003287 L -93.12766865000003,12.531434399999853 L -92.80716864999977,12.531434399999853 L -92.52396864999992,12.5402344000031 L -92.40886864999993,12.541634399996838 L -92.3256686499999,12.542534400003206 L -92.06276864999973,12.539634400003706 L -91.82976865,12.493734399999084 L -91.78966864999984,12.485834400002204 L -91.58966865000002,12.386734400002751 L -91.49356864999982,12.330534400003671 L -91.42046864999975,12.275234400003683 L -91.35816865000015,12.219434400001774 L -91.29186864999974,12.143934400010039 L -91.25556864999999,12.100434400002996 L -91.18666864999977,12.017834400001448 L -91.13586865000025,11.884834400007094 L -91.13076864999994,11.743334400001913 L -91.12886864999973,11.702334400004474 L -91.14006864999965,11.543534400007047 L -91.09526864999998,11.485434400005033 L -90.97896864999984,11.429334400003427 L -90.86206864999986,11.38003440000466 L -90.57896864999975,11.353834400004416 L -90.10696865,11.254634400000214 L -89.72486865000019,11.172434400003112 L -89.63466864999964,11.158634400002484 L -89.59336864999977,11.182134399998176 L -89.57036864999964,11.192734400006884 L -89.47656864999999,11.453134400006093 L -89.25156864999963,11.405434400003287 L -89.34626864999973,11.147034400004486 L -89.33516865000001,11.133934400008002 L -88.93506864999972,11.058734400001413 z" /><text font-size="3" x="-91.0664470265065" y="12.291918655202089" fill="rgba(3,3,113,0.5)" stroke="none">Parque de la Alcazaba (Parque de Altamira)</text><path fill-rule="evenodd" fill="#66cc99" stroke="#555555" stroke-width="2.0" opacity="0.6" d="M -84.8568686499998,14.288434400004917 L -84.74306864999971,14.287234400006128 L -84.63096864999989,14.287634400003299 L -84.57546864999995,14.300034400002914 L -84.53056864999962,14.314834400000109 L -84.4805686499999,14.33633440000267 L -84.42776864999996,14.36193440000352 L -84.38836864999985,14.393634400010342 L -84.34676864999983,14.455034400009026 L -84.30836864999992,14.51643440000771 L -84.22966864999944,14.946534400005476 L -84.29206864999969,15.022434400001657 L -84.41026865000003,15.018434400000842 L -85.58306864999986,14.384734400002344 L -85.54686864999985,14.341534400002274 L -85.53666864999968,14.282034400006523 L -85.42266864999965,14.233834400001797 L -85.35496864999959,14.291134400002193 L -85.2685686499999,14.331134400003066 L -85.15766864999978,14.331834399999934 L -85.07176864999974,14.326234400003159 L -84.98986865000006,14.311134399998991 L -84.8568686499998,14.288434400004917 z" /><text font-size="3" x="-84.77207258139244" y="14.575230623068585" fill="rgba(3,3,113,0.5)" stroke="none">Parque de la Ventilla</text><path fill-rule="evenodd" fill="#66cc99" stroke="#555555" stroke-width="2.0" opacity="0.6" d="M -76.09566864999988,13.25573440000153 L -75.78016864999972,13.32163440000295 L -75.52246864999961,13.328834400002961 L -75.09956865000004,13.277134400006616 L -74.87866864999978,13.918034400005126 L -74.68326865000017,14.002334400000109 L -74.5493686499999,14.100834400000167 L -74.52596864999987,14.118034400002216 L -74.83666864999987,14.325734400001238 L -74.87766865000003,14.355934400009573 L -74.99226864999946,14.356334400006745 L -75.38136864999979,14.340634400003182 L -75.99776864999967,14.293734400001995 L -76.23466865,14.272834399998828 L -76.90316865000023,14.213834400004998 L -77.18836865000003,14.169034400001692 L -77.32276864999994,14.155434400003287 L -77.42096864999985,14.14423440000246 L -77.42996864999986,14.135234400004265 L -77.45786864999991,14.141734400007408 L -77.48736864999955,14.140134399996896 L -77.5126686499998,14.131034400001226 L -77.52436864999981,14.134934400004568 L -77.56166864999977,14.149034400004894 L -78.14216865000026,14.087134400004288 L -78.27886864999982,14.088234400005604 L -78.5175686499997,14.090234400006011 L -79.3577686499998,14.09713439999905 L -80.0117686499998,14.102534400000877 L -81.11926864999987,14.473934399997233 L -81.17876864999971,14.315534400004253 L -81.17656864999981,14.146934399999736 L -82.43936864999978,14.147034400004486 L -82.75036864999993,14.074834400002146 L -83.60116864999964,13.877334400007385 L -83.69336864999968,14.114934400007769 L -83.7949686500001,14.392334400006803 L -83.81026864999967,14.416334400004416 L -83.85176864999994,14.52333440000075 L -83.94426865000014,14.761834400000225 L -84.09646865000013,14.765934399998514 L -84.1394686499998,14.7532343999992 L -84.1750686499995,14.592734400001063 L -84.19686864999994,14.50163440000324 L -84.2300686499998,14.41133439999976 L -84.27936864999992,14.353334400002495 L -84.34086864999972,14.305334400007268 L -84.42326864999995,14.26133440000558 L -84.56726865000019,14.195234400001937 L -84.5726686500002,14.1340343999982 L -84.77116864999971,14.129934399999911 L -84.77116864999971,14.195234400001937 L -84.88376864999964,14.195234400001937 L -85.08766864999961,14.240134400002717 L -84.99756864999972,14.132734400009213 L -84.94396864999999,13.946334400003252 L -84.68006864999961,13.92433439999877 L -84.68086864999987,13.897434400008933 L -84.69116864999978,13.540434400005324 L -85.40186864999987,13.54773440000281 L -85.53676864999943,13.551534400001401 L -85.45256864999965,13.402834400003485 L -84.78456864999953,13.402434400006314 L -84.78776864999963,13.0431344000026 L -85.2649686499999,13.074434400004975 L -85.19256864999988,12.938134399999399 L -84.93746865000003,12.873134400004346 L -84.52666864999992,12.79883439999685 L -84.39456864999966,12.793734400001995 L -84.28366864999953,12.794234400003916 L -84.16276865000009,12.799834400007967 L -84.0469686499996,12.807834400009597 L -83.77766865000012,12.850134400003299 L -83.60696865,12.895134400001552 L -83.43786864999947,12.961434400000144 L -83.18516864999992,13.05783440000232 L -83.13306864999959,13.078234400003566 L -83.01606864999985,13.116834400003427 L -82.80216865000011,13.16653440000664 L -82.5157686499997,13.198534400005883 L -82.2309686499998,13.224134400006733 L -82.04156865000004,13.222734399998444 L -81.79946865000011,13.199934400006896 L -81.43516864999992,13.130834399999003 L -81.29126864999989,13.099134400006733 L -81.06766865000009,13.049734400003217 L -80.70256864999965,12.980534400005126 L -80.42036864999955,12.995134400007373 L -80.08236864999981,13.036034400000062 L -79.43456864999962,13.149134400002367 L -78.98106865,13.193634400005976 L -78.67986864999966,13.20343440000579 L -78.44546864999984,13.181834400005755 L -78.06306864999988,13.151034400005301 L -77.88746864999985,13.121034400006465 L -77.40716864999968,13.060334399997373 L -77.23946864999971,13.050734399999783 L -76.99786864999987,13.056434400008584 L -76.74166864999961,13.09093440000288 L -76.47216864999973,13.146134400005394 L -76.09566864999988,13.25573440000153 z" /><text font-size="3" x="-80.11712466186674" y="13.651339196052978" fill="rgba(3,3,113,0.5)" stroke="none">Parque de La Ventilla</text><path fill-rule="evenodd" fill="#66cc99" stroke="#555555" stroke-width="2.0" opacity="0.6" d="M 5.3048313499998585,113.1403344000064 L 5.769431350000559,112.59673440000915 L 6.019231350000155,112.55743440000515 L 6.728731350000089,112.91153440000198 L 7.55343135000021,113.35053440000775 L 7.561831350000375,113.38403440000548 L 6.5118313499997384,114.61813439999969 L 6.46723135000002,114.62493440000253 L 6.419631350000145,114.63333440000133 L 4.801231349999853,113.83263440000155 L 4.778431350000119,113.75623440000345 L 5.3048313499998585,113.1403344000064 z" /><text font-size="3" x="6.166098336580765" y="113.57684065084003" fill="rgba(3,3,113,0.5)" stroke="none">Parque Lola Camarena</text><path fill-rule="evenodd" fill="#66cc99" stroke="#555555" stroke-width="2.0" opacity="0.6" d="M -94.69646864999959,81.06233439999778 L -95.54806865,80.90433440000197 L -95.59646864999968,80.66563440000755 L -95.56176864999998,80.61963439999818 L -95.52696865000007,80.61913440000353 L -95.52796865000028,80.60363440000219 L -95.4154686500001,80.60193440000876 L -95.38016865000009,80.600434400003 L -95.39066864999995,80.26143440000305 L -94.64336864999996,80.2335344000021 L -94.66826864999985,80.37383440000849 L -94.55796865000002,80.38393440000073 L -94.69646864999959,81.06233439999778 z" /><text font-size="3" x="-95.03881385874426" y="80.63216972149411" fill="rgba(3,3,113,0.5)" stroke="none">Jardín de las Heroínas de Sálvora</text><path fill-rule="evenodd" fill="#66cc99" stroke="#555555" stroke-width="2.0" opacity="0.6" d="M -94.11716864999971,82.35933440000372 L -94.07036865000009,82.25403440000082 L -94.08086864999996,82.2057344000059 L -94.08916864999992,82.17403440000635 L -94.15376864999962,81.86123439999938 L -94.20796864999966,81.57163440000295 L -94.1367686499998,81.58473439999943 L -93.06946864999964,81.77483440000651 L -93.05776864999962,81.81273440000223 L -93.04336864999959,81.89573440000822 L -92.91516864999994,82.65853440000501 L -92.92696864999971,82.67353439999715 L -92.9471686500001,82.67873440000403 L -93.76226864999944,82.45763440000883 L -94.11716864999971,82.35933440000372 z" /><text font-size="3" x="-93.54844882802067" y="82.10569475728929" fill="rgba(3,3,113,0.5)" stroke="none">Jardín del Rastro</text><path fill-rule="evenodd" fill="#66cc99" stroke="#555555" stroke-width="2.0" opacity="0.6" d="M -88.93416865000017,85.5599344000002 L -88.91636864999964,85.58443440000701 L -88.70526864999965,85.87403440000344 L -88.59476864999988,86.02533440000116 L -88.46376864999957,86.20533440000145 L -88.44776864999994,86.22733440000593 L -88.60836864999965,86.21683440000197 L -88.74846864999972,86.2077344000063 L -88.91406864999999,86.19693440000265 L -89.06746864999968,86.18693440000061 L -89.2341686499999,86.17603440000676 L -89.24456865000002,86.16123440000229 L -89.31606864999958,86.06033440000465 L -89.40846865000003,85.92373440000665 L -89.42736864999961,85.8958344000057 L -89.3942686499995,85.8735344000088 L -88.93416865000017,85.5599344000002 z" /><text font-size="3" x="-88.96658466669393" y="85.95596947341133" fill="rgba(3,3,113,0.5)" stroke="none">Jardín del Párroco Sánchez Cámara</text><path fill-rule="evenodd" fill="#66cc99" stroke="#555555" stroke-width="2.0" opacity="0.6" d="M -71.37346864999972,122.50433440000779 L -69.74986864999983,122.11773440000252 L -69.66586864999954,122.40273440000601 L -69.64526864999971,122.66743440000573 L -70.56266864999998,123.0087343999985 L -71.3617686499997,122.55063440000231 L -71.37346864999972,122.50433440000779 z" /><text font-size="3" x="-70.38274565798297" y="122.56191505518777" fill="rgba(3,3,113,0.5)" stroke="none">Parque Oligisto</text><path fill-rule="evenodd" fill="#66cc99" stroke="#555555" stroke-width="2.0" opacity="0.6" d="M -1.9258686500002113,45.83213440000691 L -1.8177686499998345,46.06103440000152 L -1.8169686499995805,46.10373440000694 L -1.8281686499999523,46.139234399997804 L -1.8607686499999545,46.18653440000344 L -1.904868649999571,46.213134400000854 L -2.452068650000001,46.38363440000103 L -2.8044686499997624,46.49343440000666 L -2.8792686499996307,46.49703440000303 L -2.9581686500000615,46.48833440000453 L -3.0042686500000855,46.4667344000045 L -3.06086864999952,46.42183440000372 L -3.5500686499999574,46.03393440000946 L -3.761168649999945,45.86653440000373 L -3.774668649999967,45.839034399999946 L -3.766068649999852,45.80523440000252 L -3.7341686499999014,45.78823440000269 L -3.201568649999899,45.64373440000054 L -2.9776686499999414,45.58293440000125 L -2.9667686500001764,45.610834400002204 L -2.4815686499996445,45.982534400005534 L -1.9258686500002113,45.83213440000691 z" /><text font-size="3" x="-2.8072305430801308" y="46.05198708902474" fill="rgba(3,3,113,0.5)" stroke="none">Parque del registro de la propiedad</text><path fill-rule="evenodd" fill="#66cc99" stroke="#555555" stroke-width="2.0" opacity="0.6" d="M -86.92486865000001,10.639734399999725 L -86.66476864999959,11.396834400002263 L -86.69216864999953,12.75123440000607 L -86.55126864999966,12.84313440000551 L -86.50126864999993,12.83003440000175 L -86.46156865000012,12.275234400003683 L -86.40726864999942,12.179734400007874 L -86.34726864999948,12.139834400004474 L -86.07566864999944,12.045734400002402 L -86.18796864999968,11.888734400003159 L -86.31716864999953,11.715534400005708 L -86.1408686499999,11.640334400006395 L -86.26556864999975,11.469034400004603 L -86.09576865000008,11.39383440000529 L -86.22606864999989,11.221934400004102 L -86.38036864999958,11.01883440000529 L -86.36476864999986,10.94873440000083 L -86.2028686499998,10.883934400008002 L -86.44266865000009,10.567834400004358 L -86.4845686499998,10.54823440000473 L -86.51456865,10.540334400000575 L -86.56736864999948,10.536234400002286 L -86.79206865000015,10.574334400000225 L -86.82996864999996,10.62783440000203 L -86.92486865000001,10.639734399999725 z" /><text font-size="3" x="-86.50438346947914" y="11.511113713503654" fill="rgba(3,3,113,0.5)" stroke="none">Canal Bajo de Madrid</text><path fill-rule="evenodd" fill="#66cc99" stroke="#555555" stroke-width="2.0" opacity="0.6" d="M -83.64876864999997,4.175534400004835 L -83.59726864999993,4.058034400004544 L -81.28846864999969,3.1115344000063487 L -81.42096864999985,3.414234400006535 L -81.8626686499997,3.6301344000021345 L -81.87236864999977,3.784934399998747 L -82.86366864999945,4.176634400006151 L -82.72436864999963,4.356834400008665 L -82.99426864999987,4.454634400004579 L -82.78406864999988,4.666934400003811 L -83.1680686499999,4.795734400002402 L -83.64876864999997,4.175534400004835 z" /><text font-size="3" x="-82.65670982786752" y="3.9635293395054734" fill="rgba(3,3,113,0.5)" stroke="none">Canal Bajo de Madrid</text><path fill-rule="evenodd" fill="#66cc99" stroke="#555555" stroke-width="2.0" opacity="0.6" d="M -96.2658686499999,17.18073440000444 L -96.31096864999972,17.183534400006465 L -96.34916864999968,17.19883440000558 L -96.41556864999984,17.25693440000032 L -96.63366864999989,17.475334400005522 L -96.83386864999966,17.85623440000927 L -96.91476864999959,18.17323440000473 L -96.98396864999995,18.270834400005697 L -96.96556864999957,18.51793439999892 L -96.9488686499999,18.608734400004323 L -96.92496864999976,18.690934400001424 L -96.83896864999997,18.859634400003415 L -96.49576864999972,19.32793440000387 L -95.8854686499999,20.11643439999898 L -94.95966864999991,21.328934400000435 L -94.87266864999992,21.63293440000416 L -94.86966865000022,21.678034399999888 L -94.84676864999983,21.743534400004137 L -94.80106865000016,21.837934400005906 L -94.78236865000008,21.88923440000508 L -94.7961686499998,21.973734400002286 L -94.79956864999986,22.009134400010225 L -94.7693686499997,22.121334400006162 L -94.68526864999967,22.40753440000117 L -94.02096864999976,23.14753439999913 L -93.99786864999987,23.163734400004614 L -93.95826864999981,23.17483440000069 L -93.88206864999984,23.18923440000799 L -93.83196864999991,23.198034400003962 L -93.79296865000015,23.21483440000884 L -93.76736864999975,23.23763440000039 L -93.75206864999973,23.268134400001145 L -93.73526864999985,23.312634400004754 L -93.70476865,23.5318344000043 L -93.64056864999975,24.044534400003613 L -93.61746864999986,24.11863440000161 L -93.57946864999985,24.222534400003497 L -93.02526864999982,25.059234400003334 L -92.99586864999992,25.09943440000643 L -92.96546864999982,25.120234400004847 L -92.93156864999992,25.135534400003962 L -92.86306865000006,25.149734400001762 L -92.8260686499998,25.151634400004696 L -92.80006864999996,25.14423440000246 L -92.77816864999977,25.13533440000174 L -92.75716864999958,25.123534400001517 L -92.7360686500001,25.1085344000021 L -92.71026865000022,25.078034400001343 L -92.21756864999998,24.461734400007117 L -92.1764686499996,24.42023440000048 L -92.12566864999962,24.370534400004544 L -92.06816864999973,24.324434400004975 L -91.95946864999996,24.24423440000828 L -91.85566864999964,24.175334400002612 L -91.74036864999971,24.10353440000472 L -91.62426864999952,24.04103440000472 L -91.46486864999997,23.96313440000813 L -91.41466864999984,23.94023439999728 L -91.34746864999988,23.899134400002367 L -91.27726865000022,23.85023440000805 L -91.19936865,23.780834400007734 L -91.15656864999983,23.73183440000139 L -91.13086864999968,23.69243439999991 L -91.1109686499999,23.655434400003287 L -91.09536864999973,23.60783440000523 L -91.08766865000007,23.580234400003974 L -91.07546864999995,23.509134400010225 L -91.06476865000013,23.443934400005674 L -91.06376864999993,23.43013439999777 L -91.06756864999988,23.381834400002845 L -91.06116864999967,23.34883439999976 L -91.05876864999982,23.332234399997105 L -91.07716864999975,23.22763439999835 L -91.12556864999988,23.110234400010086 L -91.22366864999958,22.97323440000764 L -91.28936864999969,22.908834400004707 L -91.33956864999982,22.86993440000515 L -91.38486864999959,22.84473440000147 L -91.67086864999965,22.74663440000586 L -91.68466864999982,22.761634400005278 L -91.79646864999995,22.720934400007536 L -91.91836864999959,22.676434400003927 L -91.90766864999978,22.653734400002577 L -91.99146865000012,22.6143344000011 L -92.08656864999966,22.56073440000182 L -92.19466864999958,22.494034400006058 L -92.36916865000012,22.373234400009096 L -92.53046864999988,22.248034400006873 L -92.60186864999969,22.182134400005452 L -92.65776864999998,22.126034400003846 L -92.71056864999991,22.07053440000891 L -92.8239686500001,21.94373440000345 L -92.88156864999974,21.884334400005173 L -92.91086864999988,21.850334400005522 L -92.95396864999975,21.78353440000501 L -93.06166865000023,21.56493440000486 L -93.15656864999983,21.294634400008363 L -93.18886864999968,21.11653440000373 L -93.18826864999983,20.77943440000672 L -93.18056865000017,20.664834399998654 L -93.13886864999995,20.513334400005988 L -93.0425686499998,20.298834400004125 L -93.21736864999957,20.256434400005674 L -93.09806864999973,19.947234400002344 L -93.47756864999974,19.855434400007653 L -93.35286864999989,19.54113440000947 L -92.78956865000009,19.671734400006244 L -92.82196864999969,19.625534400001925 L -92.8894686499998,19.597334400001273 L -93.24236865000012,19.51303440000629 L -93.28256865000003,19.500034400000004 L -93.50646864999999,19.352934400005324 L -93.64346865000016,19.262134399999923 L -93.69966865000015,19.23183440000139 L -93.75326864999988,19.21173439999984 L -93.80946864999987,19.199034400000528 L -93.89496865000001,19.18703440000536 L -94.07246864999979,19.161234400002286 L -94.1720686499998,19.142434400004277 L -94.24106864999976,19.121234400001413 L -94.31526864999978,19.0914344000048 L -94.37746865000008,19.06123440000374 L -94.43776864999973,19.02433440000459 L -94.50146864999988,18.974134399999457 L -94.56846864999989,18.907434400003694 L -94.61486865000006,18.84043440000096 L -94.65536865000013,18.767834400001448 L -94.68446864999987,18.702034400004777 L -94.80376865000017,18.391734400007408 L -94.81776864999983,18.358334400007152 L -94.84516864999978,18.316034399998898 L -94.88216865000004,18.267834400008724 L -95.10526864999974,18.01293440000154 L -95.28096864999952,17.837434400003986 L -95.40686864999952,17.750034400000004 L -95.45526865000011,17.69783440000174 L -95.47946864999994,17.669934400000784 L -95.71746864999977,17.45893440000509 L -95.80536864999976,17.394634400006908 L -95.95826864999981,17.29773440000281 L -95.99246864999986,17.29213439999876 L -96.04066865000004,17.251834400005464 L -96.11846865000007,17.21713440000167 L -96.19696864999969,17.194234399998095 L -96.2658686499999,17.18073440000444 z" /><text font-size="3" x="-94.12301110295311" y="21.105182565456758" fill="rgba(3,3,113,0.5)" stroke="none">Parque Agustín Rodríguez Sahagún</text><path fill-rule="evenodd" fill="#66cc99" stroke="#555555" stroke-width="2.0" opacity="0.6" d="M -72.95906865000006,21.606634400006442 L -70.78646864999973,21.149934400003986 L -70.72436864999963,21.158734399999958 L -70.65376865000007,21.18633440000849 L -70.61816864999992,21.212934400005906 L -70.59526864999953,21.246434400003636 L -70.50246864999963,21.703634400000738 L -70.17456864999986,23.306434400001308 L -70.16796865000015,23.35153440000431 L -73.35696865,23.93333440000424 L -73.53306864999968,23.82383440000558 L -73.53216865000013,23.66533440000785 L -73.53536864999978,23.540834400002495 L -73.52206864999971,22.32383440000558 L -73.33446864999996,22.232734400007757 L -73.18556864999982,22.12283440000465 L -73.09276864999993,22.01123440000083 L -72.99616864999962,21.859134400001494 L -72.95946864999996,21.724634400001378 L -72.95906865000006,21.606634400006442 z" /><text font-size="3" x="-71.89665807132302" y="22.588330324009124" fill="rgba(3,3,113,0.5)" stroke="none">Parque del Cuarto Depósito</text><path fill-rule="evenodd" fill="#66cc99" stroke="#555555" stroke-width="2.0" opacity="0.6" d="M -20.024268650000067,-46.74286559999746 L -19.35276864999969,-46.93416559999605 L -18.504168649999883,-47.179465599998366 L -17.667268650000096,-47.42236559999583 L -16.837968649999766,-47.65136559999519 L -15.854968650000046,-47.91446559999895 L -15.871468650000224,-47.947665599989705 L -15.972668649999832,-48.15936559999682 L -16.256468649999533,-48.733065599997644 L -16.436768649999976,-48.7326655999932 L -16.47176864999983,-48.75686560000031 L -16.511468649999642,-48.7667655999976 L -16.55436864999956,-48.7690655999977 L -16.6391686500001,-48.79206559999875 L -16.681268649999765,-48.811865599993325 L -16.717968649999875,-48.83256559999427 L -16.7653686499998,-48.85776559999795 L -16.791768649999995,-48.87376559999393 L -19.949768649999896,-47.97496559999854 L -19.934068649999517,-47.926965600003314 L -20.290968650000195,-47.83396559999528 L -20.319168649999483,-47.7149655999965 L -20.394268649999958,-47.62976559999515 L -20.308268649999718,-47.457565600001544 L -20.37106864999987,-47.44246559999738 L -20.024268650000067,-46.74286559999746 z" /><text font-size="3" x="-18.198627006779773" y="-47.85398428201036" fill="rgba(3,3,113,0.5)" stroke="none">Jardín de la Vega (sector oeste)</text><path fill-rule="evenodd" fill="#66cc99" stroke="#555555" stroke-width="2.0" opacity="0.6" d="M -15.854968650000046,-47.91446559999895 L -14.052568649999557,-48.439365599995654 L -12.400068649999866,-48.95086559999618 L -12.700968649999595,-49.57226559999981 L -12.766468649999752,-49.63676559999294 L -12.849268649999885,-49.672265599998354 L -12.975168649999887,-49.688665599998785 L -13.070868650000193,-49.7152655999962 L -13.156868649999979,-49.74596559999918 L -13.228068649999841,-49.7953656000027 L -13.335068649999812,-49.837465599994175 L -13.436368650000077,-49.84156559999974 L -15.949268649999794,-49.12746559999505 L -16.002268650000133,-49.101265599994804 L -16.026068649999615,-49.067765599997074 L -16.033668649999527,-49.014765599989914 L -16.055268650000016,-48.97256560000096 L -16.085568649999914,-48.93256560000009 L -16.132068649999837,-48.88496559999476 L -16.154768649999824,-48.85146559999703 L -16.150868649999666,-48.80836559999443 L -16.256468649999533,-48.733065599997644 L -15.972668649999832,-48.15936559999682 L -15.871468650000224,-47.947665599989705 L -15.854968650000046,-47.91446559999895 z" /><text font-size="3" x="-14.40446010834786" y="-48.93524119320089" fill="rgba(3,3,113,0.5)" stroke="none">Jardín de la Vega (sector centro)</text><path fill-rule="evenodd" fill="#66cc99" stroke="#555555" stroke-width="2.0" opacity="0.6" d="M -12.149868649999917,-49.02126560000033 L -10.446068650000143,-49.45596559999831 L -9.546568650000154,-49.71106559999316 L -9.438968649999879,-49.712965599996096 L -9.356968649999999,-49.707365599992045 L -9.274268649999613,-49.67656559999887 L -9.21106864999956,-49.64686559999973 L -9.147968649999711,-49.606865599998855 L -9.1090686499997,-49.56556560000172 L -9.067668650000087,-49.49506560000009 L -9.041668649999792,-49.382865599996876 L -9.047768649999853,-49.2890655999945 L -9.078468650000104,-49.23386559999926 L -8.973568649999834,-49.19406560000061 L -8.766768649999904,-49.457965599998715 L -8.754068649999681,-49.524565599997004 L -8.84606864999978,-49.923865599994315 L -8.960968649999813,-50.10036559999571 L -9.627468650000083,-50.73656559999654 L -9.774968649999664,-50.83096559999103 L -9.91466864999984,-50.83056559999386 L -10.951668650000101,-50.54546560000017 L -12.116368649999913,-50.22526559999824 L -12.206368650000059,-50.15866559999267 L -12.27776864999987,-49.96246560000145 L -12.368468649999613,-49.85276559999329 L -12.457168649999858,-49.75486559999263 L -12.462768649999816,-49.677365600000485 L -12.149868649999917,-49.02126560000033 z" /><text font-size="3" x="-10.678116104633553" y="-49.93552129518877" fill="rgba(3,3,113,0.5)" stroke="none">Jardín de la Vega (sector este)</text><path fill-rule="evenodd" fill="#66cc99" stroke="#555555" stroke-width="2.0" opacity="0.6" d="M -13.492868649999764,-51.609265599996434 L -13.204268649999904,-51.032965599995805 L -12.808868649999567,-51.08266559999174 L -12.497768650000125,-51.064165600000706 L -12.274368649999815,-51.04576559999259 L -12.141468650000206,-51.08096559999831 L -11.885868649999793,-50.5734655999986 L -11.105068649999794,-50.793865599996934 L -11.061568650000027,-50.793865599996934 L -11.023268649999864,-50.73376559999451 L -10.304468649999762,-50.9455655999991 L -10.231368649999695,-50.98676559999876 L -10.181668649999665,-51.05596559999685 L -10.166468649999842,-51.14676559999498 L -10.21356865000007,-51.22286560000066 L -10.981468649999897,-51.864265599993814 L -11.393468649999704,-52.02736559999903 L -11.828768649999802,-52.0338655999949 L -12.77186864999976,-51.85456559999875 L -13.492868649999764,-51.609265599996434 z" /><text font-size="3" x="-11.773725592725748" y="-51.366022015795345" fill="rgba(3,3,113,0.5)" stroke="none">Jardín de la Vega (sector norte)</text><path fill-rule="evenodd" fill="#66cc99" stroke="#555555" stroke-width="2.0" opacity="0.6" d="M -26.259368649999942,-49.176865599998564 L -26.09176864999972,-49.23076559999754 L -25.424868649999553,-49.445365599996876 L -24.595568649999677,-49.743865599994024 L -24.787668649999887,-49.97866559999238 L -24.81316865000008,-50.00986559999728 L -25.02956864999942,-50.26396559999557 L -25.266968649999853,-49.922565599990776 L -25.33396864999986,-49.90896559999965 L -25.295768649999445,-49.822165600002336 L -25.52746864999972,-49.75726559999748 L -25.96056864999946,-49.63086559999647 L -26.00146864999988,-49.71346559999074 L -26.081968649999908,-49.6900655999998 L -26.056468649999715,-49.64106559999345 L -26.088468649999868,-49.6327655999994 L -26.28986864999979,-50.032965599995805 L -26.485668650000207,-49.97536560000299 L -26.563468649999777,-50.12416559999838 L -26.404268650000176,-50.170965599994815 L -26.521768650000013,-50.40996559999621 L -26.574268649999794,-50.39376559999073 L -26.620968649999668,-50.48246559999825 L -26.55786864999982,-50.502465600002324 L -26.569068649999735,-50.52536559999862 L -26.61616864999951,-50.62196559999575 L -26.72566864999999,-50.632765599992126 L -26.865568650000114,-50.68306560000201 L -26.959068649999608,-50.75096559999656 L -27.716568649999772,-51.343865599999845 L -29.57246864999979,-52.81006559999514 L -29.881468649999988,-52.7774655999965 L -29.903068649999568,-52.81116559999646 L -31.031568649999826,-53.66456559999642 L -30.885668649999843,-53.79506559999572 L -31.100268649999634,-53.89936559999478 L -31.357668649999596,-54.010265599994455 L -31.623768649999874,-54.0167655999976 L -32.288168649999534,-53.945265599992126 L -32.53856864999989,-53.90756559999136 L -32.604968650000046,-53.8975655999966 L -32.87656865000008,-53.822865599999204 L -32.81686864999983,-53.67766560000018 L -32.79106864999949,-53.50146559999121 L -33.34556864999968,-53.22936559999653 L -33.59766864999983,-53.075465599999006 L -33.694268649999685,-53.00206559999788 L -31.27186864999976,-52.12526559999969 L -31.83836865000012,-51.66866560000199 L -31.786868650000088,-51.58386559999781 L -28.370768650000173,-50.65106559999549 L -28.181968649999817,-50.598865599997225 L -27.426668649999556,-50.27926559999469 L -26.697068649999892,-49.8943655999974 L -26.473968649999733,-49.685665599994536 L -26.319468649999635,-49.48346560000209 L -26.259368649999942,-49.176865599998564 z" /><text font-size="3" x="-29.863175662374452" y="-51.94829463641044" fill="rgba(3,3,113,0.5)" stroke="none">Parque de Andalucía</text><path fill-rule="evenodd" fill="#66cc99" stroke="#555555" stroke-width="2.0" opacity="0.6" d="M -77.24266864999981,-8.187465599999996 L -77.22746864999999,-6.485365599990473 L -76.90986864999968,-6.367865599997458 L -76.39486864999981,-6.367865599997458 L -76.39486864999981,-6.739965599997959 L -76.26206864999995,-7.015665599996282 L -76.29416864999985,-7.291365599994606 L -76.13536864999969,-7.671765599996434 L -76.11596864999956,-8.108865599991987 L -76.33216864999986,-8.334365599992452 L -76.40046864999977,-8.316265599998587 L -76.48266865000005,-8.324765599994862 L -76.5404686500001,-8.348065599995607 L -76.58516865000001,-8.392065599990019 L -77.24266864999981,-8.187465599999996 z" /><text font-size="3" x="-76.72981926458154" y="-7.39842769238867" fill="rgba(3,3,113,0.5)" stroke="none">Parque Fuente Chica</text><path fill-rule="evenodd" fill="#66cc99" stroke="#555555" stroke-width="2.0" opacity="0.6" d="M -78.42496864999976,33.12533440000698 L -78.50056864999988,33.97263440000097 L -78.23476864999975,33.98653440000635 L -78.20376865000026,33.773734400005196 L -78.11746864999986,33.701134400005685 L -78.00726864999979,33.706134400003066 L -77.93976865000013,33.143634400003066 L -78.42496864999976,33.12533440000698 z" /><text font-size="3" x="-78.24247166393876" y="33.511157684329085" fill="rgba(3,3,113,0.5)" stroke="none">Avenida de Brasil</text><path fill-rule="evenodd" fill="#66cc99" stroke="#555555" stroke-width="2.0" opacity="0.6" d="M -72.39756864999981,27.345334400000866 L -72.4207686499999,27.593334400000458 L -72.45226864999995,27.641934400002356 L -72.50146864999988,27.670934400004626 L -72.52956864999987,28.05403440000373 L -72.53476864999993,28.12453440000536 L -72.56766864999963,28.573034400003962 L -71.40876864999973,28.62253440000495 L -71.29236864999984,27.70283439999912 L -71.30026864999945,27.69613440000103 L -71.34906864999994,27.68533440000465 L -71.40946864999978,27.622434400000202 L -71.38486864999959,27.410034400003497 L -72.23926864999976,27.355434400007653 L -72.39756864999981,27.345334400000866 z" /><text font-size="3" x="-71.93440841345613" y="28.00134095144809" fill="rgba(3,3,113,0.5)" stroke="none">Parque de San Fernando</text><path fill-rule="evenodd" fill="#66cc99" stroke="#555555" stroke-width="2.0" opacity="0.6" d="M -78.6387686500002,37.667534400003206 L -78.75206864999973,38.92283440000028 L -77.50096865000023,38.98723440000322 L -77.47886864999964,38.781134400000155 L -77.1725686499999,38.79743440000311 L -77.07886865,38.73333440000715 L -77.04246865000005,38.356634399999166 L -76.93196864999982,38.36033440000028 L -76.90276864999987,38.09343440000521 L -76.92546864999986,38.094634400004 L -76.8898686499997,37.754534400010016 L -78.6387686500002,37.667534400003206 z" /><text font-size="3" x="-77.86652527204687" y="38.30572527381374" fill="rgba(3,3,113,0.5)" stroke="none">Plaza de Pablo Ruiz Picasso</text><path fill-rule="evenodd" fill="#66cc99" stroke="#555555" stroke-width="2.0" opacity="0.6" d="M -80.27196864999951,35.17033440000523 L -80.24976865000008,34.87683439999819 L -80.23966864999966,34.742534400000295 L -81.50726864999979,34.68723440000031 L -81.50506864999988,34.617634400005045 L -81.56786864999958,34.61493440000049 L -81.75486864999993,34.60663440000644 L -81.76716865000026,34.79853440000443 L -81.79016864999949,35.10403440000664 L -81.7037686499998,35.107834399997955 L -80.27196864999951,35.17033440000523 z" /><text font-size="3" x="-81.03113649906923" y="34.91605671176305" fill="rgba(3,3,113,0.5)" stroke="none">Jardines de Perón</text><path fill-rule="evenodd" fill="#66cc99" stroke="#555555" stroke-width="2.0" opacity="0.6" d="M -81.79016864999949,35.10403440000664 L -81.74496864999992,34.6311343999987 L -82.24096865000001,34.60133440000209 L -82.24616865000007,34.6539344000048 L -83.21296864999977,34.60143439999956 L -83.25086864999957,35.006134400005976 L -81.79016864999949,35.10403440000664 z" /><text font-size="3" x="-82.47544503399548" y="34.84010979778281" fill="rgba(3,3,113,0.5)" stroke="none">Jardines de Perón</text><path fill-rule="evenodd" fill="#66cc99" stroke="#555555" stroke-width="2.0" opacity="0.6" d="M -24.28406864999988,64.04353440000705 L -24.258968650000043,64.04683440000372 L -24.241568649999863,64.04193440000381 L -24.22736864999979,64.0344344000041 L -24.223068649999732,64.02553440000338 L -24.199068649999845,63.97563439999794 L -24.19466865000004,63.96633440000733 L -24.198968649999642,63.92403439999907 L -24.215368650000073,63.88503440000204 L -24.432268649999514,63.530634399998235 L -24.454068649999954,63.5032343999992 L -24.47046864999993,63.49993440000253 L -24.531568649999826,63.41443440000148 L -24.698368649999793,63.33143440000276 L -25.317568649999885,62.97793439999805 L -25.341468650000024,62.965334400003485 L -25.427568649999557,62.920034400005534 L -26.067668649999632,62.583634400005394 L -26.389568649999546,62.41503440000088 L -26.41526864999969,62.401634400004696 L -26.461968649999562,62.377134399997885 L -26.511368649999895,62.35133440000209 L -27.133068649999586,62.01613440000074 L -27.22676864999994,61.96553439999843 L -27.498068649999823,61.819334400002845 L -27.521568649999608,61.806334400003834 L -27.846868650000033,61.627634399999806 L -28.193868649999786,61.44573440000386 L -28.22506865000014,61.4294344000009 L -28.252868649999982,61.41483440000593 L -28.474568649999583,61.2986344000019 L -28.725268649999634,61.159634400006325 L -28.792168649999894,61.12253440000495 L -29.04076864999979,60.98833440000453 L -29.11996864999992,60.945534400001634 L -29.48766865000016,60.74703440000303 L -29.65236864999997,60.668234400000074 L -29.705368649999855,60.64613439999812 L -29.83436864999976,60.59263440000359 L -30.087368649999917,60.51053440000396 L -30.101468649999788,60.50883440000325 L -30.10806864999995,60.51553440000134 L -30.110268649999853,60.53953440000623 L -30.120068649999666,60.61513440000272 L -30.12826864999988,60.67413440000382 L -30.132068649999837,60.70053440000629 L -30.166868650000197,60.97943440000381 L -30.166868650000197,61.00593440000375 L -30.15706864999993,61.037534400005825 L -30.134168649999992,61.074034400007804 L -30.09716864999973,61.10723440000584 L -29.15906864999988,61.610834400002204 L -29.133968649999588,61.62433440001041 L -29.115368650000164,61.63433440000517 L -28.72126864999973,61.845834400002786 L -26.968168649999825,62.784534400001576 L -26.946268649999638,62.7963344000018 L -26.9211686499998,62.80983440000273 L -25.67186864999985,63.48253439999826 L -25.661568649999936,63.48783440000261 L -25.64016864999985,63.49883440000849 L -25.618368649999866,63.51013440000679 L -25.32226864999984,63.662934400002996 L -25.2987686499996,63.675034400002914 L -25.277668650000123,63.685934400004044 L -25.25986864999959,63.69513440000446 L -25.155168649999723,63.747234400005254 L -25.002468650000083,63.81613440000365 L -24.87056864999977,63.869234400001005 L -24.655768650000027,63.94233440000244 L -24.47156864999988,63.99543440000707 L -24.28406864999988,64.04353440000705 z" /><text font-size="3" x="-27.252175080084577" y="62.29040967819373" fill="rgba(3,3,113,0.5)" stroke="none">Parque Arriaga</text><path fill-rule="evenodd" fill="#66cc99" stroke="#555555" stroke-width="2.0" opacity="0.6" d="M -30.33386864999966,60.87213440000778 L -30.276768650000122,60.42083440000715 L -30.275968649999868,60.41503440000088 L -30.268368649999957,60.35863439999957 L -30.260668649999843,60.34813440000289 L -30.260668649999843,60.338734400007525 L -30.267568650000158,60.32993440000428 L -30.276768650000122,60.32403440000053 L -31.037668649999887,59.908634400002484 L -31.053068650000114,59.90563440000551 L -31.077768650000053,59.907434400003694 L -31.10236864999979,59.91393440000684 L -31.11936865000007,59.925034400002914 L -31.12356864999947,59.93083440000191 L -31.127868649999982,59.93673440000566 L -31.275468649999766,60.14053440000134 L -31.44616864999989,60.37633440000354 L -31.453168649999952,60.389734400007 L -31.459268649999558,60.407434400003694 L -31.457768649999707,60.42733440000302 L -31.44696864999969,60.44733439999982 L -31.43226864999997,60.46253440000146 L -31.414568650000092,60.47313440000289 L -31.362168650000058,60.49603439999919 L -30.42866864999951,60.9184344000023 L -30.41946865,60.922634400005336 L -30.395568649999404,60.926734400003625 L -30.370868649999466,60.92313440000726 L -30.356968649999544,60.91613440000219 L -30.343868649999877,60.90553440000804 L -30.335368649999964,60.89093440000579 L -30.33386864999966,60.87213440000778 z" /><text font-size="3" x="-30.812702855229254" y="60.41064251675149" fill="rgba(3,3,113,0.5)" stroke="none">Parque de Arriaga</text><path fill-rule="evenodd" fill="#66cc99" stroke="#555555" stroke-width="2.0" opacity="0.6" d="M -61.93986864999988,36.179634400003124 L -61.97416864999968,36.41283440000552 L -61.47656864999999,36.45303440000134 L -61.5144686499998,36.725434400002996 L -61.36056864999955,36.92663440000615 L -61.40996864999988,37.43363440000394 L -61.41596864999974,37.49503440000262 L -61.42336865000016,37.570534400001634 L -61.456868649999706,37.910234399998444 L -61.579168650000156,38.00143440000102 L -61.624568649999674,38.226334400009364 L -61.60126864999984,38.247134400000505 L -61.58806864999997,38.263634400005685 L -61.574768649999896,38.28003439999884 L -61.56576864999988,38.291334400004416 L -61.55666865000012,38.308034400004544 L -60.52796864999982,38.325634400003764 L -60.46326864999946,38.326734399997804 L -60.3908686499999,38.32793440000387 L -58.74636864999957,38.364234400003625 L -58.7666686499997,38.31963440000254 L -58.86586864999981,38.10153440000431 L -59.27046865000011,36.3304344000062 L -59.378568650000034,36.26923440000246 L -59.56876865000004,36.16153440000198 L -60.33626864999951,36.16743440000573 L -61.331468649999806,36.175034400002914 L -61.40746864999983,36.17563440000231 L -61.91536864999989,36.1794344000009 L -61.93986864999988,36.179634400003124 z" /><text font-size="3" x="-60.28636328254189" y="37.27780629078056" fill="rgba(3,3,113,0.5)" stroke="none">Parque de Berlín</text><path fill-rule="evenodd" fill="#66cc99" stroke="#555555" stroke-width="2.0" opacity="0.6" d="M -67.27306864999991,28.060734400009096 L -67.63346864999949,28.105334400002903 L -67.75806865000004,27.642734400003974 L -67.7634686499996,27.622734400007175 L -67.77826864999997,27.568134400004055 L -67.82816864999995,27.581634400004987 L -68.11376864999966,27.659134400004405 L -68.12416864999977,27.623934400005965 L -68.23906864999981,27.836034400002973 L -69.10456865000015,27.78923439999926 L -69.12376864999942,28.036634399999457 L -69.30996864999997,28.09483440000622 L -69.28976864999959,27.837134400004288 L -69.4860686500001,27.81633440000587 L -69.5787686499998,28.37913440000557 L -69.32986864999975,28.411734400004207 L -68.96696865000013,28.625134399997478 L -68.98886864999986,28.35943440000119 L -68.88506865,28.391234400005487 L -68.82376864999969,28.40853440000501 L -68.7313686499997,28.42403440000635 L -68.71366864999982,28.42543440000736 L -68.70166864999965,28.427134400000796 L -68.68166864999966,28.431334400003834 L -68.66706864999969,28.43583440000657 L -68.64116865000005,28.446934400002647 L -68.63016864999963,28.452834400006395 L -68.61996864999992,28.459334400002263 L -68.61026864999985,28.466334400007327 L -68.60066864999999,28.474234400004207 L -68.59336864999977,28.48143440000422 L -68.58476864999966,28.49153440000373 L -68.5774686499999,28.501434400008293 L -68.57126864999964,28.5118344000075 L -68.56676865000009,28.520534399998724 L -68.56326864999983,28.530434400003287 L -68.56116864999967,28.5373344000036 L -68.55916864999972,28.545434400002705 L -68.55766864999987,28.557134400005452 L -67.93766864999952,28.63243440000224 L -67.87416864999977,28.458334400005697 L -67.42956864999996,28.497634400002426 L -67.36116864999985,28.26713440000458 L -67.28356864999978,28.08533439999883 L -67.27306864999991,28.060734400009096 z" /><text font-size="3" x="-68.42041521440662" y="28.155918802805278" fill="rgba(3,3,113,0.5)" stroke="none">Olivar de Castillejo</text><path fill-rule="evenodd" fill="#66cc99" stroke="#555555" stroke-width="2.0" opacity="0.6" d="M -73.09986864999973,121.88573439999891 L -72.76416864999965,121.79263440000068 L -72.83906864999972,121.6021344000037 L -72.64066864999995,121.55963440000778 L -72.66456864999964,121.50353440000617 L -72.73296864999975,121.33083440000337 L -72.75716864999958,121.28593440000259 L -72.76416864999965,121.26143440000305 L -72.77956864999987,121.20843440000317 L -72.78396864999968,121.19323440000153 L -72.81076864999977,121.10093440000492 L -72.83356864999996,121.00743440000224 L -72.85756864999985,120.93913440000324 L -72.87836864999963,120.8805343999993 L -72.90526864999993,120.80353440000181 L -72.9181686500001,120.76933439999993 L -72.9851686500001,120.59213440000167 L -72.99216865000017,120.57133440000325 L -73.02996864999977,120.57903439999791 L -73.24546865000002,120.62303440000687 L -73.2961686499998,120.48073440000007 L -73.33796864999977,120.36313440000231 L -73.58456865000016,120.41123440000229 L -73.5756686499999,120.44053440000425 L -73.7614686500001,120.47603440000239 L -73.80986864999977,120.48523440000281 L -74.15886864999993,120.55193440000585 L -74.20836865000001,120.56143439999869 L -74.80646865000017,120.67683440000837 L -74.80346865000001,120.98823439999978 L -74.72556865000024,121.19363440000598 L -74.69896864999964,121.26373440000316 L -74.71316864999972,121.28643440000451 L -74.66486864999979,121.4100344000035 L -74.65676864999978,121.41923440000392 L -74.64016864999985,121.4184344000023 L -74.61976864999997,121.4722344000038 L -74.63336864999974,121.48153440000169 L -74.6346686500001,121.49693440000556 L -74.60116864999964,121.57203440000012 L -74.59036864999962,121.5766344000076 L -74.5801686499999,121.5767343999978 L -74.49326864999966,121.80573440000444 L -74.45216864999975,121.91883440000674 L -74.43616864999967,121.96263440000621 L -74.36206864999986,122.16663440000411 L -74.16156864999994,122.12203440000303 L -74.09716865000019,122.10763440000301 L -73.93956864999973,122.07263440000679 L -73.61346864999996,122.0000344 L -73.09986864999973,121.88573439999891 z" /><text font-size="3" x="-73.7603706031846" y="121.2528545473887" fill="rgba(3,3,113,0.5)" stroke="none">Parque La Perla</text><path fill-rule="evenodd" fill="#66cc99" stroke="#555555" stroke-width="2.0" opacity="0.6" d="M -72.11406864999981,4.247834400004649 L -71.29906864999975,4.399534400006814 L -70.91666864999979,4.470734399998037 L -70.3876686499998,4.50793440000416 L -69.6072686499997,4.559434400005557 L -69.30446864999976,4.452034400004777 L -69.16386864999959,4.3339343999978155 L -69.01096865,4.0176344000065 L -68.98016864999954,3.854334399999061 L -68.9546686499998,3.631634400000621 L -68.99926864999998,3.486434400001599 L -69.18546865000008,3.4013344000049983 L -69.62026864999962,3.7891344000017853 L -69.7275686500002,3.7177344000010635 L -69.75036864999993,3.7361344000091776 L -70.07046864999984,4.000534400001925 L -70.34956865000004,3.8823344000047655 L -70.70046864999995,4.086634400002367 L -70.80236865000006,4.125634400006675 L -72.11406864999981,4.247834400004649 z" /><text font-size="3" x="-70.02081682224893" y="4.137994780081528" fill="rgba(3,3,113,0.5)" stroke="none">Parque de Begoña</text><path fill-rule="evenodd" fill="#66cc99" stroke="#555555" stroke-width="2.0" opacity="0.6" d="M -84.81966865000004,41.199434400004975 L -84.85966864999955,41.228234399997746 L -84.87556864999988,41.35323440000502 L -84.82946864999985,41.409134400004405 L -84.8310686499999,41.46413439999742 L -84.37346864999972,41.48693440000352 L -83.90486865000003,41.510234400004265 L -83.80686864999961,41.51513440000417 L -83.55376865000017,41.52773440000601 L -83.44656865000024,41.53303440000309 L -83.43276865000007,41.479634400006034 L -83.38416864999999,41.44533439999941 L -83.36976864999997,41.29733440000564 L -83.41776864999974,41.26683440000488 L -84.81966865000004,41.199434400004975 z" /><text font-size="3" x="-84.12339058116196" y="41.36471994033482" fill="rgba(3,3,113,0.5)" stroke="none">Jardines de Andrés Saborit</text><path fill-rule="evenodd" fill="#66cc99" stroke="#555555" stroke-width="2.0" opacity="0.6" d="M -75.27036864999991,48.27883440000005 L -74.94296864999978,48.07583439999871 L -74.88566864999984,47.96303440000338 L -74.86026864999985,47.83193439999741 L -74.88976864999995,47.72023440000339 L -74.94916865000005,47.559234400003334 L -74.90436864999947,47.54293440000765 L -74.93956864999973,47.440234400004556 L -74.97266864999983,47.44873440000811 L -75.08826864999992,47.12963440000749 L -75.20706864999966,46.82703440000478 L -75.31716864999999,46.70673440000246 L -75.41436864999969,46.65543440000329 L -75.50976864999984,46.61783439999999 L -75.59276864999947,46.59973440000613 L -75.7004686499995,46.58943440000439 L -75.76726864999955,46.6255344000092 L -75.79286864999995,46.70833439999842 L -75.78916864999974,46.831134400003066 L -75.68046864999997,47.14303440000367 L -75.3590686499997,48.03893440000684 L -75.27036864999991,48.27883440000005 z" /><text font-size="3" x="-75.31247384901167" y="47.38472027751084" fill="rgba(3,3,113,0.5)" stroke="none">Jardín de las Bellas Artes</text><path fill-rule="evenodd" fill="#66cc99" stroke="#555555" stroke-width="2.0" opacity="0.6" d="M -34.49256865000007,51.16873440000927 L -35.03986864999979,50.47013440000592 L -36.69266865000009,51.277734399998735 L -38.357468649999646,52.09933440000168 L -38.862468649999755,52.09473440000875 L -39.09156864999977,52.08803440000338 L -39.3283686499999,52.09653440000693 L -39.98816864999981,52.4068344000043 L -40.02976864999982,52.449034400007804 L -40.14996865000012,52.932134399998176 L -40.13306865000004,52.98953440000332 L -40.10356864999994,53.01383440000063 L -40.062368649999826,53.0405344000028 L -39.99586864999992,53.04233440000098 L -39.83266864999996,53.06113439999899 L -39.42846865000001,53.097834400003194 L -37.917268650000096,52.806234399999084 L -37.60366864999969,52.67143439999927 L -34.49256865000007,51.16873440000927 z" /><text font-size="3" x="-37.33992141470889" y="51.96094959815882" fill="rgba(3,3,113,0.5)" stroke="none">Parque Calero</text><path fill-rule="evenodd" fill="#66cc99" stroke="#555555" stroke-width="2.0" opacity="0.6" d="M -60.606568649999645,39.07273439999699 L -60.63966864999975,39.375534400001925 L -60.17826864999961,39.3984344000055 L -60.139568649999546,39.07883440000296 L -60.606568649999645,39.07273439999699 z" /><text font-size="3" x="-60.388892663259334" y="39.231246227104535" fill="rgba(3,3,113,0.5)" stroke="none">Jardines de Próspero Soynard</text><path fill-rule="evenodd" fill="#66cc99" stroke="#555555" stroke-width="2.0" opacity="0.6" d="M -62.230368649999946,45.00233440000011 L -61.75966864999964,45.490434400002414 L -62.180368649999764,45.708634400005394 L -62.328668650000054,45.634834400007094 L -62.230368649999946,45.00233440000011 z" /><text font-size="3" x="-62.103652167006665" y="45.41235730543206" fill="rgba(3,3,113,0.5)" stroke="none">Jardín de Joaquín Masmitjá</text><path fill-rule="evenodd" fill="#66cc99" stroke="#555555" stroke-width="2.0" opacity="0.6" d="M -49.3579686500002,42.20723440000438 L -49.44636864999984,42.539634400003706 L -49.45296865,42.55843440000899 L -49.53366864999998,42.87183440000081 L -49.53856864999989,42.893134400001145 L -49.54336865000005,42.91153440000198 L -49.155068649999976,42.971534399999655 L -49.064868649999426,42.98493440000311 L -48.63236864999999,43.05283440000494 L -48.71046864999971,43.332334400001855 L -48.505868649999684,43.264334400002554 L -48.416768649999995,43.23483440000564 L -48.17676865000021,43.156634400002076 L -48.026668649999465,42.59273440000106 L -47.90406865000023,42.118834400003834 L -48.137368649999644,42.08583440000075 L -48.15876864999973,42.08463440000196 L -48.365368650000164,42.04563440000493 L -48.44346864999943,42.34063440000318 L -48.791368650000095,42.29393440000422 L -48.87166864999972,42.27873440000258 L -49.3579686500002,42.20723440000438 z" /><text font-size="3" x="-48.67732476741089" y="42.64552027207678" fill="rgba(3,3,113,0.5)" stroke="none">Jardín de Luis de Trelles</text><path fill-rule="evenodd" fill="#66cc99" stroke="#555555" stroke-width="2.0" opacity="0.6" d="M -49.357268649999696,60.21373440000025 L -49.67356865000011,60.365534400007164 L -50.223868649999986,60.62973440000496 L -50.161168650000036,60.71183440000459 L -50.12876864999953,60.72183440000663 L -49.89756864999981,60.77423440000712 L -49.69676864999974,60.82373440000083 L -49.626568649999626,60.82413440000528 L -49.39836864999961,60.82543440000154 L -49.21696864999967,60.82643440000538 L -49.192568649999885,60.410734400000365 L -49.220068649999575,60.377834400009306 L -49.258268649999536,60.33213440000691 L -49.357268649999696,60.21373440000025 z" /><text font-size="3" x="-49.5976089362912" y="60.58008745403997" fill="rgba(3,3,113,0.5)" stroke="none">Parque de Isabel II</text><path fill-rule="evenodd" fill="#66cc99" stroke="#555555" stroke-width="2.0" opacity="0.6" d="M -99.1430686499998,38.54473440000584 L -99.07766864999985,38.537034400003904 L -99.03256865000003,38.53173439999955 L -98.9815686500001,38.525734400005604 L -97.78066864999982,38.384734400002344 L -97.7679686499996,38.38443440000992 L -97.75536865000004,38.38823440000124 L -97.74776864999967,38.39353440000559 L -97.74236864999966,38.40013440000621 L -97.63086864999968,38.66023440000572 L -97.43956864999973,39.102934400005324 L -97.43896864999988,39.1114344000016 L -97.44406864999974,39.11943440000323 L -97.45306864999975,39.12413440000091 L -98.25046865000013,39.31243440000253 L -99.28756865000014,39.55693440000323 L -99.29896865,39.55943440000556 L -99.31126864999987,39.55963440000778 L -99.32896864999975,39.5576344000001 L -99.05606864999982,39.104134400004114 L -99.1430686499998,38.54473440000584 z" /><text font-size="3" x="-98.39048597890974" y="38.92212295932468" fill="rgba(3,3,113,0.5)" stroke="none">Parque Almansa</text><path fill-rule="evenodd" fill="#66cc99" stroke="#555555" stroke-width="2.0" opacity="0.6" d="M -49.768968649999806,71.50803440000163 L -49.756768649999685,71.43883440000354 L -49.736168649999854,71.3898343999972 L -49.713368649999666,71.36113440000918 L -49.66386865000004,71.32323440000619 L -49.59416865000003,71.29643440000655 L -49.52986864999957,71.29033440000057 L -49.468768649999674,71.2934344000023 L -49.42166864999945,71.30853439999919 L -49.37056864999977,71.32293439999921 L -49.32286864999969,71.32373440000083 L -49.28496864999988,71.31003440000495 L -49.249168649999774,71.2812344000049 L -49.24056864999966,71.24393440000131 L -49.25646864999999,71.1999344000069 L -49.296368650000204,71.16963440000836 L -49.347368650000135,71.16403440000431 L -49.71376865000002,71.19423440000537 L -49.8894686499998,71.1565344000046 L -49.98846864999996,71.07063439999911 L -50.04306864999944,71.00223440000264 L -50.062568649999776,70.94653440000548 L -50.06466864999993,70.90043439999863 L -50.05736864999972,70.87093440000172 L -50.045168649999596,70.84053440000571 L -50.04506864999985,70.8238343999983 L -50.054368650000015,70.81013440000243 L -50.06526864999978,70.79693440000847 L -50.08976864999977,70.78333440000279 L -50.12766864999958,70.77303440000105 L -50.153568650000125,70.77383440000995 L -50.17966864999971,70.78493439999875 L -50.20716864999986,70.80073439999978 L -50.25406864999968,70.84103440000035 L -50.27176864999956,70.86803440000949 L -50.69226864999973,70.67203440000594 L -50.75236864999988,70.73733440000797 L -50.86396865000006,70.67203440000594 L -51.27596864999987,70.86803440000949 L -51.53346865000003,70.67203440000594 L -52.23386864999975,70.96313440000085 L -52.319468649999635,70.96723440000642 L -52.39896864999946,70.9575343999968 L -52.54136864999964,70.84973440000613 L -52.687368649999826,70.78493439999875 L -53.551268649999656,71.16643440000189 L -53.66206864999958,71.20783440000378 L -53.59916864999968,71.22813440000027 L -53.45526864999965,71.20013440000184 L -53.07066864999979,71.18283440000232 L -52.73886864999986,71.18693440000061 L -52.6364686500001,71.15023440000368 L -52.355068649999794,71.12913439999829 L -51.93426864999992,71.09713440000633 L -51.35336864999954,71.07813440000609 L -51.343568649999725,71.20573439999862 L -50.93266864999987,71.20133440000063 L -50.84676864999983,71.14253440000175 L -50.62366864999967,71.17513440000766 L -50.537768649999634,71.27323440000328 L -50.57216864999964,71.41043440000794 L -50.78666865000014,71.43653440000344 L -50.77816864999977,71.78943440000148 L -50.62476864999962,71.80503440000757 L -50.56966865000004,71.71843440000521 L -50.49636865000002,71.6533344000054 L -50.42716865000011,71.61853440000414 L -50.21456864999982,71.55253440000524 L -49.89066864999995,71.55363440000656 L -49.842368650000026,71.55553440000222 L -49.793268649999845,71.53433440000663 L -49.768968649999806,71.50803440000163 z" /><text font-size="3" x="-51.10798424850308" y="71.10812781310933" fill="rgba(3,3,113,0.5)" stroke="none">Jardines de John Lennon</text><path fill-rule="evenodd" fill="#66cc99" stroke="#555555" stroke-width="2.0" opacity="0.6" d="M -58.183368649999466,71.66483439999865 L -58.20756865000021,72.21753439999884 L -57.55326864999961,72.238434400002 L -57.50646864999999,71.57633440000791 L -58.183368649999466,71.66483439999865 z" /><text font-size="3" x="-57.85268157159052" y="71.92254482931357" fill="rgba(3,3,113,0.5)" stroke="none">Jardines Doce de Octubre</text><path fill-rule="evenodd" fill="#66cc99" stroke="#555555" stroke-width="2.0" opacity="0.6" d="M -109.79896865,41.443634400005976 L -111.85396864999984,41.661934399999154 L -112.13466864999964,40.114234400003625 L -112.08426865000001,40.08133440000529 L -112.02996864999977,40.03493440000602 L -112.1100686499999,39.97583440000017 L -111.90226864999977,39.81703440000274 L -111.89896864999992,39.81453440000041 L -111.85396864999984,39.77973440000642 L -111.83756864999987,39.745934400001715 L -111.83576864999986,39.7422344000006 L -111.72756864999974,39.51883440000529 L -111.63556864999964,39.53783440000552 L -111.62206864999962,39.5003343999997 L -111.61286864999965,39.474534400003904 L -109.85766865000005,39.28323439999804 L -109.78526864999958,39.29003440000088 L -109.72936864999974,39.305034400000295 L -109.6733686499997,39.33763440000621 L -109.62406864999957,39.38263440000446 L -109.59136864999982,39.43763439999748 L -109.35126864999984,40.75133440000354 L -109.3625686499995,40.76713440000458 L -109.42316864999975,40.87123440000869 L -109.43246864999992,40.88723440000467 L -109.59236864999957,41.166634400004114 L -109.7304686499997,41.40773440000339 L -109.75676864999969,41.43193440000323 L -109.79896865,41.443634400005976 z" /><text font-size="3" x="-110.74025951182337" y="40.46514166417465" fill="rgba(3,3,113,0.5)" stroke="none">Real Jardín Botánico Alfonso XIII</text><path fill-rule="evenodd" fill="#66cc99" stroke="#555555" stroke-width="2.0" opacity="0.6" d="M -110.22506864999968,37.11583440000686 L -110.15936865000003,37.47273440000572 L -110.15526864999993,37.494934399997874 L -110.14756864999981,37.536934399999154 L -110.10056864999979,37.80613440000889 L -110.09106864999967,37.86033440000028 L -110.09006864999947,37.86633440000878 L -110.08216864999986,37.91153440000198 L -110.07176864999974,37.97133440000471 L -110.06566865000013,38.00843440000608 L -110.07436865,38.02433440000459 L -110.09116864999987,38.03143439999985 L -110.13536864999969,38.03653440000926 L -110.15146864999997,38.02633439999772 L -110.15886864999993,38.013034399999015 L -110.16216864999978,37.992134400003124 L -110.4237686499996,38.02123440000287 L -110.4190686500001,38.05843440000899 L -110.43646864999982,38.0743344000075 L -110.46796864999988,38.07923440000013 L -110.49476864999997,38.076834400002554 L -110.5155686500002,38.068634400005976 L -110.52206864999971,38.05573440000444 L -110.52696865000007,38.03023440000106 L -110.97786864999989,38.080334400008724 L -110.97226864999993,38.10943440000847 L -110.9836686499998,38.12323440000182 L -111.00046865000013,38.12953440000274 L -111.00436864999983,38.10723439999856 L -111.68816865000008,38.176234400001704 L -111.70576864999975,38.17823440000939 L -111.70126864999975,38.20043440000154 L -111.75256864999983,38.20643440000276 L -111.81036864999987,38.21473440000409 L -111.83356864999996,38.090234399998735 L -111.91146864999973,37.671734400006244 L -111.99946864999993,37.19963439999992 L -111.93796864999968,37.19163439999829 L -111.87296865000008,37.18413440000586 L -111.17396865,37.104034399999364 L -111.07226864999984,37.092434400001366 L -111.06646864999993,37.1253343999997 L -111.00536865000004,37.11903440000606 L -110.7059686499997,37.08823439999833 L -110.64506864999976,37.08253440000408 L -110.62456864999967,37.08053440000367 L -110.61306865000006,37.080234400003974 L -110.59426865000023,37.07813440000609 L -110.31026864999967,37.04703440000594 L -110.32346865,36.984734400008165 L -110.27756864999947,36.98013440000068 L -110.25886864999984,36.988034400004835 L -110.24466864999977,37.00253440000233 L -110.22916864999979,37.092434400001366 L -110.22506864999968,37.11583440000686 z" /><text font-size="3" x="-111.03771618244255" y="37.60391413129237" fill="rgba(3,3,113,0.5)" stroke="none">Parque de las Ciencias</text><path fill-rule="evenodd" fill="#66cc99" stroke="#555555" stroke-width="2.0" opacity="0.6" d="M -116.53206864999993,37.776134400002775 L -116.06016864999992,37.72653440000431 L -116.08266864999996,37.598834400007036 L -114.36236865000001,37.423234399997455 L -114.18146864999972,38.449934400006896 L -115.92356864999965,38.62763440000708 L -115.94816864999984,38.487934400000086 L -116.39826864999986,38.53523440000572 L -116.53206864999993,37.776134400002775 z" /><text font-size="3" x="-115.3180125439188" y="38.043058504390494" fill="rgba(3,3,113,0.5)" stroke="none">Plaza de Menéndez Pelayo</text><path fill-rule="evenodd" fill="#66cc99" stroke="#555555" stroke-width="2.0" opacity="0.6" d="M -111.61286864999965,43.41773439999815 L -111.66426864999994,43.15033440000116 L -111.5452686499998,43.13613440000336 L -111.49846864999972,43.1197344000102 L -111.45826864999981,43.09263440000359 L -111.4181686500001,43.05693440000323 L -111.38396865000004,43.00203440000041 L -111.34156865000023,42.933034400004544 L -111.32256865,42.93883440000354 L -111.27406865000012,42.95363440000801 L -111.20996865000006,42.973234400000365 L -111.19356864999963,42.98733440000069 L -111.19156865000014,42.99953440000536 L -111.18766864999952,43.02303440000833 L -111.18026864999956,43.03943440000876 L -111.16086864999988,43.05013440000039 L -111.13266865000014,43.0541344000012 L -111.10436864999974,43.048434400006954 L -111.08576864999986,43.03143440000713 L -111.08356864999996,43.0150344000067 L -111.08536864999951,42.99243440000282 L -111.08576864999986,42.98623440000665 L -111.0805686499998,42.96413439999742 L -111.06126864999987,42.94663440000295 L -111.03306865000013,42.9381343999994 L -111.00696864999964,42.941534400008095 L -110.98466864999955,42.94833440000366 L -110.96906864999983,42.95853440000792 L -110.95796865000011,42.97603440000239 L -110.90516864999972,43.25213440000516 L -110.89766865000001,43.26633440000296 L -110.87916864999943,43.282134400004 L -110.84266864999972,43.2934344000023 L -110.77116864999971,43.28593440000259 L -110.25316865000013,43.23183440000139 L -110.22336864999988,43.235134400005336 L -110.21196865000002,43.238034400004835 L -110.18026865000002,43.255634400004055 L -110.15956864999998,43.27503440000146 L -110.14906864999966,43.29063440000027 L -110.11536865000016,43.47233440000855 L -110.05236865000006,43.812934399997175 L -109.98966864999966,44.152334400001564 L -109.96076864999986,44.321434400000726 L -109.96456864999982,44.35083440000744 L -109.97516864999989,44.37113440000394 L -109.99036864999971,44.38323440000386 L -110.00096864999978,44.39123439999821 L -110.02226865000011,44.404034400002274 L -110.0485686500001,44.41053440000542 L -110.58046865000006,44.46603440000035 L -110.62696864999998,44.469934400003694 L -110.64976864999971,44.4861344000019 L -110.6672686500001,44.50753439999971 L -110.6672686500001,44.53353440000501 L -110.62016864999987,44.790834400002495 L -110.63156864999974,44.816834400000516 L -110.65666865000003,44.833634400005394 L -110.68476865000002,44.838834400005 L -110.71666864999997,44.832434400006605 L -110.73786865000011,44.8186343999987 L -110.75006864999978,44.8041344000012 L -110.75466864999999,44.78043440000329 L -110.77356864999956,44.766034400003264 L -110.79106864999994,44.7590343999982 L -110.7988686499998,44.75983439999982 L -111.01366864999954,44.781634400002076 L -111.00686864999989,44.81823440000153 L -110.99176864999981,44.89973440000176 L -111.0193686499997,44.9213344000018 L -111.1447686499996,44.84913439999946 L -111.2362686499996,44.78853440000239 L -111.33746864999966,44.798734399999375 L -111.36466865000011,44.800134400007664 L -111.41256864999968,44.49783440000465 L -111.43676864999952,44.45143439999811 L -111.46186864999981,44.40353440000035 L -111.46816864999982,44.354034399999364 L -111.3556686500001,44.16653440000664 L -111.39206865000006,43.99613440000394 L -111.53786864999984,43.88753440000437 L -111.61286864999965,43.41773439999815 z" /><text font-size="3" x="-110.84801207946724" y="43.890281258117525" fill="rgba(3,3,113,0.5)" stroke="none">Plaza de Ramón y Cajal</text><path fill-rule="evenodd" fill="#66cc99" stroke="#555555" stroke-width="2.0" opacity="0.6" d="M -97.74506864999967,70.60743440000078 L -97.8314686499998,71.48223439999856 L -97.89496864999956,72.04723440000089 L -97.85256864999974,72.07553440000629 L -97.69266864999963,72.07383440000558 L -97.69076864999988,72.17523440000514 L -97.41576865000025,72.15033440000843 L -97.47376864999978,71.67793440000969 L -97.24466864999977,71.63983440000447 L -97.35966865,71.34543439999834 L -97.61036865000005,71.08213440000691 L -97.45156864999944,70.61773440000252 L -97.74506864999967,70.60743440000078 z" /><text font-size="3" x="-97.6222982656419" y="71.47248664377611" fill="rgba(3,3,113,0.5)" stroke="none">Jardín de Larra</text><path fill-rule="evenodd" fill="#66cc99" stroke="#555555" stroke-width="2.0" opacity="0.6" d="M -14.777668650000123,45.13583440000366 L -14.31676864999963,45.24693440000556 L -14.210568649999914,45.223234400000365 L -14.174068649999754,45.227834400000575 L -14.16506864999974,45.258534400003555 L -13.722968649999984,45.272034400004486 L -13.355468649999693,45.29853440000443 L -12.5465686499997,45.26593440000579 L -11.887768649999998,46.75823440000386 L -11.713668649999818,46.710734400003275 L -11.051268649999656,46.52983440000389 L -10.888968649999697,46.48553440000251 L -10.272768649999762,46.31723440000496 L -9.6403686499998,46.14453440000216 L -9.964268649999667,45.45013440000184 L -10.41466864999984,44.48453440000594 L -10.729868649999844,43.30423440000595 L -11.149268649999613,41.804634400003124 L -12.44176864999963,42.03073440001026 L -12.507468649999737,42.042134400006034 L -13.248968649999824,42.077734400001646 L -13.370268649999616,41.08253440000408 L -13.178168649999861,40.87463440000283 L -13.238568650000161,40.80313440000464 L -13.412968649999584,40.252834400009306 L -13.507768649999889,39.93783440000698 L -13.59696864999978,39.933434400001715 L -14.036968649999835,39.912034400003904 L -14.15816864999988,39.90763439999864 L -14.509968649999792,39.877234400002635 L -15.00696865000009,39.855534400005126 L -15.405468649999875,39.83653440000489 L -15.294668649999949,40.28543440000067 L -15.139268649999849,40.258534400003555 L -14.975568649999786,40.79433440000139 L -14.8582686499999,40.7989344000016 L -14.898168650000116,41.396034400000644 L -14.949768649999896,41.430634400006966 L -14.949368649999542,41.493034400002216 L -15.128468649999832,41.64213440000458 L -16.016668650000156,41.79673439999897 L -15.921068649999597,42.08083440000337 L -16.52126864999991,42.20373440000549 L -16.364168649999556,42.69753440000204 L -15.85406864999959,42.66983440000331 L -15.251768650000031,43.33393440000509 L -15.22906864999959,43.61573440000211 L -15.192668649999632,43.71733440000389 L -15.202368650000153,43.975434400002996 L -15.141068649999852,44.043034400005126 L -15.067468650000137,44.20363440000801 L -15.001368649999677,44.37623440000607 L -14.809468649999872,45.07273439999699 L -14.777668650000123,45.13583440000366 z" /><text font-size="3" x="-12.99626353188236" y="43.436009351209165" fill="rgba(3,3,113,0.5)" stroke="none">Parque Quinta de los Molinos</text><path fill-rule="evenodd" fill="#66cc99" stroke="#555555" stroke-width="2.0" opacity="0.6" d="M 138.3650313500002,40.627734400004556 L 137.33703135000042,40.91893440000422 L 137.30083134999995,40.885634400001436 L 137.20493135000015,40.90703440000652 L 137.19473134999998,40.95593440000084 L 136.81313135000028,41.034634400006325 L 136.81143135000048,44.80503440000757 L 137.22353135000003,44.80453440000565 L 137.36983135000037,44.709634400009236 L 137.44303135000018,44.62103439999919 L 137.57103135000034,44.55773439999757 L 137.76393135000035,44.51723440000205 L 138.22283134999998,44.55653439999878 L 138.4529313500002,44.45633440000529 L 138.53143134999982,44.45633440000529 L 138.53133135000007,44.42993440000282 L 138.53113135000012,44.41163440000673 L 138.52423135000026,43.785834400005115 L 138.5240313500003,43.77193440000701 L 138.52343135,43.73233440000331 L 138.51173135000045,42.95723440000438 L 138.5113313500001,42.932334400007676 L 138.50043134999987,42.194334400002845 L 138.49353135000047,41.485134400005336 L 138.49173135,40.79183439999906 L 138.41933135,40.69853440000588 L 138.3650313500002,40.627734400004556 z" /><text font-size="3" x="137.66052996579498" y="42.73485744922665" fill="rgba(3,3,113,0.5)" stroke="none">Parque Los Fresnos</text><path fill-rule="evenodd" fill="#66cc99" stroke="#555555" stroke-width="2.0" opacity="0.6" d="M -81.81116865000013,132.42063440000493 L -82.00766864999969,132.85463440000603 L -82.12116864999962,132.82393440001033 L -82.1388686499995,132.8400344000038 L -82.15026864999982,132.84463439999672 L -82.18106864999982,132.8487344000023 L -82.27966864999962,132.82413440000528 L -82.31916864999994,132.9054344000033 L -82.20856864999996,132.93453440000303 L -82.19246864999968,132.94753440000204 L -82.18806864999988,132.96113440000772 L -82.18976864999968,132.9742344000042 L -82.07356864999974,133.00673440000537 L -82.27366864999976,133.44773440000426 L -82.1126686499997,133.49003440000524 L -82.18256864999967,133.64483440000186 L -82.34616864999953,133.60193440000148 L -82.56166864999977,134.07943440000963 L -82.39646864999986,134.1227343999999 L -82.45676864999996,134.25613440000598 L -82.61556864999966,134.21453440000187 L -82.83066865,134.69103440000617 L -82.66236865000019,134.73633440000413 L -82.68166865000012,134.7795344000042 L -82.72356864999983,134.87323440000182 L -82.6363686499999,134.91123440000956 L -81.62956864999978,134.88443440000265 L -81.65186864999987,134.51023440000426 L -81.3934686499997,134.50663440000062 L -81.4198686499999,134.04903440000635 L -81.04146864999984,134.0220344000045 L -81.02456864999976,134.22203440000158 L -80.78066864999982,134.1739344000016 L -80.75386864999973,134.41193440000643 L -80.42486865000001,134.4274344000005 L -80.08486864999986,134.4039344000048 L -80.08356864999996,134.38063440000406 L -80.10096864999969,134.37733440000738 L -80.1385686499998,134.36483440000302 L -80.16736864999984,134.34363440000016 L -80.18076864999966,134.32673440000508 L -80.18976864999968,134.31463440000516 L -80.19956864999995,134.29073440000502 L -80.2024686499999,134.2485344000088 L -80.21656864999977,134.2492343999984 L -80.24686864999967,133.943334399999 L -80.41396864999979,133.95183440000255 L -80.43656865000003,133.6667344000016 L -80.27916864999997,133.657134400004 L -80.37416864999977,132.7766344000047 L -80.57626864999975,132.7864344000045 L -80.57796865,132.76983440000186 L -80.58576864999986,132.69173440000304 L -81.1394686499998,132.726834400004 L -81.62946864999958,132.55053440000484 L -81.59906864999994,132.4751344000033 L -81.81116865000013,132.42063440000493 z" /><text font-size="3" x="-81.4653708374641" y="133.70951337170118" fill="rgba(3,3,113,0.5)" stroke="none">Parque de la Ciudad de los Ángeles</text><path fill-rule="evenodd" fill="#66cc99" stroke="#555555" stroke-width="2.0" opacity="0.6" d="M -69.40786864999973,88.93513440000243 L -68.94326864999948,88.63203440000507 L -69.3903686499998,88.2300344000032 L -69.84996864999994,88.53313440000056 L -69.40786864999973,88.93513440000243 z" /><text font-size="3" x="-69.3974542332404" y="88.58267505198343" fill="rgba(3,3,113,0.5)" stroke="none">Plaza del Amanecer en Méndez Álvaro</text><path fill-rule="evenodd" fill="#66cc99" stroke="#555555" stroke-width="2.0" opacity="0.6" d="M -66.64776864999976,92.19243439999991 L -66.36236865000001,92.00463440000749 L -66.12566865000008,91.85143440000684 L -66.14766865000001,91.83043439999892 L -66.01256865000005,91.74323440000444 L -65.3915686499995,92.30083440000453 L -65.24536864999982,92.43273440000485 L -65.74956865000013,92.40253440000379 L -66.19776864999949,92.32053440000163 L -66.64776864999976,92.19243439999991 z" /><text font-size="3" x="-65.96084878350146" y="92.14921243058264" fill="rgba(3,3,113,0.5)" stroke="none">Parque Oriana</text><path fill-rule="evenodd" fill="#66cc99" stroke="#555555" stroke-width="2.0" opacity="0.6" d="M -68.49476864999951,94.01553440000862 L -68.44076864999943,93.9890344000014 L -68.17706864999991,93.88983440000447 L -68.19676864999974,93.85473440000351 L -67.8280686500002,93.66713440000603 L -67.8229686499999,93.66423439999926 L -67.80266864999976,93.65273439999874 L -67.86856864999982,93.5920344000042 L -68.29546864999975,93.83713440000429 L -68.50736864999999,93.6001344000033 L -68.4241686499995,93.47553440000775 L -68.06436864999978,93.41633440000442 L -68.09576864999963,93.38903440000286 L -68.22286864999978,93.39593440000317 L -68.31296864999968,93.3819344000076 L -68.33766865000007,93.37813440000173 L -68.69966865000015,93.52123440001014 L -69.00676864999969,93.58893440000247 L -69.22426864999989,93.59623439999996 L -69.35836864999965,93.54523440000048 L -70.15496864999977,92.86603440000181 L -70.18406864999997,92.84123440000258 L -70.22446864999984,92.76573440000357 L -70.4497686499999,92.3449344000037 L -70.49966864999988,92.29533440000523 L -70.57586864999985,92.27183440000226 L -70.64706864999971,92.24993440000253 L -70.62926865000009,92.06443440001021 L -70.71376865000002,91.90183440000692 L -70.87406865000003,91.64413440000499 L -71.27176864999956,91.68303440000454 L -70.81956864999984,94.58973440000409 L -70.82296864999944,94.78983440000593 L -70.71706864999987,95.25513440000213 L -70.66686864999974,95.95263440000417 L -70.70636865000006,96.47973440000351 L -70.77836864999972,97.00463440000749 L -70.8221686500001,97.17263440000534 L -70.86856865000027,97.52383440000267 L -70.36336864999976,97.10853440000938 L -69.8246686499997,96.60253440000815 L -69.77956864999987,96.62633440000354 L -69.65196864999962,96.69213440000021 L -69.66576864999979,96.78173439999955 L -70.08406864999961,97.1594344000041 L -70.90186864999987,97.89723439999943 L -70.86816864999992,98.1001344000033 L -70.87316864999957,98.50553440000658 L -70.75806864999959,98.97343440000259 L -70.55036865000011,99.68233440000768 L -69.76336864999985,101.71333440000308 L -69.74636865000002,101.79823440000473 L -69.25716864999958,103.49063440000464 L -69.20356864999985,103.71393440000247 L -69.0214686499994,103.71543440000096 L -68.68886865000013,103.61493440000777 L -68.28406864999988,103.4155344000028 L -67.90276864999987,103.19893440000305 L -67.57526865,102.9467344000077 L -67.35246864999999,102.67953440000565 L -66.43276864999962,101.24413440000353 L -65.71636864999982,100.1849344000002 L -64.64796864999971,98.56123440000374 L -64.05476864999991,97.67013440000301 L -63.437768649999725,96.82233439999982 L -61.96626864999962,95.34863440000481 L -61.904568649999874,95.24953440000536 L -61.90916865000008,95.20823440000095 L -61.96976864999988,95.21313440000085 L -62.08926865000012,95.28563440000289 L -62.47606864999989,95.63343440000608 L -63.12666864999983,96.10683440000139 L -63.837968649999766,96.3663344000015 L -63.71586864999972,96.76153440000053 L -64.48906864999981,96.93413439999858 L -65.12526864999973,97.07623440000316 L -65.23956864999991,96.78523439999844 L -65.28066864999982,96.75143440000102 L -65.64736864999986,96.56793440000183 L -65.63576864999959,96.30683440000576 L -65.73346864999985,96.1400344000067 L -65.8854686499999,95.93473440000525 L -66.3599686499997,96.09213440000167 L -66.85906865000015,96.06493440000486 L -67.08626864999997,95.7841344000044 L -66.81266864999998,95.46923440000683 L -66.46486864999997,95.24543440000707 L -67.30116864999991,94.09593440000026 L -68.24926864999998,94.70383440000296 L -68.83316865000006,94.99003440000524 L -68.97666864999974,95.05573440000444 L -69.03596865000009,95.08293440000125 L -69.19666864999999,95.00743440000224 L -68.83116864999965,94.67943440000818 L -68.54896864999955,94.50253440000961 L -67.49016864999976,93.92223440000089 L -67.52266865000001,93.8579344000027 L -67.55226864999986,93.87143440000364 L -67.59386864999942,93.89043440000387 L -68.28226864999988,94.21543440000823 L -68.31256864999978,94.17933440000343 L -68.3631686499998,94.20043440000882 L -68.41316864999999,94.20693440000468 L -68.46316864999972,94.20043440000882 L -68.50856864999969,94.1773344000103 L -68.54076864999979,94.14123440000549 L -68.5493686499999,94.10123440000461 L -68.53686865000009,94.05013440000766 L -68.49476864999951,94.01553440000862 z" /><text font-size="3" x="-68.1039460160021" y="98.00523251727901" fill="rgba(3,3,113,0.5)" stroke="none">Parque de Enrique Tierno Galván</text></svg>