<svg width="400" height="400" fill="black" stroke="black"> <polygon points="50.0,37.0 48.75437728698846,37.059813600383116 47.52021690923603,37.23870399125696 46.308875724534005,37.535025006721206 45.13150060635156,37.94604987342138 43.99892586927636,38.46799630256912 42.9215735706511,39.09606129491297 41.909357605839126,39.824465338381145 40.97159247964361,40.64650559168541 40.11690759337402,41.55461756448579 39.353167836298184,42.540444726529294 38.687401212204776,43.59491540521329 38.125734167063314,44.70832626395462 37.6733352129025,45.870431593189124 37.33436736668508,47.07053759233743 37.11194984184127,48.297600775145625 37.00812934497864,49.54032959286582 37.02386124189887,50.787288340130665 37.1590007662334,52.02700238737046 37.412304351596916,53.24806377141428 37.7814410750001,54.43923617262084 38.26301410621829,55.58955831252963 38.85259196573693,56.68844482055785 98.85259196573692,156.68844482055783 99.59965738824532,157.79954316342437 100.45704313868968,158.82790883183387 101.41565460541274,159.7626335661249 102.46532343768607,160.59380239108307 103.59491540521329,161.31259878779522 104.79244850307941,161.91139821376652 106.04522004936304,162.38384897929717 107.33994142723931,162.72493962223328 108.66287904231378,162.93105206642198 110.0,163.0 150.0,163.0 151.2742228242843,162.93740144673856 152.53617418620968,162.750208645242 153.77370080430802,162.4402243645187 154.97488462074617,162.01043392264674 156.12815757873798,161.46497643652862 157.22241302925482,160.80910495993308 158.2471126941274,160.04913589371557 159.1923881554251,159.1923881554251 160.04913589371557,158.2471126941274 160.80910495993308,157.22241302925482 161.46497643652862,156.12815757873798 162.01043392264674,154.97488462074617 162.4402243645187,153.77370080430802 162.750208645242,152.53617418620968 162.93740144673856,151.2742228242843 163.0,150.0 163.0,50.0 162.93740144673856,48.72577717571571 162.750208645242,47.463825813790336 162.4402243645187,46.22629919569199 162.01043392264674,45.02511537925383 161.46497643652862,43.87184242126203 160.80910495993308,42.77758697074517 160.04913589371557,41.752887305872605 159.1923881554251,40.80761184457488 158.2471126941274,39.95086410628442 157.22241302925482,39.19089504006691 156.12815757873798,38.535023563471384 154.97488462074617,37.989566077353274 153.77370080430802,37.55977563548129 152.53617418620968,37.249791354758 151.2742228242843,37.06259855326144 150.0,37.0 50.0,37.0 " fill="gray" stroke="none" /> <polygon points="50.0,50.0 110.0,150.0 150.0,150.0 150.0,50.0 50.0,50.0 " fill="peru" stroke="none" /></svg>