<svg width="80mm" height="80mm" fill="none" stroke="black"><circle r="40mm" cx="40mm" cy="40mm" stroke-width="0.1mm" /><circle r="0.5" cx="39.167706326905716mm" cy="41.81859485365136mm" fill="none" stroke="black" stroke-width="0.1mm" /><circle r="0.513" cx="38.28326207236786mm" cy="41.200764709603554mm" fill="none" stroke="black" stroke-width="0.1mm" /><circle r="0.526" cx="37.81685020677991mm" cy="40.173080849209484mm" fill="none" stroke="black" stroke-width="0.1mm" /><circle r="0.539" cx="37.94459408674255mm" cy="39.001735740524424mm" fill="none" stroke="black" stroke-width="0.1mm" /><circle r="0.552" cx="38.68094095233429mm" cy="38.018969149969834mm" fill="none" stroke="black" stroke-width="0.1mm" /><circle r="0.5650000000000001" cx="39.86099182421929mm" cy="37.52890677491396mm" fill="none" stroke="black" stroke-width="0.1mm" /><circle r="0.5780000000000001" cx="41.175461301437mm" cy="37.71456990287954mm" fill="none" stroke="black" stroke-width="0.1mm" /><circle r="0.5910000000000001" cx="42.25152321546764mm" cy="38.574213125951054mm" fill="none" stroke="black" stroke-width="0.1mm" /><circle r="0.6040000000000001" cx="42.75847225015503mm" cy="39.90818036634447mm" fill="none" stroke="black" stroke-width="0.1mm" /><circle r="0.6170000000000001" cx="42.50827875737859mm" cy="41.363657829253114mm" fill="none" stroke="black" stroke-width="0.1mm" /><circle r="0.6300000000000001" cx="41.52072904687333mm" cy="42.52782182243839mm" fill="none" stroke="black" stroke-width="0.1mm" /><circle r="0.6430000000000001" cx="40.03152662236976mm" cy="43.04483678907129mm" fill="none" stroke="black" stroke-width="0.1mm" /><circle r="0.6560000000000001" cx="38.437385007688526mm" cy="42.72357015437521mm" fill="none" stroke="black" stroke-width="0.1mm" /><circle r="0.6690000000000002" cx="37.19047325216954mm" cy="41.60367841328154mm" fill="none" stroke="black" stroke-width="0.1mm" /><circle r="0.6820000000000002" cx="36.67026293289249mm" cy="39.95815428420628mm" fill="none" stroke="black" stroke-width="0.1mm" /><circle r="0.6950000000000002" cx="37.069070203767616mm" cy="38.22791774187618mm" fill="none" stroke="black" stroke-width="0.1mm" /><circle r="0.7080000000000002" cx="38.32555999911829mm" cy="36.903768309146216mm" fill="none" stroke="black" stroke-width="0.1mm" /><circle r="0.7210000000000002" cx="40.128258505581876mm" cy="36.387275992309135mm" fill="none" stroke="black" stroke-width="0.1mm" /><circle r="0.7340000000000002" cx="41.99179762064112mm" cy="36.870009227104916mm" fill="none" stroke="black" stroke-width="0.1mm" /><circle r="0.7470000000000002" cx="43.38752432217655mm" cy="38.267168800297526mm" fill="none" stroke="black" stroke-width="0.1mm" /><circle r="0.7600000000000002" cx="43.89334962559954mm" cy="40.22765915936753mm" fill="none" stroke="black" stroke-width="0.1mm" /><circle r="0.7730000000000002" cx="43.32039408439852mm" cy="42.221487817722924mm" fill="none" stroke="black" stroke-width="0.1mm" /><circle r="0.7860000000000003" cx="41.778681934522915mm" cy="43.682986638015656mm" fill="none" stroke="black" stroke-width="0.1mm" /><circle r="0.7990000000000003" cx="39.660018591446516mm" cy="44.17116741954072mm" fill="none" stroke="black" stroke-width="0.1mm" /><circle r="0.8120000000000003" cx="37.539131442395394mm" cy="43.50178896311486mm" fill="none" stroke="black" stroke-width="0.1mm" /><circle r="0.8250000000000003" cx="36.01780468107718mm" cy="41.81183482744681mm" fill="none" stroke="black" stroke-width="0.1mm" /><circle r="0.8380000000000003" cx="35.55426723617894mm" cy="39.53485465423381mm" fill="none" stroke="black" stroke-width="0.1mm" /><circle r="0.8510000000000003" cx="36.326166810260005mm" cy="37.29035524579975mm" fill="none" stroke="black" stroke-width="0.1mm" /><circle r="0.8640000000000003" cx="38.16785464940287mm" cy="35.71527790699498mm" fill="none" stroke="black" stroke-width="0.1mm" /><circle r="0.8770000000000003" cx="40.603057477813124mm" cy="35.28339670117852mm" fill="none" stroke="black" stroke-width="0.1mm" /><circle r="0.8900000000000003" cx="42.96751077107217mm" cy="36.163806597215064mm" fill="none" stroke="black" stroke-width="0.1mm" /><circle r="0.9030000000000004" cx="44.59013410331422mm" cy="38.16051803118601mm" fill="none" stroke="black" stroke-width="0.1mm" /><circle r="0.9160000000000004" cx="44.98333931998866mm" cy="40.753610789370086mm" fill="none" stroke="black" stroke-width="0.1mm" /><circle r="0.9290000000000004" cx="43.988545401341455mm" cy="43.234150673892294mm" fill="none" stroke="black" stroke-width="0.1mm" /><circle r="0.9420000000000004" cx="41.833726272245926mm" cy="44.897994279138665mm" fill="none" stroke="black" stroke-width="0.1mm" /><circle r="0.9550000000000004" cx="39.0833151826426mm" cy="45.24550416505663mm" fill="none" stroke="black" stroke-width="0.1mm" /><circle r="0.9680000000000004" cx="36.490761508785475mm" cy="44.13057444089541mm" fill="none" stroke="black" stroke-width="0.1mm" /><circle r="0.9810000000000004" cx="34.79213828907479mm" cy="41.8147730987314mm" fill="none" stroke="black" stroke-width="0.1mm" /><circle r="0.9940000000000004" cx="34.49733540078698mm" cy="38.90785426404356mm" fill="none" stroke="black" stroke-width="0.1mm" /><circle r="1.0070000000000003" cx="35.738024478033104mm" cy="36.20756151662878mm" fill="none" stroke="black" stroke-width="0.1mm" /><circle r="1.0200000000000002" cx="38.217469354125214mm" cy="34.48070797144079mm" fill="none" stroke="black" stroke-width="0.1mm" /><circle r="1.0330000000000001" cx="41.27984645221031mm" cy="34.24560880207431mm" fill="none" stroke="black" stroke-width="0.1mm" /><circle r="1.046" cx="44.08340541930129mm" cy="35.617546328639534mm" fill="none" stroke="black" stroke-width="0.1mm" /><circle r="1.059" cx="45.8318377827263mm" cy="38.26307942727195mm" fill="none" stroke="black" stroke-width="0.1mm" /><circle r="1.0719999999999998" cx="46.00025872714722mm" cy="41.47962671214519mm" fill="none" stroke="black" stroke-width="0.1mm" /><circle r="1.0849999999999997" cx="44.49172421581433mm" cy="44.38178486111164mm" fill="none" stroke="black" stroke-width="0.1mm" /><circle r="1.0979999999999996" cx="41.677878090996586mm" cy="46.14504882907806mm" fill="none" stroke="black" stroke-width="0.1mm" /><circle r="1.1109999999999995" cx="38.30868678265843mm" cy="46.23984652061616mm" fill="none" stroke="black" stroke-width="0.1mm" /><circle r="1.1239999999999994" cx="35.31278654383164mm" cy="44.589513047842246mm" fill="none" stroke="black" stroke-width="0.1mm" /><circle r="1.1369999999999993" cx="33.5415272850787mm" cy="41.605352045695mm" fill="none" stroke="black" stroke-width="0.1mm" /><circle r="1.1499999999999992" cx="33.52726114602386mm" cy="38.08528024812308mm" fill="none" stroke="black" stroke-width="0.1mm" /><circle r="1.1629999999999991" cx="35.32444311643244mm" cy="35.000680763491495mm" fill="none" stroke="black" stroke-width="0.1mm" /><circle r="1.175999999999999" cx="38.480695014813904mm" cy="33.228344931850955mm" fill="none" stroke="black" stroke-width="0.1mm" /><circle r="1.188999999999999" cx="42.14964731955435mm" cy="33.30147468456431mm" fill="none" stroke="black" stroke-width="0.1mm" /><circle r="1.2019999999999988" cx="45.317721925358214mm" cy="35.2503964876461mm" fill="none" stroke="black" stroke-width="0.1mm" /><circle r="1.2149999999999987" cx="47.0841399881294mm" cy="38.580286779456536mm" fill="none" stroke="black" stroke-width="0.1mm" /><circle r="1.2279999999999986" cx="46.91680117269422mm" cy="42.39588429132455mm" fill="none" stroke="black" stroke-width="0.1mm" /><circle r="1.2409999999999985" cx="44.811412038043144mm" cy="45.64203325053774mm" fill="none" stroke="black" stroke-width="0.1mm" /><circle r="1.2539999999999984" cx="41.3065668741857mm" cy="47.39547043826696mm" fill="none" stroke="black" stroke-width="0.1mm" /><circle r="1.2669999999999983" cx="37.34679343719917mm" cy="47.127167735861875mm" fill="none" stroke="black" stroke-width="0.1mm" /><circle r="1.2799999999999983" cx="34.02814273547096mm" cy="44.86075311161672mm" fill="none" stroke="black" stroke-width="0.1mm" /><circle r="1.2929999999999982" cx="32.29481136004979mm" cy="41.179869917737626mm" fill="none" stroke="black" stroke-width="0.1mm" /><circle r="1.305999999999998" cx="32.670767283896545mm" cy="37.07862227823948mm" fill="none" stroke="black" stroke-width="0.1mm" /><circle r="1.318999999999998" cx="35.102590844897975mm" cy="33.69320932902298mm" fill="none" stroke="black" stroke-width="0.1mm" /><circle r="1.3319999999999979" cx="38.960359800918454mm" cy="31.987163532402924mm" fill="none" stroke="black" stroke-width="0.1mm" /><circle r="1.3449999999999978" cx="43.2001492255181mm" cy="32.477389420260025mm" fill="none" stroke="black" stroke-width="0.1mm" /><circle r="1.3579999999999977" cx="46.64642315739017mm" cy="35.078825423447405mm" fill="none" stroke="black" stroke-width="0.1mm" /><circle r="1.3709999999999976" cx="48.31795584450998mm" cy="39.11409054143095mm" fill="none" stroke="black" stroke-width="0.1mm" /><circle r="1.3839999999999975" cx="47.70692289754383mm" cy="43.489260588049355mm" fill="none" stroke="black" stroke-width="0.1mm" /><circle r="1.3969999999999974" cx="44.93185597593562mm" cy="46.99033773380286mm" fill="none" stroke="black" stroke-width="0.1mm" /><circle r="1.4099999999999973" cx="40.71872333437132mm" cy="48.62008913925083mm" fill="none" stroke="black" stroke-width="0.1mm" /><circle r="1.4229999999999972" cx="36.21156042326164mm" cy="47.88179868896703mm" fill="none" stroke="black" stroke-width="0.1mm" /><circle r="1.435999999999997" cx="32.66188892284356mm" cy="44.929272341767486mm" fill="none" stroke="black" stroke-width="0.1mm" /><circle r="1.448999999999997" cx="31.08122043775404mm" cy="40.53814135695349mm" fill="none" stroke="black" stroke-width="0.1mm" /><circle r="1.4619999999999969" cx="31.95312523895469mm" cy="35.90259758138744mm" fill="none" stroke="black" stroke-width="0.1mm" /><circle r="1.4749999999999968" cx="35.08674476165583mm" cy="32.31068611884756mm" fill="none" stroke="black" stroke-width="0.1mm" /><circle r="1.4879999999999967" cx="39.65576306733349mm" cy="30.78642843766933mm" fill="none" stroke="black" stroke-width="0.1mm" /><circle r="1.5009999999999966" cx="44.41585401592425mm" cy="31.79820395827562mm" fill="none" stroke="black" stroke-width="0.1mm" /><circle r="1.5139999999999965" cx="48.04351121132714mm" cy="35.11635101658047mm" fill="none" stroke="black" stroke-width="0.1mm" /><circle r="1.5269999999999964" cx="49.50401122294268mm" cy="39.86290268354293mm" fill="none" stroke="black" stroke-width="0.1mm" /><circle r="1.5399999999999963" cx="48.34621590735841mm" cy="44.74348817093049mm" fill="none" stroke="black" stroke-width="0.1mm" /><circle r="1.5529999999999962" cx="44.84031081619152mm" cy="48.40026286509294mm" fill="none" stroke="black" stroke-width="0.1mm" /><circle r="1.565999999999996" cx="39.91682357370416mm" cy="49.789646657674055mm" fill="none" stroke="black" stroke-width="0.1mm" /><circle r="1.578999999999996" cx="34.920012180283585mm" cy="48.479796504134576mm" fill="none" stroke="black" stroke-width="0.1mm" /><circle r="1.5919999999999959" cx="31.240876263511776mm" cy="44.78311105546262mm" fill="none" stroke="black" stroke-width="0.1mm" /><circle r="1.6049999999999958" cx="29.929971595108757mm" cy="39.6835305311982mm" fill="none" stroke="black" stroke-width="0.1mm" /><circle r="1.6179999999999957" cx="31.397790936818385mm" cy="34.574974725098855mm" fill="none" stroke="black" stroke-width="0.1mm" /><circle r="1.6309999999999956" cx="35.288066752152176mm" cy="30.880355814625965mm" fill="none" stroke="black" stroke-width="0.1mm" /><circle r="1.6439999999999955" cx="40.56265328271355mm" cy="29.655290178866693mm" fill="none" stroke="black" stroke-width="0.1mm" /><circle r="1.6569999999999954" cx="45.778262477058455mm" cy="31.286865790875336mm" fill="none" stroke="black" stroke-width="0.1mm" /><circle r="1.6699999999999953" cx="49.48137041081249mm" cy="35.37332569408979mm" fill="none" stroke="black" stroke-width="0.1mm" /><circle r="1.6829999999999952" cx="50.6132474729991mm" cy="40.82158570878425mm" fill="none" stroke="black" stroke-width="0.1mm" /><circle r="1.695999999999995" cx="48.81226226185281mm" cy="46.139351254678715mm" fill="none" stroke="black" stroke-width="0.1mm" /><circle r="1.708999999999995" cx="44.52724463611109mm" cy="49.84384482835866mm" fill="none" stroke="black" stroke-width="0.1mm" /><circle r="1.7219999999999949" cx="38.90688896171149mm" cy="50.87520152723489mm" fill="none" stroke="black" stroke-width="0.1mm" /><circle r="1.7349999999999948" cx="33.49206640750786mm" cy="48.89929353127049mm" fill="none" stroke="black" stroke-width="0.1mm" /><circle r="1.7479999999999947" cx="29.793393549005067mm" cy="44.413568256468785mm" fill="none" stroke="black" stroke-width="0.1mm" /><circle r="1.7609999999999946" cx="28.869863861265017mm" cy="38.62293989483906mm" fill="none" stroke="black" stroke-width="0.1mm" /><circle r="1.7739999999999945" cx="31.026061395191476mm" cy="33.116358092032414mm" fill="none" stroke="black" stroke-width="0.1mm" /><circle r="1.7869999999999944" cx="35.71441709617289mm" cy="29.43080872656639mm" fill="none" stroke="black" stroke-width="0.1mm" /><circle r="1.7999999999999943" cx="41.67325038879835mm" cy="28.62238016383099mm" fill="none" stroke="black" stroke-width="0.1mm" /><circle r="1.8129999999999942" cx="47.26609933579517mm" cy="30.964081372524568mm" fill="none" stroke="black" stroke-width="0.1mm" /><circle r="1.825999999999994" cx="50.93113265951151mm" cy="35.85675986935813mm" fill="none" stroke="black" stroke-width="0.1mm" /><circle r="1.838999999999994" cx="51.6172259049511mm" cy="41.98148612746433mm" fill="none" stroke="black" stroke-width="0.1mm" /><circle r="1.8519999999999939" cx="49.08496557423459mm" cy="47.6549200201552mm" fill="none" stroke="black" stroke-width="0.1mm" /><circle r="1.8649999999999938" cx="43.986505391200794mm" cy="51.29196173239741mm" fill="none" stroke="black" stroke-width="0.1mm" /><circle r="1.8779999999999937" cx="37.698441557772625mm" cy="51.848532767267535mm" fill="none" stroke="black" stroke-width="0.1mm" /><circle r="1.8909999999999936" cx="31.9502905854295mm" cy="49.12082251449811mm" fill="none" stroke="black" stroke-width="0.1mm" /><circle r="1.9039999999999935" cx="28.348792232668828mm" cy="43.815358117199786mm" fill="none" stroke="black" stroke-width="0.1mm" /><circle r="1.9169999999999934" cx="27.928875641118534mm" cy="37.36675452864358mm" fill="none" stroke="black" stroke-width="0.1mm" /><circle r="1.9299999999999933" cx="30.85675613146656mm" cy="31.549935410866595mm" fill="none" stroke="black" stroke-width="0.1mm" /><circle r="1.9429999999999932" cx="36.37020821739445mm" cy="27.991601413388636mm" fill="none" stroke="black" stroke-width="0.1mm" /><circle r="1.955999999999993" cx="42.97631251509012mm" cy="27.715409497564906mm" fill="none" stroke="black" stroke-width="0.1mm" /><circle r="1.968999999999993" cx="48.8555745448936mm" cy="30.84800434441574mm" fill="none" stroke="black" stroke-width="0.1mm" /><circle r="1.9819999999999929" cx="52.363060956546235mm" cy="36.57018604225786mm" fill="none" stroke="black" stroke-width="0.1mm" /><circle r="1.9949999999999928" cx="52.488527276971915mm" cy="43.33051219068916mm" fill="none" stroke="black" stroke-width="0.1mm" /><circle r="2.007999999999993" cx="49.14685573351271mm" cy="49.26582053518772mm" fill="none" stroke="black" stroke-width="0.1mm" /><circle r="2.020999999999993" cx="43.21544635254638mm" cy="52.71472098608133mm" fill="none" stroke="black" stroke-width="0.1mm" /><circle r="2.0339999999999927" cx="36.30441540232668mm" cy="52.682537383404025mm" fill="none" stroke="black" stroke-width="0.1mm" /><circle r="2.0469999999999926" cx="30.319623606313527mm" cy="49.127614029775714mm" fill="none" stroke="black" stroke-width="0.1mm" /><circle r="2.0599999999999925" cx="26.937095473184492mm" cy="42.9867248489447mm" fill="none" stroke="black" stroke-width="0.1mm" /><circle r="2.0729999999999924" cx="27.133769494348055mm" cy="35.92874250686202mm" fill="none" stroke="black" stroke-width="0.1mm" /><circle r="2.0859999999999923" cx="30.905927236445805mm" cy="29.90119113106983mm" fill="none" stroke="black" stroke-width="0.1mm" /><circle r="2.098999999999992" cx="37.25630047768868mm" cy="26.59286242588413mm" fill="none" stroke="black" stroke-width="0.1mm" /><circle r="2.111999999999992" cx="44.457246477037714mm" cy="26.960776332812763mm" fill="none" stroke="black" stroke-width="0.1mm" /><circle r="2.124999999999992" cx="50.52067796511888mm" cy="30.953953341140508mm" fill="none" stroke="black" stroke-width="0.1mm" /><circle r="2.137999999999992" cx="53.746946669041mm" cy="37.51356534802471mm" fill="none" stroke="black" stroke-width="0.1mm" /><circle r="2.150999999999992" cx="53.2011415827109mm" cy="44.85325518731727mm" fill="none" stroke="black" stroke-width="0.1mm" /><circle r="2.1639999999999917" cx="48.98336314844797mm" cy="50.945537288918615mm" fill="none" stroke="black" stroke-width="0.1mm" /><circle r="2.1769999999999916" cx="42.21500872075166mm" cy="54.0818593007811mm" fill="none" stroke="black" stroke-width="0.1mm" /><circle r="2.1899999999999915" cx="34.74102449523653mm" cy="53.35161700470392mm" fill="none" stroke="black" stroke-width="0.1mm" /><circle r="2.2029999999999914" cx="28.627065597959305mm" cy="48.90586256838047mm" fill="none" stroke="black" stroke-width="0.1mm" /><circle r="2.2159999999999913" cx="25.588595690677238mm" cy="41.929514403479416mm" fill="none" stroke="black" stroke-width="0.1mm" /><circle r="2.228999999999991" cx="26.509708935410778mm" cy="34.325912232555325mm" fill="none" stroke="black" stroke-width="0.1mm" /><circle r="2.241999999999991" cx="31.186601656930065mm" cy="28.197588820653074mm" fill="none" stroke="black" stroke-width="0.1mm" /><circle r="2.254999999999991" cx="38.369941455443424mm" cy="25.264887711954167mm" fill="none" stroke="black" stroke-width="0.1mm" /><circle r="2.267999999999991" cx="46.09826099459739mm" cy="26.383186391751806mm" fill="none" stroke="black" stroke-width="0.1mm" /><circle r="2.280999999999991" cx="52.23350417222938mm" cy="31.29416283933317mm" fill="none" stroke="black" stroke-width="0.1mm" /><circle r="2.2939999999999907" cx="55.052515985959324mm" cy="38.68323787552941mm" fill="none" stroke="black" stroke-width="0.1mm" /><circle r="2.3069999999999906" cx="53.730843525638065mm" cy="46.53115311981312mm" fill="none" stroke="black" stroke-width="0.1mm" /><circle r="2.3199999999999905" cx="48.583059138638525mm" cy="52.665744977009254mm" fill="none" stroke="black" stroke-width="0.1mm" /><circle r="2.3329999999999904" cx="40.98976021532954mm" cy="55.3631507092833mm" fill="none" stroke="black" stroke-width="0.1mm" /><circle r="2.3459999999999903" cx="33.027588766628234mm" cy="53.83204907426057mm" fill="none" stroke="black" stroke-width="0.1mm" /><circle r="2.35899999999999" cx="26.901339391904305mm" cy="48.44495797940544mm" fill="none" stroke="black" stroke-width="0.1mm" /><circle r="2.37199999999999" cx="24.33344527791613mm" cy="40.64920192540765mm" fill="none" stroke="black" stroke-width="0.1mm" /><circle r="2.38499999999999" cx="26.079891803763758mm" cy="32.57832816643864mm" fill="none" stroke="black" stroke-width="0.1mm" /><circle r="2.39799999999999" cx="31.708558884096412mm" cy="26.468226124358086mm" fill="none" stroke="black" stroke-width="0.1mm" /><circle r="2.41099999999999" cx="39.70474966727402mm" cy="24.0377303543316mm" fill="none" stroke="black" stroke-width="0.1mm" /><circle r="2.4239999999999897" cx="47.87856108681751mm" cy="26.005291171257387mm" fill="none" stroke="black" stroke-width="0.1mm" /><circle r="2.4369999999999896" cx="53.96460376743211mm" cy="31.877570153050115mm" fill="none" stroke="black" stroke-width="0.1mm" /><circle r="2.4499999999999895" cx="56.24984085644899mm" cy="40.07191759230304mm" fill="none" stroke="black" stroke-width="0.1mm" /><circle r="2.4629999999999894" cx="54.05554920757912mm" cy="48.34269509650949mm" fill="none" stroke="black" stroke-width="0.1mm" /><circle r="2.4759999999999893" cx="47.93785946229349mm" cy="54.3966658347299mm" fill="none" stroke="black" stroke-width="0.1mm" /><circle r="2.488999999999989" cx="39.54788892486913mm" cy="56.52881788198253mm" fill="none" stroke="black" stroke-width="0.1mm" /><circle r="2.501999999999989" cx="31.18631981980619mm" cy="54.10233816362592mm" fill="none" stroke="black" stroke-width="0.1mm" /><circle r="2.514999999999989" cx="25.172527418184593mm" cy="47.7376793572436mm" fill="none" stroke="black" stroke-width="0.1mm" /><circle r="2.527999999999989" cx="23.20124520510328mm" cy="39.154874363815765mm" fill="none" stroke="black" stroke-width="0.1mm" /><circle r="2.540999999999989" cx="25.86520458803163mm" cy="30.708886844850113mm" fill="none" stroke="black" stroke-width="0.1mm" /><circle r="2.5539999999999887" cx="32.478146863228915mm" cy="24.743466141064403mm" fill="none" stroke="black" stroke-width="0.1mm" /><circle r="2.5669999999999886" cx="41.250743200780896mm" cy="22.94078939558745mm" fill="none" stroke="black" stroke-width="0.1mm" /><circle r="2.5799999999999885" cx="49.77458163200643mm" cy="25.847348166536293mm" fill="none" stroke="black" stroke-width="0.1mm" /><circle r="2.5929999999999884" cx="55.683357258389414mm" cy="32.70964129101145mm" fill="none" stroke="black" stroke-width="0.1mm" /><circle r="2.6059999999999883" cx="57.309749645174904mm" cy="41.6687322197909mm" fill="none" stroke="black" stroke-width="0.1mm" /><circle r="2.6189999999999882" cx="54.15564974853163mm" cy="50.26366431626139mm" fill="none" stroke="black" stroke-width="0.1mm" /><circle r="2.631999999999988" cx="47.04318836792067mm" cy="56.107448513466935mm" fill="none" stroke="black" stroke-width="0.1mm" /><circle r="2.644999999999988" cx="37.90115219902327mm" cy="57.5499419631045mm" fill="none" stroke="black" stroke-width="0.1mm" /><circle r="2.657999999999988" cx="29.24206868250764mm" cy="54.143543182955185mm" fill="none" stroke="black" stroke-width="0.1mm" /><circle r="2.670999999999988" cx="23.47168810004082mm" cy="46.780348865483894mm" fill="none" stroke="black" stroke-width="0.1mm" /><circle r="2.6839999999999877" cx="22.220636302014093mm" cy="37.45916814906186mm" fill="none" stroke="black" stroke-width="0.1mm" /><circle r="2.6969999999999876" cx="25.883901874516084mm" cy="28.743055533951036mm" fill="none" stroke="black" stroke-width="0.1mm" /><circle r="2.7099999999999875" cx="33.49813852739791mm" cy="23.054549360046707mm" fill="none" stroke="black" stroke-width="0.1mm" /><circle r="2.7229999999999874" cx="42.99441322758032mm" cy="22.002402537491488mm" fill="none" stroke="black" stroke-width="0.1mm" /><circle r="2.7359999999999873" cx="51.76025763701303mm" cy="25.926907222963475mm" fill="none" stroke="black" stroke-width="0.1mm" /><circle r="2.7489999999999872" cx="57.35836730762544mm" cy="33.79223797060802mm" fill="none" stroke="black" stroke-width="0.1mm" /><circle r="2.761999999999987" cx="58.20423271747894mm" cy="43.45930790301615mm" fill="none" stroke="black" stroke-width="0.1mm" /><circle r="2.774999999999987" cx="54.01431779130573mm" cy="52.26741708120713mm" fill="none" stroke="black" stroke-width="0.1mm" /><circle r="2.787999999999987" cx="45.89810098435986mm" cy="57.7665642367424mm" fill="none" stroke="black" stroke-width="0.1mm" /><circle r="2.800999999999987" cx="36.06478086319345mm" cy="58.398866142926096mm" fill="none" stroke="black" stroke-width="0.1mm" /><circle r="2.8139999999999867" cx="27.22203823697312mm" cy="53.93957650657377mm" fill="none" stroke="black" stroke-width="0.1mm" /><circle r="2.8269999999999866" cx="21.83045607041927mm" cy="45.57294342255837mm" fill="none" stroke="black" stroke-width="0.1mm" /><circle r="2.8399999999999865" cx="21.41889799517792mm" cy="35.57816234056502mm" fill="none" stroke="black" stroke-width="0.1mm" /><circle r="2.8529999999999864" cx="26.151314831447166mm" cy="26.708576295132822mm" fill="none" stroke="black" stroke-width="0.1mm" /><circle r="2.8659999999999863" cx="34.76763091733996mm" cy="21.43319053302847mm" fill="none" stroke="black" stroke-width="0.1mm" /><circle r="2.8789999999999862" cx="44.91884186590541mm" cy="21.249447482854897mm" fill="none" stroke="black" stroke-width="0.1mm" /><circle r="2.891999999999986" cx="53.80732833790782mm" cy="26.258526855929603mm" fill="none" stroke="black" stroke-width="0.1mm" /><circle r="2.904999999999986" cx="58.957864919176956mm" cy="35.12352763708846mm" fill="none" stroke="black" stroke-width="0.1mm" /><circle r="2.917999999999986" cx="58.90683819901311mm" cy="45.42589801934566mm" fill="none" stroke="black" stroke-width="0.1mm" /><circle r="2.930999999999986" cx="53.61778312542589mm" cy="54.32519485901906mm" fill="none" stroke="black" stroke-width="0.1mm" /><circle r="2.9439999999999857" cx="44.50536231594036mm" cy="59.342215757304146mm" fill="none" stroke="black" stroke-width="0.1mm" /><circle r="2.9569999999999856" cx="34.057339535509094mm" cy="59.04958822661993mm" fill="none" stroke="black" stroke-width="0.1mm" /><circle r="2.9699999999999855" cx="25.1554634064569mm" cy="53.47747132525088mm" fill="none" stroke="black" stroke-width="0.1mm" /><circle r="2.9829999999999854" cx="20.280630735038883mm" cy="44.11916263239348mm" fill="none" stroke="black" stroke-width="0.1mm" /><circle r="2.9959999999999853" cx="20.821559220290947mm" cy="33.53122814908481mm" fill="none" stroke="black" stroke-width="0.1mm" /><circle r="3.0089999999999852" cx="26.6795923382884mm" cy="24.635138636296944mm" fill="none" stroke="black" stroke-width="0.1mm" /><circle r="3.021999999999985" cx="36.281988386604965mm" cy="19.911165050141424mm" fill="none" stroke="black" stroke-width="0.1mm" /><circle r="3.034999999999985" cx="47.003863365871766mm" cy="20.70695661767695mm" fill="none" stroke="black" stroke-width="0.1mm" /><circle r="3.047999999999985" cx="55.88567186238657mm" cy="26.853524066101237mm" fill="none" stroke="black" stroke-width="0.1mm" /><circle r="3.060999999999985" cx="60.45012495506117mm" cy="36.69793786818233mm" fill="none" stroke="black" stroke-width="0.1mm" /><circle r="3.0739999999999847" cx="59.39305323757082mm" cy="47.54755497659631mm" fill="none" stroke="black" stroke-width="0.1mm" /><circle r="3.0869999999999846" cx="52.955573987256514mm" cy="56.406466032047305mm" fill="none" stroke="black" stroke-width="0.1mm" /><circle r="3.0999999999999845" cx="42.87148158237034mm" cy="60.80275446959146mm" fill="none" stroke="black" stroke-width="0.1mm" /><circle r="3.1129999999999844" cx="31.900544318079874mm" cy="59.47813755615796mm" fill="none" stroke="black" stroke-width="0.1mm" /><circle r="3.1259999999999843" cx="23.073262551536676mm" cy="52.747613868908516mm" fill="none" stroke="black" stroke-width="0.1mm" /><circle r="3.1389999999999842" cx="18.85375786191007mm" cy="42.426451820512646mm" fill="none" stroke="black" stroke-width="0.1mm" /><circle r="3.151999999999984" cx="20.452026121570153mm" cy="31.340836226966033mm" fill="none" stroke="black" stroke-width="0.1mm" /><circle r="3.164999999999984" cx="27.477478027253582mm" cy="22.554024290912174mm" fill="none" stroke="black" stroke-width="0.1mm" /><circle r="3.177999999999984" cx="38.03283090978633mm" cy="18.51988953076574mm" fill="none" stroke="black" stroke-width="0.1mm" /><circle r="3.190999999999984" cx="49.22626710323624mm" cy="20.39774961031923mm" fill="none" stroke="black" stroke-width="0.1mm" /><circle r="3.2039999999999837" cx="57.96366682572392mm" cy="27.71976082584768mm" fill="none" stroke="black" stroke-width="0.1mm" /><circle r="3.2169999999999837" cx="61.8038862426217mm" cy="38.506156059418835mm" fill="none" stroke="black" stroke-width="0.1mm" /><circle r="3.2299999999999836" cx="59.64066622848701mm" cy="49.80034336649328mm" fill="none" stroke="black" stroke-width="0.1mm" /><circle r="3.2429999999999835" cx="52.020720954234164mm" cy="58.47929362125173mm" fill="none" stroke="black" stroke-width="0.1mm" /><circle r="3.2559999999999834" cx="41.00670113139443mm" cy="62.11710091381889mm" fill="none" stroke="black" stroke-width="0.1mm" /><circle r="3.2689999999999833" cx="29.61903961536748mm" cy="59.66293178782577mm" fill="none" stroke="black" stroke-width="0.1mm" /><circle r="3.281999999999983" cx="21.00766386986713mm" cy="51.7439375134598mm" fill="none" stroke="black" stroke-width="0.1mm" /><circle r="3.294999999999983" cx="17.580708982716097mm" cy="40.505979527582014mm" fill="none" stroke="black" stroke-width="0.1mm" /><circle r="3.307999999999983" cx="20.33123099125323mm" cy="29.03232359701649mm" fill="none" stroke="black" stroke-width="0.1mm" /><circle r="3.320999999999983" cx="28.550126125417446mm" cy="20.497727997585756mm" fill="none" stroke="black" stroke-width="0.1mm" /><circle r="3.3339999999999828" cx="40.00806801730683mm" cy="17.290001433133128mm" fill="none" stroke="black" stroke-width="0.1mm" /><circle r="3.3469999999999827" cx="51.56004039427542mm" cy="20.3420883336322mm" fill="none" stroke="black" stroke-width="0.1mm" /><circle r="3.3599999999999826" cx="60.0085769109501mm" cy="28.861470025241523mm" fill="none" stroke="black" stroke-width="0.1mm" /><circle r="3.3729999999999825" cx="62.98877145359591mm" cy="40.535174788580555mm" fill="none" stroke="black" stroke-width="0.1mm" /><circle r="3.3859999999999824" cx="59.630105647970495mm" cy="52.157592370593584mm" fill="none" stroke="black" stroke-width="0.1mm" /><circle r="3.3989999999999823" cx="50.80992074676255mm" cy="60.51072496155879mm" fill="none" stroke="black" stroke-width="0.1mm" /><circle r="3.411999999999982" cx="38.92493965123076mm" cy="63.25516384045708mm" fill="none" stroke="black" stroke-width="0.1mm" /><circle r="3.424999999999982" cx="27.240136296808146mm" cy="59.58510922297768mm" fill="none" stroke="black" stroke-width="0.1mm" /><circle r="3.437999999999982" cx="18.991810894172104mm" cy="50.46407618921863mm" fill="none" stroke="black" stroke-width="0.1mm" /><circle r="3.450999999999982" cx="16.49126344612175mm" cy="38.37256931319747mm" fill="none" stroke="black" stroke-width="0.1mm" /><circle r="3.4639999999999818" cx="20.47730669540135mm" cy="26.633622550048308mm" fill="none" stroke="black" stroke-width="0.1mm" /><circle r="3.4769999999999817" cx="29.898958574234925mm" cy="18.49955844372084mm" fill="none" stroke="black" stroke-width="0.1mm" /><circle r="3.4899999999999816" cx="42.19197837792196mm" cy="16.250942528371354mm" fill="none" stroke="black" stroke-width="0.1mm" /><circle r="3.5029999999999815" cx="53.97664869027324mm" cy="20.557358297065665mm" fill="none" stroke="black" stroke-width="0.1mm" /><circle r="3.5159999999999814" cx="61.986954203602494mm" cy="30.279123246914182mm" fill="none" stroke="black" stroke-width="0.1mm" /><circle r="3.5289999999999813" cx="63.97570190684766mm" cy="42.768382754241mm" fill="none" stroke="black" stroke-width="0.1mm" /><circle r="3.541999999999981" cx="59.34475136933951mm" cy="54.590184867178166mm" fill="none" stroke="black" stroke-width="0.1mm" /><circle r="3.554999999999981" cx="49.32365767774373mm" cy="62.46719903566637mm" fill="none" stroke="black" stroke-width="0.1mm" /><circle r="3.567999999999981" cx="36.643689914141596mm" cy="64.1882529879188mm" fill="none" stroke="black" stroke-width="0.1mm" /><circle r="3.580999999999981" cx="24.79351386360128mm" cy="59.2288326318451mm" fill="none" stroke="black" stroke-width="0.1mm" /><circle r="3.5939999999999808" cx="17.05935144198986mm" cy="48.90947494176086mm" fill="none" stroke="black" stroke-width="0.1mm" /><circle r="3.6069999999999807" cx="15.613697966093369mm" cy="36.04458622757636mm" fill="none" stroke="black" stroke-width="0.1mm" /><circle r="3.6199999999999806" cx="20.905290578551536mm" cy="24.17495427777713mm" fill="none" stroke="black" stroke-width="0.1mm" /><circle r="3.6329999999999805" cx="31.521565463101428mm" cy="16.59322378447808mm" fill="none" stroke="black" stroke-width="0.1mm" /><circle r="3.6459999999999804" cx="44.565334545042404mm" cy="15.430551074722096mm" fill="none" stroke="black" stroke-width="0.1mm" /><circle r="3.6589999999999803" cx="56.4453502798556mm" cy="21.057780510910277mm" fill="none" stroke="black" stroke-width="0.1mm" /><circle r="3.67199999999998" cx="63.86505681500461mm" cy="31.969342292402253mm" fill="none" stroke="black" stroke-width="0.1mm" /><circle r="3.68499999999998" cx="64.73730246962933mm" cy="45.18570067841052mm" fill="none" stroke="black" stroke-width="0.1mm" /><circle r="3.69799999999998" cx="58.77121461312805mm" cy="57.06688026406363mm" fill="none" stroke="black" stroke-width="0.1mm" /><circle r="3.71099999999998" cx="47.566280942543365mm" cy="64.3149669483325mm" fill="none" stroke="black" stroke-width="0.1mm" /><circle r="3.7239999999999798" cx="34.183871786950554mm" cy="64.88948076214864mm" fill="none" stroke="black" stroke-width="0.1mm" /><circle r="3.7369999999999797" cx="22.310889696150188mm" cy="58.581560797151326mm" fill="none" stroke="black" stroke-width="0.1mm" /><circle r="3.7499999999999796" cx="15.244014584102928mm" cy="47.085455954833684mm" fill="none" stroke="black" stroke-width="0.1mm" /><circle r="3.7629999999999795" cx="14.974388459461878mm" cy="33.543778812487794mm" fill="none" stroke="black" stroke-width="0.1mm" /><circle r="3.7759999999999794" cx="21.626861542051124mm" cy="21.688490417089138mm" fill="none" stroke="black" stroke-width="0.1mm" /><circle r="3.7889999999999793" cx="33.411650349265635mm" cy="14.812406349957431mm" fill="none" stroke="black" stroke-width="0.1mm" /><circle r="3.801999999999979" cx="47.105571880422865mm" cy="14.85466746586675mm" fill="none" stroke="black" stroke-width="0.1mm" /><circle r="3.814999999999979" cx="58.93354222562303mm" cy="21.85415739651239mm" fill="none" stroke="black" stroke-width="0.1mm" /><circle r="3.827999999999979" cx="65.60927613819013mm" cy="33.92485591299091mm" fill="none" stroke="black" stroke-width="0.1mm" /><circle r="3.840999999999979" cx="65.24829180695197mm" cy="47.76376106220421mm" fill="none" stroke="black" stroke-width="0.1mm" /><circle r="3.8539999999999788" cx="57.899583000737366mm" cy="59.554667688296576mm" fill="none" stroke="black" stroke-width="0.1mm" /><circle r="3.8669999999999787" cx="45.54603641682554mm" cy="66.02052084534898mm" fill="none" stroke="black" stroke-width="0.1mm" /><circle r="3.8799999999999786" cx="31.56964174365842mm" cy="65.33414809441456mm" fill="none" stroke="black" stroke-width="0.1mm" /><circle r="3.8929999999999785" cx="19.82565884456413mm" cy="57.63428433319828mm" fill="none" stroke="black" stroke-width="0.1mm" /><circle r="3.9059999999999784" cx="13.57918036428697mm" cy="45.0012388242431mm" fill="none" stroke="black" stroke-width="0.1mm" /><circle r="3.9189999999999783" cx="14.59742886652273mm" cy="30.895077989975807mm" fill="none" stroke="black" stroke-width="0.1mm" /><circle r="3.931999999999978" cx="22.650113652010496mm" cy="19.20798605926201mm" fill="none" stroke="black" stroke-width="0.1mm" /><circle r="3.944999999999978" cx="35.559021552702916mm" cy="13.190331306958711mm" fill="none" stroke="black" stroke-width="0.1mm" /><circle r="3.957999999999978" cx="49.78700017399823mm" cy="14.54675801407306mm" fill="none" stroke="black" stroke-width="0.1mm" /><circle r="3.970999999999978" cx="61.407133892558846mm" cy="22.953656007634557mm" fill="none" stroke="black" stroke-width="0.1mm" /><circle r="3.983999999999978" cx="67.18656893952061mm" cy="36.13450271029869mm" fill="none" stroke="black" stroke-width="0.1mm" /><circle r="3.9969999999999777" cx="65.48585335458836mm" cy="50.47613019145963mm" fill="none" stroke="black" stroke-width="0.1mm" /><circle r="4.009999999999978" cx="56.72362753953291mm" cy="62.0191458035722mm" fill="none" stroke="black" stroke-width="0.1mm" /><circle r="4.0229999999999775" cx="43.275052121199465mm" cy="67.55102645280974mm" fill="none" stroke="black" stroke-width="0.1mm" /><circle r="4.035999999999977" cx="28.8281606041922mm" cy="65.5001098921999mm" fill="none" stroke="black" stroke-width="0.1mm" /><circle r="4.048999999999977" cx="17.37250817565635mm" cy="56.38172270364921mm" fill="none" stroke="black" stroke-width="0.1mm" /><circle r="4.061999999999977" cx="12.09744711903583mm" cy="42.669914366602946mm" fill="none" stroke="black" stroke-width="0.1mm" /><circle r="4.074999999999977" cx="14.504271497282176mm" cy="28.12635468292502mm" fill="none" stroke="black" stroke-width="0.1mm" /><circle r="4.087999999999977" cx="23.97936925611128mm" cy="16.768388119461832mm" fill="none" stroke="black" stroke-width="0.1mm" /><circle r="4.100999999999977" cx="37.94963001643895mm" cy="11.759334145057657mm" fill="none" stroke="black" stroke-width="0.1mm" /><circle r="4.113999999999977" cx="52.581055996839915mm" cy="14.527561365185846mm" fill="none" stroke="black" stroke-width="0.1mm" /><circle r="4.126999999999977" cx="63.830944093476894mm" cy="24.359631442527544mm" fill="none" stroke="black" stroke-width="0.1mm" /><circle r="4.139999999999977" cx="68.56488939839433mm" cy="38.58328067088312mm" fill="none" stroke="black" stroke-width="0.1mm" /><circle r="4.1529999999999765" cx="65.42998256733803mm" cy="53.29357031142794mm" fill="none" stroke="black" stroke-width="0.1mm" /><circle r="4.165999999999976" cx="55.24096876156262mm" cy="64.42492520375582mm" fill="none" stroke="black" stroke-width="0.1mm" /><circle r="4.178999999999976" cx="40.76927701511045mm" cy="68.87475433443576mm" fill="none" stroke="black" stroke-width="0.1mm" /><circle r="4.191999999999976" cx="25.989321696806194mm" cy="65.368115686515mm" fill="none" stroke="black" stroke-width="0.1mm" /><circle r="4.204999999999976" cx="14.987009002363585mm" cy="54.82247976393132mm" fill="none" stroke="black" stroke-width="0.1mm" /><circle r="4.217999999999976" cx="10.83020131088913mm" cy="40.10837175249776mm" fill="none" stroke="black" stroke-width="0.1mm" /><circle r="4.230999999999976" cx="14.71339324533556mm" cy="25.268138480322584mm" fill="none" stroke="black" stroke-width="0.1mm" /><circle r="4.243999999999976" cx="25.615034177679657mm" cy="14.405423264084458mm" fill="none" stroke="black" stroke-width="0.1mm" /><circle r="4.256999999999976" cx="40.56565381533711mm" cy="10.550431908749697mm" fill="none" stroke="black" stroke-width="0.1mm" /><circle r="4.269999999999976" cx="55.456593360416846mm" cy="14.814761829779908mm" fill="none" stroke="black" stroke-width="0.1mm" /><circle r="4.2829999999999755" cx="66.16911758497994mm" cy="26.071492907583853mm" fill="none" stroke="black" stroke-width="0.1mm" /><circle r="4.295999999999975" cx="69.713616168431mm" cy="41.25244329019273mm" fill="none" stroke="black" stroke-width="0.1mm" /><circle r="4.308999999999975" cx="65.06380621884435mm" cy="56.184339431197444mm" fill="none" stroke="black" stroke-width="0.1mm" /><circle r="4.321999999999975" cx="53.453199664372mm" cy="66.73604904974806mm" fill="none" stroke="black" stroke-width="0.1mm" /><circle r="4.334999999999975" cx="38.0483732925083mm" cy="69.96150493874762mm" fill="none" stroke="black" stroke-width="0.1mm" /><circle r="4.347999999999975" cx="23.08544209449mm" cy="64.92212131543263mm" fill="none" stroke="black" stroke-width="0.1mm" /><circle r="4.360999999999975" cx="12.705192591799612mm" cy="52.95915558781674mm" fill="none" stroke="black" stroke-width="0.1mm" /><circle r="4.373999999999975" cx="9.80719480189305mm" cy="37.33717926454698mm" fill="none" stroke="black" stroke-width="0.1mm" /><circle r="4.386999999999975" cx="15.23999176319029mm" cy="22.35330010701412mm" fill="none" stroke="black" stroke-width="0.1mm" /><circle r="4.399999999999975" cx="27.55349711470262mm" cy="12.155169852802544mm" fill="none" stroke="black" stroke-width="0.1mm" /><circle r="4.4129999999999745" cx="43.38562888488842mm" cy="9.59290309724058mm" fill="none" stroke="black" stroke-width="0.1mm" /><circle r="4.425999999999974" cx="58.38020981457132mm" cy="15.422693655074234mm" fill="none" stroke="black" stroke-width="0.1mm" /><circle r="4.438999999999974" cx="68.38555639928319mm" cy="28.084614445889493mm" fill="none" stroke="black" stroke-width="0.1mm" /><circle r="4.451999999999974" cx="70.60396954678411mm" cy="44.11964172950783mm" fill="none" stroke="black" stroke-width="0.1mm" /><circle r="4.464999999999974" cx="64.37386980036624mm" cy="59.114525784198435mm" fill="none" stroke="black" stroke-width="0.1mm" /><circle r="4.477999999999974" cx="51.36596355648524mm" cy="68.91642738016994mm" fill="none" stroke="black" stroke-width="0.1mm" /><circle r="4.490999999999974" cx="35.13556286338782mm" cy="70.7830225342467mm" fill="none" stroke="black" stroke-width="0.1mm" /><circle r="4.503999999999974" cx="20.150920003294992mm" cy="64.14956776599524mm" fill="none" stroke="black" stroke-width="0.1mm" /><circle r="4.516999999999974" cx="10.563113173399689mm" cy="50.79841279808828mm" fill="none" stroke="black" stroke-width="0.1mm" /><circle r="4.529999999999974" cx="9.056134454247552mm" cy="34.3804194919562mm" fill="none" stroke="black" stroke-width="0.1mm" /><circle r="4.5429999999999735" cx="16.095715399440987mm" cy="19.416700878249166mm" fill="none" stroke="black" stroke-width="0.1mm" /><circle r="4.555999999999973" cx="29.787074905170464mm" cy="10.053618565719958mm" fill="none" stroke="black" stroke-width="0.1mm" /><circle r="4.568999999999973" cx="46.384625031258224mm" cy="8.913881100880058mm" fill="none" stroke="black" stroke-width="0.1mm" /><circle r="4.581999999999973" cx="61.31660470347313mm" cy="16.362079957918073mm" fill="none" stroke="black" stroke-width="0.1mm" /><circle r="4.594999999999973" cx="70.44436129557513mm" cy="30.390291872045324mm" fill="none" stroke="black" stroke-width="0.1mm" /><circle r="4.607999999999973" cx="71.20941390390405mm" cy="47.159111940373045mm" fill="none" stroke="black" stroke-width="0.1mm" /><circle r="4.620999999999973" cx="63.350389380894526mm" cy="62.04841356561962mm" fill="none" stroke="black" stroke-width="0.1mm" /><circle r="4.633999999999973" cx="48.988985387418715mm" cy="70.93028033666627mm" fill="none" stroke="black" stroke-width="0.1mm" /><circle r="4.646999999999973" cx="32.05742921295677mm" cy="71.3133932095006mm" fill="none" stroke="black" stroke-width="0.1mm" /><circle r="4.659999999999973" cx="17.221861778106913mm" cy="63.04162362213921mm" fill="none" stroke="black" stroke-width="0.1mm" /><circle r="4.6729999999999725" cx="8.59640324614712mm" cy="48.35099610354305mm" fill="none" stroke="black" stroke-width="0.1mm" /><circle r="4.685999999999972" cx="8.602288853431226mm" cy="31.26548027899522mm" fill="none" stroke="black" stroke-width="0.1mm" /><circle r="4.698999999999972" cx="17.288430362393584mm" cy="16.494812708762673mm" fill="none" stroke="black" stroke-width="0.1mm" /><circle r="4.711999999999972" cx="32.30400483303412mm" cy="8.136226551300798mm" fill="none" stroke="black" stroke-width="0.1mm" /><circle r="4.724999999999972" cx="49.53446578012169mm" cy="8.537965938488995mm" fill="none" stroke="black" stroke-width="0.1mm" /><circle r="4.737999999999972" cx="64.22896591779016mm" cy="17.639809693239364mm" fill="none" stroke="black" stroke-width="0.1mm" /><circle r="4.750999999999972" cx="72.31027846171452mm" cy="32.975746963095865mm" fill="none" stroke="black" stroke-width="0.1mm" /><circle r="4.763999999999972" cx="71.50604064375446mm" cy="50.341905189764674mm" fill="none" stroke="black" stroke-width="0.1mm" /><circle r="4.776999999999972" cx="61.98746464682293mm" cy="64.94887619522574mm" fill="none" stroke="black" stroke-width="0.1mm" /><circle r="4.789999999999972" cx="46.33605563775306mm" cy="72.74258540426041mm" fill="none" stroke="black" stroke-width="0.1mm" /><circle r="4.8029999999999715" cx="28.843676328657033mm" cy="71.52942224558234mm" fill="none" stroke="black" stroke-width="0.1mm" /><circle r="4.815999999999971" cx="14.335682404795929mm" cy="61.59338793178338mm" fill="none" stroke="black" stroke-width="0.1mm" /><circle r="4.828999999999971" cx="6.839826111622152mm" cy="45.63170424405734mm" fill="none" stroke="black" stroke-width="0.1mm" /><circle r="4.841999999999971" cx="8.46811680573255mm" cy="28.022803240195845mm" fill="none" stroke="black" stroke-width="0.1mm" /><circle r="4.854999999999971" cx="18.82202819977565mm" cy="13.625312600356924mm" fill="none" stroke="black" stroke-width="0.1mm" /><circle r="4.867999999999971" cx="35.0884846461043mm" cy="6.437470045772237mm" fill="none" stroke="black" stroke-width="0.1mm" /><circle r="4.880999999999971" cx="52.80399012991036mm" cy="8.486858903734351mm" fill="none" stroke="black" stroke-width="0.1mm" /><circle r="4.893999999999971" cx="67.07938113652443mm" cy="19.258755648157614mm" fill="none" stroke="black" stroke-width="0.1mm" /><circle r="4.906999999999971" cx="73.94914649483987mm" cy="35.82417944927095mm" fill="none" stroke="black" stroke-width="0.1mm" /><circle r="4.919999999999971" cx="71.47292713323071mm" cy="53.63615993109273mm" fill="none" stroke="black" stroke-width="0.1mm" /><circle r="4.9329999999999705" cx="60.28325023256441mm" cy="67.77779301894167mm" fill="none" stroke="black" stroke-width="0.1mm" /><circle r="4.94599999999997" cx="43.424966353769726mm" cy="74.31952367786496mm" fill="none" stroke="black" stroke-width="0.1mm" /><circle r="4.95899999999997" cx="25.52684686932018mm" cy="71.41098634961789mm" fill="none" stroke="black" stroke-width="0.1mm" /><circle r="4.97199999999997" cx="11.530683612903776mm" cy="59.80405070816076mm" fill="none" stroke="black" stroke-width="0.1mm" /><circle r="4.98499999999997" cx="5.326830635972122mm" cy="42.65931405693774mm" fill="none" stroke="black" stroke-width="0.1mm" /><circle r="4.99799999999997" cx="8.67292206835197mm" cy="24.68559213471057mm" fill="none" stroke="black" stroke-width="0.1mm" /><circle r="5.01099999999997" cx="20.696276273734423mm" cy="10.846655847055914mm" fill="none" stroke="black" stroke-width="0.1mm" /><circle r="5.02399999999997" cx="38.12076044352251mm" cy="4.990400478020916mm" fill="none" stroke="black" stroke-width="0.1mm" /><circle r="5.03699999999997" cx="56.1593538001672mm" cy="8.779024522590433mm" fill="none" stroke="black" stroke-width="0.1mm" /><circle r="5.04999999999997" cx="69.82926924719334mm" cy="21.21763603327758mm" fill="none" stroke="black" stroke-width="0.1mm" /><g transform="translate(135,285) scale(0.4)" fill="black" stroke="none">
<path
         d="m 6.909225,12.189723 h 3.199798 l 3.274213,9.11157 3.265944,-9.11157 h 3.199798 l -4.572322,12.344441 h -3.795109 z"
         style="font-size:16.9333px;stroke-width:0.265"
         id="path428" />
      <path
         d="M 27.827804,22.285211 H 22.85034 l -0.78548,2.248953 h -3.199799 l 4.572322,-12.344441 h 3.79511 l 4.572321,12.344441 h -3.199798 z m -4.183716,-2.290295 h 3.381699 l -1.686715,-4.911319 z"
         style="font-size:16.9333px;stroke-width:0.265"
         id="path430" />
      <path
         d="m 37.964634,17.66328 q 1.000454,0 1.430401,-0.37207 0.438215,-0.37207 0.438215,-1.223696 0,-0.843357 -0.438215,-1.207159 -0.429947,-0.363801 -1.430401,-0.363801 h -1.33945 v 3.166726 z m -1.33945,2.199344 v 4.67154 H 33.441922 V 12.189723 h 4.861709 q 2.439123,0 3.571868,0.818553 1.141013,0.818553 1.141013,2.58795 0,1.223696 -0.595311,2.009176 -0.587043,0.78548 -1.777666,1.15755 0.653189,0.148828 1.165818,0.677993 0.520898,0.520898 1.050063,1.587497 l 1.728057,3.505722 h -3.389967 l -1.504815,-3.067507 q -0.454752,-0.926039 -0.92604,-1.265036 -0.46302,-0.338997 -1.240232,-0.338997 z"
         style="font-size:16.9333px;stroke-width:0.265"
         id="path432" />
      <path
         d="m 46.480893,12.189723 h 3.183262 v 12.344441 h -3.183262 z"
         style="font-size:16.9333px;stroke-width:0.265"
         id="path434" />
      <path
         d="m 62.570834,23.856171 q -0.876431,0.454752 -1.827275,0.686262 -0.950845,0.23151 -1.984371,0.23151 -3.084044,0 -4.886514,-1.719789 -1.802471,-1.728056 -1.802471,-4.679808 0,-2.96002 1.802471,-4.679809 1.80247,-1.728056 4.886514,-1.728056 1.033526,0 1.984371,0.23151 0.950844,0.23151 1.827275,0.686261 v 2.554878 q -0.884699,-0.603579 -1.744593,-0.884699 -0.859894,-0.281119 -1.810739,-0.281119 -1.703252,0 -2.678901,1.091404 -0.975649,1.091404 -0.975649,3.00963 0,1.909957 0.975649,3.001361 0.975649,1.091404 2.678901,1.091404 0.950845,0 1.810739,-0.281119 0.859894,-0.281119 1.744593,-0.884699 z"
         style="font-size:16.9333px;stroke-width:0.265"
         id="path436" />
      <path
         d="m 65.208394,12.189723 h 3.183262 v 12.344441 h -3.183262 z"
         style="font-size:16.9333px;stroke-width:0.265"
         id="path438" />
      <path
         d="m 70.037033,12.189723 h 11.377061 v 2.40605 h -4.092766 v 9.938391 h -3.183262 v -9.938391 h -4.101033 z"
         style="font-size:16.9333px;stroke-width:0.265"
         id="path440" />
      <path
         d="m 83.059464,12.189723 h 8.590673 v 2.40605 h -5.407411 v 2.298563 h 5.084951 v 2.40605 h -5.084951 v 2.827728 h 5.589312 v 2.40605 h -8.772574 z"
         style="font-size:16.9333px;stroke-width:0.265"
         id="path442" />
         </g>
</svg>