<svg width="80mm" height="80mm" fill="none" stroke="black"><circle r="40mm" cx="40mm" cy="40mm" stroke-width="0.1mm" /><circle r="0.5" cx="38.8934623300778mm" cy="41.6660055177109mm" fill="none" stroke="black" stroke-width="0.1mm" /><circle r="0.5" cx="38.578788211224925mm" cy="41.54601327660753mm" fill="none" stroke="black" stroke-width="0.1mm" /><circle r="0.5" cx="38.27607573287928mm" cy="41.36677910476868mm" fill="none" stroke="black" stroke-width="0.1mm" /><circle r="0.5" cx="37.99637459517742mm" cy="41.129373825245466mm" fill="none" stroke="black" stroke-width="0.1mm" /><circle r="0.5" cx="37.75064649588224mm" cy="40.83690430367705mm" fill="none" stroke="black" stroke-width="0.1mm" /><circle r="0.5" cx="37.54939488861509mm" cy="40.49450438628405mm" fill="none" stroke="black" stroke-width="0.1mm" /><circle r="0.5" cx="37.40229670995204mm" cy="40.10925940176482mm" fill="none" stroke="black" stroke-width="0.1mm" /><circle r="0.5" cx="37.31784784326016mm" cy="39.69006483243128mm" fill="none" stroke="black" stroke-width="0.1mm" /><circle r="0.5" cx="37.3030339117855mm" cy="39.24742181866536mm" fill="none" stroke="black" stroke-width="0.1mm" /><circle r="0.5" cx="37.363037462205526mm" cy="38.79317417401329mm" fill="none" stroke="black" stroke-width="0.1mm" /><circle r="0.5" cx="37.50099172343365mm" cy="38.34019349511671mm" fill="none" stroke="black" stroke-width="0.1mm" /><circle r="0.5" cx="37.71778992500793mm" cy="37.90202069276061mm" fill="none" stroke="black" stroke-width="0.1mm" /><circle r="0.5" cx="38.01195766579101mm" cy="37.49247379327895mm" fill="none" stroke="black" stroke-width="0.1mm" /><circle r="0.5" cx="38.379594076821725mm" cy="37.12523311481978mm" fill="none" stroke="black" stroke-width="0.1mm" /><circle r="0.5" cx="38.81438556979084mm" cy="36.81341586916651mm" fill="none" stroke="black" stroke-width="0.1mm" /><circle r="0.5" cx="39.30769385920234mm" cy="36.56915284406113mm" fill="none" stroke="black" stroke-width="0.1mm" /><circle r="0.5" cx="39.84871775140256mm" cy="36.40318005993359mm" fill="none" stroke="black" stroke-width="0.1mm" /><circle r="0.5" cx="40.424725970371945mm" cy="36.32445815557874mm" fill="none" stroke="black" stroke-width="0.1mm" /><circle r="0.5" cx="41.02135610323987mm" cy="36.33983173742317mm" fill="none" stroke="black" stroke-width="0.1mm" /><circle r="0.5" cx="41.622972662533854mm" cy="36.45374003537984mm" fill="none" stroke="black" stroke-width="0.1mm" /><circle r="0.5" cx="42.21307533984439mm" cy="36.6679889645782mm" fill="none" stroke="black" stroke-width="0.1mm" /><circle r="0.5" cx="42.77474682570371mm" cy="36.98159312662339mm" fill="none" stroke="black" stroke-width="0.1mm" /><circle r="0.5" cx="43.291128146321384mm" cy="37.3906944363507mm" fill="none" stroke="black" stroke-width="0.1mm" /><circle r="0.5" cx="43.74590836553786mm" cy="37.888561978888916mm" fill="none" stroke="black" stroke-width="0.1mm" /><circle r="0.5" cx="44.12381475754922mm" cy="38.46567544325874mm" fill="none" stroke="black" stroke-width="0.1mm" /><circle r="0.5" cx="44.41108920049284mm" cy="39.10989210468872mm" fill="none" stroke="black" stroke-width="0.1mm" /><circle r="0.5" cx="44.595936590084854mm" cy="39.806694904569945mm" fill="none" stroke="black" stroke-width="0.1mm" /><circle r="0.5" cx="44.668931532102675mm" cy="40.53951677317517mm" fill="none" stroke="black" stroke-width="0.1mm" /><circle r="0.5" cx="44.62337043693915mm" cy="41.2901340251451mm" fill="none" stroke="black" stroke-width="0.1mm" /><circle r="0.5" cx="44.455557391445836mm" cy="42.039119499080996mm" fill="none" stroke="black" stroke-width="0.1mm" /><circle r="0.5" cx="44.16501379427724mm" cy="42.76634417480548mm" fill="none" stroke="black" stroke-width="0.1mm" /><circle r="0.5" cx="43.75460367176115mm" cy="43.45151434416803mm" fill="none" stroke="black" stroke-width="0.1mm" /><circle r="0.5" cx="43.2305687930896mm" cy="44.07473008592171mm" fill="none" stroke="black" stroke-width="0.1mm" /><circle r="0.5" cx="42.60247011904389mm" cy="44.617049845895494mm" fill="none" stroke="black" stroke-width="0.1mm" /><circle r="0.5" cx="41.88303468327336mm" cy="45.06104538426495mm" fill="none" stroke="black" stroke-width="0.1mm" /><circle r="0.5" cx="41.0879096498249mm" cy="45.39133124504679mm" fill="none" stroke="black" stroke-width="0.1mm" /><circle r="0.5" cx="40.23532794226268mm" cy="45.5950532401033mm" fill="none" stroke="black" stroke-width="0.1mm" /><circle r="0.5" cx="39.3456924240216mm" cy="45.66232121978409mm" fill="none" stroke="black" stroke-width="0.1mm" /><circle r="0.5" cx="38.44108805294968mm" cy="45.58657261130147mm" fill="none" stroke="black" stroke-width="0.1mm" /><circle r="0.5" cx="37.54473366437186mm" cy="45.36485481827152mm" fill="none" stroke="black" stroke-width="0.1mm" /><circle r="0.5" cx="36.680386990233416mm" cy="44.99801655313269mm" fill="none" stroke="black" stroke-width="0.1mm" /><circle r="0.5" cx="35.871718137367644mm" cy="44.49080047014568mm" fill="none" stroke="black" stroke-width="0.1mm" /><circle r="0.5" cx="35.141667974477954mm" cy="43.8518320225299mm" fill="none" stroke="black" stroke-width="0.1mm" /><circle r="0.5" cx="34.511808673746856mm" cy="43.09350221697668mm" fill="none" stroke="black" stroke-width="0.1mm" /><circle r="0.5" cx="34.00172398901931mm" cy="42.231744809805434mm" fill="none" stroke="black" stroke-width="0.1mm" /><circle r="0.5" cx="33.62842671039924mm" cy="41.285711404338485mm" fill="none" stroke="black" stroke-width="0.1mm" /><circle r="0.5" cx="33.40583010987826mm" cy="40.27735078909526mm" fill="none" stroke="black" stroke-width="0.1mm" /><circle r="0.5" cx="33.344289092534495mm" cy="39.23090162121833mm" fill="none" stroke="black" stroke-width="0.1mm" /><circle r="0.5" cx="33.45022521433623mm" cy="38.17231013104439mm" fill="none" stroke="black" stroke-width="0.1mm" /><circle r="0.5" cx="33.72584775490283mm" cy="37.12858682782467mm" fill="none" stroke="black" stroke-width="0.1mm" /><circle r="0.5" cx="34.1689806880119mm" cy="36.12711815527227mm" fill="none" stroke="black" stroke-width="0.1mm" /><circle r="0.5" cx="34.77300273146982mm" cy="35.194950618903285mm" fill="none" stroke="black" stroke-width="0.1mm" /><circle r="0.5" cx="35.52690474802985mm" cy="34.35806603487759mm" fill="none" stroke="black" stroke-width="0.1mm" /><circle r="0.5" cx="36.41546568509057mm" cy="33.640667193389184mm" fill="none" stroke="black" stroke-width="0.1mm" /><circle r="0.5" cx="37.419545063662525mm" cy="33.06449336230356mm" fill="none" stroke="black" stroke-width="0.1mm" /><circle r="0.5" cx="38.516486841147966mm" cy="32.648184665845264mm" fill="none" stroke="black" stroke-width="0.1mm" /><circle r="0.5" cx="39.68062636407219mm" cy="32.406713459859816mm" fill="none" stroke="black" stroke-width="0.1mm" /><circle r="0.5" cx="40.883889181584976mm" cy="32.35089940485309mm" fill="none" stroke="black" stroke-width="0.1mm" /><circle r="0.5" cx="42.096467790860906mm" cy="32.48702303997393mm" fill="none" stroke="black" stroke-width="0.1mm" /><circle r="0.5" cx="43.287560008722544mm" cy="32.816550328077184mm" fill="none" stroke="black" stroke-width="0.1mm" /><circle r="0.5" cx="44.42615067968889mm" cy="33.33597792915649mm" fill="none" stroke="black" stroke-width="0.1mm" /><circle r="0.5" cx="45.481816899561096mm" cy="34.03680593308535mm" fill="none" stroke="black" stroke-width="0.1mm" /><circle r="0.5" cx="46.42553590472279mm" cy="34.905641518589604mm" fill="none" stroke="black" stroke-width="0.1mm" /><circle r="0.5" cx="47.2304742869685mm" cy="35.924433587157836mm" fill="none" stroke="black" stroke-width="0.1mm" /><circle r="0.5" cx="47.8727372644122mm" cy="37.070834937130506mm" fill="none" stroke="black" stroke-width="0.1mm" /><circle r="0.5" cx="48.33205737870871mm" cy="38.31868508663444mm" fill="none" stroke="black" stroke-width="0.1mm" /><circle r="0.5" cx="48.592403190158635mm" cy="39.63860351723966mm" fill="none" stroke="black" stroke-width="0.1mm" /><circle r="0.5" cx="48.64249028282832mm" cy="40.998679984388296mm" fill="none" stroke="black" stroke-width="0.1mm" /><circle r="0.5" cx="48.47617913438837mm" cy="42.365245712766225mm" fill="none" stroke="black" stroke-width="0.1mm" /><circle r="0.5" cx="48.092747098748454mm" cy="43.70370684526977mm" fill="none" stroke="black" stroke-width="0.1mm" /><circle r="0.5" cx="47.4970248296989mm" cy="44.97941951465007mm" fill="none" stroke="black" stroke-width="0.1mm" /><circle r="0.5" cx="46.69939086529913mm" cy="46.158584418025484mm" fill="none" stroke="black" stroke-width="0.1mm" /><circle r="0.5" cx="45.71562171085062mm" cy="47.20913784432318mm" fill="none" stroke="black" stroke-width="0.1mm" /><circle r="0.5" cx="44.56659851077488mm" cy="48.10161576732619mm" fill="none" stroke="black" stroke-width="0.1mm" /><circle r="0.5" cx="43.2778751894015mm" cy="48.80996789112797mm" fill="none" stroke="black" stroke-width="0.1mm" /><circle r="0.5" cx="41.879116667879074mm" cy="49.312299423262694mm" fill="none" stroke="black" stroke-width="0.1mm" /><circle r="0.5" cx="40.40341932959285mm" cy="49.59151984017708mm" fill="none" stroke="black" stroke-width="0.1mm" /><circle r="0.5" cx="38.88652921280837mm" cy="49.63587997050973mm" fill="none" stroke="black" stroke-width="0.1mm" /><circle r="0.5" cx="37.365976365328436mm" cy="49.439381308750654mm" fill="none" stroke="black" stroke-width="0.1mm" /><circle r="0.5" cx="35.88014631818298mm" cy="49.002044525574085mm" fill="none" stroke="black" stroke-width="0.1mm" /><circle r="0.5" cx="34.46731165038874mm" cy="48.33002758855428mm" fill="none" stroke="black" stroke-width="0.1mm" /><circle r="0.5" cx="33.16464806351011mm" cy="47.435587663683584mm" fill="none" stroke="black" stroke-width="0.1mm" /><circle r="0.5" cx="32.00726021607642mm" cy="46.33688494029084mm" fill="none" stroke="black" stroke-width="0.1mm" /><circle r="0.5" cx="31.027242752316113mm" cy="45.05763060870758mm" fill="none" stroke="black" stroke-width="0.1mm" /><circle r="0.5" cx="30.25280148215626mm" cy="43.62658531593349mm" fill="none" stroke="black" stroke-width="0.1mm" /><circle r="0.5" cx="29.707458532183324mm" cy="42.07691842239257mm" fill="none" stroke="black" stroke-width="0.1mm" /><circle r="0.5" cx="29.409363509804475mm" cy="40.445442176425345mm" fill="none" stroke="black" stroke-width="0.1mm" /><circle r="0.5" cx="29.370730341808873mm" cy="38.771738410005014mm" fill="none" stroke="black" stroke-width="0.1mm" /><circle r="0.5" cx="29.59741651688706mm" cy="37.09719844342308mm" fill="none" stroke="black" stroke-width="0.1mm" /><circle r="0.5" cx="30.08865804760029mm" cy="35.463999481635724mm" fill="none" stroke="black" stroke-width="0.1mm" /><circle r="0.5" cx="30.836969652590348mm" cy="33.914042815427536mm" fill="none" stroke="black" stroke-width="0.1mm" /><circle r="0.5" cx="31.828215537931968mm" cy="32.48788054504569mm" fill="none" stroke="black" stroke-width="0.1mm" /><circle r="0.5" cx="33.04185183026897mm" cy="31.223658276476005mm" fill="none" stroke="black" stroke-width="0.1mm" /><circle r="0.5" cx="34.45133729335973mm" cy="30.15610127195841mm" fill="none" stroke="black" stroke-width="0.1mm" /><circle r="0.5" cx="36.02470455753454mm" cy="29.315570855440484mm" fill="none" stroke="black" stroke-width="0.1mm" /><circle r="0.5" cx="37.72527982309395mm" cy="28.727216487629335mm" fill="none" stroke="black" stroke-width="0.1mm" /><circle r="0.5" cx="39.512534976742174mm" cy="28.410246859786028mm" fill="none" stroke="black" stroke-width="0.1mm" /><circle r="0.5" cx="41.343052392798356mm" cy="28.377340654127472mm" fill="none" stroke="black" stroke-width="0.1mm" /><circle r="0.5" cx="43.171579478482286mm" cy="28.63421434252478mm" fill="none" stroke="black" stroke-width="0.1mm" /><circle r="0.5" cx="44.95214735491155mm" cy="29.179360620774673mm" fill="none" stroke="black" stroke-width="0.1mm" /><circle r="0.5" cx="46.63922601953369mm" cy="30.003966893734983mm" fill="none" stroke="black" stroke-width="0.1mm" /><circle r="0.5" cx="48.18888697341873mm" cy="31.092018739547534mm" fill="none" stroke="black" stroke-width="0.1mm" /><circle r="0.5" cx="49.559943663124415mm" cy="32.42058860082878mm" fill="none" stroke="black" stroke-width="0.1mm" /><circle r="0.5" cx="50.71504020839931mm" cy="33.960305195427054mm" fill="none" stroke="black" stroke-width="0.1mm" /><circle r="0.5" cx="51.6216597712753mm" cy="35.675994431002586mm" fill="none" stroke="black" stroke-width="0.1mm" /><circle r="0.5" cx="52.253025556924655mm" cy="37.527478068580486mm" fill="none" stroke="black" stroke-width="0.1mm" /><circle r="0.5" cx="52.58886979023242mm" cy="39.470512129909714mm" fill="none" stroke="black" stroke-width="0.1mm" /><circle r="0.5" cx="52.61604903355393mm" cy="41.45784319560175mm" fill="none" stroke="black" stroke-width="0.1mm" /><circle r="0.5" cx="52.328987831837495mm" cy="43.44035740038767mm" fill="none" stroke="black" stroke-width="0.1mm" /><circle r="0.5" cx="51.72993680605094mm" cy="45.368294191458844mm" fill="none" stroke="black" stroke-width="0.1mm" /><circle r="0.5" cx="50.829035865120375mm" cy="47.19249485449492mm" fill="none" stroke="black" stroke-width="0.1mm" /><circle r="0.5" cx="49.644178058836886mm" cy="48.86565449188318mm" fill="none" stroke="black" stroke-width="0.1mm" /><circle r="0.5" cx="48.200674628611395mm" cy="50.34354560272485mm" fill="none" stroke="black" stroke-width="0.1mm" /><circle r="0.5" cx="46.530726902505606mm" cy="51.58618168875703mm" fill="none" stroke="black" stroke-width="0.1mm" /><circle r="0.5" cx="44.672715695529355mm" cy="52.55889039799109mm" fill="none" stroke="black" stroke-width="0.1mm" /><circle r="0.5" cx="42.670323685932956mm" cy="53.23326760147865mm" fill="none" stroke="black" stroke-width="0.1mm" /><circle r="0.5" cx="40.571510716922724mm" cy="53.58798644025087mm" fill="none" stroke="black" stroke-width="0.1mm" /><circle r="0.5" cx="38.42736600159485mm" cy="53.60943872123532mm" fill="none" stroke="black" stroke-width="0.1mm" /><circle r="0.5" cx="36.29086467770692mm" cy="53.29219000619977mm" fill="none" stroke="black" stroke-width="0.1mm" /><circle r="0.5" cx="34.21555897199384mm" cy="52.63923423287654mm" fill="none" stroke="black" stroke-width="0.1mm" /><circle r="0.5" cx="32.25423631054383mm" cy="51.66203862397572mm" fill="none" stroke="black" stroke-width="0.1mm" /><circle r="0.5" cx="30.457577989652364mm" cy="50.3803748572213mm" fill="none" stroke="black" stroke-width="0.1mm" /><circle r="0.5" cx="28.872852457674703mm" cy="48.821937858051555mm" fill="none" stroke="black" stroke-width="0.1mm" /><circle r="0.5" cx="27.542676830885235mm" cy="47.021759000438244mm" fill="none" stroke="black" stroke-width="0.1mm" /><circle r="0.5" cx="26.503878975293112mm" cy="45.021425822061275mm" fill="none" stroke="black" stroke-width="0.1mm" /><circle r="0.5" cx="25.78649035396735mm" cy="42.868125440446384mm" fill="none" stroke="black" stroke-width="0.1mm" /><circle r="0.5" cx="25.412896909730676mm" cy="40.61353356375515mm" fill="none" stroke="black" stroke-width="0.1mm" /><circle r="0.5" cx="25.397171591083282mm" cy="38.31257519879142mm" fill="none" stroke="black" stroke-width="0.1mm" /><circle r="0.5" cx="25.744607819437967mm" cy="36.0220867558015mm" fill="none" stroke="black" stroke-width="0.1mm" /><circle r="0.5" cx="26.45146834029787mm" cy="33.799412135446524mm" fill="none" stroke="black" stroke-width="0.1mm" /><circle r="0.5" cx="27.504958617168953mm" cy="31.700967475582566mm" fill="none" stroke="black" stroke-width="0.1mm" /><circle r="0.5" cx="28.883428344394304mm" cy="29.7808104711879mm" fill="none" stroke="black" stroke-width="0.1mm" /><circle r="0.5" cx="30.556798912508306mm" cy="28.08925051807425mm" fill="none" stroke="black" stroke-width="0.1mm" /><circle r="0.5" cx="32.48720890162913mm" cy="26.671535350527495mm" fill="none" stroke="black" stroke-width="0.1mm" /><circle r="0.5" cx="34.62986405140682mm" cy="25.56664834857731mm" fill="none" stroke="black" stroke-width="0.1mm" /><circle r="0.5" cx="36.93407280504021mm" cy="24.80624830941335mm" fill="none" stroke="black" stroke-width="0.1mm" /><circle r="0.5" cx="39.34444358941244mm" cy="24.413780259712226mm" fill="none" stroke="black" stroke-width="0.1mm" /><circle r="0.5" cx="41.80221560401202mm" cy="24.403781903401892mm" fill="none" stroke="black" stroke-width="0.1mm" /><circle r="0.5" cx="44.246691166103936mm" cy="24.781405645075708mm" fill="none" stroke="black" stroke-width="0.1mm" /><circle r="0.5" cx="46.61673470110082mm" cy="25.54217091347228mm" fill="none" stroke="black" stroke-width="0.1mm" /><circle r="0.5" cx="48.852301359378714mm" cy="26.671955858313627mm" fill="none" stroke="black" stroke-width="0.1mm" /><circle r="0.5" cx="50.89595704727658mm" cy="28.14723154600992mm" fill="none" stroke="black" stroke-width="0.1mm" /><circle r="0.5" cx="52.69435142152622mm" cy="29.935535683068174mm" fill="none" stroke="black" stroke-width="0.1mm" /><circle r="0.5" cx="54.19960612983026mm" cy="31.996176803696514mm" fill="none" stroke="black" stroke-width="0.1mm" /><circle r="0.5" cx="55.3705822781385mm" cy="34.28115392487493mm" fill="none" stroke="black" stroke-width="0.1mm" /><circle r="0.5" cx="56.17399373514067mm" cy="36.73627105052681mm" fill="none" stroke="black" stroke-width="0.1mm" /><circle r="0.5" cx="56.58533639030624mm" cy="39.302420742580054mm" fill="none" stroke="black" stroke-width="0.1mm" /><circle r="0.5" cx="56.58960778427951mm" cy="41.91700640681548mm" fill="none" stroke="black" stroke-width="0.1mm" /><circle r="0.5" cx="56.18179652928656mm" cy="44.51546908800939mm" fill="none" stroke="black" stroke-width="0.1mm" /><circle r="0.5" cx="55.36712651335331mm" cy="47.03288153764818mm" fill="none" stroke="black" stroke-width="0.1mm" /><circle r="0.5" cx="54.1610469005417mm" cy="49.405570194340015mm" fill="none" stroke="black" stroke-width="0.1mm" /><circle r="0.5" cx="52.58896525237447mm" cy="51.57272456574109mm" fill="none" stroke="black" stroke-width="0.1mm" /><circle r="0.5" cx="50.68572754637195mm" cy="53.47795336112671mm" fill="none" stroke="black" stroke-width="0.1mm" /><circle r="0.5" cx="48.49485529423609mm" cy="55.07074761018803mm" fill="none" stroke="black" stroke-width="0.1mm" /><circle r="0.5" cx="46.06755620165695mm" cy="56.30781290485433mm" fill="none" stroke="black" stroke-width="0.1mm" /><circle r="0.5" cx="43.46153070398657mm" cy="57.15423577969469mm" fill="none" stroke="black" stroke-width="0.1mm" /><circle r="0.5" cx="40.73960210425232mm" cy="57.5844530403247mm" fill="none" stroke="black" stroke-width="0.1mm" /><circle r="0.5" cx="37.96820279038104mm" cy="57.582997471960915mm" fill="none" stroke="black" stroke-width="0.1mm" /><circle r="0.5" cx="35.21575299008513mm" cy="57.14499870364883mm" fill="none" stroke="black" stroke-width="0.1mm" /><circle r="0.5" cx="32.550971625804436mm" cy="56.2764239401789mm" fill="none" stroke="black" stroke-width="0.1mm" /><circle r="0.5" cx="30.041160970698662mm" cy="54.99404965939702mm" fill="none" stroke="black" stroke-width="0.1mm" /><circle r="0.5" cx="27.750507915794387mm" cy="53.32516205075885mm" fill="none" stroke="black" stroke-width="0.1mm" /><circle r="0.5" cx="25.73844469927279mm" cy="51.30699077581207mm" fill="none" stroke="black" stroke-width="0.1mm" /><circle r="0.5" cx="24.058110909454186mm" cy="48.98588739216868mm" fill="none" stroke="black" stroke-width="0.1mm" /><circle r="0.5" cx="22.75495646842983mm" cy="46.41626632818881mm" fill="none" stroke="black" stroke-width="0.1mm" /><circle r="0.5" cx="21.865522175751277mm" cy="43.659332458499925mm" fill="none" stroke="black" stroke-width="0.1mm" /><circle r="0.5" cx="21.41643030965682mm" cy="40.78162495108467mm" fill="none" stroke="black" stroke-width="0.1mm" /><circle r="0.5" cx="21.42361284035768mm" cy="37.853411987577545mm" fill="none" stroke="black" stroke-width="0.1mm" /><circle r="0.5" cx="21.891799121988907mm" cy="34.94697506817964mm" fill="none" stroke="black" stroke-width="0.1mm" /><circle r="0.5" cx="22.814278632995517mm" cy="32.134824789257046mm" fill="none" stroke="black" stroke-width="0.1mm" /><circle r="0.5" cx="24.17294758174767mm" cy="29.48789213573733mm" fill="none" stroke="black" stroke-width="0.1mm" /><circle r="0.5" cx="25.938641150856792mm" cy="27.073740397329857mm" fill="none" stroke="black" stroke-width="0.1mm" /><circle r="0.5" cx="28.07174599474783mm" cy="24.954842759672275mm" fill="none" stroke="black" stroke-width="0.1mm" /><circle r="0.5" cx="30.523080509898747mm" cy="23.186969429096393mm" fill="none" stroke="black" stroke-width="0.1mm" /><circle r="0.5" cx="33.23502354527935mm" cy="21.817725841713987mm" fill="none" stroke="black" stroke-width="0.1mm" /><circle r="0.5" cx="36.14286578698673mm" cy="20.885280131197245mm" fill="none" stroke="black" stroke-width="0.1mm" /><circle r="0.5" cx="39.17635220208299mm" cy="20.41731365963835mm" fill="none" stroke="black" stroke-width="0.1mm" /><circle r="0.5" cx="42.261378815225974mm" cy="20.43022315267628mm" fill="none" stroke="black" stroke-width="0.1mm" /><circle r="0.5" cx="45.32180285372587mm" cy="20.928596947626648mm" fill="none" stroke="black" stroke-width="0.1mm" /><circle r="0.5" cx="48.28132204729037mm" cy="21.904981206169943mm" fill="none" stroke="black" stroke-width="0.1mm" /><circle r="0.5" cx="51.06537669922402mm" cy="23.33994482289237mm" fill="none" stroke="black" stroke-width="0.1mm" /><circle r="0.5" cx="53.60302712113469mm" cy="25.20244435247244mm" fill="none" stroke="black" stroke-width="0.1mm" /><circle r="0.5" cx="55.82875917992825mm" cy="27.450482765307747mm" fill="none" stroke="black" stroke-width="0.1mm" /><circle r="0.5" cx="57.684172051261406mm" cy="30.032048411966187mm" fill="none" stroke="black" stroke-width="0.1mm" /><circle r="0.5" cx="59.119504785001865mm" cy="32.88631341874751mm" fill="none" stroke="black" stroke-width="0.1mm" /><circle r="0.5" cx="60.09496191335679mm" cy="35.945064032473404mm" fill="none" stroke="black" stroke-width="0.1mm" /><circle r="0.5" cx="60.581802990380126mm" cy="39.13432935525067mm" fill="none" stroke="black" stroke-width="0.1mm" /><circle r="0.5" cx="60.563166535005124mm" cy="42.3761696180295mm" fill="none" stroke="black" stroke-width="0.1mm" /><circle r="0.5" cx="60.03460522673561mm" cy="45.5905807756314mm" fill="none" stroke="black" stroke-width="0.1mm" /><circle r="0.5" cx="59.004316220655625mm" cy="48.6974688838378mm" fill="none" stroke="black" stroke-width="0.1mm" /><circle r="0.5" cx="57.49305793596292mm" cy="51.618645534185376mm" fill="none" stroke="black" stroke-width="0.1mm" /><circle r="0.5" cx="55.5337524459119mm" cy="54.279794639599245mm" fill="none" stroke="black" stroke-width="0.1mm" /><circle r="0.5" cx="53.17078046413233mm" cy="56.612361119528785mm" fill="none" stroke="black" stroke-width="0.1mm" /><circle r="0.5" cx="50.45898368596635mm" cy="58.55531353161921mm" fill="none" stroke="black" stroke-width="0.1mm" /><circle r="0.5" cx="47.46239670778429mm" cy="60.05673541171772mm" fill="none" stroke="black" stroke-width="0.1mm" /><circle r="0.5" cx="44.2527377220399mm" cy="61.07520395791083mm" fill="none" stroke="black" stroke-width="0.1mm" /><circle r="0.5" cx="40.90769349158163mm" cy="61.5809196403986mm" fill="none" stroke="black" stroke-width="0.1mm" /><circle r="0.5" cx="37.509039579166945mm" cy="61.556556222686524mm" fill="none" stroke="black" stroke-width="0.1mm" /><circle r="0.5" cx="34.14064130246305mm" cy="60.99780740109786mm" fill="none" stroke="black" stroke-width="0.1mm" /><circle r="0.5" cx="30.88638427961476mm" cy="59.913613647481185mm" fill="none" stroke="black" stroke-width="0.1mm" /><circle r="0.5" cx="27.828085630853245mm" cy="58.3260606948182mm" fill="none" stroke="black" stroke-width="0.1mm" /><circle r="0.5" cx="25.043437841936182mm" cy="56.26994924429623mm" fill="none" stroke="black" stroke-width="0.1mm" /><circle r="0.5" cx="22.60403694087067mm" cy="53.79204369357239mm" fill="none" stroke="black" stroke-width="0.1mm" /><circle r="0.5" cx="20.57354498802297mm" cy="50.95001578389888mm" fill="none" stroke="black" stroke-width="0.1mm" /><circle r="0.5" cx="19.00603396156642mm" cy="47.81110683431609mm" fill="none" stroke="black" stroke-width="0.1mm" /><circle r="0.5" cx="17.944553997535127mm" cy="44.450539476553196mm" fill="none" stroke="black" stroke-width="0.1mm" /><circle r="0.5" cx="17.419963709582927mm" cy="40.949716338413914mm" fill="none" stroke="black" stroke-width="0.1mm" /><circle r="0.5" cx="17.450054089632083mm" cy="37.39424877636338mm" fill="none" stroke="black" stroke-width="0.1mm" /><circle r="0.5" cx="18.0389904245399mm" cy="33.87186338055749mm" fill="none" stroke="black" stroke-width="0.1mm" /><circle r="0.5" cx="19.177088925693266mm" cy="30.470237443067298mm" fill="none" stroke="black" stroke-width="0.1mm" /><circle r="0.5" cx="20.840936546326528mm" cy="27.27481679589185mm" fill="none" stroke="black" stroke-width="0.1mm" /><circle r="0.5" cx="22.99385395731946mm" cy="24.366670323471595mm" fill="none" stroke="black" stroke-width="0.1mm" /><circle r="0.5" cx="25.58669307698757mm" cy="21.820435001270116mm" fill="none" stroke="black" stroke-width="0.1mm" /><circle r="0.5" cx="28.558952118168605mm" cy="19.702403507665142mm" fill="none" stroke="black" stroke-width="0.1mm" /><circle r="0.5" cx="31.84018303915213mm" cy="18.06880333485055mm" fill="none" stroke="black" stroke-width="0.1mm" /><circle r="0.5" cx="35.351658768933525mm" cy="16.964311952981078mm" fill="none" stroke="black" stroke-width="0.1mm" /><circle r="0.5" cx="39.00826081475382mm" cy="16.42084705956445mm" fill="none" stroke="black" stroke-width="0.1mm" /><circle r="0.5" cx="42.72054202644021mm" cy="16.45666440195069mm" fill="none" stroke="black" stroke-width="0.1mm" /><circle r="0.5" cx="46.39691454134808mm" cy="17.07578825017766mm" fill="none" stroke="black" stroke-width="0.1mm" /><circle r="0.5" cx="49.94590939348018mm" cy="18.26779149886772mm" fill="none" stroke="black" stroke-width="0.1mm" /><circle r="0.5" cx="53.278452039069556mm" cy="20.007933787471266mm" fill="none" stroke="black" stroke-width="0.1mm" /><circle r="0.5" cx="56.310097194993006mm" cy="22.257657158935157mm" fill="none" stroke="black" stroke-width="0.1mm" /><circle r="0.5" cx="58.96316693833045mm" cy="24.96542984754754mm" fill="none" stroke="black" stroke-width="0.1mm" /><circle r="0.5" cx="61.168737972692696mm" cy="28.06792002023611mm" fill="none" stroke="black" stroke-width="0.1mm" /><circle r="0.5" cx="62.86842729186532mm" cy="31.491472912620367mm" fill="none" stroke="black" stroke-width="0.1mm" /><circle r="0.5" cx="64.01593009157297mm" cy="35.15385701442027mm" fill="none" stroke="black" stroke-width="0.1mm" /><circle r="0.5" cx="64.57826959045403mm" cy="38.966237967921565mm" fill="none" stroke="black" stroke-width="0.1mm" /><circle r="0.5" cx="64.5367252857307mm" cy="42.835332829243804mm" fill="none" stroke="black" stroke-width="0.1mm" /><circle r="0.5" cx="63.88741392418457mm" cy="46.66569246325368mm" fill="none" stroke="black" stroke-width="0.1mm" /><circle r="0.5" cx="62.641505927957816mm" cy="50.36205623002767mm" fill="none" stroke="black" stroke-width="0.1mm" /><circle r="0.5" cx="60.825068971383985mm" cy="53.83172087403098mm" fill="none" stroke="black" stroke-width="0.1mm" /><circle r="0.5" cx="58.47853963944914mm" cy="56.98686471345761mm" fill="none" stroke="black" stroke-width="0.1mm" /><circle r="0.5" cx="55.65583338189248mm" cy="59.74676887793103mm" fill="none" stroke="black" stroke-width="0.1mm" /><circle r="0.5" cx="52.42311207769637mm" cy="62.03987945305053mm" fill="none" stroke="black" stroke-width="0.1mm" /><circle r="0.5" cx="48.85723721391138mm" cy="63.805657918581204mm" fill="none" stroke="black" stroke-width="0.1mm" /><circle r="0.5" cx="45.04394474009297mm" cy="64.99617213612703mm" fill="none" stroke="black" stroke-width="0.1mm" /><circle r="0.5" cx="41.07578487891067mm" cy="65.57738624047249mm" fill="none" stroke="black" stroke-width="0.1mm" /><circle r="0.5" cx="37.04987636795258mm" cy="65.53011497341208mm" fill="none" stroke="black" stroke-width="0.1mm" /><circle r="0.5" cx="33.065529614840706mm" cy="64.85061609854681mm" fill="none" stroke="black" stroke-width="0.1mm" /><circle r="0.5" cx="29.221796933424823mm" cy="63.55080335478335mm" fill="none" stroke="black" stroke-width="0.1mm" /><circle r="0.5" cx="25.615010291007586mm" cy="61.65807173023923mm" fill="none" stroke="black" stroke-width="0.1mm" /><circle r="0.5" cx="22.336367768077764mm" cy="59.21473643783342mm" fill="none" stroke="black" stroke-width="0.1mm" /><circle r="0.5" cx="19.46962918246838mm" cy="56.27709661133248mm" fill="none" stroke="black" stroke-width="0.1mm" /><circle r="0.5" cx="17.088979066591612mm" cy="52.914144175628834mm" fill="none" stroke="black" stroke-width="0.1mm" /><circle r="0.5" cx="15.257111454702908mm" cy="49.20594734044311mm" fill="none" stroke="black" stroke-width="0.1mm" /><circle r="0.5" cx="14.023585819318917mm" cy="45.24174649460619mm" fill="none" stroke="black" stroke-width="0.1mm" /><circle r="0.5" cx="13.423497109509022mm" cy="41.11780772574288mm" fill="none" stroke="black" stroke-width="0.1mm" /><circle r="0.5" cx="13.476495338906524mm" cy="36.93508556514894mm" fill="none" stroke="black" stroke-width="0.1mm" /><circle r="0.5" cx="14.186181727090965mm" cy="32.796751692935075mm" fill="none" stroke="black" stroke-width="0.1mm" /><circle r="0.5" cx="15.539899218391131mm" cy="28.805650096877297mm" fill="none" stroke="black" stroke-width="0.1mm" /><circle r="0.5" cx="17.50892551090554mm" cy="25.061741456046136mm" fill="none" stroke="black" stroke-width="0.1mm" /><circle r="0.5" cx="20.049066763782314mm" cy="21.65960024961313mm" fill="none" stroke="black" stroke-width="0.1mm" /><circle r="0.5" cx="23.10164015922753mm" cy="18.686027242867777mm" fill="none" stroke="black" stroke-width="0.1mm" /><circle r="0.5" cx="26.59482372643871mm" cy="16.217837586233752mm" fill="none" stroke="black" stroke-width="0.1mm" /><circle r="0.5" cx="30.445342533025176mm" cy="14.319880827987017mm" fill="none" stroke="black" stroke-width="0.1mm" /><circle r="0.5" cx="34.5604517508806mm" cy="13.043343774764853mm" fill="none" stroke="black" stroke-width="0.1mm" /><circle r="0.5" cx="38.840169427424925mm" cy="12.424380459490546mm" fill="none" stroke="black" stroke-width="0.1mm" /><circle r="0.5" cx="43.179705237654716mm" cy="12.483105651225138mm" fill="none" stroke="black" stroke-width="0.1mm" /><circle r="0.5" cx="47.47202622897057mm" cy="13.222979552728749mm" fill="none" stroke="black" stroke-width="0.1mm" /><circle r="0.5" cx="51.61049673967024mm" cy="14.630601791565617mm" fill="none" stroke="black" stroke-width="0.1mm" /><circle r="0.5" cx="55.49152737891533mm" cy="16.67592275205032mm" fill="none" stroke="black" stroke-width="0.1mm" /><circle r="0.5" cx="59.01716726885152mm" cy="19.312869965398058mm" fill="none" stroke="black" stroke-width="0.1mm" /><circle r="0.5" cx="62.097574696732835mm" cy="22.480376929787553mm" fill="none" stroke="black" stroke-width="0.1mm" /><circle r="0.5" cx="64.65330389412412mm" cy="26.103791628506276mm" fill="none" stroke="black" stroke-width="0.1mm" /><circle r="0.5" cx="66.61734979872888mm" cy="30.09663240649348mm" fill="none" stroke="black" stroke-width="0.1mm" /><circle r="0.5" cx="67.93689826978921mm" cy="34.362649996367416mm" fill="none" stroke="black" stroke-width="0.1mm" /><circle r="0.5" cx="68.57473619052794mm" cy="38.79814658059275mm" fill="none" stroke="black" stroke-width="0.1mm" /><circle r="0.5" cx="68.51028403645626mm" cy="43.29449604045839mm" fill="none" stroke="black" stroke-width="0.1mm" /><circle r="0.5" cx="67.74022262163348mm" cy="47.74080415087623mm" fill="none" stroke="black" stroke-width="0.1mm" /><circle r="0.5" cx="66.2786956352599mm" cy="52.0266435762178mm" fill="none" stroke="black" stroke-width="0.1mm" /><circle r="0.5" cx="64.15708000680489mm" cy="56.04479621387681mm" fill="none" stroke="black" stroke-width="0.1mm" /><circle r="0.5" cx="61.423326832986184mm" cy="59.69393478731618mm" fill="none" stroke="black" stroke-width="0.1mm" /><circle r="0.5" cx="58.14088629965241mm" cy="62.88117663633346mm" fill="none" stroke="black" stroke-width="0.1mm" /><circle r="0.5" cx="54.387240469426146mm" cy="65.52444537448199mm" fill="none" stroke="black" stroke-width="0.1mm" /><circle r="0.5" cx="50.2520777200382mm" cy="67.55458042544478mm" fill="none" stroke="black" stroke-width="0.1mm" /><circle r="0.5" cx="45.835151758145756mm" cy="68.91714031434327mm" fill="none" stroke="black" stroke-width="0.1mm" /><circle r="0.5" cx="41.24387626623941mm" cy="69.57385284054641mm" fill="none" stroke="black" stroke-width="0.1mm" /><circle r="0.5" cx="36.59071315673792mm" cy="69.50367372413763mm" fill="none" stroke="black" stroke-width="0.1mm" /><circle r="0.5" cx="31.99041792721809mm" cy="68.70342479599569mm" fill="none" stroke="black" stroke-width="0.1mm" /><circle r="0.5" cx="27.55720958723463mm" cy="67.18799306208538mm" fill="none" stroke="black" stroke-width="0.1mm" /><circle r="0.5" cx="23.401934951161692mm" cy="64.99008276566009mm" fill="none" stroke="black" stroke-width="0.1mm" /><circle r="0.5" cx="19.62929769421914mm" cy="62.15952363137042mm" fill="none" stroke="black" stroke-width="0.1mm" /><circle r="0.5" cx="16.33522142406591mm" cy="58.762149529092355mm" fill="none" stroke="black" stroke-width="0.1mm" /><circle r="0.5" cx="13.60441314516012mm" cy="54.87827256735855mm" fill="none" stroke="black" stroke-width="0.1mm" /><circle r="0.5" cx="11.508188947839301mm" cy="50.600787846569865mm" fill="none" stroke="black" stroke-width="0.1mm" /><circle r="0.5" cx="10.10261764110265mm" cy="46.03295351265891mm" fill="none" stroke="black" stroke-width="0.1mm" /><circle r="0.5" cx="9.427030509435106mm" cy="41.28589911307156mm" fill="none" stroke="black" stroke-width="0.1mm" /><circle r="0.5" cx="9.50293658818099mm" cy="36.475922353934216mm" fill="none" stroke="black" stroke-width="0.1mm" /><circle r="0.5" cx="10.333373029642111mm" cy="31.721640005312388mm" fill="none" stroke="black" stroke-width="0.1mm" /><circle r="0.5" cx="11.902709511089114mm" cy="27.14106275068704mm" fill="none" stroke="black" stroke-width="0.1mm" /><circle r="0.5" cx="14.176914475484711mm" cy="22.848666116200185mm" fill="none" stroke="black" stroke-width="0.1mm" /><circle r="0.5" cx="17.10427957024536mm" cy="18.952530175754454mm" fill="none" stroke="black" stroke-width="0.1mm" /><circle r="0.5" cx="20.61658724146771mm" cy="15.551619484465267mm" fill="none" stroke="black" stroke-width="0.1mm" /><circle r="0.5" cx="24.63069533470906mm" cy="12.733271664802224mm" fill="none" stroke="black" stroke-width="0.1mm" /><circle r="0.5" cx="29.050502026898492mm" cy="10.570958321123381mm" fill="none" stroke="black" stroke-width="0.1mm" /><circle r="0.5" cx="33.76924473282796mm" cy="9.122375596548576mm" fill="none" stroke="black" stroke-width="0.1mm" /><circle r="0.5" cx="38.672078040096316mm" cy="8.427913859416623mm" fill="none" stroke="black" stroke-width="0.1mm" /><circle r="0.5" cx="43.63886844886951mm" cy="8.509546900499611mm" fill="none" stroke="black" stroke-width="0.1mm" /><circle r="0.5" cx="48.54713791659333mm" cy="9.370170855279909mm" fill="none" stroke="black" stroke-width="0.1mm" /><circle r="0.5" cx="53.27508408586056mm" cy="10.993412084263628mm" fill="none" stroke="black" stroke-width="0.1mm" /><circle r="0.5" cx="57.704602718761336mm" cy="13.343911716629531mm" fill="none" stroke="black" stroke-width="0.1mm" /><circle r="0.5" cx="61.724237342710246mm" cy="16.368082771861154mm" fill="none" stroke="black" stroke-width="0.1mm" /><circle r="0.5" cx="65.2319824551354mm" cy="19.99532401202779mm" fill="none" stroke="black" stroke-width="0.1mm" /><circle r="0.5" cx="68.13786981555567mm" cy="24.13966323677669mm" fill="none" stroke="black" stroke-width="0.1mm" /><circle r="0.5" cx="70.36627230559253mm" cy="28.70179190036686mm" fill="none" stroke="black" stroke-width="0.1mm" /><circle r="0.5" cx="71.85786644800551mm" cy="33.571442978314835mm" fill="none" stroke="black" stroke-width="0.1mm" /><circle r="0.5" cx="72.57120279060186mm" cy="38.63005519326421mm" fill="none" stroke="black" stroke-width="0.1mm" /><circle r="0.5" cx="72.48384278718176mm" cy="43.75365925167325mm" fill="none" stroke="black" stroke-width="0.1mm" /><circle r="0.5" cx="71.59303131908229mm" cy="48.81591583849905mm" fill="none" stroke="black" stroke-width="0.1mm" /><circle r="0.5" cx="69.91588534256185mm" cy="53.69123092240818mm" fill="none" stroke="black" stroke-width="0.1mm" /><circle r="0.5" cx="67.48909104222564mm" cy="58.25787155372288mm" fill="none" stroke="black" stroke-width="0.1mm" /><circle r="0.5" cx="64.36811402652305mm" cy="62.40100486117496mm" fill="none" stroke="black" stroke-width="0.1mm" /><circle r="0.5" cx="60.62593921741212mm" cy="66.01558439473605mm" fill="none" stroke="black" stroke-width="0.1mm" /><circle r="0.5" cx="56.35136886115567mm" cy="69.0090112959136mm" fill="none" stroke="black" stroke-width="0.1mm" /><circle r="0.5" cx="51.64691822616476mm" cy="71.30350293230848mm" fill="none" stroke="black" stroke-width="0.1mm" /><circle r="0.5" cx="46.626358776198266mm" cy="72.83810849255958mm" fill="none" stroke="black" stroke-width="0.1mm" /><circle r="0.5" cx="41.41196765356788mm" cy="73.57031944062034mm" fill="none" stroke="black" stroke-width="0.1mm" /><circle r="0.5" cx="36.13154994552299mm" cy="73.47723247486314mm" fill="none" stroke="black" stroke-width="0.1mm" /><circle r="0.5" cx="30.915306239595196mm" cy="72.55623349344448mm" fill="none" stroke="black" stroke-width="0.1mm" /><circle r="0.5" cx="25.89262224104418mm" cy="70.82518276938733mm" fill="none" stroke="black" stroke-width="0.1mm" /><circle r="0.5" cx="21.18885961131557mm" cy="68.32209380108081mm" fill="none" stroke="black" stroke-width="0.1mm" /><circle r="0.5" cx="16.922227620360314mm" cy="65.10431082490723mm" fill="none" stroke="black" stroke-width="0.1mm" /><circle r="0.5" cx="13.200813665663269mm" cy="61.247202446852015mm" fill="none" stroke="black" stroke-width="0.1mm" /><circle r="0.5" cx="10.119847223728488mm" cy="56.84240095908801mm" fill="none" stroke="black" stroke-width="0.1mm" /><circle r="0.5" cx="7.759266440975594mm" cy="51.99562835269635mm" fill="none" stroke="black" stroke-width="0.1mm" /><circle r="0.5" cx="6.181649462886327mm" cy="46.82416053071135mm" fill="none" stroke="black" stroke-width="0.1mm" /><circle r="0.5" cx="5.430563909361176mm" cy="41.453990500399954mm" fill="none" stroke="black" stroke-width="0.1mm" /><circle r="0.5" cx="5.529377837455492mm" cy="36.01675914271921mm" fill="none" stroke="black" stroke-width="0.1mm" /><circle r="0.5" cx="6.480564332193332mm" cy="30.64652831768943mm" fill="none" stroke="black" stroke-width="0.1mm" /><circle r="0.5" cx="8.265519803787214mm" cy="25.476475404496526mm" fill="none" stroke="black" stroke-width="0.1mm" /><circle r="0.5" cx="10.84490344006404mm" cy="20.635590776354004mm" fill="none" stroke="black" stroke-width="0.1mm" /><circle r="0.5" cx="14.159492376708599mm" cy="16.24546010189557mm" fill="none" stroke="black" stroke-width="0.1mm" /><circle r="0.5" cx="18.131534323708113mm" cy="12.417211726062575mm" fill="none" stroke="black" stroke-width="0.1mm" /><circle r="0.5" cx="22.66656694297966mm" cy="9.248705743370557mm" fill="none" stroke="black" stroke-width="0.1mm" /><circle r="0.5" cx="27.65566152077207mm" cy="6.822035814259657mm" fill="none" stroke="black" stroke-width="0.1mm" /><circle r="0.5" cx="32.97803771477558mm" cy="5.201407418332238mm" fill="none" stroke="black" stroke-width="0.1mm" /><circle r="0.5" cx="38.50398665276799mm" cy="4.43144725934269mm" fill="none" stroke="black" stroke-width="0.1mm" /><circle r="0.5" cx="44.09803166008459mm" cy="4.535988149774127mm" fill="none" stroke="black" stroke-width="0.1mm" /><circle r="0.5" cx="49.62224960421635mm" cy="5.517362157831151mm" fill="none" stroke="black" stroke-width="0.1mm" /><circle r="0.5" cx="54.93967143205114mm" cy="7.35622237696176mm" fill="none" stroke="black" stroke-width="0.1mm" /><circle r="0.5" cx="59.917678058607585mm" cy="10.011900681208896mm" fill="none" stroke="black" stroke-width="0.1mm" /><circle r="0.5" cx="64.43130741656918mm" cy="13.423295578324439mm" fill="none" stroke="black" stroke-width="0.1mm" /><circle r="0.5" cx="68.36639021353812mm" cy="17.510271094268248mm" fill="none" stroke="black" stroke-width="0.1mm" /><circle r="0.5" cx="71.62243573698738mm" cy="22.17553484504735mm" fill="none" stroke="black" stroke-width="0.1mm" /><circle r="0.5" cx="74.1151948124563mm" cy="27.306951394240503mm" fill="none" stroke="black" stroke-width="0.1mm" /><circle r="0.5" cx="75.77883462622185mm" cy="32.78023596026253mm" fill="none" stroke="black" stroke-width="0.1mm" /><circle r="0.5" cx="76.56766939067579mm" cy="38.46196380593595mm" fill="none" stroke="black" stroke-width="0.1mm" /><circle r="0.5" cx="76.45740153790724mm" cy="44.2128224628884mm" fill="none" stroke="black" stroke-width="0.1mm" /><circle r="0.5" cx="75.44584001653104mm" cy="49.89102752612215mm" fill="none" stroke="black" stroke-width="0.1mm" /><circle r="0.5" cx="73.5530750498637mm" cy="55.355818268598824mm" fill="none" stroke="black" stroke-width="0.1mm" /><circle r="0.5" cx="70.82110207764623mm" cy="60.47094689356918mm" fill="none" stroke="black" stroke-width="0.1mm" /><text x="72mm" y="145mm" font-size="6" fill="black" stroke-width="0.01mm">VERICITE</text></svg>