<svg width="80mm" height="80mm" fill="none" stroke="black"><circle r="40mm" cx="40mm" cy="40mm" stroke-width="0.1mm" /><circle r="0.5" cx="39.167706326905716mm" cy="41.81859485365136mm" fill="none" stroke="black" stroke-width="0.1mm" /><circle r="0.51" cx="38.35443592683931mm" cy="41.30465278182465mm" fill="none" stroke="black" stroke-width="0.1mm" /><circle r="0.52" cx="37.84346750198128mm" cy="40.43516385992996mm" fill="none" stroke="black" stroke-width="0.1mm" /><circle r="0.53" cx="37.78463499896666mm" cy="39.38181077961797mm" fill="none" stroke="black" stroke-width="0.1mm" /><circle r="0.54" cx="38.23312768387711mm" cy="38.375757955685636mm" fill="none" stroke="black" stroke-width="0.1mm" /><circle r="0.55" cx="39.12822468366974mm" cy="37.65692343321067mm" fill="none" stroke="black" stroke-width="0.1mm" /><circle r="0.56" cx="40.29845608728839mm" cy="37.417186812028305mm" fill="none" stroke="black" stroke-width="0.1mm" /><circle r="0.5700000000000001" cx="41.49382585439496mm" cy="37.75089255109029mm" fill="none" stroke="black" stroke-width="0.1mm" /><circle r="0.5800000000000001" cx="42.4391961450014mm" cy="38.62511012578813mm" fill="none" stroke="black" stroke-width="0.1mm" /><circle r="0.5900000000000001" cx="42.8974382850535mm" cy="39.8781337441854mm" fill="none" stroke="black" stroke-width="0.1mm" /><circle r="0.6000000000000001" cx="42.72789228047704mm" cy="41.248440509641426mm" fill="none" stroke="black" stroke-width="0.1mm" /><circle r="0.6100000000000001" cx="41.92591601126496mm" cy="42.42916601276102mm" fill="none" stroke="black" stroke-width="0.1mm" /><circle r="0.6200000000000001" cx="40.63296561444358mm" cy="43.13677454257268mm" fill="none" stroke="black" stroke-width="0.1mm" /><circle r="0.6300000000000001" cx="39.113032857712746mm" cy="43.17856717539567mm" fill="none" stroke="black" stroke-width="0.1mm" /><circle r="0.6400000000000001" cx="37.69899043722132mm" cy="42.50306911450744mm" fill="none" stroke="black" stroke-width="0.1mm" /><circle r="0.6500000000000001" cx="36.71969280649494mm" cy="41.220485442862376mm" fill="none" stroke="black" stroke-width="0.1mm" /><circle r="0.6600000000000001" cx="36.42379712434688mm" cy="39.58675310990839mm" fill="none" stroke="black" stroke-width="0.1mm" /><circle r="0.6700000000000002" cx="36.917889792234824mm" cy="37.952905310643956mm" fill="none" stroke="black" stroke-width="0.1mm" /><circle r="0.6800000000000002" cx="38.1340780278553mm" cy="36.689662374640974mm" fill="none" stroke="black" stroke-width="0.1mm" /><circle r="0.6900000000000002" cx="39.836110897352754mm" cy="36.10344506492806mm" fill="none" stroke="black" stroke-width="0.1mm" /><circle r="0.7000000000000002" cx="41.66458734618854mm" cy="36.36281029269726mm" fill="none" stroke="black" stroke-width="0.1mm" /><circle r="0.7100000000000002" cx="43.21276795236133mm" cy="37.45282075929471mm" fill="none" stroke="black" stroke-width="0.1mm" /><circle r="0.7200000000000002" cx="44.11701658712664mm" cy="39.16923263104277mm" fill="none" stroke="black" stroke-width="0.1mm" /><circle r="0.7300000000000002" cx="44.141769349758mm" cy="41.155745064192445mm" fill="none" stroke="black" stroke-width="0.1mm" /><circle r="0.7400000000000002" cx="43.23926591289201mm" cy="42.97777708124297mm" fill="none" stroke="black" stroke-width="0.1mm" /><circle r="0.7500000000000002" cx="41.569195569394516mm" cy="44.21753782022078mm" fill="none" stroke="black" stroke-width="0.1mm" /><circle r="0.7600000000000002" cx="39.47196230710521mm" cy="44.56959256333454mm" fill="none" stroke="black" stroke-width="0.1mm" /><circle r="0.7700000000000002" cx="37.3996364756829mm" cy="43.91511296662065mm" fill="none" stroke="black" stroke-width="0.1mm" /><circle r="0.7800000000000002" cx="35.81852089428335mm" cy="42.35695407007755mm" fill="none" stroke="black" stroke-width="0.1mm" /><circle r="0.7900000000000003" cx="35.10432841490962mm" cy="40.20591194947992mm" fill="none" stroke="black" stroke-width="0.1mm" /><circle r="0.8000000000000003" cx="35.45351286587156mm" cy="37.91926581726436mm" fill="none" stroke="black" stroke-width="0.1mm" /><circle r="0.8100000000000003" cx="36.83155752985436mm" cy="36.00363010803838mm" fill="none" stroke="black" stroke-width="0.1mm" /><circle r="0.8200000000000003" cx="38.97143087652909mm" cy="34.90274136831941mm" fill="none" stroke="black" stroke-width="0.1mm" /><circle r="0.8300000000000003" cx="41.424522986097614mm" cy="34.89502847587966mm" fill="none" stroke="black" stroke-width="0.1mm" /><circle r="0.8400000000000003" cx="43.65454459970724mm" cy="36.024537288723415mm" fill="none" stroke="black" stroke-width="0.1mm" /><circle r="0.8500000000000003" cx="45.15476844693649mm" cy="38.08209430407332mm" fill="none" stroke="black" stroke-width="0.1mm" /><circle r="0.8600000000000003" cx="45.56298225101597mm" cy="40.642828495697955mm" fill="none" stroke="black" stroke-width="0.1mm" /><circle r="0.8700000000000003" cx="44.74811572547613mm" cy="43.15363235927814mm" fill="none" stroke="black" stroke-width="0.1mm" /><circle r="0.8800000000000003" cx="42.847986168010415mm" cy="45.05262058607425mm" fill="none" stroke="black" stroke-width="0.1mm" /><circle r="0.8900000000000003" cx="40.247934796312606mm" cy="45.89478823510882mm" fill="none" stroke="black" stroke-width="0.1mm" /><circle r="0.9000000000000004" cx="37.50311898071729mm" cy="45.45578456095415mm" fill="none" stroke="black" stroke-width="0.1mm" /><circle r="0.9100000000000004" cx="35.2200281684381mm" cy="43.78970569958601mm" fill="none" stroke="black" stroke-width="0.1mm" /><circle r="0.9200000000000004" cx="33.922499323765464mm" cy="41.2263708779846mm" fill="none" stroke="black" stroke-width="0.1mm" /><circle r="0.9300000000000004" cx="33.931826301517326mm" cy="38.30669909199723mm" fill="none" stroke="black" stroke-width="0.1mm" /><circle r="0.9400000000000004" cx="35.288340490338825mm" cy="35.6686878818285mm" fill="none" stroke="black" stroke-width="0.1mm" /><circle r="0.9500000000000004" cx="37.73338417754115mm" cy="33.90800092634782mm" fill="none" stroke="black" stroke-width="0.1mm" /><circle r="0.9600000000000004" cx="40.7576192985011mm" cy="33.443628061302604mm" fill="none" stroke="black" stroke-width="0.1mm" /><circle r="0.9700000000000004" cx="43.706901194239165mm" cy="34.418881515668375mm" fill="none" stroke="black" stroke-width="0.1mm" /><circle r="0.9800000000000004" cx="45.92376206643185mm" cy="36.660981734056705mm" fill="none" stroke="black" stroke-width="0.1mm" /><circle r="0.9900000000000004" cx="46.893904885127256mm" cy="39.710042356854686mm" fill="none" stroke="black" stroke-width="0.1mm" /><circle r="1.0000000000000004" cx="46.36508198777987mm" cy="42.913027855829775mm" fill="none" stroke="black" stroke-width="0.1mm" /><circle r="1.0100000000000005" cx="44.41096892902638mm" cy="45.563573771162176mm" fill="none" stroke="black" stroke-width="0.1mm" /><circle r="1.0200000000000005" cx="41.424172632498305mm" cy="47.057742720788475mm" fill="none" stroke="black" stroke-width="0.1mm" /><circle r="1.0300000000000005" cx="38.03792117009209mm" cy="47.03137587284502mm" fill="none" stroke="black" stroke-width="0.1mm" /><circle r="1.0400000000000005" cx="34.99192036336425mm" cy="45.44785630804578mm" fill="none" stroke="black" stroke-width="0.1mm" /><circle r="1.0500000000000005" cx="32.97077029963212mm" cy="42.61532594899105mm" fill="none" stroke="black" stroke-width="0.1mm" /><circle r="1.0600000000000005" cx="32.450238373621175mm" cy="39.12758989869577mm" fill="none" stroke="black" stroke-width="0.1mm" /><circle r="1.0700000000000005" cx="33.585878756812875mm" cy="35.73982997079982mm" fill="none" stroke="black" stroke-width="0.1mm" /><circle r="1.0800000000000005" cx="36.1699496361238mm" cy="33.205096453210565mm" fill="none" stroke="black" stroke-width="0.1mm" /><circle r="1.0900000000000005" cx="39.668019510021956mm" cy="32.1069784648543mm" fill="none" stroke="black" stroke-width="0.1mm" /><circle r="1.1000000000000005" cx="43.32917469237682mm" cy="32.72562058539441mm" fill="none" stroke="black" stroke-width="0.1mm" /><circle r="1.1100000000000005" cx="46.347175710762436mm" cy="34.967767841533224mm" fill="none" stroke="black" stroke-width="0.1mm" /><circle r="1.1200000000000006" cx="48.037984765342415mm" cy="38.37802561298797mm" fill="none" stroke="black" stroke-width="0.1mm" /><circle r="1.1300000000000006" cx="47.99457804720737mm" cy="42.23085675181303mm" fill="none" stroke="black" stroke-width="0.1mm" /><circle r="1.1400000000000006" cx="46.18405310643037mm" cy="45.6848471551mm" fill="none" stroke="black" stroke-width="0.1mm" /><circle r="1.1500000000000006" cx="42.964036075523204mm" cy="47.96646032708359mm" fill="none" stroke="black" stroke-width="0.1mm" /><circle r="1.1600000000000006" cx="39.01279909589257mm" cy="48.54315131406024mm" fill="none" stroke="black" stroke-width="0.1mm" /><circle r="1.1700000000000006" cx="35.18656113583872mm" cy="47.24712400204257mm" fill="none" stroke="black" stroke-width="0.1mm" /><circle r="1.1800000000000006" cx="32.33395497285291mm" cy="44.32108246180898mm" fill="none" stroke="black" stroke-width="0.1mm" /><circle r="1.1900000000000006" cx="31.107861814835857mm" cy="40.374003336810595mm" fill="none" stroke="black" stroke-width="0.1mm" /><circle r="1.2000000000000006" cx="31.816323158568775mm" cy="36.254678471075955mm" fill="none" stroke="black" stroke-width="0.1mm" /><circle r="1.2100000000000006" cx="34.34650461209302mm" cy="32.869222349637155mm" fill="none" stroke="black" stroke-width="0.1mm" /><circle r="1.2200000000000006" cx="38.18022385847451mm" cy="30.981773190103596mm" fill="none" stroke="black" stroke-width="0.1mm" /><circle r="1.2300000000000006" cx="42.49963467371845mm" cy="31.042219778430365mm" fill="none" stroke="black" stroke-width="0.1mm" /><circle r="1.2400000000000007" cx="46.361614673564475mm" cy="33.07975009518523mm" fill="none" stroke="black" stroke-width="0.1mm" /><circle r="1.2500000000000007" cx="48.90369095379939mm" cy="36.68725379794489mm" fill="none" stroke="black" stroke-width="0.1mm" /><circle r="1.2600000000000007" cx="49.53654100174163mm" cy="41.10199170691087mm" fill="none" stroke="black" stroke-width="0.1mm" /><circle r="1.2700000000000007" cx="48.0801267608979mm" cy="45.36670769912256mm" fill="none" stroke="black" stroke-width="0.1mm" /><circle r="1.2800000000000007" cx="44.81211455974159mm" cy="48.53718650750484mm" fill="none" stroke="black" stroke-width="0.1mm" /><circle r="1.2900000000000007" cx="40.41602618364299mm" cy="49.89125483518259mm" fill="none" stroke="black" stroke-width="0.1mm" /><circle r="1.3000000000000007" cx="35.8385316345286mm" cy="49.0929742682568mm" fill="none" stroke="black" stroke-width="0.1mm" /><circle r="1.3100000000000007" cx="32.08562041003668mm" cy="46.274758617347096mm" fill="none" stroke="black" stroke-width="0.1mm" /><circle r="1.3200000000000007" cx="30.001531145549585mm" cy="42.017577896038866mm" fill="none" stroke="black" stroke-width="0.1mm" /><circle r="1.3300000000000007" cx="30.079017604068113mm" cy="37.23158740437608mm" fill="none" stroke="black" stroke-width="0.1mm" /><circle r="1.3400000000000007" cx="32.34355329680086mm" cy="32.96161780797102mm" fill="none" stroke="black" stroke-width="0.1mm" /><circle r="1.3500000000000008" cx="36.338543671413035mm" cy="30.15907841948479mm" fill="none" stroke="black" stroke-width="0.1mm" /><circle r="1.3600000000000008" cx="41.21678250971436mm" cy="29.47006931057698mm" fill="none" stroke="black" stroke-width="0.1mm" /><circle r="1.3700000000000008" cx="45.91997653408388mm" cy="31.08687048024681mm" fill="none" stroke="black" stroke-width="0.1mm" /><circle r="1.3800000000000008" cx="49.40832798786261mm" cy="34.69685334232585mm" fill="none" stroke="black" stroke-width="0.1mm" /><circle r="1.3900000000000008" cx="50.89037148520105mm" cy="39.54195096952468mm" fill="none" stroke="black" stroke-width="0.1mm" /><circle r="1.4000000000000008" cx="50.002271695082364mm" cy="44.577615202018805mm" fill="none" stroke="black" stroke-width="0.1mm" /><circle r="1.4100000000000008" cx="46.89602184678717mm" cy="48.697981529563826mm" fill="none" stroke="black" stroke-width="0.1mm" /><circle r="1.4200000000000008" cx="42.21537965055219mm" cy="50.97871089900443mm" fill="none" stroke="black" stroke-width="0.1mm" /><circle r="1.4300000000000008" cx="36.96280948247056mm" cy="50.884184570294124mm" fill="none" stroke="black" stroke-width="0.1mm" /><circle r="1.4400000000000008" cx="32.28485028950647mm" cy="48.39264350158346mm" fill="none" stroke="black" stroke-width="0.1mm" /><circle r="1.4500000000000008" cx="29.221847792768948mm" cy="44.01016645511877mm" fill="none" stroke="black" stroke-width="0.1mm" /><circle r="1.4600000000000009" cx="28.476679622895603mm" cy="38.66842668748209mm" fill="none" stroke="black" stroke-width="0.1mm" /><circle r="1.4700000000000009" cx="30.253867721391543mm" cy="33.526754630954755mm" fill="none" stroke="black" stroke-width="0.1mm" /><circle r="1.4800000000000009" cx="34.20582124439333mm" cy="29.720530531779584mm" fill="none" stroke="black" stroke-width="0.1mm" /><circle r="1.4900000000000009" cx="39.49992812269239mm" cy="28.11051186478049mm" fill="none" stroke="black" stroke-width="0.1mm" /><circle r="1.5000000000000009" cx="44.99376203856626mm" cy="29.0884308780921mm" fill="none" stroke="black" stroke-width="0.1mm" /><circle r="1.510000000000001" cx="49.48158346916437mm" cy="32.4827149237728mm" fill="none" stroke="black" stroke-width="0.1mm" /><circle r="1.520000000000001" cx="51.958952943558465mm" cy="37.58681859493454mm" fill="none" stroke="black" stroke-width="0.1mm" /><circle r="1.530000000000001" cx="51.84738674465635mm" cy="43.30596843943501mm" fill="none" stroke="black" stroke-width="0.1mm" /><circle r="1.540000000000001" cx="49.12884029996775mm" cy="48.391917228958114mm" fill="none" stroke="black" stroke-width="0.1mm" /><circle r="1.550000000000001" cx="44.35887658165053mm" cy="51.715382833946904mm" fill="none" stroke="black" stroke-width="0.1mm" /><circle r="1.560000000000001" cx="38.553635884678485mm" cy="52.51671006478577mm" fill="none" stroke="black" stroke-width="0.1mm" /><circle r="1.570000000000001" cx="32.97348579599334mm" cy="50.57913503746369mm" fill="none" stroke="black" stroke-width="0.1mm" /><circle r="1.580000000000001" cx="28.849389051421756mm" cy="46.28521085353914mm" fill="none" stroke="black" stroke-width="0.1mm" /><circle r="1.590000000000001" cx="27.111395214762034mm" cy="40.54209472413984mm" fill="none" stroke="black" stroke-width="0.1mm" /><circle r="1.600000000000001" cx="28.179133451266587mm" cy="34.59009112488624mm" fill="none" stroke="black" stroke-width="0.1mm" /><circle r="1.610000000000001" cx="31.8614516943328mm" cy="29.73481459123505mm" fill="none" stroke="black" stroke-width="0.1mm" /><circle r="1.620000000000001" cx="37.38901684042132mm" cy="27.060805011887496mm" fill="none" stroke="black" stroke-width="0.1mm" /><circle r="1.630000000000001" cx="43.57474636134064mm" cy="27.189411080981444mm" fill="none" stroke="black" stroke-width="0.1mm" /><circle r="1.640000000000001" cx="49.068684747422736mm" cy="30.134962901647995mm" fill="none" stroke="black" stroke-width="0.1mm" /><circle r="1.650000000000001" cx="52.652613460662785mm" cy="35.292413291817766mm" fill="none" stroke="black" stroke-width="0.1mm" /><circle r="1.660000000000001" cx="53.51009975246714mm" cy="41.56115491812517mm" fill="none" stroke="black" stroke-width="0.1mm" /><circle r="1.670000000000001" cx="51.4121377963189mm" cy="47.57978303896811mm" fill="none" stroke="black" stroke-width="0.1mm" /><circle r="1.680000000000001" cx="46.77624295147157mm" cy="52.0217524289361mm" fill="none" stroke="black" stroke-width="0.1mm" /><circle r="1.690000000000001" cx="40.58411757097202mm" cy="53.887721435256424mm" fill="none" stroke="black" stroke-width="0.1mm" /><circle r="1.700000000000001" cx="34.17394428833869mm" cy="52.73016397555891mm" fill="none" stroke="black" stroke-width="0.1mm" /><circle r="1.710000000000001" cx="28.951212651634442mm" cy="48.75981153510715mm" fill="none" stroke="black" stroke-width="0.1mm" /><circle r="1.720000000000001" cx="26.08056296733345mm" cy="42.808784914091845mm" fill="none" stroke="black" stroke-width="0.1mm" /><circle r="1.730000000000001" cx="26.22620890661925mm" cy="36.15647571675369mm" fill="none" stroke="black" stroke-width="0.1mm" /><circle r="1.740000000000001" cx="29.398766103263775mm" cy="30.2545477341126mm" fill="none" stroke="black" stroke-width="0.1mm" /><circle r="1.750000000000001" cx="34.9437031652861mm" cy="26.41015591262132mm" fill="none" stroke="black" stroke-width="0.1mm" /><circle r="1.7600000000000011" cx="41.67594572092887mm" cy="25.496510559851497mm" fill="none" stroke="black" stroke-width="0.1mm" /><circle r="1.7700000000000011" cx="48.13305187392962mm" cy="27.754859444825918mm" fill="none" stroke="black" stroke-width="0.1mm" /><circle r="1.7800000000000011" cx="52.892893909293974mm" cy="32.73272495059605mm" fill="none" stroke="black" stroke-width="0.1mm" /><circle r="1.7900000000000011" cx="54.88683808527489mm" cy="39.373859582195855mm" fill="none" stroke="black" stroke-width="0.1mm" /><circle r="1.8000000000000012" cx="53.63946140238437mm" cy="46.24220254820891mm" fill="none" stroke="black" stroke-width="0.1mm" /><circle r="1.8100000000000012" cx="49.38107476454706mm" cy="51.832389287966194mm" fill="none" stroke="black" stroke-width="0.1mm" /><circle r="1.8200000000000012" cx="43.00658666860496mm" cy="54.89967907722062mm" fill="none" stroke="black" stroke-width="0.1mm" /><circle r="1.8300000000000012" cx="35.887697794848066mm" cy="54.73699326774296mm" fill="none" stroke="black" stroke-width="0.1mm" /><circle r="1.8400000000000012" cx="29.577780215648062mm" cy="51.33743069512056mm" fill="none" stroke="black" stroke-width="0.1mm" /><circle r="1.8500000000000012" cx="25.472925285905525mm" cy="45.40500696124581mm" fill="none" stroke="black" stroke-width="0.1mm" /><circle r="1.8600000000000012" cx="24.50312087217009mm" cy="38.209263476267814mm" fill="none" stroke="black" stroke-width="0.1mm" /><circle r="1.8700000000000012" cx="26.92185668597046mm" cy="31.31367929110931mm" fill="none" stroke="black" stroke-width="0.1mm" /><circle r="1.8800000000000012" cx="32.24169285266313mm" cy="26.235964610348447mm" fill="none" stroke="black" stroke-width="0.1mm" /><circle r="1.8900000000000012" cx="39.33183673536299mm" cy="24.114045264706675mm" fill="none" stroke="black" stroke-width="0.1mm" /><circle r="1.9000000000000012" cx="46.658349384755724mm" cy="25.4512411707898mm" fill="none" stroke="black" stroke-width="0.1mm" /><circle r="1.9100000000000013" cx="52.615991227566234mm" cy="29.997662006012266mm" fill="none" stroke="black" stroke-width="0.1mm" /><circle r="1.9200000000000013" cx="55.87992112177446mm" cy="36.795611576880844mm" fill="none" stroke="black" stroke-width="0.1mm" /><circle r="1.9300000000000013" cx="55.700195442105446mm" cy="44.38108012705659mm" fill="none" stroke="black" stroke-width="0.1mm" /><circle r="1.9400000000000013" cx="52.073627493505505mm" cy="51.098987302815814mm" fill="none" stroke="black" stroke-width="0.1mm" /><circle r="1.9500000000000013" cx="45.75371708777849mm" cy="55.46430534081mm" fill="none" stroke="black" stroke-width="0.1mm" /><circle r="1.9600000000000013" cx="38.094472673465205mm" cy="56.490268815511406mm" fill="none" stroke="black" stroke-width="0.1mm" /><circle r="1.9700000000000013" cx="30.760410456148733mm" cy="53.911146072885344mm" fill="none" stroke="black" stroke-width="0.1mm" /><circle r="1.9800000000000013" cx="25.364823129991116mm" cy="48.24933924527025mm" fill="none" stroke="black" stroke-width="0.1mm" /><circle r="1.9900000000000013" cx="23.11492861468825mm" cy="40.71018611147028mm" fill="none" stroke="black" stroke-width="0.1mm" /><circle r="2.0000000000000013" cx="24.541943743963834mm" cy="32.92550377869773mm" fill="none" stroke="black" stroke-width="0.1mm" /><circle r="2.010000000000001" cx="29.376398776571428mm" cy="26.60040683283384mm" fill="none" stroke="black" stroke-width="0.1mm" /><circle r="2.020000000000001" cx="36.597809822366564mm" cy="23.139836833671694mm" fill="none" stroke="black" stroke-width="0.1mm" /><circle r="2.0300000000000007" cx="44.649858048961164mm" cy="23.336602383532036mm" fill="none" stroke="black" stroke-width="0.1mm" /><circle r="2.0400000000000005" cx="51.775754821279634mm" cy="27.190175708109475mm" fill="none" stroke="black" stroke-width="0.1mm" /><circle r="2.0500000000000003" cx="56.4015359675255mm" cy="33.89757278568874mm" fill="none" stroke="black" stroke-width="0.1mm" /><circle r="2.06" cx="57.48365850319293mm" cy="42.02031812933732mm" fill="none" stroke="black" stroke-width="0.1mm" /><circle r="2.07" cx="54.7441488317412mm" cy="49.79285837881177mm" fill="none" stroke="black" stroke-width="0.1mm" /><circle r="2.0799999999999996" cx="48.7403713432037mm" cy="55.50631835036618mm" fill="none" stroke="black" stroke-width="0.1mm" /><circle r="2.0899999999999994" cx="40.75220895830363mm" cy="57.88418803533018mm" fill="none" stroke="black" stroke-width="0.1mm" /><circle r="2.099999999999999" cx="32.50935694215126mm" cy="56.36735368286217mm" fill="none" stroke="black" stroke-width="0.1mm" /><circle r="2.109999999999999" cx="25.81680489323397mm" cy="51.244864452869486mm" fill="none" stroke="black" stroke-width="0.1mm" /><circle r="2.1199999999999988" cx="22.15959478911787mm" cy="43.59999193214781mm" fill="none" stroke="black" stroke-width="0.1mm" /><circle r="2.1299999999999986" cx="22.373400209169493mm" cy="35.08136402913435mm" fill="none" stroke="black" stroke-width="0.1mm" /><circle r="2.1399999999999983" cx="26.453978909724395mm" cy="27.54747766025661mm" fill="none" stroke="black" stroke-width="0.1mm" /><circle r="2.149999999999998" cx="33.54886265915589mm" cy="22.66123340575903mm" fill="none" stroke="black" stroke-width="0.1mm" /><circle r="2.159999999999998" cx="42.13510893213976mm" cy="21.522951809125548mm" fill="none" stroke="black" stroke-width="0.1mm" /><circle r="2.1699999999999977" cx="50.346127213772206mm" cy="24.42284840940289mm" fill="none" stroke="black" stroke-width="0.1mm" /><circle r="2.1799999999999975" cx="56.37745983072344mm" cy="30.768596558862775mm" fill="none" stroke="black" stroke-width="0.1mm" /><circle r="2.1899999999999973" cx="58.883304685348605mm" cy="39.20576819486292mm" fill="none" stroke="black" stroke-width="0.1mm" /><circle r="2.199999999999997" cx="57.27665110968822mm" cy="47.90678989439513mm" fill="none" stroke="black" stroke-width="0.1mm" /><circle r="2.209999999999997" cx="51.86612768231046mm" cy="54.96679704636584mm" fill="none" stroke="black" stroke-width="0.1mm" /><circle r="2.2199999999999966" cx="43.79779368666227mm" cy="58.820647255435944mm" fill="none" stroke="black" stroke-width="0.1mm" /><circle r="2.2299999999999964" cx="34.81258610722995mm" cy="58.589801965193075mm" fill="none" stroke="black" stroke-width="0.1mm" /><circle r="2.239999999999996" cx="26.870710141792927mm" cy="54.282217888660746mm" fill="none" stroke="black" stroke-width="0.1mm" /><circle r="2.249999999999996" cx="21.724002779043595mm" cy="46.79984746737704mm" fill="none" stroke="black" stroke-width="0.1mm" /><circle r="2.259999999999996" cx="20.529562121444012mm" cy="37.750100265057895mm" fill="none" stroke="black" stroke-width="0.1mm" /><circle r="2.2699999999999956" cx="23.58984565054693mm" cy="29.10060395126744mm" fill="none" stroke="black" stroke-width="0.1mm" /><circle r="2.2799999999999954" cx="30.277564460929167mm" cy="22.751398688919355mm" fill="none" stroke="black" stroke-width="0.1mm" /><circle r="2.289999999999995" cx="39.16374534802938mm" cy="20.117578664632973mm" fill="none" stroke="black" stroke-width="0.1mm" /><circle r="2.299999999999995" cx="48.322936730941436mm" cy="21.814051463485704mm" fill="none" stroke="black" stroke-width="0.1mm" /><circle r="2.3099999999999947" cx="55.7503989859656mm" cy="27.51260908824849mm" fill="none" stroke="black" stroke-width="0.1mm" /><circle r="2.3199999999999945" cx="59.800889299989734mm" cy="36.00440455882319mm" fill="none" stroke="black" stroke-width="0.1mm" /><circle r="2.3299999999999943" cx="59.55300413955567mm" cy="45.45619181467437mm" fill="none" stroke="black" stroke-width="0.1mm" /><circle r="2.339999999999994" cx="55.01841468704595mm" cy="53.8060573766707mm" fill="none" stroke="black" stroke-width="0.1mm" /><circle r="2.349999999999994" cx="47.14855759391006mm" cy="59.21322784767182mm" fill="none" stroke="black" stroke-width="0.1mm" /><circle r="2.3599999999999937" cx="37.63530946225564mm" cy="60.46382756623753mm" fill="none" stroke="black" stroke-width="0.1mm" /><circle r="2.3699999999999934" cx="28.54733511630716mm" cy="57.24315710830908mm" fill="none" stroke="black" stroke-width="0.1mm" /><circle r="2.3799999999999932" cx="21.880257208562192mm" cy="50.21346763700452mm" fill="none" stroke="black" stroke-width="0.1mm" /><circle r="2.389999999999993" cx="19.118462014614554mm" cy="40.878277498804245mm" fill="none" stroke="black" stroke-width="0.1mm" /><circle r="2.399999999999993" cx="20.90475403665959mm" cy="31.26091643251234mm" fill="none" stroke="black" stroke-width="0.1mm" /><circle r="2.4099999999999926" cx="26.89134585880737mm" cy="23.46599907443469mm" fill="none" stroke="black" stroke-width="0.1mm" /><circle r="2.4199999999999924" cx="35.806602804308554mm" cy="19.218868655456497mm" fill="none" stroke="black" stroke-width="0.1mm" /><circle r="2.429999999999992" cx="45.7249697365786mm" cy="19.483793686081714mm" fill="none" stroke="black" stroke-width="0.1mm" /><circle r="2.439999999999992" cx="54.48282489513426mm" cy="24.245388514568795mm" fill="none" stroke="black" stroke-width="0.1mm" /><circle r="2.4499999999999917" cx="60.15045847438719mm" cy="32.50273227955684mm" fill="none" stroke="black" stroke-width="0.1mm" /><circle r="2.4599999999999915" cx="61.4572172539191mm" cy="42.47948134054653mm" fill="none" stroke="black" stroke-width="0.1mm" /><circle r="2.4699999999999913" cx="58.07615986716513mm" cy="52.00593371865305mm" fill="none" stroke="black" stroke-width="0.1mm" /><circle r="2.479999999999991" cx="50.70449973493828mm" cy="58.990884271794926mm" fill="none" stroke="black" stroke-width="0.1mm" /><circle r="2.489999999999991" cx="40.92030034563796mm" cy="61.88065463540386mm" fill="none" stroke="black" stroke-width="0.1mm" /><circle r="2.4999999999999907" cx="30.84476959596619mm" cy="60.00454339016656mm" fill="none" stroke="black" stroke-width="0.1mm" /><circle r="2.5099999999999905" cx="22.68239713483504mm" cy="53.72991737063382mm" fill="none" stroke="black" stroke-width="0.1mm" /><circle r="2.5199999999999902" cx="18.23862661090274mm" cy="44.39119895020617mm" fill="none" stroke="black" stroke-width="0.1mm" /><circle r="2.52999999999999" cx="18.520591511719076mm" cy="34.00625234151725mm" fill="none" stroke="black" stroke-width="0.1mm" /><circle r="2.53999999999999" cx="23.50919171618347mm" cy="24.840407586402257mm" fill="none" stroke="black" stroke-width="0.1mm" /><circle r="2.5499999999999896" cx="32.154022153023654mm" cy="18.912310898897466mm" fill="none" stroke="black" stroke-width="0.1mm" /><circle r="2.5599999999999894" cx="42.59427214334861mm" cy="17.54939305839934mm" fill="none" stroke="black" stroke-width="0.1mm" /><circle r="2.569999999999989" cx="52.55920255361318mm" cy="21.09083737397876mm" fill="none" stroke="black" stroke-width="0.1mm" /><circle r="2.579999999999989" cx="59.86202575215201mm" cy="28.80446816712788mm" fill="none" stroke="black" stroke-width="0.1mm" /><circle r="2.5899999999999888" cx="62.87977128542227mm" cy="39.037676807528236mm" fill="none" stroke="black" stroke-width="0.1mm" /><circle r="2.5999999999999885" cx="60.91384081699276mm" cy="49.57137724057987mm" fill="none" stroke="black" stroke-width="0.1mm" /><circle r="2.6099999999999883" cx="54.35118060007508mm" cy="58.10120480476455mm" fill="none" stroke="black" stroke-width="0.1mm" /><circle r="2.619999999999988" cx="44.58900070472097mm" cy="62.74161543365099mm" fill="none" stroke="black" stroke-width="0.1mm" /><circle r="2.629999999999988" cx="33.73747441961319mm" cy="62.44261066264359mm" fill="none" stroke="black" stroke-width="0.1mm" /><circle r="2.6399999999999877" cx="24.16364006793883mm" cy="57.22700508220191mm" fill="none" stroke="black" stroke-width="0.1mm" /><circle r="2.6499999999999875" cx="17.97508027218215mm" cy="48.194687973509616mm" fill="none" stroke="black" stroke-width="0.1mm" /><circle r="2.6599999999999873" cx="16.556003370717765mm" cy="37.2909370538494mm" fill="none" stroke="black" stroke-width="0.1mm" /><circle r="2.669999999999987" cx="20.2578346151226mm" cy="26.88752861142676mm" fill="none" stroke="black" stroke-width="0.1mm" /><circle r="2.679999999999987" cx="28.31343606919396mm" cy="19.26683276749096mm" fill="none" stroke="black" stroke-width="0.1mm" /><circle r="2.6899999999999866" cx="38.99565396069434mm" cy="16.12111206455932mm" fill="none" stroke="black" stroke-width="0.1mm" /><circle r="2.6999999999999864" cx="49.987524077125855mm" cy="18.176861756181015mm" fill="none" stroke="black" stroke-width="0.1mm" /><circle r="2.709999999999986" cx="58.88480674436409mm" cy="25.027556170483592mm" fill="none" stroke="black" stroke-width="0.1mm" /><circle r="2.719999999999986" cx="63.72185747820472mm" cy="35.213197540764135mm" fill="none" stroke="black" stroke-width="0.1mm" /><circle r="2.7299999999999858" cx="63.40581283700628mm" cy="46.531303502290775mm" fill="none" stroke="black" stroke-width="0.1mm" /><circle r="2.7399999999999856" cx="57.96320188058735mm" cy="56.513127450524536mm" fill="none" stroke="black" stroke-width="0.1mm" /><circle r="2.7499999999999853" cx="48.543398100042964mm" cy="62.96215035453314mm" fill="none" stroke="black" stroke-width="0.1mm" /><circle r="2.759999999999985" cx="37.1761462510475mm" cy="64.43738631696382mm" fill="none" stroke="black" stroke-width="0.1mm" /><circle r="2.769999999999985" cx="26.334259776466773mm" cy="60.575168143733606mm" fill="none" stroke="black" stroke-width="0.1mm" /><circle r="2.7799999999999847" cx="18.39569128713397mm" cy="52.177596028740034mm" fill="none" stroke="black" stroke-width="0.1mm" /><circle r="2.7899999999999845" cx="15.121995414540919mm" cy="41.04636888613964mm" fill="none" stroke="black" stroke-width="0.1mm" /><circle r="2.7999999999999843" cx="17.267564329354748mm" cy="29.596329086328247mm" fill="none" stroke="black" stroke-width="0.1mm" /><circle r="2.809999999999984" cx="24.40629294104219mm" cy="20.331591316036427mm" fill="none" stroke="black" stroke-width="0.1mm" /><circle r="2.819999999999984" cx="35.01539578624915mm" cy="15.29790047724158mm" fill="none" stroke="black" stroke-width="0.1mm" /><circle r="2.8299999999999836" cx="46.80008142419466mm" cy="15.63098498863101mm" fill="none" stroke="black" stroke-width="0.1mm" /><circle r="2.8399999999999834" cx="57.18989496898782mm" cy="21.300601321027145mm" fill="none" stroke="black" stroke-width="0.1mm" /><circle r="2.849999999999983" cx="63.899380981248385mm" cy="31.107891773423596mm" fill="none" stroke="black" stroke-width="0.1mm" /><circle r="2.859999999999983" cx="65.43077600464542mm" cy="42.938644551754315mm" fill="none" stroke="black" stroke-width="0.1mm" /><circle r="2.869999999999983" cx="61.40817090258986mm" cy="54.21900905849314mm" fill="none" stroke="black" stroke-width="0.1mm" /><circle r="2.8799999999999826" cx="52.66862812667411mm" cy="62.47545019322297mm" fill="none" stroke="black" stroke-width="0.1mm" /><circle r="2.8899999999999824" cx="41.08839173297371mm" cy="65.87712123547749mm" fill="none" stroke="black" stroke-width="0.1mm" /><circle r="2.899999999999982" cx="29.180182249782426mm" cy="63.64173309747156mm" fill="none" stroke="black" stroke-width="0.1mm" /><circle r="2.909999999999982" cx="19.547989376437mm" cy="56.21497028839928mm" fill="none" stroke="black" stroke-width="0.1mm" /><circle r="2.9199999999999817" cx="14.317658432687896mm" cy="45.18240596826592mm" fill="none" stroke="black" stroke-width="0.1mm" /><circle r="2.9299999999999815" cx="14.667782814268271mm" cy="32.93114065390154mm" fill="none" stroke="black" stroke-width="0.1mm" /><circle r="2.9399999999999813" cx="20.564404522641585mm" cy="22.133337512548945mm" fill="none" stroke="black" stroke-width="0.1mm" /><circle r="2.949999999999981" cx="30.759181646890077mm" cy="15.163388392036396mm" fill="none" stroke="black" stroke-width="0.1mm" /><circle r="2.959999999999981" cx="43.05343535455604mm" cy="13.57583430767297mm" fill="none" stroke="black" stroke-width="0.1mm" /><circle r="2.9699999999999807" cx="54.77227789345297mm" cy="17.758826338553842mm" fill="none" stroke="black" stroke-width="0.1mm" /><circle r="2.9799999999999804" cx="63.34659167357988mm" cy="26.84033977539174mm" fill="none" stroke="black" stroke-width="0.1mm" /><circle r="2.9899999999999802" cx="66.87623788549587mm" cy="38.869585420192124mm" fill="none" stroke="black" stroke-width="0.1mm" /><circle r="2.99999999999998" cx="64.55103052429789mm" cy="51.235964586763316mm" fill="none" stroke="black" stroke-width="0.1mm" /><circle r="3.00999999999998" cx="56.83623351784081mm" cy="61.23561256316238mm" fill="none" stroke="black" stroke-width="0.1mm" /><circle r="3.0199999999999796" cx="45.38020772278108mm" cy="66.66258361186577mm" fill="none" stroke="black" stroke-width="0.1mm" /><circle r="3.0299999999999794" cx="32.662362731997824mm" cy="66.29541936009448mm" fill="none" stroke="black" stroke-width="0.1mm" /><circle r="3.039999999999979" cx="21.456569994085786mm" cy="60.17179227574404mm" fill="none" stroke="black" stroke-width="0.1mm" /><circle r="3.049999999999979" cx="14.226157765321204mm" cy="49.589528479643526mm" fill="none" stroke="black" stroke-width="0.1mm" /><circle r="3.0599999999999787" cx="12.582444619991346mm" cy="36.83177384264232mm" fill="none" stroke="black" stroke-width="0.1mm" /><circle r="3.0699999999999785" cx="16.92582357969749mm" cy="24.67445327158726mm" fill="none" stroke="black" stroke-width="0.1mm" /><circle r="3.0799999999999783" cx="26.34930767745751mm" cy="15.782266846063266mm" fill="none" stroke="black" stroke-width="0.1mm" /><circle r="3.089999999999978" cx="38.82756257335787mm" cy="12.124645464485734mm" fill="none" stroke="black" stroke-width="0.1mm" /><circle r="3.099999999999978" cx="51.65211142330897mm" cy="14.539672048875733mm" fill="none" stroke="black" stroke-width="0.1mm" /><circle r="3.1099999999999777" cx="62.01921450276169mm" cy="22.542503252717577mm" fill="none" stroke="black" stroke-width="0.1mm" /><circle r="3.1199999999999775" cx="67.64282565641942mm" cy="34.42199052270368mm" fill="none" stroke="black" stroke-width="0.1mm" /><circle r="3.1299999999999772" cx="67.25862153445728mm" cy="47.6064151899058mm" fill="none" stroke="black" stroke-width="0.1mm" /><circle r="3.139999999999977" cx="60.90798907412972mm" cy="59.22019752437731mm" fill="none" stroke="black" stroke-width="0.1mm" /><circle r="3.149999999999977" cx="49.938238606177215mm" cy="66.71107286139396mm" fill="none" stroke="black" stroke-width="0.1mm" /><circle r="3.1599999999999766" cx="36.71698303984077mm" cy="68.41094506769028mm" fill="none" stroke="black" stroke-width="0.1mm" /><circle r="3.1699999999999764" cx="24.121184436627576mm" cy="63.907179179158916mm" fill="none" stroke="black" stroke-width="0.1mm" /><circle r="3.179999999999976" cx="14.911125365706251mm" cy="54.141724420476436mm" fill="none" stroke="black" stroke-width="0.1mm" /><circle r="3.189999999999976" cx="11.125528814467309mm" cy="41.214460273475645mm" fill="none" stroke="black" stroke-width="0.1mm" /><circle r="3.1999999999999758" cx="13.630374622049835mm" cy="27.931741740144325mm" fill="none" stroke="black" stroke-width="0.1mm" /><circle r="3.2099999999999755" cx="21.921240023277193mm" cy="17.19718355763802mm" fill="none" stroke="black" stroke-width="0.1mm" /><circle r="3.2199999999999753" cx="34.22418876819038mm" cy="11.376932299026535mm" fill="none" stroke="black" stroke-width="0.1mm" /><circle r="3.229999999999975" cx="47.875193111811754mm" cy="11.77817629118059mm" fill="none" stroke="black" stroke-width="0.1mm" /><circle r="3.239999999999975" cx="59.896965042842496mm" cy="18.355814127486514mm" fill="none" stroke="black" stroke-width="0.1mm" /><circle r="3.2499999999999747" cx="67.64830348811026mm" cy="29.71305126729216mm" fill="none" stroke="black" stroke-width="0.1mm" /><circle r="3.2599999999999745" cx="69.40433475537148mm" cy="43.39780776296445mm" fill="none" stroke="black" stroke-width="0.1mm" /><circle r="3.2699999999999743" cx="64.74018193801304mm" cy="56.432084398335554mm" fill="none" stroke="black" stroke-width="0.1mm" /><circle r="3.279999999999974" cx="54.63275651840712mm" cy="65.9600161146526mm" fill="none" stroke="black" stroke-width="0.1mm" /><circle r="3.289999999999974" cx="41.256483120305795mm" cy="69.87358783555126mm" fill="none" stroke="black" stroke-width="0.1mm" /><circle r="3.2999999999999736" cx="27.515594903594916mm" cy="67.27892280477482mm" fill="none" stroke="black" stroke-width="0.1mm" /><circle r="3.3099999999999734" cx="16.41358161803612mm" cy="58.70002320616116mm" fill="none" stroke="black" stroke-width="0.1mm" /><circle r="3.319999999999973" cx="10.396690254472059mm" cy="45.97361298632077mm" fill="none" stroke="black" stroke-width="0.1mm" /><circle r="3.329999999999973" cx="10.814974116818941mm" cy="31.856028966280558mm" fill="none" stroke="black" stroke-width="0.1mm" /><circle r="3.3399999999999728" cx="17.619617329103697mm" cy="19.426267438691283mm" fill="none" stroke="black" stroke-width="0.1mm" /><circle r="3.3499999999999726" cx="29.364341140762477mm" cy="11.414465885173104mm" fill="none" stroke="black" stroke-width="0.1mm" /><circle r="3.3599999999999723" cx="43.51259856577027mm" cy="9.60227555694738mm" fill="none" stroke="black" stroke-width="0.1mm" /><circle r="3.369999999999972" cx="56.985353233298845mm" cy="14.426815303132958mm" fill="none" stroke="black" stroke-width="0.1mm" /><circle r="3.379999999999972" cx="66.83115759501156mm" cy="24.876211383662366mm" fill="none" stroke="black" stroke-width="0.1mm" /><circle r="3.3899999999999717" cx="70.87270448556983mm" cy="38.70149403286425mm" fill="none" stroke="black" stroke-width="0.1mm" /><circle r="3.3999999999999715" cx="68.1882202315994mm" cy="52.90055193295467mm" fill="none" stroke="black" stroke-width="0.1mm" /><circle r="3.4099999999999713" cx="59.32128643559936mm" cy="64.3700203215659mm" fill="none" stroke="black" stroke-width="0.1mm" /><circle r="3.419999999999971" cx="46.171414740831715mm" cy="70.58355179008245mm" fill="none" stroke="black" stroke-width="0.1mm" /><circle r="3.429999999999971" cx="31.587251044372685mm" cy="70.14822805754267mm" fill="none" stroke="black" stroke-width="0.1mm" /><circle r="3.4399999999999706" cx="18.749499920224924mm" cy="63.11657946927898mm" fill="none" stroke="black" stroke-width="0.1mm" /><circle r="3.4499999999999704" cx="10.477235258456389mm" cy="50.98436898576703mm" fill="none" stroke="black" stroke-width="0.1mm" /><circle r="3.45999999999997" cx="8.608885869266267mm" cy="36.37261063142372mm" fill="none" stroke="black" stroke-width="0.1mm" /><circle r="3.46999999999997" cx="13.593812544279057mm" cy="22.4613779317377mm" fill="none" stroke="black" stroke-width="0.1mm" /><circle r="3.47999999999997" cx="24.385179285732022mm" cy="12.297700924629396mm" fill="none" stroke="black" stroke-width="0.1mm" /><circle r="3.4899999999999696" cx="38.65947118603448mm" cy="8.128178864411591mm" fill="none" stroke="black" stroke-width="0.1mm" /><circle r="3.4999999999999694" cx="53.31669876950444mm" cy="10.9024823415761mm" fill="none" stroke="black" stroke-width="0.1mm" /><circle r="3.509999999999969" cx="65.15362226116804mm" cy="20.057450334962596mm" fill="none" stroke="black" stroke-width="0.1mm" /><circle r="3.519999999999969" cx="71.56379383463701mm" cy="33.63078350465752mm" fill="none" stroke="black" stroke-width="0.1mm" /><circle r="3.5299999999999687" cx="71.11143023190421mm" cy="48.681526877535376mm" fill="none" stroke="black" stroke-width="0.1mm" /><circle r="3.5399999999999685" cx="63.85277626766153mm" cy="61.927267598241585mm" fill="none" stroke="black" stroke-width="0.1mm" /><circle r="3.5499999999999683" cx="51.333079112296346mm" cy="70.4599953682604mm" fill="none" stroke="black" stroke-width="0.1mm" /><circle r="3.559999999999968" cx="36.257819828617514mm" cy="72.38450381841483mm" fill="none" stroke="black" stroke-width="0.1mm" /><circle r="3.569999999999968" cx="21.908109096774083mm" cy="67.23919021457473mm" fill="none" stroke="black" stroke-width="0.1mm" /><circle r="3.5799999999999677" cx="11.426559444270247mm" cy="56.10585281219815mm" fill="none" stroke="black" stroke-width="0.1mm" /><circle r="3.5899999999999674" cx="7.129062214393002mm" cy="41.38255166079509mm" fill="none" stroke="black" stroke-width="0.1mm" /><circle r="3.5999999999999672" cx="9.993184914751684mm" cy="26.267154393945617mm" fill="none" stroke="black" stroke-width="0.1mm" /><circle r="3.609999999999967" cx="19.4361871055247mm" cy="14.062775799229698mm" fill="none" stroke="black" stroke-width="0.1mm" /><circle r="3.619999999999967" cx="33.43298175014695mm" cy="7.455964120808396mm" fill="none" stroke="black" stroke-width="0.1mm" /><circle r="3.6299999999999666" cx="48.95030479944363mm" cy="7.9253675937343mm" fill="none" stroke="black" stroke-width="0.1mm" /><circle r="3.6399999999999664" cx="62.60403511670823mm" cy="15.411026933956055mm" fill="none" stroke="black" stroke-width="0.1mm" /><circle r="3.649999999999966" cx="71.39722599497725mm" cy="28.31821076117452mm" fill="none" stroke="black" stroke-width="0.1mm" /><circle r="3.659999999999966" cx="73.37789350609589mm" cy="43.85697097418889mm" fill="none" stroke="black" stroke-width="0.1mm" /><circle r="3.6699999999999657" cx="68.07219297342843mm" cy="58.64515973818969mm" fill="none" stroke="black" stroke-width="0.1mm" /><circle r="3.6799999999999655" cx="56.59688491012815mm" cy="69.44458203608899mm" fill="none" stroke="black" stroke-width="0.1mm" /><circle r="3.6899999999999653" cx="41.42457450762446mm" cy="73.87005443562559mm" fill="none" stroke="black" stroke-width="0.1mm" /><circle r="3.699999999999965" cx="25.851007557395498mm" cy="70.91611251207266mm" fill="none" stroke="black" stroke-width="0.1mm" /><circle r="3.709999999999965" cx="13.27917385962731mm" cy="61.185076123913035mm" fill="none" stroke="black" stroke-width="0.1mm" /><circle r="3.7199999999999647" cx="6.47572207625376mm" cy="46.76482000436343mm" fill="none" stroke="black" stroke-width="0.1mm" /><circle r="3.7299999999999645" cx="6.962165419372859mm" cy="30.780917278647934mm" fill="none" stroke="black" stroke-width="0.1mm" /><circle r="3.7399999999999642" cx="14.674830135573767mm" cy="16.719197364824975mm" fill="none" stroke="black" stroke-width="0.1mm" /><circle r="3.749999999999964" cx="27.969500634645563mm" cy="7.665543378305834mm" fill="none" stroke="black" stroke-width="0.1mm" /><circle r="3.759999999999964" cx="43.97176177699548mm" cy="5.628716806223061mm" fill="none" stroke="black" stroke-width="0.1mm" /><circle r="3.7699999999999636" cx="59.198428573153635mm" cy="11.094804267718mm" fill="none" stroke="black" stroke-width="0.1mm" /><circle r="3.7799999999999634" cx="70.31572351644833mm" cy="22.91208299194201mm" fill="none" stroke="black" stroke-width="0.1mm" /><circle r="3.789999999999963" cx="74.8691710856442mm" cy="38.53340264554635mm" fill="none" stroke="black" stroke-width="0.1mm" /><circle r="3.799999999999963" cx="71.82540993889691mm" cy="54.565139279154806mm" fill="none" stroke="black" stroke-width="0.1mm" /><circle r="3.8099999999999627" cx="61.80633935335062mm" cy="67.50442807997518mm" fill="none" stroke="black" stroke-width="0.1mm" /><circle r="3.8199999999999625" cx="46.96262175887361mm" cy="74.50451996830091mm" fill="none" stroke="black" stroke-width="0.1mm" /><circle r="3.8299999999999623" cx="30.512139356739308mm" cy="74.00103675498853mm" fill="none" stroke="black" stroke-width="0.1mm" /><circle r="3.839999999999962" cx="16.042429846358036mm" cy="66.06136666280838mm" fill="none" stroke="black" stroke-width="0.1mm" /><circle r="3.849999999999962" cx="6.728312751588845mm" cy="52.3792094918832mm" fill="none" stroke="black" stroke-width="0.1mm" /><circle r="3.8599999999999617" cx="4.635327118542037mm" cy="35.913447420197734mm" fill="none" stroke="black" stroke-width="0.1mm" /><circle r="3.8699999999999615" cx="10.261801508864533mm" cy="20.248302591882258mm" fill="none" stroke="black" stroke-width="0.1mm" /><circle r="3.8799999999999613" cx="22.421050894012346mm" cy="8.81313500319224mm" fill="none" stroke="black" stroke-width="0.1mm" /><circle r="3.889999999999961" cx="38.49137979871737mm" cy="4.131712264337189mm" fill="none" stroke="black" stroke-width="0.1mm" /><circle r="3.899999999999961" cx="54.98128611570528mm" cy="7.2652926342789215mm" fill="none" stroke="black" stroke-width="0.1mm" /><circle r="3.9099999999999606" cx="68.28803001957782mm" cy="17.57239741721194mm" fill="none" stroke="black" stroke-width="0.1mm" /><circle r="3.9199999999999604" cx="75.48476201285561mm" cy="32.839576486616394mm" fill="none" stroke="black" stroke-width="0.1mm" /><circle r="3.92999999999996" cx="74.96423892934988mm" cy="49.75663856516951mm" fill="none" stroke="black" stroke-width="0.1mm" /><circle r="3.93999999999996" cx="66.7975634611904mm" cy="64.63433767210904mm" fill="none" stroke="black" stroke-width="0.1mm" /><circle r="3.9499999999999598" cx="52.727919618411796mm" cy="74.20891787512821mm" fill="none" stroke="black" stroke-width="0.1mm" /><circle r="3.9599999999999596" cx="35.798656617390755mm" cy="76.35806256913897mm" fill="none" stroke="black" stroke-width="0.1mm" /><circle r="3.9699999999999593" cx="19.695033756917994mm" cy="70.57120124998883mm" fill="none" stroke="black" stroke-width="0.1mm" /><circle r="3.979999999999959" cx="7.9419935228327105mm" cy="58.069981203917145mm" fill="none" stroke="black" stroke-width="0.1mm" /><circle r="3.989999999999959" cx="3.132595614318568mm" cy="41.550643048111425mm" fill="none" stroke="black" stroke-width="0.1mm" /><circle r="3.9999999999999587" cx="6.355995207454832mm" cy="24.602567047744067mm" fill="none" stroke="black" stroke-width="0.1mm" /><text x="37mm" y="78mm" font-size="6" fill="black" stroke-width="0.01mm">VERICITE</text></svg>