<svg width="80mm" height="80mm" fill="none" stroke="black"><circle r="40mm" cx="40mm" cy="40mm" stroke-width="0.1mm" /><circle r="0.5" cx="39.167706326905716mm" cy="41.81859485365136mm" fill="none" stroke="black" stroke-width="0.1mm" /><circle r="0.5135" cx="38.27134046157935mm" cy="41.183537578713626mm" fill="none" stroke="black" stroke-width="0.1mm" /><circle r="0.5269999999999999" cx="37.813825435970074mm" cy="40.129386149137275mm" fill="none" stroke="black" stroke-width="0.1mm" /><circle r="0.5404999999999999" cx="37.97546238583289mm" cy="38.940531997263456mm" fill="none" stroke="black" stroke-width="0.1mm" /><circle r="0.5539999999999998" cx="38.76121616357619mm" cy="37.967805470282165mm" fill="none" stroke="black" stroke-width="0.1mm" /><circle r="0.5674999999999998" cx="39.98466873482219mm" cy="37.52504748483773mm" fill="none" stroke="black" stroke-width="0.1mm" /><circle r="0.5809999999999997" cx="41.310389650919404mm" cy="37.7891678121659mm" fill="none" stroke="black" stroke-width="0.1mm" /><circle r="0.5944999999999997" cx="42.345732829350695mm" cy="38.735182822180846mm" fill="none" stroke="black" stroke-width="0.1mm" /><circle r="0.6079999999999997" cx="42.756987583666906mm" cy="40.12891649819369mm" fill="none" stroke="black" stroke-width="0.1mm" /><circle r="0.6214999999999996" cx="42.375563496271354mm" cy="41.58357919763523mm" fill="none" stroke="black" stroke-width="0.1mm" /><circle r="0.6349999999999996" cx="41.26077064668979mm" cy="42.66701281895033mm" fill="none" stroke="black" stroke-width="0.1mm" /><circle r="0.6484999999999995" cx="39.697079069521614mm" cy="43.02989503281518mm" fill="none" stroke="black" stroke-width="0.1mm" /><circle r="0.6619999999999995" cx="38.12257774623195mm" cy="42.51691987974518mm" fill="none" stroke="black" stroke-width="0.1mm" /><circle r="0.6754999999999994" cx="37.006288861335406mm" cy="41.22593581326085mm" fill="none" stroke="black" stroke-width="0.1mm" /><circle r="0.6889999999999994" cx="36.708680374484366mm" cy="39.49392182155753mm" fill="none" stroke="black" stroke-width="0.1mm" /><circle r="0.7024999999999993" cx="37.36679804926808mm" cy="37.80982364028337mm" fill="none" stroke="black" stroke-width="0.1mm" /><circle r="0.7159999999999993" cx="38.840233227003104mm" cy="36.676546821113256mm" fill="none" stroke="black" stroke-width="0.1mm" /><circle r="0.7294999999999993" cx="40.73761876347997mm" cy="36.461053326233596mm" fill="none" stroke="black" stroke-width="0.1mm" /><circle r="0.7429999999999992" cx="42.51997843927634mm" cy="37.27716899797612mm" fill="none" stroke="black" stroke-width="0.1mm" /><circle r="0.7564999999999992" cx="43.653823816496754mm" cy="38.93811652334114mm" fill="none" stroke="black" stroke-width="0.1mm" /><circle r="0.7699999999999991" cx="43.77051295105991mm" cy="40.99661029790464mm" fill="none" stroke="black" stroke-width="0.1mm" /><circle r="0.7834999999999991" cx="42.78435693561707mm" cy="42.86485278069941mm" fill="none" stroke="black" stroke-width="0.1mm" /><circle r="0.796999999999999" cx="40.93207437724529mm" cy="43.98237835410987mm" fill="none" stroke="black" stroke-width="0.1mm" /><circle r="0.810499999999999" cx="38.71803910900731mm" cy="43.98381742477805mm" fill="none" stroke="black" stroke-width="0.1mm" /><circle r="0.823999999999999" cx="36.77728048515334mm" cy="42.8164656803566mm" fill="none" stroke="black" stroke-width="0.1mm" /><circle r="0.8374999999999989" cx="35.69334637999212mm" cy="40.77029838197483mm" fill="none" stroke="black" stroke-width="0.1mm" /><circle r="0.8509999999999989" cx="35.82326823377872mm" cy="38.407576766987475mm" fill="none" stroke="black" stroke-width="0.1mm" /><circle r="0.8644999999999988" cx="37.18201393182973mm" cy="36.40859644155683mm" fill="none" stroke="black" stroke-width="0.1mm" /><circle r="0.8779999999999988" cx="39.42331389996223mm" cy="35.37582081423922mm" fill="none" stroke="black" stroke-width="0.1mm" /><circle r="0.8914999999999987" cx="41.92659934293137mm" cy="35.6527894033281mm" fill="none" stroke="black" stroke-width="0.1mm" /><circle r="0.9049999999999987" cx="43.96864398866237mm" cy="37.212103859313615mm" fill="none" stroke="black" stroke-width="0.1mm" /><circle r="0.9184999999999987" cx="44.932488658032085mm" cy="39.64845962054853mm" fill="none" stroke="black" stroke-width="0.1mm" /><circle r="0.9319999999999986" cx="44.49330142880077mm" cy="42.282945962991015mm" fill="none" stroke="black" stroke-width="0.1mm" /><circle r="0.9454999999999986" cx="42.725328860101115mm" cy="44.35210381359406mm" fill="none" stroke="black" stroke-width="0.1mm" /><circle r="0.9589999999999985" cx="40.09533612898951mm" cy="45.22913100070263mm" fill="none" stroke="black" stroke-width="0.1mm" /><circle r="0.9724999999999985" cx="37.34021941909668mm" cy="44.61315426378195mm" fill="none" stroke="black" stroke-width="0.1mm" /><circle r="0.9859999999999984" cx="35.26061989839191mm" cy="42.62957720032732mm" fill="none" stroke="black" stroke-width="0.1mm" /><circle r="0.9994999999999984" cx="34.48831815675365mm" cy="39.80871942380757mm" fill="none" stroke="black" stroke-width="0.1mm" /><circle r="1.0129999999999983" cx="35.29496919432037mm" cy="36.94471194195936mm" fill="none" stroke="black" stroke-width="0.1mm" /><circle r="1.0264999999999984" cx="37.4999014032876mm" cy="34.871985568788176mm" fill="none" stroke="black" stroke-width="0.1mm" /><circle r="1.0399999999999985" cx="40.50749410394871mm" cy="34.22224526875212mm" fill="none" stroke="black" stroke-width="0.1mm" /><circle r="1.0534999999999985" cx="43.46752783969455mm" cy="35.232686743988474mm" fill="none" stroke="black" stroke-width="0.1mm" /><circle r="1.0669999999999986" cx="45.51550362172181mm" cy="37.66348126504974mm" fill="none" stroke="black" stroke-width="0.1mm" /><circle r="1.0804999999999987" cx="46.025012275067105mm" cy="40.85232158560644mm" fill="none" stroke="black" stroke-width="0.1mm" /><circle r="1.0939999999999988" cx="44.79851265286818mm" cy="43.894441721256584mm" fill="none" stroke="black" stroke-width="0.1mm" /><circle r="1.1074999999999988" cx="42.13863466222362mm" cy="45.899310703932755mm" fill="none" stroke="black" stroke-width="0.1mm" /><circle r="1.1209999999999989" cx="38.77538405910118mm" cy="46.2511771529286mm" fill="none" stroke="black" stroke-width="0.1mm" /><circle r="1.134499999999999" cx="35.666137857955455mm" cy="44.797276720573144mm" fill="none" stroke="black" stroke-width="0.1mm" /><circle r="1.147999999999999" cx="33.723123911026526mm" cy="41.90641720608922mm" fill="none" stroke="black" stroke-width="0.1mm" /><circle r="1.161499999999999" cx="33.54595707485536mm" cy="38.37693040186491mm" fill="none" stroke="black" stroke-width="0.1mm" /><circle r="1.1749999999999992" cx="35.237602802399756mm" cy="35.21647902353409mm" fill="none" stroke="black" stroke-width="0.1mm" /><circle r="1.1884999999999992" cx="38.35998731084831mm" cy="33.354371107305084mm" fill="none" stroke="black" stroke-width="0.1mm" /><circle r="1.2019999999999993" cx="42.04621889776746mm" cy="33.368515383232854mm" fill="none" stroke="black" stroke-width="0.1mm" /><circle r="1.2154999999999994" cx="45.24105879028182mm" cy="35.30718338768607mm" fill="none" stroke="black" stroke-width="0.1mm" /><circle r="1.2289999999999994" cx="47.0029983722416mm" cy="38.660256069847144mm" fill="none" stroke="black" stroke-width="0.1mm" /><circle r="1.2424999999999995" cx="46.78146902670487mm" cy="42.49244916494649mm" fill="none" stroke="black" stroke-width="0.1mm" /><circle r="1.2559999999999996" cx="44.58763447806201mm" cy="45.7040345279194mm" fill="none" stroke="black" stroke-width="0.1mm" /><circle r="1.2694999999999996" cx="41.00611052472351mm" cy="47.346425430918124mm" fill="none" stroke="black" stroke-width="0.1mm" /><circle r="1.2829999999999997" cx="37.03999956586609mm" cy="46.902064722235444mm" fill="none" stroke="black" stroke-width="0.1mm" /><circle r="1.2964999999999998" cx="33.83006440491833mm" cy="44.4461128812193mm" fill="none" stroke="black" stroke-width="0.1mm" /><circle r="1.3099999999999998" cx="32.32662585292124mm" cy="40.639788401694794mm" fill="none" stroke="black" stroke-width="0.1mm" /><circle r="1.3235" cx="33.00854832111589mm" cy="36.553026193626mm" fill="none" stroke="black" stroke-width="0.1mm" /><circle r="1.337" cx="35.732318562050246mm" cy="33.3638117006689mm" fill="none" stroke="black" stroke-width="0.1mm" /><circle r="1.3505" cx="39.75837134646296mm" cy="32.01865671745728mm" fill="none" stroke="black" stroke-width="0.1mm" /><circle r="1.364" cx="43.95133841742192mm" cy="32.95206947317118mm" fill="none" stroke="black" stroke-width="0.1mm" /><circle r="1.3775000000000002" cx="47.10016860987898mm" cy="35.9480584022855mm" fill="none" stroke="black" stroke-width="0.1mm" /><circle r="1.3910000000000002" cx="48.267877725970045mm" cy="40.18734435782348mm" fill="none" stroke="black" stroke-width="0.1mm" /><circle r="1.4045000000000003" cx="47.06993136632168mm" cy="44.47093899259437mm" fill="none" stroke="black" stroke-width="0.1mm" /><circle r="1.4180000000000004" cx="43.79867027389887mm" cy="47.55921319650379mm" fill="none" stroke="black" stroke-width="0.1mm" /><circle r="1.4315000000000004" cx="39.35406438412514mm" cy="48.53057982672598mm" fill="none" stroke="black" stroke-width="0.1mm" /><circle r="1.4450000000000005" cx="34.996496038041926mm" cy="47.056022116084236mm" fill="none" stroke="black" stroke-width="0.1mm" /><circle r="1.4585000000000006" cx="31.989369293645943mm" cy="43.50782278435179mm" fill="none" stroke="black" stroke-width="0.1mm" /><circle r="1.4720000000000006" cx="31.232879424987146mm" cy="38.867217221535284mm" fill="none" stroke="black" stroke-width="0.1mm" /><circle r="1.4855000000000007" cx="32.99508363976593mm" cy="34.45334589269124mm" fill="none" stroke="black" stroke-width="0.1mm" /><circle r="1.4990000000000008" cx="36.82046491288006mm" cy="31.548286763633467mm" fill="none" stroke="black" stroke-width="0.1mm" /><circle r="1.5125000000000008" cx="41.64636021154692mm" cy="31.0247494155408mm" fill="none" stroke="black" stroke-width="0.1mm" /><circle r="1.526000000000001" cx="46.097911710326976mm" cy="33.084519338971646mm" fill="none" stroke="black" stroke-width="0.1mm" /><circle r="1.539500000000001" cx="48.879747958155214mm" cy="37.18587470079274mm" fill="none" stroke="black" stroke-width="0.1mm" /><circle r="1.553000000000001" cx="49.15281083392384mm" cy="42.18498371582183mm" fill="none" stroke="black" stroke-width="0.1mm" /><circle r="1.5665000000000011" cx="46.786741306559016mm" cy="46.65471016933463mm" fill="none" stroke="black" stroke-width="0.1mm" /><circle r="1.5800000000000012" cx="42.412094488789194mm" cy="49.292028851502394mm" fill="none" stroke="black" stroke-width="0.1mm" /><circle r="1.5935000000000012" cx="37.253184068238156mm" cy="49.29774312599673mm" fill="none" stroke="black" stroke-width="0.1mm" /><circle r="1.6070000000000013" cx="32.78559594977583mm" cy="46.61789046449919mm" fill="none" stroke="black" stroke-width="0.1mm" /><circle r="1.6205000000000014" cx="30.314131497986445mm" cy="41.974126733951444mm" fill="none" stroke="black" stroke-width="0.1mm" /><circle r="1.6340000000000015" cx="30.591899779443395mm" cy="36.670127594041645mm" fill="none" stroke="black" stroke-width="0.1mm" /><circle r="1.6475000000000015" cx="33.591708284925424mm" cy="32.22572046460209mm" fill="none" stroke="black" stroke-width="0.1mm" /><circle r="1.6610000000000016" cx="38.49891155630366mm" cy="29.941390081914825mm" fill="none" stroke="black" stroke-width="0.1mm" /><circle r="1.6745000000000017" cx="43.932028299223674mm" cy="30.517944397225655mm" fill="none" stroke="black" stroke-width="0.1mm" /><circle r="1.6880000000000017" cx="48.331565232944136mm" cy="33.842515061391mm" fill="none" stroke="black" stroke-width="0.1mm" /><circle r="1.7015000000000018" cx="50.40763832208048mm" cy="39.00597306034392mm" fill="none" stroke="black" stroke-width="0.1mm" /><circle r="1.7150000000000019" cx="49.517912846128546mm" cy="44.5510257144408mm" fill="none" stroke="black" stroke-width="0.1mm" /><circle r="1.728500000000002" cx="45.86519053526398mm" cy="48.88344330679552mm" fill="none" stroke="black" stroke-width="0.1mm" /><circle r="1.742000000000002" cx="40.454168299662875mm" cy="50.73039287051418mm" fill="none" stroke="black" stroke-width="0.1mm" /><circle r="1.755500000000002" cx="34.81551838021588mm" cy="49.51411453232096mm" fill="none" stroke="black" stroke-width="0.1mm" /><circle r="1.7690000000000021" cx="30.572939112730744mm" cy="45.5313129569496mm" fill="none" stroke="black" stroke-width="0.1mm" /><circle r="1.7825000000000022" cx="28.97562174188621mm" cy="39.882914467041054mm" fill="none" stroke="black" stroke-width="0.1mm" /><circle r="1.7960000000000023" cx="30.530749308559045mm" cy="34.17010365935677mm" fill="none" stroke="black" stroke-width="0.1mm" /><circle r="1.8095000000000023" cx="34.844056466179346mm" cy="30.04045827981762mm" fill="none" stroke="black" stroke-width="0.1mm" /><circle r="1.8230000000000024" cx="40.7181603678031mm" cy="28.712823839147486mm" fill="none" stroke="black" stroke-width="0.1mm" /><circle r="1.8365000000000025" cx="46.48466259137823mm" cy="30.617933272674932mm" fill="none" stroke="black" stroke-width="0.1mm" /><circle r="1.8500000000000025" cx="50.477998011674316mm" cy="35.26063741972093mm" fill="none" stroke="black" stroke-width="0.1mm" /><circle r="1.8635000000000026" cx="51.516456473436804mm" cy="41.34731410422212mm" fill="none" stroke="black" stroke-width="0.1mm" /><circle r="1.8770000000000027" cx="49.25147079478439mm" cy="47.14607501592671mm" fill="none" stroke="black" stroke-width="0.1mm" /><circle r="1.8905000000000027" cx="44.28204076797352mm" cy="50.97954242495621mm" fill="none" stroke="black" stroke-width="0.1mm" /><circle r="1.9040000000000028" cx="37.997358225346225mm" cy="51.70998829727904mm" fill="none" stroke="black" stroke-width="0.1mm" /><circle r="1.9175000000000029" cx="32.18865979572365mm" cy="49.07654059722405mm" fill="none" stroke="black" stroke-width="0.1mm" /><circle r="1.931000000000003" cx="28.538699815553827mm" cy="43.784639755910014mm" fill="none" stroke="black" stroke-width="0.1mm" /><circle r="1.944500000000003" cx="28.134349364308548mm" cy="37.317918720151155mm" fill="none" stroke="black" stroke-width="0.1mm" /><circle r="1.958000000000003" cx="31.143470424851014mm" cy="31.522412850078634mm" fill="none" stroke="black" stroke-width="0.1mm" /><circle r="1.9715000000000031" cx="36.75198792954473mm" cy="28.07957875785518mm" fill="none" stroke="black" stroke-width="0.1mm" /><circle r="1.9850000000000032" cx="43.3834197988179mm" cy="28.018557246100634mm" fill="none" stroke="black" stroke-width="0.1mm" /><circle r="1.9985000000000033" cx="49.14187811164192mm" cy="31.409127541868465mm" fill="none" stroke="black" stroke-width="0.1mm" /><circle r="2.012000000000003" cx="52.3540924606582mm" cy="37.32679976928236mm" fill="none" stroke="black" stroke-width="0.1mm" /><circle r="2.025500000000003" cx="52.05549416248699mm" cy="44.104300853768265mm" fill="none" stroke="black" stroke-width="0.1mm" /><circle r="2.0390000000000033" cx="48.27919015500379mm" cy="49.8012198412896mm" fill="none" stroke="black" stroke-width="0.1mm" /><circle r="2.0525000000000033" cx="42.061435117519956mm" cy="52.7595497669885mm" fill="none" stroke="black" stroke-width="0.1mm" /><circle r="2.0660000000000034" cx="35.15776799218361mm" cy="52.08607418405494mm" fill="none" stroke="black" stroke-width="0.1mm" /><circle r="2.0795000000000035" cx="29.547424862264116mm" cy="47.921293959321694mm" fill="none" stroke="black" stroke-width="0.1mm" /><circle r="2.0930000000000035" cx="26.865909768913127mm" cy="41.41413358692492mm" fill="none" stroke="black" stroke-width="0.1mm" /><circle r="2.1065000000000036" cx="27.92839893581822mm" cy="34.40540682915674mm" fill="none" stroke="black" stroke-width="0.1mm" /><circle r="2.1200000000000037" cx="32.48281095047697mm" cy="28.907125314250962mm" fill="none" stroke="black" stroke-width="0.1mm" /><circle r="2.1335000000000037" cx="39.26710466797263mm" cy="26.524915976800244mm" fill="none" stroke="black" stroke-width="0.1mm" /><circle r="2.147000000000004" cx="46.358645486521mm" cy="27.98934941076267mm" fill="none" stroke="black" stroke-width="0.1mm" /><circle r="2.160500000000004" cx="51.71902913731403mm" cy="32.93292273434161mm" fill="none" stroke="black" stroke-width="0.1mm" /><circle r="2.174000000000004" cx="53.77998620423911mm" cy="39.98050100052057mm" fill="none" stroke="black" stroke-width="0.1mm" /><circle r="2.187500000000004" cx="51.901964175189654mm" cy="47.131540771285195mm" fill="none" stroke="black" stroke-width="0.1mm" /><circle r="2.201000000000004" cx="46.57135914710525mm" cy="52.32794139180412mm" fill="none" stroke="black" stroke-width="0.1mm" /><circle r="2.214500000000004" cx="39.27589756995441mm" cy="54.046348303769314mm" fill="none" stroke="black" stroke-width="0.1mm" /><circle r="2.228000000000004" cx="32.0896685261324mm" cy="51.74445639327511mm" fill="none" stroke="black" stroke-width="0.1mm" /><circle r="2.2415000000000043" cx="27.083480969543793mm" cy="46.030635218272096mm" fill="none" stroke="black" stroke-width="0.1mm" /><circle r="2.2550000000000043" cx="25.72817035927301mm" cy="38.50421301447444mm" fill="none" stroke="black" stroke-width="0.1mm" /><circle r="2.2685000000000044" cx="28.462778099744405mm" cy="31.308018878054106mm" fill="none" stroke="black" stroke-width="0.1mm" /><circle r="2.2820000000000045" cx="34.55429348804718mm" cy="26.518313140201045mm" fill="none" stroke="black" stroke-width="0.1mm" /><circle r="2.2955000000000045" cx="42.29326975878499mm" cy="25.545791657325424mm" fill="none" stroke="black" stroke-width="0.1mm" /><circle r="2.3090000000000046" cx="49.47337522051847mm" cy="28.72045825703598mm" fill="none" stroke="black" stroke-width="0.1mm" /><circle r="2.3225000000000047" cx="54.02039951803559mm" cy="35.182425677307236mm" fill="none" stroke="black" stroke-width="0.1mm" /><circle r="2.3360000000000047" cx="54.59139202023156mm" cy="43.11410964995197mm" fill="none" stroke="black" stroke-width="0.1mm" /><circle r="2.349500000000005" cx="50.97088900893116mm" cy="50.2513325647798mm" fill="none" stroke="black" stroke-width="0.1mm" /><circle r="2.363000000000005" cx="44.14743918526802mm" cy="54.52965409789595mm" fill="none" stroke="black" stroke-width="0.1mm" /><circle r="2.376500000000005" cx="36.0442832146842mm" cy="54.68142805432674mm" fill="none" stroke="black" stroke-width="0.1mm" /><circle r="2.390000000000005" cx="28.97738307143775mm" cy="50.610933797087526mm" fill="none" stroke="black" stroke-width="0.1mm" /><circle r="2.403500000000005" cx="24.993497260853832mm" cy="43.43669907614849mm" fill="none" stroke="black" stroke-width="0.1mm" /><circle r="2.417000000000005" cx="25.277486544931858mm" cy="35.18463941481649mm" fill="none" stroke="black" stroke-width="0.1mm" /><circle r="2.430500000000005" cx="29.800452515163983mm" cy="28.216050912169695mm" fill="none" stroke="black" stroke-width="0.1mm" /><circle r="2.4440000000000053" cx="37.313053161395295mm" cy="24.551934856218608mm" fill="none" stroke="black" stroke-width="0.1mm" /><circle r="2.4575000000000053" cx="45.690178456860174mm" cy="25.286995747669824mm" fill="none" stroke="black" stroke-width="0.1mm" /><circle r="2.4710000000000054" cx="52.5320191372681mm" cy="30.26319372981327mm" fill="none" stroke="black" stroke-width="0.1mm" /><circle r="2.4845000000000055" cx="55.85154096692854mm" cy="38.100033165082166mm" fill="none" stroke="black" stroke-width="0.1mm" /><circle r="2.4980000000000055" cx="54.651424379606866mm" cy="46.577185085480195mm" fill="none" stroke="black" stroke-width="0.1mm" /><circle r="2.5115000000000056" cx="49.222993970126886mm" cy="53.26349905669709mm" fill="none" stroke="black" stroke-width="0.1mm" /><circle r="2.5250000000000057" cx="41.077730831952884mm" cy="56.21422203665226mm" fill="none" stroke="black" stroke-width="0.1mm" /><circle r="2.5385000000000058" cx="32.52671770689614mm" cy="54.5364740142712mm" fill="none" stroke="black" stroke-width="0.1mm" /><circle r="2.552000000000006" cx="26.024944517097854mm" cy="48.65860405895825mm" fill="none" stroke="black" stroke-width="0.1mm" /><circle r="2.565500000000006" cx="23.466495643811328mm" cy="40.222393129146575mm" fill="none" stroke="black" stroke-width="0.1mm" /><circle r="2.579000000000006" cx="25.632962660891813mm" cy="31.6247305657267mm" fill="none" stroke="black" stroke-width="0.1mm" /><circle r="2.592500000000006" cx="31.95565906703741mm" cy="25.336637358563898mm" fill="none" stroke="black" stroke-width="0.1mm" /><circle r="2.606000000000006" cx="40.66371505926536mm" cy="23.193100157372697mm" fill="none" stroke="black" stroke-width="0.1mm" /><circle r="2.619500000000006" cx="49.27985429410292mm" cy="25.857810308151677mm" fill="none" stroke="black" stroke-width="0.1mm" /><circle r="2.6330000000000062" cx="55.325115392118924mm" cy="32.61887960955514mm" fill="none" stroke="black" stroke-width="0.1mm" /><circle r="2.6465000000000063" cx="57.03204775672057mm" cy="41.57809195321154mm" fill="none" stroke="black" stroke-width="0.1mm" /><circle r="2.6600000000000064" cx="53.86120407141288mm" cy="50.1836644529682mm" fill="none" stroke="black" stroke-width="0.1mm" /><circle r="2.6735000000000064" cx="46.670069318943625mm" cy="55.95704234125134mm" fill="none" stroke="black" stroke-width="0.1mm" /><circle r="2.6870000000000065" cx="37.4819277303385mm" cy="57.20672577932138mm" fill="none" stroke="black" stroke-width="0.1mm" /><circle r="2.7005000000000066" cx="28.916740920037885mm" cy="53.523556971686055mm" fill="none" stroke="black" stroke-width="0.1mm" /><circle r="2.7140000000000066" cx="23.44408102697236mm" cy="45.91252458418098mm" fill="none" stroke="black" stroke-width="0.1mm" /><circle r="2.7275000000000067" cx="22.6711393090703mm" cy="36.51916502052275mm" fill="none" stroke="black" stroke-width="0.1mm" /><circle r="2.7410000000000068" cx="26.871066484154827mm" cy="28.024858884484146mm" fill="none" stroke="black" stroke-width="0.1mm" /><circle r="2.754500000000007" cx="34.88996888186047mm" cy="22.88141924774mm" fill="none" stroke="black" stroke-width="0.1mm" /><circle r="2.768000000000007" cx="44.463411735697385mm" cy="22.603461388033544mm" fill="none" stroke="black" stroke-width="0.1mm" /><circle r="2.781500000000007" cx="52.855769801937896mm" cy="27.322768133398267mm" fill="none" stroke="black" stroke-width="0.1mm" /><circle r="2.795000000000007" cx="57.64193615032018mm" cy="35.735660793507726mm" fill="none" stroke="black" stroke-width="0.1mm" /><circle r="2.808500000000007" cx="57.40801476268396mm" cy="45.462695948172296mm" fill="none" stroke="black" stroke-width="0.1mm" /><circle r="2.822000000000007" cx="52.16856689012507mm" cy="53.72157351911772mm" fill="none" stroke="black" stroke-width="0.1mm" /><circle r="2.8355000000000072" cx="43.377400978463925mm" cy="58.122979546163805mm" fill="none" stroke="black" stroke-width="0.1mm" /><circle r="2.8490000000000073" cx="33.5245475229955mm" cy="57.36172270306311mm" fill="none" stroke="black" stroke-width="0.1mm" /><circle r="2.8625000000000074" cx="25.43103711872572mm" cy="51.603273053929776mm" fill="none" stroke="black" stroke-width="0.1mm" /><circle r="2.8760000000000074" cx="21.441196045569882mm" cy="42.45136610505848mm" fill="none" stroke="black" stroke-width="0.1mm" /><circle r="2.8895000000000075" cx="22.74371698536641mm" cy="32.501672085133315mm" fill="none" stroke="black" stroke-width="0.1mm" /><circle r="2.9030000000000076" cx="29.018093458401328mm" cy="24.605655950590396mm" fill="none" stroke="black" stroke-width="0.1mm" /><circle r="2.9165000000000076" cx="38.51142328556163mm" cy="21.0533864670957mm" fill="none" stroke="black" stroke-width="0.1mm" /><circle r="2.9300000000000077" cx="48.52786142598014mm" cy="22.909488612119286mm" fill="none" stroke="black" stroke-width="0.1mm" /><circle r="2.9435000000000078" cx="56.194132213058985mm" cy="29.6947534301228mm" fill="none" stroke="black" stroke-width="0.1mm" /><circle r="2.957000000000008" cx="59.28373582209244mm" cy="39.50843846392407mm" fill="none" stroke="black" stroke-width="0.1mm" /><circle r="2.970500000000008" cx="56.86342608076471mm" cy="49.56049610734636mm" fill="none" stroke="black" stroke-width="0.1mm" /><circle r="2.984000000000008" cx="49.574295896403534mm" cy="56.96476519401641mm" fill="none" stroke="black" stroke-width="0.1mm" /><circle r="2.997500000000008" cx="39.463029288107634mm" cy="59.56763367028752mm" fill="none" stroke="black" stroke-width="0.1mm" /><circle r="3.011000000000008" cx="29.407409164257942mm" cy="56.57425471587044mm" fill="none" stroke="black" stroke-width="0.1mm" /><circle r="3.024500000000008" cx="22.2972828760402mm" cy="48.790280509122596mm" fill="none" stroke="black" stroke-width="0.1mm" /><circle r="3.0380000000000082" cx="20.204083201700946mm" cy="38.405861325096986mm" fill="none" stroke="black" stroke-width="0.1mm" /><circle r="3.0515000000000083" cx="23.777559614178827mm" cy="28.379567437978988mm" fill="none" stroke="black" stroke-width="0.1mm" /><circle r="3.0650000000000084" cx="32.045351508738065mm" cy="21.595487852690468mm" fill="none" stroke="black" stroke-width="0.1mm" /><circle r="3.0785000000000085" cx="42.676896433858026mm" cy="20.033647041024288mm" fill="none" stroke="black" stroke-width="0.1mm" /><circle r="3.0920000000000085" cx="52.64024901242125mm" cy="24.19235296117782mm" fill="none" stroke="black" stroke-width="0.1mm" /><circle r="3.1055000000000086" cx="59.06673810022776mm" cy="32.93093194138555mm" fill="none" stroke="black" stroke-width="0.1mm" /><circle r="3.1190000000000087" cx="60.07687864776854mm" cy="43.78204227405985mm" fill="none" stroke="black" stroke-width="0.1mm" /><circle r="3.1325000000000087" cx="55.32976411854192mm" cy="53.64822175486113mm" fill="none" stroke="black" stroke-width="0.1mm" /><circle r="3.146000000000009" cx="46.135424768766384mm" cy="59.68606011640744mm" fill="none" stroke="black" stroke-width="0.1mm" /><circle r="3.159500000000009" cx="35.093771874037195mm" cy="60.12560932185684mm" fill="none" stroke="black" stroke-width="0.1mm" /><circle r="3.173000000000009" cx="25.35950041337194mm" cy="54.7889104349828mm" fill="none" stroke="black" stroke-width="0.1mm" /><circle r="3.186500000000009" cx="19.740765889789163mm" cy="45.15581790482066mm" fill="none" stroke="black" stroke-width="0.1mm" /><circle r="3.200000000000009" cx="19.88915091321136mm" cy="33.95403035002556mm" fill="none" stroke="black" stroke-width="0.1mm" /><circle r="3.213500000000009" cx="25.8145627544679mm" cy="24.386787801574265mm" fill="none" stroke="black" stroke-width="0.1mm" /><circle r="3.227000000000009" cx="35.86744396091608mm" cy="19.216879912202057mm" fill="none" stroke="black" stroke-width="0.1mm" /><circle r="3.2405000000000093" cx="47.197656935080666mm" cy="19.968900188834247mm" fill="none" stroke="black" stroke-width="0.1mm" /><circle r="3.2540000000000093" cx="56.56248406845526mm" cy="26.480069471991918mm" fill="none" stroke="black" stroke-width="0.1mm" /><circle r="3.2675000000000094" cx="61.254695237136886mm" cy="36.93184821489717mm" fill="none" stroke="black" stroke-width="0.1mm" /><circle r="3.2810000000000095" cx="59.885069631628184mm" cy="48.35756577870002mm" fill="none" stroke="black" stroke-width="0.1mm" /><circle r="3.2945000000000095" cx="52.79321243021927mm" cy="57.484448539067mm" fill="none" stroke="black" stroke-width="0.1mm" /><circle r="3.3080000000000096" cx="41.965315749338984mm" cy="61.671066748210606mm" fill="none" stroke="black" stroke-width="0.1mm" /><circle r="3.3215000000000097" cx="30.478130487098355mm" cy="59.6716808122558mm" fill="none" stroke="black" stroke-width="0.1mm" /><circle r="3.3350000000000097" cx="21.624737972461396mm" cy="52.00634188332553mm" fill="none" stroke="black" stroke-width="0.1mm" /><circle r="3.34850000000001" cx="17.970515684673824mm" cy="40.8269496966545mm" fill="none" stroke="black" stroke-width="0.1mm" /><circle r="3.36200000000001" cx="20.609923075496322mm" cy="29.313348660041868mm" fill="none" stroke="black" stroke-width="0.1mm" /><circle r="3.37550000000001" cx="28.839385630878734mm" cy="20.76888167828603mm" fill="none" stroke="black" stroke-width="0.1mm" /><circle r="3.38900000000001" cx="40.34386105336956mm" cy="17.672647725805586mm" fill="none" stroke="black" stroke-width="0.1mm" /><circle r="3.40250000000001" cx="51.847917138155594mm" cy="20.960370684086367mm" fill="none" stroke="black" stroke-width="0.1mm" /><circle r="3.41600000000001" cx="60.048262910582054mm" cy="29.742439165757844mm" fill="none" stroke="black" stroke-width="0.1mm" /><circle r="3.42950000000001" cx="62.56224132737508mm" cy="41.54385597945101mm" fill="none" stroke="black" stroke-width="0.1mm" /><circle r="3.4430000000000103" cx="58.61994283809234mm" cy="53.00160869685641mm" fill="none" stroke="black" stroke-width="0.1mm" /><circle r="3.4565000000000103" cx="49.298945747220024mm" cy="60.82300729938539mm" fill="none" stroke="black" stroke-width="0.1mm" /><circle r="3.4700000000000104" cx="37.23039156162746mm" cy="62.73189981277619mm" fill="none" stroke="black" stroke-width="0.1mm" /><circle r="3.4835000000000105" cx="25.85638266198749mm" cy="58.130860806808656mm" fill="none" stroke="black" stroke-width="0.1mm" /><circle r="3.4970000000000105" cx="18.448256741470043mm" cy="48.28676429726386mm" fill="none" stroke="black" stroke-width="0.1mm" /><circle r="3.5105000000000106" cx="17.165735528849844mm" cy="35.982464553788226mm" fill="none" stroke="black" stroke-width="0.1mm" /><circle r="3.5240000000000107" cx="22.427530830467845mm" cy="24.730202120334397mm" fill="none" stroke="black" stroke-width="0.1mm" /><circle r="3.5375000000000107" cx="32.776761263379065mm" cy="17.769043044579096mm" fill="none" stroke="black" stroke-width="0.1mm" /><circle r="3.551000000000011" cx="45.283908133125266mm" cy="17.132529330057274mm" fill="none" stroke="black" stroke-width="0.1mm" /><circle r="3.564500000000011" cx="56.37598289545109mm" cy="23.054900141696084mm" fill="none" stroke="black" stroke-width="0.1mm" /><circle r="3.578000000000011" cx="62.85724291837505mm" cy="33.88918612864118mm" fill="none" stroke="black" stroke-width="0.1mm" /><circle r="3.591500000000011" cx="62.8298620424178mm" cy="46.5648628412305mm" fill="none" stroke="black" stroke-width="0.1mm" /><circle r="3.605000000000011" cx="56.24933330849012mm" cy="57.457997222751274mm" fill="none" stroke="black" stroke-width="0.1mm" /><circle r="3.618500000000011" cx="44.95215170839768mm" cy="63.42731778196155mm" fill="none" stroke="black" stroke-width="0.1mm" /><circle r="3.632000000000011" cx="32.14358716732797mm" cy="62.719999502698585mm" fill="none" stroke="black" stroke-width="0.1mm" /><circle r="3.6455000000000113" cx="21.48832732907502mm" cy="55.48600012671209mm" fill="none" stroke="black" stroke-width="0.1mm" /><circle r="3.6590000000000114" cx="16.061966236503817mm" cy="43.75012526960292mm" fill="none" stroke="black" stroke-width="0.1mm" /><circle r="3.6725000000000114" cx="17.463330400772307mm" cy="30.845539427402407mm" fill="none" stroke="black" stroke-width="0.1mm" /><circle r="3.6860000000000115" cx="25.343818105939413mm" cy="20.467137120017245mm" fill="none" stroke="black" stroke-width="0.1mm" /><circle r="3.6995000000000116" cx="37.49218841329282mm" cy="15.61360817903611mm" fill="none" stroke="black" stroke-width="0.1mm" /><circle r="3.7130000000000116" cx="50.45481054951773mm" cy="17.721107828850865mm" fill="none" stroke="black" stroke-width="0.1mm" /><circle r="3.7265000000000117" cx="60.51745827917479mm" cy="26.238788906410914mm" fill="none" stroke="black" stroke-width="0.1mm" /><circle r="3.7400000000000118" cx="64.76955444336338mm" cy="38.771516106228965mm" fill="none" stroke="black" stroke-width="0.1mm" /><circle r="3.753500000000012" cx="61.94592727425269mm" cy="51.75318259337483mm" fill="none" stroke="black" stroke-width="0.1mm" /><circle r="3.767000000000012" cx="52.802670154007686mm" cy="61.46140109423609mm" fill="none" stroke="black" stroke-width="0.1mm" /><circle r="3.780500000000012" cx="39.91560303677396mm" cy="65.08485802536254mm" fill="none" stroke="black" stroke-width="0.1mm" /><circle r="3.794000000000012" cx="26.954774350359855mm" cy="61.53728134537802mm" fill="none" stroke="black" stroke-width="0.1mm" /><circle r="3.807500000000012" cx="17.639299648535424mm" cy="51.78238960449063mm" fill="none" stroke="black" stroke-width="0.1mm" /><circle r="3.821000000000012" cx="14.670175220787492mm" cy="38.57280812278486mm" fill="none" stroke="black" stroke-width="0.1mm" /><circle r="3.8345000000000122" cx="18.947287423438414mm" cy="25.6734680341444mm" fill="none" stroke="black" stroke-width="0.1mm" /><circle r="3.8480000000000123" cx="29.297554661476724mm" cy="16.7885531735758mm" fill="none" stroke="black" stroke-width="0.1mm" /><circle r="3.8615000000000124" cx="42.79609356605803mm" cy="14.49782586190257mm" fill="none" stroke="black" stroke-width="0.1mm" /><circle r="3.8750000000000124" cx="55.59265164529062mm" cy="19.507764527299315mm" fill="none" stroke="black" stroke-width="0.1mm" /><circle r="3.8885000000000125" cx="64.00982788485001mm" cy="30.43484501223974mm" fill="none" stroke="black" stroke-width="0.1mm" /><circle r="3.9020000000000126" cx="65.59983360648778mm" cy="44.187137365806734mm" fill="none" stroke="black" stroke-width="0.1mm" /><circle r="3.9155000000000126" cx="59.85612456910822mm" cy="56.839107520770014mm" fill="none" stroke="black" stroke-width="0.1mm" /><circle r="3.9290000000000127" cx="48.37307340992661mm" cy="64.7521421632952mm" fill="none" stroke="black" stroke-width="0.1mm" /><circle r="3.9425000000000128" cx="34.40378729939099mm" cy="65.62094901461572mm" fill="none" stroke="black" stroke-width="0.1mm" /><circle r="3.956000000000013" cx="21.938589699732628mm" cy="59.14491728802691mm" fill="none" stroke="black" stroke-width="0.1mm" /><circle r="3.969500000000013" cx="14.565185962799912mm" cy="47.12898729785974mm" fill="none" stroke="black" stroke-width="0.1mm" /><circle r="3.983000000000013" cx="14.436105864103467mm" cy="32.980924803888286mm" fill="none" stroke="black" stroke-width="0.1mm" /><circle r="3.996500000000013" cx="21.640584084045326mm" cy="20.744926065450016mm" fill="none" stroke="black" stroke-width="0.1mm" /><circle r="4.010000000000013" cx="34.16409108014819mm" cy="13.94559217561854mm" fill="none" stroke="black" stroke-width="0.1mm" /><circle r="4.023500000000013" cx="48.45135940075378mm" cy="14.572720372023937mm" fill="none" stroke="black" stroke-width="0.1mm" /><circle r="4.037000000000012" cx="60.41563115601295mm" cy="22.49931131350457mm" fill="none" stroke="black" stroke-width="0.1mm" /><circle r="4.050500000000012" cx="66.60764167243627mm" cy="35.502930995500684mm" fill="none" stroke="black" stroke-width="0.1mm" /><circle r="4.064000000000012" cx="65.20996126008473mm" cy="49.88859207698563mm" fill="none" stroke="black" stroke-width="0.1mm" /><circle r="4.077500000000011" cx="56.57006995638203mm" cy="61.538649136856314mm" fill="none" stroke="black" stroke-width="0.1mm" /><circle r="4.091000000000011" cx="43.11590878628857mm" cy="67.09140107922669mm" fill="none" stroke="black" stroke-width="0.1mm" /><circle r="4.1045000000000105" cx="28.673793977790403mm" cy="64.91104739151805mm" fill="none" stroke="black" stroke-width="0.1mm" /><circle r="4.11800000000001" cx="17.380254786056753mm" cy="55.56915946531112mm" fill="none" stroke="black" stroke-width="0.1mm" /><circle r="4.13150000000001" cx="12.497248003537585mm" cy="41.69607123113324mm" fill="none" stroke="black" stroke-width="0.1mm" /><circle r="4.145000000000009" cx="15.47009433166415mm" cy="27.240445622885584mm" fill="none" stroke="black" stroke-width="0.1mm" /><circle r="4.158500000000009" cx="25.50017932672585mm" cy="16.345397372965945mm" fill="none" stroke="black" stroke-width="0.1mm" /><circle r="4.172000000000009" cx="39.758608535978205mm" cy="12.161046532581505mm" fill="none" stroke="black" stroke-width="0.1mm" /><circle r="4.185500000000008" cx="54.18392537708433mm" cy="15.933831092230363mm" fill="none" stroke="black" stroke-width="0.1mm" /><circle r="4.199000000000008" cx="64.63898621662264mm" cy="26.6358218278461mm" fill="none" stroke="black" stroke-width="0.1mm" /><circle r="4.2125000000000075" cx="68.09746975102131mm" cy="41.244113576180794mm" fill="none" stroke="black" stroke-width="0.1mm" /><circle r="4.226000000000007" cx="63.51974014234405mm" cy="55.59455750050654mm" fill="none" stroke="black" stroke-width="0.1mm" /><circle r="4.239500000000007" cx="52.16461417147255mm" cy="65.56875802731145mm" fill="none" stroke="black" stroke-width="0.1mm" /><circle r="4.253000000000006" cx="37.243743773088774mm" cy="68.27598188589756mm" fill="none" stroke="black" stroke-width="0.1mm" /><circle r="4.266500000000006" cx="23.01334503391292mm" cy="62.890796798344596mm" fill="none" stroke="black" stroke-width="0.1mm" /><circle r="4.280000000000006" cx="13.560107237449454mm" cy="50.90376406131485mm" fill="none" stroke="black" stroke-width="0.1mm" /><circle r="4.293500000000005" cx="11.627601350491169mm" cy="35.70931009354631mm" fill="none" stroke="black" stroke-width="0.1mm" /><circle r="4.307000000000005" cx="17.82020601400673mm" cy="21.644596470279094mm" fill="none" stroke="black" stroke-width="0.1mm" /><circle r="4.3205000000000044" cx="30.415488941402327mm" cy="12.751506963363777mm" fill="none" stroke="black" stroke-width="0.1mm" /><circle r="4.334000000000004" cx="45.84292159957925mm" cy="11.615133130818382mm" fill="none" stroke="black" stroke-width="0.1mm" /><circle r="4.347500000000004" cx="59.69598653005293mm" cy="18.612533118483448mm" fill="none" stroke="black" stroke-width="0.1mm" /><circle r="4.361000000000003" cx="67.99080437011723mm" cy="31.790020053994066mm" fill="none" stroke="black" stroke-width="0.1mm" /><circle r="4.374500000000003" cx="68.31178104368752mm" cy="47.408324988436306mm" fill="none" stroke="black" stroke-width="0.1mm" /><circle r="4.388000000000003" cx="60.51483218419898mm" cy="61.003601130619174mm" fill="none" stroke="black" stroke-width="0.1mm" /><circle r="4.401500000000002" cx="46.783529916052665mm" cy="68.66322987519048mm" fill="none" stroke="black" stroke-width="0.1mm" /><circle r="4.415000000000002" cx="31.01784580961529mm" cy="68.15179223602199mm" fill="none" stroke="black" stroke-width="0.1mm" /><circle r="4.428500000000001" cx="17.726525294624967mm" cy="59.56318863449954mm" fill="none" stroke="black" stroke-width="0.1mm" /><circle r="4.442000000000001" cx="10.737655421716177mm" cy="45.30874653583844mm" fill="none" stroke="black" stroke-width="0.1mm" /><circle r="4.455500000000001" cx="12.096183799829792mm" cy="29.440441937888135mm" fill="none" stroke="black" stroke-width="0.1mm" /><circle r="4.469" cx="21.465883417640974mm" cy="16.49911868649354mm" fill="none" stroke="black" stroke-width="0.1mm" /><circle r="4.4825" cx="36.210567148828225mm" cy="10.2150906721801mm" fill="none" stroke="black" stroke-width="0.1mm" /><circle r="4.4959999999999996" cx="52.13559502713592mm" cy="12.432959293073427mm" fill="none" stroke="black" stroke-width="0.1mm" /><circle r="4.509499999999999" cx="64.68115820868313mm" cy="22.57052340206551mm" fill="none" stroke="black" stroke-width="0.1mm" /><circle r="4.522999999999999" cx="70.22788423613004mm" cy="37.77040034824329mm" fill="none" stroke="black" stroke-width="0.1mm" /><circle r="4.536499999999998" cx="67.14093203624441mm" cy="53.70524838169506mm" fill="none" stroke="black" stroke-width="0.1mm" /><circle r="4.549999999999998" cx="56.251407120151mm" cy="65.80972232735365mm" fill="none" stroke="black" stroke-width="0.1mm" /><circle r="4.563499999999998" cx="40.63345492214678mm" cy="70.58844160563922mm" fill="none" stroke="black" stroke-width="0.1mm" /><circle r="4.576999999999997" cx="24.73655796794789mm" cy="66.62524060612743mm" fill="none" stroke="black" stroke-width="0.1mm" /><circle r="4.590499999999997" cx="13.117913299695047mm" cy="55.00232114165271mm" fill="none" stroke="black" stroke-width="0.1mm" /><circle r="4.6039999999999965" cx="9.136021709230977mm" cy="39.00539250609571mm" fill="none" stroke="black" stroke-width="0.1mm" /><circle r="4.617499999999996" cx="13.979994289273684mm" cy="23.194943385582963mm" fill="none" stroke="black" stroke-width="0.1mm" /><circle r="4.630999999999996" cx="26.31509806804764mm" cy="12.106123268487071mm" fill="none" stroke="black" stroke-width="0.1mm" /><circle r="4.644499999999995" cx="42.650019985206264mm" cy="8.947872551498197mm" fill="none" stroke="black" stroke-width="0.1mm" /><circle r="4.657999999999995" cx="58.32494594701231mm" cy="14.674440656935754mm" fill="none" stroke="black" stroke-width="0.1mm" /><circle r="4.671499999999995" cx="68.84084628830132mm" cy="27.697902196187513mm" fill="none" stroke="black" stroke-width="0.1mm" /><circle r="4.684999999999994" cx="71.15076963221236mm" cy="44.3280539877441mm" fill="none" stroke="black" stroke-width="0.1mm" /><circle r="4.698499999999994" cx="64.54252908067707mm" cy="59.81795376228615mm" fill="none" stroke="black" stroke-width="0.1mm" /><circle r="4.7119999999999935" cx="50.85711593112974mm" cy="69.71889354700137mm" fill="none" stroke="black" stroke-width="0.1mm" /><circle r="4.725499999999993" cx="33.97616651381402mm" cy="71.15804318519852mm" fill="none" stroke="black" stroke-width="0.1mm" /><circle r="4.738999999999993" cx="18.72106933408056mm" cy="63.67184001540616mm" fill="none" stroke="black" stroke-width="0.1mm" /><circle r="4.752499999999992" cx="9.47592346133288mm" cy="49.353415229828215mm" fill="none" stroke="black" stroke-width="0.1mm" /><circle r="4.765999999999992" cx="8.92764610767594mm" cy="32.26765083624872mm" fill="none" stroke="black" stroke-width="0.1mm" /><circle r="4.779499999999992" cx="17.285284288382304mm" cy="17.297248731918433mm" fill="none" stroke="black" stroke-width="0.1mm" /><circle r="4.792999999999991" cx="32.20530168351553mm" cy="8.747371660050973mm" fill="none" stroke="black" stroke-width="0.1mm" /><circle r="4.806499999999991" cx="49.44847315942711mm" cy="9.107616149678961mm" fill="none" stroke="black" stroke-width="0.1mm" /><circle r="4.8199999999999905" cx="64.08433143137194mm" cy="18.32732181976994mm" fill="none" stroke="black" stroke-width="0.1mm" /><circle r="4.83349999999999" cx="71.90097185496316mm" cy="33.81509743740136mm" fill="none" stroke="black" stroke-width="0.1mm" /><circle r="4.84699999999999" cx="70.61709951957717mm" cy="51.1669743891664mm" fill="none" stroke="black" stroke-width="0.1mm" /><circle r="4.860499999999989" cx="60.547546859102916mm" cy="65.41864557904218mm" fill="none" stroke="black" stroke-width="0.1mm" /><circle r="4.873999999999989" cx="44.5281902655792mm" cy="72.46573413491068mm" fill="none" stroke="black" stroke-width="0.1mm" /><circle r="4.887499999999989" cx="27.117465614528818mm" cy="70.24575892265133mm" fill="none" stroke="black" stroke-width="0.1mm" /><circle r="4.900999999999988" cx="13.299255993566877mm" cy="59.34143659356553mm" fill="none" stroke="black" stroke-width="0.1mm" /><circle r="4.914499999999988" cx="7.0562398166970155mm" cy="42.82893796061538mm" fill="none" stroke="black" stroke-width="0.1mm" /><circle r="4.9279999999999875" cx="10.222082042690538mm" cy="25.41023639232848mm" fill="none" stroke="black" stroke-width="0.1mm" /><circle r="4.941499999999987" cx="21.943245385870252mm" cy="12.074229861916184mm" fill="none" stroke="black" stroke-width="0.1mm" /><circle r="4.954999999999987" cx="38.908275099341864mm" cy="6.667873804071952mm" fill="none" stroke="black" stroke-width="0.1mm" /><circle r="4.968499999999986" cx="56.28321817325945mm" cy="10.786564205454663mm" fill="none" stroke="black" stroke-width="0.1mm" /><circle r="4.981999999999986" cx="69.08897767267877mm" cy="23.303803488267594mm" fill="none" stroke="black" stroke-width="0.1mm" /><circle r="4.995499999999986" cx="73.62815218614985mm" cy="40.67867926528979mm" fill="none" stroke="black" stroke-width="0.1mm" /><circle r="5.008999999999985" cx="68.55247933484011mm" cy="57.95741695883673mm" fill="none" stroke="black" stroke-width="0.1mm" /><circle r="5.022499999999985" cx="55.262741214173666mm" cy="70.18574755789814mm" fill="none" stroke="black" stroke-width="0.1mm" /><circle r="5.0359999999999845" cx="37.52267241752547mm" cy="73.82941394776297mm" fill="none" stroke="black" stroke-width="0.1mm" /><circle r="5.049499999999984" cx="20.39314098240844mm" cy="67.79552669881032mm" fill="none" stroke="black" stroke-width="0.1mm" /><circle r="5.062999999999984" cx="8.788395262676797mm" cy="53.75964497075026mm" fill="none" stroke="black" stroke-width="0.1mm" /><circle r="5.076499999999983" cx="6.066245690578086mm" cy="35.700890386629084mm" fill="none" stroke="black" stroke-width="0.1mm" /><circle r="5.089999999999983" cx="13.05663026861134mm" cy="18.77395874126129mm" fill="none" stroke="black" stroke-width="0.1mm" /><circle r="5.103499999999983" cx="27.80956564458474mm" cy="7.837765388171491mm" fill="none" stroke="black" stroke-width="0.1mm" /><circle r="5.116999999999982" cx="46.138765954716625mm" cy="6.060706363372844mm" fill="none" stroke="black" stroke-width="0.1mm" /><circle r="5.130499999999982" cx="62.809476333045964mm" cy="14.00288449823319mm" fill="none" stroke="black" stroke-width="0.1mm" /><circle r="5.1439999999999815" cx="73.03349915836219mm" cy="29.44110169788187mm" fill="none" stroke="black" stroke-width="0.1mm" /><circle r="5.157499999999981" cx="73.84443953936966mm" cy="47.9909034073714mm" fill="none" stroke="black" stroke-width="0.1mm" /><circle r="5.170999999999981" cx="64.95818678449278mm" cy="64.35171066743276mm" fill="none" stroke="black" stroke-width="0.1mm" /><circle r="5.18449999999998" cx="48.86907918927905mm" cy="73.82145264967613mm" fill="none" stroke="black" stroke-width="0.1mm" /><circle r="5.19799999999998" cx="30.149989244716288mm" cy="73.64789574580828mm" fill="none" stroke="black" stroke-width="0.1mm" /><circle r="5.21149999999998" cx="14.152657409331685mm" cy="63.82832151035006mm" fill="none" stroke="black" stroke-width="0.1mm" /><circle r="5.224999999999979" cx="5.477643080581203mm" cy="47.12526299361959mm" fill="none" stroke="black" stroke-width="0.1mm" /><g transform="translate(135,285) scale(0.4)" fill="black" stroke="none">
<path
         d="m 6.909225,12.189723 h 3.199798 l 3.274213,9.11157 3.265944,-9.11157 h 3.199798 l -4.572322,12.344441 h -3.795109 z"
         style="font-size:16.9333px;stroke-width:0.265"
         id="path428" />
      <path
         d="M 27.827804,22.285211 H 22.85034 l -0.78548,2.248953 h -3.199799 l 4.572322,-12.344441 h 3.79511 l 4.572321,12.344441 h -3.199798 z m -4.183716,-2.290295 h 3.381699 l -1.686715,-4.911319 z"
         style="font-size:16.9333px;stroke-width:0.265"
         id="path430" />
      <path
         d="m 37.964634,17.66328 q 1.000454,0 1.430401,-0.37207 0.438215,-0.37207 0.438215,-1.223696 0,-0.843357 -0.438215,-1.207159 -0.429947,-0.363801 -1.430401,-0.363801 h -1.33945 v 3.166726 z m -1.33945,2.199344 v 4.67154 H 33.441922 V 12.189723 h 4.861709 q 2.439123,0 3.571868,0.818553 1.141013,0.818553 1.141013,2.58795 0,1.223696 -0.595311,2.009176 -0.587043,0.78548 -1.777666,1.15755 0.653189,0.148828 1.165818,0.677993 0.520898,0.520898 1.050063,1.587497 l 1.728057,3.505722 h -3.389967 l -1.504815,-3.067507 q -0.454752,-0.926039 -0.92604,-1.265036 -0.46302,-0.338997 -1.240232,-0.338997 z"
         style="font-size:16.9333px;stroke-width:0.265"
         id="path432" />
      <path
         d="m 46.480893,12.189723 h 3.183262 v 12.344441 h -3.183262 z"
         style="font-size:16.9333px;stroke-width:0.265"
         id="path434" />
      <path
         d="m 62.570834,23.856171 q -0.876431,0.454752 -1.827275,0.686262 -0.950845,0.23151 -1.984371,0.23151 -3.084044,0 -4.886514,-1.719789 -1.802471,-1.728056 -1.802471,-4.679808 0,-2.96002 1.802471,-4.679809 1.80247,-1.728056 4.886514,-1.728056 1.033526,0 1.984371,0.23151 0.950844,0.23151 1.827275,0.686261 v 2.554878 q -0.884699,-0.603579 -1.744593,-0.884699 -0.859894,-0.281119 -1.810739,-0.281119 -1.703252,0 -2.678901,1.091404 -0.975649,1.091404 -0.975649,3.00963 0,1.909957 0.975649,3.001361 0.975649,1.091404 2.678901,1.091404 0.950845,0 1.810739,-0.281119 0.859894,-0.281119 1.744593,-0.884699 z"
         style="font-size:16.9333px;stroke-width:0.265"
         id="path436" />
      <path
         d="m 65.208394,12.189723 h 3.183262 v 12.344441 h -3.183262 z"
         style="font-size:16.9333px;stroke-width:0.265"
         id="path438" />
      <path
         d="m 70.037033,12.189723 h 11.377061 v 2.40605 h -4.092766 v 9.938391 h -3.183262 v -9.938391 h -4.101033 z"
         style="font-size:16.9333px;stroke-width:0.265"
         id="path440" />
      <path
         d="m 83.059464,12.189723 h 8.590673 v 2.40605 h -5.407411 v 2.298563 h 5.084951 v 2.40605 h -5.084951 v 2.827728 h 5.589312 v 2.40605 h -8.772574 z"
         style="font-size:16.9333px;stroke-width:0.265"
         id="path442" />
         </g>
</svg>