<svg width="80" height="80" fill="none" stroke="black" viewBox="0 0 80 80"><circle r="40" cx="40" cy="40" stroke-width="0.1" /><circle r="0.2" cx="39.167706326905716" cy="41.81859485365136" fill="none" stroke="black" stroke-width="0.1" /><circle r="0.201" cx="37.90967447127759" cy="39.86012797287745" fill="none" stroke="black" stroke-width="0.1" /><circle r="0.202" cx="39.362075209963464" cy="37.904969698964514" fill="none" stroke="black" stroke-width="0.1" /><circle r="0.203" cx="41.80798064387892" cy="38.60270583220313" fill="none" stroke="black" stroke-width="0.1" /><circle r="0.20400000000000001" cx="42.028457231862355" cy="41.244894075214965" fill="none" stroke="black" stroke-width="0.1" /><circle r="0.20500000000000002" cx="39.53730578786823" cy="42.431365679214004" fill="none" stroke="black" stroke-width="0.1" /><circle r="0.20600000000000002" cx="37.46895610312089" cy="40.44577661678357" fill="none" stroke="black" stroke-width="0.1" /><circle r="0.20700000000000002" cx="38.63732095329195" cy="37.70973127872233" fill="none" stroke="black" stroke-width="0.1" /><circle r="0.20800000000000002" cx="41.717557804972316" cy="37.83953820062037" fill="none" stroke="black" stroke-width="0.1" /><circle r="0.20900000000000002" cx="42.719527600929304" cy="40.8690193483368" fill="none" stroke="black" stroke-width="0.1" /><circle r="0.21000000000000002" cx="40.15656106188411" cy="42.94584260168491" fill="none" stroke="black" stroke-width="0.1" /><circle r="0.21100000000000002" cx="37.21406752322576" cy="41.22906681464213" fill="none" stroke="black" stroke-width="0.1" /><circle r="0.21200000000000002" cx="37.79645105328839" cy="37.763044023802394" fill="none" stroke="black" stroke-width="0.1" /><circle r="0.21300000000000002" cx="41.35014117326085" cy="37.060213645132386" fill="none" stroke="black" stroke-width="0.1" /><circle r="0.21400000000000002" cx="43.322271682478366" cy="40.22673964761899" fill="none" stroke="black" stroke-width="0.1" /><circle r="0.21500000000000002" cx="40.99331469106549" cy="43.27779665698064" fill="none" stroke="black" stroke-width="0.1" /><circle r="0.21600000000000003" cx="37.21198269463733" cy="42.148804203504426" fill="none" stroke="black" stroke-width="0.1" /><circle r="0.21700000000000003" cx="36.92147537267575" cy="38.10503004800654" fill="none" stroke="black" stroke-width="0.1" /><circle r="0.21800000000000003" cx="40.69841450991097" cy="36.356331906945165" fill="none" stroke="black" stroke-width="0.1" /><circle r="0.21900000000000003" cx="43.748197118608886" cy="39.34498598484302" fill="none" stroke="black" stroke-width="0.1" /><circle r="0.22000000000000003" cx="41.98971069770049" cy="43.354258687021066" fill="none" stroke="black" stroke-width="0.1" /><circle r="0.22100000000000003" cx="37.50974560347087" cy="43.123885087606034" fill="none" stroke="black" stroke-width="0.1" /><circle r="0.22200000000000003" cx="36.105731399252065" cy="38.74989117864532" fill="none" stroke="black" stroke-width="0.1" /><circle r="0.22300000000000003" cx="39.78344694342975" cy="35.820606530405385" fill="none" stroke="black" stroke-width="0.1" /><circle r="0.22400000000000003" cx="43.91815039864848" cy="38.27764769760342" fill="none" stroke="black" stroke-width="0.1" /><circle r="0.22500000000000003" cx="43.06608863943779" cy="43.120853321627045" fill="none" stroke="black" stroke-width="0.1" /><circle r="0.22600000000000003" cx="38.12903217376531" cy="44.05960335417078" fill="none" stroke="black" stroke-width="0.1" /><circle r="0.22700000000000004" cx="35.44601142489076" cy="39.68311980532926" fill="none" stroke="black" stroke-width="0.1" /><circle r="0.22800000000000004" cx="38.6544370897923" cy="35.538491235616206" fill="none" stroke="black" stroke-width="0.1" /><circle r="0.22900000000000004" cx="43.770051916914014" cy="37.10228822279147" fill="none" stroke="black" stroke-width="0.1" /><circle r="0.23000000000000004" cx="44.1268667334885" cy="42.54783652615822" fill="none" stroke="black" stroke-width="0.1" /><circle r="0.23100000000000004" cx="39.06264414419653" cy="44.855346434559635" fill="none" stroke="black" stroke-width="0.1" /><circle r="0.23200000000000004" cx="35.03409147349605" cy="40.861018296202424" fill="none" stroke="black" stroke-width="0.1" /><circle r="0.23300000000000004" cx="37.386082988956666" cy="35.58008338773475" fill="none" stroke="black" stroke-width="0.1" /><circle r="0.23400000000000004" cx="43.265512121858215" cy="35.914742286954585" fill="none" stroke="black" stroke-width="0.1" /><circle r="0.23500000000000004" cx="45.06799990952325" cy="41.63432001672631" fill="none" stroke="black" stroke-width="0.1" /><circle r="0.23600000000000004" cx="40.273268123470785" cy="45.41310673575672" fill="none" stroke="black" stroke-width="0.1" /><circle r="0.23700000000000004" cx="34.94831828050998" cy="42.21263119497362" fill="none" stroke="black" stroke-width="0.1" /><circle r="0.23800000000000004" cx="36.07371749734664" cy="35.99295548947131" fill="none" stroke="black" stroke-width="0.1" /><circle r="0.23900000000000005" cx="42.39477089154302" cy="34.82196008348543" fill="none" stroke="black" stroke-width="0.1" /><circle r="0.24000000000000005" cx="45.785469685527424" cy="40.41029320959917" fill="none" stroke="black" stroke-width="0.1" /><circle r="0.24100000000000005" cx="41.69466756477838" cy="45.64616036301557" fill="none" stroke="black" stroke-width="0.1" /><circle r="0.24200000000000005" cx="35.24592070781647" cy="43.64401290936678" fill="none" stroke="black" stroke-width="0.1" /><circle r="0.24300000000000005" cx="34.82652200921836" cy="36.79650964120415" fill="none" stroke="black" stroke-width="0.1" /><circle r="0.24400000000000005" cx="41.179517004946874" cy="33.93360571384936" fill="none" stroke="black" stroke-width="0.1" /><circle r="0.24500000000000005" cx="46.18417167843883" cy="38.93621165094036" fill="none" stroke="black" stroke-width="0.1" /><circle r="0.24600000000000005" cx="43.235294664421865" cy="45.48723686698172" fill="none" stroke="black" stroke-width="0.1" /><circle r="0.24700000000000005" cx="35.956673105794884" cy="45.044574573400375" fill="none" stroke="black" stroke-width="0.1" /><circle r="0.24800000000000005" cx="33.759284692384966" cy="37.97834907827802" fill="none" stroke="black" stroke-width="0.1" /><circle r="0.24900000000000005" cx="39.67329406010457" cy="33.35302412906162" fill="none" stroke="black" stroke-width="0.1" /><circle r="0.25000000000000006" cx="46.1865204484308" cy="37.30009912382925" fill="none" stroke="black" stroke-width="0.1" /><circle r="0.25100000000000006" cx="44.78412596641191" cy="44.895524868438855" fill="none" stroke="black" stroke-width="0.1" /><circle r="0.25200000000000006" cx="37.078452381796396" cy="46.29509011171157" fill="none" stroke="black" stroke-width="0.1" /><circle r="0.25300000000000006" cx="32.98329150653678" cy="39.49302177782367" fill="none" stroke="black" stroke-width="0.1" /><circle r="0.25400000000000006" cx="37.95937321681802" cy="33.16825481068268" fill="none" stroke="black" stroke-width="0.1" /><circle r="0.25500000000000006" cx="45.7400942377778" cy="35.612296370374345" fill="none" stroke="black" stroke-width="0.1" /><circle r="0.25600000000000006" cx="46.21835284572539" cy="43.86192800114902" fill="none" stroke="black" stroke-width="0.1" /><circle r="0.25700000000000006" cx="38.57510329888647" cy="47.27680523245989" fill="none" stroke="black" stroke-width="0.1" /><circle r="0.25800000000000006" cx="32.59701986967448" cy="41.263323074278894" fill="none" stroke="black" stroke-width="0.1" /><circle r="0.25900000000000006" cx="36.14615965450483" cy="33.4437861847379" fill="none" stroke="black" stroke-width="0.1" /><circle r="0.26000000000000006" cx="44.82369461778175" cy="33.9981694263847" fill="none" stroke="black" stroke-width="0.1" /><circle r="0.26100000000000007" cx="47.412408578952245" cy="42.412099512597905" fill="none" stroke="black" stroke-width="0.1" /><circle r="0.26200000000000007" cx="40.37686619471788" cy="47.88099434533986" fill="none" stroke="black" stroke-width="0.1" /><circle r="0.26300000000000007" cx="32.67733941002656" cy="43.1841587403975" fill="none" stroke="black" stroke-width="0.1" /><circle r="0.26400000000000007" cx="34.3603855309511" cy="34.21371028719662" fill="none" stroke="black" stroke-width="0.1" /><circle r="0.26500000000000007" cx="43.45129524473329" cy="32.589251985549545" fill="none" stroke="black" stroke-width="0.1" /><circle r="0.26600000000000007" cx="48.24769847948394" cy="40.60693475062673" fill="none" stroke="black" stroke-width="0.1" /><circle r="0.26700000000000007" cx="42.38343870491736" cy="48.018256976419615" fill="none" stroke="black" stroke-width="0.1" /><circle r="0.26800000000000007" cx="33.27190844672523" cy="45.12877997683197" fill="none" stroke="black" stroke-width="0.1" /><circle r="0.2690000000000001" cx="32.73851424904719" cy="35.476854005373106" fill="none" stroke="black" stroke-width="0.1" /><circle r="0.2700000000000001" cx="41.673493676714415" cy="31.513427139651906" fill="none" stroke="black" stroke-width="0.1" /><circle r="0.2710000000000001" cx="48.622327436132515" cy="38.54037861617594" fill="none" stroke="black" stroke-width="0.1" /><circle r="0.2720000000000001" cx="44.46955075190584" cy="47.6268418153347" fill="none" stroke="black" stroke-width="0.1" /><circle r="0.2730000000000001" cx="34.393388812221495" cy="46.957020625891296" fill="none" stroke="black" stroke-width="0.1" /><circle r="0.2740000000000001" cx="31.416926488948647" cy="37.194336245397785" fill="none" stroke="black" stroke-width="0.1" /><circle r="0.2750000000000001" cx="39.57625141162319" cy="30.884844371386265" fill="none" stroke="black" stroke-width="0.1" /><circle r="0.2760000000000001" cx="48.46009614400882" cy="36.334597807316754" fill="none" stroke="black" stroke-width="0.1" /><circle r="0.2770000000000001" cx="46.492743457195225" cy="46.67933435299122" fill="none" stroke="black" stroke-width="0.1" /><circle r="0.2780000000000001" cx="36.015989000844066" cy="48.5250077043135" fill="none" stroke="black" stroke-width="0.1" /><circle r="0.2790000000000001" cx="30.521566874986895" cy="39.28983769837141" fill="none" stroke="black" stroke-width="0.1" /><circle r="0.2800000000000001" cx="37.27689851941666" cy="30.794310545839334" fill="none" stroke="black" stroke-width="0.1" /><circle r="0.2810000000000001" cx="47.718066031239104" cy="34.132762000955374" fill="none" stroke="black" stroke-width="0.1" /><circle r="0.2820000000000001" cx="48.30287116522466" cy="45.187140870815156" fill="none" stroke="black" stroke-width="0.1" /><circle r="0.2830000000000001" cx="38.07469334719721" cy="49.69569075892345" fill="none" stroke="black" stroke-width="0.1" /><circle r="0.2840000000000001" cx="30.15779285209628" cy="41.6526822010759" fill="none" stroke="black" stroke-width="0.1" /><circle r="0.2850000000000001" cx="34.91757740871029" cy="31.300884780418865" fill="none" stroke="black" stroke-width="0.1" /><circle r="0.2860000000000001" cx="46.392072490376265" cy="32.08986035029879" fill="none" stroke="black" stroke-width="0.1" /><circle r="0.2870000000000001" cx="49.752703895034585" cy="43.20234160198086" fill="none" stroke="black" stroke-width="0.1" /><circle r="0.2880000000000001" cx="40.46735283287681" cy="50.3494531898841" fill="none" stroke="black" stroke-width="0.1" /><circle r="0.2890000000000001" cx="30.401178894166303" cy="44.143628648684846" fill="none" stroke="black" stroke-width="0.1" /><circle r="0.2900000000000001" cx="32.65649161420943" cy="32.42534590969173" fill="none" stroke="black" stroke-width="0.1" /><circle r="0.2910000000000001" cx="44.519692099010605" cy="30.362136734206004" fill="none" stroke="black" stroke-width="0.1" /><circle r="0.2920000000000001" cx="50.70890591234962" cy="40.816660370315326" fill="none" stroke="black" stroke-width="0.1" /><circle r="0.2930000000000001" cx="43.05961327188419" cy="50.39403634910473" fill="none" stroke="black" stroke-width="0.1" /><circle r="0.2940000000000001" cx="31.28998754276266" cy="46.6030737535462" fill="none" stroke="black" stroke-width="0.1" /><circle r="0.2950000000000001" cx="30.657496446554248" cy="34.14609084851381" fill="none" stroke="black" stroke-width="0.1" /><circle r="0.2960000000000001" cx="42.18033433907789" cy="29.095847480439474" fill="none" stroke="black" stroke-width="0.1" /><circle r="0.2970000000000001" cx="51.062612815777406" cy="38.15749553916474" fill="none" stroke="black" stroke-width="0.1" /><circle r="0.2980000000000001" cx="45.69245258128558" cy="49.77302837455287" fill="none" stroke="black" stroke-width="0.1" /><circle r="0.2990000000000001" cx="32.81992559724154" cy="48.86118257180458" fill="none" stroke="black" stroke-width="0.1" /><circle r="0.3000000000000001" cx="29.07870647435177" cy="36.39786900201639" fill="none" stroke="black" stroke-width="0.1" /><circle r="0.3010000000000001" cx="39.49232134821076" cy="28.416119502234242" fill="none" stroke="black" stroke-width="0.1" /><circle r="0.3020000000000001" cx="50.738829466168355" cy="35.38116446530571" fill="none" stroke="black" stroke-width="0.1" /><circle r="0.3030000000000001" cx="48.19190471809683" cy="48.472244218011156" fill="none" stroke="black" stroke-width="0.1" /><circle r="0.3040000000000001" cx="34.94166424864031" cy="50.74930878831364" fill="none" stroke="black" stroke-width="0.1" /><circle r="0.3050000000000001" cx="28.060889675313035" cy="39.07357155972322" fill="none" stroke="black" stroke-width="0.1" /><circle r="0.3060000000000001" cx="36.607027748364615" cy="28.41670861543953" fill="none" stroke="black" stroke-width="0.1" /><circle r="0.3070000000000001" cx="49.703925609853" cy="32.663716693144984" fill="none" stroke="black" stroke-width="0.1" /><circle r="0.3080000000000001" cx="50.380377386681566" cy="46.523447348608755" fill="none" stroke="black" stroke-width="0.1" /><circle r="0.3090000000000001" cx="37.56142456611211" cy="52.11195173591932" fill="none" stroke="black" stroke-width="0.1" /><circle r="0.3100000000000001" cx="27.716462011994974" cy="42.02908710932725" fill="none" stroke="black" stroke-width="0.1" /><circle r="0.3110000000000001" cx="33.70036255045404" cy="29.15142437901276" fill="none" stroke="black" stroke-width="0.1" /><circle r="0.3120000000000001" cx="47.97061279312209" cy="30.189855673736545" fill="none" stroke="black" stroke-width="0.1" /><circle r="0.3130000000000001" cx="52.08883620128138" cy="44.00502987486853" fill="none" stroke="black" stroke-width="0.1" /><circle r="0.3140000000000001" cx="40.54472578025491" cy="52.81843102038336" fill="none" stroke="black" stroke-width="0.1" /><circle r="0.3150000000000001" cx="28.1198847888265" cy="45.09102028764812" fill="none" stroke="black" stroke-width="0.1" /><circle r="0.3160000000000001" cx="30.96207207428696" cy="30.627899978680492" fill="none" stroke="black" stroke-width="0.1" /><circle r="0.3170000000000001" cx="45.59993915279492" cy="28.14066163375902" fill="none" stroke="black" stroke-width="0.1" /><circle r="0.3180000000000001" cx="53.16903984613246" cy="41.039465983558976" fill="none" stroke="black" stroke-width="0.1" /><circle r="0.3190000000000001" cx="43.72317660377007" cy="52.7734482805991" fill="none" stroke="black" stroke-width="0.1" /><circle r="0.3200000000000001" cx="29.300199739298364" cy="48.0668627347371" fill="none" stroke="black" stroke-width="0.1" /><circle r="0.3210000000000001" cx="28.58351285782556" cy="32.80424803564168" fill="none" stroke="black" stroke-width="0.1" /><circle r="0.3220000000000001" cx="42.70002862423459" cy="26.68091799603611" fill="none" stroke="black" stroke-width="0.1" /><circle r="0.3230000000000001" cx="53.504976210970426" cy="37.78757089579716" fill="none" stroke="black" stroke-width="0.1" /><circle r="0.3240000000000001" cx="46.90397393374474" cy="51.92575129382523" fill="none" stroke="black" stroke-width="0.1" /><circle r="0.3250000000000001" cx="31.23631647930779" cy="50.75701985445544" fill="none" stroke="black" stroke-width="0.1" /><circle r="0.3260000000000001" cx="26.74467427601699" cy="35.5889638460884" fill="none" stroke="black" stroke-width="0.1" /><circle r="0.3270000000000001" cx="39.421506035019675" cy="25.94690177460919" fill="none" stroke="black" stroke-width="0.1" /><circle r="0.3280000000000001" cx="53.02267232246998" cy="34.439819644869836" fill="none" stroke="black" stroke-width="0.1" /><circle r="0.3290000000000001" cx="49.88157348858441" cy="50.27421677743403" fill="none" stroke="black" stroke-width="0.1" /><circle r="0.3300000000000001" cx="33.85550051054826" cy="52.967946098905884" fill="none" stroke="black" stroke-width="0.1" /><circle r="0.3310000000000001" cx="25.60131203827396" cy="38.84422753932848" fill="none" stroke="black" stroke-width="0.1" /><circle r="0.33200000000000013" cx="35.949775476660314" cy="26.0354992459258" fill="none" stroke="black" stroke-width="0.1" /><circle r="0.33300000000000013" cx="51.69763117444856" cy="31.20519187778549" fill="none" stroke="black" stroke-width="0.1" /><circle r="0.33400000000000013" cx="52.450827303358174" cy="47.870819491129986" fill="none" stroke="black" stroke-width="0.1" /><circle r="0.33500000000000013" cx="37.03530741422076" cy="54.52553692198077" fill="none" stroke="black" stroke-width="0.1" /><circle r="0.33600000000000013" cx="25.273078970791005" cy="42.392529414540824" fill="none" stroke="black" stroke-width="0.1" /><circle r="0.33700000000000013" cx="32.494541218413296" cy="26.995450277771848" fill="none" stroke="black" stroke-width="0.1" /><circle r="0.33800000000000013" cx="49.55928243573331" cy="28.298195894910823" fill="none" stroke="black" stroke-width="0.1" /><circle r="0.33900000000000013" cx="54.420755899480824" cy="44.820147745410964" fill="none" stroke="black" stroke-width="0.1" /><circle r="0.34000000000000014" cx="40.60898296424162" cy="55.287875579990335" fill="none" stroke="black" stroke-width="0.1" /><circle r="0.34100000000000014" cx="25.83350522284516" cy="46.0263131953829" fill="none" stroke="black" stroke-width="0.1" /><circle r="0.34200000000000014" cx="29.277163104980623" cy="28.821410244453347" fill="none" stroke="black" stroke-width="0.1" /><circle r="0.34300000000000014" cx="46.692013937011794" cy="25.924873909380374" fill="none" stroke="black" stroke-width="0.1" /><circle r="0.34400000000000014" cx="55.62804815745979" cy="41.27534732058338" fill="none" stroke="black" stroke-width="0.1" /><circle r="0.34500000000000014" cx="44.37411421652427" cy="55.15644251863879" fill="none" stroke="black" stroke-width="0.1" /><circle r="0.34600000000000014" cx="27.302586891178485" cy="49.520115563580575" fill="none" stroke="black" stroke-width="0.1" /><circle r="0.34700000000000014" cx="26.516607640123567" cy="31.451353588454637" fill="none" stroke="black" stroke-width="0.1" /><circle r="0.34800000000000014" cx="43.23256598284311" cy="24.268689909401473" fill="none" stroke="black" stroke-width="0.1" /><circle r="0.34900000000000014" cx="55.949365985426205" cy="37.43061297914636" fill="none" stroke="black" stroke-width="0.1" /><circle r="0.35000000000000014" cx="48.10408875081899" cy="54.084965229593244" fill="none" stroke="black" stroke-width="0.1" /><circle r="0.35100000000000015" cx="29.64259462043964" cy="52.64449203422011" fill="none" stroke="black" stroke-width="0.1" /><circle r="0.35200000000000015" cx="24.41487946280026" cy="34.767637451307834" fill="none" stroke="black" stroke-width="0.1" /><circle r="0.35300000000000015" cx="39.36380745211465" cy="23.477243449048323" fill="none" stroke="black" stroke-width="0.1" /><circle r="0.35400000000000015" cx="55.31157654781924" cy="33.510583722685595" fill="none" stroke="black" stroke-width="0.1" /><circle r="0.35500000000000015" cx="51.561713641702006" cy="52.08521421685536" fill="none" stroke="black" stroke-width="0.1" /><circle r="0.35600000000000015" cx="32.757520339287005" cy="55.18087245069136" fill="none" stroke="black" stroke-width="0.1" /><circle r="0.35700000000000015" cx="23.142886079703015" cy="38.601809999273726" fill="none" stroke="black" stroke-width="0.1" /><circle r="0.35800000000000015" cx="35.305156099363835" cy="23.650732715235808" fill="none" stroke="black" stroke-width="0.1" /><circle r="0.35900000000000015" cx="53.699140814626915" cy="29.757218837589853" fill="none" stroke="black" stroke-width="0.1" /><circle r="0.36000000000000015" cx="54.51417680759815" cy="49.22922919846404" fill="none" stroke="black" stroke-width="0.1" /><circle r="0.36100000000000015" cx="36.49635253158735" cy="56.93639511280623" fill="none" stroke="black" stroke-width="0.1" /><circle r="0.36200000000000015" cx="22.827695379483263" cy="42.74300091508929" fill="none" stroke="black" stroke-width="0.1" /><circle r="0.36300000000000016" cx="31.300139390760208" cy="24.833007866429185" fill="none" stroke="black" stroke-width="0.1" /><circle r="0.36400000000000016" cx="51.15804818455166" cy="26.41492139473516" fill="none" stroke="black" stroke-width="0.1" /><circle r="0.36500000000000016" cx="56.748413450279905" cy="45.64767845211501" fill="none" stroke="black" stroke-width="0.1" /><circle r="0.36600000000000016" cx="40.66012249732873" cy="57.75773460463134" fill="none" stroke="black" stroke-width="0.1" /><circle r="0.36700000000000016" cx="23.542088397433687" cy="46.94948708050559" fill="none" stroke="black" stroke-width="0.1" /><circle r="0.36800000000000016" cx="27.60180076629485" cy="27.0059145854218" fill="none" stroke="black" stroke-width="0.1" /><circle r="0.36900000000000016" cx="47.79589381535781" cy="23.714820706554477" fill="none" stroke="black" stroke-width="0.1" /><circle r="0.37000000000000016" cx="58.0858787381913" cy="41.52429992699633" fill="none" stroke="black" stroke-width="0.1" /><circle r="0.37100000000000016" cx="45.012411804125286" cy="57.54296875975861" fill="none" stroke="black" stroke-width="0.1" /><circle r="0.37200000000000016" cx="25.29719096423462" cy="50.96280103157111" fill="none" stroke="black" stroke-width="0.1" /><circle r="0.37300000000000016" cx="24.456824851366164" cy="30.087435685006014" fill="none" stroke="black" stroke-width="0.1" /><circle r="0.37400000000000017" cx="43.77793568414337" cy="21.859214406027593" fill="none" stroke="black" stroke-width="0.1" /><circle r="0.37500000000000017" cx="58.395730473583555" cy="37.08662989936565" fill="none" stroke="black" stroke-width="0.1" /><circle r="0.37600000000000017" cx="49.292771134707934" cy="56.25062474608098" fill="none" stroke="black" stroke-width="0.1" /><circle r="0.37700000000000017" cx="28.038793325838917" cy="54.523558789016036" fill="none" stroke="black" stroke-width="0.1" /><circle r="0.37800000000000017" cx="22.089371544405076" cy="33.93390666692031" fill="none" stroke="black" stroke-width="0.1" /><circle r="0.37900000000000017" cx="39.31922739443965" cy="21.007196793008173" fill="none" stroke="black" stroke-width="0.1" /><circle r="0.38000000000000017" cx="57.60549390502888" cy="32.593476904782406" fill="none" stroke="black" stroke-width="0.1" /><circle r="0.38100000000000017" cx="53.232289184503685" cy="53.90519859396719" fill="none" stroke="black" stroke-width="0.1" /><circle r="0.3820000000000002" cx="31.64774645467842" cy="57.38804073823913" fill="none" stroke="black" stroke-width="0.1" /><circle r="0.3830000000000002" cx="20.68566389989412" cy="38.346323486244316" fill="none" stroke="black" stroke-width="0.1" /><circle r="0.3840000000000002" cx="34.6731838334156" cy="21.26245935221446" fill="none" stroke="black" stroke-width="0.1" /><circle r="0.3850000000000002" cx="55.708412509247054" cy="28.319828706764145" fill="none" stroke="black" stroke-width="0.1" /><circle r="0.3860000000000002" cx="56.5703818913517" cy="50.59864821450188" fill="none" stroke="black" stroke-width="0.1" /><circle r="0.3870000000000002" cx="35.944570739636184" cy="59.34447514186377" fill="none" stroke="black" stroke-width="0.1" /><circle r="0.3880000000000002" cx="20.3803629180432" cy="43.08049359231695" fill="none" stroke="black" stroke-width="0.1" /><circle r="0.3890000000000002" cx="30.117182884847622" cy="22.664142626669676" fill="none" stroke="black" stroke-width="0.1" /><circle r="0.3900000000000002" cx="52.76687666293026" cy="24.54007243634283" fill="none" stroke="black" stroke-width="0.1" /><circle r="0.3910000000000002" cx="59.07175937377002" cy="46.487605058033" fill="none" stroke="black" stroke-width="0.1" /><circle r="0.3920000000000002" cx="40.6981426771408" cy="60.2279558236208" fill="none" stroke="black" stroke-width="0.1" /><circle r="0.3930000000000002" cx="21.245682585612848" cy="47.860521822399235" fill="none" stroke="black" stroke-width="0.1" /><circle r="0.3940000000000002" cx="25.936020984012224" cy="25.181451007677726" fill="none" stroke="black" stroke-width="0.1" /><circle r="0.3950000000000002" cx="48.911555984560906" cy="21.51054909052093" fill="none" stroke="black" stroke-width="0.1" /><circle r="0.3960000000000002" cx="60.54247949603257" cy="41.786319163834186" fill="none" stroke="black" stroke-width="0.1" /><circle r="0.3970000000000002" cx="45.6380552387543" cy="59.93297664988235" fill="none" stroke="black" stroke-width="0.1" /><circle r="0.3980000000000002" cx="23.284054034792902" cy="52.39488807889269" fill="none" stroke="black" stroke-width="0.1" /><circle r="0.3990000000000002" cx="22.404208449606166" cy="28.712522659376518" fill="none" stroke="black" stroke-width="0.1" /><circle r="0.4000000000000002" cx="44.33612681607951" cy="19.452542633335977" fill="none" stroke="black" stroke-width="0.1" /><circle r="0.4010000000000002" cx="60.84401798121286" cy="36.755629583590306" fill="none" stroke="black" stroke-width="0.1" /><circle r="0.4020000000000002" cx="50.469995348581676" cy="58.42268431582861" fill="none" stroke="black" stroke-width="0.1" /><circle r="0.4030000000000002" cx="26.424946043499098" cy="56.39417991477734" fill="none" stroke="black" stroke-width="0.1" /><circle r="0.4040000000000002" cx="19.768199970799767" cy="33.08778851752546" fill="none" stroke="black" stroke-width="0.1" /><circle r="0.4050000000000002" cx="39.2877674717967" cy="18.53681408024968" fill="none" stroke="black" stroke-width="0.1" /><circle r="0.4060000000000002" cx="59.90437608538653" cy="31.688519226305573" fill="none" stroke="black" stroke-width="0.1" /><circle r="0.4070000000000002" cx="54.893264258476" cy="55.7341318390053" fill="none" stroke="black" stroke-width="0.1" /><circle r="0.4080000000000002" cx="30.526201743378003" cy="59.58940393663945" fill="none" stroke="black" stroke-width="0.1" /><circle r="0.4090000000000002" cx="18.229697582989008" cy="38.07777273146891" fill="none" stroke="black" stroke-width="0.1" /><circle r="0.4100000000000002" cx="34.05387271747095" cy="18.870729536021297" fill="none" stroke="black" stroke-width="0.1" /><circle r="0.4110000000000002" cx="57.725404126921156" cy="26.8930524706427" fill="none" stroke="black" stroke-width="0.1" /><circle r="0.4120000000000002" cx="58.61939864669205" cy="51.97904812727461" fill="none" stroke="black" stroke-width="0.1" /><circle r="0.4130000000000002" cx="35.37997304102174" cy="61.74972588099246" fill="none" stroke="black" stroke-width="0.1" /><circle r="0.4140000000000002" cx="17.931133294806383" cy="43.404999610630746" fill="none" stroke="black" stroke-width="0.1" /><circle r="0.4150000000000002" cx="28.94569735690875" cy="20.488900131593184" fill="none" stroke="black" stroke-width="0.1" /><circle r="0.4160000000000002" cx="54.385734351629516" cy="22.673689164615993" fill="none" stroke="black" stroke-width="0.1" /><circle r="0.4170000000000002" cx="61.39074425006735" cy="47.339910450966634" fill="none" stroke="black" stroke-width="0.1" /><circle r="0.4180000000000002" cx="40.723041986449815" cy="62.69848696027621" fill="none" stroke="black" stroke-width="0.1" /><circle r="0.4190000000000002" cx="18.94433613164271" cy="48.75939747144471" fill="none" stroke="black" stroke-width="0.1" /><circle r="0.4200000000000002" cx="24.27985954927562" cy="23.348057644541957" fill="none" stroke="black" stroke-width="0.1" /><circle r="0.4210000000000002" cx="50.038977474654956" cy="19.31210604572402" fill="none" stroke="black" stroke-width="0.1" /><circle r="0.4220000000000002" cx="62.99779835514709" cy="42.06140020762397" fill="none" stroke="black" stroke-width="0.1" /><circle r="0.4230000000000002" cx="46.2510305709535" cy="62.326415784917266" fill="none" stroke="black" stroke-width="0.1" /><circle r="0.4240000000000002" cx="21.26321828917406" cy="53.81634579477717" fill="none" stroke="black" stroke-width="0.1" /><circle r="0.4250000000000002" cx="20.35880229251934" cy="27.32664300133328" fill="none" stroke="black" stroke-width="0.1" /><circle r="0.4260000000000002" cx="44.907128285437736" cy="17.04872570007811" fill="none" stroke="black" stroke-width="0.1" /><circle r="0.4270000000000002" cx="63.29417678602563" cy="36.437619775854515" fill="none" stroke="black" stroke-width="0.1" /><circle r="0.4280000000000002" cx="51.635735816873975" cy="60.60109832023318" fill="none" stroke="black" stroke-width="0.1" /><circle r="0.4290000000000002" cx="24.801086363803222" cy="58.25631532592022" fill="none" stroke="black" stroke-width="0.1" /><circle r="0.4300000000000002" cx="17.451414131639854" cy="32.229300202865446" fill="none" stroke="black" stroke-width="0.1" /><circle r="0.4310000000000002" cx="39.269429108839475" cy="16.066147590223032" fill="none" stroke="black" stroke-width="0.1" /><circle r="0.4320000000000002" cx="62.20817470922793" cy="30.7957305512927" fill="none" stroke="black" stroke-width="0.1" /><circle r="0.4330000000000002" cx="56.54460313994976" cy="57.571975755206424" fill="none" stroke="black" stroke-width="0.1" /><circle r="0.4340000000000002" cx="29.3929092585929" cy="61.784915102050626" fill="none" stroke="black" stroke-width="0.1" /><circle r="0.4350000000000002" cx="15.77503919636602" cy="37.79616265064892" fill="none" stroke="black" stroke-width="0.1" /><circle r="0.4360000000000002" cx="33.447236611750185" cy="16.475593695533778" fill="none" stroke="black" stroke-width="0.1" /><circle r="0.4370000000000002" cx="59.75007342651994" cy="25.476920965336987" fill="none" stroke="black" stroke-width="0.1" /><circle r="0.4380000000000002" cx="60.66118326632418" cy="53.37040036929945" fill="none" stroke="black" stroke-width="0.1" /><circle r="0.4390000000000002" cx="34.80257061948776" cy="64.15209624100122" fill="none" stroke="black" stroke-width="0.1" /><circle r="0.4400000000000002" cx="15.480058245862974" cy="43.716511317583304" fill="none" stroke="black" stroke-width="0.1" /><circle r="0.4410000000000002" cx="27.785708301761353" cy="18.30732604517517" fill="none" stroke="black" stroke-width="0.1" /><circle r="0.4420000000000002" cx="56.0145875892147" cy="20.81581160571635" fill="none" stroke="black" stroke-width="0.1" /><circle r="0.4430000000000002" cx="63.705318719893526" cy="48.20457734366998" fill="none" stroke="black" stroke-width="0.1" /><circle r="0.44400000000000023" cx="40.73481909319367" cy="65.16927573253301" fill="none" stroke="black" stroke-width="0.1" /><circle r="0.44500000000000023" cx="16.638097450455284" cy="49.64609424925825" fill="none" stroke="black" stroke-width="0.1" /><circle r="0.44600000000000023" cx="22.633352118163064" cy="21.50577275611967" fill="none" stroke="black" stroke-width="0.1" /><circle r="0.44700000000000023" cx="51.17813514924238" cy="17.119538475256476" fill="none" stroke="black" stroke-width="0.1" /><circle r="0.44800000000000023" cx="65.45178325676969" cy="42.349538050429196" fill="none" stroke="black" stroke-width="0.1" /><circle r="0.44900000000000023" cx="46.851324029803266" cy="64.72323571134322" fill="none" stroke="black" stroke-width="0.1" /><circle r="0.45000000000000023" cx="19.234726023206797" cy="55.227143417880825" fill="none" stroke="black" stroke-width="0.1" /><circle r="0.45100000000000023" cx="18.320650136878307" cy="25.929825356010614" fill="none" stroke="black" stroke-width="0.1" /><circle r="0.45200000000000023" cx="45.490928817955734" cy="14.647814675729833" fill="none" stroke="black" stroke-width="0.1" /><circle r="0.45300000000000024" cx="65.74615513827912" cy="36.13260803697633" fill="none" stroke="black" stroke-width="0.1" /><circle r="0.45400000000000024" cx="52.78996712560666" cy="62.785821050071846" fill="none" stroke="black" stroke-width="0.1" /><circle r="0.45500000000000024" cx="23.167248019151618" cy="60.10992505583353" fill="none" stroke="black" stroke-width="0.1" /><circle r="0.45600000000000024" cx="15.139063355676516" cy="31.358459097653366" fill="none" stroke="black" stroke-width="0.1" /><circle r="0.45700000000000024" cx="39.26421354502131" cy="13.595249607453855" fill="none" stroke="black" stroke-width="0.1" /><circle r="0.45800000000000024" cx="64.51684132649133" cy="29.91513057240488" fill="none" stroke="black" stroke-width="0.1" /><circle r="0.45900000000000024" cx="58.186270240549995" cy="59.41869201922935" fill="none" stroke="black" stroke-width="0.1" /><circle r="0.46000000000000024" cx="28.24789221985015" cy="63.97452737227029" fill="none" stroke="black" stroke-width="0.1" /><circle r="0.46100000000000024" cx="13.32174079002348" cy="37.501498343947176" fill="none" stroke="black" stroke-width="0.1" /><circle r="0.46200000000000024" cx="32.85328919782775" cy="14.077102308767447" fill="none" stroke="black" stroke-width="0.1" /><circle r="0.46300000000000024" cx="61.78237805763831" cy="24.07146487733061" fill="none" stroke="black" stroke-width="0.1" /><circle r="0.46400000000000025" cx="62.695692044126815" cy="54.77267621787449" fill="none" stroke="black" stroke-width="0.1" /><circle r="0.46500000000000025" cx="34.2123748397805" cy="66.55153517227939" fill="none" stroke="black" stroke-width="0.1" /><circle r="0.46600000000000025" cx="13.02718953445553" cy="44.015021244004814" fill="none" stroke="black" stroke-width="0.1" /><circle r="0.46700000000000025" cx="26.637241052473936" cy="16.119466121748715" fill="none" stroke="black" stroke-width="0.1" /><circle r="0.46800000000000025" cx="57.65340257242469" cy="18.9664796665916" fill="none" stroke="black" stroke-width="0.1" /><circle r="0.46900000000000025" cx="66.01543348516665" cy="49.08158827402262" fill="none" stroke="black" stroke-width="0.1" /><circle r="0.47000000000000025" cx="40.73347285052028" cy="67.64026985355868" fill="none" stroke="black" stroke-width="0.1" /><circle r="0.47100000000000025" cx="14.327015027094472" cy="50.52059254894713" fill="none" stroke="black" stroke-width="0.1" /><circle r="0.47200000000000025" cx="20.99653421125283" cy="19.654634728864888" fill="none" stroke="black" stroke-width="0.1" /><circle r="0.47300000000000025" cx="52.3290057057505" cy="14.932893200299993" fill="none" stroke="black" stroke-width="0.1" /><circle r="0.47400000000000025" cx="67.90438215982027" cy="42.6507274998949" fill="none" stroke="black" stroke-width="0.1" /><circle r="0.47500000000000026" cx="47.43892202309396" cy="67.12338592680351" fill="none" stroke="black" stroke-width="0.1" /><circle r="0.47600000000000026" cx="17.19861964173407" cy="56.62725033665156" fill="none" stroke="black" stroke-width="0.1" /><circle r="0.47700000000000026" cx="16.289795638036264" cy="24.522098523575288" fill="none" stroke="black" stroke-width="0.1" /><circle r="0.47800000000000026" cx="46.087516958456355" cy="12.249860589890709" fill="none" stroke="black" stroke-width="0.1" /><circle r="0.47900000000000026" cx="68.19990126138596" cy="35.8406017444735" fill="none" stroke="black" stroke-width="0.1" /><circle r="0.48000000000000026" cx="53.93266402268092" cy="64.97680670604404" fill="none" stroke="black" stroke-width="0.1" /><circle r="0.48100000000000026" cx="21.523464883555352" cy="61.95496925734085" fill="none" stroke="black" stroke-width="0.1" /><circle r="0.48200000000000026" cx="12.831196910181639" cy="30.47528275135317" fill="none" stroke="black" stroke-width="0.1" /><circle r="0.48300000000000026" cx="39.27212183460109" cy="11.124172420927408" fill="none" stroke="black" stroke-width="0.1" /><circle r="0.48400000000000026" cx="66.83032741729693" cy="29.046738810717667" fill="none" stroke="black" stroke-width="0.1" /><circle r="0.48500000000000026" cx="59.818230107593934" cy="61.27424218162544" fill="none" stroke="black" stroke-width="0.1" /><circle r="0.48600000000000027" cx="27.091174012694182" cy="66.15819396727251" fill="none" stroke="black" stroke-width="0.1" /><circle r="0.48700000000000027" cx="10.869854395970616" cy="37.19378509589141" fill="none" stroke="black" stroke-width="0.1" /><circle r="0.48800000000000027" cx="32.27204397851064" cy="11.675305902271074" fill="none" stroke="black" stroke-width="0.1" /><circle r="0.48900000000000027" cx="63.822275561120364" cy="22.67671474315449" fill="none" stroke="black" stroke-width="0.1" /><circle r="0.49000000000000027" cx="64.72288137564333" cy="56.185846795452555" fill="none" stroke="black" stroke-width="0.1" /><circle r="0.49100000000000027" cx="33.6093972474752" cy="68.94799166538874" fill="none" stroke="black" stroke-width="0.1" /><circle r="0.49200000000000027" cx="10.572578950364221" cy="44.300522104052746" fill="none" stroke="black" stroke-width="0.1" /><circle r="0.49300000000000027" cx="25.50032078009945" cy="13.92536620544831" fill="none" stroke="black" stroke-width="0.1" /><circle r="0.49400000000000027" cx="59.302145356595915" cy="17.125733134527877" fill="none" stroke="black" stroke-width="0.1" /><circle r="0.4950000000000003" cx="68.32103930957084" cy="49.970925605265364" fill="none" stroke="black" stroke-width="0.1" /><circle r="0.4960000000000003" cx="40.719002296771215" cy="70.11141703236882" fill="none" stroke="black" stroke-width="0.1" /><circle r="0.4970000000000003" cx="12.011137416135156" cy="51.38287293531485" fill="none" stroke="black" stroke-width="0.1" /><circle r="0.4980000000000003" cx="19.36944121322396" cy="17.794682075111588" fill="none" stroke="black" stroke-width="0.1" /><circle r="0.4990000000000003" cx="53.49156567572635" cy="12.752216959584487" fill="none" stroke="black" stroke-width="0.1" /><circle r="0.5000000000000002" cx="70.35554304151408" cy="42.9649631793293" fill="none" stroke="black" stroke-width="0.1" /><circle r="0.5010000000000002" cx="48.01381113746823" cy="69.52681588070381" fill="none" stroke="black" stroke-width="0.1" /><circle r="0.5020000000000002" cx="15.154941658104828" cy="58.016636089676055" fill="none" stroke="black" stroke-width="0.1" /><circle r="0.5030000000000002" cx="14.266282349420855" cy="23.103491458876377" fill="none" stroke="black" stroke-width="0.1" /><circle r="0.5040000000000002" cx="46.696881070993264" cy="9.854914431686147" fill="none" stroke="black" stroke-width="0.1" /><circle r="0.5050000000000002" cx="70.65536335252449" cy="35.56160809248543" fill="none" stroke="black" stroke-width="0.1" /><circle r="0.5060000000000002" cx="55.06380141816889" cy="67.17400939931325" fill="none" stroke="black" stroke-width="0.1" /><circle r="0.5070000000000002" cx="19.869770972234832" cy="63.791408203166796" fill="none" stroke="black" stroke-width="0.1" /><circle r="0.5080000000000002" cx="10.527864000368762" cy="29.579788887971986" fill="none" stroke="black" stroke-width="0.1" /><circle r="0.5090000000000002" cx="39.293154846629655" cy="8.652968323473619" fill="none" stroke="black" stroke-width="0.1" /><circle r="0.5100000000000002" cx="69.14858439251613" cy="28.190574615487993" fill="none" stroke="black" stroke-width="0.1" /><circle r="0.5110000000000002" cx="61.440447424512534" cy="63.138587667286544" fill="none" stroke="black" stroke-width="0.1" /><circle r="0.5120000000000002" cx="25.922778188419702" cy="68.33586818976188" fill="none" stroke="black" stroke-width="0.1" /><circle r="0.5130000000000002" cx="8.41943202761453" cy="36.87302837532346" fill="none" stroke="black" stroke-width="0.1" /><circle r="0.5140000000000002" cx="31.703514277665946" cy="9.27025505053616" fill="none" stroke="black" stroke-width="0.1" /><circle r="0.5150000000000002" cx="65.86972336954878" cy="21.292700949014236" fill="none" stroke="black" stroke-width="0.1" /><circle r="0.5160000000000002" cx="66.74270775860347" cy="57.609883069967296" fill="none" stroke="black" stroke-width="0.1" /><circle r="0.5170000000000002" cx="32.99364956885566" cy="71.34141475166675" fill="none" stroke="black" stroke-width="0.1" /><circle r="0.5180000000000002" cx="8.116278309299975" cy="44.573006795312644" fill="none" stroke="black" stroke-width="0.1" /><circle r="0.5190000000000002" cx="24.37497249336634" cy="11.725072229677895" fill="none" stroke="black" stroke-width="0.1" /><circle r="0.5200000000000002" cx="60.96078185605067" cy="15.293611676672619" fill="none" stroke="black" stroke-width="0.1" /><circle r="0.5210000000000002" cx="70.62208701913981" cy="50.8725715261947" fill="none" stroke="black" stroke-width="0.1" /><circle r="0.5220000000000002" cx="40.69140665550635" cy="72.58266497444174" fill="none" stroke="black" stroke-width="0.1" /><circle r="0.5230000000000002" cx="9.690513241116978" cy="52.232916145101505" fill="none" stroke="black" stroke-width="0.1" /><circle r="0.5240000000000002" cx="17.75210837243119" cy="15.925953432629072" fill="none" stroke="black" stroke-width="0.1" /><circle r="0.5250000000000002" cx="54.66579142510218" cy="10.577556408833246" fill="none" stroke="black" stroke-width="0.1" /><circle r="0.5260000000000002" cx="72.80521389797468" cy="43.292239527755946" fill="none" stroke="black" stroke-width="0.1" /><circle r="0.5270000000000002" cx="48.575978138589" cy="71.933474974804" fill="none" stroke="black" stroke-width="0.1" /><circle r="0.5280000000000002" cx="13.103734693679915" cy="59.39527036604626" fill="none" stroke="black" stroke-width="0.1" /><circle r="0.5290000000000002" cx="12.250153722016691" cy="21.674033271112666" fill="none" stroke="black" stroke-width="0.1" /><circle r="0.5300000000000002" cx="47.31900933897906" cy="7.463027149165718" fill="none" stroke="black" stroke-width="0.1" /><circle r="0.5310000000000002" cx="73.1124895832468" cy="35.29563409168011" fill="none" stroke="black" stroke-width="0.1" /><circle r="0.5320000000000003" cx="56.183354384615626" cy="69.37738315204285" fill="none" stroke="black" stroke-width="0.1" /><circle r="0.5330000000000003" cx="18.206200441225292" cy="65.61920228640892" fill="none" stroke="black" stroke-width="0.1" /><circle r="0.5340000000000003" cx="8.229113768812077" cy="28.671995405857967" fill="none" stroke="black" stroke-width="0.1" /><circle r="0.5350000000000003" cx="39.32731326493353" cy="6.181689611152144" fill="none" stroke="black" stroke-width="0.1" /><circle r="0.5360000000000003" cx="71.471563594341" cy="27.3466571639215" fill="none" stroke="black" stroke-width="0.1" /><circle r="0.5370000000000003" cx="63.05288701126951" cy="65.01168977589539" fill="none" stroke="black" stroke-width="0.1" /><circle r="0.5380000000000003" cx="24.742728463798567" cy="70.50750342572474" fill="none" stroke="black" stroke-width="0.1" /><circle r="0.5390000000000003" cx="5.970525679148018" cy="36.539233835338706" fill="none" stroke="black" stroke-width="0.1" /><circle r="0.5400000000000003" cx="31.147713240061194" cy="6.86200037540285" fill="none" stroke="black" stroke-width="0.1" /><circle r="0.5410000000000003" cx="67.92467880774413" cy="19.91945373043069" fill="none" stroke="black" stroke-width="0.1" /><circle r="0.5420000000000003" cx="68.7551277934364" cy="59.04475585517256" fill="none" stroke="black" stroke-width="0.1" /><circle r="0.5430000000000003" cx="32.36514371077879" cy="73.73175350382674" fill="none" stroke="black" stroke-width="0.1" /><circle r="0.5440000000000003" cx="5.658339452295351" cy="44.83246839888417" fill="none" stroke="black" stroke-width="0.1" /><circle r="0.5450000000000003" cx="23.261221038382196" cy="9.518630216571808" fill="none" stroke="black" stroke-width="0.1" /><circle r="0.5460000000000003" cx="62.629277844496144" cy="13.47015483956637" fill="none" stroke="black" stroke-width="0.1" /><circle r="0.5470000000000003" cx="72.91852750283618" cy="51.78650805136984" fill="none" stroke="black" stroke-width="0.1" /><circle r="0.5480000000000003" cx="40.65068533551546" cy="75.05396138233357" fill="none" stroke="black" stroke-width="0.1" /><circle r="0.5490000000000003" cx="7.365191193973338" cy="53.070703087212735" fill="none" stroke="black" stroke-width="0.1" /><circle r="0.5500000000000003" cx="16.14457080048843" cy="14.048487564169246" fill="none" stroke="black" stroke-width="0.1" /><text x="36" y="78" font-size="2" font-family="Arial, Helvetica, sans-serif" fill="black" stroke="none">VARICITE</text></svg>