<svg width="80mm" height="80mm" fill="none" stroke="black"><circle r="40mm" cx="40mm" cy="40mm" stroke-width="0.1mm" /><circle r="0.5" cx="38.43279612079934mm" cy="41.24252645888062mm" fill="none" stroke="black" stroke-width="0.1mm" /><circle r="0.51" cx="37.94149170643668mm" cy="40.4153836844786mm" fill="none" stroke="black" stroke-width="0.1mm" /><circle r="0.52" cx="37.88095521640289mm" cy="39.4086885718085mm" fill="none" stroke="black" stroke-width="0.1mm" /><circle r="0.53" cx="38.30674736371556mm" cy="38.44343470753206mm" fill="none" stroke="black" stroke-width="0.1mm" /><circle r="0.54" cx="39.16309569632295mm" cy="37.75064649588224mm" fill="none" stroke="black" stroke-width="0.1mm" /><circle r="0.55" cx="40.28697700700807mm" cy="37.51652578079645mm" fill="none" stroke="black" stroke-width="0.1mm" /><circle r="0.56" cx="41.438498970898856mm" cy="37.83419282697583mm" fill="none" stroke="black" stroke-width="0.1mm" /><circle r="0.5700000000000001" cx="42.35208199696563mm" cy="38.67421333558141mm" fill="none" stroke="black" stroke-width="0.1mm" /><circle r="0.5800000000000001" cx="42.79752662005165mm" cy="39.88233602886866mm" fill="none" stroke="black" stroke-width="0.1mm" /><circle r="0.5900000000000001" cx="42.636962537794474mm" cy="41.20682582598671mm" fill="none" stroke="black" stroke-width="0.1mm" /><circle r="0.6000000000000001" cx="41.86378968832093mm" cy="42.350805818800985mm" fill="none" stroke="black" stroke-width="0.1mm" /><circle r="0.6100000000000001" cx="40.61318543899222mm" cy="43.03875033811729mm" fill="none" stroke="black" stroke-width="0.1mm" /><circle r="0.6200000000000001" cx="39.13991064990327mm" cy="43.082246957959434mm" fill="none" stroke="black" stroke-width="0.1mm" /><circle r="0.6300000000000001" cx="37.766667189067746mm" cy="42.42944943466899mm" fill="none" stroke="black" stroke-width="0.1mm" /><circle r="0.6400000000000001" cx="36.81341586916651mm" cy="41.185614430209164mm" fill="none" stroke="black" stroke-width="0.1mm" /><circle r="0.6500000000000001" cx="36.52313609311503mm" cy="39.59823219018872mm" fill="none" stroke="black" stroke-width="0.1mm" /><circle r="0.6600000000000001" cx="37.00119006812037mm" cy="38.008232194140064mm" fill="none" stroke="black" stroke-width="0.1mm" /><circle r="0.6700000000000002" cx="38.18318123764858mm" cy="36.776776522676734mm" fill="none" stroke="black" stroke-width="0.1mm" /><circle r="0.6800000000000002" cx="39.84031318203601mm" cy="36.20335672992991mm" fill="none" stroke="black" stroke-width="0.1mm" /><circle r="0.6900000000000002" cx="41.622972662533826mm" cy="36.45374003537983mm" fill="none" stroke="black" stroke-width="0.1mm" /><circle r="0.7000000000000002" cx="43.134407758401295mm" cy="37.514947082238734mm" fill="none" stroke="black" stroke-width="0.1mm" /><circle r="0.7100000000000002" cx="44.01899238267124mm" cy="39.18901280649413mm" fill="none" stroke="black" stroke-width="0.1mm" /><circle r="0.7200000000000002" cx="44.04544913232177mm" cy="41.12886727200192mm" fill="none" stroke="black" stroke-width="0.1mm" /><circle r="0.7300000000000002" cx="43.16564623305355mm" cy="42.91010032939654mm" fill="none" stroke="black" stroke-width="0.1mm" /><circle r="0.7400000000000002" cx="41.5343245567413mm" cy="44.123814757549205mm" fill="none" stroke="black" stroke-width="0.1mm" /><circle r="0.7500000000000002" cx="39.48344138738553mm" cy="44.4702535945664mm" fill="none" stroke="black" stroke-width="0.1mm" /><circle r="0.7600000000000002" cx="37.454963359179004mm" cy="43.831812690735106mm" fill="none" stroke="black" stroke-width="0.1mm" /><circle r="0.7700000000000002" cx="35.90563504231912mm" cy="42.30785086028427mm" fill="none" stroke="black" stroke-width="0.1mm" /><circle r="0.7800000000000002" cx="35.204240079911465mm" cy="40.20170966479665mm" fill="none" stroke="black" stroke-width="0.1mm" /><circle r="0.7900000000000003" cx="35.54444260855413mm" cy="37.960880500919075mm" fill="none" stroke="black" stroke-width="0.1mm" /><circle r="0.8000000000000003" cx="36.89368385279839mm" cy="36.08199030199841mm" fill="none" stroke="black" stroke-width="0.1mm" /><circle r="0.8100000000000003" cx="38.99121105198046mm" cy="35.00076557277481mm" fill="none" stroke="black" stroke-width="0.1mm" /><circle r="0.8200000000000003" cx="41.397645193907096mm" cy="34.9913486933159mm" fill="none" stroke="black" stroke-width="0.1mm" /><circle r="0.8300000000000003" cx="43.586867847860816mm" cy="36.09815696856187mm" fill="none" stroke="black" stroke-width="0.1mm" /><circle r="0.8400000000000003" cx="45.061045384264915mm" cy="38.116965316726535mm" fill="none" stroke="black" stroke-width="0.1mm" /><circle r="0.8500000000000003" cx="45.46364328224782mm" cy="40.63134941541763mm" fill="none" stroke="black" stroke-width="0.1mm" /><circle r="0.8600000000000003" cx="44.664815449590584mm" cy="43.098305475782034mm" fill="none" stroke="black" stroke-width="0.1mm" /><circle r="0.8700000000000003" cx="42.798882958217135mm" cy="44.96550643803849mm" fill="none" stroke="black" stroke-width="0.1mm" /><circle r="0.8800000000000003" cx="40.24373251162935mm" cy="45.79487657010698mm" fill="none" stroke="black" stroke-width="0.1mm" /><circle r="0.8900000000000003" cx="37.544733664371996mm" cy="45.36485481827158mm" fill="none" stroke="black" stroke-width="0.1mm" /><circle r="0.9000000000000004" cx="35.29838836239813mm" cy="43.72757937664198mm" fill="none" stroke="black" stroke-width="0.1mm" /><circle r="0.9100000000000004" cx="34.02052352822086mm" cy="41.206590702533234mm" fill="none" stroke="black" stroke-width="0.1mm" /><circle r="0.9200000000000004" cx="34.028146518953555mm" cy="38.33357688418775mm" fill="none" stroke="black" stroke-width="0.1mm" /><circle r="0.9300000000000004" cx="35.361960170177284mm" cy="35.736364633674924mm" fill="none" stroke="black" stroke-width="0.1mm" /><circle r="0.9400000000000004" cx="37.76825519019436mm" cy="34.00172398901939mm" fill="none" stroke="black" stroke-width="0.1mm" /><circle r="0.9500000000000004" cx="40.74614021822078mm" cy="33.54296703007075mm" fill="none" stroke="black" stroke-width="0.1mm" /><circle r="0.9600000000000004" cx="43.65157431074306mm" cy="34.50218179155392mm" fill="none" stroke="black" stroke-width="0.1mm" /><circle r="0.9700000000000004" cx="45.83664791839608mm" cy="36.710084943849985mm" fill="none" stroke="black" stroke-width="0.1mm" /><circle r="0.9800000000000004" cx="46.793993220125415mm" cy="39.714244641537945mm" fill="none" stroke="black" stroke-width="0.1mm" /><circle r="0.9900000000000004" cx="46.2741522450973mm" cy="42.87141317217506mm" fill="none" stroke="black" stroke-width="0.1mm" /><circle r="1.0000000000000004" cx="44.34884260608235mm" cy="45.485213577202146mm" fill="none" stroke="black" stroke-width="0.1mm" /><circle r="1.0100000000000005" cx="41.40439245704694mm" cy="46.95971851633308mm" fill="none" stroke="black" stroke-width="0.1mm" /><circle r="1.0200000000000005" cx="38.064798962282616mm" cy="46.93505565540879mm" fill="none" stroke="black" stroke-width="0.1mm" /><circle r="1.0300000000000005" cx="35.05959711521068mm" cy="45.37423662820732mm" fill="none" stroke="black" stroke-width="0.1mm" /><circle r="1.0400000000000005" cx="33.06449336230369mm" cy="42.58045493633784mm" fill="none" stroke="black" stroke-width="0.1mm" /><circle r="1.0500000000000005" cx="32.54957734238932mm" cy="39.13906897897609mm" fill="none" stroke="black" stroke-width="0.1mm" /><circle r="1.0600000000000005" cx="33.66917903269842mm" cy="35.795156854295925mm" fill="none" stroke="black" stroke-width="0.1mm" /><circle r="1.0700000000000005" cx="36.21905284591709mm" cy="33.292210601246325mm" fill="none" stroke="black" stroke-width="0.1mm" /><circle r="1.0800000000000005" cx="39.67222179470522mm" cy="32.20689012985615mm" fill="none" stroke="black" stroke-width="0.1mm" /><circle r="1.0900000000000005" cx="43.2875600087221mm" cy="32.816550328076985mm" fill="none" stroke="black" stroke-width="0.1mm" /><circle r="1.1000000000000005" cx="46.268815516802405mm" cy="35.029894164477255mm" fill="none" stroke="black" stroke-width="0.1mm" /><circle r="1.1100000000000005" cx="47.939960560887016mm" cy="38.397805788439335mm" fill="none" stroke="black" stroke-width="0.1mm" /><circle r="1.1200000000000006" cx="47.89825782977114mm" cy="42.20397895962251mm" fill="none" stroke="black" stroke-width="0.1mm" /><circle r="1.1300000000000006" cx="46.11043342659192mm" cy="45.617170403253574mm" fill="none" stroke="black" stroke-width="0.1mm" /><circle r="1.1400000000000006" cx="42.92916506286999mm" cy="47.87273726441202mm" fill="none" stroke="black" stroke-width="0.1mm" /><circle r="1.1500000000000006" cx="39.024278176172885mm" cy="48.4438123452921mm" fill="none" stroke="black" stroke-width="0.1mm" /><circle r="1.1600000000000006" cx="35.24188801933483mm" cy="47.16382372615703mm" fill="none" stroke="black" stroke-width="0.1mm" /><circle r="1.1700000000000006" cx="32.421069120888674mm" cy="44.27197925201569mm" fill="none" stroke="black" stroke-width="0.1mm" /><circle r="1.1800000000000006" cx="31.2077734798377mm" cy="40.369801052127336mm" fill="none" stroke="black" stroke-width="0.1mm" /><circle r="1.1900000000000006" cx="31.907252901251344mm" cy="36.29629315473066mm" fill="none" stroke="black" stroke-width="0.1mm" /><circle r="1.2000000000000006" cx="34.40863093503705mm" cy="32.94758254359719mm" fill="none" stroke="black" stroke-width="0.1mm" /><circle r="1.2100000000000006" cx="38.20000403392587mm" cy="31.079797394558987mm" fill="none" stroke="black" stroke-width="0.1mm" /><circle r="1.2200000000000006" cx="42.47275688152793mm" cy="31.138539995866594mm" fill="none" stroke="black" stroke-width="0.1mm" /><circle r="1.2300000000000006" cx="46.29393792171804mm" cy="33.153369775023684mm" fill="none" stroke="black" stroke-width="0.1mm" /><circle r="1.2400000000000007" cx="48.80996789112782mm" cy="36.7221248105981mm" fill="none" stroke="black" stroke-width="0.1mm" /><circle r="1.2500000000000007" cx="49.43720203297349mm" cy="41.09051262663055mm" fill="none" stroke="black" stroke-width="0.1mm" /><circle r="1.2600000000000007" cx="47.99682648501235mm" cy="45.31138081562645mm" fill="none" stroke="black" stroke-width="0.1mm" /><circle r="1.2700000000000007" cx="44.76301134994831mm" cy="48.450072359469075mm" fill="none" stroke="black" stroke-width="0.1mm" /><circle r="1.2800000000000007" cx="40.411823898959724mm" cy="49.79134317018075mm" fill="none" stroke="black" stroke-width="0.1mm" /><circle r="1.2900000000000007" cx="35.880146318183314mm" cy="49.002044525574235mm" fill="none" stroke="black" stroke-width="0.1mm" /><circle r="1.3000000000000007" cx="32.16398060399671mm" cy="46.212632294403065mm" fill="none" stroke="black" stroke-width="0.1mm" /><circle r="1.3100000000000007" cx="30.099555350004984mm" cy="41.9977977205875mm" fill="none" stroke="black" stroke-width="0.1mm" /><circle r="1.3200000000000007" cx="30.175337821504343mm" cy="37.258465196566604mm" fill="none" stroke="black" stroke-width="0.1mm" /><circle r="1.3300000000000007" cx="32.41717297663932mm" cy="33.02929455981745mm" fill="none" stroke="black" stroke-width="0.1mm" /><circle r="1.3400000000000007" cx="36.37341468406624mm" cy="30.252801482156364mm" fill="none" stroke="black" stroke-width="0.1mm" /><circle r="1.3500000000000008" cx="41.20530342943404mm" cy="29.569408279345122mm" fill="none" stroke="black" stroke-width="0.1mm" /><circle r="1.3600000000000008" cx="45.864649650587765mm" cy="31.17017075613235mm" fill="none" stroke="black" stroke-width="0.1mm" /><circle r="1.3700000000000008" cx="49.321213839826854mm" cy="34.745956552119125mm" fill="none" stroke="black" stroke-width="0.1mm" /><circle r="1.3800000000000008" cx="50.7904598201992mm" cy="39.54615325420794mm" fill="none" stroke="black" stroke-width="0.1mm" /><circle r="1.3900000000000008" cx="49.911341952399795mm" cy="44.53600051836409mm" fill="none" stroke="black" stroke-width="0.1mm" /><circle r="1.4000000000000008" cx="46.83389552384315mm" cy="48.619621335603796mm" fill="none" stroke="black" stroke-width="0.1mm" /><circle r="1.4100000000000008" cx="42.19559947510083mm" cy="50.880686694549034mm" fill="none" stroke="black" stroke-width="0.1mm" /><circle r="1.4200000000000008" cx="36.98968727466109mm" cy="50.787864352857895mm" fill="none" stroke="black" stroke-width="0.1mm" /><circle r="1.4300000000000008" cx="32.35252704135291mm" cy="48.319023821745006mm" fill="none" stroke="black" stroke-width="0.1mm" /><circle r="1.4400000000000008" cx="29.315570855440527mm" cy="43.975295442465566mm" fill="none" stroke="black" stroke-width="0.1mm" /><circle r="1.4500000000000008" cx="28.57601859166374mm" cy="38.67990576776241mm" fill="none" stroke="black" stroke-width="0.1mm" /><circle r="1.4600000000000009" cx="30.337167997277085mm" cy="33.58208151445087mm" fill="none" stroke="black" stroke-width="0.1mm" /><circle r="1.4700000000000009" cx="34.25492445418661mm" cy="29.80764467981535mm" fill="none" stroke="black" stroke-width="0.1mm" /><circle r="1.4800000000000009" cx="39.50413040737565mm" cy="28.21042352978234mm" fill="none" stroke="black" stroke-width="0.1mm" /><circle r="1.4900000000000009" cx="44.95214735491154mm" cy="29.179360620774666mm" fill="none" stroke="black" stroke-width="0.1mm" /><circle r="1.5000000000000009" cx="49.40322327520434mm" cy="32.54484124671682mm" fill="none" stroke="black" stroke-width="0.1mm" /><circle r="1.510000000000001" cx="51.860928739103066mm" cy="37.6065987703859mm" fill="none" stroke="black" stroke-width="0.1mm" /><circle r="1.520000000000001" cx="51.75106652722012mm" cy="43.27909064724449mm" fill="none" stroke="black" stroke-width="0.1mm" /><circle r="1.530000000000001" cx="49.055220620129305mm" cy="48.32424047711167mm" fill="none" stroke="black" stroke-width="0.1mm" /><circle r="1.540000000000001" cx="44.32400556899733mm" cy="51.62165977127533mm" fill="none" stroke="black" stroke-width="0.1mm" /><circle r="1.550000000000001" cx="38.565114964958816mm" cy="52.41737109601763mm" fill="none" stroke="black" stroke-width="0.1mm" /><circle r="1.560000000000001" cx="33.02881267948946mm" cy="50.49583476157815mm" fill="none" stroke="black" stroke-width="0.1mm" /><circle r="1.570000000000001" cx="28.936503199457526mm" cy="46.23610764374587mm" fill="none" stroke="black" stroke-width="0.1mm" /><circle r="1.580000000000001" cx="27.211306879763878mm" cy="40.537892439456584mm" fill="none" stroke="black" stroke-width="0.1mm" /><circle r="1.590000000000001" cx="28.27006319394915mm" cy="34.631705808540964mm" fill="none" stroke="black" stroke-width="0.1mm" /><circle r="1.600000000000001" cx="31.923578017276824mm" cy="29.813174785195088mm" fill="none" stroke="black" stroke-width="0.1mm" /><circle r="1.610000000000001" cx="37.40879701587267mm" cy="27.158829216342895mm" fill="none" stroke="black" stroke-width="0.1mm" /><circle r="1.620000000000001" cx="43.547868569150104mm" cy="27.285731298417673mm" fill="none" stroke="black" stroke-width="0.1mm" /><circle r="1.630000000000001" cx="49.0010079955763mm" cy="30.20858258148644mm" fill="none" stroke="black" stroke-width="0.1mm" /><circle r="1.640000000000001" cx="52.558890397991206mm" cy="35.327284304470965mm" fill="none" stroke="black" stroke-width="0.1mm" /><circle r="1.650000000000001" cx="53.410760783699004mm" cy="41.54967583784483mm" fill="none" stroke="black" stroke-width="0.1mm" /><circle r="1.660000000000001" cx="51.32883752043336mm" cy="47.524456155471995mm" fill="none" stroke="black" stroke-width="0.1mm" /><circle r="1.670000000000001" cx="46.7271397416783mm" cy="51.93463828090033mm" fill="none" stroke="black" stroke-width="0.1mm" /><circle r="1.680000000000001" cx="40.57991528628877mm" cy="53.78780977025458mm" fill="none" stroke="black" stroke-width="0.1mm" /><circle r="1.690000000000001" cx="34.21555897199342mm" cy="52.63923423287634mm" fill="none" stroke="black" stroke-width="0.1mm" /><circle r="1.700000000000001" cx="29.029572845594483mm" cy="48.69768521216312mm" fill="none" stroke="black" stroke-width="0.1mm" /><circle r="1.710000000000001" cx="26.178587171788845mm" cy="42.78900473864049mm" fill="none" stroke="black" stroke-width="0.1mm" /><circle r="1.720000000000001" cx="26.322529124055478mm" cy="36.18335350894422mm" fill="none" stroke="black" stroke-width="0.1mm" /><circle r="1.730000000000001" cx="29.472385783102222mm" cy="30.32222448595904mm" fill="none" stroke="black" stroke-width="0.1mm" /><circle r="1.740000000000001" cx="34.97857417793931mm" cy="26.5038789752929mm" fill="none" stroke="black" stroke-width="0.1mm" /><circle r="1.750000000000001" cx="41.664466640648534mm" cy="25.595849528619638mm" fill="none" stroke="black" stroke-width="0.1mm" /><circle r="1.7600000000000011" cx="48.077724990433495mm" cy="27.83815972071146mm" fill="none" stroke="black" stroke-width="0.1mm" /><circle r="1.7700000000000011" cx="52.80577976125821mm" cy="32.78182816038932mm" fill="none" stroke="black" stroke-width="0.1mm" /><circle r="1.7800000000000011" cx="54.78692642027305mm" cy="39.37806186687911mm" fill="none" stroke="black" stroke-width="0.1mm" /><circle r="1.7900000000000011" cx="53.54853165970181mm" cy="46.20058786455418mm" fill="none" stroke="black" stroke-width="0.1mm" /><circle r="1.8000000000000012" cx="49.31894844160304mm" cy="51.75402909400616mm" fill="none" stroke="black" stroke-width="0.1mm" /><circle r="1.8100000000000012" cx="42.986806493153615mm" cy="54.80165487276522mm" fill="none" stroke="black" stroke-width="0.1mm" /><circle r="1.8200000000000012" cx="35.9145755870386mm" cy="54.64067305030673mm" fill="none" stroke="black" stroke-width="0.1mm" /><circle r="1.8300000000000012" cx="29.645456967494503mm" cy="51.263811015282116mm" fill="none" stroke="black" stroke-width="0.1mm" /><circle r="1.8400000000000012" cx="25.566648348577104mm" cy="45.37013594859261mm" fill="none" stroke="black" stroke-width="0.1mm" /><circle r="1.8500000000000012" cx="24.60245984093823mm" cy="38.220742556548146mm" fill="none" stroke="black" stroke-width="0.1mm" /><circle r="1.8600000000000012" cx="27.005156961856002mm" cy="31.369006174605428mm" fill="none" stroke="black" stroke-width="0.1mm" /><circle r="1.8700000000000012" cx="32.2907960624564mm" cy="26.32307875838422mm" fill="none" stroke="black" stroke-width="0.1mm" /><circle r="1.8800000000000012" cx="39.33603902004624mm" cy="24.213956929708523mm" fill="none" stroke="black" stroke-width="0.1mm" /><circle r="1.8900000000000012" cx="46.616734701101mm" cy="25.54217091347236mm" fill="none" stroke="black" stroke-width="0.1mm" /><circle r="1.9000000000000012" cx="52.53763103360619mm" cy="30.059788328956287mm" fill="none" stroke="black" stroke-width="0.1mm" /><circle r="1.9100000000000013" cx="55.78189691731906mm" cy="36.8153917523322mm" fill="none" stroke="black" stroke-width="0.1mm" /><circle r="1.9200000000000013" cx="55.60387522466921mm" cy="44.35420233486606mm" fill="none" stroke="black" stroke-width="0.1mm" /><circle r="1.9300000000000013" cx="52.000007813667054mm" cy="51.03131055096938mm" fill="none" stroke="black" stroke-width="0.1mm" /><circle r="1.9400000000000013" cx="45.71884607512529mm" cy="55.37058227813842mm" fill="none" stroke="black" stroke-width="0.1mm" /><circle r="1.9500000000000013" cx="38.10595175374553mm" cy="56.39092984674326mm" fill="none" stroke="black" stroke-width="0.1mm" /><circle r="1.9600000000000013" cx="30.815737339644848mm" cy="53.827845796999796mm" fill="none" stroke="black" stroke-width="0.1mm" /><circle r="1.9700000000000013" cx="25.451937278026882mm" cy="48.20023603547697mm" fill="none" stroke="black" stroke-width="0.1mm" /><circle r="1.9800000000000013" cx="23.214840279690094mm" cy="40.70598382678702mm" fill="none" stroke="black" stroke-width="0.1mm" /><circle r="1.9900000000000013" cx="24.6328734866464mm" cy="32.967118462352445mm" fill="none" stroke="black" stroke-width="0.1mm" /><circle r="2.0000000000000013" cx="29.438525099515452mm" cy="26.678767026793878mm" fill="none" stroke="black" stroke-width="0.1mm" /><circle r="2.010000000000001" cx="36.617589997817916mm" cy="23.237861038127093mm" fill="none" stroke="black" stroke-width="0.1mm" /><circle r="2.020000000000001" cx="44.62298025677064mm" cy="23.43292260096827mm" fill="none" stroke="black" stroke-width="0.1mm" /><circle r="2.0300000000000007" cx="51.7080780694332mm" cy="27.26379538794793mm" fill="none" stroke="black" stroke-width="0.1mm" /><circle r="2.0400000000000005" cx="56.30781290485392mm" cy="33.93244379834195mm" fill="none" stroke="black" stroke-width="0.1mm" /><circle r="2.0500000000000003" cx="57.38431953442478mm" cy="42.008839049056995mm" fill="none" stroke="black" stroke-width="0.1mm" /><circle r="2.06" cx="54.66084855585566mm" cy="49.73753149531566mm" fill="none" stroke="black" stroke-width="0.1mm" /><circle r="2.07" cx="48.69126813341042mm" cy="55.41920420233042mm" fill="none" stroke="black" stroke-width="0.1mm" /><circle r="2.0799999999999996" cx="40.748006673620374mm" cy="57.784276370328335mm" fill="none" stroke="black" stroke-width="0.1mm" /><circle r="2.0899999999999994" cx="32.55097162580597mm" cy="56.276423940179605mm" fill="none" stroke="black" stroke-width="0.1mm" /><circle r="2.099999999999999" cx="25.895165087194005mm" cy="51.182738129925454mm" fill="none" stroke="black" stroke-width="0.1mm" /><circle r="2.109999999999999" cx="22.257618993573267mm" cy="43.58021175669645mm" fill="none" stroke="black" stroke-width="0.1mm" /><circle r="2.1199999999999988" cx="22.469720426605726mm" cy="35.10824182132487mm" fill="none" stroke="black" stroke-width="0.1mm" /><circle r="2.1299999999999986" cx="26.52759858956285mm" cy="27.615154412103045mm" fill="none" stroke="black" stroke-width="0.1mm" /><circle r="2.1399999999999983" cx="33.5837336718091mm" cy="22.754956468430606mm" fill="none" stroke="black" stroke-width="0.1mm" /><circle r="2.149999999999998" cx="42.123629851859434mm" cy="21.622290777893692mm" fill="none" stroke="black" stroke-width="0.1mm" /><circle r="2.159999999999998" cx="50.29080033027609mm" cy="24.506148685288437mm" fill="none" stroke="black" stroke-width="0.1mm" /><circle r="2.1699999999999977" cx="56.29034568268767mm" cy="30.817699768656055mm" fill="none" stroke="black" stroke-width="0.1mm" /><circle r="2.1799999999999975" cx="58.783393020346765mm" cy="39.209970479546186mm" fill="none" stroke="black" stroke-width="0.1mm" /><circle r="2.1899999999999973" cx="57.18572136700564mm" cy="47.86517521074042mm" fill="none" stroke="black" stroke-width="0.1mm" /><circle r="2.199999999999997" cx="51.80400135936643mm" cy="54.88843685240581mm" fill="none" stroke="black" stroke-width="0.1mm" /><circle r="2.209999999999997" cx="43.7780135112109mm" cy="58.722623050980545mm" fill="none" stroke="black" stroke-width="0.1mm" /><circle r="2.2199999999999966" cx="34.839463899420466mm" cy="58.493481747756846mm" fill="none" stroke="black" stroke-width="0.1mm" /><circle r="2.2299999999999964" cx="26.938386893639354mm" cy="54.20859820882229mm" fill="none" stroke="black" stroke-width="0.1mm" /><circle r="2.239999999999996" cx="21.817725841715166mm" cy="46.76497645472383mm" fill="none" stroke="black" stroke-width="0.1mm" /><circle r="2.249999999999996" cx="20.628901090212157mm" cy="37.76157934533821mm" fill="none" stroke="black" stroke-width="0.1mm" /><circle r="2.259999999999996" cx="23.67314592643248mm" cy="29.155930834763545mm" fill="none" stroke="black" stroke-width="0.1mm" /><circle r="2.2699999999999956" cx="30.326667670722454mm" cy="22.83851283695512mm" fill="none" stroke="black" stroke-width="0.1mm" /><circle r="2.2799999999999954" cx="39.167947632712654mm" cy="20.217490329634817mm" fill="none" stroke="black" stroke-width="0.1mm" /><circle r="2.289999999999995" cx="48.28132204728673mm" cy="21.904981206168276mm" fill="none" stroke="black" stroke-width="0.1mm" /><circle r="2.299999999999995" cx="55.67203879200558mm" cy="27.574735411192528mm" fill="none" stroke="black" stroke-width="0.1mm" /><circle r="2.3099999999999947" cx="59.702865095534335mm" cy="36.024184734274556mm" fill="none" stroke="black" stroke-width="0.1mm" /><circle r="2.3199999999999945" cx="59.45668392211943mm" cy="45.42931402248386mm" fill="none" stroke="black" stroke-width="0.1mm" /><circle r="2.3299999999999943" cx="54.94479500720749mm" cy="53.73838062482427mm" fill="none" stroke="black" stroke-width="0.1mm" /><circle r="2.339999999999994" cx="47.11368658125684mm" cy="59.119504785000245mm" fill="none" stroke="black" stroke-width="0.1mm" /><circle r="2.349999999999994" cx="37.64678854253595mm" cy="60.36448859746939mm" fill="none" stroke="black" stroke-width="0.1mm" /><circle r="2.3599999999999937" cx="28.60266199980326mm" cy="57.15985683242353mm" fill="none" stroke="black" stroke-width="0.1mm" /><circle r="2.3699999999999934" cx="21.96737135659795mm" cy="50.164364427211225mm" fill="none" stroke="black" stroke-width="0.1mm" /><circle r="2.3799999999999932" cx="19.2183736796164mm" cy="40.87407521412097mm" fill="none" stroke="black" stroke-width="0.1mm" /><circle r="2.389999999999993" cx="20.995683779342162mm" cy="31.30253111616704mm" fill="none" stroke="black" stroke-width="0.1mm" /><circle r="2.399999999999993" cx="26.95347218175141mm" cy="23.544359268394718mm" fill="none" stroke="black" stroke-width="0.1mm" /><circle r="2.4099999999999926" cx="35.82638297975993mm" cy="19.316892859911892mm" fill="none" stroke="black" stroke-width="0.1mm" /><circle r="2.4199999999999924" cx="45.69809194438809mm" cy="19.58011390351795mm" fill="none" stroke="black" stroke-width="0.1mm" /><circle r="2.429999999999992" cx="54.41514814328784mm" cy="24.319008194407257mm" fill="none" stroke="black" stroke-width="0.1mm" /><circle r="2.439999999999992" cx="60.05673541171562mm" cy="32.537603292210065mm" fill="none" stroke="black" stroke-width="0.1mm" /><circle r="2.4499999999999917" cx="61.357878285150946mm" cy="42.46800226026622mm" fill="none" stroke="black" stroke-width="0.1mm" /><circle r="2.4599999999999915" cx="57.99285959127958mm" cy="51.95060683515695mm" fill="none" stroke="black" stroke-width="0.1mm" /><circle r="2.4699999999999913" cx="50.65539652514499mm" cy="58.90377012375917mm" fill="none" stroke="black" stroke-width="0.1mm" /><circle r="2.479999999999991" cx="40.91609806095468mm" cy="61.78074297040202mm" fill="none" stroke="black" stroke-width="0.1mm" /><circle r="2.489999999999991" cx="30.88638427962089mm" cy="59.913613647483984mm" fill="none" stroke="black" stroke-width="0.1mm" /><circle r="2.4999999999999907" cx="22.760757328795066mm" cy="53.667791047689775mm" fill="none" stroke="black" stroke-width="0.1mm" /><circle r="2.5099999999999905" cx="18.336650815358137mm" cy="44.37141877475479mm" fill="none" stroke="black" stroke-width="0.1mm" /><circle r="2.5199999999999902" cx="18.616911729155312mm" cy="34.033130133707765mm" fill="none" stroke="black" stroke-width="0.1mm" /><circle r="2.52999999999999" cx="23.58281139602194mm" cy="24.908084338248674mm" fill="none" stroke="black" stroke-width="0.1mm" /><circle r="2.53999999999999" cx="32.18889316567688mm" cy="19.006033961569035mm" fill="none" stroke="black" stroke-width="0.1mm" /><circle r="2.5499999999999896" cx="42.5827930630683mm" cy="17.648732027167487mm" fill="none" stroke="black" stroke-width="0.1mm" /><circle r="2.5599999999999894" cx="52.50387567011709mm" cy="21.174137649864317mm" fill="none" stroke="black" stroke-width="0.1mm" /><circle r="2.569999999999989" cx="59.77491160411625mm" cy="28.853571376921174mm" fill="none" stroke="black" stroke-width="0.1mm" /><circle r="2.579999999999989" cx="62.779859620420424mm" cy="39.041879092211516mm" fill="none" stroke="black" stroke-width="0.1mm" /><circle r="2.5899999999999888" cx="60.82291107431018mm" cy="49.52976255692518mm" fill="none" stroke="black" stroke-width="0.1mm" /><circle r="2.5999999999999885" cx="54.28905427713103mm" cy="58.02284461080453mm" fill="none" stroke="black" stroke-width="0.1mm" /><circle r="2.6099999999999883" cx="44.569220529269586mm" cy="62.64359122919561mm" fill="none" stroke="black" stroke-width="0.1mm" /><circle r="2.619999999999988" cx="33.7643522118037mm" cy="62.34629044520735mm" fill="none" stroke="black" stroke-width="0.1mm" /><circle r="2.629999999999988" cx="24.231316819785242mm" cy="57.15338540236344mm" fill="none" stroke="black" stroke-width="0.1mm" /><circle r="2.6399999999999877" cx="18.06880333485372mm" cy="48.15981696085638mm" fill="none" stroke="black" stroke-width="0.1mm" /><circle r="2.6499999999999875" cx="16.65534233948591mm" cy="37.3024161341297mm" fill="none" stroke="black" stroke-width="0.1mm" /><circle r="2.6599999999999873" cx="20.341134891008164mm" cy="26.942855494922846mm" fill="none" stroke="black" stroke-width="0.1mm" /><circle r="2.669999999999987" cx="28.362539278987263mm" cy="19.353946915526713mm" fill="none" stroke="black" stroke-width="0.1mm" /><circle r="2.679999999999987" cx="38.99985624537763mm" cy="16.221023729561168mm" fill="none" stroke="black" stroke-width="0.1mm" /><circle r="2.6899999999999866" cx="49.94590939347116mm" cy="18.267791498863595mm" fill="none" stroke="black" stroke-width="0.1mm" /><circle r="2.6999999999999864" cx="58.806446550404075mm" cy="25.089682493427645mm" fill="none" stroke="black" stroke-width="0.1mm" /><circle r="2.709999999999986" cx="63.62383327374933mm" cy="35.23297771621552mm" fill="none" stroke="black" stroke-width="0.1mm" /><circle r="2.719999999999986" cx="63.30949261957004mm" cy="46.50442571010028mm" fill="none" stroke="black" stroke-width="0.1mm" /><circle r="2.7299999999999858" cx="57.889582200748876mm" cy="56.445450698678115mm" fill="none" stroke="black" stroke-width="0.1mm" /><circle r="2.7399999999999856" cx="48.50852708738973mm" cy="62.868427291861565mm" fill="none" stroke="black" stroke-width="0.1mm" /><circle r="2.7499999999999853" cx="37.187625331327794mm" cy="64.33804734819569mm" fill="none" stroke="black" stroke-width="0.1mm" /><circle r="2.759999999999985" cx="26.38958665996286mm" cy="60.49186786784804mm" fill="none" stroke="black" stroke-width="0.1mm" /><circle r="2.769999999999985" cx="18.482805435169723mm" cy="52.128492818946725mm" fill="none" stroke="black" stroke-width="0.1mm" /><circle r="2.7799999999999847" cx="15.221907079542763mm" cy="41.04216660145635mm" fill="none" stroke="black" stroke-width="0.1mm" /><circle r="2.7899999999999845" cx="17.35849407203733mm" cy="29.637943769982932mm" fill="none" stroke="black" stroke-width="0.1mm" /><circle r="2.7999999999999843" cx="24.46841926398625mm" cy="20.409951509996443mm" fill="none" stroke="black" stroke-width="0.1mm" /><circle r="2.809999999999984" cx="35.035175961700546mm" cy="15.395924681696972mm" fill="none" stroke="black" stroke-width="0.1mm" /><circle r="2.819999999999984" cx="46.77320363200417mm" cy="15.72730520606725mm" fill="none" stroke="black" stroke-width="0.1mm" /><circle r="2.8299999999999836" cx="57.12221821714141mm" cy="21.374221000865624mm" fill="none" stroke="black" stroke-width="0.1mm" /><circle r="2.8399999999999834" cx="63.80565791857682mm" cy="31.142762786076837mm" fill="none" stroke="black" stroke-width="0.1mm" /><circle r="2.849999999999983" cx="65.33143703587727mm" cy="42.92716547147403mm" fill="none" stroke="black" stroke-width="0.1mm" /><circle r="2.859999999999983" cx="61.324870626704296mm" cy="54.16368217499706mm" fill="none" stroke="black" stroke-width="0.1mm" /><circle r="2.869999999999983" cx="52.6195249168808mm" cy="62.38833604518722mm" fill="none" stroke="black" stroke-width="0.1mm" /><circle r="2.8799999999999826" cx="41.08418944829042mm" cy="65.77720957047563mm" fill="none" stroke="black" stroke-width="0.1mm" /><circle r="2.8899999999999824" cx="29.221796933437105mm" cy="63.55080335478897mm" fill="none" stroke="black" stroke-width="0.1mm" /><circle r="2.899999999999982" cx="19.626349570397007mm" cy="56.15284396545522mm" fill="none" stroke="black" stroke-width="0.1mm" /><circle r="2.909999999999982" cx="14.415682637143284mm" cy="45.162625792814524mm" fill="none" stroke="black" stroke-width="0.1mm" /><circle r="2.9199999999999817" cx="14.764103031704515mm" cy="32.95801844609203mm" fill="none" stroke="black" stroke-width="0.1mm" /><circle r="2.9299999999999815" cx="20.638024202480064mm" cy="22.201014264395354mm" fill="none" stroke="black" stroke-width="0.1mm" /><circle r="2.9399999999999813" cx="30.794052659543322mm" cy="15.257111454707957mm" fill="none" stroke="black" stroke-width="0.1mm" /><circle r="2.949999999999981" cx="43.041956274275755mm" cy="13.675173276441118mm" fill="none" stroke="black" stroke-width="0.1mm" /><circle r="2.959999999999981" cx="54.716951009956894mm" cy="17.842126614439408mm" fill="none" stroke="black" stroke-width="0.1mm" /><circle r="2.9699999999999807" cx="63.25947752554413mm" cy="26.889442985185052mm" fill="none" stroke="black" stroke-width="0.1mm" /><circle r="2.9799999999999804" cx="66.77632622049403mm" cy="38.873787704875426mm" fill="none" stroke="black" stroke-width="0.1mm" /><circle r="2.9899999999999802" cx="64.46010078161531mm" cy="51.19434990310864mm" fill="none" stroke="black" stroke-width="0.1mm" /><circle r="2.99999999999998" cx="56.77410719489676mm" cy="61.15725236920237mm" fill="none" stroke="black" stroke-width="0.1mm" /><circle r="3.00999999999998" cx="45.36042754732968mm" cy="66.56455940741039mm" fill="none" stroke="black" stroke-width="0.1mm" /><circle r="3.0199999999999796" cx="32.68924052418831mm" cy="66.19909914265824mm" fill="none" stroke="black" stroke-width="0.1mm" /><circle r="3.0299999999999794" cx="21.52424674593219mm" cy="60.09817259590555mm" fill="none" stroke="black" stroke-width="0.1mm" /><circle r="3.039999999999979" cx="14.319880827992765mm" cy="49.55465746699028mm" fill="none" stroke="black" stroke-width="0.1mm" /><circle r="3.049999999999979" cx="12.681783588759497mm" cy="36.8432529229226mm" fill="none" stroke="black" stroke-width="0.1mm" /><circle r="3.0599999999999787" cx="17.009123855583056mm" cy="24.72978015508334mm" fill="none" stroke="black" stroke-width="0.1mm" /><circle r="3.0699999999999785" cx="26.398410887250826mm" cy="15.86938099409901mm" fill="none" stroke="black" stroke-width="0.1mm" /><circle r="3.0799999999999783" cx="38.83176485804118mm" cy="12.224557129487579mm" fill="none" stroke="black" stroke-width="0.1mm" /><circle r="3.089999999999978" cx="51.610496739654295mm" cy="14.63060179155832mm" fill="none" stroke="black" stroke-width="0.1mm" /><circle r="3.099999999999978" cx="61.94085430880169mm" cy="22.60462957566164mm" fill="none" stroke="black" stroke-width="0.1mm" /><circle r="3.1099999999999777" cx="67.54480145196403mm" cy="34.44177069815508mm" fill="none" stroke="black" stroke-width="0.1mm" /><circle r="3.1199999999999775" cx="67.16230131702102mm" cy="47.57953739771533mm" fill="none" stroke="black" stroke-width="0.1mm" /><circle r="3.1299999999999772" cx="60.83436939429124mm" cy="59.15252077253091mm" fill="none" stroke="black" stroke-width="0.1mm" /><circle r="3.139999999999977" cx="49.90336759352396mm" cy="66.61734979872239mm" fill="none" stroke="black" stroke-width="0.1mm" /><circle r="3.149999999999977" cx="36.728462120121044mm" cy="68.31160609892214mm" fill="none" stroke="black" stroke-width="0.1mm" /><circle r="3.1599999999999766" cx="24.176511320123645mm" cy="63.82387890327335mm" fill="none" stroke="black" stroke-width="0.1mm" /><circle r="3.1699999999999764" cx="14.998239513741993mm" cy="54.09262121068312mm" fill="none" stroke="black" stroke-width="0.1mm" /><circle r="3.179999999999976" cx="11.225440479469153mm" cy="41.210257988792335mm" fill="none" stroke="black" stroke-width="0.1mm" /><circle r="3.189999999999976" cx="13.721304364732422mm" cy="27.973356423799mm" fill="none" stroke="black" stroke-width="0.1mm" /><circle r="3.1999999999999758" cx="21.983366346221256mm" cy="17.275543751598025mm" fill="none" stroke="black" stroke-width="0.1mm" /><circle r="3.2099999999999755" cx="34.24396894364178mm" cy="11.474956503481927mm" fill="none" stroke="black" stroke-width="0.1mm" /><circle r="3.2199999999999753" cx="47.84831531962127mm" cy="11.874496508616836mm" fill="none" stroke="black" stroke-width="0.1mm" /><circle r="3.229999999999975" cx="59.82928829099609mm" cy="18.429433807324994mm" fill="none" stroke="black" stroke-width="0.1mm" /><circle r="3.239999999999975" cx="67.55458042543869mm" cy="29.747922279945406mm" fill="none" stroke="black" stroke-width="0.1mm" /><circle r="3.2499999999999747" cx="69.30499578660334mm" cy="43.386328682684166mm" fill="none" stroke="black" stroke-width="0.1mm" /><circle r="3.2599999999999745" cx="64.65688166212746mm" cy="56.376757514839476mm" fill="none" stroke="black" stroke-width="0.1mm" /><circle r="3.2699999999999743" cx="54.58365330861381mm" cy="65.87290196661687mm" fill="none" stroke="black" stroke-width="0.1mm" /><circle r="3.279999999999974" cx="41.2522808356225mm" cy="69.77367617054941mm" fill="none" stroke="black" stroke-width="0.1mm" /><circle r="3.289999999999974" cx="27.557209587249595mm" cy="67.18799306209225mm" fill="none" stroke="black" stroke-width="0.1mm" /><circle r="3.2999999999999736" cx="16.491941811996135mm" cy="58.637896883217095mm" fill="none" stroke="black" stroke-width="0.1mm" /><circle r="3.3099999999999734" cx="10.49471445892745mm" cy="45.95383281086937mm" fill="none" stroke="black" stroke-width="0.1mm" /><circle r="3.319999999999973" cx="10.911294334255182mm" cy="31.88290675847105mm" fill="none" stroke="black" stroke-width="0.1mm" /><circle r="3.329999999999973" cx="17.693237008942173mm" cy="19.493944190537697mm" fill="none" stroke="black" stroke-width="0.1mm" /><circle r="3.3399999999999728" cx="29.399212153415714mm" cy="11.508188947844666mm" fill="none" stroke="black" stroke-width="0.1mm" /><circle r="3.3499999999999726" cx="43.50111948548997mm" cy="9.701614525715524mm" fill="none" stroke="black" stroke-width="0.1mm" /><circle r="3.3599999999999723" cx="56.93002634980276mm" cy="14.510115579018517mm" fill="none" stroke="black" stroke-width="0.1mm" /><circle r="3.369999999999972" cx="66.74404344697581mm" cy="24.925314593455667mm" fill="none" stroke="black" stroke-width="0.1mm" /><circle r="3.379999999999972" cx="70.77279282056799mm" cy="38.705696317547535mm" fill="none" stroke="black" stroke-width="0.1mm" /><circle r="3.3899999999999717" cx="68.09729048891683mm" cy="52.858937249299984mm" fill="none" stroke="black" stroke-width="0.1mm" /><circle r="3.3999999999999715" cx="59.25916011265531mm" cy="64.29166012760588mm" fill="none" stroke="black" stroke-width="0.1mm" /><circle r="3.4099999999999713" cx="46.151634565380334mm" cy="70.48552758562707mm" fill="none" stroke="black" stroke-width="0.1mm" /><circle r="3.419999999999971" cx="31.614128836563186mm" cy="70.05190784010642mm" fill="none" stroke="black" stroke-width="0.1mm" /><circle r="3.429999999999971" cx="18.81717667207134mm" cy="63.042959789440516mm" fill="none" stroke="black" stroke-width="0.1mm" /><circle r="3.4399999999999706" cx="10.570958321127957mm" cy="50.94949797311379mm" fill="none" stroke="black" stroke-width="0.1mm" /><circle r="3.4499999999999704" cx="8.708224838034411mm" cy="36.38408971170402mm" fill="none" stroke="black" stroke-width="0.1mm" /><circle r="3.45999999999997" cx="13.677112820164613mm" cy="22.516704815233794mm" fill="none" stroke="black" stroke-width="0.1mm" /><circle r="3.46999999999997" cx="24.434282495525316mm" cy="12.384815072665152mm" fill="none" stroke="black" stroke-width="0.1mm" /><circle r="3.47999999999997" cx="38.663673470717754mm" cy="8.22809052941344mm" fill="none" stroke="black" stroke-width="0.1mm" /><circle r="3.4899999999999696" cx="53.27508408584974mm" cy="10.993412084258676mm" fill="none" stroke="black" stroke-width="0.1mm" /><circle r="3.4999999999999694" cx="65.07526206720802mm" cy="20.119576657906638mm" fill="none" stroke="black" stroke-width="0.1mm" /><circle r="3.509999999999969" cx="71.46576963018161mm" cy="33.650563680108895mm" fill="none" stroke="black" stroke-width="0.1mm" /><circle r="3.519999999999969" cx="71.01511001446796mm" cy="48.654649085344865mm" fill="none" stroke="black" stroke-width="0.1mm" /><circle r="3.5299999999999687" cx="63.77915658782307mm" cy="61.85959084639516mm" fill="none" stroke="black" stroke-width="0.1mm" /><circle r="3.5399999999999685" cx="51.298208099643126mm" cy="70.36627230558882mm" fill="none" stroke="black" stroke-width="0.1mm" /><circle r="3.5499999999999683" cx="36.26929890889783mm" cy="72.28516484964668mm" fill="none" stroke="black" stroke-width="0.1mm" /><circle r="3.559999999999968" cx="21.963435980270187mm" cy="67.15588993868919mm" fill="none" stroke="black" stroke-width="0.1mm" /><circle r="3.569999999999968" cx="11.51367359230601mm" cy="56.056749602404864mm" fill="none" stroke="black" stroke-width="0.1mm" /><circle r="3.5799999999999677" cx="7.22897387939485mm" cy="41.37834937611182mm" fill="none" stroke="black" stroke-width="0.1mm" /><circle r="3.5899999999999674" cx="10.084114657434256mm" cy="26.308769077600324mm" fill="none" stroke="black" stroke-width="0.1mm" /><circle r="3.5999999999999672" cx="19.498313428468734mm" cy="14.141135993189728mm" fill="none" stroke="black" stroke-width="0.1mm" /><circle r="3.609999999999967" cx="33.45276192559832mm" cy="7.553988325263795mm" fill="none" stroke="black" stroke-width="0.1mm" /><circle r="3.619999999999967" cx="48.92342700725311mm" cy="8.021687811170533mm" fill="none" stroke="black" stroke-width="0.1mm" /><circle r="3.6299999999999666" cx="62.5363583648618mm" cy="15.48464661379451mm" fill="none" stroke="black" stroke-width="0.1mm" /><circle r="3.6399999999999664" cx="71.30350293230568mm" cy="28.353081773827732mm" fill="none" stroke="black" stroke-width="0.1mm" /><circle r="3.649999999999966" cx="73.27855453732775mm" cy="43.845491893908566mm" fill="none" stroke="black" stroke-width="0.1mm" /><circle r="3.659999999999966" cx="67.98889269754288mm" cy="58.58983285469358mm" fill="none" stroke="black" stroke-width="0.1mm" /><circle r="3.6699999999999657" cx="56.54778170033488mm" cy="69.35746788805322mm" fill="none" stroke="black" stroke-width="0.1mm" /><circle r="3.6799999999999655" cx="41.42037222294121mm" cy="73.77014277062375mm" fill="none" stroke="black" stroke-width="0.1mm" /><circle r="3.6899999999999653" cx="25.892622241050216mm" cy="70.82518276939008mm" fill="none" stroke="black" stroke-width="0.1mm" /><circle r="3.699999999999965" cx="13.35753405358735mm" cy="61.12294980096901mm" fill="none" stroke="black" stroke-width="0.1mm" /><circle r="3.709999999999965" cx="6.573746280709159mm" cy="46.74503982891207mm" fill="none" stroke="black" stroke-width="0.1mm" /><circle r="3.7199999999999647" cx="7.058485636809088mm" cy="30.807795070838466mm" fill="none" stroke="black" stroke-width="0.1mm" /><circle r="3.7299999999999645" cx="14.748449815412215mm" cy="16.786874116671413mm" fill="none" stroke="black" stroke-width="0.1mm" /><circle r="3.7399999999999642" cx="28.00437164729877mm" cy="7.759266440977413mm" fill="none" stroke="black" stroke-width="0.1mm" /><circle r="3.749999999999964" cx="43.96028269671515mm" cy="5.728055774991205mm" fill="none" stroke="black" stroke-width="0.1mm" /><circle r="3.759999999999964" cx="59.14310168965751mm" cy="11.178104543603542mm" fill="none" stroke="black" stroke-width="0.1mm" /><circle r="3.7699999999999636" cx="70.22860936841255mm" cy="22.96118620173528mm" fill="none" stroke="black" stroke-width="0.1mm" /><circle r="3.7799999999999634" cx="74.76925942064236mm" cy="38.537604930229605mm" fill="none" stroke="black" stroke-width="0.1mm" /><circle r="3.789999999999963" cx="71.73448019621434mm" cy="54.52352459550008mm" fill="none" stroke="black" stroke-width="0.1mm" /><circle r="3.799999999999963" cx="61.74421303040661mm" cy="67.42606788601515mm" fill="none" stroke="black" stroke-width="0.1mm" /><circle r="3.8099999999999627" cx="46.942841583422265mm" cy="74.4064957638455mm" fill="none" stroke="black" stroke-width="0.1mm" /><circle r="3.8199999999999625" cx="30.539017148929847mm" cy="73.9047165375523mm" fill="none" stroke="black" stroke-width="0.1mm" /><circle r="3.8299999999999623" cx="16.11010659820448mm" cy="65.98774698296994mm" fill="none" stroke="black" stroke-width="0.1mm" /><circle r="3.839999999999962" cx="6.822035814260431mm" cy="52.34433847923001mm" fill="none" stroke="black" stroke-width="0.1mm" /><circle r="3.849999999999962" cx="4.734666087310174mm" cy="35.92492650047808mm" fill="none" stroke="black" stroke-width="0.1mm" /><circle r="3.8599999999999617" cx="10.345101784750067mm" cy="20.303629475378386mm" fill="none" stroke="black" stroke-width="0.1mm" /><circle r="3.8699999999999615" cx="22.47015410380561mm" cy="8.900249151228017mm" fill="none" stroke="black" stroke-width="0.1mm" /><circle r="3.8799999999999613" cx="38.495582083400606mm" cy="4.231623929339037mm" fill="none" stroke="black" stroke-width="0.1mm" /><circle r="3.889999999999961" cx="54.939671432050545mm" cy="7.356222376961483mm" fill="none" stroke="black" stroke-width="0.1mm" /><circle r="3.899999999999961" cx="68.20966982561777mm" cy="17.63452374015595mm" fill="none" stroke="black" stroke-width="0.1mm" /><circle r="3.9099999999999606" cx="75.38673780840021mm" cy="32.859356662067725mm" fill="none" stroke="black" stroke-width="0.1mm" /><circle r="3.9199999999999604" cx="74.86791871191365mm" cy="49.729760772978956mm" fill="none" stroke="black" stroke-width="0.1mm" /><circle r="3.92999999999996" cx="66.72394378135198mm" cy="64.56666092026259mm" fill="none" stroke="black" stroke-width="0.1mm" /><circle r="3.93999999999996" cx="52.69304860575861mm" cy="74.11519481245662mm" fill="none" stroke="black" stroke-width="0.1mm" /><circle r="3.9499999999999598" cx="35.81013569767111mm" cy="76.25872360037081mm" fill="none" stroke="black" stroke-width="0.1mm" /><circle r="3.9599999999999596" cx="19.75036064041413mm" cy="70.4879009741033mm" fill="none" stroke="black" stroke-width="0.1mm" /><circle r="3.9699999999999593" cx="8.029107670868495mm" cy="58.02087799412389mm" fill="none" stroke="black" stroke-width="0.1mm" /><circle r="3.979999999999959" cx="3.2325072793204157mm" cy="41.546440763428194mm" fill="none" stroke="black" stroke-width="0.1mm" /><circle r="3.989999999999959" cx="6.446924950137394mm" cy="24.644181731398813mm" fill="none" stroke="black" stroke-width="0.1mm" /><circle r="3.9999999999999587" cx="17.01326051071866mm" cy="11.00672823477949mm" fill="none" stroke="black" stroke-width="0.1mm" /><text x="37mm" y="78mm" font-size="6" fill="black" stroke-width="0.01mm">VERICITE</text></svg>