<svg width="200" height="200" fill="none" stroke="black"><circle r="30" cx="100" cy="100" stroke-width="0.1mm" /><circle r="0.5" cx="102.85316954888546" cy="100.92705098312484" fill="none" stroke="black" stroke-width="0.1mm" /><circle r="0.5" cx="102.58885438199984" cy="101.88091280733592" fill="none" stroke="black" stroke-width="0.1mm" /><circle r="0.5" cx="101.9984698577944" cy="102.75065778087482" fill="none" stroke="black" stroke-width="0.1mm" /><circle r="0.5" cx="101.11246117974981" cy="103.42380345866255" fill="none" stroke="black" stroke-width="0.1mm" /><circle r="0.5" cx="100.0" cy="103.8" fill="none" stroke="black" stroke-width="0.1mm" /><circle r="0.5" cx="98.76393202250021" cy="103.80422606518061" fill="none" stroke="black" stroke-width="0.1mm" /><circle r="0.5" cx="97.5313019403716" cy="103.39787137637478" fill="none" stroke="black" stroke-width="0.1mm" /><circle r="0.5" cx="96.44032522475023" cy="102.58625511008688" fill="none" stroke="black" stroke-width="0.1mm" /><circle r="0.5" cx="95.6251400250423" cy="101.42147817412476" fill="none" stroke="black" stroke-width="0.1mm" /><circle r="0.5" cx="95.2" cy="100.0" fill="none" stroke="black" stroke-width="0.1mm" /><circle r="0.5" cx="95.24471741852423" cy="98.45491502812526" fill="none" stroke="black" stroke-width="0.1mm" /><circle r="0.5" cx="95.79311162925028" cy="96.94351668807914" fill="none" stroke="black" stroke-width="0.1mm" /><circle r="0.5" cx="96.82595963762064" cy="95.63130823037528" fill="none" stroke="black" stroke-width="0.1mm" /><circle r="0.5" cx="98.2695048315003" cy="94.67408350874715" fill="none" stroke="black" stroke-width="0.1mm" /><circle r="0.5" cx="100.0" cy="94.2" fill="none" stroke="black" stroke-width="0.1mm" /><circle r="0.5" cx="101.85410196624969" cy="94.29366090222908" fill="none" stroke="black" stroke-width="0.1mm" /><circle r="0.5" cx="103.64426856421333" cy="94.98409463487532" fill="none" stroke="black" stroke-width="0.1mm" /><circle r="0.5" cx="105.17770876399966" cy="96.23817438532816" fill="none" stroke="black" stroke-width="0.1mm" /><circle r="0.5" cx="106.27697300754802" cy="97.96048783712534" fill="none" stroke="black" stroke-width="0.1mm" /><circle r="0.5" cx="106.8" cy="100.0" fill="none" stroke="black" stroke-width="0.1mm" /><circle r="0.5" cx="106.65739561406608" cy="102.16311896062463" fill="none" stroke="black" stroke-width="0.1mm" /><circle r="0.5" cx="105.82492235949962" cy="104.23205381650581" fill="none" stroke="black" stroke-width="0.1mm" /><circle r="0.5" cx="104.3496108669643" cy="105.98672575837462" fill="none" stroke="black" stroke-width="0.1mm" /><circle r="0.5" cx="102.3485291572496" cy="107.22802952384318" fill="none" stroke="black" stroke-width="0.1mm" /><circle r="0.5" cx="100.0" cy="107.80000000000001" fill="none" stroke="black" stroke-width="0.1mm" /><circle r="0.5" cx="97.52786404500043" cy="107.60845213036123" fill="none" stroke="black" stroke-width="0.1mm" /><circle r="0.5" cx="95.18016093120173" cy="106.63393935387457" fill="none" stroke="black" stroke-width="0.1mm" /><circle r="0.5" cx="93.20425724725044" cy="104.93739611925677" fill="none" stroke="black" stroke-width="0.1mm" /><circle r="0.5" cx="91.82091395986168" cy="102.65754615162456" fill="none" stroke="black" stroke-width="0.1mm" /><circle r="0.5" cx="91.2" cy="100.0" fill="none" stroke="black" stroke-width="0.1mm" /><circle r="0.5" cx="91.44049135334362" cy="97.21884705062547" fill="none" stroke="black" stroke-width="0.1mm" /><circle r="0.5" cx="92.55704365175048" cy="94.59237567890925" fill="none" stroke="black" stroke-width="0.1mm" /><circle r="0.5" cx="94.47481862845075" cy="92.3952402528755" fill="none" stroke="black" stroke-width="0.1mm" /><circle r="0.5" cx="97.0334368540005" cy="90.86985744356653" fill="none" stroke="black" stroke-width="0.1mm" /><circle r="0.5" cx="100.0" cy="90.2" fill="none" stroke="black" stroke-width="0.1mm" /><circle r="0.5" cx="103.09016994374947" cy="90.48943483704846" fill="none" stroke="black" stroke-width="0.1mm" /><circle r="0.5" cx="105.99540957338323" cy="91.74802665737553" fill="none" stroke="black" stroke-width="0.1mm" /><circle r="0.5" cx="108.41377674149945" cy="93.88703337615829" fill="none" stroke="black" stroke-width="0.1mm" /><circle r="0.5" cx="110.08119907272862" cy="96.72441985962556" fill="none" stroke="black" stroke-width="0.1mm" /><circle r="0.5" cx="110.8" cy="100.0" fill="none" stroke="black" stroke-width="0.1mm" /><circle r="0.5" cx="110.46162167924669" cy="103.39918693812442" fill="none" stroke="black" stroke-width="0.1mm" /><circle r="0.5" cx="109.06099033699941" cy="106.58319482567569" fill="none" stroke="black" stroke-width="0.1mm" /><circle r="0.5" cx="106.70075187613419" cy="109.22279373587439" fill="none" stroke="black" stroke-width="0.1mm" /><circle r="0.5" cx="103.58459713474939" cy="111.03225558902378" fill="none" stroke="black" stroke-width="0.1mm" /><circle r="0.5" cx="100.0" cy="111.79999999999998" fill="none" stroke="black" stroke-width="0.1mm" /><circle r="0.5" cx="96.29179606750064" cy="111.41267819554183" fill="none" stroke="black" stroke-width="0.1mm" /><circle r="0.5" cx="92.82901992203185" cy="109.87000733137435" fill="none" stroke="black" stroke-width="0.1mm" /><circle r="0.5" cx="89.96818926975067" cy="107.28853712842667" fill="none" stroke="black" stroke-width="0.1mm" /><circle r="0.5" cx="88.01668789468108" cy="103.89361412912434" fill="none" stroke="black" stroke-width="0.1mm" /><circle r="0.5" cx="87.20000000000002" cy="100.00000000000001" fill="none" stroke="black" stroke-width="0.1mm" /><circle r="0.5" cx="87.636265288163" cy="95.98277907312571" fill="none" stroke="black" stroke-width="0.1mm" /><circle r="0.5" cx="89.3209756742507" cy="92.24123466973937" fill="none" stroke="black" stroke-width="0.1mm" /><circle r="0.5" cx="92.12367761928088" cy="89.15917227537571" fill="none" stroke="black" stroke-width="0.1mm" /><circle r="0.5" cx="95.79736887650076" cy="87.06563137838592" fill="none" stroke="black" stroke-width="0.1mm" /><circle r="0.5" cx="100.00000000000007" cy="86.20000000000002" fill="none" stroke="black" stroke-width="0.1mm" /><circle r="0.5" cx="104.32623792124934" cy="86.68520877186789" fill="none" stroke="black" stroke-width="0.1mm" /><circle r="0.5" cx="108.3465505825532" cy="88.51195867987583" fill="none" stroke="black" stroke-width="0.1mm" /><circle r="0.5" cx="111.6498447189993" cy="91.53589236698852" fill="none" stroke="black" stroke-width="0.1mm" /><circle r="0.5" cx="113.88542513790928" cy="95.48835188212594" fill="none" stroke="black" stroke-width="0.1mm" /><circle r="0.5" cx="114.79999999999998" cy="100.0000000000002" fill="none" stroke="black" stroke-width="0.1mm" /><circle r="0.5" cx="114.26584774442722" cy="104.63525491562442" fill="none" stroke="black" stroke-width="0.1mm" /><circle r="0.5" cx="112.29705831449903" cy="108.93433583484578" fill="none" stroke="black" stroke-width="0.1mm" /><circle r="0.5" cx="109.05189288530384" cy="112.45886171337435" fill="none" stroke="black" stroke-width="0.1mm" /><circle r="0.5" cx="104.82066511224886" cy="114.83648165420448" fill="none" stroke="black" stroke-width="0.1mm" /><circle r="0.5" cx="99.99999999999964" cy="115.79999999999998" fill="none" stroke="black" stroke-width="0.1mm" /><circle r="0.5" cx="95.05572809000049" cy="115.21690426072232" fill="none" stroke="black" stroke-width="0.1mm" /><circle r="0.5" cx="90.47787891286161" cy="113.10607530887388" fill="none" stroke="black" stroke-width="0.1mm" /><circle r="0.5" cx="86.73212129225061" cy="109.63967813759618" fill="none" stroke="black" stroke-width="0.1mm" /><circle r="0.5" cx="84.21246182950033" cy="105.12968210662366" fill="none" stroke="black" stroke-width="0.1mm" /><circle r="0.5" cx="83.20000000000003" cy="99.99999999999947" fill="none" stroke="black" stroke-width="0.1mm" /><circle r="0.5" cx="83.83203922298259" cy="94.74671109562537" fill="none" stroke="black" stroke-width="0.1mm" /><circle r="0.5" cx="86.08490769675127" cy="89.890093660569" fill="none" stroke="black" stroke-width="0.1mm" /><circle r="0.5" cx="89.7725366101115" cy="85.92310429787557" fill="none" stroke="black" stroke-width="0.1mm" /><circle r="0.5" cx="94.56130089900158" cy="83.26140531320512" fill="none" stroke="black" stroke-width="0.1mm" /><circle r="0.5" cx="100.00000000000071" cy="82.20000000000003" fill="none" stroke="black" stroke-width="0.1mm" /><circle r="0.5" cx="105.56230589874976" cy="82.88098270668749" fill="none" stroke="black" stroke-width="0.1mm" /><circle r="0.5" cx="110.69769159172364" cy="85.27589070237644" fill="none" stroke="black" stroke-width="0.1mm" /><circle r="0.5" cx="114.88591269649949" cy="89.18475135781918" fill="none" stroke="black" stroke-width="0.1mm" /><circle r="0.5" cx="117.6896512030901" cy="94.25228390462682" fill="none" stroke="black" stroke-width="0.1mm" /><circle r="0.5" cx="118.79999999999997" cy="100.00000000000092" fill="none" stroke="black" stroke-width="0.1mm" /><circle r="0.5" cx="118.07007380960759" cy="105.8713228931249" fill="none" stroke="black" stroke-width="0.1mm" /><circle r="0.5" cx="115.53312629199837" cy="111.28547684401627" fill="none" stroke="black" stroke-width="0.1mm" /><circle r="0.5" cx="111.40303389447311" cy="115.69492969087457" fill="none" stroke="black" stroke-width="0.1mm" /><circle r="0.5" cx="106.05673308974792" cy="118.64070771938532" fill="none" stroke="black" stroke-width="0.1mm" /><circle r="0.5" cx="99.99999999999886" cy="119.79999999999995" fill="none" stroke="black" stroke-width="0.1mm" /><circle r="0.5" cx="93.81966011249993" cy="119.02113032590267" fill="none" stroke="black" stroke-width="0.1mm" /><circle r="0.5" cx="88.12673790369107" cy="116.34214328637319" fill="none" stroke="black" stroke-width="0.1mm" /><circle r="0.5" cx="83.49605331475036" cy="111.99081914676539" fill="none" stroke="black" stroke-width="0.1mm" /><circle r="0.5" cx="80.40823576431947" cy="106.36575008412264" fill="none" stroke="black" stroke-width="0.1mm" /><circle r="0.5" cx="79.20000000000005" cy="99.99999999999862" fill="none" stroke="black" stroke-width="0.1mm" /><circle r="0.5" cx="80.02781315780226" cy="93.51064311812476" fill="none" stroke="black" stroke-width="0.1mm" /><circle r="0.5" cx="82.84883971925203" cy="87.5389526513984" fill="none" stroke="black" stroke-width="0.1mm" /><circle r="0.5" cx="87.42139560094235" cy="82.68703632037526" fill="none" stroke="black" stroke-width="0.1mm" /><circle r="0.5" cx="93.32523292150266" cy="79.45717924802423" fill="none" stroke="black" stroke-width="0.1mm" /><circle r="0.5" cx="100.00000000000163" cy="78.20000000000005" fill="none" stroke="black" stroke-width="0.1mm" /><circle r="0.5" cx="106.79837387625044" cy="79.07675664150719" fill="none" stroke="black" stroke-width="0.1mm" /><circle r="0.5" cx="113.04883260089429" cy="82.03982272487724" fill="none" stroke="black" stroke-width="0.1mm" /><circle r="0.5" cx="118.12198067399984" cy="86.8336103486501" fill="none" stroke="black" stroke-width="0.1mm" /><circle r="0.5" cx="121.493877268271" cy="93.01621592712797" fill="none" stroke="black" stroke-width="0.1mm" /><circle r="0.5" cx="122.79999999999995" cy="100.00000000000192" fill="none" stroke="black" stroke-width="0.1mm" /><circle r="0.5" cx="121.87429987478788" cy="107.10739087062565" fill="none" stroke="black" stroke-width="0.1mm" /><circle r="0.5" cx="118.76919426949755" cy="113.63661785318699" fill="none" stroke="black" stroke-width="0.1mm" /><circle r="0.5" cx="113.75417490364215" cy="118.93099766837496" fill="none" stroke="black" stroke-width="0.1mm" /><circle r="0.5" cx="107.2928010672467" cy="122.44493378456625" fill="none" stroke="black" stroke-width="0.1mm" /><circle r="0.5" cx="99.99999999999778" cy="123.79999999999995" fill="none" stroke="black" stroke-width="0.1mm" /><circle r="0.5" cx="92.58359213499912" cy="122.82535639108293" fill="none" stroke="black" stroke-width="0.1mm" /><circle r="0.5" cx="85.77559689452029" cy="119.5782112638723" fill="none" stroke="black" stroke-width="0.1mm" /><circle r="0.5" cx="80.25998533724992" cy="114.34196015593437" fill="none" stroke="black" stroke-width="0.1mm" /><circle r="0.5" cx="76.60400969913852" cy="107.60181806162136" fill="none" stroke="black" stroke-width="0.1mm" /><circle r="0.5" cx="75.20000000000006" cy="99.99999999999748" fill="none" stroke="black" stroke-width="0.1mm" /><circle r="0.5" cx="76.22358709262201" cy="92.27457514062387" fill="none" stroke="black" stroke-width="0.1mm" /><circle r="0.5" cx="79.61277174175294" cy="85.18781164222756" fill="none" stroke="black" stroke-width="0.1mm" /><circle r="0.5" cx="85.07025459177342" cy="79.45096834287479" fill="none" stroke="black" stroke-width="0.1mm" /><circle r="0.5" cx="92.08916494400401" cy="75.65295318284326" fill="none" stroke="black" stroke-width="0.1mm" /><circle r="0.5" cx="100.00000000000286" cy="74.20000000000006" fill="none" stroke="black" stroke-width="0.1mm" /><circle r="0.5" cx="108.03444185375139" cy="75.27253057632697" fill="none" stroke="black" stroke-width="0.1mm" /><circle r="0.5" cx="115.39997361006517" cy="78.80375474737818" fill="none" stroke="black" stroke-width="0.1mm" /><circle r="0.5" cx="121.35804865150035" cy="84.48246933948121" fill="none" stroke="black" stroke-width="0.1mm" /><circle r="0.5" cx="125.29810333345199" cy="91.7801479496294" fill="none" stroke="black" stroke-width="0.1mm" /><circle r="0.5" cx="126.79999999999994" cy="100.0000000000032" fill="none" stroke="black" stroke-width="0.1mm" /><circle r="0.5" cx="125.67852593996807" cy="108.34345884812667" fill="none" stroke="black" stroke-width="0.1mm" /><circle r="0.5" cx="122.00526224699655" cy="115.98775886235794" fill="none" stroke="black" stroke-width="0.1mm" /><circle r="0.5" cx="116.10531591281097" cy="122.16706564587551" fill="none" stroke="black" stroke-width="0.1mm" /><circle r="0.5" cx="108.5288690447452" cy="126.24915984974726" fill="none" stroke="black" stroke-width="0.1mm" /><circle r="0.5" cx="99.99999999999643" cy="127.79999999999993" fill="none" stroke="black" stroke-width="0.1mm" /><circle r="0.5" cx="91.34752415749803" cy="126.62958245626311" fill="none" stroke="black" stroke-width="0.1mm" /><circle r="0.5" cx="83.42445588534929" cy="122.81427924137128" fill="none" stroke="black" stroke-width="0.1mm" /><circle r="0.5" cx="77.02391735974932" cy="116.69310116510313" fill="none" stroke="black" stroke-width="0.1mm" /><circle r="0.5" cx="72.79978363395747" cy="108.8378860391198" fill="none" stroke="black" stroke-width="0.1mm" /><circle r="0.5" cx="71.20000000000007" cy="99.99999999999605" fill="none" stroke="black" stroke-width="0.1mm" /><circle r="0.5" cx="72.41936102744185" cy="91.03850716312272" fill="none" stroke="black" stroke-width="0.1mm" /><circle r="0.5" cx="76.376703764254" cy="82.83667063305651" fill="none" stroke="black" stroke-width="0.1mm" /><circle r="0.5" cx="82.71911358260472" cy="76.21490036537415" fill="none" stroke="black" stroke-width="0.1mm" /><circle r="0.5" cx="90.85309696650563" cy="71.84872711766221" fill="none" stroke="black" stroke-width="0.1mm" /><circle r="0.5" cx="100.00000000000435" cy="70.20000000000007" fill="none" stroke="black" stroke-width="0.1mm" /><circle r="0.5" cx="109.27050983125261" cy="71.46830451114683" fill="none" stroke="black" stroke-width="0.1mm" /><circle r="0.5" cx="117.75111461923629" cy="75.5676867698793" fill="none" stroke="black" stroke-width="0.1mm" /><circle r="0.5" cx="124.59411662900104" cy="82.13132833031258" fill="none" stroke="black" stroke-width="0.1mm" /><circle r="0.5" cx="129.10232939863306" cy="90.54407997213107" fill="none" stroke="black" stroke-width="0.1mm" /><circle r="0.5" cx="130.79999999999993" cy="100.00000000000476" fill="none" stroke="black" stroke-width="0.1mm" /><circle r="0.5" cx="129.4827520051482" cy="109.57952682562795" fill="none" stroke="black" stroke-width="0.1mm" /><circle r="0.5" cx="125.2413302244954" cy="118.33889987152911" fill="none" stroke="black" stroke-width="0.1mm" /><circle r="0.5" cx="118.45645692197955" cy="125.40313362337623" fill="none" stroke="black" stroke-width="0.1mm" /><circle r="0.5" cx="109.76493702224346" cy="130.05338591492836" fill="none" stroke="black" stroke-width="0.1mm" /><circle r="0.5" cx="99.9999999999948" cy="131.79999999999993" fill="none" stroke="black" stroke-width="0.1mm" /><circle r="0.5" cx="90.11145617999668" cy="130.4338085214432" fill="none" stroke="black" stroke-width="0.1mm" /><circle r="0.5" cx="81.07331487617806" cy="126.05034721887009" fill="none" stroke="black" stroke-width="0.1mm" /><circle r="0.5" cx="73.78784938224855" cy="119.04424217427166" fill="none" stroke="black" stroke-width="0.1mm" /><circle r="0.5" cx="68.99555756877635" cy="110.07395401661798" fill="none" stroke="black" stroke-width="0.1mm" /><circle r="0.5" cx="67.20000000000007" cy="99.99999999999434" fill="none" stroke="black" stroke-width="0.1mm" /><circle r="0.5" cx="68.61513496226178" cy="89.8024391856213" fill="none" stroke="black" stroke-width="0.1mm" /><circle r="0.5" cx="73.14063578675524" cy="80.48552962388521" fill="none" stroke="black" stroke-width="0.1mm" /><circle r="0.5" cx="80.36797257343623" cy="72.97883238787333" fill="none" stroke="black" stroke-width="0.1mm" /><circle r="0.5" cx="89.61702898900751" cy="68.04450105248104" fill="none" stroke="black" stroke-width="0.1mm" /><circle r="0.5" cx="100.00000000000612" cy="66.20000000000006" fill="none" stroke="black" stroke-width="0.1mm" /><circle r="0.5" cx="110.5065778087541" cy="67.66407844596677" fill="none" stroke="black" stroke-width="0.1mm" /><circle r="0.5" cx="120.10225562840766" cy="72.33161879238055" fill="none" stroke="black" stroke-width="0.1mm" /><circle r="0.5" cx="127.83018460650192" cy="79.78018732114414" fill="none" stroke="black" stroke-width="0.1mm" /><circle r="0.5" cx="132.90655546381427" cy="89.30801199463302" fill="none" stroke="black" stroke-width="0.1mm" /><circle r="0.5" cx="134.79999999999995" cy="100.00000000000661" fill="none" stroke="black" stroke-width="0.1mm" /><circle r="0.5" cx="133.28697807032825" cy="110.81559480312953" fill="none" stroke="black" stroke-width="0.1mm" /><circle r="0.5" cx="128.4773982019941" cy="120.69004088070054" fill="none" stroke="black" stroke-width="0.1mm" /><circle r="0.5" cx="120.80759793114794" cy="128.63920160087716" fill="none" stroke="black" stroke-width="0.1mm" /><circle r="0.5" cx="111.00100499974145" cy="133.8576119801096" fill="none" stroke="black" stroke-width="0.1mm" /><circle r="0.5" cx="99.99999999999288" cy="135.79999999999995" fill="none" stroke="black" stroke-width="0.1mm" /><circle r="0.5" cx="88.87538820249503" cy="134.23803458662326" fill="none" stroke="black" stroke-width="0.1mm" /><circle r="0.5" cx="78.72217386700656" cy="129.28641519636878" fill="none" stroke="black" stroke-width="0.1mm" /><circle r="0.5" cx="70.55178140474757" cy="121.39538318344" fill="none" stroke="black" stroke-width="0.1mm" /><circle r="0.5" cx="65.19133150359508" cy="111.31002199411591" fill="none" stroke="black" stroke-width="0.1mm" /><circle r="0.5" cx="63.20000000000002" cy="99.99999999999237" fill="none" stroke="black" stroke-width="0.1mm" /><circle r="0.5" cx="64.81090889708173" cy="88.56637120811959" fill="none" stroke="black" stroke-width="0.1mm" /><circle r="0.5" cx="69.90456780925658" cy="78.13438861471366" fill="none" stroke="black" stroke-width="0.1mm" /><circle r="0.5" cx="78.01683156426795" cy="69.7427644103723" fill="none" stroke="black" stroke-width="0.1mm" /><circle r="0.5" cx="88.38096101150965" cy="64.24027498729973" fill="none" stroke="black" stroke-width="0.1mm" /><circle r="0.5" cx="100.00000000000817" cy="62.2" fill="none" stroke="black" stroke-width="0.1mm" /><circle r="0.5" cx="111.74264578625588" cy="63.85985238078673" fill="none" stroke="black" stroke-width="0.1mm" /><circle r="0.5" cx="122.45339663757927" cy="69.09555081488195" fill="none" stroke="black" stroke-width="0.1mm" /><circle r="0.5" cx="131.066252584003" cy="77.42904631197591" fill="none" stroke="black" stroke-width="0.1mm" /><circle r="0.5" cx="136.7107815289956" cy="88.07194401713522" fill="none" stroke="black" stroke-width="0.1mm" /><circle r="0.5" cx="138.8" cy="100.00000000000874" fill="none" stroke="black" stroke-width="0.1mm" /><circle r="0.5" cx="137.09120413550826" cy="112.05166278063137" fill="none" stroke="black" stroke-width="0.1mm" /><circle r="0.5" cx="131.71346617949268" cy="123.0411818898722" fill="none" stroke="black" stroke-width="0.1mm" /><circle r="0.5" cx="123.15873894031611" cy="131.8752695783783" fill="none" stroke="black" stroke-width="0.1mm" /><circle r="0.5" cx="112.23707297723918" cy="137.66183804529095" fill="none" stroke="black" stroke-width="0.1mm" /><circle r="0.5" cx="99.99999999999069" cy="139.8" fill="none" stroke="black" stroke-width="0.1mm" /><circle r="0.5" cx="87.63932022499313" cy="138.04226065180325" fill="none" stroke="black" stroke-width="0.1mm" /><circle r="0.5" cx="76.37103285783483" cy="132.5224831738673" fill="none" stroke="black" stroke-width="0.1mm" /><circle r="0.5" cx="67.31571342724641" cy="123.74652419260812" fill="none" stroke="black" stroke-width="0.1mm" /><circle r="0.5" cx="61.387105438413705" cy="112.54608997161357" fill="none" stroke="black" stroke-width="0.1mm" /><circle r="0.5" cx="59.19999999999996" cy="99.9999999999901" fill="none" stroke="black" stroke-width="0.1mm" /><circle r="0.5" cx="61.00668283190176" cy="87.3303032306176" fill="none" stroke="black" stroke-width="0.1mm" /><circle r="0.5" cx="66.66849983175808" cy="75.78324760554187" fill="none" stroke="black" stroke-width="0.1mm" /><circle r="0.5" cx="75.6656905550999" cy="66.50669643287111" fill="none" stroke="black" stroke-width="0.1mm" /><circle r="0.5" cx="87.14489303401206" cy="60.43604892211835" fill="none" stroke="black" stroke-width="0.1mm" /><circle r="0.5" cx="100.00000000001052" cy="58.199999999999946" fill="none" stroke="black" stroke-width="0.1mm" /><circle r="0.5" cx="112.97871376375792" cy="60.05562631560679" fill="none" stroke="black" stroke-width="0.1mm" /><circle r="0.5" cx="124.80453764675111" cy="65.8594828373835" fill="none" stroke="black" stroke-width="0.1mm" /><circle r="0.5" cx="134.30232056150422" cy="75.07790530280792" fill="none" stroke="black" stroke-width="0.1mm" /><circle r="0.5" cx="140.515007594177" cy="86.8358760396377" fill="none" stroke="black" stroke-width="0.1mm" /><circle r="0.5" cx="142.80000000000007" cy="100.00000000001114" fill="none" stroke="black" stroke-width="0.1mm" /><circle r="0.5" cx="140.8954302006882" cy="113.28773075813348" fill="none" stroke="black" stroke-width="0.1mm" /><circle r="0.5" cx="134.9495341569911" cy="125.3923228990441" fill="none" stroke="black" stroke-width="0.1mm" /><circle r="0.5" cx="125.50987994948404" cy="135.11133755587957" fill="none" stroke="black" stroke-width="0.1mm" /><circle r="0.5" cx="113.47314095473693" cy="141.46606411047227" fill="none" stroke="black" stroke-width="0.1mm" /><circle r="0.5" cx="99.99999999998852" cy="143.80000000000007" fill="none" stroke="black" stroke-width="0.1mm" /><circle r="0.5" cx="86.40325224749124" cy="141.84648671698324" fill="none" stroke="black" stroke-width="0.1mm" /><circle r="0.5" cx="74.01989184866314" cy="135.75855115136585" fill="none" stroke="black" stroke-width="0.1mm" /><circle r="0.5" cx="64.07964544974527" cy="126.09766520177625" fill="none" stroke="black" stroke-width="0.1mm" /><circle r="0.5" cx="57.58287937323235" cy="113.78215794911127" fill="none" stroke="black" stroke-width="0.1mm" /><circle r="0.5" cx="55.1999999999999" cy="99.99999999998786" fill="none" stroke="black" stroke-width="0.1mm" /><circle r="0.5" cx="57.20245676672179" cy="86.09423525311567" fill="none" stroke="black" stroke-width="0.1mm" /><circle r="0.5" cx="63.43243185425959" cy="73.43210659637012" fill="none" stroke="black" stroke-width="0.1mm" /><circle r="0.5" cx="73.31454954593181" cy="63.27062845536993" fill="none" stroke="black" stroke-width="0.1mm" /><circle r="0.5" cx="85.90882505651442" cy="56.63182285693698" fill="none" stroke="black" stroke-width="0.1mm" /><circle r="0.5" cx="100.00000000001282" cy="54.19999999999989" fill="none" stroke="black" stroke-width="0.1mm" /><circle r="0.5" cx="114.21478174125994" cy="56.251400250426826" fill="none" stroke="black" stroke-width="0.1mm" /><circle r="0.5" cx="127.15567865592291" cy="62.623414859885024" fill="none" stroke="black" stroke-width="0.1mm" /><circle r="0.5" cx="137.53838853900544" cy="72.72676429363989" fill="none" stroke="black" stroke-width="0.1mm" /><circle r="0.5" cx="144.31923365935842" cy="85.59980806214013" fill="none" stroke="black" stroke-width="0.1mm" /><circle r="0.5" cx="146.80000000000013" cy="100.00000000001351" fill="none" stroke="black" stroke-width="0.1mm" /><circle r="0.5" cx="144.69965626586813" cy="114.52379873563555" fill="none" stroke="black" stroke-width="0.1mm" /><circle r="0.5" cx="138.18560213448953" cy="127.74346390821597" fill="none" stroke="black" stroke-width="0.1mm" /><circle r="0.5" cx="127.86102095865203" cy="138.34740553338082" fill="none" stroke="black" stroke-width="0.1mm" /><circle r="0.5" cx="114.70920893223416" cy="145.27029017565377" fill="none" stroke="black" stroke-width="0.1mm" /><circle r="0.5" cx="99.99999999998577" cy="147.80000000000013" fill="none" stroke="black" stroke-width="0.1mm" /><circle r="0.5" cx="85.16718426998882" cy="145.65071278216305" fill="none" stroke="black" stroke-width="0.1mm" /><circle r="0.5" cx="71.66875083949097" cy="138.99461912886406" fill="none" stroke="black" stroke-width="0.1mm" /><circle r="0.5" cx="60.84357747224381" cy="128.44880621094393" fill="none" stroke="black" stroke-width="0.1mm" /><circle r="0.5" cx="53.77865330805082" cy="115.01822592660842" fill="none" stroke="black" stroke-width="0.1mm" /><circle r="0.5" cx="51.19999999999985" cy="99.99999999998505" fill="none" stroke="black" stroke-width="0.1mm" /><circle r="0.5" cx="53.39823070154199" cy="84.85816727561317" fill="none" stroke="black" stroke-width="0.1mm" /><circle r="0.5" cx="60.19636387676142" cy="71.0809655871979" fill="none" stroke="black" stroke-width="0.1mm" /><circle r="0.5" cx="70.96340853676418" cy="60.03456047786842" fill="none" stroke="black" stroke-width="0.1mm" /><circle r="0.5" cx="84.67275707901734" cy="52.827596791755425" fill="none" stroke="black" stroke-width="0.1mm" /><circle r="0.5" cx="100.00000000001569" cy="50.19999999999983" fill="none" stroke="black" stroke-width="0.1mm" /><circle r="0.5" cx="115.4508497187625" cy="52.44717418524706" fill="none" stroke="black" stroke-width="0.1mm" /><circle r="0.5" cx="129.50681966509518" cy="59.3873468823869" fill="none" stroke="black" stroke-width="0.1mm" /><circle r="0.5" cx="140.77445651650697" cy="70.37562328447231" fill="none" stroke="black" stroke-width="0.1mm" /><circle r="0.5" cx="148.12345972453997" cy="84.36374008464311" fill="none" stroke="black" stroke-width="0.1mm" /><circle r="0.5" cx="150.80000000000018" cy="100.00000000001646" fill="none" stroke="black" stroke-width="0.1mm" /><circle r="0.5" cx="148.50388233104786" cy="115.75986671313817" fill="none" stroke="black" stroke-width="0.1mm" /><circle r="0.5" cx="141.4216701119876" cy="130.0946049173883" fill="none" stroke="black" stroke-width="0.1mm" /><circle r="0.5" cx="130.21216196781955" cy="141.5834735108824" fill="none" stroke="black" stroke-width="0.1mm" /><circle r="0.5" cx="115.9452769097311" cy="149.07451624083538" fill="none" stroke="black" stroke-width="0.1mm" /><circle r="0.5" cx="99.99999999998276" cy="151.80000000000018" fill="none" stroke="black" stroke-width="0.1mm" /><circle r="0.5" cx="83.93111629248614" cy="149.4549388473428" fill="none" stroke="black" stroke-width="0.1mm" /><circle r="0.5" cx="69.31760983031859" cy="142.2306871063621" fill="none" stroke="black" stroke-width="0.1mm" /><circle r="0.5" cx="57.60750949474218" cy="130.7999472201114" fill="none" stroke="black" stroke-width="0.1mm" /><circle r="0.5" cx="49.974427242869204" cy="116.2542939041053" fill="none" stroke="black" stroke-width="0.1mm" /><circle r="0.5" cx="47.19999999999979" cy="99.99999999998197" fill="none" stroke="black" stroke-width="0.1mm" /><circle r="0.5" cx="49.59400463636228" cy="83.62209929811041" fill="none" stroke="black" stroke-width="0.1mm" /><circle r="0.5" cx="56.960295899263414" cy="68.72982457802544" fill="none" stroke="black" stroke-width="0.1mm" /><circle r="0.5" cx="68.6122675275968" cy="56.79849250036674" fill="none" stroke="black" stroke-width="0.1mm" /><circle r="0.5" cx="83.43668910152053" cy="49.02337072657378" fill="none" stroke="black" stroke-width="0.1mm" /><circle r="0.5" cx="100.00000000001884" cy="46.199999999999775" fill="none" stroke="black" stroke-width="0.1mm" /><circle r="0.5" cx="116.68691769626531" cy="48.642948120067366" fill="none" stroke="black" stroke-width="0.1mm" /><circle r="0.5" cx="131.8579606742677" cy="56.15127890488894" fill="none" stroke="black" stroke-width="0.1mm" /><circle r="0.5" cx="144.0105244940087" cy="68.02448227530498" fill="none" stroke="black" stroke-width="0.1mm" /><circle r="0.5" cx="151.92768578972164" cy="83.12767210714635" fill="none" stroke="black" stroke-width="0.1mm" /><circle r="0.5" cx="154.80000000000024" cy="100.00000000001968" fill="none" stroke="black" stroke-width="0.1mm" /><circle r="0.5" cx="152.30810839622754" cy="116.99593469064106" fill="none" stroke="black" stroke-width="0.1mm" /><circle r="0.5" cx="144.65773808948552" cy="132.44574592656085" fill="none" stroke="black" stroke-width="0.1mm" /><circle r="0.5" cx="132.56330297698682" cy="144.81954148838415" fill="none" stroke="black" stroke-width="0.1mm" /><circle r="0.5" cx="117.1813448872278" cy="152.87874230601707" fill="none" stroke="black" stroke-width="0.1mm" /><circle r="0.5" cx="99.99999999997947" cy="155.80000000000024" fill="none" stroke="black" stroke-width="0.1mm" /><circle r="0.5" cx="82.69504831498317" cy="153.25916491252244" fill="none" stroke="black" stroke-width="0.1mm" /><circle r="0.5" cx="66.96646882114597" cy="145.46675508386" fill="none" stroke="black" stroke-width="0.1mm" /><circle r="0.5" cx="54.37144151724038" cy="133.1510882292786" fill="none" stroke="black" stroke-width="0.1mm" /><circle r="0.5" cx="46.170201177687495" cy="117.49036188160191" fill="none" stroke="black" stroke-width="0.1mm" /><circle r="0.5" cx="43.19999999999973" cy="99.9999999999786" fill="none" stroke="black" stroke-width="0.1mm" /><circle r="0.5" cx="45.78977857118266" cy="82.38603132060739" fill="none" stroke="black" stroke-width="0.1mm" /><circle r="0.5" cx="53.724227921765575" cy="66.37868356885278" fill="none" stroke="black" stroke-width="0.1mm" /><circle r="0.5" cx="66.26112651842962" cy="53.5624245228649" fill="none" stroke="black" stroke-width="0.1mm" /><circle r="0.5" cx="82.20062112402397" cy="45.21914466139206" fill="none" stroke="black" stroke-width="0.1mm" /><circle r="0.5" cx="100.0000000000223" cy="42.19999999999972" fill="none" stroke="black" stroke-width="0.1mm" /><circle r="0.5" cx="117.92298567376841" cy="44.83872205488777" fill="none" stroke="black" stroke-width="0.1mm" /><circle r="0.5" cx="134.20910168344042" cy="52.91521092739114" fill="none" stroke="black" stroke-width="0.1mm" /><circle r="0.5" cx="147.24659247151058" cy="65.67334126613787" fill="none" stroke="black" stroke-width="0.1mm" /><circle r="0.5" cx="155.7319118549034" cy="81.89160412964988" fill="none" stroke="black" stroke-width="0.1mm" /><circle r="0.5" cx="158.8000000000003" cy="100.00000000002319" fill="none" stroke="black" stroke-width="0.1mm" /><circle r="0.5" cx="156.1123344614071" cy="118.23200266814422" fill="none" stroke="black" stroke-width="0.1mm" /><circle r="0.5" cx="147.8938060669833" cy="134.79688693573365" fill="none" stroke="black" stroke-width="0.1mm" /><circle r="0.5" cx="134.91444398615386" cy="148.05560946588608" fill="none" stroke="black" stroke-width="0.1mm" /><circle r="0.5" cx="118.4174128647242" cy="156.68296837119885" fill="none" stroke="black" stroke-width="0.1mm" /><circle r="0.5" cx="99.99999999997588" cy="159.8000000000003" fill="none" stroke="black" stroke-width="0.1mm" /><circle r="0.5" cx="81.45898033747994" cy="157.063390977702" fill="none" stroke="black" stroke-width="0.1mm" /><circle r="0.5" cx="64.61532781197312" cy="148.7028230613577" fill="none" stroke="black" stroke-width="0.1mm" /><circle r="0.5" cx="51.13537353973841" cy="135.5022292384456" fill="none" stroke="black" stroke-width="0.1mm" /><circle r="0.5" cx="42.3659751125057" cy="118.72642985909826" fill="none" stroke="black" stroke-width="0.1mm" /><circle r="0.5" cx="39.199999999999676" cy="99.99999999997495" fill="none" stroke="black" stroke-width="0.1mm" /><circle r="0.5" cx="41.985552506003124" cy="81.1499633431041" fill="none" stroke="black" stroke-width="0.1mm" /><circle r="0.5" cx="50.488159944267906" cy="64.02754255967987" fill="none" stroke="black" stroke-width="0.1mm" /><circle r="0.5" cx="63.90998550926269" cy="50.32635654536289" fill="none" stroke="black" stroke-width="0.1mm" /><circle r="0.5" cx="80.96455314652769" cy="41.41491859621024" fill="none" stroke="black" stroke-width="0.1mm" /><circle r="0.5" cx="100.00000000002602" cy="38.19999999999966" fill="none" stroke="black" stroke-width="0.1mm" /><circle r="0.5" cx="119.15905365127178" cy="41.034495989708255" fill="none" stroke="black" stroke-width="0.1mm" /><circle r="0.5" cx="136.5602426926134" cy="49.67914294989351" fill="none" stroke="black" stroke-width="0.1mm" /><circle r="0.5" cx="150.48266044901263" cy="63.32220025697099" fill="none" stroke="black" stroke-width="0.1mm" /><circle r="0.5" cx="159.53613792008522" cy="80.65553615215367" fill="none" stroke="black" stroke-width="0.1mm" /><circle r="0.5" cx="162.80000000000035" cy="100.00000000002699" fill="none" stroke="black" stroke-width="0.1mm" /><circle r="0.5" cx="159.9165605265866" cy="119.46807064564766" fill="none" stroke="black" stroke-width="0.1mm" /><circle r="0.5" cx="151.12987404448086" cy="137.14802794490666" fill="none" stroke="black" stroke-width="0.1mm" /><circle r="0.5" cx="137.2655849953207" cy="151.29167744338818" fill="none" stroke="black" stroke-width="0.1mm" /><circle r="0.5" cx="119.65348084222035" cy="160.4871944363807" fill="none" stroke="black" stroke-width="0.1mm" /><circle r="0.5" cx="99.99999999997202" cy="163.80000000000035" fill="none" stroke="black" stroke-width="0.1mm" /><circle r="0.5" cx="80.22291235997645" cy="160.86761704288148" fill="none" stroke="black" stroke-width="0.1mm" /><circle r="0.5" cx="62.26418680280004" cy="151.93889103885525" fill="none" stroke="black" stroke-width="0.1mm" /><circle r="0.5" cx="47.89930556223628" cy="137.85337024761236" fill="none" stroke="black" stroke-width="0.1mm" /><circle r="0.5" cx="38.56174904732382" cy="119.96249783659434" fill="none" stroke="black" stroke-width="0.1mm" /><circle r="0.5" cx="35.19999999999962" cy="99.99999999997101" fill="none" stroke="black" stroke-width="0.1mm" /><circle r="0.5" cx="38.181326440823675" cy="79.91389536560052" fill="none" stroke="black" stroke-width="0.1mm" /><circle r="0.5" cx="47.2520919667704" cy="61.67640155050674" fill="none" stroke="black" stroke-width="0.1mm" /><circle r="0.5" cx="61.55884450009598" cy="47.090288567860725" fill="none" stroke="black" stroke-width="0.1mm" /><circle r="0.5" cx="79.72848516903169" cy="37.61069253102834" fill="none" stroke="black" stroke-width="0.1mm" /><circle r="0.5" cx="100.00000000003001" cy="34.199999999999605" fill="none" stroke="black" stroke-width="0.1mm" /><circle r="0.5" cx="120.3951216287754" cy="37.23026992452883" fill="none" stroke="black" stroke-width="0.1mm" /><circle r="0.5" cx="138.91138370178658" cy="46.44307497239604" fill="none" stroke="black" stroke-width="0.1mm" /><circle r="0.5" cx="153.71872842651484" cy="60.97105924780434" fill="none" stroke="black" stroke-width="0.1mm" /><circle r="0.5" cx="163.34036398526715" cy="79.41946817465772" fill="none" stroke="black" stroke-width="0.1mm" /><circle r="0.5" cx="166.8000000000004" cy="100.00000000003106" fill="none" stroke="black" stroke-width="0.1mm" /><circle r="0.5" cx="163.720786591766" cy="120.70413862315135" fill="none" stroke="black" stroke-width="0.1mm" /><circle r="0.5" cx="154.3659420219783" cy="139.49916895407992" fill="none" stroke="black" stroke-width="0.1mm" /><circle r="0.5" cx="139.6167260044873" cy="154.52774542089043" fill="none" stroke="black" stroke-width="0.1mm" /><circle r="0.5" cx="120.88954881971623" cy="164.29142050156264" fill="none" stroke="black" stroke-width="0.1mm" /><circle r="0.5" cx="99.99999999996787" cy="167.8000000000004" fill="none" stroke="black" stroke-width="0.1mm" /><circle r="0.5" cx="78.98684438247268" cy="164.67184310806084" fill="none" stroke="black" stroke-width="0.1mm" /><circle r="0.5" cx="59.913045793626736" cy="155.17495901635263" fill="none" stroke="black" stroke-width="0.1mm" /><circle r="0.5" cx="44.66323758473398" cy="140.20451125677891" fill="none" stroke="black" stroke-width="0.1mm" /><circle r="0.5" cx="34.75752298214185" cy="121.19856581409016" fill="none" stroke="black" stroke-width="0.1mm" /><circle r="0.5" cx="31.199999999999562" cy="99.99999999996679" fill="none" stroke="black" stroke-width="0.1mm" /><circle r="0.5" cx="34.37710037564432" cy="78.6778273880967" fill="none" stroke="black" stroke-width="0.1mm" /><circle r="0.5" cx="44.01602398927305" cy="59.32526054133338" fill="none" stroke="black" stroke-width="0.1mm" /><circle r="0.5" cx="59.207703490929504" cy="43.85422059035838" fill="none" stroke="black" stroke-width="0.1mm" /><circle r="0.5" cx="78.49241719153594" cy="33.806466465846356" fill="none" stroke="black" stroke-width="0.1mm" /><circle r="0.5" cx="100.0000000000343" cy="30.199999999999548" fill="none" stroke="black" stroke-width="0.1mm" /><circle r="0.5" cx="121.63118960627929" cy="33.42604385934949" fill="none" stroke="black" stroke-width="0.1mm" /><circle r="0.5" cx="141.26252471096" cy="43.20700699489875" fill="none" stroke="black" stroke-width="0.1mm" /><circle r="0.5" cx="156.95479640401723" cy="58.619918238637915" fill="none" stroke="black" stroke-width="0.1mm" /><circle r="0.5" cx="167.14459005044915" cy="78.18340019716204" fill="none" stroke="black" stroke-width="0.1mm" /><circle r="0.5" cx="170.80000000000047" cy="100.00000000003543" fill="none" stroke="black" stroke-width="0.1mm" /><circle r="0.5" cx="167.52501265694534" cy="121.94020660065532" fill="none" stroke="black" stroke-width="0.1mm" /><circle r="0.5" cx="157.60200999947554" cy="141.85030996325338" fill="none" stroke="black" stroke-width="0.1mm" /><circle r="0.5" cx="141.96786701365366" cy="157.76381339839287" fill="none" stroke="black" stroke-width="0.1mm" /><circle r="0.5" cx="122.12561679721183" cy="168.09564656674468" fill="none" stroke="black" stroke-width="0.1mm" /><circle r="0.5" cx="99.99999999996345" cy="171.80000000000047" fill="none" stroke="black" stroke-width="0.1mm" /><circle r="0.5" cx="77.75077640496865" cy="168.47606917324015" fill="none" stroke="black" stroke-width="0.1mm" /><circle r="0.5" cx="57.561904784453205" cy="158.41102699384984" fill="none" stroke="black" stroke-width="0.1mm" /><circle r="0.5" cx="41.42716960723152" cy="142.5556522659452" fill="none" stroke="black" stroke-width="0.1mm" /><circle r="0.5" cx="30.9532969169598" cy="122.4346337915857" fill="none" stroke="black" stroke-width="0.1mm" /><circle r="0.5" cx="27.199999999999505" cy="99.9999999999623" fill="none" stroke="black" stroke-width="0.1mm" /><circle r="0.5" cx="30.57287431046504" cy="77.4417594105926" fill="none" stroke="black" stroke-width="0.1mm" /><text x="25" y="58.9" font-size="2.25" fill="black" stroke-width="0.01mm">VERICITE</text></svg>