<svg width="80mm" height="80mm" fill="none" stroke="black"><circle r="40mm" cx="40mm" cy="40mm" stroke-width="0.1mm" /><circle r="0.5" cx="39.167706326905716mm" cy="41.81859485365136mm" fill="none" stroke="black" stroke-width="0.1mm" /><circle r="0.5105" cx="38.34542077042302mm" cy="41.28506520186816mm" fill="none" stroke="black" stroke-width="0.1mm" /><circle r="0.5209999999999999" cx="37.84503611485287mm" cy="40.390167468802275mm" fill="none" stroke="black" stroke-width="0.1mm" /><circle r="0.5314999999999999" cx="37.81849533290114mm" cy="39.3201011932457mm" fill="none" stroke="black" stroke-width="0.1mm" /><circle r="0.5419999999999998" cx="38.313664239923874mm" cy="38.32051445249193mm" fill="none" stroke="black" stroke-width="0.1mm" /><circle r="0.5524999999999998" cx="39.25395500419342mm" cy="37.64011825206602mm" fill="none" stroke="black" stroke-width="0.1mm" /><circle r="0.5629999999999997" cx="40.447570298206756mm" cy="37.46927266815187mm" fill="none" stroke="black" stroke-width="0.1mm" /><circle r="0.5734999999999997" cx="41.62612027794255mm" cy="37.888612342163555mm" fill="none" stroke="black" stroke-width="0.1mm" /><circle r="0.5839999999999996" cx="42.504964943127646mm" cy="38.84122882599647mm" fill="none" stroke="black" stroke-width="0.1mm" /><circle r="0.5944999999999996" cx="42.85171649502037mm" cy="40.136886931548474mm" fill="none" stroke="black" stroke-width="0.1mm" /><circle r="0.6049999999999995" cx="42.546467631614185mm" cy="41.489296008569575mm" fill="none" stroke="black" stroke-width="0.1mm" /><circle r="0.6154999999999995" cx="41.618374522493724mm" cy="42.57931946546821mm" fill="none" stroke="black" stroke-width="0.1mm" /><circle r="0.6259999999999994" cx="40.24816158288484mm" cy="43.13017824233383mm" fill="none" stroke="black" stroke-width="0.1mm" /><circle r="0.6364999999999994" cx="38.73390564935227mm" cy="42.97694979723507mm" fill="none" stroke="black" stroke-width="0.1mm" /><circle r="0.6469999999999994" cx="37.426318868261816mm" cy="42.113070143685455mm" fill="none" stroke="black" stroke-width="0.1mm" /><circle r="0.6574999999999993" cx="36.64755133955928mm" cy="40.70122248902129mm" fill="none" stroke="black" stroke-width="0.1mm" /><circle r="0.6679999999999993" cx="36.61230575471635mm" cy="39.04400434076713mm" fill="none" stroke="black" stroke-width="0.1mm" /><circle r="0.6784999999999992" cx="37.37047969584239mm" cy="37.51930494215373mm" fill="none" stroke="black" stroke-width="0.1mm" /><circle r="0.6889999999999992" cx="38.78631525647389mm" cy="36.49413786019302mm" fill="none" stroke="black" stroke-width="0.1mm" /><circle r="0.6994999999999991" cx="40.56095384833697mm" cy="36.23657658772814mm" fill="none" stroke="black" stroke-width="0.1mm" /><circle r="0.7099999999999991" cx="42.29515435729586mm" cy="36.8468640251036mm" fill="none" stroke="black" stroke-width="0.1mm" /><circle r="0.720499999999999" cx="43.57910209245471mm" cy="38.22516107441088mm" fill="none" stroke="black" stroke-width="0.1mm" /><circle r="0.730999999999999" cx="44.08910802555681mm" cy="40.08541402301103mm" fill="none" stroke="black" stroke-width="0.1mm" /><circle r="0.7414999999999989" cx="43.66841307381807mm" cy="42.01419227479421mm" fill="none" stroke="black" stroke-width="0.1mm" /><circle r="0.7519999999999989" cx="42.37208937983579mm" cy="43.56252606644082mm" fill="none" stroke="black" stroke-width="0.1mm" /><circle r="0.7624999999999988" cx="40.46372814857762mm" cy="44.350354146988124mm" fill="none" stroke="black" stroke-width="0.1mm" /><circle r="0.7729999999999988" cx="38.36257708797813mm" cy="44.15929635962453mm" fill="none" stroke="black" stroke-width="0.1mm" /><circle r="0.7834999999999988" cx="36.551542286096876mm" cy="42.991214535171636mm" fill="none" stroke="black" stroke-width="0.1mm" /><circle r="0.7939999999999987" cx="35.46621725975364mm" cy="41.07722516877588mm" fill="none" stroke="black" stroke-width="0.1mm" /><circle r="0.8044999999999987" cx="35.39043672785337mm" cy="38.83297324791724mm" fill="none" stroke="black" stroke-width="0.1mm" /><circle r="0.8149999999999986" cx="36.38332972094293mm" cy="36.76856129679282mm" fill="none" stroke="black" stroke-width="0.1mm" /><circle r="0.8254999999999986" cx="38.25636684133228mm" cy="35.37260673726617mm" fill="none" stroke="black" stroke-width="0.1mm" /><circle r="0.8359999999999985" cx="40.60777832441278mm" cy="34.99678048568984mm" fill="none" stroke="black" stroke-width="0.1mm" /><circle r="0.8464999999999985" cx="42.9084344463538mm" cy="35.76806969914878mm" fill="none" stroke="black" stroke-width="0.1mm" /><circle r="0.8569999999999984" cx="44.6209030341954mm" cy="37.55047858785359mm" fill="none" stroke="black" stroke-width="0.1mm" /><circle r="0.8674999999999984" cx="45.32489783565216mm" cy="39.967014550678115mm" fill="none" stroke="black" stroke-width="0.1mm" /><circle r="0.8779999999999983" cx="44.819856469413544mm" cy="42.478988425598715mm" fill="none" stroke="black" stroke-width="0.1mm" /><circle r="0.8884999999999983" cx="43.17973227317891mm" cy="44.50605455702708mm" fill="none" stroke="black" stroke-width="0.1mm" /><circle r="0.8989999999999982" cx="40.74545644917164mm" cy="45.560251314678894mm" fill="none" stroke="black" stroke-width="0.1mm" /><circle r="0.9094999999999982" cx="38.05467906923826mm" cy="45.36309159686279mm" fill="none" stroke="black" stroke-width="0.1mm" /><circle r="0.9199999999999982" cx="35.72311644986071mm" cy="43.91768644719661mm" fill="none" stroke="black" stroke-width="0.1mm" /><circle r="0.9304999999999981" cx="34.30366754829606mm" cy="41.51750505754167mm" fill="none" stroke="black" stroke-width="0.1mm" /><circle r="0.9409999999999981" cx="34.1555336225407mm" cy="38.687630858809996mm" fill="none" stroke="black" stroke-width="0.1mm" /><circle r="0.951499999999998" cx="35.354272158758164mm" cy="36.07005880131643mm" fill="none" stroke="black" stroke-width="0.1mm" /><circle r="0.961999999999998" cx="37.665113911017535mm" cy="34.27805042389605mm" fill="none" stroke="black" stroke-width="0.1mm" /><circle r="0.9724999999999979" cx="40.58776668204071mm" cy="33.752588109666306mm" fill="none" stroke="black" stroke-width="0.1mm" /><circle r="0.9829999999999979" cx="43.46446500226218mm" cy="34.654498877738355mm" fill="none" stroke="black" stroke-width="0.1mm" /><circle r="0.9934999999999978" cx="45.62799243966895mm" cy="36.81850253826455mm" fill="none" stroke="black" stroke-width="0.1mm" /><circle r="1.0039999999999978" cx="46.55636882645544mm" cy="39.781762030152215mm" fill="none" stroke="black" stroke-width="0.1mm" /><circle r="1.0144999999999977" cx="45.998354407687835mm" cy="42.88249360793254mm" fill="none" stroke="black" stroke-width="0.1mm" /><circle r="1.0249999999999977" cx="44.03968697270159mm" cy="45.407719404941886mm" fill="none" stroke="black" stroke-width="0.1mm" /><circle r="1.0354999999999976" cx="41.09292358415615mm" cy="46.75718454973632mm" fill="none" stroke="black" stroke-width="0.1mm" /><circle r="1.0459999999999976" cx="37.81107787761075mm" cy="46.58575887366938mm" fill="none" stroke="black" stroke-width="0.1mm" /><circle r="1.0564999999999976" cx="34.94300066517433mm" cy="44.890601468896506mm" fill="none" stroke="black" stroke-width="0.1mm" /><circle r="1.0669999999999975" cx="33.16251076802233mm" cy="42.02129686156916mm" fill="none" stroke="black" stroke-width="0.1mm" /><circle r="1.0774999999999975" cx="32.9102634022242mm" cy="38.60850441101724mm" fill="none" stroke="black" stroke-width="0.1mm" /><circle r="1.0879999999999974" cx="34.28542825586271mm" cy="35.42549786521991mm" fill="none" stroke="black" stroke-width="0.1mm" /><circle r="1.0984999999999974" cx="37.01365145978807mm" cy="33.212957389527155mm" fill="none" stroke="black" stroke-width="0.1mm" /><circle r="1.1089999999999973" cx="40.50073956677261mm" cy="32.506712344620134mm" fill="none" stroke="black" stroke-width="0.1mm" /><circle r="1.1194999999999973" cx="43.96183287616046mm" cy="33.50847435024908mm" fill="none" stroke="black" stroke-width="0.1mm" /><circle r="1.1299999999999972" cx="46.598043400941mm" cy="36.030639436974916mm" fill="none" stroke="black" stroke-width="0.1mm" /><circle r="1.1404999999999972" cx="47.78080736971292mm" cy="39.52982803633019mm" fill="none" stroke="black" stroke-width="0.1mm" /><circle r="1.1509999999999971" cx="47.20142121030317mm" cy="43.2236055204996mm" fill="none" stroke="black" stroke-width="0.1mm" /><circle r="1.161499999999997" cx="44.9502588224397mm" cy="46.265394049128744mm" fill="none" stroke="black" stroke-width="0.1mm" /><circle r="1.171999999999997" cx="41.50560984467049mm" cy="47.9384846788056mm" fill="none" stroke="black" stroke-width="0.1mm" /><circle r="1.182499999999997" cx="37.63254655071875mm" cy="47.824690994888314mm" fill="none" stroke="black" stroke-width="0.1mm" /><circle r="1.192999999999997" cx="34.2130856894017mm" cy="45.90800497306769mm" fill="none" stroke="black" stroke-width="0.1mm" /><circle r="1.203499999999997" cx="32.045327171296805mm" cy="42.58774132947847mm" fill="none" stroke="black" stroke-width="0.1mm" /><circle r="1.2139999999999969" cx="31.65731137637647mm" cy="38.596024740509115mm" fill="none" stroke="black" stroke-width="0.1mm" /><circle r="1.2244999999999968" cx="33.17898010431157mm" cy="34.83650190446219mm" fill="none" stroke="black" stroke-width="0.1mm" /><circle r="1.2349999999999968" cx="36.303164035977616mm" cy="32.1797759715523mm" fill="none" stroke="black" stroke-width="0.1mm" /><circle r="1.2454999999999967" cx="40.34661558789274mm" cy="31.261871903306194mm" fill="none" stroke="black" stroke-width="0.1mm" /><circle r="1.2559999999999967" cx="44.399209086635125mm" cy="32.33236937430689mm" fill="none" stroke="black" stroke-width="0.1mm" /><circle r="1.2664999999999966" cx="47.52878030180401mm" cy="35.18837946558876mm" fill="none" stroke="black" stroke-width="0.1mm" /><circle r="1.2769999999999966" cx="48.995506625239045mm" cy="39.21148205138977mm" fill="none" stroke="black" stroke-width="0.1mm" /><circle r="1.2874999999999965" cx="48.426531942956075mm" cy="43.501311813355244mm" fill="none" stroke="black" stroke-width="0.1mm" /><circle r="1.2979999999999965" cx="45.909676763164796mm" cy="47.077013533610774mm" fill="none" stroke="black" stroke-width="0.1mm" /><circle r="1.3084999999999964" cx="41.982899288845566mm" cy="49.101501821693816mm" fill="none" stroke="black" stroke-width="0.1mm" /><circle r="1.3189999999999964" cx="37.519763876630336mm" cy="49.07725337160599mm" fill="none" stroke="black" stroke-width="0.1mm" /><circle r="1.3294999999999964" cx="33.535191378256776mm" cy="46.967874459563305mm" fill="none" stroke="black" stroke-width="0.1mm" /><circle r="1.3399999999999963" cx="30.954665529580755mm" cy="43.21588624149634mm" fill="none" stroke="black" stroke-width="0.1mm" /><circle r="1.3504999999999963" cx="30.399377931975522mm" cy="38.65052569236702mm" fill="none" stroke="black" stroke-width="0.1mm" /><circle r="1.3609999999999962" cx="32.03716801623938mm" cy="34.304615307251055mm" fill="none" stroke="black" stroke-width="0.1mm" /><circle r="1.3714999999999962" cx="35.53492435510106mm" cy="31.180911357440017mm" fill="none" stroke="black" stroke-width="0.1mm" /><circle r="1.3819999999999961" cx="40.12541148457141mm" cy="30.02078800908921mm" fill="none" stroke="black" stroke-width="0.1mm" /><circle r="1.392499999999996" cx="44.77535050128102mm" cy="31.12860481153526mm" fill="none" stroke="black" stroke-width="0.1mm" /><circle r="1.402999999999996" cx="48.41798163345175mm" cy="34.29329471420951mm" fill="none" stroke="black" stroke-width="0.1mm" /><circle r="1.413499999999996" cx="50.197769852213746mm" cy="38.8270912050459mm" fill="none" stroke="black" stroke-width="0.1mm" /><circle r="1.423999999999996" cx="49.671125471396266mm" cy="43.714691389134565mm" fill="none" stroke="black" stroke-width="0.1mm" /><circle r="1.434499999999996" cx="46.9160954400944mm" cy="47.84057707464863mm" fill="none" stroke="black" stroke-width="0.1mm" /><circle r="1.4449999999999958" cx="42.52408042320705mm" cy="50.243608642328304mm" fill="none" stroke="black" stroke-width="0.1mm" /><circle r="1.4554999999999958" cx="37.473313494391505mm" cy="50.34078721869743mm" fill="none" stroke="black" stroke-width="0.1mm" /><circle r="1.4659999999999958" cx="32.911064409397994mm" cy="48.06812197430706mm" fill="none" stroke="black" stroke-width="0.1mm" /><circle r="1.4764999999999957" cx="29.89303999627863mm" cy="43.90468750134717mm" fill="none" stroke="black" stroke-width="0.1mm" /><circle r="1.4869999999999957" cx="29.13917524700225mm" cy="38.77224363790219mm" fill="none" stroke="black" stroke-width="0.1mm" /><circle r="1.4974999999999956" cx="30.862287833297103mm" cy="33.83130148584888mm" fill="none" stroke="black" stroke-width="0.1mm" /><circle r="1.5079999999999956" cx="34.710291815396936mm" cy="30.21872261298435mm" fill="none" stroke="black" stroke-width="0.1mm" /><circle r="1.5184999999999955" cx="39.837242184184696mm" cy="28.786181074522766mm" fill="none" stroke="black" stroke-width="0.1mm" /><circle r="1.5289999999999955" cx="45.08910142461863mm" cy="29.89964620966449mm" fill="none" stroke="black" stroke-width="0.1mm" /><circle r="1.5394999999999954" cx="49.26348275194205mm" cy="33.34703732879309mm" fill="none" stroke="black" stroke-width="0.1mm" /><circle r="1.5499999999999954" cx="51.384913710905224mm" cy="38.37711990731211mm" fill="none" stroke="black" stroke-width="0.1mm" /><circle r="1.5604999999999953" cx="50.93260755868148mm" cy="43.86291560454805mm" fill="none" stroke="black" stroke-width="0.1mm" /><circle r="1.5709999999999953" cx="47.967597393294994mm" cy="48.55415055855105mm" fill="none" stroke="black" stroke-width="0.1mm" /><circle r="1.5814999999999952" cx="43.12834698947161mm" cy="51.362203576483935mm" fill="none" stroke="black" stroke-width="0.1mm" /><circle r="1.5919999999999952" cx="37.49368309874593mm" cy="51.61261278052828mm" fill="none" stroke="black" stroke-width="0.1mm" /><circle r="1.6024999999999952" cx="32.342376085369814mm" cy="49.20659660146378mm" fill="none" stroke="black" stroke-width="0.1mm" /><circle r="1.612999999999995" cx="28.862927006092214mm" cy="44.65301032970812mm" fill="none" stroke="black" stroke-width="0.1mm" /><circle r="1.623499999999995" cx="27.879423989324444mm" cy="38.96131709870783mm" fill="none" stroke="black" stroke-width="0.1mm" /><circle r="1.633999999999995" cx="29.656688173667845mm" cy="33.41794101642518mm" fill="none" stroke="black" stroke-width="0.1mm" /><circle r="1.644499999999995" cx="33.83071091729969mm" cy="29.295519759741936mm" fill="none" stroke="black" stroke-width="0.1mm" /><circle r="1.654999999999995" cx="39.48232075270625mm" cy="27.560767379097616mm" fill="none" stroke="black" stroke-width="0.1mm" /><circle r="1.6654999999999949" cx="45.339395090707725mm" cy="28.648000833979644mm" fill="none" stroke="black" stroke-width="0.1mm" /><circle r="1.6759999999999948" cx="50.0631785745985mm" cy="32.35133756949999mm" fill="none" stroke="black" stroke-width="0.1mm" /><circle r="1.6864999999999948" cx="52.55427155142635mm" cy="37.86212937410899mm" fill="none" stroke="black" stroke-width="0.1mm" /><circle r="1.6969999999999947" cx="52.20835400050257mm" cy="43.945249370878045mm" fill="none" stroke="black" stroke-width="0.1mm" /><circle r="1.7074999999999947" cx="49.06219532855807mm" cy="49.21586896755054mm" fill="none" stroke="black" stroke-width="0.1mm" /><circle r="1.7179999999999946" cx="43.79479885596516mm" cy="52.454714032958215mm" fill="none" stroke="black" stroke-width="0.1mm" /><circle r="1.7284999999999946" cx="37.58126374989433mm" cy="52.890032581511406mm" fill="none" stroke="black" stroke-width="0.1mm" /><circle r="1.7389999999999946" cx="31.830720218174523mm" cy="50.381087026234695mm" fill="none" stroke="black" stroke-width="0.1mm" /><circle r="1.7494999999999945" cx="27.86676221407832mm" cy="45.459630558039905mm" fill="none" stroke="black" stroke-width="0.1mm" /><circle r="1.7599999999999945" cx="26.622850004350326mm" cy="39.21778647806956mm" fill="none" stroke="black" stroke-width="0.1mm" /><circle r="1.7704999999999944" cx="28.422767619464345mm" cy="33.06582986889725mm" fill="none" stroke="black" stroke-width="0.1mm" /><circle r="1.7809999999999944" cx="32.89770958842844mm" cy="28.413560904673968mm" fill="none" stroke="black" stroke-width="0.1mm" /><circle r="1.7914999999999943" cx="39.06095823718183mm" cy="26.347255749568724mm" fill="none" stroke="black" stroke-width="0.1mm" /><circle r="1.8019999999999943" cx="45.525255058889165mm" cy="27.376214651134923mm" fill="none" stroke="black" stroke-width="0.1mm" /><circle r="1.8124999999999942" cx="50.81502621256058mm" cy="31.30800178200499mm" fill="none" stroke="black" stroke-width="0.1mm" /><circle r="1.8229999999999942" cx="53.703196686144224mm" cy="37.282777046165165mm" fill="none" stroke="black" stroke-width="0.1mm" /><circle r="1.8334999999999941" cx="53.49571379537599mm" cy="43.96105215230741mm" fill="none" stroke="black" stroke-width="0.1mm" /><circle r="1.843999999999994" cx="50.197834466449635mm" cy="49.82393873122655mm" fill="none" stroke="black" stroke-width="0.1mm" /><circle r="1.854499999999994" cx="44.522443012789466mm" cy="53.51859956489846mm" fill="none" stroke="black" stroke-width="0.1mm" /><circle r="1.864999999999994" cx="37.736349289043375mm" cy="54.170334698192086mm" fill="none" stroke="black" stroke-width="0.1mm" /><circle r="1.875499999999994" cx="31.37761109767783mm" cy="51.589324165675606mm" fill="none" stroke="black" stroke-width="0.1mm" /><circle r="1.885999999999994" cx="26.906937477567297mm" cy="46.32323602150587mm" fill="none" stroke="black" stroke-width="0.1mm" /><circle r="1.8964999999999939" cx="25.372180994846396mm" cy="39.54159390005343mm" fill="none" stroke="black" stroke-width="0.1mm" /><circle r="1.9069999999999938" cx="27.16297184737023mm" cy="32.77617772861265mm" fill="none" stroke="black" stroke-width="0.1mm" /><circle r="1.9174999999999938" cx="31.912897415771997mm" cy="27.57504942496052mm" fill="none" stroke="black" stroke-width="0.1mm" /><circle r="1.9279999999999937" cx="38.57356340040309mm" cy="25.148344246268984mm" fill="none" stroke="black" stroke-width="0.1mm" /><circle r="1.9384999999999937" cx="45.645796511181956mm" cy="26.08686926840954mm" fill="none" stroke="black" stroke-width="0.1mm" /><circle r="1.9489999999999936" cx="51.5170475367533mm" cy="30.21891028380958mm" fill="none" stroke="black" stroke-width="0.1mm" /><circle r="1.9594999999999936" cx="54.829065642377685mm" cy="36.63981590176147mm" fill="none" stroke="black" stroke-width="0.1mm" /><circle r="1.9699999999999935" cx="54.79201234646549mm" cy="43.90977886101168mm" fill="none" stroke="black" stroke-width="0.1mm" /><circle r="1.9804999999999935" cx="51.372394967156865mm" cy="50.37664000103051mm" fill="none" stroke="black" stroke-width="0.1mm" /><circle r="1.9909999999999934" cx="45.31019466976133mm" cy="54.5513550080135mm" fill="none" stroke="black" stroke-width="0.1mm" /><circle r="2.0014999999999934" cx="37.95913586039091mm" cy="55.45079604951341mm" fill="none" stroke="black" stroke-width="0.1mm" /><circle r="2.0119999999999933" cx="30.98448154597076mm" cy="52.82898386486863mm" fill="none" stroke="black" stroke-width="0.1mm" /><circle r="2.0224999999999933" cx="25.985797884058982mm" cy="47.24242804959467mm" fill="none" stroke="black" stroke-width="0.1mm" /><circle r="2.0329999999999933" cx="24.130143196323033mm" cy="39.932583156485705mm" fill="none" stroke="black" stroke-width="0.1mm" /><circle r="2.043499999999993" cx="25.87979070544338mm" cy="32.55010641163793mm" fill="none" stroke="black" stroke-width="0.1mm" /><circle r="2.053999999999993" cx="30.877963786841278mm" cy="26.782131210901568mm" fill="none" stroke="black" stroke-width="0.1mm" /><circle r="2.064499999999993" cx="38.0206423480025mm" cy="23.966716858812713mm" fill="none" stroke="black" stroke-width="0.1mm" /><circle r="2.074999999999993" cx="45.70022744995762mm" cy="24.782578831524994mm" fill="none" stroke="black" stroke-width="0.1mm" /><circle r="2.085499999999993" cx="52.16733167461181mm" cy="29.08601516768556mm" fill="none" stroke="black" stroke-width="0.1mm" /><circle r="2.095999999999993" cx="55.92928139203566mm" cy="35.93409366397259mm" fill="none" stroke="black" stroke-width="0.1mm" /><circle r="2.106499999999993" cx="56.09455469176266mm" cy="43.79098064804636mm" fill="none" stroke="black" stroke-width="0.1mm" /><circle r="2.116999999999993" cx="52.58369442868064mm" cy="50.872328845541475mm" fill="none" stroke="black" stroke-width="0.1mm" /><circle r="2.127499999999993" cx="46.15687845604841mm" cy="55.55051358243349mm" fill="none" stroke="black" stroke-width="0.1mm" /><circle r="2.137999999999993" cx="38.249721540090704mm" cy="56.728685701894776mm" fill="none" stroke="black" stroke-width="0.1mm" /><circle r="2.1484999999999927" cx="30.652681059726977mm" cy="54.09768965571361mm" fill="none" stroke="black" stroke-width="0.1mm" /><circle r="2.1589999999999927" cx="25.10563882816856mm" cy="48.215723052966254mm" fill="none" stroke="black" stroke-width="0.1mm" /><circle r="2.1694999999999927" cx="22.89945805139699mm" cy="40.39049976193346mm" fill="none" stroke="black" stroke-width="0.1mm" /><circle r="2.1799999999999926" cx="24.57575523905333mm" cy="32.38864837532712mm" fill="none" stroke="black" stroke-width="0.1mm" /><circle r="2.1904999999999926" cx="29.794675941649626mm" cy="26.03689196976346mm" fill="none" stroke="black" stroke-width="0.1mm" /><circle r="2.2009999999999925" cx="37.40279804829654mm" cy="22.80504021458413mm" fill="none" stroke="black" stroke-width="0.1mm" /><circle r="2.2114999999999925" cx="45.687849794611445mm" cy="23.465986884185085mm" fill="none" stroke="black" stroke-width="0.1mm" /><circle r="2.2219999999999924" cx="52.764037434963mm" cy="27.9113380244601mm" fill="none" stroke="black" stroke-width="0.1mm" /><circle r="2.2324999999999924" cx="57.00127655487063mm" cy="35.16655190316403mm" fill="none" stroke="black" stroke-width="0.1mm" /><circle r="2.2429999999999923" cx="57.400628759327404mm" cy="43.60430558916266mm" fill="none" stroke="black" stroke-width="0.1mm" /><circle r="2.2534999999999923" cx="53.82949045584993mm" cy="51.30943936415757mm" fill="none" stroke="black" stroke-width="0.1mm" /><circle r="2.2639999999999922" cx="47.06122972032542mm" cy="56.513649955015815mm" fill="none" stroke="black" stroke-width="0.1mm" /><circle r="2.274499999999992" cx="38.60810607263519mm" cy="58.001268185740855mm" fill="none" stroke="black" stroke-width="0.1mm" /><circle r="2.284999999999992" cx="30.383474042509338mm" cy="55.39301557554299mm" fill="none" stroke="black" stroke-width="0.1mm" /><circle r="2.295499999999992" cx="24.268703140648288mm" cy="49.24155420494582mm" fill="none" stroke="black" stroke-width="0.1mm" /><circle r="2.305999999999992" cx="21.68283888654192mm" cy="40.91499111668909mm" fill="none" stroke="black" stroke-width="0.1mm" /><circle r="2.316499999999992" cx="23.253434668975483mm" cy="32.2927453257513mm" fill="none" stroke="black" stroke-width="0.1mm" /><circle r="2.326999999999992" cx="28.664876937469543mm" cy="25.341354593370816mm" fill="none" stroke="black" stroke-width="0.1mm" /><circle r="2.337499999999992" cx="36.72072974530909mm" cy="21.66596030339467mm" fill="none" stroke="black" stroke-width="0.1mm" /><circle r="2.347999999999992" cx="45.60806037604797mm" cy="22.139763192538535mm" fill="none" stroke="black" stroke-width="0.1mm" /><circle r="2.358499999999992" cx="53.30539565853542mm" cy="26.696967587432276mm" fill="none" stroke="black" stroke-width="0.1mm" /><circle r="2.368999999999992" cx="58.0425165720458mm" cy="34.33822503560472mm" fill="none" stroke="black" stroke-width="0.1mm" /><circle r="2.3794999999999917" cx="58.70750864426341mm" cy="43.349499264787205mm" fill="none" stroke="black" stroke-width="0.1mm" /><circle r="2.3899999999999917" cx="55.10748329756415mm" cy="51.686485717007514mm" fill="none" stroke="black" stroke-width="0.1mm" /><circle r="2.4004999999999916" cx="48.02189593017618mm" cy="57.438383258932674mm" fill="none" stroke="black" stroke-width="0.1mm" /><circle r="2.4109999999999916" cx="39.03419071499014mm" cy="59.26580681998522mm" fill="none" stroke="black" stroke-width="0.1mm" /><circle r="2.4214999999999915" cx="30.17803812889258mm" cy="56.712489042704334mm" fill="none" stroke="black" stroke-width="0.1mm" /><circle r="2.4319999999999915" cx="23.47717827246127mm" cy="50.31827321599764mm" fill="none" stroke="black" stroke-width="0.1mm" /><circle r="2.4424999999999915" cx="20.48298759463749mm" cy="41.50560677765681mm" fill="none" stroke="black" stroke-width="0.1mm" /><circle r="2.4529999999999914" cx="21.915433324713057mm" cy="32.26324692347616mm" fill="none" stroke="black" stroke-width="0.1mm" /><circle r="2.4634999999999914" cx="27.490483528400446mm" cy="24.697476592183246mm" fill="none" stroke="black" stroke-width="0.1mm" /><circle r="2.4739999999999913" cx="35.975232265511735mm" cy="20.552099221678905mm" fill="none" stroke="black" stroke-width="0.1mm" /><circle r="2.4844999999999913" cx="45.460351827897696mm" cy="20.80660053780013mm" fill="none" stroke="black" stroke-width="0.1mm" /><circle r="2.4949999999999912" cx="53.78971149164028mm" cy="25.445057300788715mm" fill="none" stroke="black" stroke-width="0.1mm" /><circle r="2.505499999999991" cx="59.050502846742376mm" cy="33.45023921915766mm" fill="none" stroke="black" stroke-width="0.1mm" /><circle r="2.515999999999991" cx="60.01245790408108mm" cy="43.02640523350437mm" fill="none" stroke="black" stroke-width="0.1mm" /><circle r="2.526499999999991" cx="56.41531854960141mm" cy="52.002064068947135mm" fill="none" stroke="black" stroke-width="0.1mm" /><circle r="2.536999999999991" cx="49.03743816936896mm" cy="58.32238006741572mm" fill="none" stroke="black" stroke-width="0.1mm" /><circle r="2.547499999999991" cx="39.527778188710116mm" cy="60.51956704126434mm" fill="none" stroke="black" stroke-width="0.1mm" /><circle r="2.557999999999991" cx="30.03746260217995mm" cy="58.05359378619771mm" fill="none" stroke="black" stroke-width="0.1mm" /><circle r="2.568499999999991" cx="22.73319353683092mm" cy="51.4441521994188mm" fill="none" stroke="black" stroke-width="0.1mm" /><circle r="2.578999999999991" cx="19.302591326723203mm" cy="42.16179883693328mm" fill="none" stroke="black" stroke-width="0.1mm" /><circle r="2.589499999999991" cx="20.56438753616265mm" cy="32.30090958907938mm" fill="none" stroke="black" stroke-width="0.1mm" /><circle r="2.5999999999999908" cx="26.27348396186602mm" cy="24.10714759853191mm" fill="none" stroke="black" stroke-width="0.1mm" /><circle r="2.6104999999999907" cx="35.167195218921684mm" cy="19.46605193958098mm" fill="none" stroke="black" stroke-width="0.1mm" /><circle r="2.6209999999999907" cx="45.24431337348231mm" cy="19.469211480298327mm" fill="none" stroke="black" stroke-width="0.1mm" /><circle r="2.6314999999999906" cx="54.21536658064052mm" cy="24.15782281446114mm" fill="none" stroke="black" stroke-width="0.1mm" /><circle r="2.6419999999999906" cx="60.022775848563896mm" cy="32.50381114711178mm" fill="none" stroke="black" stroke-width="0.1mm" /><circle r="2.6524999999999905" cx="61.312732869080705mm" cy="42.634965398483686mm" fill="none" stroke="black" stroke-width="0.1mm" /><circle r="2.6629999999999905" cx="57.75058992026544mm" cy="52.254854445588904mm" fill="none" stroke="black" stroke-width="0.1mm" /><circle r="2.6734999999999904" cx="50.10633273153685mm" cy="59.16335731857719mm" fill="none" stroke="black" stroke-width="0.1mm" /><circle r="2.6839999999999904" cx="40.0885727401578mm" cy="61.75981973431077mm" fill="none" stroke="black" stroke-width="0.1mm" /><circle r="2.6944999999999903" cx="29.962746907401023mm" cy="59.41377282640114mm" fill="none" stroke="black" stroke-width="0.1mm" /><circle r="2.7049999999999903" cx="22.038817412134645mm" cy="52.61738562640302mm" fill="none" stroke="black" stroke-width="0.1mm" /><circle r="2.7154999999999903" cx="18.14431919635584mm" cy="42.88292240776946mm" fill="none" stroke="black" stroke-width="0.1mm" /><circle r="2.72599999999999" cx="19.202962486781583mm" cy="32.40639540970266mm" fill="none" stroke="black" stroke-width="0.1mm" /><circle r="2.73649999999999" cx="25.01593569424215mm" cy="23.57218694162512mm" fill="none" stroke="black" stroke-width="0.1mm" /><circle r="2.74699999999999" cx="34.297602095301514mm" cy="18.4103830942629mm" fill="none" stroke="black" stroke-width="0.1mm" /><circle r="2.75749999999999" cx="44.95963150764721mm" cy="18.130325098247305mm" fill="none" stroke="black" stroke-width="0.1mm" /><circle r="2.76799999999999" cx="54.58082118490083mm" cy="22.837539407941943mm" fill="none" stroke="black" stroke-width="0.1mm" /><circle r="2.77849999999999" cx="60.95691817852837mm" cy="31.500246741318563mm" fill="none" stroke="black" stroke-width="0.1mm" /><circle r="2.78899999999999" cx="62.605585964372736mm" cy="42.17522026639903mm" fill="none" stroke="black" stroke-width="0.1mm" /><circle r="2.79949999999999" cx="59.11084205608139mm" cy="52.44362249939741mm" fill="none" stroke="black" stroke-width="0.1mm" /><circle r="2.80999999999999" cx="51.2269728086994mm" cy="59.959085188272596mm" fill="none" stroke="black" stroke-width="0.1mm" /><circle r="2.82049999999999" cx="40.71618030884512mm" cy="62.98384456015183mm" fill="none" stroke="black" stroke-width="0.1mm" /><circle r="2.8309999999999897" cx="29.954799261185837mm" cy="60.79043150386556mm" fill="none" stroke="black" stroke-width="0.1mm" /><circle r="2.8414999999999897" cx="21.39605490845221mm" cy="53.83609236853647mm" fill="none" stroke="black" stroke-width="0.1mm" /><circle r="2.8519999999999897" cx="17.010818999958865mm" cy="43.668236217495526mm" fill="none" stroke="black" stroke-width="0.1mm" /><circle r="2.8624999999999896" cx="17.833849031454477mm" cy="32.58027114783521mm" fill="none" stroke="black" stroke-width="0.1mm" /><circle r="2.8729999999999896" cx="23.719963027896497mm" cy="23.094341296863316mm" fill="none" stroke="black" stroke-width="0.1mm" /><circle r="2.8834999999999895" cx="33.367529256307904mm" cy="17.387623812742135mm" fill="none" stroke="black" stroke-width="0.1mm" /><circle r="2.8939999999999895" cx="44.60609057268205mm" cy="16.792683704567487mm" fill="none" stroke="black" stroke-width="0.1mm" /><circle r="2.9044999999999894" cx="54.88461620599021mm" cy="21.486539345644438mm" fill="none" stroke="black" stroke-width="0.1mm" /><circle r="2.9149999999999894" cx="61.85055759147577mm" cy="30.440939745895598mm" fill="none" stroke="black" stroke-width="0.1mm" /><circle r="2.9254999999999893" cx="63.88826904013821mm" cy="41.64730909849117mm" fill="none" stroke="black" stroke-width="0.1mm" /><circle r="2.9359999999999893" cx="60.4935734246901mm" cy="52.56722118397036mm" fill="none" stroke="black" stroke-width="0.1mm" /><circle r="2.9464999999999892" cx="52.39767027296868mm" cy="60.707389908019465mm" fill="none" stroke="black" stroke-width="0.1mm" /><circle r="2.956999999999989" cx="41.410108803808214mm" cy="64.1889332787004mm" fill="none" stroke="black" stroke-width="0.1mm" /><circle r="2.967499999999989" cx="30.014435360016527mm" cy="62.18094055311247mm" fill="none" stroke="black" stroke-width="0.1mm" /><circle r="2.977999999999989" cx="20.806845000518646mm" cy="55.09831782570103mm" fill="none" stroke="black" stroke-width="0.1mm" /><circle r="2.988499999999989" cx="15.90471395653833mm" cy="44.51690330688611mm" fill="none" stroke="black" stroke-width="0.1mm" /><circle r="2.998999999999989" cx="16.459760482292726mm" cy="32.823007353426505mm" fill="none" stroke="black" stroke-width="0.1mm" /><circle r="3.009499999999989" cx="22.387754671998767mm" cy="22.675282411932482mm" fill="none" stroke="black" stroke-width="0.1mm" /><circle r="3.019999999999989" cx="32.378144824538595mm" cy="16.400268567538966mm" fill="none" stroke="black" stroke-width="0.1mm" /><circle r="3.030499999999989" cx="44.18357322765355mm" cy="15.4590395451022mm" fill="none" stroke="black" stroke-width="0.1mm" /><circle r="3.040999999999989" cx="55.12537513098897mm" cy="20.10720916646291mm" fill="none" stroke="black" stroke-width="0.1mm" /><circle r="3.0514999999999888" cx="62.7013699727582mm" cy="29.327370222857482mm" fill="none" stroke="black" stroke-width="0.1mm" /><circle r="3.0619999999999887" cx="65.15803670672295mm" cy="41.051469953530315mm" fill="none" stroke="black" stroke-width="0.1mm" /><circle r="3.0724999999999887" cx="61.8962392520334mm" cy="52.62459233471357mm" fill="none" stroke="black" stroke-width="0.1mm" /><circle r="3.0829999999999886" cx="53.616657549690714mm" cy="61.40615652503848mm" fill="none" stroke="black" stroke-width="0.1mm" /><circle r="3.0934999999999886" cx="42.169768487822935mm" cy="65.37239306232755mm" fill="none" stroke="black" stroke-width="0.1mm" /><circle r="3.1039999999999885" cx="30.142377188262607mm" cy="63.58263921832141mm" fill="none" stroke="black" stroke-width="0.1mm" /><circle r="3.1144999999999885" cx="20.273058129768312mm" cy="56.40203613727566mm" fill="none" stroke="black" stroke-width="0.1mm" /><circle r="3.1249999999999885" cx="14.828599470123002mm" cy="45.42799183533879mm" fill="none" stroke="black" stroke-width="0.1mm" /><circle r="3.1354999999999884" cx="15.083429365633744mm" cy="33.13497758032548mm" fill="none" stroke="black" stroke-width="0.1mm" /><circle r="3.1459999999999884" cx="21.021561229536662mm" cy="22.3166049120716mm" fill="none" stroke="black" stroke-width="0.1mm" /><circle r="3.1564999999999883" cx="31.330707470528026mm" cy="15.450772068383948mm" fill="none" stroke="black" stroke-width="0.1mm" /><circle r="3.1669999999999883" cx="43.69206081057799mm" cy="14.13215148159804mm" fill="none" stroke="black" stroke-width="0.1mm" /><circle r="3.1774999999999882" cx="55.30180588783484mm" cy="18.70198691025336mm" fill="none" stroke="black" stroke-width="0.1mm" /><circle r="3.187999999999988" cx="63.50708226612289mm" cy="28.16110295113069mm" fill="none" stroke="black" stroke-width="0.1mm" /><circle r="3.198499999999988" cx="66.412149671152mm" cy="40.388039622540795mm" fill="none" stroke="black" stroke-width="0.1mm" /><circle r="3.208999999999988" cx="63.31625451086785mm" cy="52.61476815420841mm" fill="none" stroke="black" stroke-width="0.1mm" /><circle r="3.219499999999988" cx="54.882089580182985mm" cy="62.05333160153823mm" fill="none" stroke="black" stroke-width="0.1mm" /><circle r="3.229999999999988" cx="42.99447246916179mm" cy="66.5315497970139mm" fill="none" stroke="black" stroke-width="0.1mm" /><circle r="3.240499999999988" cx="30.33925192730928mm" cy="64.99283840775189mm" fill="none" stroke="black" stroke-width="0.1mm" /><circle r="3.250999999999988" cx="19.796493778091122mm" cy="57.74515247444454mm" fill="none" stroke="black" stroke-width="0.1mm" /><circle r="3.261499999999988" cx="13.785039918266222mm" cy="46.40047599113535mm" fill="none" stroke="black" stroke-width="0.1mm" /><circle r="3.271999999999988" cx="13.707604153537048mm" cy="33.51645770794289mm" fill="none" stroke="black" stroke-width="0.1mm" /><circle r="3.2824999999999878" cx="19.623692613045765mm" cy="22.01982418683428mm" fill="none" stroke="black" stroke-width="0.1mm" /><circle r="3.2929999999999877" cx="30.22656509884225mm" cy="14.541546193202798mm" fill="none" stroke="black" stroke-width="0.1mm" /><circle r="3.3034999999999877" cx="43.13163359296516mm" cy="12.814781662833614mm" fill="none" stroke="black" stroke-width="0.1mm" /><circle r="3.3139999999999876" cx="55.412702610727024mm" cy="17.273359284019037mm" fill="none" stroke="black" stroke-width="0.1mm" /><circle r="3.3244999999999876" cx="64.26547534974355mm" cy="26.943785730504295mm" fill="none" stroke="black" stroke-width="0.1mm" /><circle r="3.3349999999999875" cx="67.64787807164736mm" cy="39.65745345525519mm" fill="none" stroke="black" stroke-width="0.1mm" /><circle r="3.3454999999999875" cx="64.75099695759266mm" cy="52.53687260066218mm" fill="none" stroke="black" stroke-width="0.1mm" /><circle r="3.3559999999999874" cx="56.19204587214028mm" cy="62.646925850421724mm" fill="none" stroke="black" stroke-width="0.1mm" /><circle r="3.3664999999999874" cx="43.883437300488914mm" cy="67.6637513676863mm" fill="none" stroke="black" stroke-width="0.1mm" /><circle r="3.3769999999999873" cx="30.60559096699084mm" cy="66.4088238837043mm" fill="none" stroke="black" stroke-width="0.1mm" /><circle r="3.3874999999999873" cx="19.378878115851908mm" cy="59.125505411337585mm" fill="none" stroke="black" stroke-width="0.1mm" /><circle r="3.3979999999999873" cx="12.776565469923273mm" cy="47.43323700594975mm" fill="none" stroke="black" stroke-width="0.1mm" /><circle r="3.408499999999987" cx="12.335045973101703mm" cy="33.96762536892825mm" fill="none" stroke="black" stroke-width="0.1mm" /><circle r="3.418999999999987" cx="18.19651539163475mm" cy="21.786374360584492mm" fill="none" stroke="black" stroke-width="0.1mm" /><circle r="3.429499999999987" cx="29.067153434525252mm" cy="13.674956961558806mm" fill="none" stroke="black" stroke-width="0.1mm" /><circle r="3.439999999999987" cx="42.502470926372595mm" cy="11.50969218729545mm" fill="none" stroke="black" stroke-width="0.1mm" /><circle r="3.450499999999987" cx="55.456947313695885mm" cy="15.823858770646968mm" fill="none" stroke="black" stroke-width="0.1mm" /><circle r="3.460999999999987" cx="64.97438685740562mm" cy="25.677147592164488mm" fill="none" stroke="black" stroke-width="0.1mm" /><circle r="3.471499999999987" cx="68.8625048067319mm" cy="38.860245078373694mm" fill="none" stroke="black" stroke-width="0.1mm" /><circle r="3.481999999999987" cx="66.19781021432715mm" cy="52.39012267792736mm" fill="none" stroke="black" stroke-width="0.1mm" /><circle r="3.492499999999987" cx="57.54453263569199mm" cy="63.18501670465502mm" fill="none" stroke="black" stroke-width="0.1mm" /><circle r="3.502999999999987" cx="44.83578368438147mm" cy="68.76637092435999mm" fill="none" stroke="black" stroke-width="0.1mm" /><circle r="3.5134999999999867" cx="30.941829020439364mm" cy="67.82785948478681mm" fill="none" stroke="black" stroke-width="0.1mm" /><circle r="3.5239999999999867" cx="19.021861726658305mm" cy="60.540869372656786mm" fill="none" stroke="black" stroke-width="0.1mm" /><circle r="3.5344999999999867" cx="11.805668935993463mm" cy="48.52506427267205mm" fill="none" stroke="black" stroke-width="0.1mm" /><circle r="3.5449999999999866" cx="10.968525296951977mm" cy="34.48855948355821mm" fill="none" stroke="black" stroke-width="0.1mm" /><circle r="3.5554999999999866" cx="16.74245007195072mm" cy="21.617606348892206mm" fill="none" stroke="black" stroke-width="0.1mm" /><circle r="3.5659999999999865" cx="27.853994511239694mm" cy="12.853321553696524mm" fill="none" stroke="black" stroke-width="0.1mm" /><circle r="3.5764999999999865" cx="41.80485128070651mm" cy="10.219641760809438mm" fill="none" stroke="black" stroke-width="0.1mm" /><circle r="3.5869999999999864" cx="55.43351147052752mm" cy="14.356060683095347mm" fill="none" stroke="black" stroke-width="0.1mm" /><circle r="3.5974999999999864" cx="65.63171394189862mm" cy="24.3629969175461mm" fill="none" stroke="black" stroke-width="0.1mm" /><circle r="3.6079999999999863" cx="70.05332885550483mm" cy="37.99704600580207mm" fill="none" stroke="black" stroke-width="0.1mm" /><circle r="3.6184999999999863" cx="67.65400689313023mm" cy="52.17382962566414mm" fill="none" stroke="black" stroke-width="0.1mm" /><circle r="3.6289999999999862" cx="58.9374850030158mm" cy="63.66575081759596mm" fill="none" stroke="black" stroke-width="0.1mm" /><circle r="3.639499999999986" cx="45.85053728487007mm" cy="69.83681012572117mm" fill="none" stroke="black" stroke-width="0.1mm" /><circle r="3.649999999999986" cx="31.348303343366705mm" cy="69.24719037722414mm" fill="none" stroke="black" stroke-width="0.1mm" /><circle r="3.660499999999986" cx="18.727017411280862mm" cy="61.98895715535515mm" fill="none" stroke="black" stroke-width="0.1mm" /><circle r="3.670999999999986" cx="10.874802655783451mm" cy="49.67465656550316mm" fill="none" stroke="black" stroke-width="0.1mm" /><circle r="3.681499999999986" cx="9.61081861826191mm" cy="35.079239901416116mm" fill="none" stroke="black" stroke-width="0.1mm" /><circle r="3.691999999999986" cx="15.263968315804824mm" cy="21.514786002902632mm" fill="none" stroke="black" stroke-width="0.1mm" /><circle r="3.702499999999986" cx="26.58869506255435mm" cy="12.078905378283647mm" fill="none" stroke="black" stroke-width="0.1mm" /><circle r="3.712999999999986" cx="41.039152174124276mm" cy="8.947382352545471mm" fill="none" stroke="black" stroke-width="0.1mm" /><circle r="3.723499999999986" cx="55.34145749933353mm" cy="12.872580166994602mm" fill="none" stroke="black" stroke-width="0.1mm" /><circle r="3.7339999999999858" cx="66.23541597772908mm" cy="23.00321946733707mm" fill="none" stroke="black" stroke-width="0.1mm" /><circle r="3.7444999999999857" cx="71.21766858568023mm" cy="37.068585141160376mm" fill="none" stroke="black" stroke-width="0.1mm" /><circle r="3.7549999999999857" cx="69.11687175920497mm" cy="51.887400008328285mm" fill="none" stroke="black" stroke-width="0.1mm" /><circle r="3.7654999999999856" cx="60.368769329318106mm" cy="64.08734649165453mm" fill="none" stroke="black" stroke-width="0.1mm" /><circle r="3.7759999999999856" cx="46.92662964427313mm" cy="70.87250235680723mm" fill="none" stroke="black" stroke-width="0.1mm" /><circle r="3.7864999999999855" cx="31.82525305868364mm" cy="70.66404633190848mm" fill="none" stroke="black" stroke-width="0.1mm" /><circle r="3.7969999999999855" cx="18.495838073062163mm" cy="63.467422521871214mm" fill="none" stroke="black" stroke-width="0.1mm" /><circle r="3.8074999999999855" cx="9.986375422618984mm" cy="50.88062336118759mm" fill="none" stroke="black" stroke-width="0.1mm" /><circle r="3.8179999999999854" cx="8.26470511370389mm" cy="35.73954715085133mm" fill="none" stroke="black" stroke-width="0.1mm" /><circle r="3.8284999999999854" cx="13.763590097233422mm" cy="21.479092343678104mm" fill="none" stroke="black" stroke-width="0.1mm" /><circle r="3.8389999999999853" cx="25.27294481791388mm" cy="11.35391919190722mm" fill="none" stroke="black" stroke-width="0.1mm" /><circle r="3.8494999999999853" cx="40.20584999448586mm" cy="7.695655852815072mm" fill="none" stroke="black" stroke-width="0.1mm" /><circle r="3.859999999999985" cx="55.17994015013735mm" cy="11.37606915466992mm" fill="none" stroke="black" stroke-width="0.1mm" /><circle r="3.870499999999985" cx="66.78351720031853mm" cy="21.599776322548895mm" fill="none" stroke="black" stroke-width="0.1mm" /><circle r="3.880999999999985" cx="72.35286504599001mm" cy="36.075688172947025mm" fill="none" stroke="black" stroke-width="0.1mm" /><circle r="3.891499999999985" cx="70.58366492989686mm" cy="51.530336701752816mm" fill="none" stroke="black" stroke-width="0.1mm" /><circle r="3.901999999999985" cx="61.83618557292186mm" cy="64.44809603271611mm" fill="none" stroke="black" stroke-width="0.1mm" /><circle r="3.912499999999985" cx="48.06289920451002mm" cy="71.87091591746152mm" fill="none" stroke="black" stroke-width="0.1mm" /><circle r="3.922999999999985" cx="32.37281858727072mm" cy="72.07564502386987mm" fill="none" stroke="black" stroke-width="0.1mm" /><circle r="3.933499999999985" cx="18.329734687068864mm" cy="64.97386286234396mm" fill="none" stroke="black" stroke-width="0.1mm" /><circle r="3.943999999999985" cx="9.142749451794515mm" cy="52.14148626014386mm" fill="none" stroke="black" stroke-width="0.1mm" /><circle r="3.954499999999985" cx="6.9329632977229mm" cy="36.469262296594515mm" fill="none" stroke="black" stroke-width="0.1mm" /><circle r="3.9649999999999848" cx="12.243880801836507mm" cy="21.511615888419843mm" fill="none" stroke="black" stroke-width="0.1mm" /><circle r="3.9754999999999847" cx="23.90851470492805mm" cy="10.680516273329903mm" fill="none" stroke="black" stroke-width="0.1mm" /><circle r="3.9859999999999847" cx="39.30551971241541mm" cy="6.467190736084369mm" fill="none" stroke="black" stroke-width="0.1mm" /><circle r="3.9964999999999846" cx="54.948207793947965mm" cy="9.869213273647457mm" fill="none" stroke="black" stroke-width="0.1mm" /><circle r="4.006999999999985" cx="67.27410927891437mm" cy="20.154701739660684mm" fill="none" stroke="black" stroke-width="0.1mm" /><circle r="4.017499999999985" cx="73.4562852395645mm" cy="35.019276862855335mm" fill="none" stroke="black" stroke-width="0.1mm" /><circle r="4.027999999999985" cx="72.05162510625328mm" cy="51.102239776197585mm" fill="none" stroke="black" stroke-width="0.1mm" /><circle r="4.038499999999986" cx="63.33746975211666mm" cy="64.74636802783448mm" fill="none" stroke="black" stroke-width="0.1mm" /><circle r="4.048999999999986" cx="49.25809243196775mm" cy="72.82955717826744mm" fill="none" stroke="black" stroke-width="0.1mm" /><circle r="4.059499999999987" cx="32.99104118560493mm" cy="73.47919535081604mm" fill="none" stroke="black" stroke-width="0.1mm" /><circle r="4.069999999999987" cx="18.230034355162584mm" cy="66.505821923166mm" fill="none" stroke="black" stroke-width="0.1mm" /><circle r="4.080499999999987" cx="8.34623739401232mm" cy="53.45568050615667mm" fill="none" stroke="black" stroke-width="0.1mm" /><circle r="4.090999999999988" cx="5.618367671548597mm" cy="37.2680669058021mm" fill="none" stroke="black" stroke-width="0.1mm" /><circle r="4.101499999999988" cx="10.707448271292119mm" cy="21.61335707039044mm" fill="none" stroke="black" stroke-width="0.1mm" /><circle r="4.1119999999999886" cx="22.49725495970794mm" cy="10.060789655461523mm" fill="none" stroke="black" stroke-width="0.1mm" /><circle r="4.122499999999989" cx="38.33883448613726mm" cy="5.264698732621575mm" fill="none" stroke="black" stroke-width="0.1mm" /><circle r="4.132999999999989" cx="54.64560361188493mm" cy="8.354728712751868mm" fill="none" stroke="black" stroke-width="0.1mm" /><circle r="4.14349999999999" cx="67.7053538205025mm" cy="18.670100921927546mm" fill="none" stroke="black" stroke-width="0.1mm" /><circle r="4.15399999999999" cx="74.52532537491962mm" cy="33.900368227842065mm" fill="none" stroke="black" stroke-width="0.1mm" /><circle r="4.1644999999999905" cx="73.51797283387843mm" cy="50.60280727483883mm" fill="none" stroke="black" stroke-width="0.1mm" /><circle r="4.174999999999991" cx="64.87029647635116mm" cy="64.9806095437718mm" fill="none" stroke="black" stroke-width="0.1mm" /><g transform="translate(135,285) scale(0.4)" fill="black" stroke="none">
<path
         d="m 6.909225,12.189723 h 3.199798 l 3.274213,9.11157 3.265944,-9.11157 h 3.199798 l -4.572322,12.344441 h -3.795109 z"
         style="font-size:16.9333px;stroke-width:0.265"
         id="path428" />
      <path
         d="M 27.827804,22.285211 H 22.85034 l -0.78548,2.248953 h -3.199799 l 4.572322,-12.344441 h 3.79511 l 4.572321,12.344441 h -3.199798 z m -4.183716,-2.290295 h 3.381699 l -1.686715,-4.911319 z"
         style="font-size:16.9333px;stroke-width:0.265"
         id="path430" />
      <path
         d="m 37.964634,17.66328 q 1.000454,0 1.430401,-0.37207 0.438215,-0.37207 0.438215,-1.223696 0,-0.843357 -0.438215,-1.207159 -0.429947,-0.363801 -1.430401,-0.363801 h -1.33945 v 3.166726 z m -1.33945,2.199344 v 4.67154 H 33.441922 V 12.189723 h 4.861709 q 2.439123,0 3.571868,0.818553 1.141013,0.818553 1.141013,2.58795 0,1.223696 -0.595311,2.009176 -0.587043,0.78548 -1.777666,1.15755 0.653189,0.148828 1.165818,0.677993 0.520898,0.520898 1.050063,1.587497 l 1.728057,3.505722 h -3.389967 l -1.504815,-3.067507 q -0.454752,-0.926039 -0.92604,-1.265036 -0.46302,-0.338997 -1.240232,-0.338997 z"
         style="font-size:16.9333px;stroke-width:0.265"
         id="path432" />
      <path
         d="m 46.480893,12.189723 h 3.183262 v 12.344441 h -3.183262 z"
         style="font-size:16.9333px;stroke-width:0.265"
         id="path434" />
      <path
         d="m 62.570834,23.856171 q -0.876431,0.454752 -1.827275,0.686262 -0.950845,0.23151 -1.984371,0.23151 -3.084044,0 -4.886514,-1.719789 -1.802471,-1.728056 -1.802471,-4.679808 0,-2.96002 1.802471,-4.679809 1.80247,-1.728056 4.886514,-1.728056 1.033526,0 1.984371,0.23151 0.950844,0.23151 1.827275,0.686261 v 2.554878 q -0.884699,-0.603579 -1.744593,-0.884699 -0.859894,-0.281119 -1.810739,-0.281119 -1.703252,0 -2.678901,1.091404 -0.975649,1.091404 -0.975649,3.00963 0,1.909957 0.975649,3.001361 0.975649,1.091404 2.678901,1.091404 0.950845,0 1.810739,-0.281119 0.859894,-0.281119 1.744593,-0.884699 z"
         style="font-size:16.9333px;stroke-width:0.265"
         id="path436" />
      <path
         d="m 65.208394,12.189723 h 3.183262 v 12.344441 h -3.183262 z"
         style="font-size:16.9333px;stroke-width:0.265"
         id="path438" />
      <path
         d="m 70.037033,12.189723 h 11.377061 v 2.40605 h -4.092766 v 9.938391 h -3.183262 v -9.938391 h -4.101033 z"
         style="font-size:16.9333px;stroke-width:0.265"
         id="path440" />
      <path
         d="m 83.059464,12.189723 h 8.590673 v 2.40605 h -5.407411 v 2.298563 h 5.084951 v 2.40605 h -5.084951 v 2.827728 h 5.589312 v 2.40605 h -8.772574 z"
         style="font-size:16.9333px;stroke-width:0.265"
         id="path442" />
         </g>
</svg>