<svg width="80mm" height="80mm" fill="none" stroke="black"><circle r="40mm" cx="40mm" cy="40mm" stroke-width="0.1mm" /><circle r="0.5" cx="39.167706326905716mm" cy="41.81859485365136mm" fill="none" stroke="black" stroke-width="0.1mm" /><circle r="0.5125" cx="38.295355355518524mm" cy="41.217871765023155mm" fill="none" stroke="black" stroke-width="0.1mm" /><circle r="0.5249999999999999" cx="37.820748208398754mm" cy="40.21670631924973mm" fill="none" stroke="black" stroke-width="0.1mm" /><circle r="0.5374999999999999" cx="37.915575514238405mm" cy="39.06383785423811mm" fill="none" stroke="black" stroke-width="0.1mm" /><circle r="0.5499999999999998" cx="38.60277595418441mm" cy="38.07330205642018mm" fill="none" stroke="black" stroke-width="0.1mm" /><circle r="0.5624999999999998" cx="39.73766236166178mm" cy="37.53894251113243mm" fill="none" stroke="black" stroke-width="0.1mm" /><circle r="0.5749999999999997" cx="41.0363025606153mm" cy="37.64819707397449mm" fill="none" stroke="black" stroke-width="0.1mm" /><circle r="0.5874999999999997" cx="42.14628564201576mm" cy="38.42022693310811mm" fill="none" stroke="black" stroke-width="0.1mm" /><circle r="0.5999999999999996" cx="42.74231210781902mm" cy="39.688031566806494mm" fill="none" stroke="black" stroke-width="0.1mm" /><circle r="0.6124999999999996" cx="42.62069067086291mm" cy="41.13269828624046mm" fill="none" stroke="black" stroke-width="0.1mm" /><circle r="0.6249999999999996" cx="41.765492825106676mm" cy="42.36337366586345mm" fill="none" stroke="black" stroke-width="0.1mm" /><circle r="0.6374999999999995" cx="40.365593087583164mm" cy="43.02297315474541mm" fill="none" stroke="black" stroke-width="0.1mm" /><circle r="0.6499999999999995" cx="38.77466693600492mm" cy="42.891048059489925mm" fill="none" stroke="black" stroke-width="0.1mm" /><circle r="0.6624999999999994" cx="37.42207181362234mm" cy="41.954356995505066mm" fill="none" stroke="black" stroke-width="0.1mm" /><circle r="0.6749999999999994" cx="36.69700181145162mm" cy="40.423205584138636mm" fill="none" stroke="black" stroke-width="0.1mm" /><circle r="0.6874999999999993" cx="36.83716472278082mm" cy="38.68580899060377mm" fill="none" stroke="black" stroke-width="0.1mm" /><circle r="0.6999999999999993" cx="37.853661066505055mm" cy="37.21008437716052mm" fill="none" stroke="black" stroke-width="0.1mm" /><circle r="0.7124999999999992" cx="39.51520049517622mm" cy="36.417655175709264mm" fill="none" stroke="black" stroke-width="0.1mm" /><circle r="0.7249999999999992" cx="41.39925661347999mm" cy="36.5639876412282mm" fill="none" stroke="black" stroke-width="0.1mm" /><circle r="0.7374999999999992" cx="42.99930264538353mm" cy="37.658588322956554mm" fill="none" stroke="black" stroke-width="0.1mm" /><circle r="0.7499999999999991" cx="43.86097073674174mm" cy="39.4496319685665mm" fill="none" stroke="black" stroke-width="0.1mm" /><circle r="0.7624999999999991" cx="43.71053919160078mm" cy="41.48051474413281mm" fill="none" stroke="black" stroke-width="0.1mm" /><circle r="0.774999999999999" cx="42.539547948897365mm" cy="43.206056177806495mm" fill="none" stroke="black" stroke-width="0.1mm" /><circle r="0.787499999999999" cx="40.61990394612242mm" cy="44.13883366391812mm" fill="none" stroke="black" stroke-width="0.1mm" /><circle r="0.7999999999999989" cx="38.442049352605245mm" cy="43.986375519225746mm" fill="none" stroke="black" stroke-width="0.1mm" /><circle r="0.8124999999999989" cx="36.58985659964326mm" cy="42.7407201588275mm" fill="none" stroke="black" stroke-width="0.1mm" /><circle r="0.8249999999999988" cx="35.58410858937943mm" cy="40.693399631963786mm" fill="none" stroke="black" stroke-width="0.1mm" /><circle r="0.8374999999999988" cx="35.736519055421354mm" cy="38.36845005126574mm" fill="none" stroke="black" stroke-width="0.1mm" /><circle r="0.8499999999999988" cx="37.05509959410345mm" cy="36.388468247495204mm" fill="none" stroke="black" stroke-width="0.1mm" /><circle r="0.8624999999999987" cx="39.22915292646175mm" cy="35.30789814803455mm" fill="none" stroke="black" stroke-width="0.1mm" /><circle r="0.8749999999999987" cx="41.70129865429463mm" cy="35.45818506663963mm" fill="none" stroke="black" stroke-width="0.1mm" /><circle r="0.8874999999999986" cx="43.81018893569468mm" cy="36.84793951924938mm" fill="none" stroke="black" stroke-width="0.1mm" /><circle r="0.8999999999999986" cx="44.96742293691144mm" cy="39.147762142447235mm" fill="none" stroke="black" stroke-width="0.1mm" /><circle r="0.9124999999999985" cx="44.82133681740781mm" cy="41.76718315211184mm" fill="none" stroke="black" stroke-width="0.1mm" /><circle r="0.9249999999999985" cx="43.36217186793407mm" cy="44.00608291607559mm" fill="none" stroke="black" stroke-width="0.1mm" /><circle r="0.9374999999999984" cx="40.93756317348937mm" cy="45.241812691781014mm" fill="none" stroke="black" stroke-width="0.1mm" /><circle r="0.9499999999999984" cx="38.17080978669615mm" cy="45.102005798071325mm" fill="none" stroke="black" stroke-width="0.1mm" /><circle r="0.9624999999999984" cx="35.80081807278599mm" cy="43.57520574822754mm" fill="none" stroke="black" stroke-width="0.1mm" /><circle r="0.9749999999999983" cx="34.48477077622374mm" cy="41.02681381428393mm" fill="none" stroke="black" stroke-width="0.1mm" /><circle r="0.9874999999999983" cx="34.6162190503977mm" cy="38.112693006768815mm" fill="none" stroke="black" stroke-width="0.1mm" /><circle r="0.9999999999999982" cx="36.20886699899101mm" cy="35.61054552721404mm" fill="none" stroke="black" stroke-width="0.1mm" /><circle r="1.0124999999999982" cx="38.88001982296529mm" cy="34.21236927551098mm" fill="none" stroke="black" stroke-width="0.1mm" /><circle r="1.0249999999999981" cx="41.94152103262872mm" cy="34.33337877744945mm" fill="none" stroke="black" stroke-width="0.1mm" /><circle r="1.037499999999998" cx="44.5768693292491mm" cy="35.99007579336231mm" fill="none" stroke="black" stroke-width="0.1mm" /><circle r="1.049999999999998" cx="46.058975473405006mm" cy="38.782947736259224mm" fill="none" stroke="black" stroke-width="0.1mm" /><circle r="1.062499999999998" cx="45.95048544717134mm" cy="41.991820258708636mm" fill="none" stroke="black" stroke-width="0.1mm" /><circle r="1.074999999999998" cx="44.23154964886086mm" cy="44.76139554849473mm" fill="none" stroke="black" stroke-width="0.1mm" /><circle r="1.087499999999998" cx="41.318019682070165mm" cy="46.32922184140165mm" fill="none" stroke="black" stroke-width="0.1mm" /><circle r="1.0999999999999979" cx="37.96180701376558mm" cy="46.23533233684178mm" fill="none" stroke="black" stroke-width="0.1mm" /><circle r="1.1124999999999978" cx="35.05699753952075mm" cy="44.45597931724285mm" fill="none" stroke="black" stroke-width="0.1mm" /><circle r="1.1249999999999978" cx="33.40167170576061mm" cy="41.42287164615783mm" fill="none" stroke="black" stroke-width="0.1mm" /><circle r="1.1374999999999977" cx="33.47887950851358mm" cy="37.91937208143411mm" fill="none" stroke="black" stroke-width="0.1mm" /><circle r="1.1499999999999977" cx="35.316817090383324mm" cy="34.87834032416501mm" fill="none" stroke="black" stroke-width="0.1mm" /><circle r="1.1624999999999976" cx="38.46840302256689mm" cy="33.133746603953675mm" fill="none" stroke="black" stroke-width="0.1mm" /><circle r="1.1749999999999976" cx="42.119114148675045mm" cy="33.19219159898832mm" fill="none" stroke="black" stroke-width="0.1mm" /><circle r="1.1874999999999976" cx="45.29733708846037mm" cy="35.08687016544218mm" fill="none" stroke="black" stroke-width="0.1mm" /><circle r="1.1999999999999975" cx="47.132955812795764mm" cy="38.35581589452303mm" fill="none" stroke="black" stroke-width="0.1mm" /><circle r="1.2124999999999975" cx="47.09535444874895mm" cy="42.153641160132864mm" fill="none" stroke="black" stroke-width="0.1mm" /><circle r="1.2249999999999974" cx="45.14578921387998mm" cy="45.4700048780889mm" fill="none" stroke="black" stroke-width="0.1mm" /><circle r="1.2374999999999974" cx="41.760621068908655mm" cy="47.39839431577656mm" fill="none" stroke="black" stroke-width="0.1mm" /><circle r="1.2499999999999973" cx="37.815801171933245mm" cy="47.38371691490619mm" fill="none" stroke="black" stroke-width="0.1mm" /><circle r="1.2624999999999973" cx="34.360366487162814mm" cy="45.38112988515271mm" fill="none" stroke="black" stroke-width="0.1mm" /><circle r="1.2749999999999972" cx="32.337472214944mm" cy="41.880895516301926mm" fill="none" stroke="black" stroke-width="0.1mm" /><circle r="1.2874999999999972" cx="32.3271460199724mm" cy="37.78922257991119mm" fill="none" stroke="black" stroke-width="0.1mm" /><circle r="1.2999999999999972" cx="34.38087959575923mm" cy="34.19380624826858mm" fill="none" stroke="black" stroke-width="0.1mm" /><circle r="1.3124999999999971" cx="37.995005292869315mm" cy="32.07468478706507mm" fill="none" stroke="black" stroke-width="0.1mm" /><circle r="1.324999999999997" cx="42.2333675971946mm" cy="32.037276271538666mm" fill="none" stroke="black" stroke-width="0.1mm" /><circle r="1.337499999999997" cx="45.9696566472125mm" cy="34.14027095213511mm" fill="none" stroke="black" stroke-width="0.1mm" /><circle r="1.349999999999997" cx="48.18671570739491mm" cy="37.86709448725606mm" fill="none" stroke="black" stroke-width="0.1mm" /><circle r="1.362499999999997" cx="48.25328415183482mm" cy="42.25196041463257mm" fill="none" stroke="black" stroke-width="0.1mm" /><circle r="1.374999999999997" cx="46.102923816183974mm" cy="46.129993547619314mm" fill="none" stroke="black" stroke-width="0.1mm" /><circle r="1.3874999999999968" cx="42.26461441737012mm" cy="48.44668849553713mm" fill="none" stroke="black" stroke-width="0.1mm" /><circle r="1.3999999999999968" cx="37.73345267725605mm" cy="48.54449315253761mm" fill="none" stroke="black" stroke-width="0.1mm" /><circle r="1.4124999999999968" cx="33.71282390034976mm" cy="46.34867243539835mm" fill="none" stroke="black" stroke-width="0.1mm" /><circle r="1.4249999999999967" cx="31.294807072987023mm" cy="42.4001075191506mm" fill="none" stroke="black" stroke-width="0.1mm" /><circle r="1.4374999999999967" cx="31.1636914527886mm" cy="37.72287983222694mm" fill="none" stroke="black" stroke-width="0.1mm" /><circle r="1.4499999999999966" cx="33.40305763962596mm" cy="33.55882374919746mm" fill="none" stroke="black" stroke-width="0.1mm" /><circle r="1.4624999999999966" cx="37.46062946879762mm" cy="31.03781152255427mm" fill="none" stroke="black" stroke-width="0.1mm" /><circle r="1.4749999999999965" cx="42.28367119264802mm" cy="30.871311929753013mm" fill="none" stroke="black" stroke-width="0.1mm" /><circle r="1.4874999999999965" cx="46.591966251789536mm" cy="33.1522992227122mm" fill="none" stroke="black" stroke-width="0.1mm" /><circle r="1.4999999999999964" cx="49.21763475184348mm" cy="37.317611217290164mm" fill="none" stroke="black" stroke-width="0.1mm" /><circle r="1.5124999999999964" cx="49.421589377288036mm" cy="42.286193037731785mm" fill="none" stroke="black" stroke-width="0.1mm" /><circle r="1.5249999999999964" cx="47.10091460629276mm" cy="46.73951865893538mm" fill="none" stroke="black" stroke-width="0.1mm" /><circle r="1.5374999999999963" cx="42.82914722004552mm" cy="49.47149148800277mm" fill="none" stroke="black" stroke-width="0.1mm" /><circle r="1.5499999999999963" cx="37.715321258456584mm" cy="49.71497004874126mm" fill="none" stroke="black" stroke-width="0.1mm" /><circle r="1.5624999999999962" cx="33.116193663452705mm" cy="47.3565505042045mm" fill="none" stroke="black" stroke-width="0.1mm" /><circle r="1.5749999999999962" cx="30.276281440097144mm" cy="42.9796304079199mm" fill="none" stroke="black" stroke-width="0.1mm" /><circle r="1.5874999999999961" cx="29.9912124067072mm" cy="37.7208782585504mm" fill="none" stroke="black" stroke-width="0.1mm" /><circle r="1.599999999999996" cx="32.38542513279271mm" cy="32.97519754073502mm" fill="none" stroke="black" stroke-width="0.1mm" /><circle r="1.612499999999996" cx="36.86617746944007mm" cy="30.025724018909685mm" fill="none" stroke="black" stroke-width="0.1mm" /><circle r="1.624999999999996" cx="42.269515874326274mm" cy="29.6970005485693mm" fill="none" stroke="black" stroke-width="0.1mm" /><circle r="1.637499999999996" cx="47.16248051438725mm" cy="32.12504616641956mm" fill="none" stroke="black" stroke-width="0.1mm" /><circle r="1.649999999999996" cx="50.223123908053715mm" cy="36.70829260708354mm" fill="none" stroke="black" stroke-width="0.1mm" /><circle r="1.6624999999999959" cx="50.59756299897299mm" cy="42.25585537719042mm" fill="none" stroke="black" stroke-width="0.1mm" /><circle r="1.6749999999999958" cx="48.137653286444504mm" cy="47.296814304175435mm" fill="none" stroke="black" stroke-width="0.1mm" /><circle r="1.6874999999999958" cx="43.45326842190023mm" cy="50.4702226435882mm" fill="none" stroke="black" stroke-width="0.1mm" /><circle r="1.6999999999999957" cx="37.76186511219813mm" cy="50.89243555060136mm" fill="none" stroke="black" stroke-width="0.1mm" /><circle r="1.7124999999999957" cx="32.572222051866284mm" cy="48.40263885652709mm" fill="none" stroke="black" stroke-width="0.1mm" /><circle r="1.7249999999999956" cx="29.284467359850332mm" cy="43.61848866764668mm" fill="none" stroke="black" stroke-width="0.1mm" /><circle r="1.7374999999999956" cx="28.81242563659994mm" cy="37.78365055476485mm" fill="none" stroke="black" stroke-width="0.1mm" /><circle r="1.7499999999999956" cx="31.330124075051835mm" cy="32.444654114734085mm" fill="none" stroke="black" stroke-width="0.1mm" /><circle r="1.7624999999999955" cx="36.21264919519093mm" cy="29.040985496801618mm" fill="none" stroke="black" stroke-width="0.1mm" /><circle r="1.7749999999999955" cx="42.19049449042129mm" cy="28.51706335960028mm" fill="none" stroke="black" stroke-width="0.1mm" /><circle r="1.7874999999999954" cx="47.679492876308814mm" cy="31.060670373975313mm" fill="none" stroke="black" stroke-width="0.1mm" /><circle r="1.7999999999999954" cx="51.20062899453168mm" cy="36.040162866119765mm" fill="none" stroke="black" stroke-width="0.1mm" /><circle r="1.8124999999999953" cx="51.77847953412605mm" cy="42.16056586665955mm" fill="none" stroke="black" stroke-width="0.1mm" /><circle r="1.8249999999999953" cx="49.21096485009425mm" cy="47.8001940059417mm" fill="none" stroke="black" stroke-width="0.1mm" /><circle r="1.8374999999999952" cx="44.135929582542566mm" cy="51.44033703560563mm" fill="none" stroke="black" stroke-width="0.1mm" /><circle r="1.8499999999999952" cx="37.873440179900925mm" cy="52.07416015015292mm" fill="none" stroke="black" stroke-width="0.1mm" /><circle r="1.8624999999999952" cx="32.082575315027924mm" cy="49.484746246357645mm" fill="none" stroke="black" stroke-width="0.1mm" /><circle r="1.8749999999999951" cx="28.32190028915457mm" cy="44.315609707046335mm" fill="none" stroke="black" stroke-width="0.1mm" /><circle r="1.887499999999995" cx="27.630064449340225mm" cy="37.91152699980965mm" fill="none" stroke="black" stroke-width="0.1mm" /><circle r="1.899999999999995" cx="30.23936177425987mm" cy="31.96883934750268mm" fill="none" stroke="black" stroke-width="0.1mm" /><circle r="1.912499999999995" cx="35.50114130638384mm" cy="28.086121729055854mm" fill="none" stroke="black" stroke-width="0.1mm" /><circle r="1.924999999999995" cx="42.04630246010647mm" cy="27.33423724200698mm" fill="none" stroke="black" stroke-width="0.1mm" /><circle r="1.937499999999995" cx="48.141377978042115mm" cy="29.961395036228815mm" fill="none" stroke="black" stroke-width="0.1mm" /><circle r="1.9499999999999948" cx="52.14763413614976mm" cy="35.31434264011444mm" fill="none" stroke="black" stroke-width="0.1mm" /><circle r="1.9624999999999948" cx="52.96159875823114mm" cy="42.000045657134265mm" fill="none" stroke="black" stroke-width="0.1mm" /><circle r="1.9749999999999948" cx="50.31861040348253mm" cy="48.24805306367162mm" fill="none" stroke="black" stroke-width="0.1mm" /><circle r="1.9874999999999947" cx="44.87598615635941mm" cy="52.37932889954024mm" fill="none" stroke="black" stroke-width="0.1mm" /><circle r="1.9999999999999947" cx="38.050299546964695mm" cy="53.25740050475336mm" fill="none" stroke="black" stroke-width="0.1mm" /><circle r="2.012499999999995" cx="31.64883735391973mm" cy="50.600618258324104mm" fill="none" stroke="black" stroke-width="0.1mm" /><circle r="2.024999999999995" cx="27.391075669713786mm" cy="45.06982516790444mm" fill="none" stroke="black" stroke-width="0.1mm" /><circle r="2.037499999999995" cx="26.446875078188405mm" cy="38.104734885624076mm" fill="none" stroke="black" stroke-width="0.1mm" /><circle r="2.0499999999999954" cx="29.11540798490137mm" cy="31.549316201344887mm" fill="none" stroke="black" stroke-width="0.1mm" /><circle r="2.0624999999999956" cx="34.732845884732306mm" cy="27.163617623098805mm" fill="none" stroke="black" stroke-width="0.1mm" /><circle r="2.0749999999999957" cx="41.83673831282779mm" cy="26.1512710918947mm" fill="none" stroke="black" stroke-width="0.1mm" /><circle r="2.087499999999996" cx="48.546593933515666mm" cy="28.82950506308722mm" fill="none" stroke="black" stroke-width="0.1mm" /><circle r="2.099999999999996" cx="53.06166517047933mm" cy="34.532047643378mm" fill="none" stroke="black" stroke-width="0.1mm" /><circle r="2.1124999999999963" cx="54.14416934035918mm" cy="41.77411912543788mm" fill="none" stroke="black" stroke-width="0.1mm" /><circle r="2.1249999999999964" cx="51.4582900661466mm" cy="48.63887080352792mm" fill="none" stroke="black" stroke-width="0.1mm" /><circle r="2.1374999999999966" cx="45.67219888913962mm" cy="53.28473502791999mm" fill="none" stroke="black" stroke-width="0.1mm" /><circle r="2.149999999999997" cx="38.292592965132094mm" cy="54.43940307690331mm" fill="none" stroke="black" stroke-width="0.1mm" /><circle r="2.162499999999997" cx="31.272507495706478mm" cy="51.74794022743994mm" fill="none" stroke="black" stroke-width="0.1mm" /><circle r="2.174999999999997" cx="26.494445544860753mm" cy="45.87987235059314mm" fill="none" stroke="black" stroke-width="0.1mm" /><circle r="2.1874999999999973" cx="25.265613038744398mm" cy="38.363398070396464mm" fill="none" stroke="black" stroke-width="0.1mm" /><circle r="2.1999999999999975" cx="27.960591969303948mm" cy="31.187562523886335mm" fill="none" stroke="black" stroke-width="0.1mm" /><circle r="2.2124999999999977" cx="33.90904897901619mm" cy="26.275913849732014mm" fill="none" stroke="black" stroke-width="0.1mm" /><circle r="2.224999999999998" cx="41.56170410413312mm" cy="24.970922174293758mm" fill="none" stroke="black" stroke-width="0.1mm" /><circle r="2.237499999999998" cx="48.89368450592771mm" cy="27.66734412589799mm" fill="none" stroke="black" stroke-width="0.1mm" /><circle r="2.2499999999999982" cx="53.94029300683641mm" cy="33.6945871758029mm" fill="none" stroke="black" stroke-width="0.1mm" /><circle r="2.2624999999999984" cx="55.32343249490383mm" cy="41.48271425909605mm" fill="none" stroke="black" stroke-width="0.1mm" /><circle r="2.2749999999999986" cx="52.62764594716576mm" cy="48.97121272922617mm" fill="none" stroke="black" stroke-width="0.1mm" /><circle r="2.2874999999999988" cx="46.52323532968537mm" cy="54.15413811694467mm" fill="none" stroke="black" stroke-width="0.1mm" /><circle r="2.299999999999999" cx="38.60036649859933mm" cy="55.61740778944311mm" fill="none" stroke="black" stroke-width="0.1mm" /><circle r="2.312499999999999" cx="30.954998368061844mm" cy="52.924340233769676mm" fill="none" stroke="black" stroke-width="0.1mm" /><circle r="2.3249999999999993" cx="25.634415225580543mm" cy="46.74439575417764mm" fill="none" stroke="black" stroke-width="0.1mm" /><circle r="2.3374999999999995" cx="24.089039470546112mm" cy="38.68753665568822mm" fill="none" stroke="black" stroke-width="0.1mm" /><circle r="2.3499999999999996" cx="26.77729948475968mm" cy="30.884968947707037mm" fill="none" stroke="black" stroke-width="0.1mm" /><circle r="2.3625" cx="33.0311290365838mm" cy="25.425403522043702mm" fill="none" stroke="black" stroke-width="0.1mm" /><circle r="2.375" cx="41.221205707507615mm" cy="23.795952461809048mm" fill="none" stroke="black" stroke-width="0.1mm" /><circle r="2.3875" cx="49.181281182655766mm" cy="26.4773116265658mm" fill="none" stroke="black" stroke-width="0.1mm" /><circle r="2.4000000000000004" cx="54.781136934247336mm" cy="32.80336252607992mm" fill="none" stroke="black" stroke-width="0.1mm" /><circle r="2.4125000000000005" cx="56.4966256456248mm" cy="41.1258629171064mm" fill="none" stroke="black" stroke-width="0.1mm" /><circle r="2.4250000000000007" cx="53.824265193839416mm" cy="49.24373257133726mm" fill="none" stroke="black" stroke-width="0.1mm" /><circle r="2.437500000000001" cx="47.427671454775144mm" cy="54.985170061094394mm" fill="none" stroke="black" stroke-width="0.1mm" /><circle r="2.450000000000001" cx="38.97356229433753mm" cy="56.7886516920328mm" fill="none" stroke="black" stroke-width="0.1mm" /><circle r="2.4625000000000012" cx="30.6976338756229mm" cy="54.12739216869279mm" fill="none" stroke="black" stroke-width="0.1mm" /><circle r="2.4750000000000014" cx="24.813340009492926mm" cy="47.66194872945081mm" fill="none" stroke="black" stroke-width="0.1mm" /><circle r="2.4875000000000016" cx="22.91991746840943mm" cy="39.07706678786822mm" fill="none" stroke="black" stroke-width="0.1mm" /><circle r="2.5000000000000018" cx="25.567969699887488mm" cy="30.642836892698966mm" fill="none" stroke="black" stroke-width="0.1mm" /><circle r="2.512500000000002" cx="32.100555222356846mm" cy="24.61442892821435mm" fill="none" stroke="black" stroke-width="0.1mm" /><circle r="2.525000000000002" cx="40.81535298180711mm" cy="22.629124964036517mm" fill="none" stroke="black" stroke-width="0.1mm" /><circle r="2.5375000000000023" cx="49.40810514685158mm" cy="25.261859596754213mm" fill="none" stroke="black" stroke-width="0.1mm" /><circle r="2.5500000000000025" cx="55.58186787458864mm" cy="31.85986526285569mm" fill="none" stroke="black" stroke-width="0.1mm" /><circle r="2.5625000000000027" cx="57.660986097897776mm" cy="40.70370096622262mm" fill="none" stroke="black" stroke-width="0.1mm" /><circle r="2.575000000000003" cx="55.045683109431586mm" cy="49.45517423269218mm" fill="none" stroke="black" stroke-width="0.1mm" /><circle r="2.587500000000003" cx="48.383993405738146mm" cy="55.7755151919847mm" fill="none" stroke="black" stroke-width="0.1mm" /><circle r="2.600000000000003" cx="39.412018476971966mm" cy="57.950372634811195mm" fill="none" stroke="black" stroke-width="0.1mm" /><circle r="2.6125000000000034" cx="30.50164728091544mm" cy="55.35461886937803mm" fill="none" stroke="black" stroke-width="0.1mm" /><circle r="2.6250000000000036" cx="24.033521956511265mm" cy="48.63099524312191mm" fill="none" stroke="black" stroke-width="0.1mm" /><circle r="2.6375000000000037" cx="21.761008407617073mm" cy="39.53180058416769mm" fill="none" stroke="black" stroke-width="0.1mm" /><circle r="2.650000000000004" cx="24.335092043645687mm" cy="30.462376673460614mm" fill="none" stroke="black" stroke-width="0.1mm" /><circle r="2.662500000000004" cx="31.118885627146167mm" cy="23.845278321918084mm" fill="none" stroke="black" stroke-width="0.1mm" /><circle r="2.6750000000000043" cx="40.34435981401677mm" cy="21.47320005185755mm" fill="none" stroke="black" stroke-width="0.1mm" /><circle r="2.6875000000000044" cx="49.57296914343989mm" cy="24.023489530603108mm" fill="none" stroke="black" stroke-width="0.1mm" /><circle r="2.7000000000000046" cx="56.34021157721551mm" cy="30.86567541567343mm" fill="none" stroke="black" stroke-width="0.1mm" /><circle r="2.712500000000005" cx="58.813754715057144mm" cy="40.21646829251789mm" fill="none" stroke="black" stroke-width="0.1mm" /><circle r="2.725000000000005" cx="56.28938633652977mm" cy="49.60437362763849mm" fill="none" stroke="black" stroke-width="0.1mm" /><circle r="2.737500000000005" cx="49.39059933476625mm" cy="56.52291345779818mm" fill="none" stroke="black" stroke-width="0.1mm" /><circle r="2.7500000000000053" cx="39.915469168420486mm" cy="59.099812945118416mm" fill="none" stroke="black" stroke-width="0.1mm" /><circle r="2.7625000000000055" cx="30.3681793919738mm" cy="56.60349531799862mm" fill="none" stroke="black" stroke-width="0.1mm" /><circle r="2.7750000000000057" cx="23.29720672483339mm" cy="49.64991175125708mm" fill="none" stroke="black" stroke-width="0.1mm" /><circle r="2.787500000000006" cx="20.615068267074008mm" cy="40.05144618352534mm" fill="none" stroke="black" stroke-width="0.1mm" /><circle r="2.800000000000006" cx="23.081202990481504mm" cy="30.34470571392522mm" fill="none" stroke="black" stroke-width="0.1mm" /><circle r="2.812500000000006" cx="30.087765367208625mm" cy="23.120182773960746mm" fill="none" stroke="black" stroke-width="0.1mm" /><circle r="2.8250000000000064" cx="39.80854403719691mm" cy="20.33093178072974mm" fill="none" stroke="black" stroke-width="0.1mm" /><circle r="2.8375000000000066" cx="49.67477923735145mm" cy="22.764749154465044mm" fill="none" stroke="black" stroke-width="0.1mm" /><circle r="2.8500000000000068" cx="57.05395175145296mm" cy="29.822459547655214mm" fill="none" stroke="black" stroke-width="0.1mm" /><circle r="2.862500000000007" cx="59.952179594712305mm" cy="39.664508688121344mm" fill="none" stroke="black" stroke-width="0.1mm" /><circle r="2.875000000000007" cx="57.5528161024984mm" cy="49.690260413006094mm" fill="none" stroke="black" stroke-width="0.1mm" /><circle r="2.8875000000000073" cx="50.44580135897671mm" cy="57.2251635396823mm" fill="none" stroke="black" stroke-width="0.1mm" /><circle r="2.9000000000000075" cx="40.48354463236491mm" cy="60.23422310316141mm" fill="none" stroke="black" stroke-width="0.1mm" /><circle r="2.9125000000000076" cx="30.29827685876915mm" cy="57.87145190215125mm" fill="none" stroke="black" stroke-width="0.1mm" /><circle r="2.925000000000008" cx="22.60658047085869mm" cy="50.716989179955604mm" fill="none" stroke="black" stroke-width="0.1mm" /><circle r="2.937500000000008" cx="19.484843954550165mm" cy="40.63560792226254mm" fill="none" stroke="black" stroke-width="0.1mm" /><circle r="2.950000000000008" cx="21.80888278517201mm" cy="30.290846871308062mm" fill="none" stroke="black" stroke-width="0.1mm" /><circle r="2.9625000000000083" cx="29.00892457709076mm" cy="22.4413130887324mm" fill="none" stroke="black" stroke-width="0.1mm" /><circle r="2.9750000000000085" cx="39.208327223609764mm" cy="19.205064217095494mm" fill="none" stroke="black" stroke-width="0.1mm" /><circle r="2.9875000000000087" cx="49.71253646193367mm" cy="21.488229137232477mm" fill="none" stroke="black" stroke-width="0.1mm" /><circle r="3.000000000000009" cx="57.72093313338845mm" cy="28.731968722000502mm" fill="none" stroke="black" stroke-width="0.1mm" /><circle r="3.012500000000009" cx="61.073519740915486mm" cy="39.04826961315475mm" fill="none" stroke="black" stroke-width="0.1mm" /><circle r="3.0250000000000092" cx="58.83337152343793mm" cy="49.71185960875448mm" fill="none" stroke="black" stroke-width="0.1mm" /><circle r="3.0375000000000094" cx="51.54782762012185mm" cy="57.88012590156876mm" fill="none" stroke="black" stroke-width="0.1mm" /><circle r="3.0500000000000096" cx="41.11577154349427mm" cy="61.35086541250091mm" fill="none" stroke="black" stroke-width="0.1mm" /><circle r="3.0625000000000098" cx="30.292890580445054mm" cy="59.15587773287319mm" fill="none" stroke="black" stroke-width="0.1mm" /><circle r="3.07500000000001" cx="21.963766816559264mm" cy="51.830435011129154mm" fill="none" stroke="black" stroke-width="0.1mm" /><circle r="3.08750000000001" cx="18.3730696381319mm" cy="41.28378663449457mm" fill="none" stroke="black" stroke-width="0.1mm" /><circle r="3.1000000000000103" cx="20.52075211097828mm" cy="30.301726871342403mm" fill="none" stroke="black" stroke-width="0.1mm" /><circle r="3.1125000000000105" cx="27.8841762979203mm" cy="21.810776788985113mm" fill="none" stroke="black" stroke-width="0.1mm" /><circle r="3.1250000000000107" cx="38.544234353154565mm" cy="18.098327772029286mm" fill="none" stroke="black" stroke-width="0.1mm" /><circle r="3.137500000000011" cx="49.68533835559853mm" cy="20.196559744893545mm" fill="none" stroke="black" stroke-width="0.1mm" /><circle r="3.150000000000011" cx="58.33906448347243mm" cy="27.596036364490622mm" fill="none" stroke="black" stroke-width="0.1mm" /><circle r="3.162500000000011" cx="62.1750487280616mm" cy="38.36830183303017mm" fill="none" stroke="black" stroke-width="0.1mm" /><circle r="3.1750000000000114" cx="60.12841296299631mm" cy="49.66829310639065mm" fill="none" stroke="black" stroke-width="0.1mm" /><circle r="3.1875000000000115" cx="52.694824447727754mm" cy="58.48572576993861mm" fill="none" stroke="black" stroke-width="0.1mm" /><circle r="3.2000000000000117" cx="41.81157338132619mm" cy="62.447017661241084mm" fill="none" stroke="black" stroke-width="0.1mm" /><circle r="3.212500000000012" cx="30.352874225241564mm" cy="60.45412401658869mm" fill="none" stroke="black" stroke-width="0.1mm" /><circle r="3.225000000000012" cx="21.370823887763034mm" cy="52.98837547113796mm" fill="none" stroke="black" stroke-width="0.1mm" /><circle r="3.2375000000000123" cx="17.282463087999428mm" cy="41.995380077050505mm" fill="none" stroke="black" stroke-width="0.1mm" /><circle r="3.2500000000000124" cx="19.219468704797094mm" cy="30.37817485665577mm" fill="none" stroke="black" stroke-width="0.1mm" /><circle r="3.2625000000000126" cx="26.715414263419802mm" cy="21.230615172375828mm" fill="none" stroke="black" stroke-width="0.1mm" /><circle r="3.275000000000013" cx="37.81689335737161mm" cy="17.01343554623897mm" fill="none" stroke="black" stroke-width="0.1mm" /><circle r="3.287500000000013" cx="49.59238038488584mm" cy="18.89240744301578mm" fill="none" stroke="black" stroke-width="0.1mm" /><circle r="3.300000000000013" cx="58.90632151150541mm" cy="26.416576024301307mm" fill="none" stroke="black" stroke-width="0.1mm" /><circle r="3.3125000000000133" cx="63.25405835240626mm" cy="37.62525893140267mm" fill="none" stroke="black" stroke-width="0.1mm" /><circle r="3.3250000000000135" cx="61.43526544231827mm" cy="49.55878106336547mm" fill="none" stroke="black" stroke-width="0.1mm" /><circle r="3.3375000000000137" cx="53.88485862333202mm" cy="59.03995604012994mm" fill="none" stroke="black" stroke-width="0.1mm" /><circle r="3.350000000000014" cx="42.570270948278946mm" cy="63.51997676981062mm" fill="none" stroke="black" stroke-width="0.1mm" /><circle r="3.362500000000014" cx="30.47898286487021mm" cy="61.76350747725566mm" fill="none" stroke="black" stroke-width="0.1mm" /><circle r="3.375000000000014" cx="20.829741426733225mm" cy="54.188857819926504mm" fill="none" stroke="black" stroke-width="0.1mm" /><circle r="3.3875000000000144" cx="16.21572203263901mm" cy="42.76968347854125mm" fill="none" stroke="black" stroke-width="0.1mm" /><circle r="3.4000000000000146" cx="17.907723923053506mm" cy="30.52092105001887mm" fill="none" stroke="black" stroke-width="0.1mm" /><circle r="3.4125000000000147" cx="25.50461058602731mm" cy="20.702800443139783mm" fill="none" stroke="black" stroke-width="0.1mm" /><circle r="3.425000000000015" cx="37.02703453940914mm" cy="15.953079690527286mm" fill="none" stroke="black" stroke-width="0.1mm" /><circle r="3.437500000000015" cx="49.43295725223973mm" cy="17.578471450915405mm" fill="none" stroke="black" stroke-width="0.1mm" /><circle r="3.4500000000000153" cx="59.42074972566508mm" cy="25.195579035535463mm" fill="none" stroke="black" stroke-width="0.1mm" /><circle r="3.4625000000000155" cx="64.3078622670993mm" cy="36.81989669920487mm" fill="none" stroke="black" stroke-width="0.1mm" /><circle r="3.4750000000000156" cx="62.75122209736112mm" cy="49.38264318177689mm" fill="none" stroke="black" stroke-width="0.1mm" /><circle r="3.487500000000016" cx="55.115919743381376mm" cy="59.54088010586141mm" fill="none" stroke="black" stroke-width="0.1mm" /><circle r="3.500000000000016" cx="43.39108301153412mm" cy="64.5670624212355mm" fill="none" stroke="black" stroke-width="0.1mm" /><circle r="3.512500000000016" cx="30.671871724981006mm" cy="63.08131382492748mm" fill="none" stroke="black" stroke-width="0.1mm" /><circle r="3.5250000000000163" cx="20.342437982351722mm" cy="55.42985273819257mm" fill="none" stroke="black" stroke-width="0.1mm" /><circle r="3.5375000000000165" cx="15.175520533586209mm" cy="43.605890212083146mm" fill="none" stroke="black" stroke-width="0.1mm" /><circle r="3.5500000000000167" cx="16.588239262132475mm" cy="30.73059553407871mm" fill="none" stroke="black" stroke-width="0.1mm" /><circle r="3.562500000000017" cx="24.253813345616038mm" cy="20.229232922182877mm" fill="none" stroke="black" stroke-width="0.1mm" /><circle r="3.575000000000017" cx="36.1754898704775mm" cy="14.919927785806188mm" fill="none" stroke="black" stroke-width="0.1mm" /><circle r="3.5875000000000172" cx="49.20646408691639mm" cy="16.25748025132304mm" fill="none" stroke="black" stroke-width="0.1mm" /><circle r="3.6000000000000174" cx="59.88046720230451mm" cy="23.935112081994113mm" fill="none" stroke="black" stroke-width="0.1mm" /><circle r="3.6125000000000176" cx="65.33379959664452mm" cy="35.953072400320195mm" fill="none" stroke="black" stroke-width="0.1mm" /><circle r="3.6250000000000178" cx="64.07354767975357mm" cy="49.139299869827454mm" fill="none" stroke="black" stroke-width="0.1mm" /><circle r="3.637500000000018" cx="56.38592267824545mm" cy="59.98663460872184mm" fill="none" stroke="black" stroke-width="0.1mm" /><circle r="3.650000000000018" cx="44.2731270681012mm" cy="65.58562066981877mm" fill="none" stroke="black" stroke-width="0.1mm" /><circle r="3.6625000000000183" cx="30.93209505324418mm" cy="64.40480126689414mm" fill="none" stroke="black" stroke-width="0.1mm" /><circle r="3.6750000000000185" cx="19.910758181134785mm" cy="56.70925681001861mm" fill="none" stroke="black" stroke-width="0.1mm" /><circle r="3.6875000000000187" cx="14.164505382779815mm" cy="44.50309259105151mm" fill="none" stroke="black" stroke-width="0.1mm" /><circle r="3.700000000000019" cx="15.263762837200257mm" cy="31.007727149061754mm" fill="none" stroke="black" stroke-width="0.1mm" /><circle r="3.712500000000019" cx="22.965144083415538mm" cy="19.81173833879689mm" fill="none" stroke="black" stroke-width="0.1mm" /><circle r="3.725000000000019" cx="35.26319216345578mm" cy="13.916619246737795mm" fill="none" stroke="black" stroke-width="0.1mm" /><circle r="3.7375000000000194" cx="48.91239751757443mm" cy="14.93218805941115mm" fill="none" stroke="black" stroke-width="0.1mm" /><circle r="3.7500000000000195" cx="60.28366727334242mm" cy="22.637314667818984mm" fill="none" stroke="black" stroke-width="0.1mm" /><circle r="3.7625000000000197" cx="66.32923852671868mm" cy="35.02574391459908mm" fill="none" stroke="black" stroke-width="0.1mm" /><circle r="3.77500000000002" cx="65.39948209731789mm" cy="48.82827328462503mm" fill="none" stroke="black" stroke-width="0.1mm" /><circle r="3.78750000000002" cx="57.69271012468218mm" cy="60.375432104472395mm" fill="none" stroke="black" stroke-width="0.1mm" /><circle r="3.8000000000000203" cx="45.215420232340136mm" cy="66.57302752416616mm" fill="none" stroke="black" stroke-width="0.1mm" /><circle r="3.8125000000000204" cx="31.2601051064202mm" cy="65.7312040575091mm" fill="none" stroke="black" stroke-width="0.1mm" /><circle r="3.8250000000000206" cx="19.536470082213455mm" cy="58.02489509827589mm" fill="none" stroke="black" stroke-width="0.1mm" /><circle r="3.837500000000021" cx="13.185292526582671mm" cy="45.460282787095565mm" fill="none" stroke="black" stroke-width="0.1mm" /><circle r="3.850000000000021" cx="13.93706582331448mm" cy="31.352742509803868mm" fill="none" stroke="black" stroke-width="0.1mm" /><circle r="3.862500000000021" cx="21.640795203836802mm" cy="19.452065207117936mm" fill="none" stroke="black" stroke-width="0.1mm" /><circle r="3.8750000000000213" cx="34.29117412443658mm" cy="12.945761753054427mm" fill="none" stroke="black" stroke-width="0.1mm" /><circle r="3.8875000000000215" cx="48.55035662520763mm" cy="13.605371255087466mm" fill="none" stroke="black" stroke-width="0.1mm" /><circle r="3.9000000000000217" cx="60.62862112813689mm" cy="21.304396496722042mm" fill="none" stroke="black" stroke-width="0.1mm" /><circle r="3.912500000000022" cx="67.29157986530032mm" cy="34.038968759020904mm" fill="none" stroke="black" stroke-width="0.1mm" /><circle r="3.925000000000022" cx="66.72624399034622mm" cy="48.44918825500282mm" fill="none" stroke="black" stroke-width="0.1mm" /><circle r="3.937500000000022" cx="59.03405524902722mm" cy="60.70556364306401mm" fill="none" stroke="black" stroke-width="0.1mm" /><circle r="3.9500000000000224" cx="46.21688024512287mm" cy="67.52669250051295mm" fill="none" stroke="black" stroke-width="0.1mm" /><circle r="3.9625000000000226" cx="31.656251257726062mm" cy="67.0577360827878mm" fill="none" stroke="black" stroke-width="0.1mm" /><circle r="3.9750000000000227" cx="19.221262619357095mm" cy="59.37452381005189mm" fill="none" stroke="black" stroke-width="0.1mm" /><circle r="3.987500000000023" cx="12.240463520507078mm" cy="46.476353869554686mm" fill="none" stroke="black" stroke-width="0.1mm" /><circle r="4.000000000000023" cx="12.61093886275576mm" cy="31.76596514336432mm" fill="none" stroke="black" stroke-width="0.1mm" /><circle r="4.012500000000023" cx="20.283027286992382mm" cy="19.15188229037194mm" fill="none" stroke="black" stroke-width="0.1mm" /><circle r="4.0250000000000234" cx="33.260567283122136mm" cy="12.009927712585839mm" fill="none" stroke="black" stroke-width="0.1mm" /><circle r="4.037500000000024" cx="48.12004377521391mm" cy="12.279824782505365mm" fill="none" stroke="black" stroke-width="0.1mm" /><circle r="4.050000000000024" cx="60.91368032683418mm" cy="19.938634762634347mm" fill="none" stroke="black" stroke-width="0.1mm" /><circle r="4.062500000000024" cx="68.2182605710911mm" cy="32.9939029879683mm" fill="none" stroke="black" stroke-width="0.1mm" /><circle r="4.075000000000024" cx="68.0510343396621mm" cy="48.0017730832042mm" fill="none" stroke="black" stroke-width="0.1mm" /><circle r="4.087500000000024" cx="60.4076644182335mm" cy="60.97540125939811mm" fill="none" stroke="black" stroke-width="0.1mm" /><circle r="4.1000000000000245" cx="47.2763266036129mm" cy="68.44406214234438mm" fill="none" stroke="black" stroke-width="0.1mm" /><circle r="4.112500000000025" cx="32.1207792255997mm" cy="68.38159447579103mm" fill="none" stroke="black" stroke-width="0.1mm" /><circle r="4.125000000000025" cx="18.96674313298276mm" cy="60.75583304919524mm" fill="none" stroke="black" stroke-width="0.1mm" /><circle r="4.137500000000025" cx="11.332562018644019mm" cy="47.55010096522568mm" fill="none" stroke="black" stroke-width="0.1mm" /><circle r="4.150000000000025" cx="11.288188442570608mm" cy="32.24761474830764mm" fill="none" stroke="black" stroke-width="0.1mm" /><circle r="4.162500000000025" cx="18.894166314828816mm" cy="18.912776155835818mm" fill="none" stroke="black" stroke-width="0.1mm" /><circle r="4.175000000000026" cx="32.17260080313948mm" cy="11.111650759986642mm" fill="none" stroke="black" stroke-width="0.1mm" /><circle r="4.187500000000026" cx="47.621265327534836mm" cy="10.958358520784191mm" fill="none" stroke="black" stroke-width="0.1mm" /><circle r="4.200000000000026" cx="61.137279222277634mm" cy="18.54237135470317mm" fill="none" stroke="black" stroke-width="0.1mm" /><circle r="4.212500000000026" cx="69.1067572452425mm" cy="31.891799973698493mm" fill="none" stroke="black" stroke-width="0.1mm" /><circle r="4.225000000000026" cx="69.37104010247126mm" cy="47.48586022438421mm" fill="none" stroke="black" stroke-width="0.1mm" /><circle r="4.2375000000000265" cx="61.811180015820824mm" cy="61.18340037192922mm" fill="none" stroke="black" stroke-width="0.1mm" /><circle r="4.250000000000027" cx="48.39248181056206mm" cy="69.32262350232969mm" fill="none" stroke="black" stroke-width="0.1mm" /><circle r="4.262500000000027" cx="32.6538304248937mm" cy="69.69996325879504mm" fill="none" stroke="black" stroke-width="0.1mm" /><circle r="4.275000000000027" cx="18.774434995033836mm" cy="62.16644965302174mm" fill="none" stroke="black" stroke-width="0.1mm" /><circle r="4.287500000000027" cx="10.464090301768444mm" cy="48.680222537349096mm" fill="none" stroke="black" stroke-width="0.1mm" /><circle r="4.300000000000027" cx="9.97163324633523mm" cy="32.79780657664678mm" fill="none" stroke="black" stroke-width="0.1mm" /><circle r="4.3125000000000275" cx="17.47660081385642mm" cy="18.736248823370357mm" fill="none" stroke="black" stroke-width="0.1mm" /><circle r="4.325000000000028" cx="31.02860017344461mm" cy="10.253422295126558mm" fill="none" stroke="black" stroke-width="0.1mm" /><circle r="4.337500000000028" cx="47.05393222390992mm" cy="9.64379362995967mm" fill="none" stroke="black" stroke-width="0.1mm" /><circle r="4.350000000000028" cx="61.297937287648644mm" cy="17.118009979650434mm" fill="none" stroke="black" stroke-width="0.1mm" /><circle r="4.362500000000028" cx="69.95458958243557mm" cy="30.73400906821977mm" fill="none" stroke="black" stroke-width="0.1mm" /><circle r="4.375000000000028" cx="70.6834378719712mm" cy="46.90138684301027mm" fill="none" stroke="black" stroke-width="0.1mm" /><circle r="4.387500000000029" cx="63.24218333969434mm" cy="61.32810208630918mm" fill="none" stroke="black" stroke-width="0.1mm" /><circle r="4.400000000000029" cx="49.56397274187803mm" cy="70.15990758262706mm" fill="none" stroke="black" stroke-width="0.1mm" /><circle r="4.412500000000029" cx="33.25544144137728mm" cy="71.0100170082072mm" fill="none" stroke="black" stroke-width="0.1mm" /><circle r="4.425000000000029" cx="18.645775329501248mm" cy="63.60394011011411mm" fill="none" stroke="black" stroke-width="0.1mm" /><circle r="4.437500000000029" cx="9.63750584805275mm" cy="49.86532178253503mm" fill="none" stroke="black" stroke-width="0.1mm" /><circle r="4.4500000000000295" cx="8.664100484187642mm" cy="33.416550939294666mm" fill="none" stroke="black" stroke-width="0.1mm" /><circle r="4.46250000000003" cx="16.03277891756538mm" cy="18.623715510274188mm" fill="none" stroke="black" stroke-width="0.1mm" /><circle r="4.47500000000003" cx="29.829985782126197mm" cy="9.437688065065569mm" fill="none" stroke="black" stroke-width="0.1mm" /><circle r="4.48750000000003" cx="46.418060451430435mm" cy="8.338958876218626mm" fill="none" stroke="black" stroke-width="0.1mm" /><circle r="4.50000000000003" cx="61.39426134711418mm" cy="15.668013204603149mm" fill="none" stroke="black" stroke-width="0.1mm" /><circle r="4.51250000000003" cx="70.75932377740148mm" cy="29.521974147914353mm" fill="none" stroke="black" stroke-width="0.1mm" /><circle r="4.5250000000000306" cx="71.98539755665891mm" cy="46.24839524537853mm" fill="none" stroke="black" stroke-width="0.1mm" /><circle r="4.537500000000031" cx="64.69819757870005mm" cy="61.4081354013722mm" fill="none" stroke="black" stroke-width="0.1mm" /><circle r="4.550000000000031" cx="50.789332131090546mm" cy="70.95349272965828mm" fill="none" stroke="black" stroke-width="0.1mm" /><circle r="4.562500000000031" cx="33.92554363029822mm" cy="72.30892453816097mm" fill="none" stroke="black" stroke-width="0.1mm" /><circle r="4.575000000000031" cx="18.58211283126351mm" cy="65.06581355606203mm" fill="none" stroke="black" stroke-width="0.1mm" /><circle r="4.587500000000031" cx="8.855217950279236mm" cy="51.103908144224775mm" fill="none" stroke="black" stroke-width="0.1mm" /><circle r="4.600000000000032" cx="7.36842220520154mm" cy="34.103752835743244mm" fill="none" stroke="black" stroke-width="0.1mm" /><circle r="4.612500000000032" cx="14.565205351703494mm" cy="18.576502475109784mm" fill="none" stroke="black" stroke-width="0.1mm" /><circle r="4.625000000000032" cx="28.578271374044018mm" cy="8.666844793493787mm" fill="none" stroke="black" stroke-width="0.1mm" /><circle r="4.637500000000032" cx="45.71377138170662mm" cy="7.046686940497466mm" fill="none" stroke="black" stroke-width="0.1mm" /><circle r="4.650000000000032" cx="61.42494770685563mm" cy="14.194899423592801mm" fill="none" stroke="black" stroke-width="0.1mm" /><circle r="4.6625000000000325" cx="71.51857588301463mm" cy="28.25723204237444mm" fill="none" stroke="black" stroke-width="0.1mm" /><circle r="4.675000000000033" cx="73.2740860752514mm" cy="45.52703318759261mm" fill="none" stroke="black" stroke-width="0.1mm" /><circle r="4.687500000000033" cx="66.17669086469857mm" cy="61.42221931486081mm" fill="none" stroke="black" stroke-width="0.1mm" /><circle r="4.700000000000033" cx="52.067000169218346mm" cy="71.70100797949607mm" fill="none" stroke="black" stroke-width="0.1mm" /><circle r="4.712500000000033" cx="34.66396283962509mm" cy="73.59385259869858mm" fill="none" stroke="black" stroke-width="0.1mm" /><circle r="4.725000000000033" cx="18.58470568581954mm" cy="66.54952484390293mm" fill="none" stroke="black" stroke-width="0.1mm" /><circle r="4.737500000000034" cx="8.119584383396518mm" cy="52.39439894115941mm" fill="none" stroke="black" stroke-width="0.1mm" /><circle r="4.750000000000034" cx="6.087431596197945mm" cy="34.85921170855724mm" fill="none" stroke="black" stroke-width="0.1mm" /><circle r="4.762500000000034" cx="13.076438345676276mm" cy="18.595844963049405mm" fill="none" stroke="black" stroke-width="0.1mm" /><circle r="4.775000000000034" cx="27.27506239386215mm" cy="7.94323686146889mm" fill="none" stroke="black" stroke-width="0.1mm" /><circle r="4.787500000000034" cx="44.941291985093976mm" cy="5.769810714545642mm" fill="none" stroke="black" stroke-width="0.1mm" /><circle r="4.8000000000000345" cx="61.388784183957014mm" cy="12.7012397510052mm" fill="none" stroke="black" stroke-width="0.1mm" /><circle r="4.812500000000035" cx="72.23001511613796mm" cy="26.941410849042434mm" fill="none" stroke="black" stroke-width="0.1mm" /><circle r="4.825000000000035" cx="74.54667106311305mm" cy="44.73755405848363mm" fill="none" stroke="black" stroke-width="0.1mm" /><circle r="4.837500000000035" cx="67.67507939685541mm" cy="61.369164826397345mm" fill="none" stroke="black" stroke-width="0.1mm" /><circle r="4.850000000000035" cx="53.395326218414716mm" cy="72.4001363500563mm" fill="none" stroke="black" stroke-width="0.1mm" /><circle r="4.862500000000035" cx="35.47041925845787mm" cy="74.86196958443166mm" fill="none" stroke="black" stroke-width="0.1mm" /><circle r="4.8750000000000355" cx="18.654719592383305mm" cy="68.05247768594073mm" fill="none" stroke="black" stroke-width="0.1mm" /><g transform="translate(135,285) scale(0.4)" fill="black" stroke="none">
<path
         d="m 6.909225,12.189723 h 3.199798 l 3.274213,9.11157 3.265944,-9.11157 h 3.199798 l -4.572322,12.344441 h -3.795109 z"
         style="font-size:16.9333px;stroke-width:0.265"
         id="path428" />
      <path
         d="M 27.827804,22.285211 H 22.85034 l -0.78548,2.248953 h -3.199799 l 4.572322,-12.344441 h 3.79511 l 4.572321,12.344441 h -3.199798 z m -4.183716,-2.290295 h 3.381699 l -1.686715,-4.911319 z"
         style="font-size:16.9333px;stroke-width:0.265"
         id="path430" />
      <path
         d="m 37.964634,17.66328 q 1.000454,0 1.430401,-0.37207 0.438215,-0.37207 0.438215,-1.223696 0,-0.843357 -0.438215,-1.207159 -0.429947,-0.363801 -1.430401,-0.363801 h -1.33945 v 3.166726 z m -1.33945,2.199344 v 4.67154 H 33.441922 V 12.189723 h 4.861709 q 2.439123,0 3.571868,0.818553 1.141013,0.818553 1.141013,2.58795 0,1.223696 -0.595311,2.009176 -0.587043,0.78548 -1.777666,1.15755 0.653189,0.148828 1.165818,0.677993 0.520898,0.520898 1.050063,1.587497 l 1.728057,3.505722 h -3.389967 l -1.504815,-3.067507 q -0.454752,-0.926039 -0.92604,-1.265036 -0.46302,-0.338997 -1.240232,-0.338997 z"
         style="font-size:16.9333px;stroke-width:0.265"
         id="path432" />
      <path
         d="m 46.480893,12.189723 h 3.183262 v 12.344441 h -3.183262 z"
         style="font-size:16.9333px;stroke-width:0.265"
         id="path434" />
      <path
         d="m 62.570834,23.856171 q -0.876431,0.454752 -1.827275,0.686262 -0.950845,0.23151 -1.984371,0.23151 -3.084044,0 -4.886514,-1.719789 -1.802471,-1.728056 -1.802471,-4.679808 0,-2.96002 1.802471,-4.679809 1.80247,-1.728056 4.886514,-1.728056 1.033526,0 1.984371,0.23151 0.950844,0.23151 1.827275,0.686261 v 2.554878 q -0.884699,-0.603579 -1.744593,-0.884699 -0.859894,-0.281119 -1.810739,-0.281119 -1.703252,0 -2.678901,1.091404 -0.975649,1.091404 -0.975649,3.00963 0,1.909957 0.975649,3.001361 0.975649,1.091404 2.678901,1.091404 0.950845,0 1.810739,-0.281119 0.859894,-0.281119 1.744593,-0.884699 z"
         style="font-size:16.9333px;stroke-width:0.265"
         id="path436" />
      <path
         d="m 65.208394,12.189723 h 3.183262 v 12.344441 h -3.183262 z"
         style="font-size:16.9333px;stroke-width:0.265"
         id="path438" />
      <path
         d="m 70.037033,12.189723 h 11.377061 v 2.40605 h -4.092766 v 9.938391 h -3.183262 v -9.938391 h -4.101033 z"
         style="font-size:16.9333px;stroke-width:0.265"
         id="path440" />
      <path
         d="m 83.059464,12.189723 h 8.590673 v 2.40605 h -5.407411 v 2.298563 h 5.084951 v 2.40605 h -5.084951 v 2.827728 h 5.589312 v 2.40605 h -8.772574 z"
         style="font-size:16.9333px;stroke-width:0.265"
         id="path442" />
         </g>
</svg>