<svg width="80mm" height="80mm" fill="none" stroke="black"><circle r="40mm" cx="40mm" cy="40mm" stroke-width="0.1mm" /><circle r="0.5" cx="39.167706326905716mm" cy="41.81859485365136mm" fill="none" stroke="black" stroke-width="0.1mm" /><circle r="0.511" cx="38.33265306085287mm" cy="41.26845543260956mm" fill="none" stroke="black" stroke-width="0.1mm" /><circle r="0.522" cx="37.8376642641005mm" cy="40.346993033434366mm" fill="none" stroke="black" stroke-width="0.1mm" /><circle r="0.533" cx="37.83987084117344mm" cy="39.25497180107914mm" fill="none" stroke="black" stroke-width="0.1mm" /><circle r="0.544" cx="38.38217463748664mm" cy="38.25442241753381mm" fill="none" stroke="black" stroke-width="0.1mm" /><circle r="0.555" cx="39.3728322955106mm" cy="37.60578078062064mm" fill="none" stroke="black" stroke-width="0.1mm" /><circle r="0.5660000000000001" cx="40.5985174634536mm" cy="37.500664719182105mm" fill="none" stroke="black" stroke-width="0.1mm" /><circle r="0.5770000000000001" cx="41.769814374416136mm" cy="38.00751861235543mm" fill="none" stroke="black" stroke-width="0.1mm" /><circle r="0.5880000000000001" cx="42.58955617328868mm" cy="39.04511842337255mm" fill="none" stroke="black" stroke-width="0.1mm" /><circle r="0.5990000000000001" cx="42.827871638179175mm" cy="40.39264105488581mm" fill="none" stroke="black" stroke-width="0.1mm" /><circle r="0.6100000000000001" cx="42.38506439126779mm" cy="41.736078295903276mm" fill="none" stroke="black" stroke-width="0.1mm" /><circle r="0.6210000000000001" cx="41.32543991717503mm" cy="42.74139271647808mm" fill="none" stroke="black" stroke-width="0.1mm" /><circle r="0.6320000000000001" cx="39.87165641597768mm" cy="43.13737596160236mm" fill="none" stroke="black" stroke-width="0.1mm" /><circle r="0.6430000000000001" cx="38.35867475346369mm" cy="42.787700922818395mm" fill="none" stroke="black" stroke-width="0.1mm" /><circle r="0.6540000000000001" cx="37.15663538489058mm" cy="41.733256376172804mm" fill="none" stroke="black" stroke-width="0.1mm" /><circle r="0.6650000000000001" cx="36.58040634508295mm" cy="40.192364849312675mm" fill="none" stroke="black" stroke-width="0.1mm" /><circle r="0.6760000000000002" cx="36.807883327281374mm" cy="38.51649363070064mm" fill="none" stroke="black" stroke-width="0.1mm" /><circle r="0.6870000000000002" cx="37.8280746611482mm" cy="37.11019631766213mm" fill="none" stroke="black" stroke-width="0.1mm" /><circle r="0.6980000000000002" cx="39.43357692342808mm" cy="36.33349418405932mm" fill="none" stroke="black" stroke-width="0.1mm" /><circle r="0.7090000000000002" cx="41.26161504174261mm" cy="36.410243394539286mm" fill="none" stroke="black" stroke-width="0.1mm" /><circle r="0.7200000000000002" cx="42.87583549061088mm" cy="37.36569359585053mm" fill="none" stroke="black" stroke-width="0.1mm" /><circle r="0.7310000000000002" cx="43.870455238045864mm" cy="39.01025192585014mm" fill="none" stroke="black" stroke-width="0.1mm" /><circle r="0.7420000000000002" cx="43.971910222130674mm" cy="40.97571983034777mm" fill="none" stroke="black" stroke-width="0.1mm" /><circle r="0.7530000000000002" cx="43.11261996624373mm" cy="42.79746705891972mm" fill="none" stroke="black" stroke-width="0.1mm" /><circle r="0.7640000000000002" cx="41.45727869166958mm" cy="44.02426873044108mm" fill="none" stroke="black" stroke-width="0.1mm" /><circle r="0.7750000000000002" cx="39.373017123329525mm" cy="44.329840351833084mm" fill="none" stroke="black" stroke-width="0.1mm" /><circle r="0.7860000000000003" cx="37.34833670423892mm" cy="43.59855273212906mm" fill="none" stroke="black" stroke-width="0.1mm" /><circle r="0.7970000000000003" cx="35.878625867580865mm" cy="41.963033433394976mm" fill="none" stroke="black" stroke-width="0.1mm" /><circle r="0.8080000000000003" cx="35.34508618120008mm" cy="39.78233663710772mm" fill="none" stroke="black" stroke-width="0.1mm" /><circle r="0.8190000000000003" cx="35.916628122192165mm" cy="37.56358888782535mm" fill="none" stroke="black" stroke-width="0.1mm" /><circle r="0.8300000000000003" cx="37.49981834666594mm" cy="35.84408954616058mm" fill="none" stroke="black" stroke-width="0.1mm" /><circle r="0.8410000000000003" cx="39.751105888452024mm" cy="35.06126770099484mm" fill="none" stroke="black" stroke-width="0.1mm" /><circle r="0.8520000000000003" cx="42.15077026649938mm" cy="35.44195356970312mm" fill="none" stroke="black" stroke-width="0.1mm" /><circle r="0.8630000000000003" cx="44.12282965027106mm" cy="36.93887264641834mm" fill="none" stroke="black" stroke-width="0.1mm" /><circle r="0.8740000000000003" cx="45.17326166731517mm" cy="39.23171377632584mm" fill="none" stroke="black" stroke-width="0.1mm" /><circle r="0.8850000000000003" cx="45.013374363762125mm" cy="41.79491016175537mm" fill="none" stroke="black" stroke-width="0.1mm" /><circle r="0.8960000000000004" cx="43.637604613382116mm" cy="44.0179886357108mm" fill="none" stroke="black" stroke-width="0.1mm" /><circle r="0.9070000000000004" cx="41.33509248489377mm" cy="45.35095814380754mm" fill="none" stroke="black" stroke-width="0.1mm" /><circle r="0.9180000000000004" cx="38.629868014013375mm" cy="45.440113816913794mm" fill="none" stroke="black" stroke-width="0.1mm" /><circle r="0.9290000000000004" cx="36.16176975243687mm" cy="44.22078352521087mm" fill="none" stroke="black" stroke-width="0.1mm" /><circle r="0.9400000000000004" cx="34.53511042412179mm" cy="41.94293127090427mm" fill="none" stroke="black" stroke-width="0.1mm" /><circle r="0.9510000000000004" cx="34.17088322365669mm" cy="39.12112423645153mm" fill="none" stroke="black" stroke-width="0.1mm" /><circle r="0.9620000000000004" cx="35.19861462430772mm" cy="36.41854799360813mm" fill="none" stroke="black" stroke-width="0.1mm" /><circle r="0.9730000000000004" cx="37.41547025099483mm" cy="34.49114975911422mm" fill="none" stroke="black" stroke-width="0.1mm" /><circle r="0.9840000000000004" cx="40.324712069144134mm" cy="33.82853647242794mm" fill="none" stroke="black" stroke-width="0.1mm" /><circle r="0.9950000000000004" cx="43.246661655394696mm" cy="34.63019431493189mm" fill="none" stroke="black" stroke-width="0.1mm" /><circle r="1.0060000000000004" cx="45.47746762187682mm" cy="36.74819304827438mm" fill="none" stroke="black" stroke-width="0.1mm" /><circle r="1.0170000000000003" cx="46.45859615280019mm" cy="39.712318344285684mm" fill="none" stroke="black" stroke-width="0.1mm" /><circle r="1.0280000000000002" cx="45.9162436107226mm" cy="42.83401862001362mm" fill="none" stroke="black" stroke-width="0.1mm" /><circle r="1.0390000000000001" cx="43.93596907711109mm" cy="45.36629969569584mm" fill="none" stroke="black" stroke-width="0.1mm" /><circle r="1.05" cx="40.952560054404216mm" cy="46.682449352052984mm" fill="none" stroke="black" stroke-width="0.1mm" /><circle r="1.061" cx="37.65513930517906mm" cy="46.43083612929795mm" fill="none" stroke="black" stroke-width="0.1mm" /><circle r="1.0719999999999998" cx="34.828078622415646mm" cy="44.627615937400805mm" fill="none" stroke="black" stroke-width="0.1mm" /><circle r="1.0829999999999997" cx="33.16442311725146mm" cy="41.66316375622898mm" fill="none" stroke="black" stroke-width="0.1mm" /><circle r="1.0939999999999996" cx="33.096204660652816mm" cy="38.218284559081326mm" fill="none" stroke="black" stroke-width="0.1mm" /><circle r="1.1049999999999995" cx="34.6831426689278mm" cy="35.108001111915115mm" fill="none" stroke="black" stroke-width="0.1mm" /><circle r="1.1159999999999994" cx="37.58821227888128mm" cy="33.08872804845151mm" fill="none" stroke="black" stroke-width="0.1mm" /><circle r="1.1269999999999993" cx="41.14829596055498mm" cy="32.67445282678672mm" fill="none" stroke="black" stroke-width="0.1mm" /><circle r="1.1379999999999992" cx="44.525350945354894mm" cy="34.00656201989413mm" fill="none" stroke="black" stroke-width="0.1mm" /><circle r="1.1489999999999991" cx="46.90367995135794mm" cy="36.81013665978958mm" fill="none" stroke="black" stroke-width="0.1mm" /><circle r="1.159999999999999" cx="47.686869773619605mm" cy="40.44948090439213mm" fill="none" stroke="black" stroke-width="0.1mm" /><circle r="1.170999999999999" cx="46.64686955646092mm" cy="44.071995837349654mm" fill="none" stroke="black" stroke-width="0.1mm" /><circle r="1.1819999999999988" cx="43.98805342930638mm" cy="46.80790201493805mm" fill="none" stroke="black" stroke-width="0.1mm" /><circle r="1.1929999999999987" cx="40.3087212413098mm" cy="47.97902977780908mm" fill="none" stroke="black" stroke-width="0.1mm" /><circle r="1.2039999999999986" cx="36.466816407931596mm" cy="47.2665682206072mm" fill="none" stroke="black" stroke-width="0.1mm" /><circle r="1.2149999999999985" cx="33.37991204601682mm" cy="44.796359085965804mm" fill="none" stroke="black" stroke-width="0.1mm" /><circle r="1.2259999999999984" cx="31.806085239755838mm" cy="41.11922334761778mm" fill="none" stroke="black" stroke-width="0.1mm" /><circle r="1.2369999999999983" cx="32.15800398818704mm" cy="37.088587361655925mm" fill="none" stroke="black" stroke-width="0.1mm" /><circle r="1.2479999999999982" cx="34.39576277429855mm" cy="33.66248273232632mm" fill="none" stroke="black" stroke-width="0.1mm" /><circle r="1.2589999999999981" cx="38.02607411537585mm" cy="31.675839886089967mm" fill="none" stroke="black" stroke-width="0.1mm" /><circle r="1.269999999999998" cx="42.210430532531724mm" cy="31.637195634187567mm" fill="none" stroke="black" stroke-width="0.1mm" /><circle r="1.280999999999998" cx="45.95866703641856mm" cy="33.59927252969643mm" fill="none" stroke="black" stroke-width="0.1mm" /><circle r="1.2919999999999978" cx="48.36326869994182mm" cy="37.1362024071919mm" fill="none" stroke="black" stroke-width="0.1mm" /><circle r="1.3029999999999977" cx="48.818977991341875mm" cy="41.43521851584615mm" fill="none" stroke="black" stroke-width="0.1mm" /><circle r="1.3139999999999976" cx="47.17458693343289mm" cy="45.48326566332638mm" fill="none" stroke="black" stroke-width="0.1mm" /><circle r="1.3249999999999975" cx="43.778969782960836mm" cy="48.30572166518172mm" fill="none" stroke="black" stroke-width="0.1mm" /><circle r="1.3359999999999974" cx="39.40804013913934mm" cy="49.20097731347762mm" fill="none" stroke="black" stroke-width="0.1mm" /><circle r="1.3469999999999973" cx="35.087668413714745mm" cy="47.91443133689239mm" fill="none" stroke="black" stroke-width="0.1mm" /><circle r="1.3579999999999972" cx="31.85292108331182mm" cy="44.708843289519734mm" fill="none" stroke="black" stroke-width="0.1mm" /><circle r="1.368999999999997" cx="30.500122310852014mm" cy="40.312007838408505mm" fill="none" stroke="black" stroke-width="0.1mm" /><circle r="1.379999999999997" cx="31.39111920319194mm" cy="35.7518037443699mm" fill="none" stroke="black" stroke-width="0.1mm" /><circle r="1.390999999999997" cx="34.35779306189499mm" cy="32.11593214973388mm" fill="none" stroke="black" stroke-width="0.1mm" /><circle r="1.4019999999999968" cx="38.731743917403236mm" cy="30.292496381203023mm" fill="none" stroke="black" stroke-width="0.1mm" /><circle r="1.4129999999999967" cx="43.49451085431678mm" cy="30.753291456466126mm" fill="none" stroke="black" stroke-width="0.1mm" /><circle r="1.4239999999999966" cx="47.51465905564673mm" cy="33.43263376402788mm" fill="none" stroke="black" stroke-width="0.1mm" /><circle r="1.4349999999999965" cx="49.81655621788806mm" cy="37.73265595441642mm" fill="none" stroke="black" stroke-width="0.1mm" /><circle r="1.4459999999999964" cx="49.816990783452525mm" cy="42.65623642727983mm" fill="none" stroke="black" stroke-width="0.1mm" /><circle r="1.4569999999999963" cx="47.472280855827066mm" cy="47.03812786269478mm" fill="none" stroke="black" stroke-width="0.1mm" /><circle r="1.4679999999999962" cx="43.29891158307203mm" cy="49.82073227244656mm" fill="none" stroke="black" stroke-width="0.1mm" /><circle r="1.478999999999996" cx="38.26038271791212mm" cy="50.30925587575851mm" fill="none" stroke="black" stroke-width="0.1mm" /><circle r="1.489999999999996" cx="33.54489925055489mm" cy="48.34470936069756mm" fill="none" stroke="black" stroke-width="0.1mm" /><circle r="1.500999999999996" cx="30.285166716392894mm" cy="44.35178575664288mm" fill="none" stroke="black" stroke-width="0.1mm" /><circle r="1.5119999999999958" cx="29.28636901665628mm" cy="39.24786227807814mm" fill="none" stroke="black" stroke-width="0.1mm" /><circle r="1.5229999999999957" cx="30.827640488156565mm" cy="34.23241419782111mm" fill="none" stroke="black" stroke-width="0.1mm" /><circle r="1.5339999999999956" cx="34.58590021425542mm" cy="30.505136993615928mm" fill="none" stroke="black" stroke-width="0.1mm" /><circle r="1.5449999999999955" cx="39.702462372020854mm" cy="28.97901563561871mm" fill="none" stroke="black" stroke-width="0.1mm" /><circle r="1.5559999999999954" cx="44.97898659829426mm" cy="30.056957585627707mm" fill="none" stroke="black" stroke-width="0.1mm" /><circle r="1.5669999999999953" cx="49.15811210661659mm" cy="33.52657682190922mm" fill="none" stroke="black" stroke-width="0.1mm" /><circle r="1.5779999999999952" cx="51.22306150020472mm" cy="38.60036055977874mm" fill="none" stroke="black" stroke-width="0.1mm" /><circle r="1.588999999999995" cx="50.64482868745206mm" cy="44.09409907242095mm" fill="none" stroke="black" stroke-width="0.1mm" /><circle r="1.599999999999995" cx="47.51690163993227mm" cy="48.70322869604056mm" fill="none" stroke="black" stroke-width="0.1mm" /><circle r="1.6109999999999949" cx="42.54338459566147mm" cy="51.312613305445936mm" fill="none" stroke="black" stroke-width="0.1mm" /><circle r="1.6219999999999948" cx="36.88090887702959mm" cy="51.26620479871583mm" fill="none" stroke="black" stroke-width="0.1mm" /><circle r="1.6329999999999947" cx="31.8697263427114mm" cy="48.53140523346532mm" fill="none" stroke="black" stroke-width="0.1mm" /><circle r="1.6439999999999946" cx="28.71648526227323mm" cy="43.717081538452355mm" fill="none" stroke="black" stroke-width="0.1mm" /><circle r="1.6549999999999945" cx="28.203772323651787mm" cy="37.938535082094056mm" fill="none" stroke="black" stroke-width="0.1mm" /><circle r="1.6659999999999944" cx="30.496316869105822mm" cy="32.5592401632926mm" fill="none" stroke="black" stroke-width="0.1mm" /><circle r="1.6769999999999943" cx="35.09175095228597mm" cy="28.8691277841485mm" fill="none" stroke="black" stroke-width="0.1mm" /><circle r="1.6879999999999942" cx="40.93000206269514mm" cy="27.775324292097423mm" fill="none" stroke="black" stroke-width="0.1mm" /><circle r="1.698999999999994" cx="46.63767436143148mm" cy="29.579476785132343mm" fill="none" stroke="black" stroke-width="0.1mm" /><circle r="1.709999999999994" cx="50.851118366548604mm" cy="33.89625277430723mm" fill="none" stroke="black" stroke-width="0.1mm" /><circle r="1.7209999999999939" cx="52.542194252362705mm" cy="39.734691997858235mm" fill="none" stroke="black" stroke-width="0.1mm" /><circle r="1.7319999999999938" cx="51.26891469445326mm" cy="45.72548352623043mm" fill="none" stroke="black" stroke-width="0.1mm" /><circle r="1.7429999999999937" cx="47.28991934220706mm" cy="50.442092749258464mm" fill="none" stroke="black" stroke-width="0.1mm" /><circle r="1.7539999999999936" cx="41.51335580408008mm" cy="52.74043383132057mm" fill="none" stroke="black" stroke-width="0.1mm" /><circle r="1.7649999999999935" cx="35.28988010681094mm" cy="52.03621184558437mm" fill="none" stroke="black" stroke-width="0.1mm" /><circle r="1.7759999999999934" cx="30.09689264505456mm" cy="48.452743029125294mm" fill="none" stroke="black" stroke-width="0.1mm" /><circle r="1.7869999999999933" cx="27.187820773859485mm" cy="42.802015074415955mm" fill="none" stroke="black" stroke-width="0.1mm" /><circle r="1.7979999999999932" cx="27.289703054116103mm" cy="36.401048548888824mm" fill="none" stroke="black" stroke-width="0.1mm" /><circle r="1.808999999999993" cx="30.422010811646583mm" cy="30.76500416308779mm" fill="none" stroke="black" stroke-width="0.1mm" /><circle r="1.819999999999993" cx="35.88173954228776mm" cy="27.248532209880914mm" fill="none" stroke="black" stroke-width="0.1mm" /><circle r="1.8309999999999929" cx="42.40073288939719mm" cy="26.72025954343356mm" fill="none" stroke="black" stroke-width="0.1mm" /><circle r="1.8419999999999928" cx="48.44014560741104mm" cy="29.348613136041813mm" fill="none" stroke="black" stroke-width="0.1mm" /><circle r="1.8529999999999927" cx="52.553695387188526mm" cy="34.551701446719136mm" fill="none" stroke="black" stroke-width="0.1mm" /><circle r="1.8639999999999926" cx="53.73395650914607mm" cy="41.12553925070844mm" fill="none" stroke="black" stroke-width="0.1mm" /><circle r="1.8749999999999925" cx="51.658792235056175mm" cy="47.52251212161168mm" fill="none" stroke="black" stroke-width="0.1mm" /><circle r="1.8859999999999923" cx="46.777710975752726mm" cy="52.215708490675524mm" fill="none" stroke="black" stroke-width="0.1mm" /><circle r="1.8969999999999922" cx="40.21531756436252mm" cy="54.06335178207805mm" fill="none" stroke="black" stroke-width="0.1mm" /><circle r="1.9079999999999921" cx="33.512385131817766mm" cy="52.58635981219915mm" fill="none" stroke="black" stroke-width="0.1mm" /><circle r="1.918999999999992" cx="28.26411888418368mm" cy="48.09160796352782mm" fill="none" stroke="black" stroke-width="0.1mm" /><circle r="1.929999999999992" cx="25.740534097859914mm" cy="41.6093887615195mm" fill="none" stroke="black" stroke-width="0.1mm" /><circle r="1.9409999999999918" cx="26.579286132788425mm" cy="34.65748520877705mm" fill="none" stroke="black" stroke-width="0.1mm" /><circle r="1.9519999999999917" cx="30.625209079336216mm" cy="28.8858245832702mm" fill="none" stroke="black" stroke-width="0.1mm" /><circle r="1.9629999999999916" cx="36.95679579369812mm" cy="25.68489842303773mm" fill="none" stroke="black" stroke-width="0.1mm" /><circle r="1.9739999999999915" cx="44.09577307931749mm" cy="25.85088190441753mm" fill="none" stroke="black" stroke-width="0.1mm" /><circle r="1.9849999999999914" cx="50.352184950752886mm" cy="29.388077848692696mm" fill="none" stroke="black" stroke-width="0.1mm" /><circle r="1.9959999999999913" cx="54.22444275804936mm" cy="35.49759750544465mm" fill="none" stroke="black" stroke-width="0.1mm" /><circle r="2.0069999999999912" cx="54.75964150214298mm" cy="42.75739147170286mm" fill="none" stroke="black" stroke-width="0.1mm" /><circle r="2.0179999999999914" cx="51.78769993769817mm" cy="49.453159798648905mm" fill="none" stroke="black" stroke-width="0.1mm" /><circle r="2.0289999999999915" cx="45.97187428461922mm" cy="53.98315924706234mm" fill="none" stroke="black" stroke-width="0.1mm" /><circle r="2.0399999999999916" cx="38.66126555337714mm" cy="55.24131851518847mm" fill="none" stroke="black" stroke-width="0.1mm" /><circle r="2.0509999999999917" cx="31.577987073746208mm" cy="52.88703702446824mm" fill="none" stroke="black" stroke-width="0.1mm" /><circle r="2.061999999999992" cx="26.411503709034506mm" cy="47.43591746527746mm" fill="none" stroke="black" stroke-width="0.1mm" /><circle r="2.072999999999992" cx="24.415698628510782mm" cy="40.147566129584725mm" fill="none" stroke="black" stroke-width="0.1mm" /><circle r="2.083999999999992" cx="26.10475949538713mm" cy="32.73469262047591mm" fill="none" stroke="black" stroke-width="0.1mm" /><circle r="2.094999999999992" cx="31.12159742306618mm" cy="26.9606521373998mm" fill="none" stroke="black" stroke-width="0.1mm" /><circle r="2.1059999999999923" cx="38.31227689536989mm" cy="24.219997125409034mm" fill="none" stroke="black" stroke-width="0.1mm" /><circle r="2.1169999999999924" cx="45.9912241184703mm" cy="25.20180894290585mm" fill="none" stroke="black" stroke-width="0.1mm" /><circle r="2.1279999999999926" cx="52.336312490804865mm" cy="29.7170532370719mm" fill="none" stroke="black" stroke-width="0.1mm" /><circle r="2.1389999999999927" cx="55.82122771098814mm" cy="36.73307809749568mm" fill="none" stroke="black" stroke-width="0.1mm" /><circle r="2.149999999999993" cx="55.582519463275986mm" cy="44.60951051377765mm" fill="none" stroke="black" stroke-width="0.1mm" /><circle r="2.160999999999993" cx="51.633094405150764mm" cy="51.48173068665397mm" fill="none" stroke="black" stroke-width="0.1mm" /><circle r="2.171999999999993" cx="44.869462960288786mm" cy="55.70229061246725mm" fill="none" stroke="black" stroke-width="0.1mm" /><circle r="2.182999999999993" cx="36.86859024936044mm" cy="56.235778329775286mm" fill="none" stroke="black" stroke-width="0.1mm" /><circle r="2.1939999999999933" cx="29.52029679215188mm" cy="52.912502494691694mm" fill="none" stroke="black" stroke-width="0.1mm" /><circle r="2.2049999999999934" cx="24.58088022277532mm" cy="46.47891737064149mm" fill="none" stroke="black" stroke-width="0.1mm" /><circle r="2.2159999999999935" cx="23.253393030923085mm" cy="38.430428394986144mm" fill="none" stroke="black" stroke-width="0.1mm" /><circle r="2.2269999999999937" cx="25.89487129446877mm" cy="30.663910390297215mm" fill="none" stroke="black" stroke-width="0.1mm" /><circle r="2.2379999999999938" cx="31.921705809176174mm" cy="25.03065589391094mm" fill="none" stroke="black" stroke-width="0.1mm" /><circle r="2.248999999999994" cx="39.93794527569542mm" cy="22.8951125636211mm" fill="none" stroke="black" stroke-width="0.1mm" /><circle r="2.259999999999994" cx="48.05848674636758mm" cy="24.804579921613904mm" fill="none" stroke="black" stroke-width="0.1mm" /><circle r="2.270999999999994" cx="54.35236297192256mm" cy="30.349782275917942mm" fill="none" stroke="black" stroke-width="0.1mm" /><circle r="2.2819999999999943" cx="57.30188979132919mm" cy="38.25165516882401mm" fill="none" stroke="black" stroke-width="0.1mm" /><circle r="2.2929999999999944" cx="56.16850018366611mm" cy="46.656187107555645mm" fill="none" stroke="black" stroke-width="0.1mm" /><circle r="2.3039999999999945" cx="51.17711294121898mm" cy="53.56939741842784mm" fill="none" stroke="black" stroke-width="0.1mm" /><circle r="2.3149999999999946" cx="43.47313926271239mm" cy="57.33040474604695mm" fill="none" stroke="black" stroke-width="0.1mm" /><circle r="2.3259999999999947" cx="34.85988289822233mm" cy="57.010352617744694mm" fill="none" stroke="black" stroke-width="0.1mm" /><circle r="2.336999999999995" cx="27.37647812265918mm" cy="52.64139709099823mm" fill="none" stroke="black" stroke-width="0.1mm" /><circle r="2.347999999999995" cx="22.815138024699934mm" cy="45.21939832642488mm" fill="none" stroke="black" stroke-width="0.1mm" /><circle r="2.358999999999995" cx="22.292001304190247mm" cy="36.4772443756058mm" fill="none" stroke="black" stroke-width="0.1mm" /><circle r="2.369999999999995" cx="25.974324550860295mm" cy="28.480324301639364mm" fill="none" stroke="black" stroke-width="0.1mm" /><circle r="2.3809999999999953" cx="33.03062993869786mm" cy="23.13856750010171mm" fill="none" stroke="black" stroke-width="0.1mm" /><circle r="2.3919999999999955" cx="41.81803347522064mm" cy="21.750332762404188mm" fill="none" stroke="black" stroke-width="0.1mm" /><circle r="2.4029999999999956" cx="50.26465400201754mm" cy="24.687060921597514mm" fill="none" stroke="black" stroke-width="0.1mm" /><circle r="2.4139999999999957" cx="56.35811370898338mm" cy="31.295230279670196mm" fill="none" stroke="black" stroke-width="0.1mm" /><circle r="2.424999999999996" cx="58.6249543991959mm" cy="40.0412144134246mm" fill="none" stroke="black" stroke-width="0.1mm" /><circle r="2.435999999999996" cx="56.486762417700405mm" cy="48.86707758973057mm" fill="none" stroke="black" stroke-width="0.1mm" /><circle r="2.446999999999996" cx="50.40696895831766mm" cy="55.67479575945451mm" fill="none" stroke="black" stroke-width="0.1mm" /><circle r="2.457999999999996" cx="41.79124114545529mm" cy="58.824971584542396mm" fill="none" stroke="black" stroke-width="0.1mm" /><circle r="2.4689999999999963" cx="32.66265812482538mm" cy="57.53149848720324mm" fill="none" stroke="black" stroke-width="0.1mm" /><circle r="2.4799999999999964" cx="25.18669172045197mm" cy="52.05719278335859mm" fill="none" stroke="black" stroke-width="0.1mm" /><circle r="2.4909999999999966" cx="21.157520426601888mm" cy="43.661828576828164mm" fill="none" stroke="black" stroke-width="0.1mm" /><circle r="2.5019999999999967" cx="21.567530510456823mm" cy="34.31245496571146mm" fill="none" stroke="black" stroke-width="0.1mm" /><circle r="2.512999999999997" cx="26.36327778550754mm" cy="26.222553493307686mm" fill="none" stroke="black" stroke-width="0.1mm" /><circle r="2.523999999999997" cx="34.44783377277742mm" cy="21.327992872074805mm" fill="none" stroke="black" stroke-width="0.1mm" /><circle r="2.534999999999997" cx="43.93139580527997mm" cy="20.82384939508903mm" fill="none" stroke="black" stroke-width="0.1mm" /><circle r="2.545999999999997" cx="52.57297620510119mm" cy="24.872899506317825mm" fill="none" stroke="black" stroke-width="0.1mm" /><circle r="2.5569999999999973" cx="58.30995248596328mm" cy="32.5568242690524mm" fill="none" stroke="black" stroke-width="0.1mm" /><circle r="2.5679999999999974" cx="59.75034482006533mm" cy="42.084101602254265mm" fill="none" stroke="black" stroke-width="0.1mm" /><circle r="2.5789999999999975" cx="56.510340628299005mm" cy="51.20761693392218mm" fill="none" stroke="black" stroke-width="0.1mm" /><circle r="2.5899999999999976" cx="49.315273697241494mm" cy="57.75466631467572mm" fill="none" stroke="black" stroke-width="0.1mm" /><circle r="2.6009999999999978" cx="39.837762165955844mm" cy="60.14434669790025mm" fill="none" stroke="black" stroke-width="0.1mm" /><circle r="2.611999999999998" cx="30.308996530244105mm" cy="57.76913199200172mm" fill="none" stroke="black" stroke-width="0.1mm" /><circle r="2.622999999999998" cx="22.993485118386623mm" cy="51.148572849538304mm" fill="none" stroke="black" stroke-width="0.1mm" /><circle r="2.633999999999998" cx="19.65090691524148mm" cy="41.8164004591039mm" fill="none" stroke="black" stroke-width="0.1mm" /><circle r="2.6449999999999982" cx="21.112956312031063mm" cy="31.96537457445883mm" fill="none" stroke="black" stroke-width="0.1mm" /><circle r="2.6559999999999984" cx="27.076909434753638mm" cy="23.932077600310603mm" fill="none" stroke="black" stroke-width="0.1mm" /><circle r="2.6669999999999985" cx="36.167036673381695mm" cy="19.64270113357868mm" fill="none" stroke="black" stroke-width="0.1mm" /><circle r="2.6779999999999986" cx="46.25174534860981mm" cy="20.151277620558666mm" fill="none" stroke="black" stroke-width="0.1mm" /><circle r="2.6889999999999987" cx="54.94339171605412mm" cy="25.38103734800022mm" fill="none" stroke="black" stroke-width="0.1mm" /><circle r="2.699999999999999" cx="60.163576019659445mm" cy="34.13227453782865mm" fill="none" stroke="black" stroke-width="0.1mm" /><circle r="2.710999999999999" cx="60.640082318718825mm" cy="44.357295821551475mm" fill="none" stroke="black" stroke-width="0.1mm" /><circle r="2.721999999999999" cx="56.21666010617474mm" cy="53.63950274023213mm" fill="none" stroke="black" stroke-width="0.1mm" /><circle r="2.732999999999999" cx="47.90027888160929mm" cy="59.76453436316671mm" fill="none" stroke="black" stroke-width="0.1mm" /><circle r="2.7439999999999993" cx="37.632243672232626mm" cy="61.248485357133504mm" fill="none" stroke="black" stroke-width="0.1mm" /><circle r="2.7549999999999994" cx="27.835111758190834mm" cy="57.6972065327919mm" fill="none" stroke="black" stroke-width="0.1mm" /><circle r="2.7659999999999996" cx="20.84113741186379mm" cy="49.90973684458442mm" fill="none" stroke="black" stroke-width="0.1mm" /><circle r="2.7769999999999997" cx="18.33709120519212mm" cy="39.69898912339472mm" fill="none" stroke="black" stroke-width="0.1mm" /><circle r="2.788" cx="20.957606136255524mm" cy="29.46981311001434mm" fill="none" stroke="black" stroke-width="0.1mm" /><circle r="2.799" cx="28.12505301099423mm" cy="21.652611657015mm" fill="none" stroke="black" stroke-width="0.1mm" /><circle r="2.81" cx="38.176187608163815mm" cy="18.125900970339742mm" fill="none" stroke="black" stroke-width="0.1mm" /><circle r="2.821" cx="48.74797365389294mm" cy="19.765006005664496mm" fill="none" stroke="black" stroke-width="0.1mm" /><circle r="2.8320000000000003" cx="57.33311635687287mm" cy="26.22528848363404mm" fill="none" stroke="black" stroke-width="0.1mm" /><circle r="2.8430000000000004" cx="61.874709089318095mm" cy="36.013481812696305mm" fill="none" stroke="black" stroke-width="0.1mm" /><circle r="2.8540000000000005" cx="61.258963966846636mm" cy="46.83266793107313mm" fill="none" stroke="black" stroke-width="0.1mm" /><circle r="2.8650000000000007" cx="55.5880121567607mm" cy="56.12124381059599mm" fill="none" stroke="black" stroke-width="0.1mm" /><circle r="2.876000000000001" cx="46.16603599841498mm" cy="61.65941827626608mm" fill="none" stroke="black" stroke-width="0.1mm" /><circle r="2.887000000000001" cx="35.19957998071887mm" cy="62.099642364492766mm" fill="none" stroke="black" stroke-width="0.1mm" /><circle r="2.898000000000001" cx="25.280847601103943mm" cy="57.29423755642529mm" fill="none" stroke="black" stroke-width="0.1mm" /><circle r="2.909000000000001" cx="18.77496767564468mm" cy="48.340625146238764mm" fill="none" stroke="black" stroke-width="0.1mm" /><circle r="2.9200000000000013" cx="17.256065360438534mm" cy="37.33102320891422mm" fill="none" stroke="black" stroke-width="0.1mm" /><circle r="2.9310000000000014" cx="21.126589330934145mm" cy="26.863623227206467mm" fill="none" stroke="black" stroke-width="0.1mm" /><circle r="2.9420000000000015" cx="29.511909031020323mm" cy="19.42943734784084mm" fill="none" stroke="black" stroke-width="0.1mm" /><circle r="2.9530000000000016" cx="40.457527668946156mm" cy="16.81951481456553mm" fill="none" stroke="black" stroke-width="0.1mm" /><circle r="2.9640000000000017" cx="51.38454930168985mm" cy="19.693586303894246mm" fill="none" stroke="black" stroke-width="0.1mm" /><circle r="2.975000000000002" cx="59.69728350377973mm" cy="27.41399000589444mm" fill="none" stroke="black" stroke-width="0.1mm" /><circle r="2.986000000000002" cx="63.39983407290458mm" cy="38.18653222787608mm" fill="none" stroke="black" stroke-width="0.1mm" /><circle r="2.997000000000002" cx="61.575208110880794mm" cy="49.47732135005359mm" fill="none" stroke="black" stroke-width="0.1mm" /><circle r="3.0080000000000022" cx="54.61196182524351mm" cy="58.60876598857711mm" fill="none" stroke="black" stroke-width="0.1mm" /><circle r="3.0190000000000023" cx="44.12246902908817mm" cy="63.39455650582431mm" fill="none" stroke="black" stroke-width="0.1mm" /><circle r="3.0300000000000025" cx="32.56973848019518mm" cy="62.66304731820736mm" fill="none" stroke="black" stroke-width="0.1mm" /><circle r="3.0410000000000026" cx="22.689111734288012mm" cy="56.54376536499575mm" fill="none" stroke="black" stroke-width="0.1mm" /><circle r="3.0520000000000027" cx="16.840616791521274mm" cy="46.44705897311567mm" fill="none" stroke="black" stroke-width="0.1mm" /><circle r="3.063000000000003" cx="16.44532045625718mm" cy="34.73926843570393mm" fill="none" stroke="black" stroke-width="0.1mm" /><circle r="3.074000000000003" cx="21.640283087109815mm" cy="24.188178635004384mm" fill="none" stroke="black" stroke-width="0.1mm" /><circle r="3.085000000000003" cx="31.235838708114912mm" cy="17.308699864269112mm" fill="none" stroke="black" stroke-width="0.1mm" /><circle r="3.096000000000003" cx="42.98774093030166mm" cy="15.763461382998653mm" fill="none" stroke="black" stroke-width="0.1mm" /><circle r="3.1070000000000033" cx="54.12199038981812mm" cy="19.96117237885704mm" fill="none" stroke="black" stroke-width="0.1mm" /><circle r="3.1180000000000034" cx="61.98962609527249mm" cy="28.949731035395182mm" fill="none" stroke="black" stroke-width="0.1mm" /><circle r="3.1290000000000036" cx="64.69692040733798mm" cy="40.6317811279311mm" fill="none" stroke="black" stroke-width="0.1mm" /><circle r="3.1400000000000037" cx="61.56105776066909mm" cy="52.254011108248946mm" fill="none" stroke="black" stroke-width="0.1mm" /><circle r="3.151000000000004" cx="53.28168151305409mm" cy="61.05606708732175mm" fill="none" stroke="black" stroke-width="0.1mm" /><circle r="3.162000000000004" cx="41.785358637813445mm" cy="64.92614279294696mm" fill="none" stroke="black" stroke-width="0.1mm" /><circle r="3.173000000000004" cx="29.777397797948268mm" cy="62.90754524645982mm" fill="none" stroke="black" stroke-width="0.1mm" /><circle r="3.184000000000004" cx="20.105253601262536mm" cy="55.43474864485715mm" fill="none" stroke="black" stroke-width="0.1mm" /><circle r="3.1950000000000043" cx="15.083312812066541mm" cy="44.24079291862612mm" fill="none" stroke="black" stroke-width="0.1mm" /><circle r="3.2060000000000044" cx="15.93917410460363mm" cy="31.955526292452667mm" fill="none" stroke="black" stroke-width="0.1mm" /><circle r="3.2170000000000045" cx="22.51388219803344mm" cy="21.48779026653639mm" fill="none" stroke="black" stroke-width="0.1mm" /><circle r="3.2280000000000046" cx="33.289243304241566mm" cy="15.336680179458199mm" fill="none" stroke="black" stroke-width="0.1mm" /><circle r="3.2390000000000048" cx="45.73819244417568mm" cy="14.994957059153013mm" fill="none" stroke="black" stroke-width="0.1mm" /><circle r="3.250000000000005" cx="56.917404917020235mm" cy="20.587016950669945mm" fill="none" stroke="black" stroke-width="0.1mm" /><circle r="3.261000000000005" cx="64.16319114512781mm" cy="30.829164777185596mm" fill="none" stroke="black" stroke-width="0.1mm" /><circle r="3.272000000000005" cx="65.72614340676651mm" cy="43.324025483428244mm" fill="none" stroke="black" stroke-width="0.1mm" /><circle r="3.2830000000000052" cx="61.19333268707081mm" cy="55.121635976809266mm" fill="none" stroke="black" stroke-width="0.1mm" /><circle r="3.2940000000000054" cx="51.59620481709931mm" cy="63.415911979674824mm" fill="none" stroke="black" stroke-width="0.1mm" /><circle r="3.3050000000000055" cx="39.176237040248296mm" cy="66.21205904895945mm" fill="none" stroke="black" stroke-width="0.1mm" /><circle r="3.3160000000000056" cx="26.86150833040964mm" cy="62.806192945077456mm" fill="none" stroke="black" stroke-width="0.1mm" /><circle r="3.3270000000000057" cx="17.57639481242888mm" cy="53.96188222955378mm" fill="none" stroke="black" stroke-width="0.1mm" /><circle r="3.338000000000006" cx="13.547130298130096mm" cy="41.73947823668167mm" fill="none" stroke="black" stroke-width="0.1mm" /><circle r="3.349000000000006" cx="15.768134877748533mm" cy="29.016251200204515mm" fill="none" stroke="black" stroke-width="0.1mm" /><circle r="3.360000000000006" cx="23.757019902001378mm" cy="18.809068035218072mm" fill="none" stroke="black" stroke-width="0.1mm" /><circle r="3.371000000000006" cx="35.65853187956911mm" cy="13.559052975370228mm" fill="none" stroke="black" stroke-width="0.1mm" /><circle r="3.3820000000000063" cx="48.675250944537254mm" cy="14.547846435924107mm" fill="none" stroke="black" stroke-width="0.1mm" /><circle r="3.3930000000000065" cx="59.72509204906343mm" cy="21.585034112006333mm" fill="none" stroke="black" stroke-width="0.1mm" /><circle r="3.4040000000000066" cx="66.17107681876628mm" cy="33.04290734960143mm" fill="none" stroke="black" stroke-width="0.1mm" /><circle r="3.4150000000000067" cx="66.4505819316554mm" cy="46.23276347030591mm" fill="none" stroke="black" stroke-width="0.1mm" /><circle r="3.426000000000007" cx="60.45392165142722mm" cy="58.035797433916585mm" fill="none" stroke="black" stroke-width="0.1mm" /><circle r="3.437000000000007" cx="49.560595983575396mm" cy="65.64055829031102mm" fill="none" stroke="black" stroke-width="0.1mm" /><circle r="3.448000000000007" cx="36.322194010388685mm" cy="67.21259530259425mm" fill="none" stroke="black" stroke-width="0.1mm" /><circle r="3.459000000000007" cx="23.86478055612117mm" cy="62.33680188607737mm" fill="none" stroke="black" stroke-width="0.1mm" /><circle r="3.4700000000000073" cx="15.150721150802454mm" cy="52.12583360741927mm" fill="none" stroke="black" stroke-width="0.1mm" /><circle r="3.4810000000000074" cx="12.274254241538113mm" cy="38.966536339715994mm" fill="none" stroke="black" stroke-width="0.1mm" /><circle r="3.4920000000000075" cx="15.958313239341603mm" cy="25.962090693326953mm" fill="none" stroke="black" stroke-width="0.1mm" /><circle r="3.5030000000000077" cx="25.373466132600797mm" cy="16.20023672332393mm" fill="none" stroke="black" stroke-width="0.1mm" /><circle r="3.514000000000008" cx="38.3241789730671mm" cy="12.020140745784936mm" fill="none" stroke="black" stroke-width="0.1mm" /><circle r="3.525000000000008" cx="51.760692638802674mm" cy="14.451972020220285mm" fill="none" stroke="black" stroke-width="0.1mm" /><circle r="3.536000000000008" cx="62.497196344705344mm" cy="22.96343471741528mm" fill="none" stroke="black" stroke-width="0.1mm" /><circle r="3.547000000000008" cx="67.96718173063178mm" cy="35.575525901781035mm" fill="none" stroke="black" stroke-width="0.1mm" /><circle r="3.5580000000000083" cx="66.83688460204048mm" cy="49.32253854144656mm" fill="none" stroke="black" stroke-width="0.1mm" /><circle r="3.5690000000000084" cx="59.33020694442388mm" cy="60.94941823740557mm" fill="none" stroke="black" stroke-width="0.1mm" /><circle r="3.5800000000000085" cx="47.18603149784078mm" cy="67.68250262010345mm" fill="none" stroke="black" stroke-width="0.1mm" /><circle r="3.5910000000000086" cx="33.2555957199955mm" cy="67.89114619207771mm" fill="none" stroke="black" stroke-width="0.1mm" /><circle r="3.6020000000000088" cx="20.833107598985205mm" cy="61.48241922335367mm" fill="none" stroke="black" stroke-width="0.1mm" /><circle r="3.613000000000009" cx="12.876745892699518mm" cy="49.933393761993mm" fill="none" stroke="black" stroke-width="0.1mm" /><circle r="3.624000000000009" cx="11.304259216602212mm" cy="35.95094320958143mm" fill="none" stroke="black" stroke-width="0.1mm" /><circle r="3.635000000000009" cx="16.530888034321414mm" cy="22.83735426740865mm" fill="none" stroke="black" stroke-width="0.1mm" /><circle r="3.6460000000000092" cx="27.36090848438213mm" cy="13.710415262697094mm" fill="none" stroke="black" stroke-width="0.1mm" /><circle r="3.6570000000000094" cx="41.26087251553015mm" cy="10.762174747434202mm" fill="none" stroke="black" stroke-width="0.1mm" /><circle r="3.6680000000000095" cx="54.95218130604684mm" cy="14.732592649994796mm" fill="none" stroke="black" stroke-width="0.1mm" /><circle r="3.6790000000000096" cx="65.18440621256863mm" cy="24.724440804987612mm" fill="none" stroke="black" stroke-width="0.1mm" /><circle r="3.6900000000000097" cx="69.50695585582mm" cy="38.40561732238369mm" fill="none" stroke="black" stroke-width="0.1mm" /><circle r="3.70100000000001" cx="66.855894588903mm" cy="52.55336412399975mm" fill="none" stroke="black" stroke-width="0.1mm" /><circle r="3.71200000000001" cx="57.815414276911056mm" cy="63.81341248418686mm" fill="none" stroke="black" stroke-width="0.1mm" /><circle r="3.72300000000001" cx="44.48979151618656mm" cy="69.49523685514616mm" fill="none" stroke="black" stroke-width="0.1mm" /><circle r="3.73400000000001" cx="30.01371932761507mm" cy="68.21487370753844mm" fill="none" stroke="black" stroke-width="0.1mm" /><circle r="3.7450000000000103" cx="17.814929480362704mm" cy="60.23173919955259mm" fill="none" stroke="black" stroke-width="0.1mm" /><circle r="3.7560000000000104" cx="10.802554639267388mm" cy="47.39753907776273mm" fill="none" stroke="black" stroke-width="0.1mm" /><circle r="3.7670000000000106" cx="10.673414293342713mm" cy="32.72692666130217mm" fill="none" stroke="black" stroke-width="0.1mm" /><circle r="3.7780000000000107" cx="17.50163690569443mm" cy="19.689417584008538mm" fill="none" stroke="black" stroke-width="0.1mm" /><circle r="3.789000000000011" cx="29.71082010788107mm" cy="11.388869261289095mm" fill="none" stroke="black" stroke-width="0.1mm" /><circle r="3.800000000000011" cx="44.43775103117036mm" cy="9.824573477988107mm" fill="none" stroke="black" stroke-width="0.1mm" /><circle r="3.811000000000011" cx="58.20381882126151mm" cy="15.409859591237026mm" fill="none" stroke="black" stroke-width="0.1mm" /><circle r="3.822000000000011" cx="67.73668717509625mm" cy="26.864084175405093mm" fill="none" stroke="black" stroke-width="0.1mm" /><circle r="3.8330000000000113" cx="70.74814232538276mm" cy="41.50597760209016mm" fill="none" stroke="black" stroke-width="0.1mm" /><circle r="3.8440000000000114" cx="66.48322349454429mm" cy="55.88122392443382mm" fill="none" stroke="black" stroke-width="0.1mm" /><circle r="3.8550000000000115" cx="55.908882029952444mm" cy="66.577398246575mm" fill="none" stroke="black" stroke-width="0.1mm" /><circle r="3.8660000000000116" cx="41.495160069010346mm" cy="71.03400387265602mm" fill="none" stroke="black" stroke-width="0.1mm" /><circle r="3.8770000000000118" cx="26.63830742644631mm" cy="68.15532625578741mm" fill="none" stroke="black" stroke-width="0.1mm" /><circle r="3.888000000000012" cx="14.860547376268908mm" cy="58.57943814487326mm" fill="none" stroke="black" stroke-width="0.1mm" /><circle r="3.899000000000012" cx="8.975042209372276mm" cy="44.53740224024273mm" fill="none" stroke="black" stroke-width="0.1mm" /><circle r="3.910000000000012" cx="10.414023992423079mm" cy="29.333579622053414mm" fill="none" stroke="black" stroke-width="0.1mm" /><circle r="3.9210000000000123" cx="18.88053820549193mm" cy="16.568069680235364mm" fill="none" stroke="black" stroke-width="0.1mm" /><circle r="3.9320000000000124" cx="32.40841758921455mm" cy="9.284247095338127mm" fill="none" stroke="black" stroke-width="0.1mm" /><circle r="3.9430000000000125" cx="47.81872794215463mm" cy="9.243249222868783mm" fill="none" stroke="black" stroke-width="0.1mm" /><circle r="3.9540000000000126" cx="61.466759194878605mm" cy="16.49835857500404mm" fill="none" stroke="black" stroke-width="0.1mm" /><circle r="3.9650000000000127" cx="70.10403994211362mm" cy="29.372093142879983mm" fill="none" stroke="black" stroke-width="0.1mm" /><circle r="3.976000000000013" cx="71.65149939392812mm" cy="44.8438606623394mm" fill="none" stroke="black" stroke-width="0.1mm" /><circle r="3.987000000000013" cx="65.69976544063243mm" cy="59.25864173031073mm" fill="none" stroke="black" stroke-width="0.1mm" /><circle r="3.998000000000013" cx="53.61624492377617mm" cy="69.19044319937144mm" fill="none" stroke="black" stroke-width="0.1mm" /><circle r="4.009000000000013" cx="38.23123421228515mm" cy="72.25654185724503mm" fill="none" stroke="black" stroke-width="0.1mm" /><circle r="4.020000000000013" cx="23.175047606617117mm" cy="67.68900462205875mm" fill="none" stroke="black" stroke-width="0.1mm" /><circle r="4.031000000000013" cx="12.021396968931189mm" cy="56.52642724335353mm" fill="none" stroke="black" stroke-width="0.1mm" /><circle r="4.042000000000013" cx="7.439152360330077mm" cy="41.3781512929254mm" fill="none" stroke="black" stroke-width="0.1mm" /><circle r="4.053000000000013" cx="10.553815169154387mm" cy="25.81439377722376mm" fill="none" stroke="black" stroke-width="0.1mm" /><circle r="4.064000000000013" cx="20.67145105887491mm" cy="13.524811694144223mm" fill="none" stroke="black" stroke-width="0.1mm" /><circle r="4.0750000000000135" cx="35.43271066083325mm" cy="7.4438102184496415mm" fill="none" stroke="black" stroke-width="0.1mm" /><circle r="4.086000000000014" cx="51.36289956832755mm" cy="9.04995293379844mm" fill="none" stroke="black" stroke-width="0.1mm" /><circle r="4.097000000000014" cx="64.6898782713069mm" cy="18.006725210918738mm" fill="none" stroke="black" stroke-width="0.1mm" /><circle r="4.108000000000014" cx="72.23727285234585mm" cy="32.23187029952547mm" fill="none" stroke="black" stroke-width="0.1mm" /><circle r="4.119000000000014" cx="72.18149203097282mm" cy="48.38132421878684mm" fill="none" stroke="black" stroke-width="0.1mm" /><circle r="4.130000000000014" cx="64.49214321410155mm" cy="62.635313578122336mm" fill="none" stroke="black" stroke-width="0.1mm" /><circle r="4.141000000000014" cx="50.949528292104446mm" cy="71.60183309842mm" fill="none" stroke="black" stroke-width="0.1mm" /><circle r="4.152000000000014" cx="34.73264355898625mm" cy="73.12380648601999mm" fill="none" stroke="black" stroke-width="0.1mm" /><circle r="4.1630000000000145" cx="19.672983472326916mm" cy="66.79786603600544mm" fill="none" stroke="black" stroke-width="0.1mm" /><circle r="4.174000000000015" cx="9.34929063931888mm" cy="54.08001831273823mm" fill="none" stroke="black" stroke-width="0.1mm" /><circle r="4.185000000000015" cx="6.237131176468672mm" cy="37.95077726808305mm" fill="none" stroke="black" stroke-width="0.1mm" /><circle r="4.196000000000015" cx="11.115379185817968mm" cy="22.216719076027864mm" fill="none" stroke="black" stroke-width="0.1mm" /><circle r="4.207000000000015" cx="22.87187923568624mm" cy="10.61211637284725mm" fill="none" stroke="black" stroke-width="0.1mm" /><circle r="4.218000000000015" cx="38.75664434705053mm" cy="5.9126685303723505mm" fill="none" stroke="black" stroke-width="0.1mm" /><circle r="4.229000000000015" cx="55.02503222807957mm" cy="9.271667283349736mm" fill="none" stroke="black" stroke-width="0.1mm" /><circle r="4.240000000000015" cx="67.82049038231297mm" cy="19.937340283810325mm" fill="none" stroke="black" stroke-width="0.1mm" /><circle r="4.251000000000015" cx="74.08877793318547mm" cy="35.42056291429213mm" fill="none" stroke="black" stroke-width="0.1mm" /><circle r="4.2620000000000156" cx="72.30694289275542mm" cy="52.075659026497426mm" fill="none" stroke="black" stroke-width="0.1mm" /><circle r="4.273000000000016" cx="62.85307916751147mm" cy="65.95879422398971mm" fill="none" stroke="black" stroke-width="0.1mm" /><circle r="4.284000000000016" cx="47.92715033528367mm" cy="73.76185254931667mm" fill="none" stroke="black" stroke-width="0.1mm" /><circle r="4.295000000000016" cx="31.039182867992153mm" cy="73.60066042991868mm" fill="none" stroke="black" stroke-width="0.1mm" /><circle r="4.306000000000016" cx="16.183864463314876mm" cy="65.46975830466853mm" fill="none" stroke="black" stroke-width="0.1mm" /><circle r="4.317000000000016" cx="6.895638779715959mm" cy="51.25399898689093mm" fill="none" stroke="black" stroke-width="0.1mm" /><circle r="4.328000000000016" cx="5.407804894741744mm" cy="34.291792067580715mm" fill="none" stroke="black" stroke-width="0.1mm" /><circle r="4.339000000000016" cx="12.115678074016948mm" cy="18.591155665750463mm" fill="none" stroke="black" stroke-width="0.1mm" /><circle r="4.3500000000000165" cx="25.472823395222754mm" cy="7.882658268567738mm" fill="none" stroke="black" stroke-width="0.1mm" /><g transform="translate(135,285) scale(0.4)" fill="black" stroke="none">
<path
         d="m 6.909225,12.189723 h 3.199798 l 3.274213,9.11157 3.265944,-9.11157 h 3.199798 l -4.572322,12.344441 h -3.795109 z"
         style="font-size:16.9333px;stroke-width:0.265"
         id="path428" />
      <path
         d="M 27.827804,22.285211 H 22.85034 l -0.78548,2.248953 h -3.199799 l 4.572322,-12.344441 h 3.79511 l 4.572321,12.344441 h -3.199798 z m -4.183716,-2.290295 h 3.381699 l -1.686715,-4.911319 z"
         style="font-size:16.9333px;stroke-width:0.265"
         id="path430" />
      <path
         d="m 37.964634,17.66328 q 1.000454,0 1.430401,-0.37207 0.438215,-0.37207 0.438215,-1.223696 0,-0.843357 -0.438215,-1.207159 -0.429947,-0.363801 -1.430401,-0.363801 h -1.33945 v 3.166726 z m -1.33945,2.199344 v 4.67154 H 33.441922 V 12.189723 h 4.861709 q 2.439123,0 3.571868,0.818553 1.141013,0.818553 1.141013,2.58795 0,1.223696 -0.595311,2.009176 -0.587043,0.78548 -1.777666,1.15755 0.653189,0.148828 1.165818,0.677993 0.520898,0.520898 1.050063,1.587497 l 1.728057,3.505722 h -3.389967 l -1.504815,-3.067507 q -0.454752,-0.926039 -0.92604,-1.265036 -0.46302,-0.338997 -1.240232,-0.338997 z"
         style="font-size:16.9333px;stroke-width:0.265"
         id="path432" />
      <path
         d="m 46.480893,12.189723 h 3.183262 v 12.344441 h -3.183262 z"
         style="font-size:16.9333px;stroke-width:0.265"
         id="path434" />
      <path
         d="m 62.570834,23.856171 q -0.876431,0.454752 -1.827275,0.686262 -0.950845,0.23151 -1.984371,0.23151 -3.084044,0 -4.886514,-1.719789 -1.802471,-1.728056 -1.802471,-4.679808 0,-2.96002 1.802471,-4.679809 1.80247,-1.728056 4.886514,-1.728056 1.033526,0 1.984371,0.23151 0.950844,0.23151 1.827275,0.686261 v 2.554878 q -0.884699,-0.603579 -1.744593,-0.884699 -0.859894,-0.281119 -1.810739,-0.281119 -1.703252,0 -2.678901,1.091404 -0.975649,1.091404 -0.975649,3.00963 0,1.909957 0.975649,3.001361 0.975649,1.091404 2.678901,1.091404 0.950845,0 1.810739,-0.281119 0.859894,-0.281119 1.744593,-0.884699 z"
         style="font-size:16.9333px;stroke-width:0.265"
         id="path436" />
      <path
         d="m 65.208394,12.189723 h 3.183262 v 12.344441 h -3.183262 z"
         style="font-size:16.9333px;stroke-width:0.265"
         id="path438" />
      <path
         d="m 70.037033,12.189723 h 11.377061 v 2.40605 h -4.092766 v 9.938391 h -3.183262 v -9.938391 h -4.101033 z"
         style="font-size:16.9333px;stroke-width:0.265"
         id="path440" />
      <path
         d="m 83.059464,12.189723 h 8.590673 v 2.40605 h -5.407411 v 2.298563 h 5.084951 v 2.40605 h -5.084951 v 2.827728 h 5.589312 v 2.40605 h -8.772574 z"
         style="font-size:16.9333px;stroke-width:0.265"
         id="path442" />
         </g>
</svg>