<svg width="80mm" height="80mm" fill="none" stroke="black"><circle r="40mm" cx="40mm" cy="40mm" stroke-width="0.1mm" /><circle r="0.5" cx="39.167706326905716mm" cy="41.81859485365136mm" fill="none" stroke="black" stroke-width="0.1mm" /><circle r="0.5145" cx="38.24801700840706mm" cy="41.148729993152905mm" fill="none" stroke="black" stroke-width="0.1mm" /><circle r="0.5289999999999999" cx="37.81040007648481mm" cy="40.041858988787105mm" fill="none" stroke="black" stroke-width="0.1mm" /><circle r="0.5434999999999999" cx="38.04263540660012mm" cy="38.82103908101052mm" fill="none" stroke="black" stroke-width="0.1mm" /><circle r="0.5579999999999998" cx="38.927580362040864mm" cy="37.87530799405665mm" fill="none" stroke="black" stroke-width="0.1mm" /><circle r="0.5724999999999998" cx="40.231828292916404mm" cy="37.535881365963995mm" fill="none" stroke="black" stroke-width="0.1mm" /><circle r="0.5869999999999997" cx="41.565629762917325mm" cy="37.96193634901472mm" fill="none" stroke="black" stroke-width="0.1mm" /><circle r="0.6014999999999997" cx="42.4992786989126mm" cy="39.07488866336978mm" fill="none" stroke="black" stroke-width="0.1mm" /><circle r="0.6159999999999997" cx="42.70123461722861mm" cy="40.5665082017816mm" fill="none" stroke="black" stroke-width="0.1mm" /><circle r="0.6304999999999996" cx="42.05367565438563mm" cy="41.983290525007305mm" fill="none" stroke="black" stroke-width="0.1mm" /><circle r="0.6449999999999996" cx="40.705785521181255mm" cy="42.86432658719129mm" fill="none" stroke="black" stroke-width="0.1mm" /><circle r="0.6594999999999995" cx="39.04316738561145mm" cy="42.89076051378221mm" fill="none" stroke="black" stroke-width="0.1mm" /><circle r="0.6739999999999995" cx="37.57811000416072mm" cy="41.998511658223094mm" fill="none" stroke="black" stroke-width="0.1mm" /><circle r="0.6884999999999994" cx="36.79174330270742mm" cy="40.41510717203789mm" fill="none" stroke="black" stroke-width="0.1mm" /><circle r="0.7029999999999994" cx="36.97671693790684mm" cy="38.60405604465628mm" fill="none" stroke="black" stroke-width="0.1mm" /><circle r="0.7174999999999994" cx="38.131647463677304mm" cy="37.12948022128107mm" fill="none" stroke="black" stroke-width="0.1mm" /><circle r="0.7319999999999993" cx="39.94455553820728mm" cy="36.480436687363536mm" fill="none" stroke="black" stroke-width="0.1mm" /><circle r="0.7464999999999993" cx="41.875586566127765mm" cy="36.90962784879214mm" fill="none" stroke="black" stroke-width="0.1mm" /><circle r="0.7609999999999992" cx="43.317623020631224mm" cy="38.339434586359886mm" fill="none" stroke="black" stroke-width="0.1mm" /><circle r="0.7754999999999992" cx="43.78705128063193mm" cy="40.36914441329121mm" fill="none" stroke="black" stroke-width="0.1mm" /><circle r="0.7899999999999991" cx="43.08477407646622mm" cy="42.386245774676624mm" fill="none" stroke="black" stroke-width="0.1mm" /><circle r="0.8044999999999991" cx="41.37419185598682mm" cy="43.75121603522638mm" fill="none" stroke="black" stroke-width="0.1mm" /><circle r="0.8189999999999991" cx="39.14704373721737mm" cy="44.00007070109766mm" fill="none" stroke="black" stroke-width="0.1mm" /><circle r="0.833499999999999" cx="37.08268753766944mm" cy="43.00058544239801mm" fill="none" stroke="black" stroke-width="0.1mm" /><circle r="0.847999999999999" cx="35.840878952973334mm" cy="41.01000599809101mm" fill="none" stroke="black" stroke-width="0.1mm" /><circle r="0.8624999999999989" cx="35.85125516631483mm" cy="38.6112806961194mm" fill="none" stroke="black" stroke-width="0.1mm" /><circle r="0.8769999999999989" cx="37.16659554042914mm" cy="36.54272952049106mm" fill="none" stroke="black" stroke-width="0.1mm" /><circle r="0.8914999999999988" cx="39.42945871531481mm" cy="35.47079392801897mm" fill="none" stroke="black" stroke-width="0.1mm" /><circle r="0.9059999999999988" cx="41.96769991448181mm" cy="35.77581285374946mm" fill="none" stroke="black" stroke-width="0.1mm" /><circle r="0.9204999999999988" cx="43.99390385696474mm" cy="37.419543261102376mm" fill="none" stroke="black" stroke-width="0.1mm" /><circle r="0.9349999999999987" cx="44.84962779918589mm" cy="39.939914982204996mm" fill="none" stroke="black" stroke-width="0.1mm" /><circle r="0.9494999999999987" cx="44.21870357731451mm" cy="42.579838197785634mm" fill="none" stroke="black" stroke-width="0.1mm" /><circle r="0.9639999999999986" cx="42.240693092961564mm" cy="44.514520402341134mm" fill="none" stroke="black" stroke-width="0.1mm" /><circle r="0.9784999999999986" cx="39.48464043810303mm" cy="45.1090732547069mm" fill="none" stroke="black" stroke-width="0.1mm" /><circle r="0.9929999999999986" cx="36.78608967809299mm" cy="44.1259763017666mm" fill="none" stroke="black" stroke-width="0.1mm" /><circle r="1.0074999999999985" cx="34.99381203212077mm" cy="41.81485730300244mm" fill="none" stroke="black" stroke-width="0.1mm" /><circle r="1.0219999999999985" cx="34.703003987373194mm" cy="38.85185661077732mm" fill="none" stroke="black" stroke-width="0.1mm" /><circle r="1.0364999999999984" cx="36.058774433297685mm" cy="36.14228486894483mm" fill="none" stroke="black" stroke-width="0.1mm" /><circle r="1.0509999999999984" cx="38.69447770457253mm" cy="34.544020570407014mm" fill="none" stroke="black" stroke-width="0.1mm" /><circle r="1.0654999999999983" cx="41.829073072065675mm" cy="34.59615722868955mm" fill="none" stroke="black" stroke-width="0.1mm" /><circle r="1.0799999999999983" cx="44.49828209535943mm" cy="36.338653500340506mm" fill="none" stroke="black" stroke-width="0.1mm" /><circle r="1.0944999999999983" cx="45.85122223523441mm" cy="39.282906314420195mm" fill="none" stroke="black" stroke-width="0.1mm" /><circle r="1.1089999999999982" cx="45.42126623395612mm" cy="42.54754242762848mm" fill="none" stroke="black" stroke-width="0.1mm" /><circle r="1.1234999999999982" cx="43.28501817955513mm" cy="45.12209728138701mm" fill="none" stroke="black" stroke-width="0.1mm" /><circle r="1.1379999999999981" cx="40.055780181047616mm" cy="46.17974826116746mm" fill="none" stroke="black" stroke-width="0.1mm" /><circle r="1.152499999999998" cx="36.70830780188336mm" cy="45.342320420272266mm" fill="none" stroke="black" stroke-width="0.1mm" /><circle r="1.166999999999998" cx="34.28465630885227mm" cy="42.81278269549175mm" fill="none" stroke="black" stroke-width="0.1mm" /><circle r="1.181499999999998" cx="33.56986033090278mm" cy="39.329530883707335mm" fill="none" stroke="black" stroke-width="0.1mm" /><circle r="1.195999999999998" cx="34.83836521198118mm" cy="35.951404402127345mm" fill="none" stroke="black" stroke-width="0.1mm" /><circle r="1.210499999999998" cx="37.75290760627412mm" cy="33.73584796049303mm" fill="none" stroke="black" stroke-width="0.1mm" /><circle r="1.2249999999999979" cx="41.45205991959264mm" cy="33.40803352633582mm" fill="none" stroke="black" stroke-width="0.1mm" /><circle r="1.2394999999999978" cx="44.80446688924116mm" cy="35.12443614438439mm" fill="none" stroke="black" stroke-width="0.1mm" /><circle r="1.2539999999999978" cx="46.754857823181574mm" cy="38.40767597876481mm" fill="none" stroke="black" stroke-width="0.1mm" /><circle r="1.2684999999999977" cx="46.656011621350174mm" cy="42.27787934194316mm" fill="none" stroke="black" stroke-width="0.1mm" /><circle r="1.2829999999999977" cx="44.48230938552503mm" cy="45.54488977099042mm" fill="none" stroke="black" stroke-width="0.1mm" /><circle r="1.2974999999999977" cx="40.85475900770171mm" cy="47.174260382698186mm" fill="none" stroke="black" stroke-width="0.1mm" /><circle r="1.3119999999999976" cx="36.86454781125516mm" cy="46.614479539018554mm" fill="none" stroke="black" stroke-width="0.1mm" /><circle r="1.3264999999999976" cx="33.744938002249455mm" cy="43.98201260724987mm" fill="none" stroke="black" stroke-width="0.1mm" /><circle r="1.3409999999999975" cx="32.49012042530121mm" cy="40.042529678129476mm" fill="none" stroke="black" stroke-width="0.1mm" /><circle r="1.3554999999999975" cx="33.53881566526837mm" cy="35.98887522101112mm" fill="none" stroke="black" stroke-width="0.1mm" /><circle r="1.3699999999999974" cx="36.623185577677006mm" cy="33.079947662250575mm" fill="none" stroke="black" stroke-width="0.1mm" /><circle r="1.3844999999999974" cx="40.83446825279162mm" cy="32.24979434240079mm" fill="none" stroke="black" stroke-width="0.1mm" /><circle r="1.3989999999999974" cx="44.89027363662702mm" cy="33.80828587878037mm" fill="none" stroke="black" stroke-width="0.1mm" /><circle r="1.4134999999999973" cx="47.52506572442688mm" cy="37.32911796534259mm" fill="none" stroke="black" stroke-width="0.1mm" /><circle r="1.4279999999999973" cx="47.884938049596585mm" cy="41.76469599478887mm" fill="none" stroke="black" stroke-width="0.1mm" /><circle r="1.4424999999999972" cx="45.80356827949014mm" cy="45.75753595084701mm" fill="none" stroke="black" stroke-width="0.1mm" /><circle r="1.4569999999999972" cx="41.870400980503995mm" cy="48.05571226969593mm" fill="none" stroke="black" stroke-width="0.1mm" /><circle r="1.4714999999999971" cx="37.26487665490609mm" cy="47.90520874405744mm" fill="none" stroke="black" stroke-width="0.1mm" /><circle r="1.485999999999997" cx="33.40294169314929mm" cy="45.29626488159457mm" fill="none" stroke="black" stroke-width="0.1mm" /><circle r="1.500499999999997" cx="31.501724313846523mm" cy="40.98353208495334mm" fill="none" stroke="black" stroke-width="0.1mm" /><circle r="1.514999999999997" cx="32.19621363800792mm" cy="36.26859029100443mm" fill="none" stroke="black" stroke-width="0.1mm" /><circle r="1.529499999999997" cx="35.3285840583277mm" cy="32.6072401567554mm" fill="none" stroke="black" stroke-width="0.1mm" /><circle r="1.543999999999997" cx="39.97966656204836mm" cy="31.160023385138338mm" fill="none" stroke="black" stroke-width="0.1mm" /><circle r="1.5584999999999969" cx="44.73811198043182mm" cy="32.42474291783517mm" fill="none" stroke="black" stroke-width="0.1mm" /><circle r="1.5729999999999968" cx="48.12860570423193mm" cy="36.06723134355347mm" fill="none" stroke="black" stroke-width="0.1mm" /><circle r="1.5874999999999968" cx="49.06922637581512mm" cy="41.00735194655068mm" fill="none" stroke="black" stroke-width="0.1mm" /><circle r="1.6019999999999968" cx="47.216179012898756mm" cy="45.73891631353861mm" fill="none" stroke="black" stroke-width="0.1mm" /><circle r="1.6164999999999967" cx="43.08621132303494mm" cy="48.78888642943866mm" fill="none" stroke="black" stroke-width="0.1mm" /><circle r="1.6309999999999967" cx="37.913958441702704mm" cy="49.17586675017988mm" fill="none" stroke="black" stroke-width="0.1mm" /><circle r="1.6454999999999966" cx="33.28310961367242mm" cy="46.72520695131832mm" fill="none" stroke="black" stroke-width="0.1mm" /><circle r="1.6599999999999966" cx="30.641501234520128mm" cy="42.139743175362824mm" fill="none" stroke="black" stroke-width="0.1mm" /><circle r="1.6744999999999965" cx="30.84860843394935mm" cy="36.79920987804305mm" fill="none" stroke="black" stroke-width="0.1mm" /><circle r="1.6889999999999965" cx="33.89681508978007mm" cy="32.345247623099496mm" fill="none" stroke="black" stroke-width="0.1mm" /><circle r="1.7034999999999965" cx="38.896592047741294mm" cy="30.176776705638197mm" fill="none" stroke="black" stroke-width="0.1mm" /><circle r="1.7179999999999964" cx="44.33539531711451mm" cy="31.010853909055562mm" fill="none" stroke="black" stroke-width="0.1mm" /><circle r="1.7324999999999964" cx="48.53515254720122mm" cy="34.64679572629583mm" fill="none" stroke="black" stroke-width="0.1mm" /><circle r="1.7469999999999963" cx="50.169994256552535mm" cy="40.01080840823937mm" fill="none" stroke="black" stroke-width="0.1mm" /><circle r="1.7614999999999963" cx="48.68450053158766mm" cy="45.472629671086274mm" fill="none" stroke="black" stroke-width="0.1mm" /><circle r="1.7759999999999962" cx="44.480625963123956mm" cy="49.34096306483329mm" fill="none" stroke="black" stroke-width="0.1mm" /><circle r="1.7904999999999962" cx="38.81088502833712mm" cy="50.387157001998546mm" fill="none" stroke="black" stroke-width="0.1mm" /><circle r="1.8049999999999962" cx="33.40550465418057mm" cy="48.23499430078528mm" fill="none" stroke="black" stroke-width="0.1mm" /><circle r="1.8194999999999961" cx="29.944428505373473mm" cy="43.49306554711684mm" fill="none" stroke="black" stroke-width="0.1mm" /><circle r="1.833999999999996" cx="29.535291369631437mm" cy="37.583913643619084mm" fill="none" stroke="black" stroke-width="0.1mm" /><circle r="1.848499999999996" cx="32.359551872664774mm" cy="32.31750187676561mm" fill="none" stroke="black" stroke-width="0.1mm" /><circle r="1.862999999999996" cx="37.59965919472965mm" cy="29.336826737853578mm" fill="none" stroke="black" stroke-width="0.1mm" /><circle r="1.877499999999996" cx="43.67486452210937mm" cy="29.605482418883394mm" fill="none" stroke="black" stroke-width="0.1mm" /><circle r="1.891999999999996" cx="48.71793652927586mm" cy="33.096958447791444mm" fill="none" stroke="black" stroke-width="0.1mm" /><circle r="1.9064999999999959" cx="51.14905833391025mm" cy="38.78561815434072mm" fill="none" stroke="black" stroke-width="0.1mm" /><circle r="1.9209999999999958" cx="50.170518202223356mm" cy="44.947389159773444mm" fill="none" stroke="black" stroke-width="0.1mm" /><circle r="1.9354999999999958" cx="46.02735386587113mm" cy="49.68220173181538mm" fill="none" stroke="black" stroke-width="0.1mm" /><circle r="1.9499999999999957" cx="39.94910447313821mm" cy="51.49988737533311mm" fill="none" stroke="black" stroke-width="0.1mm" /><circle r="1.9644999999999957" cx="33.785346451342754mm" cy="49.78887666027938mm" fill="none" stroke="black" stroke-width="0.1mm" /><circle r="1.9789999999999957" cx="29.44291639328943mm" cy="45.02036709025579mm" fill="none" stroke="black" stroke-width="0.1mm" /><circle r="1.9934999999999956" cx="28.2960472621004mm" cy="38.620248098746394mm" fill="none" stroke="black" stroke-width="0.1mm" /><circle r="2.0079999999999956" cx="30.751875050527993mm" cy="32.54301770694379mm" fill="none" stroke="black" stroke-width="0.1mm" /><circle r="2.0224999999999955" cx="36.10856981353837mm" cy="28.67492180583747mm" fill="none" stroke="black" stroke-width="0.1mm" /><circle r="2.0369999999999955" cx="42.75481993827064mm" cy="28.248580208855312mm" fill="none" stroke="black" stroke-width="0.1mm" /><circle r="2.0514999999999954" cx="48.65432694681839mm" cy="31.450739792381235mm" fill="none" stroke="black" stroke-width="0.1mm" /><circle r="2.0659999999999954" cx="51.96969166740756mm" cy="37.347815732797834mm" fill="none" stroke="black" stroke-width="0.1mm" /><circle r="2.0804999999999954" cx="51.634544351012636mm" cy="44.15733120454944mm" fill="none" stroke="black" stroke-width="0.1mm" /><circle r="2.0949999999999953" cx="47.69580704735186mm" cy="49.78657518695534mm" fill="none" stroke="black" stroke-width="0.1mm" /><circle r="2.1094999999999953" cx="41.31644920240631mm" cy="52.47573591005695mm" fill="none" stroke="black" stroke-width="0.1mm" /><circle r="2.1239999999999952" cx="34.43262879804605mm" cy="51.34786226122147mm" fill="none" stroke="black" stroke-width="0.1mm" /><circle r="2.138499999999995" cx="29.166131087133074mm" cy="46.693841152792345mm" fill="none" stroke="black" stroke-width="0.1mm" /><circle r="2.152999999999995" cx="27.170389151719103mm" cy="39.90007261799782mm" fill="none" stroke="black" stroke-width="0.1mm" /><circle r="2.167499999999995" cx="29.111652445499118mm" cy="33.03584085963026mm" fill="none" stroke="black" stroke-width="0.1mm" /><circle r="2.181999999999995" cx="34.44802703125327mm" cy="28.223073569292097mm" fill="none" stroke="black" stroke-width="0.1mm" /><circle r="2.196499999999995" cx="41.57925710758012mm" cy="26.980431190390426mm" fill="none" stroke="black" stroke-width="0.1mm" /><circle r="2.210999999999995" cx="48.32634855774432mm" cy="29.74446394892252mm" fill="none" stroke="black" stroke-width="0.1mm" /><circle r="2.225499999999995" cx="52.59736373711095mm" cy="35.718709087795744mm" fill="none" stroke="black" stroke-width="0.1mm" /><circle r="2.239999999999995" cx="53.03595638034592mm" cy="43.102231656359535mm" fill="none" stroke="black" stroke-width="0.1mm" /><circle r="2.254499999999995" cx="49.45161173668727mm" cy="49.632344500635156mm" fill="none" stroke="black" stroke-width="0.1mm" /><circle r="2.268999999999995" cx="42.89526415583457mm" cy="53.278009845904634mm" fill="none" stroke="black" stroke-width="0.1mm" /><circle r="2.2834999999999948" cx="35.351825362016896mm" cy="52.87142950626742mm" fill="none" stroke="black" stroke-width="0.1mm" /><circle r="2.2979999999999947" cx="29.139367351571238mm" cy="48.48145379495073mm" fill="none" stroke="black" stroke-width="0.1mm" /><circle r="2.3124999999999947" cx="26.19678889242303mm" cy="41.409605661050165mm" fill="none" stroke="black" stroke-width="0.1mm" /><circle r="2.3269999999999946" cx="27.478862076859993mm" cy="33.80467877267804mm" fill="none" stroke="black" stroke-width="0.1mm" /><circle r="2.3414999999999946" cx="32.647357258372374mm" cy="28.00988449955583mm" fill="none" stroke="black" stroke-width="0.1mm" /><circle r="2.3559999999999945" cx="40.15790323542212mm" cy="25.84088044516029mm" fill="none" stroke="black" stroke-width="0.1mm" /><circle r="2.3704999999999945" cx="47.721121803427096mm" cy="28.01712458978882mm" fill="none" stroke="black" stroke-width="0.1mm" /><circle r="2.3849999999999945" cx="53.0004505521259mm" cy="33.924575287131724mm" fill="none" stroke="black" stroke-width="0.1mm" /><circle r="2.3994999999999944" cx="54.3339604684053mm" cy="41.78762476213416mm" fill="none" stroke="black" stroke-width="0.1mm" /><circle r="2.4139999999999944" cx="51.257192825906245mm" cy="49.202565385824mm" fill="none" stroke="black" stroke-width="0.1mm" /><circle r="2.4284999999999943" cx="44.66263358732958mm" cy="53.87238526823369mm" fill="none" stroke="black" stroke-width="0.1mm" /><circle r="2.4429999999999943" cx="36.541689333600026mm" cy="54.31827459349294mm" fill="none" stroke="black" stroke-width="0.1mm" /><circle r="2.4574999999999942" cx="29.38348171284781mm" cy="50.347471404095025mm" fill="none" stroke="black" stroke-width="0.1mm" /><circle r="2.471999999999994" cx="25.411916379960495mm" cy="43.129571263725474mm" fill="none" stroke="black" stroke-width="0.1mm" /><circle r="2.486499999999994" cx="25.89486925301913mm" cy="34.85262089888687mm" fill="none" stroke="black" stroke-width="0.1mm" /><circle r="2.500999999999994" cx="30.740045645661304mm" cy="28.059926911632196mm" fill="none" stroke="black" stroke-width="0.1mm" /><circle r="2.515499999999994" cx="38.50615293847456mm" cy="24.8685610083914mm" fill="none" stroke="black" stroke-width="0.1mm" /><circle r="2.529999999999994" cx="46.83121883860626mm" cy="26.30969506624954mm" fill="none" stroke="black" stroke-width="0.1mm" /><circle r="2.544499999999994" cx="53.15090279966973mm" cy="31.99626458747916mm" fill="none" stroke="black" stroke-width="0.1mm" /><circle r="2.558999999999994" cx="55.48836837767017mm" cy="40.22482214656913mm" fill="none" stroke="black" stroke-width="0.1mm" /><circle r="2.573499999999994" cx="53.07242253378156mm" cy="48.48551672547296mm" fill="none" stroke="black" stroke-width="0.1mm" /><circle r="2.587999999999994" cx="46.59070362061742mm" cy="54.22761490149287mm" fill="none" stroke="black" stroke-width="0.1mm" /><circle r="2.602499999999994" cx="37.995151164251254mm" cy="55.64708299159298mm" fill="none" stroke="black" stroke-width="0.1mm" /><circle r="2.6169999999999938" cx="29.91439613278mm" cy="52.253060623106315mm" fill="none" stroke="black" stroke-width="0.1mm" /><circle r="2.6314999999999937" cx="24.84990013120294mm" cy="45.03544426694178mm" fill="none" stroke="black" stroke-width="0.1mm" /><circle r="2.6459999999999937" cx="24.40166932538422mm" cy="36.17695407229497mm" fill="none" stroke="black" stroke-width="0.1mm" /><circle r="2.6604999999999936" cx="28.763191954975348mm" cy="28.393184331640704mm" fill="none" stroke="black" stroke-width="0.1mm" /><circle r="2.6749999999999936" cx="36.644903418508974mm" cy="24.100131229193472mm" fill="none" stroke="black" stroke-width="0.1mm" /><circle r="2.6894999999999936" cx="45.65492868293252mm" cy="24.6643941563775mm" fill="none" stroke="black" stroke-width="0.1mm" /><circle r="2.7039999999999935" cx="53.024860558299295mm" cy="29.968718554598286mm" fill="none" stroke="black" stroke-width="0.1mm" /><circle r="2.7184999999999935" cx="56.46037460849986mm" cy="38.430830554766544mm" fill="none" stroke="black" stroke-width="0.1mm" /><circle r="2.7329999999999934" cx="54.85532313015521mm" cy="47.475043457979154mm" fill="none" stroke="black" stroke-width="0.1mm" /><circle r="2.7474999999999934" cx="48.64709611904112mm" cy="54.31619201142767mm" fill="none" stroke="black" stroke-width="0.1mm" /><circle r="2.7619999999999933" cx="39.69931702740978mm" cy="56.817312203500165mm" fill="none" stroke="black" stroke-width="0.1mm" /><circle r="2.7764999999999933" cx="30.742681074944578mm" cy="54.15695134270836mm" fill="none" stroke="black" stroke-width="0.1mm" /><circle r="2.7909999999999933" cx="24.541621674662885mm" cy="47.09779117407302mm" fill="none" stroke="black" stroke-width="0.1mm" /><circle r="2.805499999999993" cx="23.041108316648337mm" cy="37.76907690129241mm" fill="none" stroke="black" stroke-width="0.1mm" /><circle r="2.819999999999993" cx="26.75689507867498mm" cy="29.02456506361692mm" fill="none" stroke="black" stroke-width="0.1mm" /><circle r="2.834499999999993" cx="34.60029080146867mm" cy="23.5695354426207mm" fill="none" stroke="black" stroke-width="0.1mm" /><circle r="2.848999999999993" cx="44.19642620335229mm" cy="23.123919082920363mm" fill="none" stroke="black" stroke-width="0.1mm" /><circle r="2.863499999999993" cx="52.60320386638062mm" cy="27.88040935912232mm" fill="none" stroke="black" stroke-width="0.1mm" /><circle r="2.877999999999993" cx="57.2133210386251mm" cy="36.42816870202023mm" fill="none" stroke="black" stroke-width="0.1mm" /><circle r="2.892499999999993" cx="56.56281263782894mm" cy="46.170807283020174mm" fill="none" stroke="black" stroke-width="0.1mm" /><circle r="2.906999999999993" cx="50.7954079490959mm" cy="54.114958987280055mm" fill="none" stroke="black" stroke-width="0.1mm" /><circle r="2.921499999999993" cx="41.63556905512094mm" cy="57.789972986655485mm" fill="none" stroke="black" stroke-width="0.1mm" /><circle r="2.935999999999993" cx="31.873225672559318mm" cy="56.01615244154638mm" fill="none" stroke="black" stroke-width="0.1mm" /><circle r="2.950499999999993" cx="24.514055766907347mm" cy="49.28270198862084mm" fill="none" stroke="black" stroke-width="0.1mm" /><circle r="2.9649999999999928" cx="21.854094076024772mm" cy="39.6145156316508mm" fill="none" stroke="black" stroke-width="0.1mm" /><circle r="2.9794999999999927" cx="24.763575633676346mm" cy="29.963496747905687mm" fill="none" stroke="black" stroke-width="0.1mm" /><circle r="2.9939999999999927" cx="32.40333096025127mm" cy="23.307300413039123mm" fill="none" stroke="black" stroke-width="0.1mm" /><circle r="3.0084999999999926" cx="42.46584112085828mm" cy="21.730658124423716mm" fill="none" stroke="black" stroke-width="0.1mm" /><circle r="3.0229999999999926" cx="51.87202937283463mm" cy="25.772708670637535mm" fill="none" stroke="black" stroke-width="0.1mm" /><circle r="3.0374999999999925" cx="57.71343629067947mm" cy="34.24458517776171mm" fill="none" stroke="black" stroke-width="0.1mm" /><circle r="3.0519999999999925" cx="58.151481664409744mm" cy="44.57844006039147mm" fill="none" stroke="black" stroke-width="0.1mm" /><circle r="3.0664999999999925" cx="52.995788319862385mm" cy="53.605649964089515mm" fill="none" stroke="black" stroke-width="0.1mm" /><circle r="3.0809999999999924" cx="43.77976680044302mm" cy="58.52839612417301mm" fill="none" stroke="black" stroke-width="0.1mm" /><circle r="3.0954999999999924" cx="33.30500138815976mm" cy="57.78670904320015mm" fill="none" stroke="black" stroke-width="0.1mm" /><circle r="3.1099999999999923" cx="24.789667817425936mm" cy="51.55230690796225mm" fill="none" stroke="black" stroke-width="0.1mm" /><circle r="3.1244999999999923" cx="20.879810862615916mm" cy="41.69304233575539mm" fill="none" stroke="black" stroke-width="0.1mm" /><circle r="3.1389999999999922" cx="22.827247110036836mm" cy="31.213609490794177mm" fill="none" stroke="black" stroke-width="0.1mm" /><circle r="3.153499999999992" cx="30.089469677009355mm" cy="23.339879540739112mm" fill="none" stroke="black" stroke-width="0.1mm" /><circle r="3.167999999999992" cx="40.47922478644749mm" cy="20.525895563491122mm" fill="none" stroke="black" stroke-width="0.1mm" /><circle r="3.182499999999992" cx="50.82304438835141mm" cy="23.689195753495927mm" fill="none" stroke="black" stroke-width="0.1mm" /><circle r="3.196999999999992" cx="57.93053736721562mm" cy="31.912680931057288mm" fill="none" stroke="black" stroke-width="0.1mm" /><circle r="3.211499999999992" cx="59.57838892872019mm" cy="42.70959627172882mm" fill="none" stroke="black" stroke-width="0.1mm" /><circle r="3.225999999999992" cx="55.205585586822735mm" cy="52.77535780171377mm" fill="none" stroke="black" stroke-width="0.1mm" /><circle r="3.240499999999992" cx="46.10254777111243mm" cy="58.9989719643272mm" fill="none" stroke="black" stroke-width="0.1mm" /><circle r="3.254999999999992" cx="35.03092412994472mm" cy="59.42448931111535mm" fill="none" stroke="black" stroke-width="0.1mm" /><circle r="3.269499999999992" cx="25.38587909427438mm" cy="53.86537035757911mm" fill="none" stroke="black" stroke-width="0.1mm" /><circle r="3.283999999999992" cx="20.154950310779558mm" cy="43.978894674701955mm" fill="none" stroke="black" stroke-width="0.1mm" /><circle r="3.2984999999999918" cx="20.992746953905733mm" cy="32.772513808955416mm" fill="none" stroke="black" stroke-width="0.1mm" /><circle r="3.3129999999999917" cx="27.69804847336145mm" cy="23.689056169668316mm" fill="none" stroke="black" stroke-width="0.1mm" /><circle r="3.3274999999999917" cx="38.25841406660302mm" cy="19.549021944254267mm" fill="none" stroke="black" stroke-width="0.1mm" /><circle r="3.3419999999999916" cx="49.453870886094684mm" cy="21.674915408952376mm" fill="none" stroke="black" stroke-width="0.1mm" /><circle r="3.3564999999999916" cx="57.83868158248271mm" cy="29.46944140138843mm" fill="none" stroke="black" stroke-width="0.1mm" /><circle r="3.3709999999999916" cx="60.801862645132815mm" cy="40.58190247724819mm" fill="none" stroke="black" stroke-width="0.1mm" /><circle r="3.3854999999999915" cx="57.38005373837771mm" cy="51.616916847903425mm" fill="none" stroke="black" stroke-width="0.1mm" /><circle r="3.3999999999999915" cx="48.56972329808443mm" cy="59.171850265278735mm" fill="none" stroke="black" stroke-width="0.1mm" /><circle r="3.4144999999999914" cx="37.03781827935244mm" cy="60.88598823263723mm" fill="none" stroke="black" stroke-width="0.1mm" /><circle r="3.4289999999999914" cx="26.31460930567296mm" cy="56.17795356476295mm" fill="none" stroke="black" stroke-width="0.1mm" /><circle r="3.4434999999999913" cx="19.71297158630644mm" cy="46.441094871370055mm" fill="none" stroke="black" stroke-width="0.1mm" /><circle r="3.4579999999999913" cx="19.304939696487104mm" cy="34.63167819202648mm" fill="none" stroke="black" stroke-width="0.1mm" /><circle r="3.4724999999999913" cx="25.271693822396845mm" cy="24.371416502485708mm" fill="none" stroke="black" stroke-width="0.1mm" /><circle r="3.486999999999991" cx="35.83079329468869mm" cy="18.83676264253537mm" fill="none" stroke="black" stroke-width="0.1mm" /><circle r="3.501499999999991" cx="47.768253353778434mm" cy="19.775597293578503mm" fill="none" stroke="black" stroke-width="0.1mm" /><circle r="3.515999999999991" cx="57.41675749627092mm" cy="26.955684827631245mm" fill="none" stroke="black" stroke-width="0.1mm" /><circle r="3.530499999999991" cx="61.78229472139974mm" cy="38.21880330393291mm" fill="none" stroke="black" stroke-width="0.1mm" /><circle r="3.544999999999991" cx="59.473107754798875mm" cy="50.12919416192577mm" fill="none" stroke="black" stroke-width="0.1mm" /><circle r="3.559499999999991" cx="51.1427644671042mm" cy="59.021588393996936mm" fill="none" stroke="black" stroke-width="0.1mm" /><circle r="3.573999999999991" cx="39.30648451109626mm" cy="62.1291354613471mm" fill="none" stroke="black" stroke-width="0.1mm" /><circle r="3.588499999999991" cx="27.581905022382152mm" cy="58.44413571102916mm" fill="none" stroke="black" stroke-width="0.1mm" /><circle r="3.602999999999991" cx="19.58340320056833mm" cy="49.043863949078144mm" fill="none" stroke="black" stroke-width="0.1mm" /><circle r="3.617499999999991" cx="17.807904792576668mm" cy="36.776409563133505mm" fill="none" stroke="black" stroke-width="0.1mm" /><circle r="3.631999999999991" cx="22.8556387336599mm" cy="25.397901631299156mm" fill="none" stroke="black" stroke-width="0.1mm" /><circle r="3.6464999999999907" cx="33.22895685735239mm" cy="18.422437585297004mm" fill="none" stroke="black" stroke-width="0.1mm" /><circle r="3.6609999999999907" cx="45.776165854390655mm" cy="18.036848859451656mm" fill="none" stroke="black" stroke-width="0.1mm" /><circle r="3.6754999999999907" cx="56.64900440828845mm" cy="24.415434647934823mm" fill="none" stroke="black" stroke-width="0.1mm" /><circle r="3.6899999999999906" cx="62.48291471536518mm" cy="35.64930512428024mm" fill="none" stroke="black" stroke-width="0.1mm" /><circle r="3.7044999999999906" cx="61.43811615843656mm" cy="48.3172832449893mm" fill="none" stroke="black" stroke-width="0.1mm" /><circle r="3.7189999999999905" cx="53.779371375509434mm" cy="58.52773662636075mm" fill="none" stroke="black" stroke-width="0.1mm" /><circle r="3.7334999999999905" cx="41.81187167361335mm" cy="63.11409409945274mm" fill="none" stroke="black" stroke-width="0.1mm" /><circle r="3.7479999999999905" cx="29.187661138087655mm" cy="60.61678268632568mm" fill="none" stroke="black" stroke-width="0.1mm" /><circle r="3.7624999999999904" cx="19.79119841553293mm" cy="51.747125755674844mm" fill="none" stroke="black" stroke-width="0.1mm" /><circle r="3.7769999999999904" cx="16.544122195029903mm" cy="39.18593833261279mm" fill="none" stroke="black" stroke-width="0.1mm" /><circle r="3.7914999999999903" cx="20.49698685179778mm" cy="26.773447042367792mm" fill="none" stroke="black" stroke-width="0.1mm" /><circle r="3.8059999999999903" cx="30.490276570357555mm" cy="18.3352645921602mm" fill="none" stroke="black" stroke-width="0.1mm" /><circle r="3.8204999999999902" cx="43.49381518968935mm" cy="16.50333469574259mm" fill="none" stroke="black" stroke-width="0.1mm" /><circle r="3.83499999999999" cx="55.525450990137664mm" cy="21.895225172545466mm" fill="none" stroke="black" stroke-width="0.1mm" /><circle r="3.84949999999999" cx="62.87053068464684mm" cy="32.90762020174998mm" fill="none" stroke="black" stroke-width="0.1mm" /><circle r="3.86399999999999" cx="63.22871837461798mm" cy="46.19259579438888mm" fill="none" stroke="black" stroke-width="0.1mm" /><circle r="3.87849999999999" cx="56.43411760222701mm" cy="57.6753501701146mm" fill="none" stroke="black" stroke-width="0.1mm" /><circle r="3.89299999999999" cx="44.52335136842386mm" cy="63.80403731298066mm" fill="none" stroke="black" stroke-width="0.1mm" /><circle r="3.90749999999999" cx="31.125441178257773mm" cy="62.648351611528696mm" fill="none" stroke="black" stroke-width="0.1mm" /><circle r="3.92199999999999" cx="20.356155452491254mm" cy="54.507093830030485mm" fill="none" stroke="black" stroke-width="0.1mm" /><circle r="3.93649999999999" cx="15.553668858692607mm" cy="41.83360811776719mm" fill="none" stroke="black" stroke-width="0.1mm" /><circle r="3.95099999999999" cx="18.24393021340461mm" cy="28.496716666934233mm" fill="none" stroke="black" stroke-width="0.1mm" /><circle r="3.96549999999999" cx="27.656379532465493mm" cy="18.599718255278496mm" fill="none" stroke="black" stroke-width="0.1mm" /><circle r="3.9799999999999898" cx="40.94353865653037mm" cy="15.217955395011693mm" fill="none" stroke="black" stroke-width="0.1mm" /><circle r="3.9944999999999897" cx="54.04226480183753mm" cy="19.443350851000254mm" fill="none" stroke="black" stroke-width="0.1mm" /><circle r="4.00899999999999" cx="62.916224449333725mm" cy="30.032715666353432mm" fill="none" stroke="black" stroke-width="0.1mm" /><circle r="4.02349999999999" cx="64.79965400624198mm" cy="43.772848548601345mm" fill="none" stroke="black" stroke-width="0.1mm" /><circle r="4.03799999999999" cx="59.05916051739339mm" cy="56.45541857177234mm" fill="none" stroke="black" stroke-width="0.1mm" /><circle r="4.0524999999999896" cx="47.405092245400574mm" cy="64.16588988299634mm" fill="none" stroke="black" stroke-width="0.1mm" /><circle r="4.0669999999999895" cx="33.38240078189201mm" cy="64.49171861239006mm" fill="none" stroke="black" stroke-width="0.1mm" /><circle r="4.0814999999999895" cx="21.292412821084643mm" cy="57.27693279906126mm" fill="none" stroke="black" stroke-width="0.1mm" /><circle r="4.095999999999989" cx="14.873439335196181mm" cy="44.687168565128644mm" fill="none" stroke="black" stroke-width="0.1mm" /><circle r="4.110499999999989" cx="16.144932648985172mm" cy="30.559937146472866mm" fill="none" stroke="black" stroke-width="0.1mm" /><circle r="4.124999999999989" cx="24.772543605975905mm" cy="19.234955531757432mm" fill="none" stroke="black" stroke-width="0.1mm" /><circle r="4.139499999999989" cx="38.15359651778665mm" cy="14.221039214489913mm" fill="none" stroke="black" stroke-width="0.1mm" /><circle r="4.153999999999989" cx="52.20200574458659mm" cy="17.10907044681077mm" fill="none" stroke="black" stroke-width="0.1mm" /><circle r="4.168499999999989" cx="62.59598936648595mm" cy="27.067773217668588mm" fill="none" stroke="black" stroke-width="0.1mm" /><circle r="4.182999999999989" cx="66.1075908004065mm" cy="41.0819438980493mm" fill="none" stroke="black" stroke-width="0.1mm" /><circle r="4.197499999999989" cx="61.605006928588736mm" cy="54.86520435835408mm" fill="none" stroke="black" stroke-width="0.1mm" /><circle r="4.211999999999989" cx="50.41652944145235mm" cy="64.17102220418806mm" fill="none" stroke="black" stroke-width="0.1mm" /><circle r="4.226499999999989" cx="35.939317116603775mm" cy="66.1010168292442mm" fill="none" stroke="black" stroke-width="0.1mm" /><circle r="4.240999999999989" cx="22.608029024871215mm" cy="60.007484739473725mm" fill="none" stroke="black" stroke-width="0.1mm" /><circle r="4.255499999999989" cx="14.53640338778315mm" cy="47.7091680854872mm" fill="none" stroke="black" stroke-width="0.1mm" /><circle r="4.269999999999989" cx="14.24789148437538mm" cy="32.94883647902777mm" fill="none" stroke="black" stroke-width="0.1mm" /><circle r="4.284499999999989" cx="21.88701903617689mm" cy="20.254318304900757mm" fill="none" stroke="black" stroke-width="0.1mm" /><circle r="4.298999999999989" cx="35.15786095310543mm" cy="13.54955974940049mm" fill="none" stroke="black" stroke-width="0.1mm" /><circle r="4.313499999999989" cx="50.01377792258229mm" cy="14.94177826107369mm" fill="none" stroke="black" stroke-width="0.1mm" /><circle r="4.327999999999989" cx="61.891299479403855mm" cy="24.05956690980298mm" fill="none" stroke="black" stroke-width="0.1mm" /><circle r="4.342499999999989" cx="67.11193795860052mm" cy="38.14974457736477mm" fill="none" stroke="black" stroke-width="0.1mm" /><circle r="4.356999999999989" cx="64.02132258104476mm" cy="52.90848408828024mm" fill="none" stroke="black" stroke-width="0.1mm" /><circle r="4.371499999999989" cx="53.51292305655646mm" cy="63.795884843131596mm" fill="none" stroke="black" stroke-width="0.1mm" /><circle r="4.385999999999989" cx="38.77072536840191mm" cy="67.43247134109693mm" fill="none" stroke="black" stroke-width="0.1mm" /><circle r="4.4004999999999885" cx="24.30465468997216mm" cy="62.648049818891295mm" fill="none" stroke="black" stroke-width="0.1mm" /><circle r="4.4149999999999885" cx="14.570913125090911mm" cy="50.857441720236004mm" fill="none" stroke="black" stroke-width="0.1mm" /><circle r="4.4294999999999884" cx="12.599290677265873mm" cy="35.642689635678224mm" fill="none" stroke="black" stroke-width="0.1mm" /><circle r="4.443999999999988" cx="19.05028596832449mm" cy="21.664922089311617mm" fill="none" stroke="black" stroke-width="0.1mm" /><circle r="4.458499999999988" cx="31.995404885703mm" cy="13.236392581414453mm" fill="none" stroke="black" stroke-width="0.1mm" /><circle r="4.472999999999988" cx="47.493275903925756mm" cy="12.990155198008996mm" fill="none" stroke="black" stroke-width="0.1mm" /><circle r="4.487499999999988" cx="60.78959984419423mm" cy="21.057767731381976mm" fill="none" stroke="black" stroke-width="0.1mm" /><circle r="4.501999999999988" cx="67.77563151624292mm" cy="35.01174440571788mm" fill="none" stroke="black" stroke-width="0.1mm" /><circle r="4.516499999999988" cx="66.25777321479605mm" cy="50.59568642421688mm" fill="none" stroke="black" stroke-width="0.1mm" /><circle r="4.530999999999988" cx="56.645998106366264mm" cy="63.022572554839414mm" fill="none" stroke="black" stroke-width="0.1mm" /><circle r="4.545499999999988" cx="41.84516179676796mm" cy="68.44521757596067mm" fill="none" stroke="black" stroke-width="0.1mm" /><circle r="4.559999999999988" cx="26.377303821037252mm" cy="65.14720956320339mm" fill="none" stroke="black" stroke-width="0.1mm" /><circle r="4.574499999999988" cx="15.000071529584254mm" cy="54.08568782396125mm" fill="none" stroke="black" stroke-width="0.1mm" /><circle r="4.588999999999988" cx="11.243358811351094mm" cy="38.6144721051905mm" fill="none" stroke="black" stroke-width="0.1mm" /><circle r="4.603499999999988" cx="16.314258730717924mm" cy="23.467338825082578mm" fill="none" stroke="black" stroke-width="0.1mm" /><circle r="4.617999999999988" cx="28.709995675680844mm" cy="13.309623412981814mm" fill="none" stroke="black" stroke-width="0.1mm" /><circle r="4.632499999999988" cx="44.66272296221697mm" cy="11.301312929375872mm" fill="none" stroke="black" stroke-width="0.1mm" /><circle r="4.646999999999988" cx="59.284708938453136mm" cy="18.11418493272093mm" fill="none" stroke="black" stroke-width="0.1mm" /><circle r="4.661499999999988" cx="68.06587879300758mm" cy="31.708638677744148mm" fill="none" stroke="black" stroke-width="0.1mm" /><circle r="4.675999999999988" cx="68.26488424588611mm" cy="47.94392337366447mm" fill="none" stroke="black" stroke-width="0.1mm" /><circle r="4.690499999999988" cx="59.764657036970846mm" cy="61.83930761747982mm" fill="none" stroke="black" stroke-width="0.1mm" /><circle r="4.704999999999988" cx="45.12551118749686mm" cy="69.10208987455778mm" fill="none" stroke="black" stroke-width="0.1mm" /><circle r="4.719499999999988" cx="28.814229432865396mm" cy="67.4536802964451mm" fill="none" stroke="black" stroke-width="0.1mm" /><circle r="4.7339999999999876" cx="15.841173447905899mm" cy="57.344125795952536mm" fill="none" stroke="black" stroke-width="0.1mm" /><circle r="4.7484999999999875" cx="10.22124545733606mm" cy="41.831120664447035mm" fill="none" stroke="black" stroke-width="0.1mm" /><circle r="4.7629999999999875" cx="13.731448708445008mm" cy="25.655380345128087mm" fill="none" stroke="black" stroke-width="0.1mm" /><circle r="4.777499999999987" cx="25.34950020403064mm" cy="13.791919552773525mm" fill="none" stroke="black" stroke-width="0.1mm" /><circle r="4.791999999999987" cx="41.55070052334314mm" cy="9.919944682781978mm" fill="none" stroke="black" stroke-width="0.1mm" /><circle r="4.806499999999987" cx="57.37712530678681mm" cy="15.28195515271845mm" fill="none" stroke="black" stroke-width="0.1mm" /><circle r="4.820999999999987" cx="67.95484938983813mm" cy="28.285799404506555mm" fill="none" stroke="black" stroke-width="0.1mm" /><circle r="4.835499999999987" cx="69.99490569210727mm" cy="44.976912448655625mm" fill="none" stroke="black" stroke-width="0.1mm" /><circle r="4.849999999999987" cx="62.81575465549835mm" cy="60.24083346851354mm" fill="none" stroke="black" stroke-width="0.1mm" /><circle r="4.864499999999987" cx="48.56945489466225mm" cy="69.37036717183395mm" fill="none" stroke="black" stroke-width="0.1mm" /><circle r="4.878999999999987" cx="31.59690725712659mm" cy="69.51718367925132mm" fill="none" stroke="black" stroke-width="0.1mm" /><circle r="4.893499999999987" cx="17.105229127377175mm" cy="60.58022574439099mm" fill="none" stroke="black" stroke-width="0.1mm" /><circle r="4.907999999999987" cx="9.570229293844818mm" cy="45.25389900652952mm" fill="none" stroke="black" stroke-width="0.1mm" /><circle r="4.922499999999987" cx="11.35409841923239mm" cy="28.215987626238345mm" fill="none" stroke="black" stroke-width="0.1mm" /><circle r="4.936999999999987" cx="21.965209321529933mm" cy="14.699975786893777mm" fill="none" stroke="black" stroke-width="0.1mm" /><circle r="4.951499999999987" cx="38.191869712347206mm" cy="8.887496245675365mm" fill="none" stroke="black" stroke-width="0.1mm" /><circle r="4.965999999999987" cx="55.07423197808173mm" cy="12.6146913424192mm" fill="none" stroke="black" stroke-width="0.1mm" /><circle r="4.980499999999987" cx="67.42030087632884mm" cy="24.7926621379154mm" fill="none" stroke="black" stroke-width="0.1mm" /><circle r="4.994999999999987" cx="71.40266871437524mm" cy="41.724789150937056mm" fill="none" stroke="black" stroke-width="0.1mm" /><circle r="5.009499999999987" cx="65.74492423924738mm" cy="58.22871089560103mm" fill="none" stroke="black" stroke-width="0.1mm" /><circle r="5.023999999999987" cx="52.130014063342mm" cy="69.22246325728064mm" fill="none" stroke="black" stroke-width="0.1mm" /><circle r="5.038499999999987" cx="34.700129603906504mm" cy="71.28932084249517mm" fill="none" stroke="black" stroke-width="0.1mm" /><circle r="5.052999999999987" cx="18.796579238380968mm" cy="63.73949974211197mm" fill="none" stroke="black" stroke-width="0.1mm" /><circle r="5.067499999999987" cx="9.322971062319805mm" cy="48.83886421191788mm" fill="none" stroke="black" stroke-width="0.1mm" /><circle r="5.0819999999999865" cx="9.23330000761166mm" cy="31.129229369532624mm" fill="none" stroke="black" stroke-width="0.1mm" /><circle r="5.0964999999999865" cx="18.611090981064926mm" cy="16.04404466568472mm" fill="none" stroke="black" stroke-width="0.1mm" /><circle r="5.110999999999986" cx="34.62658756870728mm" cy="8.241370639726597mm" fill="none" stroke="black" stroke-width="0.1mm" /><circle r="5.125499999999986" cx="52.39039368057789mm" cy="10.16560425548581mm" fill="none" stroke="black" stroke-width="0.1mm" /><circle r="5.139999999999986" cx="66.44612816490493mm" cy="21.28203255998631mm" fill="none" stroke="black" stroke-width="0.1mm" /><circle r="5.154499999999986" cx="72.44642009794765mm" cy="38.22381086944842mm" fill="none" stroke="black" stroke-width="0.1mm" /><circle r="5.168999999999986" cx="68.49744265309452mm" cy="55.81151043491986mm" fill="none" stroke="black" stroke-width="0.1mm" /><circle r="5.183499999999986" cx="55.75618109029629mm" cy="68.63654976511278mm" fill="none" stroke="black" stroke-width="0.1mm" /><circle r="5.197999999999986" cx="38.09220979053728mm" cy="72.72443638195574mm" fill="none" stroke="black" stroke-width="0.1mm" /><circle r="5.212499999999986" cx="20.912609031975492mm" cy="66.76634325106376mm" fill="none" stroke="black" stroke-width="0.1mm" /><circle r="5.226999999999986" cx="9.506823911364858mm" cy="52.53742844555772mm" fill="none" stroke="black" stroke-width="0.1mm" /><circle r="5.241499999999986" cx="7.418111785944781mm" cy="34.368411821981354mm" fill="none" stroke="black" stroke-width="0.1mm" /><circle r="5.255999999999986" cx="15.342982589908132mm" cy="17.827560070249003mm" fill="none" stroke="black" stroke-width="0.1mm" /><circle r="5.270499999999986" cx="30.90042215024514mm" cy="8.014179579753772mm" fill="none" stroke="black" stroke-width="0.1mm" /><circle r="5.284999999999986" cx="49.34694346183483mm" cy="7.98660986522588mm" fill="none" stroke="black" stroke-width="0.1mm" /><circle r="5.299499999999986" cx="65.02282659491478mm" cy="17.809322358233054mm" fill="none" stroke="black" stroke-width="0.1mm" /><circle r="5.313999999999986" cx="73.08862115561783mm" cy="34.51595495824574mm" fill="none" stroke="black" stroke-width="0.1mm" /><circle r="5.328499999999986" cx="71.01912154507423mm" cy="53.00489613845114mm" fill="none" stroke="black" stroke-width="0.1mm" /><circle r="5.342999999999986" cx="59.39363093374304mm" cy="67.59710092030963mm" fill="none" stroke="black" stroke-width="0.1mm" /><circle r="5.357499999999986" cx="41.7352958595334mm" cy="73.78045845277822mm" fill="none" stroke="black" stroke-width="0.1mm" /><circle r="5.371999999999986" cx="23.443567863611975mm" cy="69.60491437098183mm" fill="none" stroke="black" stroke-width="0.1mm" /><circle r="5.386499999999986" cx="10.143212973657345mm" cy="56.29700872748144mm" fill="none" stroke="black" stroke-width="0.1mm" /><circle r="5.400999999999986" cx="5.954686663092438mm" cy="37.90030007101652mm" fill="none" stroke="black" stroke-width="0.1mm" /><circle r="5.4154999999999855" cx="12.217734191171306mm" cy="20.04686161207774mm" fill="none" stroke="black" stroke-width="0.1mm" /><circle r="5.4299999999999855" cx="27.063572351741612mm" cy="8.233054290640961mm" fill="none" stroke="black" stroke-width="0.1mm" /><circle r="5.4444999999999855" cx="45.972056969105324mm" cy="6.127436463152826mm" fill="none" stroke="black" stroke-width="0.1mm" /><circle r="5.458999999999985" cx="63.14785993669827mm" cy="14.431725119770253mm" fill="none" stroke="black" stroke-width="0.1mm" /><circle r="5.473499999999985" cx="73.2966978971369mm" cy="30.648415420540335mm" fill="none" stroke="black" stroke-width="0.1mm" /><circle r="5.487999999999985" cx="73.25721111587478mm" cy="49.831597469085196mm" fill="none" stroke="black" stroke-width="0.1mm" /><circle r="5.502499999999985" cx="62.98550254771515mm" cy="66.09535011508694mm" fill="none" stroke="black" stroke-width="0.1mm" /><circle r="5.516999999999985" cx="45.58579061806707mm" cy="74.41970138120175mm" fill="none" stroke="black" stroke-width="0.1mm" /><circle r="5.531499999999985" cx="26.37249878702533mm" cy="72.2000378212567mm" fill="none" stroke="black" stroke-width="0.1mm" /><circle r="5.545999999999985" cx="11.247095121368787mm" cy="60.061756180364mm" fill="none" stroke="black" stroke-width="0.1mm" /><circle r="5.560499999999985" cx="4.885426308848082mm" cy="41.685449343246184mm" fill="none" stroke="black" stroke-width="0.1mm" /><circle r="5.574999999999985" cx="9.292314994061822mm" cy="22.691025981414526mm" fill="none" stroke="black" stroke-width="0.1mm" /><g transform="translate(135,285) scale(0.4)" fill="black" stroke="none">
<path
         d="m 6.909225,12.189723 h 3.199798 l 3.274213,9.11157 3.265944,-9.11157 h 3.199798 l -4.572322,12.344441 h -3.795109 z"
         style="font-size:16.9333px;stroke-width:0.265"
         id="path428" />
      <path
         d="M 27.827804,22.285211 H 22.85034 l -0.78548,2.248953 h -3.199799 l 4.572322,-12.344441 h 3.79511 l 4.572321,12.344441 h -3.199798 z m -4.183716,-2.290295 h 3.381699 l -1.686715,-4.911319 z"
         style="font-size:16.9333px;stroke-width:0.265"
         id="path430" />
      <path
         d="m 37.964634,17.66328 q 1.000454,0 1.430401,-0.37207 0.438215,-0.37207 0.438215,-1.223696 0,-0.843357 -0.438215,-1.207159 -0.429947,-0.363801 -1.430401,-0.363801 h -1.33945 v 3.166726 z m -1.33945,2.199344 v 4.67154 H 33.441922 V 12.189723 h 4.861709 q 2.439123,0 3.571868,0.818553 1.141013,0.818553 1.141013,2.58795 0,1.223696 -0.595311,2.009176 -0.587043,0.78548 -1.777666,1.15755 0.653189,0.148828 1.165818,0.677993 0.520898,0.520898 1.050063,1.587497 l 1.728057,3.505722 h -3.389967 l -1.504815,-3.067507 q -0.454752,-0.926039 -0.92604,-1.265036 -0.46302,-0.338997 -1.240232,-0.338997 z"
         style="font-size:16.9333px;stroke-width:0.265"
         id="path432" />
      <path
         d="m 46.480893,12.189723 h 3.183262 v 12.344441 h -3.183262 z"
         style="font-size:16.9333px;stroke-width:0.265"
         id="path434" />
      <path
         d="m 62.570834,23.856171 q -0.876431,0.454752 -1.827275,0.686262 -0.950845,0.23151 -1.984371,0.23151 -3.084044,0 -4.886514,-1.719789 -1.802471,-1.728056 -1.802471,-4.679808 0,-2.96002 1.802471,-4.679809 1.80247,-1.728056 4.886514,-1.728056 1.033526,0 1.984371,0.23151 0.950844,0.23151 1.827275,0.686261 v 2.554878 q -0.884699,-0.603579 -1.744593,-0.884699 -0.859894,-0.281119 -1.810739,-0.281119 -1.703252,0 -2.678901,1.091404 -0.975649,1.091404 -0.975649,3.00963 0,1.909957 0.975649,3.001361 0.975649,1.091404 2.678901,1.091404 0.950845,0 1.810739,-0.281119 0.859894,-0.281119 1.744593,-0.884699 z"
         style="font-size:16.9333px;stroke-width:0.265"
         id="path436" />
      <path
         d="m 65.208394,12.189723 h 3.183262 v 12.344441 h -3.183262 z"
         style="font-size:16.9333px;stroke-width:0.265"
         id="path438" />
      <path
         d="m 70.037033,12.189723 h 11.377061 v 2.40605 h -4.092766 v 9.938391 h -3.183262 v -9.938391 h -4.101033 z"
         style="font-size:16.9333px;stroke-width:0.265"
         id="path440" />
      <path
         d="m 83.059464,12.189723 h 8.590673 v 2.40605 h -5.407411 v 2.298563 h 5.084951 v 2.40605 h -5.084951 v 2.827728 h 5.589312 v 2.40605 h -8.772574 z"
         style="font-size:16.9333px;stroke-width:0.265"
         id="path442" />
         </g>
</svg>