<svg width="80mm" height="80mm" fill="none" stroke="black"><circle r="40mm" cx="40mm" cy="40mm" stroke-width="0.1mm" /><circle r="0.5" cx="39.167706326905716mm" cy="41.81859485365136mm" fill="none" stroke="black" stroke-width="0.1mm" /><circle r="0.514" cx="38.25959171530414mm" cy="41.166192095052104mm" fill="none" stroke="black" stroke-width="0.1mm" /><circle r="0.528" cx="37.811675105837246mm" cy="40.08563969633053mm" fill="none" stroke="black" stroke-width="0.1mm" /><circle r="0.542" cx="38.008152632123796mm" cy="38.88028170369301mm" fill="none" stroke="black" stroke-width="0.1mm" /><circle r="0.556" cx="38.84347316469656mm" cy="37.91989286833033mm" fill="none" stroke="black" stroke-width="0.1mm" /><circle r="0.5700000000000001" cx="40.108383965603664mm" cy="37.52737428711905mm" fill="none" stroke="black" stroke-width="0.1mm" /><circle r="0.5840000000000001" cx="41.4406020127095mm" cy="37.871722329916196mm" fill="none" stroke="black" stroke-width="0.1mm" /><circle r="0.5980000000000001" cx="42.42845304502383mm" cy="38.90234759230689mm" fill="none" stroke="black" stroke-width="0.1mm" /><circle r="0.6120000000000001" cx="42.73786760515358mm" cy="40.34882800439557mm" fill="none" stroke="black" stroke-width="0.1mm" /><circle r="0.6260000000000001" cx="42.22361915573138mm" cy="41.79068223039837mm" fill="none" stroke="black" stroke-width="0.1mm" /><circle r="0.6400000000000001" cx="40.98821504295992mm" cy="42.77955590497255mm" fill="none" stroke="black" stroke-width="0.1mm" /><circle r="0.6540000000000001" cx="39.366293165534856mm" cy="42.978328498999424mm" fill="none" stroke="black" stroke-width="0.1mm" /><circle r="0.6680000000000001" cx="37.8347729389412mm" cy="42.27406943035139mm" fill="none" stroke="black" stroke-width="0.1mm" /><circle r="0.6820000000000002" cx="36.87262697605183mm" cy="40.827504059857894mm" fill="none" stroke="black" stroke-width="0.1mm" /><circle r="0.6960000000000002" cx="36.811502383439176mm" cy="39.039592300537954mm" fill="none" stroke="black" stroke-width="0.1mm" /><circle r="0.7100000000000002" cx="37.723661933735386mm" cy="37.44091617798973mm" fill="none" stroke="black" stroke-width="0.1mm" /><circle r="0.7240000000000002" cx="39.38453319957162mm" cy="36.534224384416895mm" fill="none" stroke="black" stroke-width="0.1mm" /><circle r="0.7380000000000002" cx="41.32571312856317mm" cy="36.63686014255202mm" fill="none" stroke="black" stroke-width="0.1mm" /><circle r="0.7520000000000002" cx="42.96673216624704mm" cy="37.77231055715678mm" fill="none" stroke="black" stroke-width="0.1mm" /><circle r="0.7660000000000002" cx="43.788616602167764mm" cy="39.64728305714237mm" fill="none" stroke="black" stroke-width="0.1mm" /><circle r="0.7800000000000002" cx="43.49735782370316mm" cy="41.72582972884995mm" fill="none" stroke="black" stroke-width="0.1mm" /><circle r="0.7940000000000003" cx="42.125980236921635mm" cy="43.38234135359202mm" fill="none" stroke="black" stroke-width="0.1mm" /><circle r="0.8080000000000003" cx="40.04053608015723mm" cy="44.089799118074815mm" fill="none" stroke="black" stroke-width="0.1mm" /><circle r="0.8220000000000003" cx="37.84357693001198mm" cy="43.58665088114574mm" fill="none" stroke="black" stroke-width="0.1mm" /><circle r="0.8360000000000003" cx="36.20016886347005mm" cy="41.96969117728073mm" fill="none" stroke="black" stroke-width="0.1mm" /><circle r="0.8500000000000003" cx="35.63665494206133mm" cy="39.68086851399117mm" fill="none" stroke="black" stroke-width="0.1mm" /><circle r="0.8640000000000003" cx="36.37302932335649mm" cy="37.3873416391024mm" fill="none" stroke="black" stroke-width="0.1mm" /><circle r="0.8780000000000003" cx="38.24204727200596mm" cy="35.78706430073537mm" fill="none" stroke="black" stroke-width="0.1mm" /><circle r="0.8920000000000003" cx="40.72369072531817mm" cy="35.396536984607295mm" fill="none" stroke="black" stroke-width="0.1mm" /><circle r="0.9060000000000004" cx="43.0892465640485mm" cy="36.38522743917207mm" fill="none" stroke="black" stroke-width="0.1mm" /><circle r="0.9200000000000004" cx="44.61527005836418mm" cy="38.509435580604745mm" fill="none" stroke="black" stroke-width="0.1mm" /><circle r="0.9340000000000004" cx="44.80461496093473mm" cy="41.16991455977015mm" fill="none" stroke="black" stroke-width="0.1mm" /><circle r="0.9480000000000004" cx="43.547062400687494mm" cy="43.580495541908846mm" fill="none" stroke="black" stroke-width="0.1mm" /><circle r="0.9620000000000004" cx="41.16800760204958mm" cy="45.00039830829049mm" fill="none" stroke="black" stroke-width="0.1mm" /><circle r="0.9760000000000004" cx="38.34603088855041mm" cy="44.96158101600393mm" fill="none" stroke="black" stroke-width="0.1mm" /><circle r="0.9900000000000004" cx="35.91963421763336mm" cy="43.42143830604783mm" fill="none" stroke="black" stroke-width="0.1mm" /><circle r="1.0040000000000004" cx="34.63809692461958mm" cy="40.791451457908856mm" fill="none" stroke="black" stroke-width="0.1mm" /><circle r="1.0180000000000005" cx="34.930478305447565mm" cy="37.82855467753336mm" fill="none" stroke="black" stroke-width="0.1mm" /><circle r="1.0320000000000005" cx="36.76387316214776mm" cy="35.417469793953074mm" fill="none" stroke="black" stroke-width="0.1mm" /><circle r="1.0460000000000005" cx="39.637247836695494mm" cy="34.3065444703574mm" fill="none" stroke="black" stroke-width="0.1mm" /><circle r="1.0600000000000005" cx="42.71739669354233mm" cy="34.87596299682318mm" fill="none" stroke="black" stroke-width="0.1mm" /><circle r="1.0740000000000005" cx="45.080437518750266mm" cy="37.00998668597034mm" fill="none" stroke="black" stroke-width="0.1mm" /><circle r="1.0880000000000005" cx="45.988885295192155mm" cy="40.11555483992966mm" fill="none" stroke="black" stroke-width="0.1mm" /><circle r="1.1020000000000005" cx="45.121221816087115mm" cy="43.28638283077815mm" fill="none" stroke="black" stroke-width="0.1mm" /><circle r="1.1160000000000005" cx="42.682665880181524mm" cy="45.567378537095344mm" fill="none" stroke="black" stroke-width="0.1mm" /><circle r="1.1300000000000006" cx="39.35973055336574mm" cy="46.242249597357244mm" fill="none" stroke="black" stroke-width="0.1mm" /><circle r="1.1440000000000006" cx="36.127481564299025mm" cy="45.05771697163414mm" fill="none" stroke="black" stroke-width="0.1mm" /><circle r="1.1580000000000006" cx="33.96344511482683mm" cy="42.31435306690486mm" fill="none" stroke="black" stroke-width="0.1mm" /><circle r="1.1720000000000006" cx="33.55209901249992mm" cy="38.79245171715765mm" fill="none" stroke="black" stroke-width="0.1mm" /><circle r="1.1860000000000006" cx="35.069244427450876mm" cy="35.53047267781304mm" fill="none" stroke="black" stroke-width="0.1mm" /><circle r="1.2000000000000006" cx="38.113945387157486mm" cy="33.518850565109965mm" fill="none" stroke="black" stroke-width="0.1mm" /><circle r="1.2140000000000006" cx="41.812932749715216mm" cy="33.3994470046056mm" fill="none" stroke="black" stroke-width="0.1mm" /><circle r="1.2280000000000006" cx="45.070800995789625mm" cy="35.26179598781364mm" fill="none" stroke="black" stroke-width="0.1mm" /><circle r="1.2420000000000007" cx="46.89439784292345mm" cy="38.60053460796904mm" fill="none" stroke="black" stroke-width="0.1mm" /><circle r="1.2560000000000007" cx="46.695343073538574mm" cy="42.4513835129614mm" fill="none" stroke="black" stroke-width="0.1mm" /><circle r="1.2700000000000007" cx="44.478597293576144mm" cy="45.66946128675136mm" fill="none" stroke="black" stroke-width="0.1mm" /><circle r="1.2840000000000007" cx="40.85699234530402mm" cy="47.26966052302927mm" fill="none" stroke="black" stroke-width="0.1mm" /><circle r="1.2980000000000007" cx="36.88267882572768mm" cy="46.72789221795603mm" fill="none" stroke="black" stroke-width="0.1mm" /><circle r="1.3120000000000007" cx="33.741573512042244mm" cy="44.15116825662712mm" fill="none" stroke="black" stroke-width="0.1mm" /><circle r="1.3260000000000007" cx="32.39950561603768mm" cy="40.26174437789032mm" fill="none" stroke="black" stroke-width="0.1mm" /><circle r="1.3400000000000007" cx="33.30563932430651mm" cy="36.195327196232434mm" fill="none" stroke="black" stroke-width="0.1mm" /><circle r="1.3540000000000008" cx="36.244129619030886mm" cy="33.169519586342496mm" fill="none" stroke="black" stroke-width="0.1mm" /><circle r="1.3680000000000008" cx="40.38248475161211mm" cy="32.119276339397246mm" fill="none" stroke="black" stroke-width="0.1mm" /><circle r="1.3820000000000008" cx="44.50692395739373mm" cy="33.40850081982328mm" fill="none" stroke="black" stroke-width="0.1mm" /><circle r="1.3960000000000008" cx="47.37834376424051mm" cy="36.706606112732175mm" fill="none" stroke="black" stroke-width="0.1mm" /><circle r="1.4100000000000008" cx="48.104509169064364mm" cy="41.07124046252535mm" fill="none" stroke="black" stroke-width="0.1mm" /><circle r="1.4240000000000008" cx="46.41669519158252mm" cy="45.217175751143685mm" fill="none" stroke="black" stroke-width="0.1mm" /><circle r="1.4380000000000008" cx="42.76517491791678mm" cy="47.89474715702307mm" fill="none" stroke="black" stroke-width="0.1mm" /><circle r="1.4520000000000008" cx="38.200561847483655mm" cy="48.266415325597215mm" fill="none" stroke="black" stroke-width="0.1mm" /><circle r="1.4660000000000009" cx="34.07179348468789mm" cy="46.16801366015113mm" fill="none" stroke="black" stroke-width="0.1mm" /><circle r="1.4800000000000009" cx="31.627494836927532mm" cy="42.17339763833608mm" fill="none" stroke="black" stroke-width="0.1mm" /><circle r="1.4940000000000009" cx="31.63852571606295mm" cy="37.43859944579935mm" fill="none" stroke="black" stroke-width="0.1mm" /><circle r="1.508000000000001" cx="34.15576812442939mm" cy="33.36746249278872mm" fill="none" stroke="black" stroke-width="0.1mm" /><circle r="1.522000000000001" cx="38.47901083781975mm" cy="31.195409324191715mm" fill="none" stroke="black" stroke-width="0.1mm" /><circle r="1.536000000000001" cx="43.350901374614125mm" cy="31.61475343370219mm" fill="none" stroke="black" stroke-width="0.1mm" /><circle r="1.550000000000001" cx="47.32250212023522mm" cy="34.5551319851487mm" fill="none" stroke="black" stroke-width="0.1mm" /><circle r="1.564000000000001" cx="49.1842089285934mm" cy="39.18839273293952mm" fill="none" stroke="black" stroke-width="0.1mm" /><circle r="1.578000000000001" cx="48.333877589306475mm" cy="44.16121488587833mm" fill="none" stroke="black" stroke-width="0.1mm" /><circle r="1.592000000000001" cx="44.970203054076244mm" cy="47.99031799124736mm" fill="none" stroke="black" stroke-width="0.1mm" /><circle r="1.606000000000001" cx="40.04962093138739mm" cy="49.50487047587542mm" fill="none" stroke="black" stroke-width="0.1mm" /><circle r="1.620000000000001" cx="35.01482892047932mm" cy="48.204149517647195mm" fill="none" stroke="black" stroke-width="0.1mm" /><circle r="1.634000000000001" cx="31.37183862269569mm" cy="44.42129576563187mm" fill="none" stroke="black" stroke-width="0.1mm" /><circle r="1.648000000000001" cx="30.239537544287455mm" cy="39.240083787101526mm" fill="none" stroke="black" stroke-width="0.1mm" /><circle r="1.662000000000001" cx="32.00647208522366mm" cy="34.18478405597078mm" fill="none" stroke="black" stroke-width="0.1mm" /><circle r="1.676000000000001" cx="36.200009418466784mm" cy="30.771756852994226mm" fill="none" stroke="black" stroke-width="0.1mm" /><circle r="1.690000000000001" cx="41.61129935316406mm" cy="30.054682539280442mm" fill="none" stroke="black" stroke-width="0.1mm" /><circle r="1.704000000000001" cx="46.64347637578996mm" cy="32.29979729849137mm" fill="none" stroke="black" stroke-width="0.1mm" /><circle r="1.718000000000001" cx="49.78288571152362mm" cy="36.89108183522512mm" fill="none" stroke="black" stroke-width="0.1mm" /><circle r="1.732000000000001" cx="50.05427935955627mm" cy="42.498212673092695mm" fill="none" stroke="black" stroke-width="0.1mm" /><circle r="1.746000000000001" cx="47.323122979234086mm" cy="47.46182918800839mm" fill="none" stroke="black" stroke-width="0.1mm" /><circle r="1.7600000000000011" cx="42.35148859375688mm" cy="50.2846002058141mm" fill="none" stroke="black" stroke-width="0.1mm" /><circle r="1.7740000000000011" cx="36.58622404892166mm" cy="50.08276543195563mm" fill="none" stroke="black" stroke-width="0.1mm" /><circle r="1.7880000000000011" cx="31.73802635903659mm" cy="46.86202532464185mm" fill="none" stroke="black" stroke-width="0.1mm" /><circle r="1.8020000000000012" cx="29.273836778188564mm" cy="41.53187712923067mm" fill="none" stroke="black" stroke-width="0.1mm" /><circle r="1.8160000000000012" cx="29.97317579318907mm" cy="35.64940276218188mm" fill="none" stroke="black" stroke-width="0.1mm" /><circle r="1.8300000000000012" cx="33.68254478329707mm" cy="30.96449311964441mm" fill="none" stroke="black" stroke-width="0.1mm" /><circle r="1.8440000000000012" cx="39.34499740165174mm" cy="28.899307607353613mm" fill="none" stroke="black" stroke-width="0.1mm" /><circle r="1.8580000000000012" cx="45.3008312140184mm" cy="30.116811575180378mm" fill="none" stroke="black" stroke-width="0.1mm" /><circle r="1.8720000000000012" cx="49.77400163892777mm" cy="34.309218686134784mm" fill="none" stroke="black" stroke-width="0.1mm" /><circle r="1.8860000000000012" cx="51.40172013018929mm" cy="40.27350150426773mm" fill="none" stroke="black" stroke-width="0.1mm" /><circle r="1.9000000000000012" cx="49.64932258437872mm" cy="46.256242775228536mm" fill="none" stroke="black" stroke-width="0.1mm" /><circle r="1.9140000000000013" cx="44.9842023594805mm" cy="50.46908553025284mm" fill="none" stroke="black" stroke-width="0.1mm" /><circle r="1.9280000000000013" cx="38.75267696646649mm" cy="51.62326482749219mm" fill="none" stroke="black" stroke-width="0.1mm" /><circle r="1.9420000000000013" cx="32.79172465961437mm" cy="49.323464571562916mm" fill="none" stroke="black" stroke-width="0.1mm" /><circle r="1.9560000000000013" cx="28.887478757146347mm" cy="44.20074655592631mm" fill="none" stroke="black" stroke-width="0.1mm" /><circle r="1.9700000000000013" cx="28.24010114704022mm" cy="37.740485899987405mm" fill="none" stroke="black" stroke-width="0.1mm" /><circle r="1.9840000000000013" cx="31.09533907823213mm" cy="31.851876665860985mm" fill="none" stroke="black" stroke-width="0.1mm" /><circle r="1.9980000000000013" cx="36.6557366878053mm" cy="28.303713072145115mm" fill="none" stroke="black" stroke-width="0.1mm" /><circle r="2.0120000000000013" cx="43.302540573508814mm" cy="28.19318731577702mm" fill="none" stroke="black" stroke-width="0.1mm" /><circle r="2.026000000000001" cx="49.06680825084069mm" cy="31.607204688395655mm" fill="none" stroke="black" stroke-width="0.1mm" /><circle r="2.040000000000001" cx="52.21265606432806mm" cy="37.58059266463216mm" fill="none" stroke="black" stroke-width="0.1mm" /><circle r="2.0540000000000007" cx="51.759874556584066mm" cy="44.36833783187695mm" fill="none" stroke="black" stroke-width="0.1mm" /><circle r="2.0680000000000005" cx="47.78860993448406mm" cy="49.95525767062093mm" fill="none" stroke="black" stroke-width="0.1mm" /><circle r="2.0820000000000003" cx="41.43161510284467mm" cy="52.65427608349477mm" fill="none" stroke="black" stroke-width="0.1mm" /><circle r="2.096" cx="34.551627655365216mm" cy="51.615685033359824mm" fill="none" stroke="black" stroke-width="0.1mm" /><circle r="2.11" cx="29.195613434438393mm" cy="47.09371947161096mm" fill="none" stroke="black" stroke-width="0.1mm" /><circle r="2.1239999999999997" cx="26.98575496393488mm" cy="40.38707381887073mm" fill="none" stroke="black" stroke-width="0.1mm" /><circle r="2.1379999999999995" cx="28.628374056764283mm" cy="33.466291374178894mm" fill="none" stroke="black" stroke-width="0.1mm" /><circle r="2.1519999999999992" cx="33.689382568684316mm" cy="28.39481979305899mm" fill="none" stroke="black" stroke-width="0.1mm" /><circle r="2.165999999999999" cx="40.707316974699545mm" cy="26.71381440377628mm" fill="none" stroke="black" stroke-width="0.1mm" /><circle r="2.179999999999999" cx="47.61508103889133mm" cy="28.974096827419597mm" fill="none" stroke="black" stroke-width="0.1mm" /><circle r="2.1939999999999986" cx="52.348777963112596mm" cy="34.55732530663961mm" fill="none" stroke="black" stroke-width="0.1mm" /><circle r="2.2079999999999984" cx="53.464315711100944mm" cy="41.84399089797135mm" fill="none" stroke="black" stroke-width="0.1mm" /><circle r="2.221999999999998" cx="50.5775828482321mm" cy="48.68296988874124mm" fill="none" stroke="black" stroke-width="0.1mm" /><circle r="2.235999999999998" cx="44.49413016046948mm" cy="53.02655726202282mm" fill="none" stroke="black" stroke-width="0.1mm" /><circle r="2.249999999999998" cx="36.98523295661004mm" cy="53.54351522589651mm" fill="none" stroke="black" stroke-width="0.1mm" /><circle r="2.2639999999999976" cx="30.272318807382284mm" cy="50.026620498193424mm" fill="none" stroke="black" stroke-width="0.1mm" /><circle r="2.2779999999999974" cx="26.369783017168743mm" cy="43.47007348638891mm" fill="none" stroke="black" stroke-width="0.1mm" /><circle r="2.291999999999997" cx="26.48061215797822mm" cy="35.7890912647037mm" fill="none" stroke="black" stroke-width="0.1mm" /><circle r="2.305999999999997" cx="30.6261171664412mm" cy="29.26057051688905mm" fill="none" stroke="black" stroke-width="0.1mm" /><circle r="2.3199999999999967" cx="37.623580082316465mm" cy="25.848140462298318mm" fill="none" stroke="black" stroke-width="0.1mm" /><circle r="2.3339999999999965" cx="45.42318831740555mm" cy="26.611682201487852mm" fill="none" stroke="black" stroke-width="0.1mm" /><circle r="2.3479999999999963" cx="51.70842296298106mm" cy="31.378838145589725mm" fill="none" stroke="black" stroke-width="0.1mm" /><circle r="2.361999999999996" cx="54.5840709076549mm" cy="38.780122645306044mm" fill="none" stroke="black" stroke-width="0.1mm" /><circle r="2.375999999999996" cx="53.14752070530091mm" cy="46.64195749035515mm" fill="none" stroke="black" stroke-width="0.1mm" /><circle r="2.3899999999999957" cx="47.77118104488643mm" cy="52.62495030356948mm" fill="none" stroke="black" stroke-width="0.1mm" /><circle r="2.4039999999999955" cx="40.00790580502572mm" cy="54.91999790543712mm" fill="none" stroke="black" stroke-width="0.1mm" /><circle r="2.4179999999999953" cx="32.14277733162438mm" cy="52.79508800046196mm" fill="none" stroke="black" stroke-width="0.1mm" /><circle r="2.431999999999995" cx="26.520531643745052mm" cy="46.82759348765894mm" fill="none" stroke="black" stroke-width="0.1mm" /><circle r="2.445999999999995" cx="24.84657804636658mm" cy="38.748669470067114mm" fill="none" stroke="black" stroke-width="0.1mm" /><circle r="2.4599999999999946" cx="27.669975448100338mm" cy="30.94127522498046mm" fill="none" stroke="black" stroke-width="0.1mm" /><circle r="2.4739999999999944" cx="34.205028204878424mm" cy="25.737309969933904mm" fill="none" stroke="black" stroke-width="0.1mm" /><circle r="2.487999999999994" cx="42.54901822923467mm" cy="24.721171312334484mm" fill="none" stroke="black" stroke-width="0.1mm" /><circle r="2.501999999999994" cx="50.2360228531809mm" cy="28.247721023173433mm" fill="none" stroke="black" stroke-width="0.1mm" /><circle r="2.515999999999994" cx="54.9656715783364mm" cy="35.32121017683252mm" fill="none" stroke="black" stroke-width="0.1mm" /><circle r="2.5299999999999936" cx="55.29147272072699mm" cy="43.8757563173223mm" fill="none" stroke="black" stroke-width="0.1mm" /><circle r="2.5439999999999934" cx="51.06276630931947mm" cy="51.37858082475084mm" fill="none" stroke="black" stroke-width="0.1mm" /><circle r="2.557999999999993" cx="43.485396202945545mm" cy="55.57989853331832mm" fill="none" stroke="black" stroke-width="0.1mm" /><circle r="2.571999999999993" cx="34.77837581161232mm" cy="55.18743694094715mm" fill="none" stroke="black" stroke-width="0.1mm" /><circle r="2.5859999999999927" cx="27.5241432994423mm" cy="50.263382706844325mm" fill="none" stroke="black" stroke-width="0.1mm" /><circle r="2.5999999999999925" cx="23.90263046995863mm" cy="42.221979795879605mm" fill="none" stroke="black" stroke-width="0.1mm" /><circle r="2.6139999999999923" cx="25.036314250090527mm" cy="33.423744699454126mm" fill="none" stroke="black" stroke-width="0.1mm" /><circle r="2.627999999999992" cx="30.642988049582073mm" cy="26.482606487945333mm" fill="none" stroke="black" stroke-width="0.1mm" /><circle r="2.641999999999992" cx="39.10347275307105mm" cy="23.489322730562645mm" fill="none" stroke="black" stroke-width="0.1mm" /><circle r="2.6559999999999917" cx="47.92891609546694mm" cy="25.38188830419446mm" fill="none" stroke="black" stroke-width="0.1mm" /><circle r="2.6699999999999915" cx="54.49291121283455mm" cy="31.65247644047075mm" fill="none" stroke="black" stroke-width="0.1mm" /><circle r="2.6839999999999913" cx="56.81308588584288mm" cy="40.48222712000914mm" fill="none" stroke="black" stroke-width="0.1mm" /><circle r="2.697999999999991" cx="54.149575003660566mm" cy="49.268589548350135mm" fill="none" stroke="black" stroke-width="0.1mm" /><circle r="2.711999999999991" cx="47.239762411549506mm" cy="55.39239878070718mm" fill="none" stroke="black" stroke-width="0.1mm" /><circle r="2.7259999999999907" cx="38.09514124691977mm" cy="56.99860400535334mm" fill="none" stroke="black" stroke-width="0.1mm" /><circle r="2.7399999999999904" cx="29.415937293181567mm" cy="53.557935558857636mm" fill="none" stroke="black" stroke-width="0.1mm" /><circle r="2.7539999999999902" cx="23.79379426003612mm" cy="46.0395298255711mm" fill="none" stroke="black" stroke-width="0.1mm" /><circle r="2.76799999999999" cx="22.937947190980285mm" cy="36.63868270729709mm" fill="none" stroke="black" stroke-width="0.1mm" /><circle r="2.78199999999999" cx="27.155923041788228mm" cy="28.135982464125632mm" fill="none" stroke="black" stroke-width="0.1mm" /><circle r="2.7959999999999896" cx="35.24644385813289mm" cy="23.074867681281823mm" fill="none" stroke="black" stroke-width="0.1mm" /><circle r="2.8099999999999894" cx="44.84099752072534mm" cy="23.00087155162559mm" fill="none" stroke="black" stroke-width="0.1mm" /><circle r="2.823999999999989" cx="53.097124349873255mm" cy="27.99007769534049mm" fill="none" stroke="black" stroke-width="0.1mm" /><circle r="2.837999999999989" cx="57.540517457945384mm" cy="36.61053510012063mm" fill="none" stroke="black" stroke-width="0.1mm" /><circle r="2.8519999999999888" cx="56.80645820002218mm" cy="46.3328163380054mm" fill="none" stroke="black" stroke-width="0.1mm" /><circle r="2.8659999999999886" cx="51.05844148676126mm" cy="54.27213708187664mm" fill="none" stroke="black" stroke-width="0.1mm" /><circle r="2.8799999999999883" cx="41.955728789239714mm" cy="58.04432389708575mm" fill="none" stroke="black" stroke-width="0.1mm" /><circle r="2.893999999999988" cx="32.174704786739106mm" cy="56.48164979076175mm" fill="none" stroke="black" stroke-width="0.1mm" /><circle r="2.907999999999988" cx="24.622010383953324mm" cy="49.99364975215569mm" fill="none" stroke="black" stroke-width="0.1mm" /><circle r="2.9219999999999877" cx="21.570780424184342mm" cy="40.461617619219275mm" fill="none" stroke="black" stroke-width="0.1mm" /><circle r="2.9359999999999875" cx="23.9766666254034mm" cy="30.693352506592966mm" fill="none" stroke="black" stroke-width="0.1mm" /><circle r="2.9499999999999873" cx="31.179402545672815mm" cy="23.59610760981658mm" fill="none" stroke="black" stroke-width="0.1mm" /><circle r="2.963999999999987" cx="41.08286137840203mm" cy="21.311345387236518mm" fill="none" stroke="black" stroke-width="0.1mm" /><circle r="2.977999999999987" cx="50.7648699174573mm" cy="24.56880430231592mm" fill="none" stroke="black" stroke-width="0.1mm" /><circle r="2.9919999999999867" cx="57.33942846329643mm" cy="32.4546490760054mm" fill="none" stroke="black" stroke-width="0.1mm" /><circle r="3.0059999999999865" cx="58.816933149434774mm" cy="42.66703053032831mm" fill="none" stroke="black" stroke-width="0.1mm" /><circle r="3.0199999999999863" cx="54.70600604635756mm" cy="52.187837632841mm" fill="none" stroke="black" stroke-width="0.1mm" /><circle r="3.033999999999986" cx="46.1749644895296mm" cy="58.174648237395104mm" fill="none" stroke="black" stroke-width="0.1mm" /><circle r="3.047999999999986" cx="35.720384461399235mm" cy="58.809279381246036mm" fill="none" stroke="black" stroke-width="0.1mm" /><circle r="3.0619999999999856" cx="26.43659802491611mm" cy="53.84963363639236mm" fill="none" stroke="black" stroke-width="0.1mm" /><circle r="3.0759999999999854" cx="21.099837976417987mm" cy="44.7174437444816mm" fill="none" stroke="black" stroke-width="0.1mm" /><circle r="3.089999999999985" cx="21.338102862871764mm" cy="34.09117437698106mm" fill="none" stroke="black" stroke-width="0.1mm" /><circle r="3.103999999999985" cx="27.13494383180483mm" cy="25.12050976043925mm" fill="none" stroke="black" stroke-width="0.1mm" /><circle r="3.117999999999985" cx="36.81829976607244mm" cy="20.492770349908078mm" fill="none" stroke="black" stroke-width="0.1mm" /><circle r="3.1319999999999846" cx="47.54243942007525mm" cy="21.62797758561962mm" fill="none" stroke="black" stroke-width="0.1mm" /><circle r="3.1459999999999844" cx="56.12420664777531mm" cy="28.24364065793162mm" fill="none" stroke="black" stroke-width="0.1mm" /><circle r="3.159999999999984" cx="59.987846324133386mm" cy="38.42250219561883mm" fill="none" stroke="black" stroke-width="0.1mm" /><circle r="3.173999999999984" cx="57.93796832601408mm" cy="49.16789601462166mm" fill="none" stroke="black" stroke-width="0.1mm" /><circle r="3.1879999999999837" cx="50.528727199597554mm" cy="57.28593369061835mm" fill="none" stroke="black" stroke-width="0.1mm" /><circle r="3.2019999999999835" cx="39.91539093378842mm" cy="60.33482398020486mm" fill="none" stroke="black" stroke-width="0.1mm" /><circle r="3.2159999999999833" cx="29.227609569722148mm" cy="57.359161973368934mm" fill="none" stroke="black" stroke-width="0.1mm" /><circle r="3.229999999999983" cx="21.646566982481037mm" cy="49.18842323097084mm" fill="none" stroke="black" stroke-width="0.1mm" /><circle r="3.243999999999983" cx="19.458132625136546mm" cy="38.20665542811201mm" fill="none" stroke="black" stroke-width="0.1mm" /><circle r="3.2579999999999827" cx="23.363827183108572mm" cy="27.657027140655195mm" fill="none" stroke="black" stroke-width="0.1mm" /><circle r="3.2719999999999825" cx="32.25723773691674mm" cy="20.684054966495335mm" fill="none" stroke="black" stroke-width="0.1mm" /><circle r="3.2859999999999823" cx="43.536788061417mm" cy="19.39635577844012mm" fill="none" stroke="black" stroke-width="0.1mm" /><circle r="3.299999999999982" cx="53.86665087311856mm" cy="24.229267817788553mm" fill="none" stroke="black" stroke-width="0.1mm" /><circle r="3.313999999999982" cx="60.163286366039245mm" cy="33.79992678098915mm" fill="none" stroke="black" stroke-width="0.1mm" /><circle r="3.3279999999999816" cx="60.51584869890354mm" cy="45.3024571816939mm" fill="none" stroke="black" stroke-width="0.1mm" /><circle r="3.3419999999999814" cx="54.76574360653968mm" cy="55.3304938193762mm" fill="none" stroke="black" stroke-width="0.1mm" /><circle r="3.355999999999981" cx="44.56965291525413mm" cy="60.88594437017653mm" fill="none" stroke="black" stroke-width="0.1mm" /><circle r="3.369999999999981" cx="32.92260289799527mm" cy="60.2752577113223mm" fill="none" stroke="black" stroke-width="0.1mm" /><circle r="3.383999999999981" cx="23.27826141424092mm" cy="53.625283801430896mm" fill="none" stroke="black" stroke-width="0.1mm" /><circle r="3.3979999999999806" cx="18.524832145937808mm" cy="42.86171113843677mm" fill="none" stroke="black" stroke-width="0.1mm" /><circle r="3.4119999999999804" cx="20.120220667781826mm" cy="31.151724817665862mm" fill="none" stroke="black" stroke-width="0.1mm" /><circle r="3.42599999999998" cx="27.645405918430498mm" cy="21.97210411391149mm" fill="none" stroke="black" stroke-width="0.1mm" /><circle r="3.43999999999998" cx="38.912692682708574mm" cy="18.076946772911317mm" fill="none" stroke="black" stroke-width="0.1mm" /><circle r="3.4539999999999798" cx="50.601480396381454mm" cy="20.67150708396698mm" fill="none" stroke="black" stroke-width="0.1mm" /><circle r="3.4679999999999795" cx="59.2368562115506mm" cy="29.039937815134166mm" fill="none" stroke="black" stroke-width="0.1mm" /><circle r="3.4819999999999793" cx="62.222625299960725mm" cy="40.74172082183563mm" fill="none" stroke="black" stroke-width="0.1mm" /><circle r="3.495999999999979" cx="58.621680426721596mm" cy="52.323226772442865mm" fill="none" stroke="black" stroke-width="0.1mm" /><circle r="3.509999999999979" cx="49.44919448621532mm" cy="60.33699458036209mm" fill="none" stroke="black" stroke-width="0.1mm" /><circle r="3.5239999999999787" cx="37.38716384232418mm" cy="62.36791199940532mm" fill="none" stroke="black" stroke-width="0.1mm" /><circle r="3.5379999999999785" cx="26.00033992675633mm" cy="57.76084859553804mm" fill="none" stroke="black" stroke-width="0.1mm" /><circle r="3.5519999999999783" cx="18.682726781891713mm" cy="47.830578685162536mm" fill="none" stroke="black" stroke-width="0.1mm" /><circle r="3.565999999999978" cx="17.645987699945394mm" cy="35.48711189048456mm" fill="none" stroke="black" stroke-width="0.1mm" /><circle r="3.579999999999978" cx="23.251258409709155mm" cy="24.383033100449367mm" fill="none" stroke="black" stroke-width="0.1mm" /><circle r="3.5939999999999777" cx="33.886162874188784mm" cy="17.83265869349572mm" fill="none" stroke="black" stroke-width="0.1mm" /><circle r="3.6079999999999774" cx="46.428205016419234mm" cy="17.82284327811879mm" fill="none" stroke="black" stroke-width="0.1mm" /><circle r="3.6219999999999772" cx="57.16148537230633mm" cy="24.410656049207386mm" fill="none" stroke="black" stroke-width="0.1mm" /><circle r="3.635999999999977" cx="62.87763095089151mm" cy="35.69042901499359mm" fill="none" stroke="black" stroke-width="0.1mm" /><circle r="3.649999999999977" cx="61.83475979316552mm" cy="48.34469231156912mm" fill="none" stroke="black" stroke-width="0.1mm" /><circle r="3.6639999999999766" cx="54.28787362057475mm" cy="58.61981652440438mm" fill="none" stroke="black" stroke-width="0.1mm" /><circle r="3.6779999999999764" cx="42.42929564146013mm" cy="63.43944853631119mm" fill="none" stroke="black" stroke-width="0.1mm" /><circle r="3.691999999999976" cx="29.75206421195316mm" cy="61.3254639359632mm" fill="none" stroke="black" stroke-width="0.1mm" /><circle r="3.705999999999976" cx="20.02106448368371mm" cy="52.850764982477635mm" fill="none" stroke="black" stroke-width="0.1mm" /><circle r="3.7199999999999758" cx="16.154939331597685mm" cy="40.48536761347544mm" fill="none" stroke="black" stroke-width="0.1mm" /><circle r="3.7339999999999756" cx="19.350825706983837mm" cy="27.876690797614778mm" fill="none" stroke="black" stroke-width="0.1mm" /><circle r="3.7479999999999754" cx="28.71435811513159mm" cy="18.773698220215056mm" fill="none" stroke="black" stroke-width="0.1mm" /><circle r="3.761999999999975" cx="41.50909647436598mm" cy="15.912226071489009mm" fill="none" stroke="black" stroke-width="0.1mm" /><circle r="3.775999999999975" cx="53.95608541768766mm" cy="20.192915918434547mm" fill="none" stroke="black" stroke-width="0.1mm" /><circle r="3.7899999999999747" cx="62.34996719086894mm" cy="30.398719274644684mm" fill="none" stroke="black" stroke-width="0.1mm" /><circle r="3.8039999999999745" cx="64.16200771207006mm" cy="43.5403083653637mm" fill="none" stroke="black" stroke-width="0.1mm" /><circle r="3.8179999999999743" cx="58.801690130087756mm" cy="55.731550249487746mm" fill="none" stroke="black" stroke-width="0.1mm" /><circle r="3.831999999999974" cx="47.807563739354606mm" cy="63.33868137783094mm" fill="none" stroke="black" stroke-width="0.1mm" /><circle r="3.845999999999974" cx="34.40609651086564mm" cy="64.06335946525854mm" fill="none" stroke="black" stroke-width="0.1mm" /><circle r="3.8599999999999737" cx="22.56488185487051mm" cy="57.63679832808023mm" fill="none" stroke="black" stroke-width="0.1mm" /><circle r="3.8739999999999735" cx="15.81800671922893mm" cy="45.91542272105214mm" fill="none" stroke="black" stroke-width="0.1mm" /><circle r="3.8879999999999733" cx="16.21133831312266mm" cy="32.34495753458603mm" fill="none" stroke="black" stroke-width="0.1mm" /><circle r="3.901999999999973" cx="23.682481203915025mm" cy="20.947551198352205mm" fill="none" stroke="black" stroke-width="0.1mm" /><circle r="3.915999999999973" cx="36.063226516418666mm" cy="15.12965190153206mm" fill="none" stroke="black" stroke-width="0.1mm" /><circle r="3.9299999999999726" cx="49.708518076515205mm" cy="16.66396988007655mm" fill="none" stroke="black" stroke-width="0.1mm" /><circle r="3.9439999999999724" cx="60.56956380815011mm" cy="25.149749337386993mm" fill="none" stroke="black" stroke-width="0.1mm" /><circle r="3.957999999999972" cx="65.39517878354238mm" cy="38.1155585570478mm" fill="none" stroke="black" stroke-width="0.1mm" /><circle r="3.971999999999972" cx="62.704902620108726mm" cy="51.73886693899273mm" fill="none" stroke="black" stroke-width="0.1mm" /><circle r="3.985999999999972" cx="53.24265641587724mm" cy="61.97296238678394mm" fill="none" stroke="black" stroke-width="0.1mm" /><circle r="3.9999999999999716" cx="39.772078785791294mm" cy="65.74899127966201mm" fill="none" stroke="black" stroke-width="0.1mm" /><circle r="4.013999999999972" cx="26.26951494214512mm" cy="61.89606825610525mm" fill="none" stroke="black" stroke-width="0.1mm" /><circle r="4.027999999999972" cx="16.750264698325665mm" cy="51.50362588065496mm" fill="none" stroke="black" stroke-width="0.1mm" /><circle r="4.041999999999972" cx="14.074557266132135mm" cy="37.614073753668364mm" fill="none" stroke="black" stroke-width="0.1mm" /><circle r="4.0559999999999725" cx="19.08831373188202mm" cy="24.332253594603912mm" fill="none" stroke="black" stroke-width="0.1mm" /><circle r="4.069999999999973" cx="30.3567700464696mm" cy="15.612323992160913mm" fill="none" stroke="black" stroke-width="0.1mm" /><circle r="4.083999999999973" cx="44.574547353909196mm" cy="14.080588037016764mm" fill="none" stroke="black" stroke-width="0.1mm" /><circle r="4.097999999999973" cx="57.535123631795145mm" cy="20.244705413037863mm" fill="none" stroke="black" stroke-width="0.1mm" /><circle r="4.1119999999999735" cx="65.37538812208857mm" cy="32.3273356874315mm" fill="none" stroke="black" stroke-width="0.1mm" /><circle r="4.125999999999974" cx="65.72706150515981mm" cy="46.77822479043889mm" fill="none" stroke="black" stroke-width="0.1mm" /><circle r="4.139999999999974" cx="58.43180769459754mm" cy="59.317309986366396mm" fill="none" stroke="black" stroke-width="0.1mm" /><circle r="4.153999999999974" cx="45.6041833994858mm" cy="66.20238831528386mm" fill="none" stroke="black" stroke-width="0.1mm" /><circle r="4.167999999999974" cx="31.019024140861994mm" cy="65.34589064557755mm" fill="none" stroke="black" stroke-width="0.1mm" /><circle r="4.181999999999975" cx="19.00065849294767mm" cy="56.947503688454674mm" fill="none" stroke="black" stroke-width="0.1mm" /><circle r="4.195999999999975" cx="13.140796250003547mm" cy="43.45102505296208mm" fill="none" stroke="black" stroke-width="0.1mm" /><circle r="4.209999999999975" cx="15.22522113125697mm" cy="28.833489488435557mm" fill="none" stroke="black" stroke-width="0.1mm" /><circle r="4.223999999999975" cx="24.689999504736527mm" cy="17.433281478357838mm" fill="none" stroke="black" stroke-width="0.1mm" /><circle r="4.237999999999976" cx="38.77267374977339mm" cy="12.662536780536861mm" fill="none" stroke="black" stroke-width="0.1mm" /><circle r="4.251999999999976" cx="53.31835121413089mm" cy="15.985980741719779mm" fill="none" stroke="black" stroke-width="0.1mm" /><circle r="4.265999999999976" cx="64.00552549747331mm" cy="26.471778735171657mm" fill="none" stroke="black" stroke-width="0.1mm" /><circle r="4.279999999999976" cx="67.62998118257858mm" cy="41.05196951018011mm" fill="none" stroke="black" stroke-width="0.1mm" /><circle r="4.2939999999999765" cx="63.06534143809087mm" cy="55.41995620435684mm" fill="none" stroke="black" stroke-width="0.1mm" /><circle r="4.307999999999977" cx="51.612349059631065mm" cy="65.30254827714553mm" fill="none" stroke="black" stroke-width="0.1mm" /><circle r="4.321999999999977" cx="36.62878742085359mm" cy="67.73083393528222mm" fill="none" stroke="black" stroke-width="0.1mm" /><circle r="4.335999999999977" cx="22.54515477903108mm" cy="61.93192372574766mm" fill="none" stroke="black" stroke-width="0.1mm" /><circle r="4.349999999999977" cx="13.554612253880798mm" cy="49.57377104162216mm" fill="none" stroke="black" stroke-width="0.1mm" /><circle r="4.363999999999978" cx="12.36457278921944mm" cy="34.285845392567346mm" fill="none" stroke="black" stroke-width="0.1mm" /><circle r="4.377999999999978" cx="19.381605750589024mm" cy="20.59327323900677mm" fill="none" stroke="black" stroke-width="0.1mm" /><circle r="4.391999999999978" cx="32.574987557587136mm" cy="12.577431006012432mm" fill="none" stroke="black" stroke-width="0.1mm" /><circle r="4.405999999999978" cx="48.06406233806385mm" cy="12.659445440741067mm" fill="none" stroke="black" stroke-width="0.1mm" /><circle r="4.419999999999979" cx="61.259625893092704mm" cy="20.869179137168828mm" fill="none" stroke="black" stroke-width="0.1mm" /><circle r="4.433999999999979" cx="68.22364505465829mm" cy="34.82033931336647mm" fill="none" stroke="black" stroke-width="0.1mm" /><circle r="4.447999999999979" cx="66.84444592168143mm" cy="50.403836944027695mm" fill="none" stroke="black" stroke-width="0.1mm" /><circle r="4.461999999999979" cx="57.47668977849064mm" cy="62.99801163984388mm" fill="none" stroke="black" stroke-width="0.1mm" /><circle r="4.4759999999999796" cx="42.85228011981357mm" cy="68.83929434154223mm" fill="none" stroke="black" stroke-width="0.1mm" /><circle r="4.48999999999998" cx="27.28386193867987mm" cy="66.1468058815114mm" fill="none" stroke="black" stroke-width="0.1mm" /><circle r="4.50399999999998" cx="15.393077067377188mm" cy="55.66487292600726mm" fill="none" stroke="black" stroke-width="0.1mm" /><circle r="4.51799999999998" cx="10.738589068040195mm" cy="40.458317871107816mm" fill="none" stroke="black" stroke-width="0.1mm" /><circle r="4.5319999999999805" cx="14.75115884778118mm" cy="25.016488379888546mm" fill="none" stroke="black" stroke-width="0.1mm" /><circle r="4.545999999999981" cx="26.294415869100668mm" cy="13.927907858577328mm" fill="none" stroke="black" stroke-width="0.1mm" /><circle r="4.559999999999981" cx="41.98599854309855mm" cy="10.516813099890243mm" fill="none" stroke="black" stroke-width="0.1mm" /><circle r="4.573999999999981" cx="57.18852053601232mm" cy="15.846723063255453mm" fill="none" stroke="black" stroke-width="0.1mm" /><circle r="4.587999999999981" cx="67.38006518834297mm" cy="28.389675702975296mm" fill="none" stroke="black" stroke-width="0.1mm" /><circle r="4.601999999999982" cx="69.49918594982177mm" cy="44.463771196850416mm" fill="none" stroke="black" stroke-width="0.1mm" /><circle r="4.615999999999982" cx="62.86436187709846mm" cy="59.3138772894797mm" fill="none" stroke="black" stroke-width="0.1mm" /><circle r="4.629999999999982" cx="49.391815863769814mm" cy="68.51831726769717mm" fill="none" stroke="black" stroke-width="0.1mm" /><circle r="4.643999999999982" cx="33.04245143165042mm" cy="69.30540765659214mm" fill="none" stroke="black" stroke-width="0.1mm" /><circle r="4.657999999999983" cx="18.65742260534908mm" cy="61.387861397375104mm" fill="none" stroke="black" stroke-width="0.1mm" /><circle r="4.671999999999983" cx="10.524636782350907mm" cy="47.063926895689924mm" fill="none" stroke="black" stroke-width="0.1mm" /><circle r="4.685999999999983" cx="11.100658307305675mm" cy="30.550551617745512mm" fill="none" stroke="black" stroke-width="0.1mm" /><circle r="4.699999999999983" cx="20.268960668952047mm" cy="16.741967260393mm" fill="none" stroke="black" stroke-width="0.1mm" /><circle r="4.7139999999999835" cx="35.35841475289323mm" cy="9.759138382085851mm" fill="none" stroke="black" stroke-width="0.1mm" /><circle r="4.727999999999984" cx="51.92128561634653mm" cy="11.719988520980376mm" fill="none" stroke="black" stroke-width="0.1mm" /><circle r="4.741999999999984" cx="65.04420376846812mm" cy="22.097372187205604mm" fill="none" stroke="black" stroke-width="0.1mm" /><circle r="4.755999999999984" cx="70.80571172519366mm" cy="37.85931667352267mm" fill="none" stroke="black" stroke-width="0.1mm" /><circle r="4.7699999999999845" cx="67.44800678225423mm" cy="54.35470475772031mm" fill="none" stroke="black" stroke-width="0.1mm" /><circle r="4.783999999999985" cx="55.91278550563433mm" cy="66.68572947197931mm" fill="none" stroke="black" stroke-width="0.1mm" /><circle r="4.797999999999985" cx="39.57797406449584mm" cy="71.16214240243687mm" fill="none" stroke="black" stroke-width="0.1mm" /><circle r="4.811999999999985" cx="23.268684650452535mm" cy="66.40550485550294mm" fill="none" stroke="black" stroke-width="0.1mm" /><circle r="4.825999999999985" cx="11.83194584253997mm" cy="53.773044325144326mm" fill="none" stroke="black" stroke-width="0.1mm" /><circle r="4.839999999999986" cx="8.69620775052822mm" cy="36.97095876523578mm" fill="none" stroke="black" stroke-width="0.1mm" /><circle r="4.853999999999986" cx="14.843720196040774mm" cy="20.967170167710094mm" fill="none" stroke="black" stroke-width="0.1mm" /><circle r="4.867999999999986" cx="28.5037550867619mm" cy="10.522450018788224mm" fill="none" stroke="black" stroke-width="0.1mm" /><circle r="4.881999999999986" cx="45.66223240944026mm" cy="8.774219799315254mm" fill="none" stroke="black" stroke-width="0.1mm" /><circle r="4.895999999999987" cx="61.24120265335442mm" cy="16.294300055912284mm" fill="none" stroke="black" stroke-width="0.1mm" /><circle r="4.909999999999987" cx="70.60163424668917mm" cy="30.903538796221305mm" fill="none" stroke="black" stroke-width="0.1mm" /><circle r="4.923999999999987" cx="70.92476591987557mm" cy="48.302966506068415mm" fill="none" stroke="black" stroke-width="0.1mm" /><circle r="4.937999999999987" cx="62.06071301439179mm" cy="63.338769596888255mm" fill="none" stroke="black" stroke-width="0.1mm" /><circle r="4.9519999999999875" cx="46.58891451040487mm" cy="71.52888049986183mm" fill="none" stroke="black" stroke-width="0.1mm" /><circle r="4.965999999999988" cx="29.06776048009809mm" cy="70.39899939273471mm" fill="none" stroke="black" stroke-width="0.1mm" /><circle r="4.979999999999988" cx="14.691613729038245mm" cy="60.22981918752081mm" fill="none" stroke="black" stroke-width="0.1mm" /><circle r="4.993999999999988" cx="7.750877510910115mm" cy="43.989877652719144mm" fill="none" stroke="black" stroke-width="0.1mm" /><circle r="5.0079999999999885" cx="10.351640806902854mm" cy="26.469187121348458mm" fill="none" stroke="black" stroke-width="0.1mm" /><circle r="5.021999999999989" cx="21.77696807345787mm" cy="12.866435317042903mm" fill="none" stroke="black" stroke-width="0.1mm" /><circle r="5.035999999999989" cx="38.68343028028737mm" cy="7.246449899695968mm" fill="none" stroke="black" stroke-width="0.1mm" /><circle r="5.049999999999989" cx="56.079353691270214mm" cy="11.325621020307608mm" fill="none" stroke="black" stroke-width="0.1mm" /><circle r="5.063999999999989" cx="68.79860683571005mm" cy="23.948173178040307mm" fill="none" stroke="black" stroke-width="0.1mm" /><circle r="5.07799999999999" cx="73.03479642905921mm" cy="41.412957851673745mm" fill="none" stroke="black" stroke-width="0.1mm" /><circle r="5.09199999999999" cx="67.48026186496189mm" cy="58.55857774273426mm" fill="none" stroke="black" stroke-width="0.1mm" /><circle r="5.10599999999999" cx="53.72907863978905mm" cy="70.28873428690076mm" fill="none" stroke="black" stroke-width="0.1mm" /><circle r="5.11999999999999" cx="35.820056869725036mm" cy="73.08701520880444mm" fill="none" stroke="black" stroke-width="0.1mm" /><circle r="5.133999999999991" cx="19.05060581751181mm" cy="66.07088238603978mm" fill="none" stroke="black" stroke-width="0.1mm" /><circle r="5.147999999999991" cx="8.409787367635804mm" cy="51.26898690397708mm" fill="none" stroke="black" stroke-width="0.1mm" /><circle r="5.161999999999991" cx="7.094052120900066mm" cy="33.03495734557583mm" fill="none" stroke="black" stroke-width="0.1mm" /><circle r="5.175999999999991" cx="15.547224100449515mm" cy="16.76694917135607mm" fill="none" stroke="black" stroke-width="0.1mm" /><circle r="5.1899999999999915" cx="31.31300957203694mm" cy="7.309530099668692mm" fill="none" stroke="black" stroke-width="0.1mm" /><circle r="5.203999999999992" cx="49.74846661921486mm" cy="7.511020351909444mm" fill="none" stroke="black" stroke-width="0.1mm" /><circle r="5.217999999999992" cx="65.3912789924313mm" cy="17.36588468420942mm" fill="none" stroke="black" stroke-width="0.1mm" /><circle r="5.231999999999992" cx="73.57820787799662mm" cy="34.00032870050084mm" fill="none" stroke="black" stroke-width="0.1mm" /><circle r="5.2459999999999924" cx="71.83518397982908mm" cy="52.51011934277296mm" fill="none" stroke="black" stroke-width="0.1mm" /><circle r="5.259999999999993" cx="60.62467518343912mm" cy="67.40643671799782mm" fill="none" stroke="black" stroke-width="0.1mm" /><circle r="5.273999999999993" cx="43.224648909277676mm" cy="74.24350543405103mm" fill="none" stroke="black" stroke-width="0.1mm" /><circle r="5.287999999999993" cx="24.770255984467028mm" cy="70.94535501850521mm" fill="none" stroke="black" stroke-width="0.1mm" /><circle r="5.301999999999993" cx="10.738350668397235mm" cy="58.43578323246126mm" fill="none" stroke="black" stroke-width="0.1mm" /><circle r="5.315999999999994" cx="5.322087049326221mm" cy="40.38046469675895mm" fill="none" stroke="black" stroke-width="0.1mm" /><circle r="5.329999999999994" cx="10.177972452295034mm" cy="22.112929307907507mm" fill="none" stroke="black" stroke-width="0.1mm" /><circle r="5.343999999999994" cx="23.919740420391573mm" cy="9.059053798366165mm" fill="none" stroke="black" stroke-width="0.1mm" /><circle r="5.357999999999994" cx="42.513541634809634mm" cy="5.125462964362292mm" fill="none" stroke="black" stroke-width="0.1mm" /><circle r="5.371999999999995" cx="60.461966448262984mm" cy="11.530515827115032mm" fill="none" stroke="black" stroke-width="0.1mm" /><circle r="5.385999999999995" cx="72.42939262671908mm" cy="26.427656102865427mm" fill="none" stroke="black" stroke-width="0.1mm" /><circle r="5.399999999999995" cx="74.82811474928062mm" cy="45.43736360848988mm" fill="none" stroke="black" stroke-width="0.1mm" /><g transform="translate(135,285) scale(0.4)" fill="black" stroke="none">
<path
         d="m 6.909225,12.189723 h 3.199798 l 3.274213,9.11157 3.265944,-9.11157 h 3.199798 l -4.572322,12.344441 h -3.795109 z"
         style="font-size:16.9333px;stroke-width:0.265"
         id="path428" />
      <path
         d="M 27.827804,22.285211 H 22.85034 l -0.78548,2.248953 h -3.199799 l 4.572322,-12.344441 h 3.79511 l 4.572321,12.344441 h -3.199798 z m -4.183716,-2.290295 h 3.381699 l -1.686715,-4.911319 z"
         style="font-size:16.9333px;stroke-width:0.265"
         id="path430" />
      <path
         d="m 37.964634,17.66328 q 1.000454,0 1.430401,-0.37207 0.438215,-0.37207 0.438215,-1.223696 0,-0.843357 -0.438215,-1.207159 -0.429947,-0.363801 -1.430401,-0.363801 h -1.33945 v 3.166726 z m -1.33945,2.199344 v 4.67154 H 33.441922 V 12.189723 h 4.861709 q 2.439123,0 3.571868,0.818553 1.141013,0.818553 1.141013,2.58795 0,1.223696 -0.595311,2.009176 -0.587043,0.78548 -1.777666,1.15755 0.653189,0.148828 1.165818,0.677993 0.520898,0.520898 1.050063,1.587497 l 1.728057,3.505722 h -3.389967 l -1.504815,-3.067507 q -0.454752,-0.926039 -0.92604,-1.265036 -0.46302,-0.338997 -1.240232,-0.338997 z"
         style="font-size:16.9333px;stroke-width:0.265"
         id="path432" />
      <path
         d="m 46.480893,12.189723 h 3.183262 v 12.344441 h -3.183262 z"
         style="font-size:16.9333px;stroke-width:0.265"
         id="path434" />
      <path
         d="m 62.570834,23.856171 q -0.876431,0.454752 -1.827275,0.686262 -0.950845,0.23151 -1.984371,0.23151 -3.084044,0 -4.886514,-1.719789 -1.802471,-1.728056 -1.802471,-4.679808 0,-2.96002 1.802471,-4.679809 1.80247,-1.728056 4.886514,-1.728056 1.033526,0 1.984371,0.23151 0.950844,0.23151 1.827275,0.686261 v 2.554878 q -0.884699,-0.603579 -1.744593,-0.884699 -0.859894,-0.281119 -1.810739,-0.281119 -1.703252,0 -2.678901,1.091404 -0.975649,1.091404 -0.975649,3.00963 0,1.909957 0.975649,3.001361 0.975649,1.091404 2.678901,1.091404 0.950845,0 1.810739,-0.281119 0.859894,-0.281119 1.744593,-0.884699 z"
         style="font-size:16.9333px;stroke-width:0.265"
         id="path436" />
      <path
         d="m 65.208394,12.189723 h 3.183262 v 12.344441 h -3.183262 z"
         style="font-size:16.9333px;stroke-width:0.265"
         id="path438" />
      <path
         d="m 70.037033,12.189723 h 11.377061 v 2.40605 h -4.092766 v 9.938391 h -3.183262 v -9.938391 h -4.101033 z"
         style="font-size:16.9333px;stroke-width:0.265"
         id="path440" />
      <path
         d="m 83.059464,12.189723 h 8.590673 v 2.40605 h -5.407411 v 2.298563 h 5.084951 v 2.40605 h -5.084951 v 2.827728 h 5.589312 v 2.40605 h -8.772574 z"
         style="font-size:16.9333px;stroke-width:0.265"
         id="path442" />
         </g>
</svg>