<svg width="80mm" height="80mm" fill="none" stroke="black"><circle r="40mm" cx="40mm" cy="40mm" stroke-width="0.1mm" /><circle r="0.5" cx="39.167706326905716mm" cy="41.81859485365136mm" fill="none" stroke="black" stroke-width="0.1mm" /><circle r="0.5115" cx="38.32005208458719mm" cy="41.251718818864745mm" fill="none" stroke="black" stroke-width="0.1mm" /><circle r="0.5229999999999999" cx="37.83115731881174mm" cy="40.3036798054796mm" fill="none" stroke="black" stroke-width="0.1mm" /><circle r="0.5344999999999999" cx="37.86319031988434mm" cy="39.1905128840037mm" fill="none" stroke="black" stroke-width="0.1mm" /><circle r="0.5459999999999998" cx="38.45327321051175mm" cy="38.191122934337606mm" fill="none" stroke="black" stroke-width="0.1mm" /><circle r="0.5574999999999998" cx="39.49327717946637mm" cy="37.577427610338454mm" fill="none" stroke="black" stroke-width="0.1mm" /><circle r="0.5689999999999997" cx="40.7473106121533mm" cy="37.54105167826506mm" fill="none" stroke="black" stroke-width="0.1mm" /><circle r="0.5804999999999997" cx="41.90483992098035mm" cy="38.13618405537468mm" fill="none" stroke="black" stroke-width="0.1mm" /><circle r="0.5919999999999996" cx="42.65758308107362mm" cy="39.25511600420517mm" fill="none" stroke="black" stroke-width="0.1mm" /><circle r="0.6034999999999996" cx="42.78113647828294mm" cy="40.64521693186398mm" fill="none" stroke="black" stroke-width="0.1mm" /><circle r="0.6149999999999995" cx="42.19983037592132mm" cy="41.965514262775486mm" fill="none" stroke="black" stroke-width="0.1mm" /><circle r="0.6264999999999995" cx="41.016483653808976mm" cy="42.8703285494067mm" fill="none" stroke="black" stroke-width="0.1mm" /><circle r="0.6379999999999995" cx="39.4969971799676mm" cy="43.099449654864465mm" fill="none" stroke="black" stroke-width="0.1mm" /><circle r="0.6494999999999994" cx="38.01114321133287mm" cy="42.551406215045475mm" fill="none" stroke="black" stroke-width="0.1mm" /><circle r="0.6609999999999994" cx="36.94259088184553mm" cy="41.319526234762286mm" fill="none" stroke="black" stroke-width="0.1mm" /><circle r="0.6724999999999993" cx="36.59005805188957mm" cy="39.679187109802534mm" fill="none" stroke="black" stroke-width="0.1mm" /><circle r="0.6839999999999993" cx="37.08500490323153mm" cy="38.02687973356519mm" fill="none" stroke="black" stroke-width="0.1mm" /><circle r="0.6954999999999992" cx="38.34828724648315mm" cy="36.78440208050356mm" fill="none" stroke="black" stroke-width="0.1mm" /><circle r="0.7069999999999992" cx="40.099141200856224mm" cy="36.291324896638585mm" fill="none" stroke="black" stroke-width="0.1mm" /><circle r="0.7184999999999991" cx="41.91686877982079mm" cy="36.71311103306662mm" fill="none" stroke="black" stroke-width="0.1mm" /><circle r="0.7299999999999991" cx="43.341866138138904mm" cy="37.9895446498963mm" fill="none" stroke="black" stroke-width="0.1mm" /><circle r="0.741499999999999" cx="43.99174766127502mm" cy="39.83883049697459mm" fill="none" stroke="black" stroke-width="0.1mm" /><circle r="0.752999999999999" cx="43.66324608393816mm" cy="41.8189909643843mm" fill="none" stroke="black" stroke-width="0.1mm" /><circle r="0.764499999999999" cx="42.3928938492905mm" cy="43.43340705801507mm" fill="none" stroke="black" stroke-width="0.1mm" /><circle r="0.7759999999999989" cx="40.458930886486925mm" cy="44.25532401133314mm" fill="none" stroke="black" stroke-width="0.1mm" /><circle r="0.7874999999999989" cx="38.321288856610614mm" cy="44.040118054842004mm" fill="none" stroke="black" stroke-width="0.1mm" /><circle r="0.7989999999999988" cx="36.51234124320061mm" cy="42.79591423261168mm" fill="none" stroke="black" stroke-width="0.1mm" /><circle r="0.8104999999999988" cx="35.50433683018157mm" cy="40.79261444822696mm" fill="none" stroke="black" stroke-width="0.1mm" /><circle r="0.8219999999999987" cx="35.58652225939512mm" cy="38.50440171396687mm" fill="none" stroke="black" stroke-width="0.1mm" /><circle r="0.8334999999999987" cx="36.78383108544633mm" cy="36.49767469913792mm" fill="none" stroke="black" stroke-width="0.1mm" /><circle r="0.8449999999999986" cx="38.83964075331222mm" cy="35.29085289902447mm" fill="none" stroke="black" stroke-width="0.1mm" /><circle r="0.8564999999999986" cx="41.26957272311968mm" cy="35.22075214069091mm" fill="none" stroke="black" stroke-width="0.1mm" /><circle r="0.8679999999999986" cx="43.47539630182689mm" cy="36.349901296506076mm" fill="none" stroke="black" stroke-width="0.1mm" /><circle r="0.8794999999999985" cx="44.89230840226772mm" cy="38.44001811000876mm" fill="none" stroke="black" stroke-width="0.1mm" /><circle r="0.8909999999999985" cx="45.13333011152527mm" cy="41.000910568486525mm" fill="none" stroke="black" stroke-width="0.1mm" /><circle r="0.9024999999999984" cx="44.09395631756129mm" cy="43.40516470525289mm" fill="none" stroke="black" stroke-width="0.1mm" /><circle r="0.9139999999999984" cx="41.98898873750744mm" cy="45.041857177872906mm" fill="none" stroke="black" stroke-width="0.1mm" /><circle r="0.9254999999999983" cx="39.30975419198013mm" cy="45.4716346483031mm" fill="none" stroke="black" stroke-width="0.1mm" /><circle r="0.9369999999999983" cx="36.70975730791225mm" cy="44.54383131587905mm" fill="none" stroke="black" stroke-width="0.1mm" /><circle r="0.9484999999999982" cx="34.84529307118259mm" cy="42.44459024746516mm" fill="none" stroke="black" stroke-width="0.1mm" /><circle r="0.9599999999999982" cx="34.209890300390434mm" cy="39.66142996811998mm" fill="none" stroke="black" stroke-width="0.1mm" /><circle r="0.9714999999999981" cx="35.00432370327584mm" cy="36.87042441561985mm" fill="none" stroke="black" stroke-width="0.1mm" /><circle r="0.9829999999999981" cx="37.07628260801567mm" cy="34.772000706598334mm" fill="none" stroke="black" stroke-width="0.1mm" /><circle r="0.994499999999998" cx="39.94722979951898mm" cy="33.91522882057664mm" fill="none" stroke="black" stroke-width="0.1mm" /><circle r="1.005999999999998" cx="42.92245365823422mm" cy="34.55466579395962mm" fill="none" stroke="black" stroke-width="0.1mm" /><circle r="1.017499999999998" cx="45.25912747779894mm" cy="36.57695995170081mm" fill="none" stroke="black" stroke-width="0.1mm" /><circle r="1.0289999999999981" cx="46.35173208313384mm" cy="39.51792164113267mm" fill="none" stroke="black" stroke-width="0.1mm" /><circle r="1.0404999999999982" cx="45.888566592525095mm" cy="42.66852177907495mm" fill="none" stroke="black" stroke-width="0.1mm" /><circle r="1.0519999999999983" cx="43.93898726281709mm" cy="45.24575822387619mm" fill="none" stroke="black" stroke-width="0.1mm" /><circle r="1.0634999999999983" cx="40.94731528672882mm" cy="46.58723149339158mm" fill="none" stroke="black" stroke-width="0.1mm" /><circle r="1.0749999999999984" cx="37.63221321309499mm" cy="46.32108263921285mm" fill="none" stroke="black" stroke-width="0.1mm" /><circle r="1.0864999999999985" cx="34.814147830644686mm" cy="44.46776927309286mm" fill="none" stroke="black" stroke-width="0.1mm" /><circle r="1.0979999999999985" cx="33.212336987883816mm" cy="41.44610885964709mm" fill="none" stroke="black" stroke-width="0.1mm" /><circle r="1.1094999999999986" cx="33.261431203860134mm" cy="37.979377427699546mm" fill="none" stroke="black" stroke-width="0.1mm" /><circle r="1.1209999999999987" cx="34.994598838143375mm" cy="34.9223175356385mm" fill="none" stroke="black" stroke-width="0.1mm" /><circle r="1.1324999999999987" cx="38.02423408771429mm" cy="33.05039756102194mm" fill="none" stroke="black" stroke-width="0.1mm" /><circle r="1.1439999999999988" cx="41.62777279734332mm" cy="32.86328116567361mm" fill="none" stroke="black" stroke-width="0.1mm" /><circle r="1.1554999999999989" cx="44.91985151814477mm" cy="34.45227199302196mm" fill="none" stroke="black" stroke-width="0.1mm" /><circle r="1.166999999999999" cx="47.069834520323404mm" cy="37.46671362549682mm" fill="none" stroke="black" stroke-width="0.1mm" /><circle r="1.178499999999999" cx="47.511264137982955mm" cy="41.190351229449135mm" fill="none" stroke="black" stroke-width="0.1mm" /><circle r="1.189999999999999" cx="46.09045138174094mm" cy="44.711305760259016mm" fill="none" stroke="black" stroke-width="0.1mm" /><circle r="1.2014999999999991" cx="43.11537954394812mm" cy="47.1453785971878mm" fill="none" stroke="black" stroke-width="0.1mm" /><circle r="1.2129999999999992" cx="39.29016032995952mm" cy="47.85800404955589mm" fill="none" stroke="black" stroke-width="0.1mm" /><circle r="1.2244999999999993" cx="35.548651688316845mm" cy="46.62915705109447mm" fill="none" stroke="black" stroke-width="0.1mm" /><circle r="1.2359999999999993" cx="32.82648701327996mm" cy="43.71848240944593mm" fill="none" stroke="black" stroke-width="0.1mm" /><circle r="1.2474999999999994" cx="31.827163919009188mm" cy="39.81191652583312mm" fill="none" stroke="black" stroke-width="0.1mm" /><circle r="1.2589999999999995" cx="32.840656298309064mm" cy="35.860350526788736mm" fill="none" stroke="black" stroke-width="0.1mm" /><circle r="1.2704999999999995" cx="35.661220073082816mm" cy="32.848202062014025mm" fill="none" stroke="black" stroke-width="0.1mm" /><circle r="1.2819999999999996" cx="39.6272846713962mm" cy="31.548214195578325mm" fill="none" stroke="black" stroke-width="0.1mm" /><circle r="1.2934999999999997" cx="43.77625495085697mm" cy="32.32354746343546mm" fill="none" stroke="black" stroke-width="0.1mm" /><circle r="1.3049999999999997" cx="47.078097010707054mm" cy="35.02777286248708mm" fill="none" stroke="black" stroke-width="0.1mm" /><circle r="1.3164999999999998" cx="48.691036236390325mm" cy="39.02999271252723mm" fill="none" stroke="black" stroke-width="0.1mm" /><circle r="1.3279999999999998" cx="48.17589755928738mm" cy="43.361591750947554mm" fill="none" stroke="black" stroke-width="0.1mm" /><circle r="1.3395" cx="45.61457300617775mm" cy="46.95059673397185mm" fill="none" stroke="black" stroke-width="0.1mm" /><circle r="1.351" cx="41.60090711918552mm" cy="48.88695653166714mm" fill="none" stroke="black" stroke-width="0.1mm" /><circle r="1.3625" cx="37.10352830904943mm" cy="48.65309636740063mm" fill="none" stroke="black" stroke-width="0.1mm" /><circle r="1.374" cx="33.232175588704536mm" cy="46.26138584802704mm" fill="none" stroke="black" stroke-width="0.1mm" /><circle r="1.3855000000000002" cx="30.96387019423153mm" cy="42.26220757962277mm" fill="none" stroke="black" stroke-width="0.1mm" /><circle r="1.3970000000000002" cx="30.896498729112807mm" cy="37.6179075141894mm" fill="none" stroke="black" stroke-width="0.1mm" /><circle r="1.4085000000000003" cx="33.09191980019061mm" cy="33.47133605145727mm" fill="none" stroke="black" stroke-width="0.1mm" /><circle r="1.4200000000000004" cx="37.049604448206686mm" cy="30.864620090660797mm" fill="none" stroke="black" stroke-width="0.1mm" /><circle r="1.4315000000000004" cx="41.820036383598875mm" cy="30.477369451544575mm" fill="none" stroke="black" stroke-width="0.1mm" /><circle r="1.4430000000000005" cx="46.232369592123135mm" cy="32.45005501561906mm" fill="none" stroke="black" stroke-width="0.1mm" /><circle r="1.4545000000000006" cx="49.18179698266848mm" cy="36.33832972960971mm" fill="none" stroke="black" stroke-width="0.1mm" /><circle r="1.4660000000000006" cx="49.90609965246151mm" cy="41.21226633851727mm" fill="none" stroke="black" stroke-width="0.1mm" /><circle r="1.4775000000000007" cx="48.18217280759704mm" cy="45.87857747644953mm" fill="none" stroke="black" stroke-width="0.1mm" /><circle r="1.4890000000000008" cx="44.39196359004013mm" cy="49.17276162471052mm" fill="none" stroke="black" stroke-width="0.1mm" /><circle r="1.5005000000000008" cx="39.43888027632754mm" cy="50.249652172425456mm" fill="none" stroke="black" stroke-width="0.1mm" /><circle r="1.512000000000001" cx="34.532685108132mm" cy="48.79989021938107mm" fill="none" stroke="black" stroke-width="0.1mm" /><circle r="1.523500000000001" cx="30.894032481941668mm" cy="45.136962191808195mm" fill="none" stroke="black" stroke-width="0.1mm" /><circle r="1.535000000000001" cx="29.450809632698736mm" cy="40.130700399534405mm" fill="none" stroke="black" stroke-width="0.1mm" /><circle r="1.546500000000001" cx="30.601811235994603mm" cy="35.000992802953476mm" fill="none" stroke="black" stroke-width="0.1mm" /><circle r="1.5580000000000012" cx="34.107868389501775mm" cy="31.02055764066789mm" fill="none" stroke="black" stroke-width="0.1mm" /><circle r="1.5695000000000012" cx="39.13986357584839mm" cy="29.199194922051042mm" fill="none" stroke="black" stroke-width="0.1mm" /><circle r="1.5810000000000013" cx="44.47448231308649mm" cy="30.027843361144168mm" fill="none" stroke="black" stroke-width="0.1mm" /><circle r="1.5925000000000014" cx="48.79156695335416mm" cy="33.34725804613682mm" fill="none" stroke="black" stroke-width="0.1mm" /><circle r="1.6040000000000014" cx="51.000804833621615mm" cy="38.376210292997385mm" fill="none" stroke="black" stroke-width="0.1mm" /><circle r="1.6155000000000015" cx="50.51691077618551mm" cy="43.89497275032232mm" fill="none" stroke="black" stroke-width="0.1mm" /><circle r="1.6270000000000016" cx="47.4138951740988mm" cy="48.541092339242965mm" fill="none" stroke="black" stroke-width="0.1mm" /><circle r="1.6385000000000016" cx="42.41793638492511mm" cy="51.14574396971578mm" fill="none" stroke="black" stroke-width="0.1mm" /><circle r="1.6500000000000017" cx="36.73788486717421mm" cy="51.027629158626496mm" fill="none" stroke="black" stroke-width="0.1mm" /><circle r="1.6615000000000018" cx="31.77284517288016mm" cy="48.17055374198097mm" fill="none" stroke="black" stroke-width="0.1mm" /><circle r="1.6730000000000018" cx="28.767550421475974mm" cy="43.23854542440212mm" fill="none" stroke="black" stroke-width="0.1mm" /><circle r="1.6845000000000019" cx="28.50041682345674mm" cy="37.42205280004348mm" fill="none" stroke="black" stroke-width="0.1mm" /><circle r="1.696000000000002" cx="31.082429435208283mm" cy="32.15071116457288mm" fill="none" stroke="black" stroke-width="0.1mm" /><circle r="1.707500000000002" cx="35.918701182448395mm" cy="28.741952879746314mm" fill="none" stroke="black" stroke-width="0.1mm" /><circle r="1.719000000000002" cx="41.844902278820506mm" cy="28.071830166299467mm" fill="none" stroke="black" stroke-width="0.1mm" /><circle r="1.7305000000000021" cx="47.407437430847764mm" cy="30.35028001918833mm" fill="none" stroke="black" stroke-width="0.1mm" /><circle r="1.7420000000000022" cx="51.2199845281095mm" cy="35.05838617565232mm" fill="none" stroke="black" stroke-width="0.1mm" /><circle r="1.7535000000000023" cx="52.30894360719284mm" cy="41.065801236135144mm" fill="none" stroke="black" stroke-width="0.1mm" /><circle r="1.7650000000000023" cx="50.36172965568864mm" cy="46.90196048542899mm" fill="none" stroke="black" stroke-width="0.1mm" /><circle r="1.7765000000000024" cx="45.814667148344135mm" cy="51.11605464874872mm" fill="none" stroke="black" stroke-width="0.1mm" /><circle r="1.7880000000000025" cx="39.75615806732943mm" cy="52.637647768151794mm" fill="none" stroke="black" stroke-width="0.1mm" /><circle r="1.7995000000000025" cx="33.66635962131947mm" cy="51.048313199468424mm" fill="none" stroke="black" stroke-width="0.1mm" /><circle r="1.8110000000000026" cx="29.055584132131855mm" cy="46.69542092113383mm" fill="none" stroke="black" stroke-width="0.1mm" /><circle r="1.8225000000000027" cx="27.08975502858774mm" cy="40.61741378193648mm" fill="none" stroke="black" stroke-width="0.1mm" /><circle r="1.8340000000000027" cx="28.295796682464946mm" cy="34.296314813929314mm" fill="none" stroke="black" stroke-width="0.1mm" /><circle r="1.8455000000000028" cx="32.42134964062747mm" cy="29.296389219969583mm" fill="none" stroke="black" stroke-width="0.1mm" /><circle r="1.8570000000000029" cx="38.48594451829929mm" cy="26.8770530749251mm" fill="none" stroke="black" stroke-width="0.1mm" /><circle r="1.868500000000003" cx="45.01372930940744mm" cy="27.675814695810942mm" fill="none" stroke="black" stroke-width="0.1mm" /><circle r="1.880000000000003" cx="50.3925827720358mm" cy="31.541027052508948mm" fill="none" stroke="black" stroke-width="0.1mm" /><circle r="1.891500000000003" cx="53.272242954741785mm" cy="37.55815808244928mm" fill="none" stroke="black" stroke-width="0.1mm" /><circle r="1.9030000000000031" cx="52.90313068412372mm" cy="44.26583151899204mm" fill="none" stroke="black" stroke-width="0.1mm" /><circle r="1.9145000000000032" cx="49.330878989275945mm" cy="50.010690400141726mm" fill="none" stroke="black" stroke-width="0.1mm" /><circle r="1.9260000000000033" cx="43.39622103074303mm" cy="53.35492728210602mm" fill="none" stroke="black" stroke-width="0.1mm" /><circle r="1.9375000000000033" cx="36.53752960790922mm" cy="53.43603080466458mm" fill="none" stroke="black" stroke-width="0.1mm" /><circle r="1.9490000000000034" cx="30.442280546829764mm" cy="50.18876336237584mm" fill="none" stroke="black" stroke-width="0.1mm" /><circle r="1.9605000000000035" cx="26.631875156474614mm" cy="44.37235213219618mm" fill="none" stroke="black" stroke-width="0.1mm" /><circle r="1.9720000000000035" cx="26.081969819663787mm" cy="37.3934628528925mm" fill="none" stroke="black" stroke-width="0.1mm" /><circle r="1.9835000000000036" cx="28.973041698457656mm" cy="30.966107394038417mm" fill="none" stroke="black" stroke-width="0.1mm" /><circle r="1.9950000000000037" cx="34.634869859683185mm" cy="26.690684518824227mm" fill="none" stroke="black" stroke-width="0.1mm" /><circle r="2.0065000000000035" cx="41.70132588777411mm" cy="25.655540608876514mm" fill="none" stroke="black" stroke-width="0.1mm" /><circle r="2.0180000000000033" cx="48.43987658066547mm" cy="28.16023297090962mm" fill="none" stroke="black" stroke-width="0.1mm" /><circle r="2.029500000000003" cx="53.176356347329204mm" cy="33.63078824278871mm" fill="none" stroke="black" stroke-width="0.1mm" /><circle r="2.041000000000003" cx="54.710867336711345mm" cy="40.75052128662719mm" fill="none" stroke="black" stroke-width="0.1mm" /><circle r="2.052500000000003" cx="52.62149804470876mm" cy="47.77678674694209mm" fill="none" stroke="black" stroke-width="0.1mm" /><circle r="2.0640000000000027" cx="47.37904345108747mm" cy="52.96750237119563mm" fill="none" stroke="black" stroke-width="0.1mm" /><circle r="2.0755000000000026" cx="40.2418162480759mm" cy="55.01305265101564mm" fill="none" stroke="black" stroke-width="0.1mm" /><circle r="2.0870000000000024" cx="32.95381089379955mm" cy="53.36649988140738mm" fill="none" stroke="black" stroke-width="0.1mm" /><circle r="2.0985000000000023" cx="27.318575352436802mm" cy="48.38889110122297mm" fill="none" stroke="black" stroke-width="0.1mm" /><circle r="2.110000000000002" cx="24.75290591554505mm" cy="41.27126786311155mm" fill="none" stroke="black" stroke-width="0.1mm" /><circle r="2.121500000000002" cx="25.930803869913056mm" cy="33.74990038054209mm" fill="none" stroke="black" stroke-width="0.1mm" /><circle r="2.133000000000002" cx="30.607128848827276mm" cy="27.682773382880846mm" fill="none" stroke="black" stroke-width="0.1mm" /><circle r="2.1445000000000016" cx="37.66692406468266mm" cy="24.590620334353346mm" fill="none" stroke="black" stroke-width="0.1mm" /><circle r="2.1560000000000015" cx="45.390980853184125mm" cy="25.27587946800884mm" fill="none" stroke="black" stroke-width="0.1mm" /><circle r="2.1675000000000013" cx="51.874457919779914mm" cy="29.615016894025416mm" fill="none" stroke="black" stroke-width="0.1mm" /><circle r="2.179000000000001" cx="55.49663445952368mm" cy="36.5778339567016mm" fill="none" stroke="black" stroke-width="0.1mm" /><circle r="2.190500000000001" cx="55.32595193617157mm" cy="44.47173593251664mm" fill="none" stroke="black" stroke-width="0.1mm" /><circle r="2.202000000000001" cx="51.359143200044244mm" cy="51.353125814545095mm" fill="none" stroke="black" stroke-width="0.1mm" /><circle r="2.2135000000000007" cx="44.533171134411106mm" cy="55.505946745237566mm" fill="none" stroke="black" stroke-width="0.1mm" /><circle r="2.2250000000000005" cx="36.504300193577514mm" cy="55.86954891808142mm" fill="none" stroke="black" stroke-width="0.1mm" /><circle r="2.2365000000000004" cx="29.246295927745614mm" cy="52.30921905428532mm" fill="none" stroke="black" stroke-width="0.1mm" /><circle r="2.248" cx="24.56520755538999mm" cy="45.66045777228407mm" fill="none" stroke="black" stroke-width="0.1mm" /><circle r="2.2595" cx="23.650016144472602mm" cy="37.5333721553516mm" fill="none" stroke="black" stroke-width="0.1mm" /><circle r="2.271" cx="26.77093486627375mm" cy="29.92286073889867mm" fill="none" stroke="black" stroke-width="0.1mm" /><circle r="2.2824999999999998" cx="33.20184566266034mm" cy="24.71894235971504mm" fill="none" stroke="black" stroke-width="0.1mm" /><circle r="2.2939999999999996" cx="41.388681801568794mm" cy="23.237423740546532mm" fill="none" stroke="black" stroke-width="0.1mm" /><circle r="2.3054999999999994" cx="49.324854358774324mm" cy="25.88744118922267mm" fill="none" stroke="black" stroke-width="0.1mm" /><circle r="2.3169999999999993" cx="55.043059032075064mm" cy="32.05981895939985mm" fill="none" stroke="black" stroke-width="0.1mm" /><circle r="2.328499999999999" cx="57.102925159409054mm" cy="40.26641319722224mm" fill="none" stroke="black" stroke-width="0.1mm" /><circle r="2.339999999999999" cx="54.95363683401973mm" cy="48.498749639579316mm" fill="none" stroke="black" stroke-width="0.1mm" /><circle r="2.351499999999999" cx="49.080281599568856mm" cy="54.719562190246435mm" fill="none" stroke="black" stroke-width="0.1mm" /><circle r="2.3629999999999987" cx="40.89525581916003mm" cy="57.36694034705772mm" fill="none" stroke="black" stroke-width="0.1mm" /><circle r="2.3744999999999985" cx="32.39879920022606mm" cy="55.746331998326376mm" fill="none" stroke="black" stroke-width="0.1mm" /><circle r="2.3859999999999983" cx="25.690202524408278mm" cy="50.21205641423654mm" fill="none" stroke="black" stroke-width="0.1mm" /><circle r="2.397499999999998" cx="22.449127714299518mm" cy="42.09105404306816mm" fill="none" stroke="black" stroke-width="0.1mm" /><circle r="2.408999999999998" cx="23.515190190897865mm" cy="33.36494570046853mm" fill="none" stroke="black" stroke-width="0.1mm" /><circle r="2.420499999999998" cx="28.67100292866111mm" cy="26.186526491950122mm" fill="none" stroke="black" stroke-width="0.1mm" /><circle r="2.4319999999999977" cx="36.68461486842359mm" cy="22.348659500499036mm" fill="none" stroke="black" stroke-width="0.1mm" /><circle r="2.4434999999999976" cx="45.603619915373315mm" cy="22.836595068459392mm" fill="none" stroke="black" stroke-width="0.1mm" /><circle r="2.4549999999999974" cx="53.2307880782803mm" cy="27.575478004058397mm" fill="none" stroke="black" stroke-width="0.1mm" /><circle r="2.4664999999999973" cx="57.66536026288382mm" cy="35.43764624535469mm" fill="none" stroke="black" stroke-width="0.1mm" /><circle r="2.477999999999997" cx="57.77665721504371mm" cy="44.51066051247877mm" fill="none" stroke="black" stroke-width="0.1mm" /><circle r="2.489499999999997" cx="53.49201306130991mm" cy="52.56243640992636mm" fill="none" stroke="black" stroke-width="0.1mm" /><circle r="2.500999999999997" cx="45.82579385883156mm" cy="57.590367418402636mm" fill="none" stroke="black" stroke-width="0.1mm" /><circle r="2.5124999999999966" cx="36.63962093808285mm" cy="58.3193470833496mm" fill="none" stroke="black" stroke-width="0.1mm" /><circle r="2.5239999999999965" cx="28.19038330576063mm" cy="54.52485296087858mm" fill="none" stroke="black" stroke-width="0.1mm" /><circle r="2.5354999999999963" cx="22.575758839796997mm" cy="47.09929890841963mm" fill="none" stroke="black" stroke-width="0.1mm" /><circle r="2.546999999999996" cx="21.213469917530556mm" cy="37.842597056535055mm" fill="none" stroke="black" stroke-width="0.1mm" /><circle r="2.558499999999996" cx="24.4835368599776mm" cy="29.02596716679202mm" fill="none" stroke="black" stroke-width="0.1mm" /><circle r="2.569999999999996" cx="31.623746043322527mm" cy="22.834675370001143mm" fill="none" stroke="black" stroke-width="0.1mm" /><circle r="2.5814999999999957" cx="40.90676559018547mm" cy="20.826429618757594mm" fill="none" stroke="black" stroke-width="0.1mm" /><circle r="2.5929999999999955" cx="50.05789434227412mm" cy="23.539657919725645mm" fill="none" stroke="black" stroke-width="0.1mm" /><circle r="2.6044999999999954" cx="56.812443183189274mm" cy="30.3501306116594mm" fill="none" stroke="black" stroke-width="0.1mm" /><circle r="2.615999999999995" cx="59.47617302317437mm" cy="39.6138855462752mm" fill="none" stroke="black" stroke-width="0.1mm" /><circle r="2.627499999999995" cx="57.35010372468434mm" cy="49.063913379037494mm" fill="none" stroke="black" stroke-width="0.1mm" /><circle r="2.638999999999995" cx="50.913216163610635mm" cy="56.364920194315275mm" fill="none" stroke="black" stroke-width="0.1mm" /><circle r="2.6504999999999947" cx="41.715456975264mm" cy="59.6904147332152mm" fill="none" stroke="black" stroke-width="0.1mm" /><circle r="2.6619999999999946" cx="32.004701120024436mm" cy="58.17951583018265mm" fill="none" stroke="black" stroke-width="0.1mm" /><circle r="2.6734999999999944" cx="24.1774097165634mm" cy="52.1592623839811mm" fill="none" stroke="black" stroke-width="0.1mm" /><circle r="2.6849999999999943" cx="20.18722691076743mm" cy="43.07514593386747mm" fill="none" stroke="black" stroke-width="0.1mm" /><circle r="2.696499999999994" cx="21.0574619688666mm" cy="33.14425219694709mm" fill="none" stroke="black" stroke-width="0.1mm" /><circle r="2.707999999999994" cx="26.61908900886727mm" cy="24.814190141866543mm" fill="none" stroke="black" stroke-width="0.1mm" /><circle r="2.719499999999994" cx="35.54124241395721mm" cy="20.159846124868242mm" fill="none" stroke="black" stroke-width="0.1mm" /><circle r="2.7309999999999937" cx="45.649433490078195mm" cy="20.366640602250904mm" fill="none" stroke="black" stroke-width="0.1mm" /><circle r="2.7424999999999935" cx="54.45546487964367mm" cy="25.428961597971536mm" fill="none" stroke="black" stroke-width="0.1mm" /><circle r="2.7539999999999933" cx="59.76991644081858mm" cy="34.140409235872276mm" fill="none" stroke="black" stroke-width="0.1mm" /><circle r="2.765499999999993" cx="60.246435273699745mm" cy="44.38099117870446mm" fill="none" stroke="black" stroke-width="0.1mm" /><circle r="2.776999999999993" cx="55.722533876234756mm" cy="53.63297577606041mm" fill="none" stroke="black" stroke-width="0.1mm" /><circle r="2.788499999999993" cx="47.27069916674852mm" cy="59.59989690346973mm" fill="none" stroke="black" stroke-width="0.1mm" /><circle r="2.7999999999999927" cx="36.944499290028496mm" cy="60.776523179092386mm" fill="none" stroke="black" stroke-width="0.1mm" /><circle r="2.8114999999999926" cx="27.279700559533268mm" cy="56.82833940544525mm" fill="none" stroke="black" stroke-width="0.1mm" /><circle r="2.8229999999999924" cx="20.671570965182365mm" cy="48.68492550607189mm" fill="none" stroke="black" stroke-width="0.1mm" /><circle r="2.8344999999999922" cx="18.781282431982525mm" cy="38.321533506826526mm" fill="none" stroke="black" stroke-width="0.1mm" /><circle r="2.845999999999992" cx="22.118510089774734mm" cy="28.28007173270624mm" fill="none" stroke="black" stroke-width="0.1mm" /><circle r="2.857499999999992" cx="29.905062654800474mm" cy="21.045637309672074mm" fill="none" stroke="black" stroke-width="0.1mm" /><circle r="2.868999999999992" cx="40.255794805512245mm" cy="18.43151676595055mm" fill="none" stroke="black" stroke-width="0.1mm" /><circle r="2.8804999999999916" cx="50.63488619597979mm" cy="21.12484647483476mm" fill="none" stroke="black" stroke-width="0.1mm" /><circle r="2.8919999999999915" cx="58.47707964819173mm" cy="28.506735551881796mm" fill="none" stroke="black" stroke-width="0.1mm" /><circle r="2.9034999999999913" cx="61.821687162434756mm" cy="38.793768519383846mm" fill="none" stroke="black" stroke-width="0.1mm" /><circle r="2.914999999999991" cx="59.80267175095521mm" cy="49.46872174709551mm" fill="none" stroke="black" stroke-width="0.1mm" /><circle r="2.926499999999991" cx="52.87233745455556mm" cy="57.89650673891542mm" fill="none" stroke="black" stroke-width="0.1mm" /><circle r="2.937999999999991" cx="42.70098063484466mm" cy="61.974628634181585mm" fill="none" stroke="black" stroke-width="0.1mm" /><circle r="2.9494999999999907" cx="31.774501947597862mm" cy="60.65759925039518mm" fill="none" stroke="black" stroke-width="0.1mm" /><circle r="2.9609999999999905" cx="22.786873840098178mm" cy="54.22452768296024mm" fill="none" stroke="black" stroke-width="0.1mm" /><circle r="2.9724999999999904" cx="17.975932605145584mm" cy="44.221502148158805mm" fill="none" stroke="black" stroke-width="0.1mm" /><circle r="2.98399999999999" cx="18.566256934948882mm" cy="33.09022010326148mm" fill="none" stroke="black" stroke-width="0.1mm" /><circle r="2.99549999999999" cx="24.457812143317632mm" cy="23.57201711628619mm" fill="none" stroke="black" stroke-width="0.1mm" /><circle r="3.00699999999999" cx="34.23944098209957mm" cy="18.03275029046001mm" fill="none" stroke="black" stroke-width="0.1mm" /><circle r="3.0184999999999897" cx="45.526617806103175mm" cy="17.87479896983393mm" fill="none" stroke="black" stroke-width="0.1mm" /><circle r="3.0299999999999896" cx="55.542689083619564mm" cy="23.182306458674784mm" fill="none" stroke="black" stroke-width="0.1mm" /><circle r="3.0414999999999894" cx="61.80193213515132mm" cy="32.68933791136161mm" fill="none" stroke="black" stroke-width="0.1mm" /><circle r="3.0529999999999893" cx="62.726399167541885mm" cy="44.08152923272025mm" fill="none" stroke="black" stroke-width="0.1mm" /><circle r="3.064499999999989" cx="58.04348507521762mm" cy="54.55942551546583mm" fill="none" stroke="black" stroke-width="0.1mm" /><circle r="3.075999999999989" cx="48.864106286394886mm" cy="61.526402851927976mm" fill="none" stroke="black" stroke-width="0.1mm" /><circle r="3.087499999999989" cx="37.41952309583366mm" cy="63.23212783941803mm" fill="none" stroke="black" stroke-width="0.1mm" /><circle r="3.0989999999999887" cx="26.519060189169565mm" cy="59.21210977005819mm" fill="none" stroke="black" stroke-width="0.1mm" /><circle r="3.1104999999999885" cx="18.86049959237611mm" cy="50.41300857178498mm" fill="none" stroke="black" stroke-width="0.1mm" /><circle r="3.1219999999999883" cx="16.362423549119722mm" cy="38.970155580299604mm" fill="none" stroke="black" stroke-width="0.1mm" /><circle r="3.133499999999988" cx="19.683735844958253mm" cy="27.689458347312097mm" fill="none" stroke="black" stroke-width="0.1mm" /><circle r="3.144999999999988" cx="28.050652573468092mm" cy="19.3593702596061mm" fill="none" stroke="black" stroke-width="0.1mm" /><circle r="3.156499999999988" cx="39.43640919269422mm" cy="16.061633505982115mm" fill="none" stroke="black" stroke-width="0.1mm" /><circle r="3.1679999999999877" cx="51.05209482139807mm" cy="18.651163964777293mm" fill="none" stroke="black" stroke-width="0.1mm" /><circle r="3.1794999999999876" cx="60.02977535973572mm" cy="26.534996322372525mm" fill="none" stroke="black" stroke-width="0.1mm" /><circle r="3.1909999999999874" cx="64.13058273389234mm" cy="37.80731285342052mm" fill="none" stroke="black" stroke-width="0.1mm" /><circle r="3.2024999999999872" cx="62.302946133522454mm" cy="49.71000611561049mm" fill="none" stroke="black" stroke-width="0.1mm" /><circle r="3.213999999999987" cx="54.95180245417467mm" cy="59.30751157895118mm" fill="none" stroke="black" stroke-width="0.1mm" /><circle r="3.225499999999987" cx="43.84997075866569mm" cy="64.21080234435482mm" fill="none" stroke="black" stroke-width="0.1mm" /><circle r="3.2369999999999868" cx="31.710788830419695mm" cy="63.17198908566337mm" fill="none" stroke="black" stroke-width="0.1mm" /><circle r="3.2484999999999866" cx="21.524990292610944mm" cy="56.40155606373607mm" fill="none" stroke="black" stroke-width="0.1mm" /><circle r="3.2599999999999865" cx="15.823878189180022mm" cy="45.52766986970023mm" fill="none" stroke="black" stroke-width="0.1mm" /><circle r="3.2714999999999863" cx="16.050326441579216mm" cy="33.2048427946752mm" fill="none" stroke="black" stroke-width="0.1mm" /><circle r="3.282999999999986" cx="22.193892432133424mm" cy="22.46595787385117mm" fill="none" stroke="black" stroke-width="0.1mm" /><circle r="3.294499999999986" cx="32.78224884388746mm" cy="15.97581857277062mm" fill="none" stroke="black" stroke-width="0.1mm" /><circle r="3.305999999999986" cx="45.233782774924514mm" cy="15.369938736070907mm" fill="none" stroke="black" stroke-width="0.1mm" /><circle r="3.3174999999999857" cx="56.4869831868825mm" cy="20.842625169521508mm" fill="none" stroke="black" stroke-width="0.1mm" /><circle r="3.3289999999999855" cx="63.75318722557415mm" cy="31.088041930820275mm" fill="none" stroke="black" stroke-width="0.1mm" /><circle r="3.3404999999999854" cx="65.20760464635582mm" cy="43.611494564999035mm" fill="none" stroke="black" stroke-width="0.1mm" /><circle r="3.351999999999985" cx="60.447394807811236mm" cy="55.33680688975025mm" fill="none" stroke="black" stroke-width="0.1mm" /><circle r="3.363499999999985" cx="50.60185091719461mm" cy="63.36193018844069mm" fill="none" stroke="black" stroke-width="0.1mm" /><circle r="3.374999999999985" cx="38.06485864812427mm" cy="65.67718302205787mm" fill="none" stroke="black" stroke-width="0.1mm" /><circle r="3.3864999999999847" cx="25.912918686618617mm" cy="61.66836784509109mm" fill="none" stroke="black" stroke-width="0.1mm" /><circle r="3.3979999999999846" cx="17.150197391960774mm" cy="52.27884851171477mm" fill="none" stroke="black" stroke-width="0.1mm" /><circle r="3.4094999999999844" cx="13.96586303965822mm" cy="39.788014787868676mm" fill="none" stroke="black" stroke-width="0.1mm" /><circle r="3.4209999999999843" cx="17.187298257503837mm" cy="27.25804021322039mm" fill="none" stroke="black" stroke-width="0.1mm" /><circle r="3.432499999999984" cx="26.06572882600411mm" cy="17.783188530989793mm" fill="none" stroke="black" stroke-width="0.1mm" /><circle r="3.443999999999984" cx="38.4496701089286mm" cy="13.72569930085966mm" fill="none" stroke="black" stroke-width="0.1mm" /><circle r="3.455499999999984" cx="51.306168810396386mm" cy="16.12694464818514mm" fill="none" stroke="black" stroke-width="0.1mm" /><circle r="3.4669999999999837" cx="61.46358874691161mm" cy="24.44061511166187mm" fill="none" stroke="black" stroke-width="0.1mm" /><circle r="3.4784999999999835" cx="66.39403239826387mm" cy="36.65618798982466mm" fill="none" stroke="black" stroke-width="0.1mm" /><circle r="3.4899999999999833" cx="64.84238146520195mm" cy="49.784992751013455mm" fill="none" stroke="black" stroke-width="0.1mm" /><circle r="3.501499999999983" cx="57.14544638074641mm" cy="60.591398529603225mm" fill="none" stroke="black" stroke-width="0.1mm" /><circle r="3.512999999999983" cx="45.16015745362144mm" cy="66.39024204235025mm" fill="none" stroke="black" stroke-width="0.1mm" /><circle r="3.524499999999983" cx="31.81574464751595mm" cy="65.71396875873756mm" fill="none" stroke="black" stroke-width="0.1mm" /><circle r="3.5359999999999827" cx="20.39785911532499mm" cy="58.68374889408836mm" fill="none" stroke="black" stroke-width="0.1mm" /><circle r="3.5474999999999826" cx="13.73958318381952mm" cy="46.990789200116154mm" fill="none" stroke="black" stroke-width="0.1mm" /><circle r="3.5589999999999824" cx="13.518517443959201mm" cy="33.48970187824688mm" fill="none" stroke="black" stroke-width="0.1mm" /><circle r="3.5704999999999822" cx="19.834331575152003mm" cy="21.50164758744488mm" fill="none" stroke="black" stroke-width="0.1mm" /><circle r="3.581999999999982" cx="31.17310269080121mm" cy="13.997356213399101mm" fill="none" stroke="black" stroke-width="0.1mm" /><circle r="3.593499999999982" cx="44.76995566676934mm" cy="12.860995818986837mm" fill="none" stroke="black" stroke-width="0.1mm" /><circle r="3.6049999999999818" cx="57.28320344187921mm" cy="18.41728981831499mm" fill="none" stroke="black" stroke-width="0.1mm" /><circle r="3.6164999999999816" cx="65.61562973784494mm" cy="29.3405188618944mm" fill="none" stroke="black" stroke-width="0.1mm" /><circle r="3.6279999999999815" cx="67.6810686738578mm" cy="42.97052807984769mm" fill="none" stroke="black" stroke-width="0.1mm" /><circle r="3.6394999999999813" cx="62.92655502233963mm" cy="55.96049184103135mm" fill="none" stroke="black" stroke-width="0.1mm" /><circle r="3.650999999999981" cx="52.47939316339086mm" cy="65.09871802051866mm" fill="none" stroke="black" stroke-width="0.1mm" /><circle r="3.662499999999981" cx="38.880249523356mm" cy="68.10270065082803mm" fill="none" stroke="black" stroke-width="0.1mm" /><circle r="3.673999999999981" cx="25.465366562614086mm" cy="64.18910562300347mm" fill="none" stroke="black" stroke-width="0.1mm" /><circle r="3.6854999999999807" cx="15.548097711158903mm" cy="54.27738419518653mm" fill="none" stroke="black" stroke-width="0.1mm" /><circle r="3.6969999999999805" cx="11.600551904321513mm" cy="40.774240182926384mm" fill="none" stroke="black" stroke-width="0.1mm" /><circle r="3.7084999999999804" cx="14.637467866870299mm" cy="26.989350946399423mm" fill="none" stroke="black" stroke-width="0.1mm" /><circle r="3.71999999999998" cx="23.955850237574083mm" cy="16.324162984155286mm" fill="none" stroke="black" stroke-width="0.1mm" /><circle r="3.73149999999998" cx="37.29705915015614mm" cy="11.432586120507175mm" fill="none" stroke="black" stroke-width="0.1mm" /><circle r="3.74299999999998" cx="51.39414818824111mm" cy="13.56068293120271mm" fill="none" stroke="black" stroke-width="0.1mm" /><circle r="3.7544999999999797" cx="62.77184469206993mm" cy="22.229622561120415mm" fill="none" stroke="black" stroke-width="0.1mm" /><circle r="3.7659999999999796" cx="68.60328481540934mm" cy="35.34247943981269mm" fill="none" stroke="black" stroke-width="0.1mm" /><circle r="3.7774999999999794" cx="67.4122991991822mm" cy="49.6913093859658mm" fill="none" stroke="black" stroke-width="0.1mm" /><circle r="3.7889999999999793" cx="59.4467948725067mm" cy="61.74191962975304mm" fill="none" stroke="black" stroke-width="0.1mm" /><circle r="3.800499999999979" cx="46.628860857002756mm" cy="68.50435806571497mm" fill="none" stroke="black" stroke-width="0.1mm" /><circle r="3.811999999999979" cx="32.09114263963194mm" cy="68.27471618342695mm" fill="none" stroke="black" stroke-width="0.1mm" /><circle r="3.823499999999979" cx="19.411271688471274mm" cy="61.064218274458916mm" fill="none" stroke="black" stroke-width="0.1mm" /><circle r="3.8349999999999786" cx="11.73143526921774mm" cy="48.60759827487125mm" fill="none" stroke="black" stroke-width="0.1mm" /><circle r="3.8464999999999785" cx="10.979754280766564mm" cy="33.945963049724035mm" fill="none" stroke="black" stroke-width="0.1mm" /><circle r="3.8579999999999783" cx="17.386398880871845mm" cy="20.684393759838677mm" fill="none" stroke="black" stroke-width="0.1mm" /><circle r="3.869499999999978" cx="29.415831310530887mm" cy="12.105509537672951mm" fill="none" stroke="black" stroke-width="0.1mm" /><circle r="3.880999999999978" cx="44.13458400774334mm" cy="10.35695503017772mm" fill="none" stroke="black" stroke-width="0.1mm" /><circle r="3.892499999999978" cx="57.92655126369677mm" cy="15.913917197060776mm" fill="none" stroke="black" stroke-width="0.1mm" /><circle r="3.9039999999999777" cx="67.38139295740844mm" cy="27.45114667740608mm" fill="none" stroke="black" stroke-width="0.1mm" /><circle r="3.9154999999999776" cx="70.13778804248666mm" cy="42.15869333304672mm" fill="none" stroke="black" stroke-width="0.1mm" /><circle r="3.9269999999999774" cx="65.47303700718226mm" cy="56.42621336859824mm" fill="none" stroke="black" stroke-width="0.1mm" /><circle r="3.9384999999999772" cx="54.491826182296286mm" cy="66.72921620441019mm" fill="none" stroke="black" stroke-width="0.1mm" /><circle r="3.949999999999977" cx="39.86501621136711mm" cy="70.49970129979634mm" fill="none" stroke="black" stroke-width="0.1mm" /><circle r="3.961499999999977" cx="25.180119048197838mm" cy="66.76611950908095mm" fill="none" stroke="black" stroke-width="0.1mm" /><circle r="3.9729999999999768" cx="14.061398632134711mm" cy="56.40320270797655mm" fill="none" stroke="black" stroke-width="0.1mm" /><circle r="3.9844999999999766" cx="9.275403706454284mm" cy="41.92753925994487mm" fill="none" stroke="black" stroke-width="0.1mm" /><circle r="3.9959999999999765" cx="12.04268481448403mm" cy="26.886536398887202mm" fill="none" stroke="black" stroke-width="0.1mm" /><circle r="4.007499999999976" cx="21.726910618365388mm" cy="14.989105784662872mm" fill="none" stroke="black" stroke-width="0.1mm" /><circle r="4.018999999999976" cx="35.98047598740231mm" cy="9.191099878247158mm" fill="none" stroke="black" stroke-width="0.1mm" /><circle r="4.030499999999976" cx="51.31347143184826mm" cy="10.961016044621239mm" fill="none" stroke="black" stroke-width="0.1mm" /><circle r="4.041999999999976" cx="63.94814900657339mm" cy="19.908365941045265mm" fill="none" stroke="black" stroke-width="0.1mm" /><circle r="4.053499999999976" cx="70.74968302035859mm" cy="33.86868536548138mm" fill="none" stroke="black" stroke-width="0.1mm" /><circle r="4.0649999999999755" cx="70.00390540942037mm" cy="49.42699104606271mm" fill="none" stroke="black" stroke-width="0.1mm" /><circle r="4.076499999999975" cx="61.84907676761264mm" cy="62.753128782718235mm" fill="none" stroke="black" stroke-width="0.1mm" /><circle r="4.087999999999975" cx="48.252995795023836mm" cy="70.54468301369832mm" fill="none" stroke="black" stroke-width="0.1mm" /><circle r="4.099499999999975" cx="32.538341801096905mm" cy="70.84532188067962mm" fill="none" stroke="black" stroke-width="0.1mm" /><circle r="4.110999999999975" cx="18.57069798858031mm" cy="63.53580071515212mm" fill="none" stroke="black" stroke-width="0.1mm" /><circle r="4.122499999999975" cx="9.807672538734423mm" cy="50.37443914010292mm" fill="none" stroke="black" stroke-width="0.1mm" /><circle r="4.133999999999975" cx="8.443020285887389mm" cy="34.57437272538224mm" fill="none" stroke="black" stroke-width="0.1mm" /><circle r="4.145499999999974" cx="14.857616754971758mm" cy="20.01916443788914mm" fill="none" stroke="black" stroke-width="0.1mm" /><circle r="4.156999999999974" cx="27.514648518781755mm" cy="10.30824864730219mm" fill="none" stroke="black" stroke-width="0.1mm" /><circle r="4.168499999999974" cx="43.327537692324235mm" cy="7.866831499116799mm" fill="none" stroke="black" stroke-width="0.1mm" /><circle r="4.179999999999974" cx="58.41258400448575mm" cy="13.340353523016361mm" fill="none" stroke="black" stroke-width="0.1mm" /><circle r="4.191499999999974" cx="69.04281221822mm" cy="25.424675528236033mm" fill="none" stroke="black" stroke-width="0.1mm" /><circle r="4.202999999999974" cx="72.56875805088723mm" cy="41.17647737877038mm" fill="none" stroke="black" stroke-width="0.1mm" /><circle r="4.2144999999999735" cx="68.0787073668366mm" cy="56.73007524213645mm" fill="none" stroke="black" stroke-width="0.1mm" /><circle r="4.225999999999973" cx="56.63388553254711mm" cy="68.24610153791333mm" fill="none" stroke="black" stroke-width="0.1mm" /><circle r="4.237499999999973" cx="41.018056538104716mm" cy="72.85923288643866mm" fill="none" stroke="black" stroke-width="0.1mm" /><circle r="4.248999999999973" cx="25.06050748762597mm" cy="69.39102692103mm" fill="none" stroke="black" stroke-width="0.1mm" /><circle r="4.260499999999973" cx="12.697047449946467mm" cy="58.65054977874688mm" fill="none" stroke="black" stroke-width="0.1mm" /><circle r="4.271999999999973" cx="6.99927594939323mm" cy="43.246199645076324mm" fill="none" stroke="black" stroke-width="0.1mm" /><circle r="4.2834999999999726" cx="9.411541697070778mm" cy="26.952347197677657mm" fill="none" stroke="black" stroke-width="0.1mm" /><circle r="4.294999999999972" cx="19.3851273069013mm" cy="13.784555623691528mm" fill="none" stroke="black" stroke-width="0.1mm" /><circle r="4.306499999999972" cx="34.50223541592342mm" cy="7.00996196458599mm" fill="none" stroke="black" stroke-width="0.1mm" /><circle r="4.317999999999972" cx="51.06198175035435mm" cy="8.33670642913443mm" fill="none" stroke="black" stroke-width="0.1mm" /><circle r="4.329499999999972" cx="64.98640239971104mm" cy="17.483496716414777mm" fill="none" stroke="black" stroke-width="0.1mm" /><circle r="4.340999999999972" cx="72.82468264793343mm" cy="32.23771238213584mm" fill="none" stroke="black" stroke-width="0.1mm" /><circle r="4.352499999999972" cx="72.60830879229718mm" cy="48.99048512073645mm" fill="none" stroke="black" stroke-width="0.1mm" /><circle r="4.3639999999999715" cx="64.34523745874155mm" cy="63.61939484994221mm" fill="none" stroke="black" stroke-width="0.1mm" /><circle r="4.375499999999971" cx="50.029077208127035mm" cy="72.50288964620555mm" fill="none" stroke="black" stroke-width="0.1mm" /><circle r="4.386999999999971" cx="33.158283042140454mm" cy="73.41680728418748mm" fill="none" stroke="black" stroke-width="0.1mm" /><circle r="4.398499999999971" cx="17.8812744305197mm" cy="66.09107134983168mm" fill="none" stroke="black" stroke-width="0.1mm" /><circle r="4.409999999999971" cx="7.976366008235807mm" cy="52.28726438071199mm" fill="none" stroke="black" stroke-width="0.1mm" /><circle r="4.421499999999971" cx="5.917339263234297mm" cy="35.375255455431315mm" fill="none" stroke="black" stroke-width="0.1mm" /><circle r="4.4329999999999705" cx="12.255745693340653mm" cy="19.51057704650024mm" fill="none" stroke="black" stroke-width="0.1mm" /><circle r="4.44449999999997" cx="25.47414535879323mm" cy="8.613350418649016mm" fill="none" stroke="black" stroke-width="0.1mm" /><circle r="4.45599999999997" cx="42.34911030676079mm" cy="5.399652013792426mm" fill="none" stroke="black" stroke-width="0.1mm" /><circle r="4.46749999999997" cx="58.73722507594103mm" cy="10.70465870733856mm" fill="none" stroke="black" stroke-width="0.1mm" /><circle r="4.47899999999997" cx="70.59244133703469mm" cy="23.266218806256624mm" fill="none" stroke="black" stroke-width="0.1mm" /><circle r="4.49049999999997" cx="74.96499121142543mm" cy="40.02479082350763mm" fill="none" stroke="black" stroke-width="0.1mm" /><circle r="4.50199999999997" cx="70.73524440521298mm" cy="56.868561033823006mm" fill="none" stroke="black" stroke-width="0.1mm" /><circle r="4.513499999999969" cx="58.89995920670684mm" cy="69.64229355135673mm" fill="none" stroke="black" stroke-width="0.1mm" /><circle r="4.524999999999969" cx="42.33784688161373mm" cy="75.17238934104586mm" fill="none" stroke="black" stroke-width="0.1mm" /><g transform="translate(135,285) scale(0.4)" fill="black" stroke="none">
<path
         d="m 6.909225,12.189723 h 3.199798 l 3.274213,9.11157 3.265944,-9.11157 h 3.199798 l -4.572322,12.344441 h -3.795109 z"
         style="font-size:16.9333px;stroke-width:0.265"
         id="path428" />
      <path
         d="M 27.827804,22.285211 H 22.85034 l -0.78548,2.248953 h -3.199799 l 4.572322,-12.344441 h 3.79511 l 4.572321,12.344441 h -3.199798 z m -4.183716,-2.290295 h 3.381699 l -1.686715,-4.911319 z"
         style="font-size:16.9333px;stroke-width:0.265"
         id="path430" />
      <path
         d="m 37.964634,17.66328 q 1.000454,0 1.430401,-0.37207 0.438215,-0.37207 0.438215,-1.223696 0,-0.843357 -0.438215,-1.207159 -0.429947,-0.363801 -1.430401,-0.363801 h -1.33945 v 3.166726 z m -1.33945,2.199344 v 4.67154 H 33.441922 V 12.189723 h 4.861709 q 2.439123,0 3.571868,0.818553 1.141013,0.818553 1.141013,2.58795 0,1.223696 -0.595311,2.009176 -0.587043,0.78548 -1.777666,1.15755 0.653189,0.148828 1.165818,0.677993 0.520898,0.520898 1.050063,1.587497 l 1.728057,3.505722 h -3.389967 l -1.504815,-3.067507 q -0.454752,-0.926039 -0.92604,-1.265036 -0.46302,-0.338997 -1.240232,-0.338997 z"
         style="font-size:16.9333px;stroke-width:0.265"
         id="path432" />
      <path
         d="m 46.480893,12.189723 h 3.183262 v 12.344441 h -3.183262 z"
         style="font-size:16.9333px;stroke-width:0.265"
         id="path434" />
      <path
         d="m 62.570834,23.856171 q -0.876431,0.454752 -1.827275,0.686262 -0.950845,0.23151 -1.984371,0.23151 -3.084044,0 -4.886514,-1.719789 -1.802471,-1.728056 -1.802471,-4.679808 0,-2.96002 1.802471,-4.679809 1.80247,-1.728056 4.886514,-1.728056 1.033526,0 1.984371,0.23151 0.950844,0.23151 1.827275,0.686261 v 2.554878 q -0.884699,-0.603579 -1.744593,-0.884699 -0.859894,-0.281119 -1.810739,-0.281119 -1.703252,0 -2.678901,1.091404 -0.975649,1.091404 -0.975649,3.00963 0,1.909957 0.975649,3.001361 0.975649,1.091404 2.678901,1.091404 0.950845,0 1.810739,-0.281119 0.859894,-0.281119 1.744593,-0.884699 z"
         style="font-size:16.9333px;stroke-width:0.265"
         id="path436" />
      <path
         d="m 65.208394,12.189723 h 3.183262 v 12.344441 h -3.183262 z"
         style="font-size:16.9333px;stroke-width:0.265"
         id="path438" />
      <path
         d="m 70.037033,12.189723 h 11.377061 v 2.40605 h -4.092766 v 9.938391 h -3.183262 v -9.938391 h -4.101033 z"
         style="font-size:16.9333px;stroke-width:0.265"
         id="path440" />
      <path
         d="m 83.059464,12.189723 h 8.590673 v 2.40605 h -5.407411 v 2.298563 h 5.084951 v 2.40605 h -5.084951 v 2.827728 h 5.589312 v 2.40605 h -8.772574 z"
         style="font-size:16.9333px;stroke-width:0.265"
         id="path442" />
         </g>
</svg>