<svg width="80mm" height="80mm" fill="none" stroke="black"><circle r="40mm" cx="40mm" cy="40mm" stroke-width="0.1mm" /><circle r="0.5" cx="39.167706326905716mm" cy="41.81859485365136mm" fill="none" stroke="black" stroke-width="0.1mm" /><circle r="0.512" cx="38.3076191017131mm" cy="41.23485703428114mm" fill="none" stroke="black" stroke-width="0.1mm" /><circle r="0.524" cx="37.82551788167794mm" cy="40.26024510965165mm" fill="none" stroke="black" stroke-width="0.1mm" /><circle r="0.536" cx="37.888432783077015mm" cy="39.12678245069392mm" fill="none" stroke="black" stroke-width="0.1mm" /><circle r="0.548" cx="38.526846216449265mm" cy="38.13071726857328mm" fill="none" stroke="black" stroke-width="0.1mm" /><circle r="0.56" cx="39.61498860657733mm" cy="37.55512960937911mm" fill="none" stroke="black" stroke-width="0.1mm" /><circle r="0.5720000000000001" cx="40.89341424964786mm" cy="37.59028819596074mm" fill="none" stroke="black" stroke-width="0.1mm" /><circle r="0.5840000000000001" cx="42.03053556257651mm" cy="38.27397846794656mm" fill="none" stroke="black" stroke-width="0.1mm" /><circle r="0.5960000000000001" cx="42.70861052642163mm" cy="39.46987830061585mm" fill="none" stroke="black" stroke-width="0.1mm" /><circle r="0.6080000000000001" cx="42.711889314671325mm" cy="40.892570078465276mm" fill="none" stroke="black" stroke-width="0.1mm" /><circle r="0.6200000000000001" cx="41.9926163826259mm" cy="42.17531146084668mm" fill="none" stroke="black" stroke-width="0.1mm" /><circle r="0.6320000000000001" cx="40.69524033517844mm" cy="42.9645684131659mm" fill="none" stroke="black" stroke-width="0.1mm" /><circle r="0.6440000000000001" cx="39.12957249684828mm" cy="43.0169448058851mm" fill="none" stroke="black" stroke-width="0.1mm" /><circle r="0.6560000000000001" cx="37.697176039139734mm" cy="42.27205343363396mm" fill="none" stroke="black" stroke-width="0.1mm" /><circle r="0.6680000000000001" cx="36.788373783583566mm" cy="40.87997559399489mm" fill="none" stroke="black" stroke-width="0.1mm" /><circle r="0.6800000000000002" cx="36.676289703452085mm" cy="39.17321413617467mm" fill="none" stroke="black" stroke-width="0.1mm" /><circle r="0.6920000000000002" cx="37.4365912918466mm" cy="37.5876700484877mm" fill="none" stroke="black" stroke-width="0.1mm" /><circle r="0.7040000000000002" cx="38.91611948049889mm" cy="36.551315030414344mm" fill="none" stroke="black" stroke-width="0.1mm" /><circle r="0.7160000000000002" cx="40.76150196688759mm" cy="36.36899259785575mm" fill="none" stroke="black" stroke-width="0.1mm" /><circle r="0.7280000000000002" cx="42.50313147815357mm" cy="37.13427883368309mm" fill="none" stroke="black" stroke-width="0.1mm" /><circle r="0.7400000000000002" cx="43.67466712860777mm" cy="38.69354621439197mm" fill="none" stroke="black" stroke-width="0.1mm" /><circle r="0.7520000000000002" cx="43.937649994963714mm" cy="40.674490561210696mm" fill="none" stroke="black" stroke-width="0.1mm" /><circle r="0.7640000000000002" cx="43.177994797040505mm" cy="42.57457745464834mm" fill="none" stroke="black" stroke-width="0.1mm" /><circle r="0.7760000000000002" cx="41.547140689494725mm" cy="43.88851908660737mm" fill="none" stroke="black" stroke-width="0.1mm" /><circle r="0.7880000000000003" cx="39.43427530408494mm" cy="44.24244688457402mm" fill="none" stroke="black" stroke-width="0.1mm" /><circle r="0.8000000000000003" cx="37.373934718082374mm" cy="43.49920078519466mm" fill="none" stroke="black" stroke-width="0.1mm" /><circle r="0.8120000000000003" cx="35.91078635631306mm" cy="41.8053342561101mm" fill="none" stroke="black" stroke-width="0.1mm" /><circle r="0.8240000000000003" cx="35.455795486549064mm" cy="39.564764041085546mm" fill="none" stroke="black" stroke-width="0.1mm" /><circle r="0.8360000000000003" cx="36.171720249856186mm" cy="37.342957630251476mm" fill="none" stroke="black" stroke-width="0.1mm" /><circle r="0.8480000000000003" cx="37.919623547837084mm" cy="35.72424757296613mm" fill="none" stroke="black" stroke-width="0.1mm" /><circle r="0.8600000000000003" cx="40.28311459562378mm" cy="35.15827033739544mm" fill="none" stroke="black" stroke-width="0.1mm" /><circle r="0.8720000000000003" cx="42.66700755882417mm" cy="35.8358559485562mm" fill="none" stroke="black" stroke-width="0.1mm" /><circle r="0.8840000000000003" cx="44.44716825663425mm" cy="37.628440492590435mm" fill="none" stroke="black" stroke-width="0.1mm" /><circle r="0.8960000000000004" cx="45.13383216201889mm" cy="40.10950950744335mm" fill="none" stroke="black" stroke-width="0.1mm" /><circle r="0.9080000000000004" cx="44.50568015736mm" cy="42.65551244010876mm" fill="none" stroke="black" stroke-width="0.1mm" /><circle r="0.9200000000000004" cx="42.67812734085029mm" cy="44.602527451975725mm" fill="none" stroke="black" stroke-width="0.1mm" /><circle r="0.9320000000000004" cx="40.08537187014668mm" cy="45.41932760070728mm" fill="none" stroke="black" stroke-width="0.1mm" /><circle r="0.9440000000000004" cx="37.37783743109253mm" cy="44.851751071749305mm" fill="none" stroke="black" stroke-width="0.1mm" /><circle r="0.9560000000000004" cx="35.259067924774754mm" cy="42.999277089250086mm" fill="none" stroke="black" stroke-width="0.1mm" /><circle r="0.9680000000000004" cx="34.30295996881819mm" cy="40.301263809827816mm" fill="none" stroke="black" stroke-width="0.1mm" /><circle r="0.9800000000000004" cx="34.79880118526201mm" cy="37.43338142888974mm" fill="none" stroke="black" stroke-width="0.1mm" /><circle r="0.9920000000000004" cx="36.66583926478923mm" cy="35.13847789352154mm" fill="none" stroke="black" stroke-width="0.1mm" /><circle r="1.0040000000000004" cx="39.46215734525303mm" cy="34.03419533686069mm" fill="none" stroke="black" stroke-width="0.1mm" /><circle r="1.0160000000000005" cx="42.48859713932372mm" cy="34.447153047476476mm" fill="none" stroke="black" stroke-width="0.1mm" /><circle r="1.0280000000000005" cx="44.96347754679718mm" cy="36.31811316816496mm" fill="none" stroke="black" stroke-width="0.1mm" /><circle r="1.0400000000000005" cx="46.224470541180004mm" cy="39.20527269961181mm" fill="none" stroke="black" stroke-width="0.1mm" /><circle r="1.0520000000000005" cx="45.905503171533226mm" cy="42.387871916793486mm" fill="none" stroke="black" stroke-width="0.1mm" /><circle r="1.0640000000000005" cx="44.041522320843285mm" cy="45.04602044487787mm" fill="none" stroke="black" stroke-width="0.1mm" /><circle r="1.0760000000000005" cx="41.07147979529937mm" cy="46.471903201397964mm" fill="none" stroke="black" stroke-width="0.1mm" /><circle r="1.0880000000000005" cx="37.73572573277791mm" cy="46.25796189208562mm" fill="none" stroke="black" stroke-width="0.1mm" /><circle r="1.1000000000000005" cx="34.89158315667131mm" cy="44.41209444082917mm" fill="none" stroke="black" stroke-width="0.1mm" /><circle r="1.1120000000000005" cx="33.29301269828578mm" cy="41.367606059742414mm" fill="none" stroke="black" stroke-width="0.1mm" /><circle r="1.1240000000000006" cx="33.390993083378575mm" cy="37.88230607120619mm" fill="none" stroke="black" stroke-width="0.1mm" /><circle r="1.1360000000000006" cx="35.20740727782954mm" cy="34.85002135932598mm" fill="none" stroke="black" stroke-width="0.1mm" /><circle r="1.1480000000000006" cx="38.31744327888136mm" cy="33.07137077913542mm" fill="none" stroke="black" stroke-width="0.1mm" /><circle r="1.1600000000000006" cx="41.94807955092661mm" cy="33.04258589249845mm" fill="none" stroke="black" stroke-width="0.1mm" /><circle r="1.1720000000000006" cx="45.17006536535413mm" cy="34.81802893505129mm" fill="none" stroke="black" stroke-width="0.1mm" /><circle r="1.1840000000000006" cx="47.13575962100411mm" cy="37.98427193519383mm" fill="none" stroke="black" stroke-width="0.1mm" /><circle r="1.1960000000000006" cx="47.30195408930795mm" cy="41.755439112484055mm" fill="none" stroke="black" stroke-width="0.1mm" /><circle r="1.2080000000000006" cx="45.579149896074235mm" cy="45.168085858142724mm" fill="none" stroke="black" stroke-width="0.1mm" /><circle r="1.2200000000000006" cx="42.36646309883341mm" cy="47.327335968949406mm" fill="none" stroke="black" stroke-width="0.1mm" /><circle r="1.2320000000000007" cx="38.460159779605746mm" cy="47.641394970530975mm" fill="none" stroke="black" stroke-width="0.1mm" /><circle r="1.2440000000000007" cx="34.856500140432786mm" cy="45.98301840166249mm" fill="none" stroke="black" stroke-width="0.1mm" /><circle r="1.2560000000000007" cx="32.49765498885266mm" cy="42.734052730602045mm" fill="none" stroke="black" stroke-width="0.1mm" /><circle r="1.2680000000000007" cx="32.0254949205167mm" cy="38.698589712160306mm" fill="none" stroke="black" stroke-width="0.1mm" /><circle r="1.2800000000000007" cx="33.607563169435814mm" cy="34.904180500915835mm" fill="none" stroke="black" stroke-width="0.1mm" /><circle r="1.2920000000000007" cx="36.88226294633392mm" cy="32.34019480246413mm" fill="none" stroke="black" stroke-width="0.1mm" /><circle r="1.3040000000000007" cx="41.040336591400305mm" cy="31.699944290753614mm" fill="none" stroke="black" stroke-width="0.1mm" /><circle r="1.3160000000000007" cx="45.02461068293665mm" cy="33.19376113518495mm" fill="none" stroke="black" stroke-width="0.1mm" /><circle r="1.3280000000000007" cx="47.798769049547325mm" cy="36.483293257631125mm" fill="none" stroke="black" stroke-width="0.1mm" /><circle r="1.3400000000000007" cx="48.61682386642996mm" cy="40.756866206751866mm" fill="none" stroke="black" stroke-width="0.1mm" /><circle r="1.3520000000000008" cx="47.22323405264171mm" cy="44.92949437779954mm" fill="none" stroke="black" stroke-width="0.1mm" /><circle r="1.3640000000000008" cx="43.93010455193991mm" cy="47.918325467598635mm" fill="none" stroke="black" stroke-width="0.1mm" /><circle r="1.3760000000000008" cx="39.54869417725746mm" cy="48.923595018509005mm" fill="none" stroke="black" stroke-width="0.1mm" /><circle r="1.3880000000000008" cx="35.18985221249605mm" cy="47.642210299538405mm" fill="none" stroke="black" stroke-width="0.1mm" /><circle r="1.4000000000000008" cx="31.982398026485427mm" cy="44.35702692145633mm" fill="none" stroke="black" stroke-width="0.1mm" /><circle r="1.4120000000000008" cx="30.780834165504153mm" cy="39.87597856610818mm" fill="none" stroke="black" stroke-width="0.1mm" /><circle r="1.4240000000000008" cx="31.938063587184654mm" cy="35.33369457967847mm" fill="none" stroke="black" stroke-width="0.1mm" /><circle r="1.4360000000000008" cx="35.203474323117966mm" cy="31.90423311655953mm" fill="none" stroke="black" stroke-width="0.1mm" /><circle r="1.4480000000000008" cx="39.77543791157773mm" cy="30.497653086292654mm" fill="none" stroke="black" stroke-width="0.1mm" /><circle r="1.4600000000000009" cx="44.497760044484416mm" cy="31.518835305086945mm" fill="none" stroke="black" stroke-width="0.1mm" /><circle r="1.4720000000000009" cx="48.152031406918965mm" cy="34.75239016879046mm" fill="none" stroke="black" stroke-width="0.1mm" /><circle r="1.4840000000000009" cx="49.771965497398575mm" cy="39.40603845439965mm" fill="none" stroke="black" stroke-width="0.1mm" /><circle r="1.4960000000000009" cx="48.89863358067946mm" cy="44.304363529815305mm" fill="none" stroke="black" stroke-width="0.1mm" /><circle r="1.508000000000001" cx="45.70924747854705mm" cy="48.18565166793117mm" fill="none" stroke="black" stroke-width="0.1mm" /><circle r="1.520000000000001" cx="40.98363608157513mm" cy="50.02686815805532mm" fill="none" stroke="black" stroke-width="0.1mm" /><circle r="1.532000000000001" cx="35.91397242645476mm" cy="49.31307031371654mm" fill="none" stroke="black" stroke-width="0.1mm" /><circle r="1.544000000000001" cx="31.804069356163787mm" cy="46.18036777881598mm" fill="none" stroke="black" stroke-width="0.1mm" /><circle r="1.556000000000001" cx="29.734076538832333mm" cy="41.39298797175264mm" fill="none" stroke="black" stroke-width="0.1mm" /><circle r="1.568000000000001" cx="30.276806343177775mm" cy="36.1572756913965mm" fill="none" stroke="black" stroke-width="0.1mm" /><circle r="1.580000000000001" cx="33.340136970447915mm" cy="31.81777998171611mm" fill="none" stroke="black" stroke-width="0.1mm" /><circle r="1.592000000000001" cx="38.178636470005515mm" cy="29.511975405654013mm" fill="none" stroke="black" stroke-width="0.1mm" /><circle r="1.604000000000001" cx="43.57448679287397mm" cy="29.872283368519348mm" fill="none" stroke="black" stroke-width="0.1mm" /><circle r="1.616000000000001" cx="48.143921944323246mm" cy="32.853409178862236mm" fill="none" stroke="black" stroke-width="0.1mm" /><circle r="1.628000000000001" cx="50.69209195868902mm" cy="37.731945867723205mm" fill="none" stroke="black" stroke-width="0.1mm" /><circle r="1.640000000000001" cx="50.52534928128996mm" cy="43.281409378125375mm" fill="none" stroke="black" stroke-width="0.1mm" /><circle r="1.652000000000001" cx="47.63937627163313mm" cy="48.080490714084696mm" fill="none" stroke="black" stroke-width="0.1mm" /><circle r="1.664000000000001" cx="42.73229735544696mm" cy="50.877075717370815mm" fill="none" stroke="black" stroke-width="0.1mm" /><circle r="1.676000000000001" cx="37.036352042461274mm" cy="50.914801454162mm" fill="none" stroke="black" stroke-width="0.1mm" /><circle r="1.688000000000001" cx="32.00856566842524mm" cy="48.1370143372203mm" fill="none" stroke="black" stroke-width="0.1mm" /><circle r="1.700000000000001" cx="28.958041703520358mm" cy="43.21327822928622mm" fill="none" stroke="black" stroke-width="0.1mm" /><circle r="1.712000000000001" cx="28.70521440191783mm" cy="37.37857990902717mm" fill="none" stroke="black" stroke-width="0.1mm" /><circle r="1.724000000000001" cx="31.361727805871173mm" cy="32.123684014709596mm" fill="none" stroke="black" stroke-width="0.1mm" /><circle r="1.736000000000001" cx="36.28986940012334mm" cy="28.814243166783065mm" fill="none" stroke="black" stroke-width="0.1mm" /><circle r="1.748000000000001" cx="42.25500500732911mm" cy="28.335980434819174mm" fill="none" stroke="black" stroke-width="0.1mm" /><circle r="1.7600000000000011" cx="47.734755417533975mm" cy="30.85810831222939mm" fill="none" stroke="black" stroke-width="0.1mm" /><circle r="1.7720000000000011" cx="51.30752556664814mm" cy="35.778061397935865mm" fill="none" stroke="black" stroke-width="0.1mm" /><circle r="1.7840000000000011" cx="52.02122941883982mm" cy="41.86474348359779mm" fill="none" stroke="black" stroke-width="0.1mm" /><circle r="1.7960000000000012" cx="49.646591844680344mm" cy="47.56643018748916mm" fill="none" stroke="black" stroke-width="0.1mm" /><circle r="1.8080000000000012" cx="44.747738238605656mm" cy="51.406358166289635mm" fill="none" stroke="black" stroke-width="0.1mm" /><circle r="1.8200000000000012" cx="38.54896239960953mm" cy="52.36515223853931mm" fill="none" stroke="black" stroke-width="0.1mm" /><circle r="1.8320000000000012" cx="32.62892317469597mm" cy="50.15107144273286mm" fill="none" stroke="black" stroke-width="0.1mm" /><circle r="1.8440000000000012" cx="28.51861000608325mm" cy="45.286519063390294mm" fill="none" stroke="black" stroke-width="0.1mm" /><circle r="1.8560000000000012" cx="27.305461082859576mm" cy="38.98564962601283mm" fill="none" stroke="black" stroke-width="0.1mm" /><circle r="1.8680000000000012" cx="29.345988365008644mm" cy="32.8515081253827mm" fill="none" stroke="black" stroke-width="0.1mm" /><circle r="1.8800000000000012" cx="34.16277403407251mm" cy="28.468199705913104mm" fill="none" stroke="black" stroke-width="0.1mm" /><circle r="1.8920000000000012" cx="40.55520526514959mm" cy="26.99184305470022mm" fill="none" stroke="black" stroke-width="0.1mm" /><circle r="1.9040000000000012" cx="46.89853282115933mm" cy="28.84592137756828mm" fill="none" stroke="black" stroke-width="0.1mm" /><circle r="1.9160000000000013" cx="51.55681430898922mm" cy="33.601238945894075mm" fill="none" stroke="black" stroke-width="0.1mm" /><circle r="1.9280000000000013" cx="53.30479317772059mm" cy="40.07418556517602mm" fill="none" stroke="black" stroke-width="0.1mm" /><circle r="1.9400000000000013" cx="51.649926370686586mm" cy="46.621118905259294mm" fill="none" stroke="black" stroke-width="0.1mm" /><circle r="1.9520000000000013" cx="46.96998563204056mm" cy="51.55570531335707mm" fill="none" stroke="black" stroke-width="0.1mm" /><circle r="1.9640000000000013" cx="40.428066340103356mm" cy="53.58325657596408mm" fill="none" stroke="black" stroke-width="0.1mm" /><circle r="1.9760000000000013" cx="33.683768183706285mm" cy="52.14019936586051mm" fill="none" stroke="black" stroke-width="0.1mm" /><circle r="1.9880000000000013" cx="28.472203434687422mm" cy="47.549722269644654mm" fill="none" stroke="black" stroke-width="0.1mm" /><circle r="2.0000000000000013" cx="26.157619077427363mm" cy="40.95084982746907mm" fill="none" stroke="black" stroke-width="0.1mm" /><circle r="2.0120000000000013" cx="27.376464595617342mm" cy="34.01608373267987mm" fill="none" stroke="black" stroke-width="0.1mm" /><circle r="2.0240000000000014" cx="31.8632430396119mm" cy="28.5275368308468mm" fill="none" stroke="black" stroke-width="0.1mm" /><circle r="2.0360000000000014" cx="38.506592986548455mm" cy="25.91897249870682mm" fill="none" stroke="black" stroke-width="0.1mm" /><circle r="2.0480000000000014" cx="45.62428044834938mm" cy="26.901431588211025mm" fill="none" stroke="black" stroke-width="0.1mm" /><circle r="2.0600000000000014" cx="51.389133846236916mm" cy="31.27015863646413mm" fill="none" stroke="black" stroke-width="0.1mm" /><circle r="2.0720000000000014" cx="54.29808773823552mm" cy="37.945076149897496mm" fill="none" stroke="black" stroke-width="0.1mm" /><circle r="2.0840000000000014" cx="53.56393128525704mm" cy="45.23749635692728mm" fill="none" stroke="black" stroke-width="0.1mm" /><circle r="2.0960000000000014" cx="49.32769512699422mm" cy="51.27729261027882mm" fill="none" stroke="black" stroke-width="0.1mm" /><circle r="2.1080000000000014" cx="42.634531337819595mm" cy="54.492485798856166mm" fill="none" stroke="black" stroke-width="0.1mm" /><circle r="2.1200000000000014" cx="35.17619999508887mm" cy="54.01825875466067mm" fill="none" stroke="black" stroke-width="0.1mm" /><circle r="2.1320000000000014" cx="28.863519656467894mm" cy="49.92900828673862mm" fill="none" stroke="black" stroke-width="0.1mm" /><circle r="2.1440000000000015" cx="25.336818864277966mm" cy="43.23130685342736mm" fill="none" stroke="black" stroke-width="0.1mm" /><circle r="2.1560000000000015" cx="25.539809743138754mm" cy="35.61650849945202mm" fill="none" stroke="black" stroke-width="0.1mm" /><circle r="2.1680000000000015" cx="29.46755626135463mm" cy="29.033703729505056mm" fill="none" stroke="black" stroke-width="0.1mm" /><circle r="2.1800000000000015" cx="36.15572440849436mm" cy="25.190829017917466mm" fill="none" stroke="black" stroke-width="0.1mm" /><circle r="2.1920000000000015" cx="43.91693500518279mm" cy="25.111627182086853mm" fill="none" stroke="black" stroke-width="0.1mm" /><circle r="2.2040000000000015" cx="50.76639932595922mm" cy="28.86336022159349mm" fill="none" stroke="black" stroke-width="0.1mm" /><circle r="2.2160000000000015" cx="54.92949278636033mm" cy="35.52758788325402mm" fill="none" stroke="black" stroke-width="0.1mm" /><circle r="2.2280000000000015" cx="55.301463937830256mm" cy="43.42455856414832mm" fill="none" stroke="black" stroke-width="0.1mm" /><circle r="2.2400000000000015" cx="51.74021270507163mm" cy="50.53650941439699mm" fill="none" stroke="black" stroke-width="0.1mm" /><circle r="2.2520000000000016" cx="45.11464202491035mm" cy="55.02322658276252mm" fill="none" stroke="black" stroke-width="0.1mm" /><circle r="2.2640000000000016" cx="37.093146188386406mm" cy="55.69813447253874mm" fill="none" stroke="black" stroke-width="0.1mm" /><circle r="2.2760000000000016" cx="29.72359144213346mm" cy="52.341759483631535mm" fill="none" stroke="black" stroke-width="0.1mm" /><circle r="2.2880000000000016" cx="24.910502706686785mm" cy="45.76984370976325mm" fill="none" stroke="black" stroke-width="0.1mm" /><circle r="2.3000000000000016" cx="23.922928492370502mm" cy="37.63562445060661mm" fill="none" stroke="black" stroke-width="0.1mm" /><circle r="2.3120000000000016" cx="27.060139538061662mm" cy="30.014058070188554mm" fill="none" stroke="black" stroke-width="0.1mm" /><circle r="2.3240000000000016" cx="33.56314976685037mm" cy="24.872523043283024mm" fill="none" stroke="black" stroke-width="0.1mm" /><circle r="2.3360000000000016" cx="41.797741199947666mm" cy="23.563018781479mm" fill="none" stroke="black" stroke-width="0.1mm" /><circle r="2.3480000000000016" cx="49.665018772321986mm" cy="26.466917862856775mm" fill="none" stroke="black" stroke-width="0.1mm" /><circle r="2.3600000000000017" cx="55.136386879578524mm" cy="32.88554870480341mm" fill="none" stroke="black" stroke-width="0.1mm" /><circle r="2.3720000000000017" cx="56.77659171164967mm" cy="41.20763013402642mm" fill="none" stroke="black" stroke-width="0.1mm" /><circle r="2.3840000000000017" cx="54.11997996672882mm" cy="49.313613194629575mm" fill="none" stroke="black" stroke-width="0.1mm" /><circle r="2.3960000000000017" cx="47.80139530142736mm" cy="55.115499705628935mm" fill="none" stroke="black" stroke-width="0.1mm" /><circle r="2.4080000000000017" cx="39.40521712635833mm" cy="57.0946558413214mm" fill="none" stroke="black" stroke-width="0.1mm" /><circle r="2.4200000000000017" cx="31.06823514918961mm" cy="54.6991012191164mm" fill="none" stroke="black" stroke-width="0.1mm" /><circle r="2.4320000000000017" cx="24.93585860125951mm" cy="48.49639152339122mm" fill="none" stroke="black" stroke-width="0.1mm" /><circle r="2.4440000000000017" cx="22.610046003117116mm" cy="40.03999982872591mm" fill="none" stroke="black" stroke-width="0.1mm" /><circle r="2.4560000000000017" cx="24.731012141259683mm" cy="31.48042050511635mm" fill="none" stroke="black" stroke-width="0.1mm" /><circle r="2.4680000000000017" cx="30.801887650765728mm" cy="25.018306864347238mm" fill="none" stroke="black" stroke-width="0.1mm" /><circle r="2.4800000000000018" cx="39.304141966446416mm" cy="22.338703145093223mm" fill="none" stroke="black" stroke-width="0.1mm" /><circle r="2.4920000000000018" cx="48.07722941170347mm" cy="24.171820539597313mm" fill="none" stroke="black" stroke-width="0.1mm" /><circle r="2.504000000000002" cx="54.8675931044796mm" cy="30.094804379537393mm" fill="none" stroke="black" stroke-width="0.1mm" /><circle r="2.516000000000002" cx="57.9075280911282mm" cy="38.628126221019166mm" fill="none" stroke="black" stroke-width="0.1mm" /><circle r="2.528000000000002" cx="56.375216147651mm" cy="47.60495372225964mm" fill="none" stroke="black" stroke-width="0.1mm" /><circle r="2.540000000000002" cx="50.61624705098185mm" cy="54.7213382052217mm" fill="none" stroke="black" stroke-width="0.1mm" /><circle r="2.552000000000002" cx="42.067072365214116mm" cy="58.127527046924214mm" fill="none" stroke="black" stroke-width="0.1mm" /><circle r="2.564000000000002" cx="32.89694143777767mm" cy="56.90864154985967mm" fill="none" stroke="black" stroke-width="0.1mm" /><circle r="2.576000000000002" cx="25.45751435132905mm" cy="51.32984272433647mm" fill="none" stroke="black" stroke-width="0.1mm" /><circle r="2.588000000000002" cx="21.67978865481011mm" cy="42.780423756835695mm" fill="none" stroke="black" stroke-width="0.1mm" /><circle r="2.600000000000002" cx="22.57299422735593mm" cy="33.42808286721211mm" fill="none" stroke="black" stroke-width="0.1mm" /><circle r="2.612000000000002" cx="27.955468335082138mm" cy="25.669345549738786mm" fill="none" stroke="black" stroke-width="0.1mm" /><circle r="2.624000000000002" cx="36.48915589899719mm" cy="21.515460549463118mm" fill="none" stroke="black" stroke-width="0.1mm" /><circle r="2.636000000000002" cx="46.01196962310738mm" cy="22.071131623807524mm" fill="none" stroke="black" stroke-width="0.1mm" /><circle r="2.648000000000002" cx="54.08552681559508mm" cy="27.24116152123743mm" fill="none" stroke="black" stroke-width="0.1mm" /><circle r="2.660000000000002" cx="58.619513168820674mm" cy="35.742802640690236mm" fill="none" stroke="black" stroke-width="0.1mm" /><circle r="2.672000000000002" cx="58.41280135606714mm" cy="45.42372300380582mm" fill="none" stroke="black" stroke-width="0.1mm" /><circle r="2.684000000000002" cx="53.47126605942234mm" cy="53.806849414557114mm" fill="none" stroke="black" stroke-width="0.1mm" /><circle r="2.696000000000002" cx="45.0182970508745mm" cy="58.7241800810926mm" fill="none" stroke="black" stroke-width="0.1mm" /><circle r="2.708000000000002" cx="35.1922493086722mm" cy="58.87739212100118mm" fill="none" stroke="black" stroke-width="0.1mm" /><circle r="2.720000000000002" cx="26.50556545888895mm" cy="54.18029835425437mm" fill="none" stroke="black" stroke-width="0.1mm" /><circle r="2.732000000000002" cx="21.202364092828986mm" cy="45.792908104004mm" fill="none" stroke="black" stroke-width="0.1mm" /><circle r="2.744000000000002" cx="20.6787535377974mm" cy="35.835307916925466mm" fill="none" stroke="black" stroke-width="0.1mm" /><circle r="2.756000000000002" cx="25.115596813644544mm" cy="26.8518388439291mm" fill="none" stroke="black" stroke-width="0.1mm" /><circle r="2.768000000000002" cx="33.42025118641012mm" cy="21.16097320586696mm" fill="none" stroke="black" stroke-width="0.1mm" /><circle r="2.780000000000002" cx="43.49525196352636mm" cy="20.257008491328747mm" fill="none" stroke="black" stroke-width="0.1mm" /><circle r="2.792000000000002" cx="52.76797581033357mm" cy="24.417964872753725mm" fill="none" stroke="black" stroke-width="0.1mm" /><circle r="2.804000000000002" cx="58.84755152514363mm" cy="32.62250709881357mm" fill="none" stroke="black" stroke-width="0.1mm" /><circle r="2.816000000000002" cx="60.141278663037866mm" cy="42.80019978177545mm" fill="none" stroke="black" stroke-width="0.1mm" /><circle r="2.828000000000002" cx="56.27163841530317mm" cy="52.353893446263406mm" fill="none" stroke="black" stroke-width="0.1mm" /><circle r="2.840000000000002" cx="48.18477167452927mm" cy="58.82246364416261mm" fill="none" stroke="black" stroke-width="0.1mm" /><circle r="2.852000000000002" cx="37.91963119887693mm" cy="60.514786512447884mm" fill="none" stroke="black" stroke-width="0.1mm" /><circle r="2.864000000000002" cx="28.09400192487377mm" cy="56.95164991483396mm" fill="none" stroke="black" stroke-width="0.1mm" /><circle r="2.876000000000002" cx="21.236926507797914mm" cy="49.00017628306374mm" fill="none" stroke="black" stroke-width="0.1mm" /><circle r="2.888000000000002" cx="19.137776290964748mm" cy="38.663344878374716mm" fill="none" stroke="black" stroke-width="0.1mm" /><circle r="2.900000000000002" cx="22.379497889397957mm" cy="28.57555667131792mm" fill="none" stroke="black" stroke-width="0.1mm" /><circle r="2.912000000000002" cx="30.177739934132077mm" cy="21.331249849053744mm" fill="none" stroke="black" stroke-width="0.1mm" /><circle r="2.924000000000002" cx="40.57001657669989mm" cy="18.81766818543608mm" fill="none" stroke="black" stroke-width="0.1mm" /><circle r="2.936000000000002" cx="50.90945288326121mm" cy="21.72337386748027mm" fill="none" stroke="black" stroke-width="0.1mm" /><circle r="2.948000000000002" cx="58.538923289693045mm" cy="29.35045901182233mm" fill="none" stroke="black" stroke-width="0.1mm" /><circle r="2.960000000000002" cx="61.47388810385607mm" cy="39.7814715051348mm" fill="none" stroke="black" stroke-width="0.1mm" /><circle r="2.972000000000002" cx="58.918454805156756mm" cy="50.36132075486713mm" fill="none" stroke="black" stroke-width="0.1mm" /><circle r="2.984000000000002" cx="51.48050416254827mm" cy="58.373084911731915mm" fill="none" stroke="black" stroke-width="0.1mm" /><circle r="2.996000000000002" cx="41.027902599936084mm" cy="61.73570832167758mm" fill="none" stroke="black" stroke-width="0.1mm" /><circle r="3.0080000000000022" cx="30.219588535927564mm" cy="59.54442571664462mm" fill="none" stroke="black" stroke-width="0.1mm" /><circle r="3.0200000000000022" cx="21.829209003565985mm" cy="52.31360445052185mm" fill="none" stroke="black" stroke-width="0.1mm" /><circle r="3.0320000000000022" cx="18.03335061218852mm" cy="41.85697056329941mm" fill="none" stroke="black" stroke-width="0.1mm" /><circle r="3.0440000000000023" cx="19.84701569849954mm" cy="30.832839930301482mm" fill="none" stroke="black" stroke-width="0.1mm" /><circle r="3.0560000000000023" cx="26.852730859489647mm" cy="22.068336966500205mm" fill="none" stroke="black" stroke-width="0.1mm" /><circle r="3.0680000000000023" cx="37.29545888084029mm" cy="17.8343879548799mm" fill="none" stroke="black" stroke-width="0.1mm" /><circle r="3.0800000000000023" cx="48.522072070497515mm" cy="19.257413068152637mm" fill="none" stroke="black" stroke-width="0.1mm" /><circle r="3.0920000000000023" cx="57.65538944598501mm" cy="26.020099302548687mm" fill="none" stroke="black" stroke-width="0.1mm" /><circle r="3.1040000000000023" cx="62.33154344547525mm" cy="36.43063138036286mm" fill="none" stroke="black" stroke-width="0.1mm" /><circle r="3.1160000000000023" cx="61.31170401146963mm" cy="47.84572317428471mm" fill="none" stroke="black" stroke-width="0.1mm" /><circle r="3.1280000000000023" cx="54.809879579648815mm" cy="57.34172689890772mm" fill="none" stroke="black" stroke-width="0.1mm" /><circle r="3.1400000000000023" cx="44.45015485781959mm" cy="62.463439668524124mm" fill="none" stroke="black" stroke-width="0.1mm" /><circle r="3.1520000000000024" cx="32.86124106579929mm" cy="61.85882306711338mm" fill="none" stroke="black" stroke-width="0.1mm" /><circle r="3.1640000000000024" cx="23.009498509572783mm" cy="55.63556711807374mm" fill="none" stroke="black" stroke-width="0.1mm" /><circle r="3.1760000000000024" cx="17.439651831644614mm" cy="45.34555100271077mm" fill="none" stroke="black" stroke-width="0.1mm" /><circle r="3.1880000000000024" cx="17.61754816857616mm" cy="33.59810574798444mm" fill="none" stroke="black" stroke-width="0.1mm" /><circle r="3.2000000000000024" cx="23.544691546732295mm" cy="23.398390177220325mm" fill="none" stroke="black" stroke-width="0.1mm" /><circle r="3.2120000000000024" cx="33.745840356792286mm" cy="17.37862985676442mm" fill="none" stroke="black" stroke-width="0.1mm" /><circle r="3.2240000000000024" cx="45.63591274862025mm" cy="17.118878688098835mm" fill="none" stroke="black" stroke-width="0.1mm" /><circle r="3.2360000000000024" cx="56.17501995035455mm" cy="22.732564475127468mm" fill="none" stroke="black" stroke-width="0.1mm" /><circle r="3.2480000000000024" cx="62.645662823700704mm" cy="32.825463061962964mm" fill="none" stroke="black" stroke-width="0.1mm" /><circle r="3.2600000000000025" cx="63.35338884025715mm" cy="44.84166600208551mm" fill="none" stroke="black" stroke-width="0.1mm" /><circle r="3.2720000000000025" cx="58.07027010869324mm" cy="55.71077220250061mm" fill="none" stroke="black" stroke-width="0.1mm" /><circle r="3.2840000000000025" cx="48.10519486837963mm" cy="62.63244167441043mm" fill="none" stroke="black" stroke-width="0.1mm" /><circle r="3.2960000000000025" cx="35.97992734609825mm" cy="63.79784109656481mm" fill="none" stroke="black" stroke-width="0.1mm" /><circle r="3.3080000000000025" cx="24.79102012114065mm" cy="58.862126896096555mm" fill="none" stroke="black" stroke-width="0.1mm" /><circle r="3.3200000000000025" cx="17.419017494696163mm" cy="49.0446035897191mm" fill="none" stroke="black" stroke-width="0.1mm" /><circle r="3.3320000000000025" cx="15.786902897387364mm" cy="36.82788261575188mm" fill="none" stroke="black" stroke-width="0.1mm" /><circle r="3.3440000000000025" cx="20.35868338954986mm" cy="25.330170184761762mm" fill="none" stroke="black" stroke-width="0.1mm" /><circle r="3.3560000000000025" cx="30.008806120740342mm" cy="17.509376512265348mm" fill="none" stroke="black" stroke-width="0.1mm" /><circle r="3.3680000000000025" cx="42.298849757372096mm" cy="15.402188821095738mm" fill="none" stroke="black" stroke-width="0.1mm" /><circle r="3.3800000000000026" cx="54.093582818253346mm" cy="19.593850844781336mm" fill="none" stroke="black" stroke-width="0.1mm" /><circle r="3.3920000000000026" cx="62.360767071411544mm" cy="29.056640324924246mm" fill="none" stroke="black" stroke-width="0.1mm" /><circle r="3.4040000000000026" cx="64.95067585978339mm" cy="41.401382938393155mm" fill="none" stroke="black" stroke-width="0.1mm" /><circle r="3.4160000000000026" cx="61.154936788254005mm" cy="53.48057396719347mm" fill="none" stroke="black" stroke-width="0.1mm" /><circle r="3.4280000000000026" cx="51.89946070297768mm" cy="62.190881798123456mm" fill="none" stroke="black" stroke-width="0.1mm" /><circle r="3.4400000000000026" cx="39.51910771692493mm" cy="65.27042476121198mm" fill="none" stroke="black" stroke-width="0.1mm" /><circle r="3.4520000000000026" cx="27.168787218217126mm" cy="61.8859973167459mm" fill="none" stroke="black" stroke-width="0.1mm" /><circle r="3.4640000000000026" cx="18.019495991607418mm" cy="52.857825186906mm" fill="none" stroke="black" stroke-width="0.1mm" /><circle r="3.4760000000000026" cx="14.44416460421209mm" cy="40.461386197659444mm" fill="none" stroke="black" stroke-width="0.1mm" /><circle r="3.4880000000000027" cx="17.402342692761746mm" cy="27.854016745252032mm" fill="none" stroke="black" stroke-width="0.1mm" /><circle r="3.5000000000000027" cx="26.183247361497344mm" cy="18.270760562632976mm" fill="none" stroke="black" stroke-width="0.1mm" /><circle r="3.5120000000000027" cx="38.575842503528584mm" cy="14.194268070344513mm" fill="none" stroke="black" stroke-width="0.1mm" /><circle r="3.5240000000000027" cx="51.425443748324604mm" cy="16.71174469493546mm" fill="none" stroke="black" stroke-width="0.1mm" /><circle r="3.5360000000000027" cx="61.43676469644146mm" cy="25.2254832786518mm" fill="none" stroke="black" stroke-width="0.1mm" /><circle r="3.5480000000000027" cx="66.01898787603932mm" cy="37.5939306106192mm" fill="none" stroke="black" stroke-width="0.1mm" /><circle r="3.5600000000000027" cx="63.956145057512984mm" cy="50.670226754075685mm" fill="none" stroke="black" stroke-width="0.1mm" /><circle r="3.5720000000000027" cx="55.72936818520398mm" cy="61.102828637277256mm" fill="none" stroke="black" stroke-width="0.1mm" /><circle r="3.5840000000000027" cx="43.40571433412818mm" cy="66.1945287202177mm" fill="none" stroke="black" stroke-width="0.1mm" /><circle r="3.5960000000000027" cx="30.118961484375674mm" cy="64.59969873499968mm" fill="none" stroke="black" stroke-width="0.1mm" /><circle r="3.6080000000000028" cx="19.272746404917076mm" cy="56.67953786545412mm" fill="none" stroke="black" stroke-width="0.1mm" /><circle r="3.6200000000000028" cx="13.668665529152609mm" cy="44.42163148445908mm" fill="none" stroke="black" stroke-width="0.1mm" /><circle r="3.632000000000003" cx="14.782689855495796mm" cy="30.94134148585558mm" fill="none" stroke="black" stroke-width="0.1mm" /><circle r="3.644000000000003" cx="22.37676025719366mm" cy="19.690063491788884mm" fill="none" stroke="black" stroke-width="0.1mm" /><circle r="3.656000000000003" cx="34.54769118254722mm" cy="13.571557867344463mm" fill="none" stroke="black" stroke-width="0.1mm" /><circle r="3.668000000000003" cx="48.20393881668852mm" cy="14.19260207049097mm" fill="none" stroke="black" stroke-width="0.1mm" /><circle r="3.680000000000003" cx="59.85084991132962mm" cy="21.44132594181739mm" fill="none" stroke="black" stroke-width="0.1mm" /><circle r="3.692000000000003" cx="66.48494809562789mm" cy="33.50381462919259mm" fill="none" stroke="black" stroke-width="0.1mm" /><circle r="3.704000000000003" cx="66.36840875067998mm" cy="47.31780328767171mm" fill="none" stroke="black" stroke-width="0.1mm" /><circle r="3.716000000000003" cx="59.484030477610716mm" cy="59.3500427996305mm" fill="none" stroke="black" stroke-width="0.1mm" /><circle r="3.728000000000003" cx="47.55165358678759mm" cy="66.50001043594423mm" fill="none" stroke="black" stroke-width="0.1mm" /><circle r="3.740000000000003" cx="33.598753335930994mm" cy="66.89882044153127mm" fill="none" stroke="black" stroke-width="0.1mm" /><circle r="3.752000000000003" cx="21.192358638246933mm" cy="60.39749130181627mm" fill="none" stroke="black" stroke-width="0.1mm" /><circle r="3.764000000000003" cx="13.527148875957558mm" cy="48.61706175934mm" fill="none" stroke="black" stroke-width="0.1mm" /><circle r="3.776000000000003" cx="12.60285486666573mm" cy="34.5446665048768mm" fill="none" stroke="black" stroke-width="0.1mm" /><circle r="3.788000000000003" cx="18.702765284888084mm" cy="21.776150420687mm" fill="none" stroke="black" stroke-width="0.1mm" /><circle r="3.800000000000003" cx="30.30928341931316mm" cy="13.597241864668838mm" fill="none" stroke="black" stroke-width="0.1mm" /><circle r="3.812000000000003" cx="44.48119694759815mm" cy="12.138067656445081mm" fill="none" stroke="black" stroke-width="0.1mm" /><circle r="3.824000000000003" cx="57.59894969115068mm" cy="17.81856193191384mm" fill="none" stroke="black" stroke-width="0.1mm" /><circle r="3.836000000000003" cx="66.28908745921834mm" cy="29.22911421648322mm" fill="none" stroke="black" stroke-width="0.1mm" /><circle r="3.848000000000003" cx="68.29177202214007mm" cy="43.48003747785088mm" fill="none" stroke="black" stroke-width="0.1mm" /><circle r="3.860000000000003" cx="63.04828118850925mm" cy="56.9333025206368mm" fill="none" stroke="black" stroke-width="0.1mm" /><circle r="3.872000000000003" cx="51.85580087470908mm" cy="66.13126500227727mm" fill="none" stroke="black" stroke-width="0.1mm" /><circle r="3.884000000000003" cx="37.546878627768294mm" cy="68.68529755001845mm" fill="none" stroke="black" stroke-width="0.1mm" /><circle r="3.896000000000003" cx="23.77265233539804mm" cy="63.89594971479751mm" fill="none" stroke="black" stroke-width="0.1mm" /><circle r="3.908000000000003" cx="14.07121161846512mm" cy="52.94365995634835mm" fill="none" stroke="black" stroke-width="0.1mm" /><circle r="3.920000000000003" cx="10.958811315763388mm" cy="38.598220842443034mm" fill="none" stroke="black" stroke-width="0.1mm" /><circle r="3.932000000000003" cx="15.277361553689332mm" cy="24.51839645731117mm" fill="none" stroke="black" stroke-width="0.1mm" /><circle r="3.944000000000003" cx="25.967369370384148mm" cy="14.318771395963925mm" fill="none" stroke="black" stroke-width="0.1mm" /><circle r="3.956000000000003" cx="40.32740388363154mm" cy="10.641825555784695mm" fill="none" stroke="black" stroke-width="0.1mm" /><circle r="3.968000000000003" cx="54.69666730616035mm" cy="14.473445295300213mm" fill="none" stroke="black" stroke-width="0.1mm" /><circle r="3.980000000000003" cx="65.38823162901636mm" cy="24.879147023021275mm" fill="none" stroke="black" stroke-width="0.1mm" /><circle r="3.992000000000003" cx="69.6350359336854mm" cy="39.23144928002862mm" fill="none" stroke="black" stroke-width="0.1mm" /><circle r="4.004000000000003" cx="66.3059217004753mm" cy="53.87321460543503mm" fill="none" stroke="black" stroke-width="0.1mm" /><circle r="4.016000000000003" cx="56.20644261794057mm" cy="65.0495198091978mm" fill="none" stroke="black" stroke-width="0.1mm" /><circle r="4.028000000000002" cx="41.884572210437895mm" cy="69.87060909294684mm" fill="none" stroke="black" stroke-width="0.1mm" /><circle r="4.040000000000002" cx="26.988000784140148mm" cy="67.05898189892693mm" fill="none" stroke="black" stroke-width="0.1mm" /><circle r="4.052000000000001" cx="15.335106792085242mm" cy="57.28749383346681mm" fill="none" stroke="black" stroke-width="0.1mm" /><circle r="4.064000000000001" cx="9.936212623813269mm" cy="43.01909151888909mm" fill="none" stroke="black" stroke-width="0.1mm" /><circle r="4.0760000000000005" cx="12.215999620501016mm" cy="27.8861474785272mm" fill="none" stroke="black" stroke-width="0.1mm" /><circle r="4.088" cx="21.63791724594428mm" cy="15.765769211027102mm" fill="none" stroke="black" stroke-width="0.1mm" /><circle r="4.1" cx="35.82951484467563mm" cy="9.786475651304574mm" fill="none" stroke="black" stroke-width="0.1mm" /><circle r="4.111999999999999" cx="51.17968285674987mm" cy="11.520731817294088mm" fill="none" stroke="black" stroke-width="0.1mm" /><circle r="4.123999999999999" cx="63.75749147634754mm" cy="20.571729393709123mm" fill="none" stroke="black" stroke-width="0.1mm" /><circle r="4.135999999999998" cx="70.31883619893078mm" cy="34.66292247176449mm" fill="none" stroke="black" stroke-width="0.1mm" /><circle r="4.147999999999998" cx="69.14310563866488mm" cy="50.21047470657517mm" fill="none" stroke="black" stroke-width="0.1mm" /><circle r="4.1599999999999975" cx="60.48410701258506mm" cy="63.234715081036725mm" fill="none" stroke="black" stroke-width="0.1mm" /><circle r="4.171999999999997" cx="46.517143375581874mm" cy="70.37880416050146mm" fill="none" stroke="black" stroke-width="0.1mm" /><circle r="4.183999999999997" cx="30.79271223508298mm" cy="69.77386567132325mm" fill="none" stroke="black" stroke-width="0.1mm" /><circle r="4.195999999999996" cx="17.33397690740194mm" cy="61.52763333870686mm" fill="none" stroke="black" stroke-width="0.1mm" /><circle r="4.207999999999996" cx="9.607423160730622mm" cy="47.708910303609606mm" fill="none" stroke="black" stroke-width="0.1mm" /><circle r="4.219999999999995" cx="9.63006292752943mm" cy="31.828744147062267mm" fill="none" stroke="black" stroke-width="0.1mm" /><circle r="4.231999999999995" cx="17.44311391642792mm" cy="17.948380666882002mm" fill="none" stroke="black" stroke-width="0.1mm" /><circle r="4.243999999999994" cx="31.08943857020502mm" cy="9.640627559090728mm" fill="none" stroke="black" stroke-width="0.1mm" /><circle r="4.255999999999994" cx="47.10358569750892mm" cy="9.070252260353985mm" fill="none" stroke="black" stroke-width="0.1mm" /><circle r="4.267999999999994" cx="61.39179047158565mm" cy="16.43009969431843mm" fill="none" stroke="black" stroke-width="0.1mm" /><circle r="4.279999999999993" cx="70.27848089441mm" cy="29.879761874005162mm" fill="none" stroke="black" stroke-width="0.1mm" /><circle r="4.291999999999993" cx="71.4517678720838mm" cy="46.00555557134791mm" fill="none" stroke="black" stroke-width="0.1mm" /><circle r="4.303999999999992" cx="64.56471308049522mm" cy="60.68690639687186mm" fill="none" stroke="black" stroke-width="0.1mm" /><circle r="4.315999999999992" cx="51.33604285769562mm" cy="70.14926586715634mm" fill="none" stroke="black" stroke-width="0.1mm" /><circle r="4.327999999999991" cx="35.12148620376628mm" cy="71.93451311888046mm" fill="none" stroke="black" stroke-width="0.1mm" /><circle r="4.339999999999991" cx="20.062579552253947mm" cy="65.53936698294984mm" fill="none" stroke="black" stroke-width="0.1mm" /><circle r="4.3519999999999905" cx="10.028833332606958mm" cy="52.5560421150671mm" fill="none" stroke="black" stroke-width="0.1mm" /><circle r="4.36399999999999" cx="7.623452326380658mm" cy="36.27612288899803mm" fill="none" stroke="black" stroke-width="0.1mm" /><circle r="4.37599999999999" cx="13.508086410744543mm" cy="20.856130501400393mm" fill="none" stroke="black" stroke-width="0.1mm" /><circle r="4.387999999999989" cx="26.22173056865164mm" cy="10.256299969957308mm" fill="none" stroke="black" stroke-width="0.1mm" /><circle r="4.399999999999989" cx="42.54312890625785mm" cy="7.223512690250864mm" fill="none" stroke="black" stroke-width="0.1mm" /><circle r="4.411999999999988" cx="58.3068738997831mm" cy="12.57958300795864mm" fill="none" stroke="black" stroke-width="0.1mm" /><circle r="4.423999999999988" cx="69.46646178202734mm" cy="24.999271516079226mm" fill="none" stroke="black" stroke-width="0.1mm" /><circle r="4.4359999999999875" cx="73.133002351084mm" cy="41.337817327983124mm" fill="none" stroke="black" stroke-width="0.1mm" /><circle r="4.447999999999987" cx="68.32295732286929mm" cy="57.427137271706876mm" fill="none" stroke="black" stroke-width="0.1mm" /><circle r="4.459999999999987" cx="56.221396273258534mm" cy="69.13912838342807mm" fill="none" stroke="black" stroke-width="0.1mm" /><circle r="4.471999999999986" cx="39.89044674755208mm" cy="73.44482057187432mm" fill="none" stroke="black" stroke-width="0.1mm" /><circle r="4.483999999999986" cx="23.494553847901305mm" cy="69.1976342760875mm" fill="none" stroke="black" stroke-width="0.1mm" /><circle r="4.495999999999985" cx="11.238541658990748mm" cy="57.43822637478877mm" fill="none" stroke="black" stroke-width="0.1mm" /><circle r="4.507999999999985" cx="6.2892699790129mm" cy="41.139991864930764mm" fill="none" stroke="black" stroke-width="0.1mm" /><circle r="4.5199999999999845" cx="9.95742937203471mm" cy="24.457330503941527mm" fill="none" stroke="black" stroke-width="0.1mm" /><circle r="4.531999999999984" cx="21.35084774145609mm" cy="11.666706509167781mm" fill="none" stroke="black" stroke-width="0.1mm" /><circle r="4.543999999999984" cx="37.590911736086454mm" cy="6.070418235164425mm" fill="none" stroke="black" stroke-width="0.1mm" /><circle r="4.555999999999983" cx="54.539758028798225mm" cy="9.144084254976544mm" fill="none" stroke="black" stroke-width="0.1mm" /><circle r="4.567999999999983" cx="67.8545601468886mm" cy="20.14790932865373mm" fill="none" stroke="black" stroke-width="0.1mm" /><circle r="4.579999999999982" cx="74.10029254380675mm" cy="36.30404972614795mm" fill="none" stroke="black" stroke-width="0.1mm" /><circle r="4.591999999999982" cx="71.63584907546264mm" cy="53.497743451204656mm" fill="none" stroke="black" stroke-width="0.1mm" /><circle r="4.603999999999981" cx="61.04494507613139mm" cy="67.32527011289369mm" fill="none" stroke="black" stroke-width="0.1mm" /><circle r="4.615999999999981" cx="44.99873882487665mm" cy="74.22184733705443mm" fill="none" stroke="black" stroke-width="0.1mm" /><circle r="4.627999999999981" cx="27.582262501388207mm" cy="72.38058361758723mm" fill="none" stroke="black" stroke-width="0.1mm" /><circle r="4.63999999999998" cx="13.254478445402526mm" cy="62.225609142890775mm" fill="none" stroke="black" stroke-width="0.1mm" /><circle r="4.65199999999998" cx="5.706698169346637mm" cy="46.315564072329124mm" fill="none" stroke="black" stroke-width="0.1mm" /><circle r="4.663999999999979" cx="6.911630640870712mm" cy="28.69906914657816mm" fill="none" stroke="black" stroke-width="0.1mm" /><circle r="4.675999999999979" cx="16.60802971440188mm" cy="13.884500269807543mm" fill="none" stroke="black" stroke-width="0.1mm" /><circle r="4.687999999999978" cx="32.3555118693002mm" cy="5.686215215753634mm" fill="none" stroke="black" stroke-width="0.1mm" /><circle r="4.699999999999978" cx="50.14859191246278mm" cy="6.2425033186066585mm" fill="none" stroke="black" stroke-width="0.1mm" /><g transform="translate(135,285) scale(0.4)" fill="black" stroke="none">
<path
         d="m 6.909225,12.189723 h 3.199798 l 3.274213,9.11157 3.265944,-9.11157 h 3.199798 l -4.572322,12.344441 h -3.795109 z"
         style="font-size:16.9333px;stroke-width:0.265"
         id="path428" />
      <path
         d="M 27.827804,22.285211 H 22.85034 l -0.78548,2.248953 h -3.199799 l 4.572322,-12.344441 h 3.79511 l 4.572321,12.344441 h -3.199798 z m -4.183716,-2.290295 h 3.381699 l -1.686715,-4.911319 z"
         style="font-size:16.9333px;stroke-width:0.265"
         id="path430" />
      <path
         d="m 37.964634,17.66328 q 1.000454,0 1.430401,-0.37207 0.438215,-0.37207 0.438215,-1.223696 0,-0.843357 -0.438215,-1.207159 -0.429947,-0.363801 -1.430401,-0.363801 h -1.33945 v 3.166726 z m -1.33945,2.199344 v 4.67154 H 33.441922 V 12.189723 h 4.861709 q 2.439123,0 3.571868,0.818553 1.141013,0.818553 1.141013,2.58795 0,1.223696 -0.595311,2.009176 -0.587043,0.78548 -1.777666,1.15755 0.653189,0.148828 1.165818,0.677993 0.520898,0.520898 1.050063,1.587497 l 1.728057,3.505722 h -3.389967 l -1.504815,-3.067507 q -0.454752,-0.926039 -0.92604,-1.265036 -0.46302,-0.338997 -1.240232,-0.338997 z"
         style="font-size:16.9333px;stroke-width:0.265"
         id="path432" />
      <path
         d="m 46.480893,12.189723 h 3.183262 v 12.344441 h -3.183262 z"
         style="font-size:16.9333px;stroke-width:0.265"
         id="path434" />
      <path
         d="m 62.570834,23.856171 q -0.876431,0.454752 -1.827275,0.686262 -0.950845,0.23151 -1.984371,0.23151 -3.084044,0 -4.886514,-1.719789 -1.802471,-1.728056 -1.802471,-4.679808 0,-2.96002 1.802471,-4.679809 1.80247,-1.728056 4.886514,-1.728056 1.033526,0 1.984371,0.23151 0.950844,0.23151 1.827275,0.686261 v 2.554878 q -0.884699,-0.603579 -1.744593,-0.884699 -0.859894,-0.281119 -1.810739,-0.281119 -1.703252,0 -2.678901,1.091404 -0.975649,1.091404 -0.975649,3.00963 0,1.909957 0.975649,3.001361 0.975649,1.091404 2.678901,1.091404 0.950845,0 1.810739,-0.281119 0.859894,-0.281119 1.744593,-0.884699 z"
         style="font-size:16.9333px;stroke-width:0.265"
         id="path436" />
      <path
         d="m 65.208394,12.189723 h 3.183262 v 12.344441 h -3.183262 z"
         style="font-size:16.9333px;stroke-width:0.265"
         id="path438" />
      <path
         d="m 70.037033,12.189723 h 11.377061 v 2.40605 h -4.092766 v 9.938391 h -3.183262 v -9.938391 h -4.101033 z"
         style="font-size:16.9333px;stroke-width:0.265"
         id="path440" />
      <path
         d="m 83.059464,12.189723 h 8.590673 v 2.40605 h -5.407411 v 2.298563 h 5.084951 v 2.40605 h -5.084951 v 2.827728 h 5.589312 v 2.40605 h -8.772574 z"
         style="font-size:16.9333px;stroke-width:0.265"
         id="path442" />
         </g>
</svg>