<svg width="80mm" height="80mm" fill="none" stroke="black"><circle r="40mm" cx="40mm" cy="40mm" stroke-width="0.1mm" /><circle r="0.5" cx="39.167706326905716mm" cy="41.81859485365136mm" fill="none" stroke="black" stroke-width="0.1mm" /><circle r="0.51" cx="38.35835393653731mm" cy="41.30154646567745mm" fill="none" stroke="black" stroke-width="0.1mm" /><circle r="0.52" cx="37.85326992242682mm" cy="40.43318584238482mm" fill="none" stroke="black" stroke-width="0.1mm" /><circle r="0.53" cx="37.79908303158209mm" cy="39.38584244844655mm" fill="none" stroke="black" stroke-width="0.1mm" /><circle r="0.54" cx="38.247851619844795mm" cy="38.38929330605492mm" fill="none" stroke="black" stroke-width="0.1mm" /><circle r="0.55" cx="39.136942436833046mm" cy="37.68035419887856mm" fill="none" stroke="black" stroke-width="0.1mm" /><circle r="0.56" cx="40.29501236320429mm" cy="37.44698850265875mm" fill="none" stroke="black" stroke-width="0.1mm" /><circle r="0.5700000000000001" cx="41.47446144517132mm" cy="37.78004764765023mm" fill="none" stroke="black" stroke-width="0.1mm" /><circle r="0.5800000000000001" cx="42.40435048578709mm" cy="38.64475140970544mm" fill="none" stroke="black" stroke-width="0.1mm" /><circle r="0.5900000000000001" cx="42.85247803580266mm" cy="39.88002477229286mm" fill="none" stroke="black" stroke-width="0.1mm" /><circle r="0.6000000000000001" cx="42.68242740913576mm" cy="41.22763316781407mm" fill="none" stroke="black" stroke-width="0.1mm" /><circle r="0.6100000000000001" cx="41.891746533645744mm" cy="42.38606790608301mm" fill="none" stroke="black" stroke-width="0.1mm" /><circle r="0.6200000000000001" cx="40.62109750917276mm" cy="43.07796001989945mm" fill="none" stroke="black" stroke-width="0.1mm" /><circle r="0.6300000000000001" cx="39.130503422636586mm" cy="43.115959034062115mm" fill="none" stroke="black" stroke-width="0.1mm" /><circle r="0.6400000000000001" cx="37.74636416351382mm" cy="42.45153533862052mm" fill="none" stroke="black" stroke-width="0.1mm" /><circle r="0.6500000000000001" cx="36.789985103498616mm" cy="41.19433218337247mm" fill="none" stroke="black" stroke-width="0.1mm" /><circle r="0.6600000000000001" cx="36.503268299361395mm" cy="39.59593637413265mm" fill="none" stroke="black" stroke-width="0.1mm" /><circle r="0.6700000000000002" cx="36.98869502673754mm" cy="37.999933161615644mm" fill="none" stroke="black" stroke-width="0.1mm" /><circle r="0.6800000000000002" cx="38.178270916669256mm" cy="36.768065107873156mm" fill="none" stroke="black" stroke-width="0.1mm" /><circle r="0.6900000000000002" cx="39.84010306780185mm" cy="36.19836114667981mm" fill="none" stroke="black" stroke-width="0.1mm" /><circle r="0.7000000000000002" cx="41.62297266253383mm" cy="36.45374003537982mm" fill="none" stroke="black" stroke-width="0.1mm" /><circle r="0.7100000000000002" cx="43.1304897487033mm" cy="37.51805339838594mm" fill="none" stroke="black" stroke-width="0.1mm" /><circle r="0.7200000000000002" cx="44.009189962225705mm" cy="39.19099082403926mm" fill="none" stroke="black" stroke-width="0.1mm" /><circle r="0.7300000000000002" cx="44.03100109970634mm" cy="41.124835603173345mm" fill="none" stroke="black" stroke-width="0.1mm" /><circle r="0.7400000000000002" cx="43.15092229708586mm" cy="42.896564979027254mm" fill="none" stroke="black" stroke-width="0.1mm" /><circle r="0.7500000000000002" cx="41.52560680357801mm" cy="44.100383991881316mm" fill="none" stroke="black" stroke-width="0.1mm" /><circle r="0.7600000000000002" cx="39.486885111469626mm" cy="44.44045190393596mm" fill="none" stroke="black" stroke-width="0.1mm" /><circle r="0.7700000000000002" cx="37.474327768402645mm" cy="43.802657594175166mm" fill="none" stroke="black" stroke-width="0.1mm" /><circle r="0.7800000000000002" cx="35.940480701533424mm" cy="42.28820957636695mm" fill="none" stroke="black" stroke-width="0.1mm" /><circle r="0.7900000000000003" cx="35.24920032916229mm" cy="40.19981863668919mm" fill="none" stroke="black" stroke-width="0.1mm" /><circle r="0.8000000000000003" cx="35.58990747989541mm" cy="37.98168784274643mm" fill="none" stroke="black" stroke-width="0.1mm" /><circle r="0.8100000000000003" cx="36.927853330417605mm" cy="36.125088408676426mm" fill="none" stroke="black" stroke-width="0.1mm" /><circle r="0.8200000000000003" cx="39.00307915725127mm" cy="35.05958009544804mm" fill="none" stroke="black" stroke-width="0.1mm" /><circle r="0.8300000000000003" cx="41.380174628983255mm" cy="35.05395683464944mm" fill="none" stroke="black" stroke-width="0.1mm" /><circle r="0.8400000000000003" cx="43.53949412156832mm" cy="36.14969074444878mm" fill="none" stroke="black" stroke-width="0.1mm" /><circle r="0.8500000000000003" cx="44.99075308726124mm" cy="38.143118576216445mm" fill="none" stroke="black" stroke-width="0.1mm" /><circle r="0.8600000000000003" cx="45.38417210723331mm" cy="40.622166151193376mm" fill="none" stroke="black" stroke-width="0.1mm" /><circle r="0.8700000000000003" cx="44.59401021508788mm" cy="43.051277624810346mm" fill="none" stroke="black" stroke-width="0.1mm" /><circle r="0.8800000000000003" cx="42.75469006940318mm" cy="44.88710370480631mm" fill="none" stroke="black" stroke-width="0.1mm" /><circle r="0.8900000000000003" cx="40.239740341180244mm" cy="45.69996048835523mm" fill="none" stroke="black" stroke-width="0.1mm" /><circle r="0.9000000000000004" cx="37.58634834802671mm" cy="45.27392507558901mm" fill="none" stroke="black" stroke-width="0.1mm" /><circle r="0.9100000000000004" cx="35.380666566056156mm" cy="43.66234673755074mm" fill="none" stroke="black" stroke-width="0.1mm" /><circle r="0.9200000000000004" cx="34.128350153121794mm" cy="41.18483250953673mm" fill="none" stroke="black" stroke-width="0.1mm" /><circle r="0.9300000000000004" cx="34.13891476900522mm" cy="38.36448634520685mm" fill="none" stroke="black" stroke-width="0.1mm" /><circle r="0.9400000000000004" cx="35.45030378598342mm" cy="35.81757673589064mm" fill="none" stroke="black" stroke-width="0.1mm" /><circle r="0.9500000000000004" cx="37.811843956010875mm" cy="34.11887781735885mm" fill="none" stroke="black" stroke-width="0.1mm" /><circle r="0.9600000000000004" cx="40.73121741385636mm" cy="33.67210768946933mm" fill="none" stroke="black" stroke-width="0.1mm" /><circle r="0.9700000000000004" cx="43.57688301802332mm" cy="34.614637163999404mm" fill="none" stroke="black" stroke-width="0.1mm" /><circle r="0.9800000000000004" cx="45.71468811114602mm" cy="36.77882943756058mm" fill="none" stroke="black" stroke-width="0.1mm" /><circle r="0.9900000000000004" cx="46.64912130587275mm" cy="39.720337954328684mm" fill="none" stroke="black" stroke-width="0.1mm" /><circle r="1.0000000000000004" cx="46.13775763107345mm" cy="42.808991146692996mm" fill="none" stroke="black" stroke-width="0.1mm" /><circle r="1.0100000000000005" cx="44.2525468055191mm" cy="45.3637552765641mm" fill="none" stroke="black" stroke-width="0.1mm" /><circle r="1.0200000000000005" cx="41.37274417632476mm" cy="46.802879789204454mm" fill="none" stroke="black" stroke-width="0.1mm" /><circle r="1.0300000000000005" cx="38.10914731939697mm" cy="46.77612729663901mm" fill="none" stroke="black" stroke-width="0.1mm" /><circle r="1.0400000000000005" cx="35.174647593349604mm" cy="45.24908317248195mm" fill="none" stroke="black" stroke-width="0.1mm" /><circle r="1.0500000000000005" cx="33.22850872197894mm" cy="42.519430664194715mm" fill="none" stroke="black" stroke-width="0.1mm" /><circle r="1.0600000000000005" cx="32.72838748617197mm" cy="39.15973132348066mm" fill="none" stroke="black" stroke-width="0.1mm" /><circle r="1.0700000000000005" cx="33.82328454308668mm" cy="35.89751158876372mm" fill="none" stroke="black" stroke-width="0.1mm" /><circle r="1.0800000000000005" cx="36.312348944524324mm" cy="33.45772748251427mm" fill="none" stroke="black" stroke-width="0.1mm" /><circle r="1.0900000000000005" cx="39.68041624983759mm" cy="32.40171787660974mm" fill="none" stroke="black" stroke-width="0.1mm" /><circle r="1.1000000000000005" cx="43.20433064141269mm" cy="32.998409813442116mm" fill="none" stroke="black" stroke-width="0.1mm" /><circle r="1.1100000000000005" cx="46.10817711918435mm" cy="35.15725312651252mm" fill="none" stroke="black" stroke-width="0.1mm" /><circle r="1.1200000000000006" cx="47.734109731530694mm" cy="38.4393441568872mm" fill="none" stroke="black" stroke-width="0.1mm" /><circle r="1.1300000000000006" cx="47.69116936228324mm" cy="42.14619170641289mm" fill="none" stroke="black" stroke-width="0.1mm" /><circle r="1.1400000000000006" cx="45.948470130947314mm" cy="45.46828154919144mm" fill="none" stroke="black" stroke-width="0.1mm" /><circle r="1.1500000000000006" cx="42.85070528440026mm" cy="47.66186037340099mm" fill="none" stroke="black" stroke-width="0.1mm" /><circle r="1.1600000000000006" cx="39.05068006081762mm" cy="48.21533271712538mm" fill="none" stroke="black" stroke-width="0.1mm" /><circle r="1.1700000000000006" cx="35.37190619555068mm" cy="46.968068077826mm" fill="none" stroke="black" stroke-width="0.1mm" /><circle r="1.1800000000000006" cx="32.63014307617449mm" cy="44.15413154851181mm" fill="none" stroke="black" stroke-width="0.1mm" /><circle r="1.1900000000000006" cx="31.452557059092207mm" cy="40.35950545465334mm" fill="none" stroke="black" stroke-width="0.1mm" /><circle r="1.2000000000000006" cx="32.13457725795775mm" cy="36.40032986386744mm" fill="none" stroke="black" stroke-width="0.1mm" /><circle r="1.2100000000000006" cx="34.567053058544325mm" cy="33.147401038195255mm" fill="none" stroke="black" stroke-width="0.1mm" /><circle r="1.2200000000000006" cx="38.25143249009942mm" cy="31.334660326143002mm" fill="none" stroke="black" stroke-width="0.1mm" /><circle r="1.2300000000000006" cx="42.40153073222305mm" cy="31.393788572072594mm" fill="none" stroke="black" stroke-width="0.1mm" /><circle r="1.2400000000000007" cx="46.111210691732694mm" cy="33.3521429105875mm" fill="none" stroke="black" stroke-width="0.1mm" /><circle r="1.2500000000000007" cx="48.55222946878101mm" cy="36.818020095394424mm" fill="none" stroke="black" stroke-width="0.1mm" /><circle r="1.2600000000000007" cx="49.15905292042271mm" cy="41.05837120184565mm" fill="none" stroke="black" stroke-width="0.1mm" /><circle r="1.2700000000000007" cx="47.759420698738566mm" cy="45.15369919766255mm" fill="none" stroke="black" stroke-width="0.1mm" /><circle r="1.2800000000000007" cx="44.6206120415478mm" cy="48.197441330165375mm" fill="none" stroke="black" stroke-width="0.1mm" /><circle r="1.2900000000000007" cx="40.3994271591441mm" cy="49.49660375842534mm" fill="none" stroke="black" stroke-width="0.1mm" /><circle r="1.3000000000000007" cx="36.00499036914744mm" cy="48.72925529752656mm" fill="none" stroke="black" stroke-width="0.1mm" /><circle r="1.3100000000000007" cx="32.402979195574794mm" cy="46.02314700942379mm" fill="none" stroke="black" stroke-width="0.1mm" /><circle r="1.3200000000000007" cx="30.403430383816684mm" cy="41.93647917668829mm" fill="none" stroke="black" stroke-width="0.1mm" /><circle r="1.3300000000000007" cx="30.47874650642845mm" cy="37.34313024196675mm" fill="none" stroke="black" stroke-width="0.1mm" /><circle r="1.3400000000000007" cx="32.65275595212235mm" cy="33.245860165726015mm" fill="none" stroke="black" stroke-width="0.1mm" /><circle r="1.3500000000000008" cx="36.48674547518916mm" cy="30.557401435838948mm" fill="none" stroke="black" stroke-width="0.1mm" /><circle r="1.3600000000000008" cx="41.167422464508974mm" cy="29.89722687627996mm" fill="none" stroke="black" stroke-width="0.1mm" /><circle r="1.3700000000000008" cx="45.679304590875816mm" cy="31.4492266803489mm" fill="none" stroke="black" stroke-width="0.1mm" /><circle r="1.3800000000000008" cx="49.02502573650528mm" cy="34.91290746541626mm" fill="none" stroke="black" stroke-width="0.1mm" /><circle r="1.3900000000000008" cx="50.445764575942874mm" cy="39.56065113636518mm" fill="none" stroke="black" stroke-width="0.1mm" /><circle r="1.4000000000000008" cx="49.59308785301084mm" cy="44.3903491255726mm" fill="none" stroke="black" stroke-width="0.1mm" /><circle r="1.4100000000000008" cx="46.613347077391865mm" cy="48.341442647045696mm" fill="none" stroke="black" stroke-width="0.1mm" /><circle r="1.4200000000000008" cx="42.12439084347594mm" cy="50.52779955850964mm" fill="none" stroke="black" stroke-width="0.1mm" /><circle r="1.4300000000000008" cx="37.087791216156496mm" cy="50.43629555921569mm" fill="none" stroke="black" stroke-width="0.1mm" /><circle r="1.4400000000000008" cx="32.60293102318469mm" cy="48.046631006342764mm" fill="none" stroke="black" stroke-width="0.1mm" /><circle r="1.4500000000000008" cx="29.667032340458892mm" cy="43.844529145016054mm" fill="none" stroke="black" stroke-width="0.1mm" /><circle r="1.4600000000000009" cx="28.95350667298264mm" cy="38.72352627282765mm" fill="none" stroke="black" stroke-width="0.1mm" /><circle r="1.4700000000000009" cx="30.657874059436388mm" cy="33.79509001591088mm" fill="none" stroke="black" stroke-width="0.1mm" /><circle r="1.4800000000000009" cx="34.446426972380365mm" cy="30.147389857154803mm" fill="none" stroke="black" stroke-width="0.1mm" /><circle r="1.4900000000000009" cx="39.520729431874514mm" cy="28.60507460653958mm" fill="none" stroke="black" stroke-width="0.1mm" /><circle r="1.5000000000000009" cx="44.78568862029268mm" cy="29.543079591504892mm" fill="none" stroke="black" stroke-width="0.1mm" /><circle r="1.510000000000001" cx="49.08586448966622mm" cy="32.7964528546401mm" fill="none" stroke="black" stroke-width="0.1mm" /><circle r="1.520000000000001" cx="51.45902950083598mm" cy="37.68769748973645mm" fill="none" stroke="black" stroke-width="0.1mm" /><circle r="1.530000000000001" cx="51.35133762485981mm" cy="43.167547809653804mm" fill="none" stroke="black" stroke-width="0.1mm" /><circle r="1.540000000000001" cx="48.74601796480785mm" cy="48.039998119356675mm" fill="none" stroke="black" stroke-width="0.1mm" /><circle r="1.550000000000001" cx="44.175803765221225mm" cy="51.223336754921185mm" fill="none" stroke="black" stroke-width="0.1mm" /><circle r="1.560000000000001" cx="38.61447501016423mm" cy="51.990213530314676mm" fill="none" stroke="black" stroke-width="0.1mm" /><circle r="1.570000000000001" cx="33.26948462269753mm" cy="50.133478561476096mm" fill="none" stroke="black" stroke-width="0.1mm" /><circle r="1.580000000000001" cx="29.319805450814854mm" cy="46.02005352065549mm" fill="none" stroke="black" stroke-width="0.1mm" /><circle r="1.590000000000001" cx="27.655913789022037mm" cy="40.5191922726161mm" fill="none" stroke="black" stroke-width="0.1mm" /><circle r="1.600000000000001" cx="28.679247036020644mm" cy="34.818971884987185mm" fill="none" stroke="black" stroke-width="0.1mm" /><circle r="1.610000000000001" cx="32.2062527866721mm" cy="30.169713667713218mm" fill="none" stroke="black" stroke-width="0.1mm" /><circle r="1.620000000000001" cx="37.499785822948894mm" cy="27.60974055683767mm" fill="none" stroke="black" stroke-width="0.1mm" /><circle r="1.630000000000001" cx="43.422886835464155mm" cy="27.73362030949609mm" fill="none" stroke="black" stroke-width="0.1mm" /><circle r="1.640000000000001" cx="48.68292726189808mm" cy="30.554595076727104mm" fill="none" stroke="black" stroke-width="0.1mm" /><circle r="1.650000000000001" cx="52.11370585030127mm" cy="35.49292161457365mm" fill="none" stroke="black" stroke-width="0.1mm" /><circle r="1.660000000000001" cx="52.93393373361199mm" cy="41.49457625249924mm" fill="none" stroke="black" stroke-width="0.1mm" /><circle r="1.670000000000001" cx="50.924831182388544mm" cy="47.25612077051586mm" fill="none" stroke="black" stroke-width="0.1mm" /><circle r="1.680000000000001" cx="46.4865340136913mm" cy="51.50777895552511mm" fill="none" stroke="black" stroke-width="0.1mm" /><circle r="1.690000000000001" cx="40.55911397710667mm" cy="53.293247028495514mm" fill="none" stroke="black" stroke-width="0.1mm" /><circle r="1.700000000000001" cx="34.42363239026701mm" cy="52.18458551946358mm" fill="none" stroke="black" stroke-width="0.1mm" /><circle r="1.710000000000001" cx="29.425291825092632mm" cy="48.38394728129585mm" fill="none" stroke="black" stroke-width="0.1mm" /><circle r="1.720000000000001" cx="26.67851061451131mm" cy="42.68812584383862mm" fill="none" stroke="black" stroke-width="0.1mm" /><circle r="1.730000000000001" cx="26.818578243851995mm" cy="36.32177413872545mm" fill="none" stroke="black" stroke-width="0.1mm" /><circle r="1.740000000000001" cx="29.85520811826209mm" cy="30.674143595560487mm" fill="none" stroke="black" stroke-width="0.1mm" /><circle r="1.750000000000001" cx="35.161646994368574mm" cy="26.995925054318615mm" fill="none" stroke="black" stroke-width="0.1mm" /><circle r="1.7600000000000011" cx="41.60362751516277mm" cy="26.122346063090713mm" fill="none" stroke="black" stroke-width="0.1mm" /><circle r="1.7700000000000011" cx="47.78172616372929mm" cy="28.28381619669903mm" fill="none" stroke="black" stroke-width="0.1mm" /><circle r="1.7800000000000011" cx="52.335363361865106mm" cy="33.04698549327294mm" fill="none" stroke="black" stroke-width="0.1mm" /><circle r="1.7900000000000011" cx="54.242407846013066mm" cy="39.40096431840281mm" fill="none" stroke="black" stroke-width="0.1mm" /><circle r="1.8000000000000012" cx="53.04841807494778mm" cy="45.971707104453216mm" fill="none" stroke="black" stroke-width="0.1mm" /><circle r="1.8100000000000012" cx="48.974147349263774mm" cy="51.31913001752798mm" fill="none" stroke="black" stroke-width="0.1mm" /><circle r="1.8200000000000012" cx="42.87603751062608mm" cy="54.25271932781506mm" fill="none" stroke="black" stroke-width="0.1mm" /><circle r="1.8300000000000012" cx="36.06643511291511mm" cy="54.09646382179211mm" fill="none" stroke="black" stroke-width="0.1mm" /><circle r="1.8400000000000012" cx="30.031214453019164mm" cy="50.84417884020303mm" fill="none" stroke="black" stroke-width="0.1mm" /><circle r="1.8500000000000012" cx="26.1055559589386mm" cy="45.169627625836746mm" fill="none" stroke="black" stroke-width="0.1mm" /><circle r="1.8600000000000012" cx="25.178625859793367mm" cy="38.28732122217408mm" fill="none" stroke="black" stroke-width="0.1mm" /><circle r="1.8700000000000012" cx="27.492463575786335mm" cy="31.69266844305768mm" fill="none" stroke="black" stroke-width="0.1mm" /><circle r="1.8800000000000012" cx="32.58050500023666mm" cy="26.837052231795187mm" fill="none" stroke="black" stroke-width="0.1mm" /><circle r="1.8900000000000012" cx="39.36104261391159mm" cy="24.80843133646942mm" fill="none" stroke="black" stroke-width="0.1mm" /><circle r="1.9000000000000012" cx="46.367046599172696mm" cy="26.08774936956767mm" fill="none" stroke="black" stroke-width="0.1mm" /><circle r="1.9100000000000013" cx="52.063551860148024mm" cy="30.435652582767577mm" fill="none" stroke="black" stroke-width="0.1mm" /><circle r="1.9200000000000013" cx="55.18394927014121mm" cy="36.936050822585436mm" fill="none" stroke="black" stroke-width="0.1mm" /><circle r="1.9300000000000013" cx="55.011505887436485mm" cy="44.18890391289432mm" fill="none" stroke="black" stroke-width="0.1mm" /><circle r="1.9400000000000013" cx="51.54356579866874mm" cy="50.61171468952152mm" fill="none" stroke="black" stroke-width="0.1mm" /><circle r="1.9500000000000013" cx="45.5009022460428mm" cy="54.784813136441144mm" fill="none" stroke="black" stroke-width="0.1mm" /><circle r="1.9600000000000013" cx="38.1782699595116mm" cy="55.76509434350406mm" fill="none" stroke="black" stroke-width="0.1mm" /><circle r="1.9700000000000013" cx="31.16706304984514mm" cy="53.298889045126685mm" fill="none" stroke="black" stroke-width="0.1mm" /><circle r="1.9800000000000013" cx="26.009467825455722mm" cy="47.88597549280004mm" fill="none" stroke="black" stroke-width="0.1mm" /><circle r="1.9900000000000013" cx="23.859270518951917mm" cy="40.67887909058002mm" fill="none" stroke="black" stroke-width="0.1mm" /><circle r="2.0000000000000013" cx="25.22391681408301mm" cy="33.237613906108095mm" fill="none" stroke="black" stroke-width="0.1mm" /><circle r="2.010000000000001" cx="29.845452514798787mm" cy="27.19202629723206mm" fill="none" stroke="black" stroke-width="0.1mm" /><circle r="2.020000000000001" cx="36.74813915579686mm" cy="23.884820787532647mm" fill="none" stroke="black" stroke-width="0.1mm" /><circle r="2.0300000000000007" cx="44.44424293870365mm" cy="24.07345204691914mm" fill="none" stroke="black" stroke-width="0.1mm" /><circle r="2.0400000000000005" cx="51.25464383206213mm" cy="27.757047242865504mm" fill="none" stroke="black" stroke-width="0.1mm" /><circle r="2.0500000000000003" cx="55.675182231820855mm" cy="34.16782313375108mm" fill="none" stroke="black" stroke-width="0.1mm" /><circle r="2.06" cx="56.70881454680148mm" cy="41.93078130315079mm" fill="none" stroke="black" stroke-width="0.1mm" /><circle r="2.07" cx="54.09024166603973mm" cy="49.358542343367326mm" fill="none" stroke="black" stroke-width="0.1mm" /><circle r="2.0799999999999996" cx="48.35245598583682mm" cy="54.81811658088368mm" fill="none" stroke="black" stroke-width="0.1mm" /><circle r="2.0899999999999994" cx="40.718800795071715mm" cy="57.089890298565564mm" fill="none" stroke="black" stroke-width="0.1mm" /><circle r="2.099999999999999" cx="32.84227441138896mm" cy="55.63991574140168mm" fill="none" stroke="black" stroke-width="0.1mm" /><circle r="2.109999999999999" cx="26.447604454612204mm" cy="50.74474755317007mm" fill="none" stroke="black" stroke-width="0.1mm" /><circle r="2.1199999999999988" cx="22.953590845206538mm" cy="43.43977251099179mm" fill="none" stroke="black" stroke-width="0.1mm" /><circle r="2.1299999999999986" cx="23.158409981274747mm" cy="35.3004180354871mm" fill="none" stroke="black" stroke-width="0.1mm" /><circle r="2.1399999999999983" cx="27.05766028439969mm" cy="28.102427025397326mm" fill="none" stroke="black" stroke-width="0.1mm" /><circle r="2.149999999999998" cx="33.83654851354487mm" cy="23.434448672799476mm" fill="none" stroke="black" stroke-width="0.1mm" /><circle r="2.159999999999998" cx="42.03983256581309mm" cy="22.347465249901095mm" fill="none" stroke="black" stroke-width="0.1mm" /><circle r="2.1699999999999977" cx="49.88414773657972mm" cy="25.118405713047174mm" fill="none" stroke="black" stroke-width="0.1mm" /><circle r="2.1799999999999975" cx="55.64570098722305mm" cy="31.181063521126337mm" fill="none" stroke="black" stroke-width="0.1mm" /><circle r="2.1899999999999973" cx="58.039051116083044mm" cy="39.2412775004365mm" fill="none" stroke="black" stroke-width="0.1mm" /><circle r="2.199999999999997" cx="56.5037482968864mm" cy="47.5530650833301mm" fill="none" stroke="black" stroke-width="0.1mm" /><circle r="2.209999999999997" cx="51.33494762113899mm" cy="54.2968173880076mm" fill="none" stroke="black" stroke-width="0.1mm" /><circle r="2.2199999999999966" cx="43.62768417778052mm" cy="57.97763909711956mm" fill="none" stroke="black" stroke-width="0.1mm" /><circle r="2.2299999999999964" cx="35.04507900967793mm" cy="57.75663208436967mm" fill="none" stroke="black" stroke-width="0.1mm" /><circle r="2.239999999999996" cx="27.45949788285684mm" cy="53.64172667406618mm" fill="none" stroke="black" stroke-width="0.1mm" /><circle r="2.249999999999996" cx="22.544079577419833mm" cy="46.49472610666141mm" fill="none" stroke="black" stroke-width="0.1mm" /><circle r="2.259999999999996" cx="21.40374504660366mm" cy="37.85111617152469mm" fill="none" stroke="black" stroke-width="0.1mm" /><circle r="2.2699999999999956" cx="24.32705309213403mm" cy="29.590246870207963mm" fill="none" stroke="black" stroke-width="0.1mm" /><circle r="2.2799999999999954" cx="30.71458302808942mm" cy="23.526714606437626mm" fill="none" stroke="black" stroke-width="0.1mm" /><circle r="2.289999999999995" cx="39.20135579594464mm" cy="21.01178806639948mm" fill="none" stroke="black" stroke-width="0.1mm" /><circle r="2.299999999999995" cx="47.94840457804907mm" cy="22.63241914762885mm" fill="none" stroke="black" stroke-width="0.1mm" /><circle r="2.3099999999999947" cx="55.04123923062735mm" cy="28.074852310892027mm" fill="none" stroke="black" stroke-width="0.1mm" /><circle r="2.3199999999999945" cx="58.908869039445634mm" cy="36.184404155430656mm" fill="none" stroke="black" stroke-width="0.1mm" /><circle r="2.3299999999999943" cx="58.67167415001411mm" cy="45.210260016131166mm" fill="none" stroke="black" stroke-width="0.1mm" /><circle r="2.339999999999994" cx="54.3411136325321mm" cy="53.18343125968358mm" fill="none" stroke="black" stroke-width="0.1mm" /><circle r="2.349999999999994" cx="46.826000726867775mm" cy="58.346289517959775mm" fill="none" stroke="black" stroke-width="0.1mm" /><circle r="2.3599999999999937" cx="37.742064908862545mm" cy="59.539975156693785mm" fill="none" stroke="black" stroke-width="0.1mm" /><circle r="2.3699999999999934" cx="29.06464147699571mm" cy="56.46429952877916mm" fill="none" stroke="black" stroke-width="0.1mm" /><circle r="2.3799999999999932" cx="22.69913020009834mm" cy="49.751897464947575mm" fill="none" stroke="black" stroke-width="0.1mm" /><circle r="2.389999999999993" cx="20.062627248882006mm" cy="40.83856590854731mm" fill="none" stroke="black" stroke-width="0.1mm" /><circle r="2.399999999999993" cx="21.76858659214406mm" cy="31.656255927232028mm" fill="none" stroke="black" stroke-width="0.1mm" /><circle r="2.4099999999999926" cx="27.484652242922976mm" cy="24.214338926752955mm" fill="none" stroke="black" stroke-width="0.1mm" /><circle r="2.4199999999999924" cx="35.996492488641756mm" cy="20.159901018228307mm" fill="none" stroke="black" stroke-width="0.1mm" /><circle r="2.429999999999992" cx="45.46559904194017mm" cy="20.413283784341427mm" fill="none" stroke="black" stroke-width="0.1mm" /><circle r="2.439999999999992" cx="53.82636040222394mm" cy="24.959499409001914mm" fill="none" stroke="black" stroke-width="0.1mm" /><circle r="2.4499999999999917" cx="59.23665861333936mm" cy="32.84272465292578mm" fill="none" stroke="black" stroke-width="0.1mm" /><circle r="2.4599999999999915" cx="60.483695359991245mm" cy="42.366986353799504mm" fill="none" stroke="black" stroke-width="0.1mm" /><circle r="2.4699999999999913" cx="57.255652149692395mm" cy="51.46096391621647mm" fill="none" stroke="black" stroke-width="0.1mm" /><circle r="2.479999999999991" cx="50.21837795798464mm" cy="58.128454206240896mm" fill="none" stroke="black" stroke-width="0.1mm" /><circle r="2.489999999999991" cx="40.87848761303934mm" cy="60.886533568635464mm" fill="none" stroke="black" stroke-width="0.1mm" /><circle r="2.4999999999999907" cx="31.260916432513206mm" cy="59.095245963340766mm" fill="none" stroke="black" stroke-width="0.1mm" /><circle r="2.5099999999999905" cx="23.469917084133307mm" cy="53.105547825046145mm" fill="none" stroke="black" stroke-width="0.1mm" /><circle r="2.5199999999999902" cx="19.22867107590227mm" cy="44.19141917814723mm" fill="none" stroke="black" stroke-width="0.1mm" /><circle r="2.52999999999999" cx="19.49824171869694mm" cy="34.279061932250904mm" fill="none" stroke="black" stroke-width="0.1mm" /><circle r="2.53999999999999" cx="24.26011245053588mm" cy="25.530710455235763mm" fill="none" stroke="black" stroke-width="0.1mm" /><circle r="2.5499999999999896" cx="32.51145003271927mm" cy="19.872972291281084mm" fill="none" stroke="black" stroke-width="0.1mm" /><circle r="2.5599999999999894" cx="42.476037616461475mm" cy="18.572584436711296mm" fill="none" stroke="black" stroke-width="0.1mm" /><circle r="2.569999999999989" cx="51.986569309428575mm" cy="21.952995229394322mm" fill="none" stroke="black" stroke-width="0.1mm" /><circle r="2.579999999999989" cx="58.9560386125801mm" cy="29.315141548978218mm" fill="none" stroke="black" stroke-width="0.1mm" /><circle r="2.5899999999999888" cx="61.83569438615293mm" cy="39.081590682468544mm" fill="none" stroke="black" stroke-width="0.1mm" /><circle r="2.5999999999999885" cx="59.95907851882563mm" cy="49.13442306220554mm" fill="none" stroke="black" stroke-width="0.1mm" /><circle r="2.6099999999999883" cx="53.69574789301532mm" cy="57.27450475848629mm" fill="none" stroke="black" stroke-width="0.1mm" /><circle r="2.619999999999988" cx="44.37933084493629mm" cy="61.70255886642376mm" fill="none" stroke="black" stroke-width="0.1mm" /><circle r="2.629999999999988" cx="34.02372290644206mm" cy="61.41680034694757mm" fill="none" stroke="black" stroke-width="0.1mm" /><circle r="2.6399999999999877" cx="24.88778131269553mm" cy="56.43927450793022mm" fill="none" stroke="black" stroke-width="0.1mm" /><circle r="2.6499999999999875" cx="18.98260319590156mm" cy="47.81982458748734mm" fill="none" stroke="black" stroke-width="0.1mm" /><circle r="2.6599999999999873" cx="17.62886423341382mm" cy="37.41491112087664mm" fill="none" stroke="black" stroke-width="0.1mm" /><circle r="2.669999999999987" cx="21.161642608480992mm" cy="27.487825297359382mm" fill="none" stroke="black" stroke-width="0.1mm" /><circle r="2.679999999999987" cx="28.848661055941005mm" cy="20.216376981080746mm" fill="none" stroke="black" stroke-width="0.1mm" /><circle r="2.6899999999999866" cx="39.04166897797634mm" cy="17.21514479632961mm" fill="none" stroke="black" stroke-width="0.1mm" /><circle r="2.6999999999999864" cx="49.52976255692421mm" cy="19.177088925689475mm" fill="none" stroke="black" stroke-width="0.1mm" /><circle r="2.709999999999986" cx="58.01892660110582mm" cy="25.714052039015424mm" fill="none" stroke="black" stroke-width="0.1mm" /><circle r="2.719999999999986" cx="62.63378880874977mm" cy="35.43275748827456mm" fill="none" stroke="black" stroke-width="0.1mm" /><circle r="2.7299999999999858" cx="62.331842412592096mm" cy="46.231616119366706mm" fill="none" stroke="black" stroke-width="0.1mm" /><circle r="2.7399999999999856" cx="57.13866146639637mm" cy="55.75514782984464mm" fill="none" stroke="black" stroke-width="0.1mm" /><circle r="2.7499999999999853" cx="48.15109920769402mm" cy="61.90776589947794mm" fill="none" stroke="black" stroke-width="0.1mm" /><circle r="2.759999999999985" cx="37.30585985821484mm" cy="63.314855969883666mm" fill="none" stroke="black" stroke-width="0.1mm" /><circle r="2.769999999999985" cx="26.962219904147414mm" cy="59.62971001243238mm" fill="none" stroke="black" stroke-width="0.1mm" /><circle r="2.7799999999999847" cx="19.38879257474163mm" cy="51.61781943709628mm" fill="none" stroke="black" stroke-width="0.1mm" /><circle r="2.7899999999999845" cx="16.26598397881215mm" cy="40.99825272651594mm" fill="none" stroke="black" stroke-width="0.1mm" /><circle r="2.7999999999999843" cx="18.313256370204545mm" cy="30.074897948357197mm" fill="none" stroke="black" stroke-width="0.1mm" /><circle r="2.809999999999984" cx="25.123851971046108mm" cy="21.23665155627469mm" fill="none" stroke="black" stroke-width="0.1mm" /><circle r="2.819999999999984" cx="35.24484582148533mm" cy="16.43498124892424mm" fill="none" stroke="black" stroke-width="0.1mm" /><circle r="2.8299999999999836" cx="46.486955145175386mm" cy="16.753115521763345mm" fill="none" stroke="black" stroke-width="0.1mm" /><circle r="2.8399999999999834" cx="56.39807697238475mm" cy="22.161951575137415mm" fill="none" stroke="black" stroke-width="0.1mm" /><circle r="2.849999999999983" cx="62.7981349948574mm" cy="31.517626172099224mm" fill="none" stroke="black" stroke-width="0.1mm" /><circle r="2.859999999999983" cx="64.25857617318115mm" cy="42.80319140444688mm" fill="none" stroke="black" stroke-width="0.1mm" /><circle r="2.869999999999983" cx="60.42106263334581mm" cy="53.56338548906449mm" fill="none" stroke="black" stroke-width="0.1mm" /><circle r="2.8799999999999826" cx="52.08429993013364mm" cy="61.43879183159744mm" fill="none" stroke="black" stroke-width="0.1mm" /><circle r="2.8899999999999824" cx="41.038174431008315mm" cy="64.6831768387053mm" fill="none" stroke="black" stroke-width="0.1mm" /><circle r="2.899999999999982" cx="29.679558453638684mm" cy="62.55057618528042mm" fill="none" stroke="black" stroke-width="0.1mm" /><circle r="2.909999999999982" cx="20.492229713655256mm" cy="55.46634809692328mm" fill="none" stroke="black" stroke-width="0.1mm" /><circle r="2.9199999999999817" cx="15.503751306598264mm" cy="44.94306584530399mm" fill="none" stroke="black" stroke-width="0.1mm" /><circle r="2.9299999999999815" cx="15.83807345611877mm" cy="33.25770582901602mm" fill="none" stroke="black" stroke-width="0.1mm" /><circle r="2.9399999999999813" cx="21.462564616671145mm" cy="22.958993885075202mm" fill="none" stroke="black" stroke-width="0.1mm" /><circle r="2.949999999999981" cx="31.186351551892386mm" cy="16.311495909763167mm" fill="none" stroke="black" stroke-width="0.1mm" /><circle r="2.959999999999981" cx="42.91224266710851mm" cy="14.79770362352134mm" fill="none" stroke="black" stroke-width="0.1mm" /><circle r="2.9699999999999807" cx="54.08899088227631mm" cy="18.787584745740723mm" fill="none" stroke="black" stroke-width="0.1mm" /><circle r="2.9799999999999804" cx="62.26637623793648mm" cy="27.44921957682892mm" fill="none" stroke="black" stroke-width="0.1mm" /><circle r="2.9899999999999802" cx="65.63233765622275mm" cy="38.92190386449923mm" fill="none" stroke="black" stroke-width="0.1mm" /><circle r="2.99999999999998" cx="63.414408740765424mm" cy="50.71578104107975mm" fill="none" stroke="black" stroke-width="0.1mm" /><circle r="3.00999999999998" cx="56.056548164892725mm" cy="60.252192128964126mm" fill="none" stroke="black" stroke-width="0.1mm" /><circle r="3.0199999999999796" cx="45.13097751209339mm" cy="65.4274786357277mm" fill="none" stroke="black" stroke-width="0.1mm" /><circle r="3.0299999999999794" cx="33.002366803207494mm" cy="65.07696860952584mm" fill="none" stroke="black" stroke-width="0.1mm" /><circle r="3.039999999999979" cx="22.316064742535218mm" cy="59.23682234179518mm" fill="none" stroke="black" stroke-width="0.1mm" /><circle r="3.049999999999979" cx="15.421126814383761mm" cy="49.14492306831453mm" fill="none" stroke="black" stroke-width="0.1mm" /><circle r="3.0599999999999787" cx="13.853983420223823mm" cy="36.97870607022995mm" fill="none" stroke="black" stroke-width="0.1mm" /><circle r="3.0699999999999785" cx="17.996232124827205mm" cy="25.38540372451193mm" fill="none" stroke="black" stroke-width="0.1mm" /><circle r="3.0799999999999783" cx="26.98273908379141mm" cy="16.90603935572453mm" fill="none" stroke="black" stroke-width="0.1mm" /><circle r="3.089999999999978" cx="38.881982160006686mm" cy="13.418501526259803mm" fill="none" stroke="black" stroke-width="0.1mm" /><circle r="3.099999999999978" cx="51.111120535798115mm" cy="15.72175870374954mm" fill="none" stroke="black" stroke-width="0.1mm" /><circle r="3.1099999999999777" cx="60.99661397158346mm" cy="23.353251767137756mm" fill="none" stroke="black" stroke-width="0.1mm" /><circle r="3.1199999999999775" cx="66.35870857805364mm" cy="34.68111082111713mm" fill="none" stroke="black" stroke-width="0.1mm" /><circle r="3.1299999999999772" cx="65.99201067517045mm" cy="47.25297222260094mm" fill="none" stroke="black" stroke-width="0.1mm" /><circle r="3.139999999999977" cx="59.93620930026157mm" cy="58.3268644000047mm" fill="none" stroke="black" stroke-width="0.1mm" /><circle r="3.149999999999977" cx="49.47619768852153mm" cy="65.46924228099562mm" fill="none" stroke="black" stroke-width="0.1mm" /><circle r="3.1599999999999766" cx="36.86965480756848mm" cy="67.0897367830737mm" fill="none" stroke="black" stroke-width="0.1mm" /><circle r="3.1699999999999764" cx="24.859798331300247mm" cy="62.79512049608636mm" fill="none" stroke="black" stroke-width="0.1mm" /><circle r="3.179999999999976" cx="16.07845494938539mm" cy="53.48374140924583mm" fill="none" stroke="black" stroke-width="0.1mm" /><circle r="3.189999999999976" cx="12.469340708742326mm" cy="41.15793954448516mm" fill="none" stroke="black" stroke-width="0.1mm" /><circle r="3.1999999999999758" cx="14.857926148264962mm" cy="28.493539969482526mm" fill="none" stroke="black" stroke-width="0.1mm" /><circle r="3.2099999999999755" cx="22.76305169916941mm" cy="18.25896418579629mm" fill="none" stroke="black" stroke-width="0.1mm" /><circle r="3.2199999999999753" cx="34.4931991543295mm" cy="12.710061479620048mm" fill="none" stroke="black" stroke-width="0.1mm" /><circle r="3.229999999999975" cx="47.50831124841159mm" cy="13.092947259185543mm" fill="none" stroke="black" stroke-width="0.1mm" /><circle r="3.239999999999975" cx="58.96979354254661mm" cy="19.36440374127388mm" fill="none" stroke="black" stroke-width="0.1mm" /><circle r="3.2499999999999747" cx="66.35961137637608mm" cy="30.19252769127439mm" fill="none" stroke="black" stroke-width="0.1mm" /><circle r="3.2599999999999745" cx="68.03345698637082mm" cy="43.23939645509648mm" fill="none" stroke="black" stroke-width="0.1mm" /><circle r="3.2699999999999743" cx="63.586473116997745mm" cy="55.66580706191472mm" fill="none" stroke="black" stroke-width="0.1mm" /><circle r="3.279999999999974" cx="53.95022190227996mm" cy="64.7491294569555mm" fill="none" stroke="black" stroke-width="0.1mm" /><circle r="3.289999999999974" cx="41.197861248973794mm" cy="68.47982010877529mm" fill="none" stroke="black" stroke-width="0.1mm" /><circle r="3.2999999999999736" cx="28.09820047476059mm" cy="66.00590640721845mm" fill="none" stroke="black" stroke-width="0.1mm" /><circle r="3.3099999999999734" cx="17.5145423431745mm" cy="57.827148368797mm" fill="none" stroke="black" stroke-width="0.1mm" /><circle r="3.319999999999973" cx="11.778831537293314mm" cy="45.69471251245607mm" fill="none" stroke="black" stroke-width="0.1mm" /><circle r="3.329999999999973" cx="12.177905193542003mm" cy="32.23634972577611mm" fill="none" stroke="black" stroke-width="0.1mm" /><circle r="3.3399999999999728" cx="18.66501678281023mm" cy="20.387277314910484mm" fill="none" stroke="black" stroke-width="0.1mm" /><circle r="3.3499999999999726" cx="29.861253071071204mm" cy="12.75001952824313mm" fill="none" stroke="black" stroke-width="0.1mm" /><circle r="3.3599999999999723" cx="43.34844771776202mm" cy="11.022822810332126mm" fill="none" stroke="black" stroke-width="0.1mm" /><circle r="3.369999999999972" cx="56.19141245512984mm" cy="15.622174262090972mm" fill="none" stroke="black" stroke-width="0.1mm" /><circle r="3.379999999999972" cx="65.5767138632965mm" cy="25.583297604686074mm" fill="none" stroke="black" stroke-width="0.1mm" /><circle r="3.3899999999999717" cx="69.42898092629291mm" cy="38.76221704653776mm" fill="none" stroke="black" stroke-width="0.1mm" /><circle r="3.3999999999999715" cx="66.86973896270176mm" cy="52.29713901996152mm" fill="none" stroke="black" stroke-width="0.1mm" /><circle r="3.4099999999999713" cx="58.41734843676326mm" cy="63.22987949944741mm" fill="none" stroke="black" stroke-width="0.1mm" /><circle r="3.419999999999971" cx="45.88262417924146mm" cy="69.15239840503345mm" fill="none" stroke="black" stroke-width="0.1mm" /><circle r="3.429999999999971" cx="31.981010699963623mm" cy="68.73713687210149mm" fill="none" stroke="black" stroke-width="0.1mm" /><circle r="3.4399999999999706" cx="19.744348172367452mm" cy="62.034370175653294mm" fill="none" stroke="black" stroke-width="0.1mm" /><circle r="3.4499999999999704" cx="11.85965043286227mm" cy="50.4700215491318mm" fill="none" stroke="black" stroke-width="0.1mm" /><circle r="3.45999999999997" cx="10.079102607035097mm" cy="36.54250101957226mm" fill="none" stroke="black" stroke-width="0.1mm" /><circle r="3.46999999999997" cx="14.830821641179792mm" cy="23.28298215165488mm" fill="none" stroke="black" stroke-width="0.1mm" /><circle r="3.47999999999997" cx="25.116817111652267mm" cy="13.595701730362425mm" fill="none" stroke="black" stroke-width="0.1mm" /><circle r="3.4899999999999696" cx="38.72229534204949mm" cy="9.621858256189466mm" fill="none" stroke="black" stroke-width="0.1mm" /><circle r="3.4999999999999694" cx="52.6924785146838mm" cy="12.266428481814991mm" fill="none" stroke="black" stroke-width="0.1mm" /><circle r="3.509999999999969" cx="63.974301342069424mm" cy="20.99245149527061mm" fill="none" stroke="black" stroke-width="0.1mm" /><circle r="3.519999999999969" cx="70.08362834736025mm" cy="33.929464153973335mm" fill="none" stroke="black" stroke-width="0.1mm" /><circle r="3.5299999999999687" cx="69.65217893774494mm" cy="48.27432832584904mm" fill="none" stroke="black" stroke-width="0.1mm" /><circle r="3.5399999999999685" cx="62.733757134116686mm" cy="60.898580970175715mm" fill="none" stroke="black" stroke-width="0.1mm" /><circle r="3.5499999999999683" cx="50.80129616933464mm" cy="69.03071866251865mm" fill="none" stroke="black" stroke-width="0.1mm" /><circle r="3.559999999999968" cx="36.433449756906356mm" cy="70.86461759626191mm" fill="none" stroke="black" stroke-width="0.1mm" /><circle r="3.569999999999968" cx="22.75737675843945mm" cy="65.96053097973129mm" fill="none" stroke="black" stroke-width="0.1mm" /><circle r="3.5799999999999677" cx="12.768117324021254mm" cy="55.349663381381376mm" fill="none" stroke="black" stroke-width="0.1mm" /><circle r="3.5899999999999674" cx="8.672697438671833mm" cy="41.31762636243859mm" fill="none" stroke="black" stroke-width="0.1mm" /><circle r="3.5999999999999672" cx="11.402595926331827mm" cy="26.91218199059376mm" fill="none" stroke="black" stroke-width="0.1mm" /><circle r="3.609999999999967" cx="20.402251427304634mm" cy="15.281276815308438mm" fill="none" stroke="black" stroke-width="0.1mm" /><circle r="3.619999999999967" cx="33.74155248718831mm" cy="8.985141710312902mm" fill="none" stroke="black" stroke-width="0.1mm" /><circle r="3.6299999999999666" cx="48.52966735166188mm" cy="9.43277899661167mm" fill="none" stroke="black" stroke-width="0.1mm" /><circle r="3.6399999999999664" cx="61.541510112719024mm" cy="16.56685590742004mm" fill="none" stroke="black" stroke-width="0.1mm" /><circle r="3.649999999999966" cx="69.92108775789964mm" cy="28.867429210462703mm" fill="none" stroke="black" stroke-width="0.1mm" /><circle r="3.659999999999966" cx="71.8083377995589mm" cy="43.67560150575973mm" fill="none" stroke="black" stroke-width="0.1mm" /><circle r="3.6699999999999657" cx="66.75188360064226mm" cy="57.768228634776136mm" fill="none" stroke="black" stroke-width="0.1mm" /><circle r="3.6799999999999655" cx="55.81614387441486mm" cy="68.05946708232001mm" fill="none" stroke="black" stroke-width="0.1mm" /><circle r="3.6899999999999653" cx="41.35754806692648mm" cy="72.27646337884582mm" fill="none" stroke="black" stroke-width="0.1mm" /><circle r="3.699999999999965" cx="26.516842495871146mm" cy="69.46123662915127mm" fill="none" stroke="black" stroke-width="0.1mm" /><circle r="3.709999999999965" cx="14.536854972686182mm" cy="60.18794864066119mm" fill="none" stroke="black" stroke-width="0.1mm" /><circle r="3.7199999999999647" cx="8.053911767986023mm" cy="46.44635917959654mm" fill="none" stroke="black" stroke-width="0.1mm" /><circle r="3.7299999999999645" cx="8.517736930968326mm" cy="31.2149936225251mm" fill="none" stroke="black" stroke-width="0.1mm" /><circle r="3.7399999999999642" cx="15.867468948956894mm" cy="17.815560744737528mm" fill="none" stroke="black" stroke-width="0.1mm" /><circle r="3.749999999999964" cx="28.53615459026021mm" cy="9.1885431467193mm" fill="none" stroke="black" stroke-width="0.1mm" /><circle r="3.759999999999964" cx="43.784652768426mm" cy="7.247941997144125mm" fill="none" stroke="black" stroke-width="0.1mm" /><circle r="3.7699999999999636" cx="58.29383402799188mm" cy="12.456763778446867mm" fill="none" stroke="black" stroke-width="0.1mm" /><circle r="3.7799999999999634" cx="68.88705148866136mm" cy="23.717375632551818mm" fill="none" stroke="black" stroke-width="0.1mm" /><circle r="3.789999999999963" cx="73.22562419636347mm" cy="38.602530228585806mm" fill="none" stroke="black" stroke-width="0.1mm" /><circle r="3.799999999999963" cx="70.32506918463429mm" cy="53.87849699885164mm" fill="none" stroke="black" stroke-width="0.1mm" /><circle r="3.8099999999999627" cx="60.77814870862689mm" cy="66.20756686993619mm" fill="none" stroke="black" stroke-width="0.1mm" /><circle r="3.8199999999999625" cx="46.634270846381206mm" cy="72.8773181743409mm" fill="none" stroke="black" stroke-width="0.1mm" /><circle r="3.8299999999999623" cx="30.959654596711903mm" cy="72.39730513467498mm" fill="none" stroke="black" stroke-width="0.1mm" /><circle r="3.839999999999962" cx="17.172631602193945mm" cy="64.83191800950613mm" fill="none" stroke="black" stroke-width="0.1mm" /><circle r="3.849999999999962" cx="8.298174051338183mm" cy="51.795120029942105mm" fill="none" stroke="black" stroke-width="0.1mm" /><circle r="3.8599999999999617" cx="6.3042217938471765mm" cy="36.106295968907546mm" fill="none" stroke="black" stroke-width="0.1mm" /><circle r="3.8699999999999615" cx="11.665411157536095mm" cy="21.18056057879223mm" fill="none" stroke="black" stroke-width="0.1mm" /><circle r="3.8799999999999613" cx="23.25089513951866mm" cy="10.285364104997193mm" fill="none" stroke="black" stroke-width="0.1mm" /><circle r="3.889999999999961" cx="38.56260852409828mm" cy="5.82521498611888mm" fill="none" stroke="black" stroke-width="0.1mm" /><circle r="3.899999999999961" cx="54.273836493574585mm" cy="8.81109825988278mm" fill="none" stroke="black" stroke-width="0.1mm" /><circle r="3.9099999999999606" cx="66.95198871255866mm" cy="18.631651223407577mm" fill="none" stroke="black" stroke-width="0.1mm" /><circle r="3.9199999999999604" cx="73.80854811666785mm" cy="33.177817486834314mm" fill="none" stroke="black" stroke-width="0.1mm" /><circle r="3.92999999999996" cx="73.31234720031821mm" cy="49.29568442910147mm" fill="none" stroke="black" stroke-width="0.1mm" /><circle r="3.93999999999996" cx="65.53130496796902mm" cy="63.470297540349776mm" fill="none" stroke="black" stroke-width="0.1mm" /><circle r="3.9499999999999598" cx="52.12639465014424mm" cy="72.592195044043mm" fill="none" stroke="black" stroke-width="0.1mm" /><circle r="3.9599999999999596" cx="35.997244706240906mm" cy="74.63949840944974mm" fill="none" stroke="black" stroke-width="0.1mm" /><circle r="3.9699999999999593" cx="20.654955185576185mm" cy="69.12594146337457mm" fill="none" stroke="black" stroke-width="0.1mm" /><circle r="3.979999999999959" cx="9.45777969865566mm" cy="57.21558535351434mm" fill="none" stroke="black" stroke-width="0.1mm" /><circle r="3.989999999999959" cx="4.876054168601215mm" cy="41.47731318038906mm" fill="none" stroke="black" stroke-width="0.1mm" /><circle r="3.9999999999999587" cx="7.947265704399925mm" cy="25.330824011702294mm" fill="none" stroke="black" stroke-width="0.1mm" /><g transform="translate(135,285) scale(0.4)" fill="black">
<path
         d="m 6.909225,12.189723 h 3.199798 l 3.274213,9.11157 3.265944,-9.11157 h 3.199798 l -4.572322,12.344441 h -3.795109 z"
         style="font-size:16.9333px;stroke-width:0.265"
         id="path428" />
      <path
         d="M 27.827804,22.285211 H 22.85034 l -0.78548,2.248953 h -3.199799 l 4.572322,-12.344441 h 3.79511 l 4.572321,12.344441 h -3.199798 z m -4.183716,-2.290295 h 3.381699 l -1.686715,-4.911319 z"
         style="font-size:16.9333px;stroke-width:0.265"
         id="path430" />
      <path
         d="m 37.964634,17.66328 q 1.000454,0 1.430401,-0.37207 0.438215,-0.37207 0.438215,-1.223696 0,-0.843357 -0.438215,-1.207159 -0.429947,-0.363801 -1.430401,-0.363801 h -1.33945 v 3.166726 z m -1.33945,2.199344 v 4.67154 H 33.441922 V 12.189723 h 4.861709 q 2.439123,0 3.571868,0.818553 1.141013,0.818553 1.141013,2.58795 0,1.223696 -0.595311,2.009176 -0.587043,0.78548 -1.777666,1.15755 0.653189,0.148828 1.165818,0.677993 0.520898,0.520898 1.050063,1.587497 l 1.728057,3.505722 h -3.389967 l -1.504815,-3.067507 q -0.454752,-0.926039 -0.92604,-1.265036 -0.46302,-0.338997 -1.240232,-0.338997 z"
         style="font-size:16.9333px;stroke-width:0.265"
         id="path432" />
      <path
         d="m 46.480893,12.189723 h 3.183262 v 12.344441 h -3.183262 z"
         style="font-size:16.9333px;stroke-width:0.265"
         id="path434" />
      <path
         d="m 62.570834,23.856171 q -0.876431,0.454752 -1.827275,0.686262 -0.950845,0.23151 -1.984371,0.23151 -3.084044,0 -4.886514,-1.719789 -1.802471,-1.728056 -1.802471,-4.679808 0,-2.96002 1.802471,-4.679809 1.80247,-1.728056 4.886514,-1.728056 1.033526,0 1.984371,0.23151 0.950844,0.23151 1.827275,0.686261 v 2.554878 q -0.884699,-0.603579 -1.744593,-0.884699 -0.859894,-0.281119 -1.810739,-0.281119 -1.703252,0 -2.678901,1.091404 -0.975649,1.091404 -0.975649,3.00963 0,1.909957 0.975649,3.001361 0.975649,1.091404 2.678901,1.091404 0.950845,0 1.810739,-0.281119 0.859894,-0.281119 1.744593,-0.884699 z"
         style="font-size:16.9333px;stroke-width:0.265"
         id="path436" />
      <path
         d="m 65.208394,12.189723 h 3.183262 v 12.344441 h -3.183262 z"
         style="font-size:16.9333px;stroke-width:0.265"
         id="path438" />
      <path
         d="m 70.037033,12.189723 h 11.377061 v 2.40605 h -4.092766 v 9.938391 h -3.183262 v -9.938391 h -4.101033 z"
         style="font-size:16.9333px;stroke-width:0.265"
         id="path440" />
      <path
         d="m 83.059464,12.189723 h 8.590673 v 2.40605 h -5.407411 v 2.298563 h 5.084951 v 2.40605 h -5.084951 v 2.827728 h 5.589312 v 2.40605 h -8.772574 z"
         style="font-size:16.9333px;stroke-width:0.265"
         id="path442" />
         </g>
</svg>