<svg viewBox="-300 -300 600 600" width="600" height="600" stroke="green" stroke-width="1"><style>path {fill: gold;stroke: maroon;stroke-width: 2px;}</style><path fill-rule="evenodd" fill="#66cc99" stroke="#555555" stroke-width="2.0" opacity="0.6" d="M -8.320715300000302,152.78588659999514 L -7.83891530000119,154.48538659997575 L -5.563115300001755,154.08938659996784 L -6.184415300000637,152.34638659999473 L -8.320715300000302,152.78588659999514 z" /><text font-size="3" x="-6.967283714528317" y="153.43312536618032" fill="rgba(3,3,113,0.5)" stroke="none">Plaza de la Iglesia</text><path fill-rule="evenodd" fill="#66cc99" stroke="#555555" stroke-width="2.0" opacity="0.6" d="M 1.5109846999989713,47.28598659999261 L 2.1169846999982838,47.49688659999083 L 2.5165846999980204,47.89408659997571 L 2.4649846999973306,47.98978659998829 L 2.3101846999984446,48.11488659997849 L 2.2297846999986177,48.16138659998978 L 2.0491846999984773,48.18088659998466 L 2.0008846999971865,48.18088659998466 L 1.5013846999986526,47.393986599978234 L 1.5109846999989713,47.28598659999261 z" /><text font-size="3" x="2.015034220032885" y="47.7585945183597" fill="rgba(3,3,113,0.5)" stroke="none">Plaza de la Cruz del Pradillo</text><path fill-rule="evenodd" fill="#66cc99" stroke="#555555" stroke-width="2.0" opacity="0.6" d="M 3.375284700000975,46.14078659998631 L 2.9414846999993642,46.483686599975044 L 2.788484700000481,46.20558659998642 L 3.0479847000005975,46.03068659998098 L 3.375284700000975,46.14078659998631 z" /><text font-size="3" x="3.0468507569793997" y="46.226639428044436" fill="rgba(3,3,113,0.5)" stroke="none">Plaza del Agua</text><path fill-rule="evenodd" fill="#66cc99" stroke="#555555" stroke-width="2.0" opacity="0.6" d="M -6.969015300000592,152.09218659997714 L -7.389615299998695,150.9407865999674 L -7.938315299998521,151.05148659998667 L -7.512015300001167,152.19898659999308 L -6.969015300000592,152.09218659997714 z" /><text font-size="3" x="-7.452568205172553" y="151.56967455168484" fill="rgba(3,3,113,0.5)" stroke="none">Plaza de la Cebada</text><path fill-rule="evenodd" fill="#66cc99" stroke="#555555" stroke-width="2.0" opacity="0.6" d="M -8.59521530000302,-74.50521340000705 L -9.473315300002469,-74.02101340002264 L -8.53041530000246,-73.0733134000111 L -7.652315300003011,-73.56471340002463 L -8.59521530000302,-74.50521340000705 z" /><text font-size="3" x="-8.562760371661522" y="-73.7904496362566" fill="rgba(3,3,113,0.5)" stroke="none">Parque de la Elia</text><path fill-rule="evenodd" fill="#66cc99" stroke="#555555" stroke-width="2.0" opacity="0.6" d="M -9.854915300000357,153.13118659998145 L -8.131115300000147,152.83868660001463 L -7.811615300000085,152.78078659998573 L -6.537215300000298,152.56478659999993 L -6.311615300000085,152.55128659999173 L -6.246515299999828,152.59628660000453 L -6.187115300000187,152.65958659999887 L -6.1931153000009544,152.71838660000503 L -6.293915299999298,152.7408865999896 L -6.270215299999563,152.8359866000028 L -6.163415299999997,152.8359866000028 L -6.0803153000006205,153.11618660001113 L -6.222815299999638,153.15218660000392 L -6.590615299999172,153.57248659998731 L -7.075715299999501,154.63148660000297 L -7.284815300000901,155.21408659998997 L -7.189115300001504,155.32238659999712 L -7.679915300001085,155.4354866000067 L -7.795115299998997,155.46278660000098 L -7.811915300000237,155.41418660000636 L -7.97601529999929,155.45438660000218 L -8.128715300000295,154.9497865999947 L -8.162015300000348,154.8399866000036 L -9.177215299999716,155.05658660000336 L -9.854915300000357,153.13118659998145 z" /><text font-size="3" x="-7.995449517342659" y="153.84489514925687" fill="rgba(3,3,113,0.5)" stroke="none">Parque en memoria de las victimas del terrorismo</text><path fill-rule="evenodd" fill="#66cc99" stroke="#555555" stroke-width="2.0" opacity="0.6" d="M 0.5623846999997113,48.06368659999134 L 0.6970846999984133,48.059486599988304 L 1.3228847000000314,48.31148660000326 L 1.4020846999983405,48.38168660001247 L 0.8320846999986315,48.71408659998997 L 0.6547846999997091,48.52388660001452 L 0.23688469999888184,48.35678659998666 L 0.5623846999997113,48.06368659999134 z" /><text font-size="3" x="0.8127096578369682" y="48.3566600515164" fill="rgba(3,3,113,0.5)" stroke="none">Parque de Mayo</text><path fill-rule="evenodd" fill="#66cc99" stroke="#555555" stroke-width="2.0" opacity="0.6" d="M -28.22499999999991,-174.61500000000524 L 21.77500000000009,-174.61500000000524 L 21.77500000000009,255.38499999999476 L -28.22499999999991,255.38499999999476 L -28.22499999999991,-174.61500000000524 z" /></svg>