<svg xmlns="http://www.w3.org/2000/svg" xmlns:svg="http://www.w3.org/2000/svg" viewBox="-300 -300 600 600" width="600" height="600"><style>svg {
    fill:gray;
    stroke: gray;
    stroke-width: 3px;
}
text {
    font-family: sans-serif;
    font-size: 13px;
    fill: gray;
    stroke: black;
    stroke-width: 0;
    text-anchor: middle
}
path {
    fill: #ccc;
    stroke: #eee;
}
g.water text {
    font-size: 10px;
    fill: rgba(0, 0, 0, 0.5);
}

g.water path {
    fill: rgba(0, 0, 255, 1);
    stroke-width: 0;
}

g.parks text {
    font-family: sans-serif;
    font-size: 5px;
    fill: rgba(20, 20, 20, 0.75);
    stroke: rgba(3, 3, 250, 1);
    stroke-width: 0;
    text-anchor: middle;
}

g.parks path {
    fill: rgb(19, 97, 3);
    stroke: rgba(4, 4, 4, 0.5);
    stroke-width: 0px;
}</style><path fill-rule="evenodd" fill="#66cc99" stroke="#555555" stroke-width="2.0" opacity="0.6" d="M 196.26000000000204,-159.61999999993714 L 196.26000000000204,240.38000000006286 L -203.73999999999796,240.38000000006286 L -203.73999999999796,-159.61999999993714 L 196.26000000000204,-159.61999999993714 z" /><g class="class_name"><path fill-rule="evenodd" fill="#66cc99" stroke="#555555" stroke-width="2.0" opacity="0.6" d="M -255.0067612250059,124.3307916749036 L -241.85476122500404,117.14479167491663 L -239.46676122500503,115.68079167488031 L -236.5767612250056,112.85479167482117 L -229.04276122500596,97.91879167495063 L -227.53076122500352,95.02679167478345 L -225.96076122501108,90.62079167488264 L -224.54276122499869,82.42879167478532 L -223.10276122500363,72.41479167487705 L -221.91876122500253,62.79079167480813 L -218.92676122501143,38.800791674875654 L -215.17476122500375,9.018791674869135 L -245.97476122499938,5.062791674921755 L -250.2947612249991,70.45079167484073 L -250.85276122500363,81.92279167484958 L -254.98676122500183,89.25479167484445 L -259.818761225004,96.44079167483142 L -263.1447612250049,99.01479167497018 L -263.03876122500515,104.13679167482769 L -261.6467612250053,104.94679167494178 L -261.9367612250062,108.646791674837 L -263.7347612250014,110.24879167490872 L -266.83476122499997,111.56479167495854 L -268.6947612250078,113.13679167482769 L -267.0487612250072,114.31079167494318 L -255.0067612250059,124.3307916749036 z" /><text x="-238.1722222872989" y="63.07337247712396">Parque de Aluche</text><path fill-rule="evenodd" fill="#66cc99" stroke="#555555" stroke-width="2.0" opacity="0.6" d="M -172.01426122499834,-38.51920832513133 L -174.32426122500328,-41.47320832510013 L -174.56026122500043,-45.54720832512248 L -184.0342612250024,-52.4432083251304 L -210.93426122500387,-69.45520832511829 L -213.72626122499787,-71.36720832512947 L -220.420261225001,-75.28920832509175 L -228.75626122500398,-80.54320832510712 L -252.82026122500247,-80.43720832513645 L -254.53626122500282,-78.21520832501119 L -257.8742612249989,-68.00120832503308 L -260.2002612250071,-61.089208325138316 L -259.34226122500695,-57.16720832505962 L -240.63226122500055,-26.971208325005136 L -234.79426122499717,-20.04120832501212 L -228.78626122500282,-15.335208325064741 L -223.4642612250027,-11.937208325136453 L -207.15826122499857,-4.093208325095475 L -203.03826122500323,-2.915208325139247 L -199.49626122500194,-3.6692083251546137 L -198.16226122499938,-4.2792083250242285 L -188.61826122500497,-10.891208325105254 L -184.49826122500235,-15.72720832505729 L -172.01426122499834,-38.51920832513133 z" /><text x="-217.31463273371213" y="-43.30960551015557">Parque Cuña Verde Oeste</text><path fill-rule="evenodd" fill="#66cc99" stroke="#555555" stroke-width="2.0" opacity="0.6" d="M -36.409261225009686,-67.99220832512947 L -71.80126122500224,-63.54220832511783 L -202.0632612249974,-46.94620832504006 L -216.65326122500846,-48.64620832516812 L -233.58126122500107,-58.14820832508849 L -238.01726122500258,-57.54620832513319 L -246.85126122500515,-40.98820832505589 L -248.90126122500806,-37.19020832516253 L -250.23726122500375,-34.732208325120155 L -253.5452612250083,-29.13020832516486 L -260.2552612250074,-20.80020832514856 L -260.4272612250061,-18.448208325135056 L -258.36726122500113,-15.832208325096872 L -254.5912612250031,-12.95620832516579 L -250.91126122500282,-10.468208325095475 L -242.3392612250027,-4.652208325045649 L -232.2072612250049,2.1577916749520227 L -227.23126122500253,-2.3582083251094446 L -193.30926122500387,11.50779167492874 L -185.46926122500736,0.8437916749389842 L -174.15126122500078,5.6697916749399155 L -186.0652612250051,21.875791674887296 L -186.6532612250012,22.797791674849577 L -180.4092612250024,23.439791674842127 L -179.4032612250012,23.20779167494038 L -179.019261225003,21.849791674874723 L -179.55326122500992,20.367791674856562 L -179.1772612249988,17.19579167489428 L -174.25326122499973,10.967791674891487 L -169.61926122500154,7.959791674860753 L -147.1312612249967,-1.1902083251043223 L -132.36726122500113,-5.504208325059153 L -101.12526122500276,-12.826208325044718 L -87.5632612249974,-16.748208325123414 L -78.29526122500829,-20.930208325153217 L -63.875261225010036,-28.38220832508523 L -51.51526122500218,-33.480208325141575 L -31.94526122500247,-39.49420832504984 L -36.06526122500509,-63.02620832505636 L -36.409261225009686,-67.99220832512947 z" /><text x="-151.2558511230418" y="-30.154867003926427">Parque Cuña Verde de Laguna</text><path fill-rule="evenodd" fill="#66cc99" stroke="#555555" stroke-width="2.0" opacity="0.6" d="M 132.04373877499893,-96.2162083251169 L 112.59173877498688,-88.56620832509361 L 105.60773877499014,-86.1582083250978 L 99.02373877498758,-83.71220832510153 L 76.81973877499695,-74.47220832511084 L 68.80173877500056,-71.6362083251006 L 62.24173877499561,-69.93420832511038 L 53.29373877499165,-68.77020832512062 L 0.4137387749942718,-61.79220832500141 L -34.984261225006776,-57.31420832511503 L -163.11426122500416,-39.74820832506521 L -163.0082612250044,-37.63420832506381 L -158.89626122501068,-10.13020832510665 L -153.25626122500398,-12.03820832510246 L -145.68826122500468,-14.25420832511736 L -142.08426122500532,-13.952208325034007 L -138.25426122500357,-15.438208325009327 L -134.2202612250112,-15.438208325009327 L -130.74426122500154,-16.10020832507871 L -127.69626122500631,-16.216208325058687 L -123.6522612250119,-16.76220832503168 L -118.88826122500905,-17.538208325160667 L -114.58626122500573,-18.674208325042855 L -107.77426122500765,-20.014208325068466 L -100.19826122500672,-20.480208325141575 L -91.61626122500456,-20.472208325052634 L -84.51426122500561,-18.994208325108048 L -75.11426122501143,-17.368208325118758 L -65.66226122500666,-15.724208325089421 L -55.03026122500887,-15.938208325067535 L -44.20426122500794,-17.35020832507871 L -29.614261225011433,-20.94620832504006 L -16.556261225006892,-23.732208325061947 L -5.818261225002061,-24.720208325074054 L 6.4037387749922345,-23.89620832510991 L 18.87973877499462,-20.316208325035404 L 28.965738774990314,-14.916208325070329 L 39.029738774996076,-6.49220832507126 L 40.19573877500079,-7.342208325047977 L 53.47373877499194,-15.646208325051703 L 55.06773877499654,-19.270208325062413 L 62.14173877498979,-24.00620832509594 L 68.06573877499613,-25.71220832504332 L 121.96773877499072,-67.93620832503075 L 126.08773877499334,-71.9882083250559 L 126.95373877499514,-75.42820832505822 L 127.69973877499433,-77.52420832513599 L 129.81973877499695,-84.20820832508616 L 132.83173877499212,-94.99820832512341 L 132.04373877499893,-96.2162083251169 z" /><text x="-7.921852135141915" y="-42.857097824259455">Cuña Verde de la Latina</text><path fill-rule="evenodd" fill="#66cc99" stroke="#555555" stroke-width="2.0" opacity="0.6" d="M -104.58976122500462,75.12279167491943 L -109.23976122500608,74.10679167497437 L -113.96576122500846,72.374791674898 L -117.8137612250066,70.96479167492362 L -118.37376122500427,70.75879167491803 L -119.1257612249974,71.61279167496832 L -125.96576122500846,79.5227916748845 L -130.42976122500113,77.23079167498508 L -130.89376122500835,77.6947916749632 L -132.16776122500596,78.97279167501256 L -132.0437612250098,79.14279167499626 L -133.65776122500392,79.97679167491151 L -127.43376122500194,86.06679167493712 L -135.29776122500334,90.6947916749632 L -139.0357612250009,86.98679167497903 L -152.1477612250019,94.62679167487659 L -151.39176122500794,95.37079167494085 L -149.80176122500416,96.93679167487426 L -148.34576122500584,98.37279167491943 L -151.89976122500957,99.50079167500371 L -149.9237612249999,105.52879167499486 L -149.94376122500398,106.76879167498555 L -146.50376122500165,126.74079167487798 L -146.95976122499997,127.38879167492269 L -147.57776122500218,127.82279167498928 L -149.96976122500928,130.2407916749944 L -150.05576122500497,132.74479167495156 L -150.07376122500136,133.2387916748994 L -149.79376122500253,135.91679167497205 L -151.927761225008,140.60279167501722 L -156.98376122500486,149.39079167495947 L -164.36576122500992,148.79479167493992 L -163.39576122500875,162.374791674898 L -164.45176122499834,167.4307916748803 L -175.61776122500305,172.83279167494038 L -179.08776122500421,170.87879167497158 L -192.9777612250109,183.05479167500744 L -195.6277612250051,184.36079167493153 L -199.00976122500288,186.91479167493526 L -201.3777612249978,189.01079167495482 L -236.89576122500148,204.84879167488543 L -236.34976122499938,205.89479167491663 L -235.20376122499874,207.50879167497624 L -231.41376122500515,211.7847916749306 L -228.29576122500293,213.42879167495994 L -224.75176122500125,214.0707916749525 L -222.7017612250056,213.9887916749576 L -218.93776122500276,213.70079167489894 L -215.78376122500777,212.38279167498695 L -174.60376122500747,193.15479167492595 L -140.73976122500608,177.3427916748915 L -143.72576122500323,174.9667916749604 L -145.61976122500346,173.46279167488683 L -141.48176122500445,166.8667916749837 L -139.96376122500078,163.9887916748994 L -136.97976122500404,164.8207916749525 L -132.61176122500183,157.0467916749185 L -127.29976122501103,147.0907916749129 L -122.60776122500101,138.52079167496413 L -124.02976122500695,138.12279167503584 L -120.61376122500951,132.14679167495342 L -118.59576122500584,128.9327916749171 L -114.67176122500678,96.5927916750079 L -111.89776122500916,89.36279167491011 L -106.70576122500643,82.40479167486774 L -104.90976122500433,80.54479167488171 L -98.19176122500357,77.69279167498462 L -101.86576122500264,76.16679167491384 L -104.58976122500462,75.12279167491943 z" /><text x="-153.8036727555045" y="145.70285446824658">Parque de Eugenia de Montijo</text><path fill-rule="evenodd" fill="#66cc99" stroke="#555555" stroke-width="2.0" opacity="0.6" d="M -222.85476122500404,287.29829167493153 L -193.03876122500515,289.10429167485563 L -193.13876122501097,290.0662916749134 L -199.45476122500258,350.95229167485377 L -228.5267612250027,349.36429167492315 L -222.85476122500404,287.29829167493153 z" /><text x="-210.9626944046012" y="319.0459839394593">Parque de La Peseta</text><path fill-rule="evenodd" fill="#66cc99" stroke="#555555" stroke-width="2.0" opacity="0.6" d="M 51.89973877499142,74.5162916748086 L 41.391738774997066,65.15829167491756 L 34.90373877499951,59.38229167490499 L 34.1717387749959,58.73029167478671 L 27.17373877499631,52.500291674921755 L 6.007738774991594,66.60629167489242 L -2.440261224997812,72.22029167483561 L -2.9162612250001985,72.64629167487146 L -3.288261225010501,73.10029167489847 L -5.10026122500858,74.37029167480068 L -7.054261225006485,74.36429167492315 L -8.094261225000082,74.10629167489242 L -9.254261225003575,74.16229167481652 L -66.78026122500887,89.28429167490685 L -87.79026122500363,104.91629167483188 L -93.73826122500031,109.34229167480953 L -86.38026122500014,115.01029167481465 L -84.3742612250062,116.61629167484352 L -80.1262612250066,119.97229167481419 L -76.36826122500497,122.62229167483747 L -82.1942612250059,133.64829167490825 L -70.92226122500142,135.08229167491663 L -73.15426122499775,145.3462916748831 L -75.6242612250062,144.94629167491803 L -79.13426122500096,154.95629167481093 L -78.84826122500817,158.17229167488404 L -77.04226122500404,160.59229167486774 L -75.23026122500596,163.02029167482397 L -79.72626122499787,163.1402916748193 L -89.5582612250073,167.3702916749171 L -89.77026122500683,167.79229167487938 L -89.15026122500421,170.06829167489195 L -88.53826122500323,172.310291674803 L -87.34026122499927,174.12629167485284 L -86.56826122500206,180.3682916748803 L -86.0102612250048,180.8022916748887 L -69.78026122500887,184.74829167476855 L -69.61426122500416,185.4262916748994 L -61.18226122500346,231.60229167493526 L -58.04026122500363,233.59029167483095 L 69.01573877499322,191.91829167486867 L 57.88773877499625,115.59429167484632 L 55.157738775000325,96.8682916748221 L 51.89973877499142,74.5162916748086 z" /><text x="-8.688812452244544" y="144.587998777638">Finca Vista Alegre</text><path fill-rule="evenodd" fill="#66cc99" stroke="#555555" stroke-width="2.0" opacity="0.6" d="M -40.387261225005204,-49.187708325101994 L -45.05926122501114,-48.36970832507359 L -50.6832612250073,-45.71370832499815 L -61.23526122500334,-38.83770832512528 L -46.7712612250034,-34.277708325127605 L -30.351261225012422,-29.963708325114567 L -26.17526122500567,-28.56370832514949 L -23.72526122500858,-26.775708325090818 L -16.007261225000548,-20.39770832506474 L -8.881261225003982,-15.849708325054962 L 0.02873877499223454,-11.045708325051237 L 13.820738774993515,-5.793708325072657 L 18.610738774994388,-10.071708325005602 L 35.34073877499759,-1.5817083251313306 L 36.28873877499427,-1.9997083250782453 L 39.54073877499468,-1.201708325126674 L 46.058738774998346,-6.081708325014915 L 63.716738774994155,-5.033708325121552 L 62.636738774999685,13.740291674854234 L 68.4127387749977,14.212291674979497 L 70.89873877499485,14.464291674899869 L 71.03273877500033,13.496291674964596 L 71.19473877499695,12.250291674921755 L 71.78873877499427,5.686291674966924 L 76.54073877499468,2.7122916748630814 L 87.57073877499352,2.7122916748630814 L 93.80873877499107,3.6942916749976575 L 97.10073877499235,7.846291674883105 L 107.29473877498822,25.694291674881242 L 105.16473877499811,27.546291674894746 L 108.50273877499421,28.634291674941778 L 111.03873877499427,29.814291674993 L 112.9787387749966,31.718291674915235 L 114.64873877498758,36.22029167495202 L 115.77673877499183,36.076291674980894 L 116.4327387749945,35.9942916748696 L 116.9567387749994,35.92829167493619 L 114.5467387749959,29.26029167487286 L 114.67873877499369,26.93029167491477 L 115.61473877498793,24.652291674923617 L 117.81473877499229,21.860291674965993 L 124.76073877499584,15.992291674891021 L 125.00873877498816,9.862291674886364 L 125.39673877499445,5.654291674843989 L 127.60473877499317,-2.4337083250284195 L 132.954738774999,-1.7817083250847645 L 135.16673877499125,-1.511708325066138 L 131.10273877499276,-4.139708325034007 L 132.67273877499974,-6.153708325116895 L 133.69873877499776,-7.3117083250544965 L 169.65073877499526,-34.52970832504798 L 170.23273877499742,-35.32770832499955 L 170.57673877499474,-35.85370832507033 L 170.5687387749931,-36.4477083250531 L 171.2947387749955,-37.30170832504518 L 172.4027387749884,-37.89370832499117 L 173.56273877499189,-37.96170832507778 L 174.77873877499223,-37.63770832517184 L 175.7267387749962,-36.92570832505589 L 176.06673877499998,-36.11570832511643 L 176.1167387749956,-35.33370832510991 L 205.55673877499066,-20.22770832508104 L 206.89673877499445,-19.371708325110376 L 207.96073877499293,-18.38370832509827 L 213.9527387749913,-11.375708325067535 L 216.9287387749937,-12.11170832515927 L 230.0227387749983,-14.973708325065672 L 231.2867387749866,-15.241708325047512 L 229.80273877499712,-19.68170832504984 L 234.17473877500015,-27.18170832504984 L 179.67273877499247,-47.715708325093146 L 135.91873877499893,-64.29370832501445 L 126.81473877499229,-67.5517083251616 L 124.64273877499363,-67.96570832515135 L 123.00473877499462,-67.6637083250098 L 121.98473877499055,-67.01170832506614 L 121.16073877499002,-65.94570832513273 L 120.76473877498938,-62.9817083250382 L 119.8367387749895,-56.04770832514623 L 119.1827387749945,-54.189708325022366 L 118.7027387749913,-52.829708325036336 L 116.58273877499596,-49.87770832510432 L 113.75473877499462,-48.39570832508616 L 109.87473877499724,-47.63570832501864 L 104.45273877499858,-47.099708324996755 L 98.05473877499753,-46.547708325088024 L 74.75273877499421,-44.501708325056825 L 54.44473877498967,-42.50570832507219 L 26.732738774997415,-40.08170832513133 L -40.387261225005204,-49.187708325101994 z" /><text x="88.59011226377648" y="-25.707023846330422">Parque de San Isidro</text><path fill-rule="evenodd" fill="#66cc99" stroke="#555555" stroke-width="2.0" opacity="0.6" d="M -49.69626122500631,-3.574208325066138 L -50.20226122500026,32.50779167492874 L -38.65026122501149,42.151791674958076 L -89.0582612250073,72.83379167492967 L -90.46226122500957,71.46979167492827 L -104.6242612250062,56.75979167496553 L -124.79426122500445,43.6937916749157 L -147.11026122501062,48.10779167490546 L -150.63826122500905,48.56379167496925 L -152.8302612250045,41.46179167495575 L -158.1922612250055,23.949791674967855 L -160.60426122500212,16.071791674999986 L -161.46826122500352,13.253791674855165 L -166.29626122500486,4.611791674920823 L -182.75226122500317,10.301791674923152 L -191.11426122500416,0.47979167493758723 L -185.3322612250049,-1.8922083250363357 L -193.51626122500602,-9.072208325087558 L -203.92426122500183,-11.986208325077314 L -210.41826122500788,-10.428208325058222 L -214.5082612250044,-13.612208325008396 L -222.31226122500811,-21.470208325015847 L -217.76826122499915,-22.19820832501864 L -213.34826122500817,-22.176208325021435 L -208.8682612249977,-21.760208324994892 L -199.50426122500357,-20.74220832507126 L -49.69626122500631,-3.574208325066138 z" /><text x="-112.73964059773506" y="18.952080468283057">Parque del Cerro Almodóvar</text><path fill-rule="evenodd" fill="#66cc99" stroke="#555555" stroke-width="2.0" opacity="0.6" d="M 130.75773877499887,267.89179167483235 L 132.355738774997,217.45179167488823 L 88.64373877499747,220.68579167488497 L 88.06573877499613,215.42379167489707 L 87.60573877499701,214.75179167487659 L 135.717738774998,211.85979167488404 L 148.49573877499643,210.9897916749469 L 150.88573877499584,211.42379167489707 L 153.34173877499416,214.86779167497298 L 157.81573877499613,224.87979167484445 L 156.45373877499514,233.99379167490406 L 155.67973877499753,242.56379167491104 L 155.5577387749945,245.99379167490406 L 156.91173877500114,255.65379167493666 L 157.63373877499544,265.2177916748915 L 157.47973877499317,269.42579167487565 L 130.09973877499579,268.5557916749385 L 130.75773877499887,267.89179167483235 z" /><text x="138.87590861508255" y="237.40253692303082">Parque Av. de los Poblados</text><path fill-rule="evenodd" fill="#66cc99" stroke="#555555" stroke-width="2.0" opacity="0.6" d="M 26.198738774997764,213.89379167492734 L 43.2027387749913,215.27779167488916 L 44.22673877499619,215.38179167482303 L 52.478738774989324,216.2157916749129 L 70.77673877499183,217.82379167497857 L 95.60473877499317,220.0117916749441 L 102.09673877499154,220.02779167483095 L 116.77673877499183,219.24179167492548 L 122.23073877499701,218.99379167484585 L 133.00073877498653,218.2957916749292 L 145.3147387749923,217.7857916749199 L 145.6987387749905,219.80979167483747 L 145.60673877499357,223.3197916749632 L 144.8587387749867,224.08579167496646 L 122.44673877499736,225.14979167486308 L 116.97673877499619,225.35379167483188 L 99.39273877499363,224.98979167483049 L 75.87073877499643,224.66179167485097 L 52.344738774998405,222.92379167489707 L 44.12673877499037,222.45779167494038 L 42.86273877498752,265.59979167493293 L 41.700738774990896,266.4217916748603 L -11.855261225005961,265.55379167495994 L -68.0432612250006,264.62979167496087 L -42.63526122501207,243.71179167495575 L -12.443261225002061,219.1497916749795 L -10.115261225000722,217.7717916748952 L -8.229261225009395,217.29179167485563 L -4.317261225005495,216.8997916749795 L -0.40526122500159545,216.023791674932 L 2.956738774992118,214.77779167488916 L 5.470738774987694,213.36579167487798 L 7.512738774996251,212.50379167491337 L 9.836738774996775,212.33779167494504 L 14.118738774996018,212.8077916749171 L 26.198738774997764,213.89379167492734 z" /><text x="13.264562712103729" y="240.33091005013733">Parque de la Volatería</text><path fill-rule="evenodd" fill="#66cc99" stroke="#555555" stroke-width="2.0" opacity="0.6" d="M -35.36576122500264,196.77129167498788 L -33.57176122500823,196.68129167490406 L -32.06576122500701,196.60529167484492 L -12.179761225008406,195.61129167489707 L -1.6797612250011298,195.0852916748845 L 1.1982387749958434,194.94129167491337 L 4.974238774993864,196.77129167498788 L 9.510238774993923,197.5752916749916 L 16.22023877499305,195.9952916748589 L 31.376238774995727,197.01129167492036 L 40.66423877499619,197.80729167483514 L 43.63223877499695,198.1532916749129 L 44.95823877499788,201.4252916749101 L 44.058238774996425,204.82129167497624 L 25.902238774993748,219.415291674959 L 19.95023877499625,224.2012916749227 L 17.472238774993457,226.27529167482862 L -3.1257612249974045,243.51929167483468 L -16.60776122500829,254.36729167489102 L -49.43776122500276,280.78529167495435 L -65.35776122500101,295.1052916748449 L -78.91976122499909,307.803291674878 L -88.27776122500654,304.2652916749357 L -93.31776122500014,302.2892916749697 L -92.85176122500707,301.8932916749036 L -51.25376122500893,266.07729167485377 L -49.29376122500253,264.3892916748882 L -38.46576122500119,254.20329167495947 L -34.5357612250009,247.98529167490778 L -34.32376122500136,246.83129167492734 L -31.21176122500765,229.9472916748491 L -30.72176122500241,226.25129167485284 L -31.435761225002352,219.31129167490872 L -34.99176122499921,198.91729167487938 L -35.22376122500282,197.58129167492734 L -35.36576122500264,196.77129167498788 z" /><text x="-17.48884171011612" y="234.45005607670262">Parque de Buenavista</text><path fill-rule="evenodd" fill="#66cc99" stroke="#555555" stroke-width="2.0" opacity="0.6" d="M -182.11826122500497,187.64579167484771 L -188.25426122501085,185.6377916748752 L -201.1702612250083,184.1377916749334 L -202.30226122500608,184.2837916749413 L -201.9922612250084,183.8297916749143 L -197.93826122500468,182.6937916748575 L -190.0142612250056,181.2377916748519 L -176.2802612250016,183.45979167486075 L -163.2342612249995,189.7377916748519 L -150.7422612250084,197.28779167484026 L -140.63626122500136,203.39579167490592 L -124.63826122500905,213.06379167491104 L -111.73626122499991,220.86179167492082 L -109.24026122500072,222.33379167492967 L -103.27826122500846,225.84779167495435 L -86.32226122500288,235.84379167493898 L -82.3742612250062,237.3057916748221 L -78.26826122499915,238.82579167484073 L -69.67826122500264,240.60979167494224 L -56.632261225007824,243.09379167482257 L -45.31026122500043,243.33179167489288 L -42.122261225005786,243.4777916749008 L -32.43026122500305,241.749791674898 L -25.066261225001654,240.05179167492315 L -14.51626122500602,237.62179167481372 L -12.84226122500695,237.23579167487333 L -8.108261225002934,236.14579167490592 L -2.932261225010734,234.95379167492501 L 12.023738774994854,233.9217916749185 L 15.667738774995087,233.6697916748235 L 23.599738774995785,233.12179167481372 L 24.273738774994854,233.07579167484073 L 24.899738774998696,235.591791674844 L 24.637738774988975,237.14379167492734 L 10.445738774993515,237.90579167485703 L 8.867738774999452,236.40179167489987 L -7.576261225003691,239.08979167492362 L -12.182261225003458,239.86179167486262 L -12.080261225004506,242.0917916749022 L -32.77426122500037,246.8077916748589 L -35.75626122500398,246.75379167479696 L -47.92426122500183,246.5337916748249 L -58.822261225002876,246.34579167485936 L -65.03626122500282,245.93579167494318 L -76.84626122500049,248.64179167483235 L -80.62826122500701,248.38979167491198 L -78.09026122499927,245.68779167486355 L -78.00826122500439,245.40579167485703 L -77.64826122500381,244.16779167484492 L -109.35026122500858,228.28979167493526 L -112.7122612250023,230.9677916749497 L -118.4242612250091,227.88379167485982 L -120.09026122500654,229.2517916749348 L -121.98826122500031,228.3857916748966 L -124.48426122500678,226.95579167478718 L -127.15826122500584,225.35779167490546 L -129.9642612250027,223.79179167491384 L -132.41826122500788,222.55379167478532 L -128.49426122500154,218.65579167485703 L -139.24826122500963,212.88379167491803 L -137.94826122500672,212.12979167490266 L -137.23826122500031,211.7177916749497 L -140.5762612250037,209.09179167478578 L -168.04026122500363,192.6137916749576 L -182.11826122500497,187.64579167484771 z" /><text x="-97.92235210001311" y="222.29897473220927">Parque del Anillo Verde</text><path fill-rule="evenodd" fill="#66cc99" stroke="#555555" stroke-width="2.0" opacity="0.6" d="M -190.54076122500555,192.00129167491104 L -192.30676122500154,192.59529167489382 L -192.7567612250059,192.46529167494737 L -193.37476122500811,192.28729167499114 L -188.20476122500258,186.98729167500278 L -185.8907612250041,186.11529167491244 L -177.92876122500456,187.4952916749753 L -148.55876122500922,192.58329167490592 L -137.13076122500206,194.61929167498602 L -135.35876122500486,195.24329167499673 L -133.1007612250105,196.03729167493293 L -132.69476122500782,197.0172916749725 L -133.01276122500713,199.15329167497111 L -134.70676122501027,200.92929167492548 L -138.11876122499962,203.84529167495202 L -139.63076122500934,205.15929167490685 L -142.53676122500474,206.60529167490313 L -144.67876122500456,210.2112916749902 L -145.53876122501242,210.72929167491384 L -147.17876122501184,210.35529167496134 L -152.82276122501207,208.5312916749972 L -155.67276122501062,208.0632916748873 L -156.26676122500066,207.96529167488916 L -155.10876122500486,206.10329167504096 L -154.90276122500654,205.77329167502467 L -154.67076122500293,205.39729167503538 L -152.68276122500538,202.1992916750023 L -164.03876122500515,197.6652916749008 L -165.50476122501277,198.96929167490453 L -166.13676122500328,198.92529167496832 L -166.8207612250044,198.5872916750377 L -166.302761225008,197.3472916749888 L -167.28276122500392,197.1312916749157 L -190.54076122500555,192.00129167491104 z" /><text x="-158.33986120875142" y="196.64671654776126">Parque del Parterre</text><path fill-rule="evenodd" fill="#66cc99" stroke="#555555" stroke-width="2.0" opacity="0.6" d="M -154.42176122500678,191.8152916749823 L -155.32176122500823,191.23729167488636 L -156.79976122500375,189.93529167486122 L -157.38976122500753,188.95329167490127 L -157.4937612250069,188.05929167481372 L -157.12176122500387,186.74729167483747 L -156.89176122500794,186.41329167492222 L -155.90576122500352,184.9832916748128 L -155.11776122500305,184.1772916749469 L -154.42376122500718,183.88329167489428 L -153.73976122500608,183.92329167493153 L -149.28776122500858,185.95529167482164 L -129.85376122500747,194.68129167490406 L -113.80176122500416,201.88929167488823 L -101.57976122500258,207.37729167490033 L -87.64176122500794,214.08129167498555 L -87.94176122500357,214.6772916749469 L -90.58176122501027,216.49129167484352 L -94.34176122500503,218.82129167491803 L -95.219761225002,218.80329167487798 L -96.18576122500235,218.59129167493666 L -97.24776122500771,218.38929167483002 L -118.80576122500497,205.30529167485656 L -132.34176122500503,197.51329167489894 L -135.39576122500875,196.12729167490033 L -140.8337612250034,194.3132916748873 L -145.53376122500777,193.43529167486122 L -153.12576122500468,192.38929167483002 L -154.42176122500678,191.8152916749823 z" /><text x="-121.37695029913594" y="201.83228696968428">Parque Avenida de los Poblados</text><path fill-rule="evenodd" fill="#66cc99" stroke="#555555" stroke-width="2.0" opacity="0.6" d="M -108.99476122501073,180.9567916749511 L -103.78076122500352,168.670791674871 L -103.36276122500567,167.6847916750121 L -103.0047612250055,166.73279167496366 L -99.62676122500852,157.72079167497577 L -98.69076122500701,155.44679167494178 L -64.05876122500922,163.0247916749795 L -56.770761225008755,162.54279167490313 L -59.36076122500526,170.78679167490918 L -63.194761225007824,175.7287916749483 L -65.13876122500369,178.172791674966 L -73.80076122500759,186.95079167489894 L -75.24876122501155,186.72079167491756 L -91.49676122501114,184.1367916750023 L -108.99476122501073,180.9567916749511 z" /><text x="-83.82549071862222" y="171.65842338074836">Parque Santa Rita</text><path fill-rule="evenodd" fill="#66cc99" stroke="#555555" stroke-width="2.0" opacity="0.6" d="M 5.9147387749981135,96.13429167494178 L 11.740738774991769,92.39029167493572 L 18.49673877499299,96.53829167498043 L 12.698738774997764,102.22429167490918 L 5.9147387749981135,96.13429167494178 z" /><text x="12.242020411888463" y="96.98449030111874">Jardines de Enrique Morente</text><path fill-rule="evenodd" fill="#66cc99" stroke="#555555" stroke-width="2.0" opacity="0.6" d="M 119.31923877499503,38.25579167489195 L 122.63723877499433,25.935791674884968 L 123.5192387749994,26.169791674881708 L 128.71123877500213,27.543791674892418 L 134.3132387749938,29.091791674960405 L 136.52323877499293,29.62179167487193 L 136.2232387749973,30.001791674934793 L 135.11523877499712,31.353791674948297 L 134.46323877500254,32.06179167481605 L 133.43323877499643,33.35779167490546 L 132.89523877500324,33.95979167486075 L 131.7892387749962,35.3537916749483 L 131.25723877499695,35.901791674958076 L 130.02723877499375,37.47979167493759 L 129.57723877499666,38.109791674884036 L 128.59923877499386,39.27579167485237 L 127.54923877499823,40.58779167482862 L 119.31923877499503,38.25579167489195 z" /><text x="126.75446401809339" y="33.113485646775494">Plaza Cantoria</text><path fill-rule="evenodd" fill="#66cc99" stroke="#555555" stroke-width="2.0" opacity="0.6" d="M 38.48623877499631,-26.515708325139713 L 40.47823877499468,-32.74570832506288 L 40.806238775003294,-39.98970832512714 L 45.43423877500027,-40.093708325061016 L 49.512238775001606,-39.855708325107116 L 57.74223877500481,-43.00970832502935 L 59.91423877500347,-41.217708325129934 L 64.11623877500097,-39.08770832512528 L 68.58223877500131,-37.19170832511736 L 73.27223877499637,-36.06970832508523 L 79.06023877500411,-35.5517083251616 L 86.82623877500009,-35.49570832506288 L 94.01623877499514,-35.67970832507126 L 97.29623877500126,-35.841708325140644 L 99.68223877499258,-35.81770832510665 L 101.33823877500254,-35.37970832514111 L 102.37223877499491,-35.309708325134125 L 103.13823877499817,-35.50770832505077 L 103.77823877499759,-35.87770832510432 L 106.98823877500399,-37.141708325129 L 112.39023877499858,-37.937708325043786 L 119.7142387749991,-38.30370832502376 L 119.83023877500091,-37.391708325070795 L 119.02623877499718,-35.689708325080574 L 117.88223877499695,-34.58970832510386 L 116.23823877499672,-33.82170832512202 L 114.04423877500085,-33.31970832508523 L 111.14023877499858,-33.01970832509687 L 90.58423877500172,-31.233708325133193 L 46.92423877499823,-27.115708325058222 L 38.48623877499631,-26.515708325139713 z" /><text x="68.9739432019531" y="-33.94583535039065">Parque de San Isidro</text><path fill-rule="evenodd" fill="#66cc99" stroke="#555555" stroke-width="2.0" opacity="0.6" d="M -59.54776122500334,162.04879167495528 L -62.217761225001595,161.41879167495063 L -62.01376122501097,160.62079167488264 L -64.60576122500788,159.1347916748491 L -64.49976122500811,158.3867916749441 L -61.51176122500328,158.6707916749874 L -57.46176122500765,159.0567916749278 L -56.60176122499979,154.11079167498974 L -55.90976122500433,153.87279167491943 L -55.05576122501225,153.5787916748668 L -54.43976122500317,148.51679167500697 L -52.71576122500119,149.22279167501256 L -51.887761225007125,149.58479167497717 L -51.21376122500806,149.98679167497903 L -50.63576122500672,150.3307916748454 L -48.749761225008115,154.9307916748803 L -47.20776122499956,160.45879167498788 L -47.025761225006136,161.12279167491943 L -47.63576122500672,161.16879167489242 L -59.54776122500334,162.04879167495528 z" /><text x="-53.86971062930437" y="157.04739952540552">Plaza de Carabanchel</text><path fill-rule="evenodd" fill="#66cc99" stroke="#555555" stroke-width="2.0" opacity="0.6" d="M -80.75426122500357,205.59029167494737 L -79.98426122500678,204.75429167493712 L -78.48226122500637,203.19629167491803 L -77.46626122500311,201.97429167485097 L -86.19826122500672,198.11229167494457 L -87.74626122500194,197.3702916749171 L -88.48826122500759,197.17429167492082 L -88.07226122500288,196.5622916748398 L -87.74226122500113,195.77429167489754 L -78.00226122501044,199.22829167492455 L -77.30626122499962,198.08829167491058 L -76.9442612250059,197.4022916748654 L -76.50026122500276,197.55829167482443 L -61.772261224999966,202.86629167490173 L -60.622261225005786,203.2802916749497 L -61.02626122500806,203.85429167497205 L -63.76826122500643,207.73829167487565 L -67.05826122500002,212.40029167494504 L -80.75426122500357,205.59029167494737 z" /><text x="-72.2264705045561" y="204.0284025518672">Parque de los Pinos</text><path fill-rule="evenodd" fill="#66cc99" stroke="#555555" stroke-width="2.0" opacity="0.6" d="M -248.90476122500695,344.5172916749143 L -238.72076122499857,345.0052916749264 L -236.2527612250051,370.49129167490173 L -245.482761225001,370.3132916749455 L -255.2327612250083,369.8012916749576 L -248.90476122500695,344.5172916749143 z" /><text x="-244.88506943543888" y="358.7738678192645">Jardín Cuartel Grande</text><path fill-rule="evenodd" fill="#66cc99" stroke="#555555" stroke-width="2.0" opacity="0.6" d="M -292.7362612250072,115.14479167491663 L -293.378261225007,117.45679167495109 L -296.20226122500026,126.28079167491524 L -296.13626122500136,128.98479167494224 L -295.36626122500456,130.07279167487286 L -280.22226122500433,139.87279167486122 L -252.94826122499944,142.2947916748817 L -201.0122612250052,146.9087916749413 L -188.39026122500945,152.44279167498462 L -176.3102612250077,176.88479167496553 L -173.34226122500695,180.31279167492175 L -172.5562612250069,181.68879167496925 L -172.0822612250049,182.51679167494876 L -171.28626122500282,183.95079167495715 L -170.41026122500625,185.91479167487705 L -170.48626122500718,188.4107916749199 L -169.81426122500852,190.06079167488497 L -168.2602612250048,191.76079167501302 L -165.48426122500678,192.9087916748831 L -163.11226122500375,192.84479167487007 L -161.6742612250091,192.84479167487007 L -160.90626122500544,192.84479167487007 L -158.55226122500608,193.18079167493852 L -155.7582612250044,193.92679167486494 L -154.14226122500258,194.79279167490313 L -153.11226122500375,195.34679167496506 L -133.6902612249978,205.06079167494318 L -126.88426122500096,207.5347916748724 L -123.57426122500328,208.72479167499114 L -122.76626122500602,209.53879167500418 L -122.65426122500503,210.40679167490453 L -123.0122612250052,211.19879167492036 L -132.3662612249973,220.86079167498974 L -136.8702612249981,232.45879167492967 L -138.16226122499938,235.78679167490918 L -138.25226122500317,236.01879167492734 L -139.09426122500008,236.70079167495715 L -139.91626122500747,237.36879167490406 L -140.77626122500078,238.06479167495854 L -148.73826122500031,237.55879167484818 L -157.4662612250031,243.73479167500045 L -167.18626122501155,251.18479167495389 L -167.02626122500806,255.29479167493992 L -167.6942612250059,255.8967916748952 L -168.84826122500817,256.7487916748505 L -169.6722612250087,257.3787916749716 L -171.13826122500905,257.5447916749399 L -184.4642612250027,253.38079167489195 L -262.1502612250042,253.36279167496832 L -262.74426122500154,260.70079167489894 L -264.22426122500474,260.7307916749269 L -265.4922612250084,261.0727916749893 L -266.90826122500584,268.05479167500744 L -267.59426122500736,271.43879167485284 L -268.0862612250057,273.86079167493153 L -269.4882612250076,279.2047916749725 L -270.3482612250009,282.48279167490546 L -273.5042612250036,294.5127916749334 L -274.13426122500823,296.9127916750149 L -299.81826122500934,292.2067916750093 L -294.1482612250038,257.7287916749483 L -319.1542612250123,203.42679167492315 L -326.3742612250062,205.87079167488264 L -326.2082612250015,205.41279167495668 L -325.7922612250113,204.27079167496413 L -326.18226122500346,203.14079167495947 L -327.1002612250086,202.54879167489707 L -328.5382612250105,202.53079167497344 L -329.9282612250099,203.24879167496692 L -330.86226122500375,204.76679167494876 L -340.02026122499956,207.60679167485796 L -335.5362612250028,203.48479167488404 L -315.24626122500194,179.21079167496646 L -314.36026122500334,176.56279167486355 L -314.12826122499973,175.8667916749837 L -313.45626122500835,173.8627916748519 L -299.25026122500276,168.06079167488497 L -295.0542612250065,162.45879167492967 L -293.808261225,160.79479167493992 L -292.766261225006,159.40279167488916 L -297.74426122500154,152.8627916749101 L -304.17826122500264,140.11879167490406 L -310.29426122500445,125.61679167498369 L -313.68426122501114,117.65279167494737 L -315.77426122500765,112.85479167487938 L -322.77626122500806,96.78479167498881 L -333.3962612250107,72.40679167484632 L -340.2322612249991,66.51479167491198 L -340.1222612250058,65.70279167499393 L -315.1642612249998,52.2727916748845 L -313.6302612250074,52.578791674925014 L -313.0822612250049,52.9667916749022 L -312.79226122500404,53.57879167498322 L -313.990261225008,55.69879167486215 L -262.39426122501027,60.640791674901266 L -245.3742612250062,74.5807916749618 L -251.740261225008,71.47079167485936 L -267.58826122500614,67.46879167499719 L -280.23026122500596,92.01879167498555 L -280.4362612250043,103.63879167492269 L -292.28026122500887,113.58679167489754 L -292.7362612250072,115.14479167491663 z" /><text x="-247.24459995977972" y="187.43385463334755">Parque de Las Cruces</text><path fill-rule="evenodd" fill="#66cc99" stroke="#555555" stroke-width="2.0" opacity="0.6" d="M -27.53676122500474,114.43079167488031 L -31.408761225007765,111.71079167496646 L -33.29276122500596,112.01079167489661 L -35.108761225004855,110.71079167490825 L -39.24076122500992,107.74879167485051 L -45.96476122500462,102.93079167493852 L -49.8647612249988,105.96879167493898 L -49.16076122500817,106.57279167487286 L -45.71476122500462,109.53079167491524 L -44.15276122500654,110.87079167494085 L -40.286761225012015,114.18879167491104 L -37.624761225008115,116.47479167493293 L -36.31476122501044,116.81479167490033 L -33.288761225005146,115.99279167479835 L -27.53676122500474,114.43079167488031 z" /><text x="-39.52902763890388" y="110.60036362144888">Parque Fuente de Vista Alegre</text><path fill-rule="evenodd" fill="#66cc99" stroke="#555555" stroke-width="2.0" opacity="0.6" d="M 49.24423877499066,-10.800708325114101 L 42.35223877499084,-14.508708325098269 L 38.54823877499439,-9.186708324996289 L 44.47223877499346,-6.530708325095475 L 48.0982387749973,-9.77470832504332 L 49.24423877499066,-10.800708325114101 z" /><text x="43.68399762269684" y="-10.360982144035795">Plaza de Julio Cortázar</text><path fill-rule="evenodd" fill="#66cc99" stroke="#555555" stroke-width="2.0" opacity="0.6" d="M 105.03873877500155,136.1862916748505 L 106.6187387750033,135.34829167486168 L 107.63073877499846,134.81829167495016 L 107.33673877499677,134.4722916748724 L 110.79273877500236,132.69029167492408 L 113.87073877499643,131.08029167487985 L 117.15073877499526,129.42029167484725 L 120.2087387749998,127.75029167492175 L 123.19073877499613,126.13829167484073 L 126.41873877499893,124.31029167491943 L 126.66673877499852,124.15229167492362 L 126.92073877499934,124.41829167492688 L 128.42673877499328,123.60429167491384 L 129.97273877499538,122.83629167487379 L 128.2707387749906,120.93229167483514 L 120.71473877499375,112.56829167483374 L 95.68273877500178,125.86629167490173 L 103.19873877499049,134.154291674844 L 105.03873877500155,136.1862916748505 z" /><text x="112.76066450102583" y="124.26911924484175">Plaza de Setúbal</text><path fill-rule="evenodd" fill="#66cc99" stroke="#555555" stroke-width="2.0" opacity="0.6" d="M 57.14573877499788,70.85429167479742 L 59.1297387750019,71.43029167485656 L 62.06773877499654,72.31829167483374 L 64.69973877499433,73.11429167492315 L 65.23573877500166,73.23829167481745 L 63.8537387749966,75.70629167481093 L 62.5157387750005,78.0962916748831 L 61.75973877499928,77.83629167481558 L 53.86173877499823,75.4942916748696 L 55.13173877499503,73.02229167486075 L 56.345738775002246,70.6542916749022 L 57.14573877499788,70.85429167479742 z" /><text x="59.499979483784635" y="74.35106930232577">Plaza Gándara de Oro</text><path fill-rule="evenodd" fill="#66cc99" stroke="#555555" stroke-width="2.0" opacity="0.6" d="M 110.78873877499427,142.14929167483933 L 108.66473877499811,139.8352916749427 L 106.34873877499194,137.3112916748505 L 104.13673877499969,134.96729167492595 L 102.73073877499701,133.33129167498555 L 104.25473877499462,132.48929167492315 L 105.20073877499817,132.0292916749604 L 105.7287387749966,131.69529167492874 L 105.99473877499258,131.94129167491337 L 124.83073877499555,121.8592916749185 L 124.57073877499352,121.5392916748533 L 126.02273877499101,120.75129167491104 L 127.55273877498985,119.96329167491058 L 129.02873877499223,121.58529167500092 L 131.18673877499532,123.95929167489521 L 134.64073877499322,127.75729167490499 L 120.0467387749959,134.27529167494504 L 110.78873877499427,142.14929167483933 z" /><text x="118.43470445513083" y="130.68616743297326">Plaza de Coímbra</text><path fill-rule="evenodd" fill="#66cc99" stroke="#555555" stroke-width="2.0" opacity="0.6" d="M 35.41823877498973,121.67029167490546 L 38.24023877498985,120.89029167487752 L 37.20623877499747,118.7802916749497 L 36.050238774994796,119.12829167488962 L 35.41823877498973,119.59029167488916 L 35.094238774996484,120.05029167491011 L 35.02823877499759,120.68629167490872 L 35.41823877498973,121.67029167490546 z" /><text x="36.49726151336638" y="120.28488298171224">Plaza Méndez Parada</text><path fill-rule="evenodd" fill="#66cc99" stroke="#555555" stroke-width="2.0" opacity="0.6" d="M -128.59176122500503,223.54429167491617 L -129.16376122499787,223.26029167487286 L -129.6737612249999,223.00829167489428 L -140.1517612250027,217.81429167487659 L -141.8117612250062,219.8242916749441 L -142.51176122500328,220.67229167488404 L -139.43576122500235,222.88029167498462 L -137.18976122500317,223.76429167494643 L -135.6957612250044,224.09429167496273 L -135.27576122499886,224.19029167492408 L -133.72376122499554,224.54429167491617 L -128.59176122500503,223.54429167491617 z" /><text x="-136.48122528684232" y="221.66947697670258">Plaza de Barragán</text><path fill-rule="evenodd" fill="#66cc99" stroke="#555555" stroke-width="2.0" opacity="0.6" d="M -53.959761224999966,157.3372916749213 L -53.27976122500695,161.32729167491198 L -57.95576122499915,161.8012916749576 L -57.61576122500264,164.0652916749823 L -62.26976122499764,164.54729167488404 L -63.163761225005146,163.62529167492175 L -61.92376122499991,161.37329167488497 L -60.04576122499566,157.95929167495342 L -53.959761224999966,157.3372916749213 z" /><text x="-58.215533910341286" y="160.76208485083282">Plaza de la Parroquia</text><path fill-rule="evenodd" fill="#66cc99" stroke="#555555" stroke-width="2.0" opacity="0.6" d="M -150.1072612249991,220.5347916748724 L -150.84326122500352,223.77079167490592 L -152.30726122499618,223.57879167492501 L -154.39526122499956,225.8967916748952 L -155.57726122500026,227.352791674959 L -157.10526122500596,229.52879167493666 L -158.49926122499892,231.61079167487333 L -159.0652612250051,232.602791674959 L -159.29726122499414,233.00679167493945 L -160.89326122500643,232.78879167482955 L -159.67326122500526,229.73079167492688 L -156.5432612250006,221.54879167495528 L -156.32926122500794,220.9887916748994 L -155.55326122500264,220.51679167494876 L -154.1592612250024,220.14079167495947 L -153.78326122499857,220.12879167497158 L -153.14726122499997,220.10679167485796 L -150.1072612249991,220.5347916748724 z" /><text x="-155.61295428303822" y="225.1304325028783">Plaza de la Emperatriz</text><path fill-rule="evenodd" fill="#66cc99" stroke="#555555" stroke-width="2.0" opacity="0.6" d="M -64.40926122500969,314.01429167494643 L -72.71126122500573,328.2462916748482 L -56.41926122500445,333.9402916748659 L -47.82726122500026,324.2462916748482 L -47.13326122500439,323.4642916749581 L -64.40926122500969,314.01429167494643 z" /><text x="-60.331365217303784" y="324.61838417240006">Parque del Real</text><path fill-rule="evenodd" fill="#66cc99" stroke="#555555" stroke-width="2.0" opacity="0.6" d="M 70.78723877499579,-25.969708325050306 L 79.05123877499136,-25.947708325111307 L 85.02923877498688,-26.363708325021435 L 84.4952387749945,-33.67770832503447 L 83.17923877499561,-36.75770832510898 L 81.0192387749994,-39.2537083249772 L 79.95723877499404,-39.919708325120155 L 80.17123877499398,-40.9697083249921 L 88.28123877499456,-41.279708325106185 L 93.7912387749966,-41.27170832513366 L 96.94323877499846,-41.61970832507359 L 103.36923877499794,-42.935708325123414 L 106.90923877499154,-44.357708325085696 L 110.8112387749934,-46.391708325129 L 113.18323877498915,-50.293708325130865 L 117.09523877499305,-52.86570832505822 L 120.68723877499724,-53.64170832501259 L 124.01123877499049,-53.92770832509268 L 128.40723877499113,-48.33370832510991 L 127.73123877499893,-46.3217083250056 L 135.00923877499736,-43.54770832502982 L 145.5352387749881,-42.15970832511084 L 154.34323877499264,-39.21370832511457 L 155.5392387749962,-41.26970832509687 L 147.7872387749885,-43.55170832504518 L 142.53123877499456,-44.44770832499489 L 135.17123877499398,-45.72570832504425 L 129.96123877499485,-47.77170832507545 L 130.33923877499183,-49.68170832504984 L 133.7232387749973,-49.96170832507778 L 153.16323877499235,-44.5277083250694 L 185.23523877499974,-35.51370832504472 L 186.88923877498746,-39.001708325056825 L 195.60123877499427,-38.57170832512202 L 201.23923877500056,-36.99570832506288 L 220.96923877499648,-27.865708325058222 L 234.05523877499218,-21.935708325123414 L 249.09123877499223,-14.593708325002808 L 265.4672387749888,-6.595708325039595 L 288.07323877499584,4.44429167493945 L 294.5652387749942,7.614291674864944 L 298.72923877499125,9.73829167499207 L 313.5412387749966,17.290291674959008 L 319.767238774999,20.464291674958076 L 332.2672387749917,22.53829167492222 L 342.04923877499823,24.05629167490406 L 347.03323877499497,24.826291674922686 L 369.23523877499247,28.970291674893815 L 377.5072387749897,30.860291674965993 L 384.7372387749929,33.73229167499812 L 383.8312387749902,34.15029167488683 L 382.54323877498973,34.51429167488823 L 381.32523877499625,34.84029167488916 L 380.22723877499084,34.87629167502746 L 378.0552387749922,34.78629167494364 L 376.50523877499654,34.640291674935725 L 374.8572387749955,34.11429167492315 L 372.59123877499223,33.22229167498881 L 369.29723877499055,31.878291674947832 L 365.6232387749915,30.352291674993467 L 362.5212387749925,29.42429167497903 L 359.29923877499095,28.806291674962267 L 356.57723877499666,28.688291674887296 L 353.69123877499806,28.806291674962267 L 350.1112387749963,29.298291674931534 L 346.4652387749884,30.166291674948297 L 346.79923877499823,30.88029167492641 L 347.4772387749981,32.37429167487426 L 347.8932387749883,33.018291674903594 L 350.18323877498915,32.71429167489987 L 350.5172387749917,33.1322916749632 L 347.2412387749937,34.812291674956214 L 345.2612387749905,36.19429167493945 L 344.4112387749992,37.11829167493852 L 345.0892387749991,37.50829167495249 L 345.91723877499317,37.91429167496972 L 347.84123877499223,36.108291674929205 L 351.39123877499514,34.3702916749171 L 354.7032387749932,33.49429167492781 L 358.94323877499846,33.14829167496646 L 361.64723877499637,33.43029167485656 L 364.41923877500085,34.2802916750079 L 366.63923877499474,35.32029167492874 L 368.2212387749896,36.274291675013956 L 370.0652387749942,37.6662916749483 L 371.9032387749976,39.89429167495109 L 372.80123877499136,42.41429167496972 L 372.86923877499794,44.34429167496273 L 372.46323877499526,46.236291674897075 L 371.4492387749924,48.090291674947366 L 370.09723877499346,49.81429167493479 L 365.3152387749942,54.846291674883105 L 373.5552387749922,58.10629167489242 L 374.15923877499154,57.39829167485004 L 377.9532387749932,52.9602916748845 L 380.62523877499916,50.58429167495342 L 381.7192387749892,50.026291674992535 L 382.9392387749904,49.52429167495575 L 385.96523877499567,48.91029167489614 L 388.72523877499043,49.152291674981825 L 391.68723877499724,49.85029167489847 L 394.0352387749954,50.97629167500418 L 396.085238774991,52.22429167496739 L 398.5372387749958,54.49429167492781 L 400.50923877499736,57.11629167495994 L 401.8792387749927,60.61429167492315 L 408.7452387749945,59.74029167497065 L 414.16923877500085,58.42629167495761 L 418.64323877499555,52.434291674988344 L 422.9432387749912,55.48029167490313 L 417.20523877499363,60.89029167487752 L 417.1092387749886,60.980291674961336 L 427.66723877499317,68.56029167497763 L 446.9772387749981,82.42229167500045 L 454.1132387749967,76.68029167497298 L 469.12123877499107,87.52029167488217 L 460.30323877499177,94.19429167499766 L 447.6472387749891,84.91229167493293 L 433.25323877499613,96.26229167502606 L 442.96123877499485,103.13429167488357 L 453.09923877499386,110.312291674898 L 449.8632387749967,112.94629167497624 L 450.77723877499375,113.72229167498881 L 449.39123877499514,114.92429167497903 L 457.1012387749943,120.28229167487007 L 460.4052387749907,117.77629167487612 L 460.52923877499416,116.68229167489335 L 466.11923877499066,120.70429167500697 L 456.447238774992,128.60429167497205 L 454.7212387749969,127.23229167499812 L 453.1152387749971,129.8822916749632 L 453.7452387749945,130.85429167497205 L 458.18723877498996,132.84429167490453 L 478.44323877499846,154.19629167485982 L 479.57723877499666,155.338291675027 L 488.9892387749933,157.02829167502932 L 489.5192387749994,169.24829167500138 L 496.3132387749938,175.06629167491337 L 502.6632387749996,182.42229167488404 L 507.5812387749975,183.0762916749809 L 510.28323877499497,185.15029167494504 L 535.1952387749916,205.64629167498788 L 535.9892387749933,205.1322916749632 L 538.9852387749997,207.66229167499114 L 544.1992387749924,206.48629167489707 L 543.6332387749935,211.69029167486588 L 544.7012387750001,212.03229167487007 L 544.3972387749964,218.9842916749767 L 535.3352387749983,212.12229167495389 L 532.9912387749937,213.76229167490965 L 521.7872387749958,218.5402916749008 L 518.2412387749937,221.03229167492827 L 507.5872387749914,211.55829167488264 L 506.7432387750014,209.26629167498322 L 499.0012387749957,204.08029167487985 L 489.9092387749988,197.99029167491244 L 481.71523877499567,190.9842916749185 L 480.2512387749957,189.7342916749185 L 465.3352387749983,175.03829167498043 L 459.81923877499503,168.28829167498043 L 453.1752387749948,159.29629167495295 L 448.3512387749943,153.95829167496413 L 443.9812387749989,148.64629167498788 L 437.5192387749921,141.46029167500092 L 434.84523877499305,138.58029167499626 L 435.4272387749952,138.2562916749157 L 425.61323877498944,127.70429167494876 L 414.9732387749973,115.62429167487426 L 396.84923877499386,96.14829167496646 L 393.7872387749958,93.14629167498788 L 390.13723877498705,90.05229167488869 L 387.80323877499177,88.2462916749646 L 385.02523877499334,86.30029167496832 L 382.18723877499724,84.80829167488264 L 379.32323877499584,83.51229167490965 L 368.4872387749929,80.25029167492175 L 362.3152387749942,77.53629167488543 L 355.75523877499654,74.90629167499719 L 349.57723877499666,72.42829167487798 L 343.8332387749906,70.30829167494085 L 321.7732387750002,62.53029167489149 L 320.44523877499887,62.060291674919426 L 304.8852387749939,57.604291675030254 L 294.91723877499317,54.79029167495901 L 275.5372387749958,49.46829167497344 L 273.15723877499113,48.814291674876586 L 269.7172387749961,47.69029167498229 L 258.9232387749944,44.16229167493293 L 252.58723877499142,41.69029167492408 L 245.73523877499974,39.016291674925014 L 234.81923877499503,33.6322916749632 L 224.1992387749924,28.3942916750093 L 216.44123877499806,37.69029167492408 L 215.1472387749891,37.064291674993 L 214.64523877499596,36.83229167497484 L 213.29923877499823,36.18029167491477 L 212.91323877499963,36.00429167499533 L 212.20523877499363,36.7902916749008 L 198.98523877499247,30.136291674920358 L 201.98123877499165,26.58229167497484 L 195.07923877499707,23.206291674927343 L 186.0212387749998,18.856291674950626 L 185.03123877499456,18.420291674963664 L 177.43323877499643,14.852291674935259 L 177.8312387749902,14.264291675004642 L 180.23923877499328,10.702291674853768 L 165.97723877499084,5.81829167495016 L 162.76123877499776,4.946291674976237 L 158.9932387749941,4.580291674938053 L 155.33323877499788,4.8482916749781 L 152.05123877499136,5.644291674892884 L 148.71123877499485,7.120291674917098 L 147.16723877499317,8.388291674957145 L 145.293238774997,10.576291674980894 L 144.45723877499404,11.442291675019078 L 134.36323877499672,8.17829167493619 L 133.96723877499608,8.104291674913839 L 134.20323877499322,6.502291674958542 L 134.2212387749969,4.852291674993467 L 133.68123877498874,2.264291674888227 L 133.1092387749959,0.4342916749883443 L 132.36323877498944,-1.2877083251369186 L 131.61523877499712,-2.5817083250149153 L 130.71323877498799,-3.9137083251262084 L 129.54123877498932,-5.299708325124811 L 127.75723877499695,-6.885708325018641 L 124.7452387749945,-9.227708325139247 L 119.98323877499206,-12.131708325061481 L 120.27123877499253,-12.551708325045183 L 120.36123877499631,-12.681708325108048 L 122.86323877499672,-12.781708325026557 L 125.19123877499806,-13.099708325054962 L 127.9452387749916,-13.755708325013984 L 130.32923877499707,-14.577708325115964 L 131.2652387749913,-13.897708325122949 L 135.10323877499468,-15.109708325064275 L 137.57523877499625,-15.769708325096872 L 139.2652387749913,-16.09970832511317 L 139.3792387749927,-18.23970832512714 L 136.76123877499776,-17.735708325053565 L 133.86723877499026,-17.02370832511224 L 128.3132387749938,-15.32370832504239 L 124.89123877499514,-14.481708325096406 L 123.45123877499282,-14.253708325035404 L 122.02723877499375,-14.131708325003274 L 120.86523877499712,-14.075708325079177 L 119.62323877499875,-14.1977083250531 L 117.92123877499398,-14.521708325017244 L 116.46523877499567,-15.04370832501445 L 115.11523877498985,-15.723708325007465 L 114.13123877499311,-16.33770832506707 L 113.57123877499544,-16.765708325081505 L 112.22323877499002,-18.411708325031213 L 108.91323877499235,-17.24170832510572 L 110.30123877499136,-15.349708325054962 L 111.95923877499445,-13.117708325095009 L 109.37123877499835,-10.863708325021435 L 105.55323877499177,-12.537708325020503 L 94.88323877499352,-15.887708325055428 L 89.90323877499759,-17.56770832510665 L 85.1292387749927,-17.485708325111773 L 78.86123877499631,-16.38370832504006 L 78.1072387749955,-18.427708325034473 L 74.80323877499177,-17.503708325035404 L 74.61523877499712,-20.53770832513692 L 71.60323877499468,-21.357708325027488 L 61.467238774996076,-22.219708325050306 L 53.06923877498775,-24.19570832507452 L 40.92923877499561,-28.183708325086627 L 31.61723877499753,-32.32170832512202 L 23.653238774990314,-37.04570832505124 L 18.647238774996367,-41.00170832511503 L 14.687238774989964,-44.657708325074054 L 9.783238774987694,-49.895708325027954 L 4.671238775001257,-57.42970832507126 L 1.3452387750003254,-64.29170832515229 L -1.1327612250097445,-72.38170832500327 L -3.880761225002061,-88.13770832511364 L -8.70076122500177,-103.55570832511876 L -9.738761225009512,-109.06570832512807 L -10.172761225010618,-115.04170832503587 L -10.826761225005612,-126.88370832504006 L -10.826761225005612,-127.44570832501631 L -10.826761225005612,-133.42370832513552 L -10.414761225001712,-140.09370832506102 L -10.008761224999034,-144.02370832505403 L -9.956761225010268,-144.30770832515555 L -8.982761225001013,-149.5617083249963 L -6.818761225011258,-158.81970832502702 L -3.8647612250060774,-167.76970832503866 L 3.721238774989615,-185.8477083251346 L 5.529238774994155,-190.187708325102 L 6.883238774993515,-195.02570832509082 L 7.8452387749930494,-199.21770832507173 L 8.359238774995902,-203.48370832501678 L 8.709238774994446,-209.8337083250517 L 8.26523877499858,-214.51170832500793 L 8.945238774991594,-214.56370832503308 L 8.007238774989673,-219.95570832508383 L 1.1252387749918853,-239.937708325102 L -4.164761225008988,-255.76370832504472 L -10.242761225010327,-265.14570832514437 L -13.496761225003866,-269.36570832511643 L -16.798761225007183,-274.3377083251253 L -19.848761225010094,-279.09970832505496 L -22.006761225005903,-282.76170832506614 L -23.736761225009104,-285.87570832506754 L -25.030761225003516,-288.70170832501026 L -27.37476122500084,-294.6497083249851 L -28.126761225008522,-297.79570832510944 L -28.74276122500305,-301.68970832502237 L -28.582761225006834,-310.1997083250899 L -28.252761225005088,-310.7217083250871 L -27.62476122500084,-311.3257083250792 L -26.61076122501254,-311.6377083249972 L -23.802761225000722,-311.57770832499955 L -20.380761225009337,-311.5977083251346 L -20.394761225004913,-311.0877083251253 L -20.400761225006136,-310.8337083249935 L -20.556761225008813,-302.615708325 L -14.036761225012015,-302.59970832511317 L 5.293238774989732,-302.0877083251253 L 9.485238774999743,-301.9837083250168 L 9.601238774994272,-302.437708325102 L 15.277238774993748,-302.4177083251416 L 15.527238774993748,-309.28170832502656 L 15.541238774989324,-310.14570832502795 L 31.53323877499497,-309.81970832508523 L 29.37523877499916,-297.8777083251043 L 7.487238774992875,-298.0717083250638 L 5.883238774993515,-297.0957083250396 L 5.627238774999569,-287.78170832502656 L 7.255238774996542,-277.59170832502423 L 10.201238774992817,-266.96370832505636 L 11.665238774992758,-263.7697083250969 L 18.447238774992,-245.73370832507499 L 19.885238774993923,-242.34170832508244 L 20.49923877499532,-240.53570832504192 L 21.225238774997706,-238.97770832502283 L 27.785238774995378,-224.97570832510246 L 30.87123877499107,-209.461708325136 L 29.657238774998405,-203.0157083250815 L 28.34923877498659,-193.35970832506428 L 23.881238774993108,-180.95770832512062 L 21.06923877499503,-174.45570832502563 L 14.847238775000733,-158.8237083251006 L 12.551238774998637,-151.04170832509408 L 11.04923877499823,-140.4157083251048 L 11.059238775000267,-135.67770832503447 L 11.339238774991827,-127.03770832507871 L -4.728761225007474,-125.9937083251425 L -4.34676122500241,-121.0837083249935 L -3.7607612250067177,-116.64970832504332 L -0.4407612249997328,-99.82570832502097 L 3.3712387749910704,-81.14970832504332 L 4.551238774991361,-75.31170832499629 L 5.701238774992817,-69.92970832507126 L 7.145238774988684,-65.36370832502143 L 8.33723877499142,-62.7437083250843 L 9.707238774986763,-59.94370832503773 L 12.545238774990139,-55.393708325049374 L 14.877238774992293,-52.28970832499908 L 17.683238774996425,-48.84770832513459 L 20.30723877499986,-46.279708325106185 L 23.70523877499363,-43.47170832508709 L 28.445238774991594,-39.921708325098734 L 32.66923877500085,-37.283708325005136 L 36.52523877499334,-35.12970832514111 L 42.19123877499078,-32.48970832512714 L 48.471238774989615,-30.277708325127605 L 53.94323877499846,-28.613708325021435 L 60.29323877499701,-27.327708325057756 L 63.52323877500021,-26.749708325078245 L 66.8792387749927,-26.365708325000014 L 70.78723877499579,-25.969708325050306 z" /><text x="241.44856767322625" y="-2.988176507537566">Madrid Río</text><path fill-rule="evenodd" fill="#66cc99" stroke="#555555" stroke-width="2.0" opacity="0.6" d="M -104.51476122500753,304.2552916749264 L -87.50876122500631,300.56929167493945 L -86.83676122500037,300.0672916750191 L -79.62676122500852,287.72729167493526 L -81.45676122500299,287.1792916749255 L -83.88276122500247,286.8032916749362 L -85.82876122500602,286.60529167501954 L -86.36876122500689,286.5492916749208 L -88.5547612250084,286.5872916749213 L -91.26676122500794,286.83129167498555 L -93.83876122500078,287.6092916749767 L -96.68076122500497,288.7552916749846 L -98.83476122500724,289.9152916749008 L -101.42276122500334,291.9392916749348 L -103.84276122500887,295.2432916749385 L -105.26676122500066,299.57929167500697 L -104.84076122500846,303.08329167502234 L -104.51476122500753,304.2552916749264 z" /><text x="-93.32862373623463" y="294.8628608067214">Jardín de las Cuestas</text><path fill-rule="evenodd" fill="#66cc99" stroke="#555555" stroke-width="2.0" opacity="0.6" d="M -82.89326122500643,295.1522916748654 L -76.4752612250013,297.3242916749441 L -67.69126122500893,282.2102916749427 L -67.79726122500142,281.55629167484585 L -68.70926122499804,281.2302916748449 L -69.78326122500584,281.63829167495715 L -71.49926122499892,282.5382916749804 L -74.75326122500701,283.79429167485796 L -76.82126122500631,284.63829167489894 L -82.6312612249967,294.5722916749073 L -82.89326122500643,295.1522916748654 z" /><text x="-75.4874267173647" y="289.4388754053497">Parque del Peso Hispano</text><path fill-rule="evenodd" fill="#66cc99" stroke="#555555" stroke-width="2.0" opacity="0.6" d="M 46.292238774993166,117.72279167495435 L 51.708238774990605,115.7507916748873 L 54.404238774994155,121.79479167493992 L 51.26423877498746,123.26679167494876 L 49.778238774990314,123.04879167495528 L 46.292238774993166,117.72279167495435 z" /><text x="50.57634450757805" y="119.60771269002508">Plaza de Tarifa</text><path fill-rule="evenodd" fill="#66cc99" stroke="#555555" stroke-width="2.0" opacity="0.6" d="M 35.63173877499503,74.75329167494783 L 37.47173877499881,75.96729167492595 L 47.94773877499392,80.57729167497018 L 50.10173877499619,81.28929167491151 L 57.685738774998754,78.10329167486634 L 54.85573877499701,77.66729167493759 L 54.00173877499765,77.53529167495435 L 53.22773877499276,77.41529167495901 L 52.519738775001315,77.29729167482583 L 51.02573877499526,75.92129167495295 L 49.41373877499427,76.85929167486029 L 42.58573877499293,70.84529167489382 L 42.091738774994155,70.56929167493945 L 41.58773877499334,70.28729167493293 L 35.63173877499503,74.75329167494783 z" /><text x="45.33779747277331" y="76.30597189464731">Glorieta del Valle de Oro</text><path fill-rule="evenodd" fill="#66cc99" stroke="#555555" stroke-width="2.0" opacity="0.6" d="M 44.586238774994854,82.64729167486075 L 48.784238774991536,84.57129167485982 L 45.65023877499334,86.8352916748845 L 42.42823877499177,85.42129167483654 L 31.770238774988684,80.77529167482862 L 28.630238774996542,79.54929167486262 L 39.22223877499346,72.71729167492595 L 49.09823877499002,76.76929167495109 L 48.020238774988684,77.6212916749646 L 44.586238774994854,82.64729167486075 z" /><text x="40.1256385711256" y="79.38708909335907">Plaza de Oporto</text><path fill-rule="evenodd" fill="#66cc99" stroke="#555555" stroke-width="2.0" opacity="0.6" d="M 74.14173877499707,232.37829167488962 L 75.64373877499747,231.39629167492967 L 96.99373877499602,230.0062916749157 L 98.06773877499654,230.98829167487565 L 97.42373877499631,241.94029167492408 L 74.24973877499724,241.53229167487007 L 74.14173877499707,232.37829167488962 z" /><text x="86.33634376573102" y="236.2113558346043">Jardín de los Pozuelos</text><path fill-rule="evenodd" fill="#66cc99" stroke="#555555" stroke-width="2.0" opacity="0.6" d="M -214.72576122500323,-39.453208325081505 L -199.29376122500253,-33.8412083251751 L -212.54776122501062,-13.039208325208165 L -218.63576122499944,21.254791674786247 L -224.485761224998,60.24679167487193 L -263.9257612250076,54.98279167490546 L -251.17976122500113,37.76279167487519 L -247.62576122500468,31.34679167479044 L -245.32176122500823,30.694791674846783 L -243.43976122500317,10.318791674915701 L -242.90176122500998,-6.827208325092215 L -240.2917612250094,-15.89920832507778 L -238.23976122500608,-21.435208325157873 L -231.66576122499828,-28.08520832512295 L -227.39376122500107,-32.451208325102925 L -214.72576122500323,-39.453208325081505 z" /><text x="-230.33043345854833" y="12.335562257308613">Parque Aluche</text><path fill-rule="evenodd" fill="#66cc99" stroke="#555555" stroke-width="2.0" opacity="0.6" d="M -231.31376122499933,365.1912916749134 L -232.59576122500584,374.63929167494643 L -227.0377612250013,376.13729167496786 L -183.85576122500788,365.3212916748598 L -163.50376122500893,362.91129167500185 L -112.36776122500305,351.7692916749511 L -88.8537612250002,344.34129167499486 L -61.57576122500177,338.21529167488916 L -56.18776122500276,334.24129167490173 L -42.163761225005146,326.4872916749446 L -33.09976122500666,310.3952916749404 L -45.787761225001304,312.9392916749348 L -45.927761225008,313.4852916749078 L -48.61176122500183,323.98929167492315 L -71.07376122500136,328.8112916749669 L -79.5837612250034,330.759291675 L -92.19376122500398,335.38529167493107 L -104.84576122500584,337.92129167501116 L -107.83576122500381,341.40929167496506 L -142.8097612249985,350.92129167501116 L -191.3797612250055,358.6752916749683 L -218.74376122499962,365.0612916749669 L -231.31376122499933,365.1912916749134 z" /><text x="-129.77719319759314" y="348.57308981033">Parque Manolito Gafotas</text><path fill-rule="evenodd" fill="#66cc99" stroke="#555555" stroke-width="2.0" opacity="0.6" d="M 2.891238774995145,63.36129167483887 L 5.90323877499759,62.62129167484818 L 7.63723877499433,62.533291674859356 L 11.011238774997764,63.89729167486075 L 9.849238774993864,65.79929167492082 L 2.891238774995145,63.36129167483887 z" /><text x="7.56367690388263" y="63.91128675671291">Jardín Párroco Antonio Varela</text><path fill-rule="evenodd" fill="#66cc99" stroke="#555555" stroke-width="2.0" opacity="0.6" d="M 13.294238774993573,60.031291674938984 L 8.414238774996193,56.96929167496273 L 7.938238774993806,56.85329167492455 L 7.576238774992817,56.93929167493479 L 7.384238774997357,57.143291674903594 L 5.364238774993282,60.249291674932465 L 5.326238775000093,60.467291674925946 L 5.440238774994214,60.685291674919426 L 5.574238774992409,60.801291674841195 L 10.720238775000325,63.03729167499114 L 11.026238774997182,63.06729167490266 L 11.330238774993632,62.99329167488031 L 11.502238774999569,62.833291674847715 L 13.40823877499497,60.597291674872395 L 13.46623877499951,60.3372916749795 L 13.294238774993573,60.031291674938984 z" /><text x="9.337460739459937" y="60.08973218034048">Plaza de Almodóvar</text><path fill-rule="evenodd" fill="#66cc99" stroke="#555555" stroke-width="2.0" opacity="0.6" d="M 29.230238775002363,187.53179167496273 L 33.61023877499974,183.1257916748873 L 36.92623877499864,185.03979167499347 L 39.858238774999336,186.76779167499626 L 43.14223877499899,188.67379167495528 L 46.3482387749973,190.52179167495342 L 49.75223877499957,192.45379167492501 L 50.82623877500009,193.06179167493246 L 46.444238775002304,197.46579167497111 L 29.230238775002363,187.53179167496273 z" /><text x="40.013866163159705" y="190.3008881586885">Plaza de La Rendición de Breda</text><path fill-rule="evenodd" fill="#66cc99" stroke="#555555" stroke-width="2.0" opacity="0.6" d="M 46.16573877499468,198.09279167483328 L 27.823738774997764,187.43479167489568 L 23.919738774988218,191.33279167482397 L 42.26373877500009,201.99079167487798 L 46.16573877499468,198.09279167483328 z" /><text x="35.0429282605777" y="194.7126466715348">Plaza de Las Hilanderas</text><path fill-rule="evenodd" fill="#66cc99" stroke="#555555" stroke-width="2.0" opacity="0.6" d="M 59.39323877499555,190.80729167495156 L 56.19723877499928,188.90129167487612 L 52.92923877499561,186.97729167499347 L 49.571238774995436,185.04329167498508 L 46.595238775000325,183.29329167486867 L 43.265238775005855,181.437291674898 L 39.98523877499974,179.5412916748901 L 36.71123877500213,177.62329167494318 L 32.36123877499631,181.97929167497205 L 54.983238774999336,194.38529167487286 L 59.39323877499555,190.80729167495156 z" /><text x="45.68466238441249" y="186.0689528673995">Plaza de Las Meninas</text><path fill-rule="evenodd" fill="#66cc99" stroke="#555555" stroke-width="2.0" opacity="0.6" d="M -80.39026122500945,138.54179167491384 L -76.8482612250009,129.12979167496087 L -62.81626122500893,131.54179167485563 L -80.39026122500945,138.54179167491384 z" /><text x="-73.35159455833977" y="133.07112500824346">Plaza de la Palmera</text><path fill-rule="evenodd" fill="#66cc99" stroke="#555555" stroke-width="2.0" opacity="0.6" d="M 11.984738774997822,218.68879167491104 L 13.670738774999336,217.9667916750186 L 22.078738774995145,214.37079167488264 L 24.35873877499398,213.31679167493712 L 26.40873877499689,212.35679167497437 L 28.810738774991478,210.84679167490685 L 31.580738774995552,209.10079167498043 L 34.28873877499427,207.34879167500185 L 34.77273877499829,207.70079167495715 L 35.89273877499363,208.52879167499486 L 29.12073877498915,214.13279167492874 L 23.49073877499177,218.67679167492315 L 20.706738774992118,220.99679167504655 L 18.786738774993864,222.42479167494457 L 18.210738774992933,222.85079167492222 L 17.674738774992875,223.24479167500976 L 15.698738774990488,223.94679167494178 L 13.964738774993748,224.28079167485703 L 13.28273877499305,224.19679167488357 L 12.666738774998521,223.7607916748966 L 11.974738774995785,220.7627916749916 L 11.698738774990488,219.5687916749739 L 11.984738774997822,218.68879167491104 z" /><text x="21.670887388898855" y="216.94030712902946">Jardines de la Vía Lusitana</text><path fill-rule="evenodd" fill="#66cc99" stroke="#555555" stroke-width="2.0" opacity="0.6" d="M -148.9807612250006,156.4887916748994 L -151.12876122500165,160.54479167499812 L -141.19476122500055,163.73679167492082 L -130.80076122500031,167.42279167490778 L -129.31276122500276,168.16279167489847 L -128.66676122500212,167.76479167497018 L -128.48476122500142,167.52679167501628 L -125.67676122500416,163.85279167501722 L -134.4107612250009,161.29079167492455 L -132.32676122499834,157.73079167492688 L -132.76676122500066,157.59479167492827 L -138.51876122500107,155.82279167493107 L -140.5267612250027,159.29879167495528 L -148.9807612250006,156.4887916748994 z" /><text x="-138.07418637720045" y="161.60118124213056">Parque de la Codorniz</text><path fill-rule="evenodd" fill="#66cc99" stroke="#555555" stroke-width="2.0" opacity="0.6" d="M -85.5267612250027,301.72279167495435 L -83.9847612250087,306.01679167494876 L -130.0067612250059,315.97279167489614 L -135.74676122501114,317.2147916749236 L -139.10476122500404,308.95079167484073 L -122.20276122500218,310.0907916749711 L -114.7347612250087,310.59479167487007 L -112.42276122500334,310.28879167482955 L -110.60676122500445,309.7947916748817 L -108.9367612250062,309.19079167494783 L -108.20276122500218,308.92679167486494 L -106.57076122501167,308.0587916749646 L -104.23276122500829,305.7527916748659 L -85.5267612250027,301.72279167495435 z" /><text x="-113.24827331419002" y="309.7295304037975">Parque del Euro</text><path fill-rule="evenodd" fill="#66cc99" stroke="#555555" stroke-width="2.0" opacity="0.6" d="M -116.1352612250048,165.08129167486914 L -114.85726122500637,163.34529167495202 L -85.21326122500614,170.19329167495016 L -85.98926122500416,172.1312916748575 L -116.1352612250048,165.08129167486914 z" /><text x="-100.44792947914216" y="167.7143785780236">Domingo de Alboraya</text><path fill-rule="evenodd" fill="#66cc99" stroke="#555555" stroke-width="2.0" opacity="0.6" d="M -153.3392612250027,177.5687916748575 L -147.80926122500387,183.84079167497111 L -146.74926122499892,185.00679167493945 L -148.35326122500555,185.71279167494504 L -152.21326122499886,187.68679167487426 L -153.40126122500078,188.2947916748235 L -159.25526122500742,191.1587916749413 L -157.94726122500288,192.71079167485004 L -155.42126122499758,195.7727916748263 L -163.64726122499997,194.09879167488543 L -161.7032612250041,193.12679167487659 L -165.01126122500136,189.28879167494597 L -168.4752612250013,185.22079167485936 L -166.71526122499927,184.33479167491896 L -161.72326122500817,181.75879167491803 L -156.5912612250031,179.15479167492595 L -153.3392612250027,177.5687916748575 z" /><text x="-157.83793348796345" y="185.85447363286175">Parque Rindi</text><path fill-rule="evenodd" fill="#66cc99" stroke="#555555" stroke-width="2.0" opacity="0.6" d="M 90.29623877500126,98.54629167489475 L 101.4822387749955,100.65629167482257 L 97.12623877499573,116.34029167494737 L 85.20223877499666,114.53629167488543 L 90.29623877500126,98.54629167489475 z" /><text x="93.48081704205015" y="107.58587728013943">Plaza de San Vicente de Paúl</text><path fill-rule="evenodd" fill="#66cc99" stroke="#555555" stroke-width="2.0" opacity="0.6" d="M -22.75026122500276,53.990291674854234 L -24.622261225005786,56.25829167489428 L -17.756261225011258,59.80429167486727 L -15.740261225000722,57.57429167494411 L -22.75026122500276,53.990291674854234 z" /><text x="-20.20799477760541" y="56.90677594772943">Plaza de Zeus</text><path fill-rule="evenodd" fill="#66cc99" stroke="#555555" stroke-width="2.0" opacity="0.6" d="M -96.81226122500084,88.94779167481465 L -92.15026122500421,89.00179167487659 L -94.1462612250034,83.72979167493759 L -96.81226122500084,88.94779167481465 z" /><text x="-94.36959455833615" y="87.22645834154295">Estatua de la Paloma</text><path fill-rule="evenodd" fill="#66cc99" stroke="#555555" stroke-width="2.0" opacity="0.6" d="M -95.20176122500561,85.19079167488962 L -88.32976122500258,83.70279167487752 L -92.26976122500491,80.25479167490266 L -95.65776122500392,80.84879167488543 L -95.20176122500561,85.19079167488962 z" /><text x="-92.75540090734357" y="82.7294583888561">Glorieta del Ejército</text><path fill-rule="evenodd" fill="#66cc99" stroke="#555555" stroke-width="2.0" opacity="0.6" d="M 59.69723877499928,89.73679167486262 L 64.7692387749994,90.398791674932 L 65.50923877499736,87.58079167484539 L 65.6952387749916,86.42679167486494 L 66.5412387749966,86.5207916747895 L 66.32523877499625,87.50479167478625 L 68.76523877499858,87.85079167486401 L 69.98523877499974,82.23679167492082 L 68.57323877500312,82.07479167485144 L 69.34923877500114,78.63479167490732 L 73.64323877499555,79.18479167489568 L 73.39723877500364,80.29079167492455 L 71.83323877499788,80.08879167481791 L 71.51723877499899,81.51279167481698 L 75.31323877500108,82.00479167490266 L 79.05523877499945,82.49879167485051 L 79.32923877500434,81.0787916748668 L 77.84323877499992,80.87279167491943 L 78.09923877500114,79.79879167483887 L 79.58923877499183,79.96079167490825 L 79.93523877499683,78.58879167493433 L 83.69923877499969,79.30879167478997 L 82.09723877500073,85.00879167491803 L 80.85523877500236,84.85679167485796 L 79.29323877499701,90.50679167493945 L 78.66923877500085,90.41679167485563 L 77.87523877499916,93.33279167482397 L 77.22323877500457,93.81079167488497 L 74.41523877500003,93.38079167483374 L 74.75923877499008,91.896791674837 L 71.37123877499835,91.44279167492641 L 71.70923877499445,90.12079167482443 L 67.95323877499322,89.56079167482676 L 67.61323877499672,90.88479167496553 L 70.92123877499398,91.38279167492874 L 70.57923877499707,92.86679167492548 L 73.87523877499916,93.30879167484818 L 73.5192387749994,94.68279167485889 L 77.36923877499066,95.2627916749334 L 79.04323877499701,95.52079167484771 L 77.17123877500126,97.68479167483747 L 69.2452387749945,94.38479167490732 L 68.4252387749948,95.44879167486215 L 67.13123877500038,96.98679167492082 L 59.06723877499462,92.63279167492874 L 59.69723877499928,89.73679167486262 z" /><text x="72.47261516966357" y="88.26831880049069">Plaza Valle de Oro</text><path fill-rule="evenodd" fill="#66cc99" stroke="#555555" stroke-width="2.0" opacity="0.6" d="M 73.62873877499806,95.95829167490592 L 75.50473877499462,93.34429167496273 L 72.93273877500178,92.03629167488543 L 74.1867387750026,89.51029167487286 L 83.11473877500248,91.82229167490732 L 80.46073877500021,99.30429167492548 L 73.62873877499806,95.95829167490592 z" /><text x="78.09341392989089" y="94.0113627321432">Plaza del Centro Sociocultural Oporto</text><path fill-rule="evenodd" fill="#66cc99" stroke="#555555" stroke-width="2.0" opacity="0.6" d="M 114.1292387749927,94.87529167492175 L 119.57123877499544,95.67129167501116 L 119.53323877499497,95.81929167499766 L 116.62523877499189,107.35329167492455 L 116.15123877499718,107.28329167497577 L 111.68123877499602,106.62929167499533 L 111.18323877498915,106.55729167500976 L 114.1292387749927,94.87529167492175 z" /><text x="115.37713612923032" y="101.11405068916228">Bajos de Opañel</text><path fill-rule="evenodd" fill="#66cc99" stroke="#555555" stroke-width="2.0" opacity="0.6" d="M -116.52176122500532,228.49229167489102 L -127.07376122500136,223.132291674905 L -131.66576122500555,219.312291674898 L -131.33176122501027,219.1522916748654 L -123.70176122500561,215.53429167496506 L -122.68776122500276,215.0522916748887 L -120.13576122500672,213.84029167488916 L -113.60976122500142,210.74429167498602 L -112.20776122500683,210.6442916749511 L -111.95576122499915,210.62629167485284 L -110.18776122500276,210.83229167485842 L -108.87976122499822,211.27229167486075 L -108.2877612250013,211.58229167497484 L -107.55376122500456,211.96629167487845 L -102.78176122500736,214.46429167495808 L -103.49776122500771,215.19429167493945 L -106.53576122500817,218.29829167498974 L -108.95976122499997,220.77229167491896 L -111.02376122500573,222.88029167498462 L -116.01176122501056,227.97029167489382 L -116.52176122500532,228.49229167489102 z" /><text x="-116.72238545899978" y="218.82051908334392">Parque Chirivita</text><path fill-rule="evenodd" fill="#66cc99" stroke="#555555" stroke-width="2.0" opacity="0.6" d="M 136.2272387749981,107.7377916748519 L 138.47923877499852,110.67979167483281 L 139.36923877499794,112.18179167492781 L 139.905238774998,112.83379167487146 L 141.2232387749973,112.29179167491384 L 142.88723877499433,111.50979167484911 L 142.28523877499538,110.78179167490453 L 145.18723877499724,109.51379167486448 L 147.73523877499974,108.94779167493107 L 147.78723877499579,108.2497916748398 L 139.60523877500236,108.12579167482909 L 139.60523877500236,107.71779167489149 L 136.2272387749981,107.7377916748519 z" /><text x="141.30047084462484" y="109.64098459654981">Plaza de Estoril</text><path fill-rule="evenodd" fill="#66cc99" stroke="#555555" stroke-width="2.0" opacity="0.6" d="M -190.29676122500678,247.90479167498415 L -189.40476122500695,248.04079167486634 L -188.1847612250058,248.00679167488124 L -188.5307612250108,248.92679167498136 L -187.06876122500398,249.07879167492501 L -183.01676122500794,248.93879167496925 L -180.10676122501172,248.68679167487426 L -177.1707612250102,248.16679167491384 L -174.52876122501038,246.8067916749278 L -173.32276122501207,245.8167916748789 L -172.2747612250023,244.19079167494783 L -172.22676122500707,243.84079167497111 L -171.63276122500247,239.44879167492036 L -171.63276122500247,238.55079167493386 L -171.62276122500043,238.09679167490685 L -169.53076122500352,237.850791674864 L -167.18476122501306,237.57879167498322 L -167.0047612250055,243.95679167489288 L -167.87676122500852,249.57879167492501 L -169.77476122500957,249.56679167493712 L -173.78076122500352,249.53879167488776 L -179.8467612250097,249.49679167498834 L -189.37476122500084,249.4327916749171 L -190.232761225001,249.43879167502746 L -190.29676122500678,247.90479167498415 z" /><text x="-172.21282945007636" y="245.12443875132502">Parque de Mesonero Romanos</text><path fill-rule="evenodd" fill="#66cc99" stroke="#555555" stroke-width="2.0" opacity="0.6" d="M -109.08076122500643,207.63529167487286 L -109.18476122500579,207.0612916748505 L -102.6407612250041,199.45729167491663 L -102.02276122500189,199.38929167488823 L -97.87676122500125,201.4512916749227 L -97.3627612249984,201.93929167481838 L -97.29276122500596,202.51329167484073 L -104.44876122500136,209.44529167487053 L -105.0247612250023,209.55529167485656 L -109.08076122500643,207.63529167487286 z" /><text x="-103.26064079268296" y="204.47014721053804">Parque Ayamonte</text><path fill-rule="evenodd" fill="#66cc99" stroke="#555555" stroke-width="2.0" opacity="0.6" d="M 244.00323877499613,301.95879167487146 L 215.7252387749977,299.0687916749157 L 204.91523877499276,298.3627916749101 L 195.25923877499736,298.63279167492874 L 185.2252387749977,299.9867916748044 L 174.9972387749949,302.9067916748463 L 169.43123877499602,304.50679167493945 L 165.42123877499398,306.1687916748924 L 160.8552387749878,308.0907916749129 L 155.0652387750015,310.57679167483 L 147.53523877499538,314.74679167493014 L 138.38523877499392,320.86079167493153 L 131.4232387749944,326.0927916749497 L 125.20523877500091,332.53879167482955 L 121.23523877499247,337.1047916748794 L 118.5132387749909,341.9287916748435 L 117.71723877499608,344.72079167491756 L 116.3792387749927,350.2727916748263 L 113.98123877499165,366.694791674905 L 112.98923877500056,373.21879167482257 L 130.16523877499276,374.6907916748314 L 145.69123877499078,368.9107916748035 L 172.87323877499875,366.75479167490266 L 174.1932387749912,365.61879167484585 L 181.9032387749976,364.0227916748263 L 183.17123877499398,363.264791674912 L 187.87523877499189,363.28879167488776 L 185.95523877499363,356.8647916748887 L 186.26123877499776,350.6827916748007 L 187.9292387749956,344.68879167485284 L 192.2692387749994,338.65279167488916 L 197.66723877500044,332.3167916749371 L 203.6732387749944,327.94079167494783 L 210.98723877499287,323.5567916748696 L 218.80523877499218,319.8647916748887 L 227.07523877498897,316.9087916748831 L 233.53123877499456,314.90279167488916 L 235.29923877499823,312.2367916748626 L 238.6532387749976,311.1567916749045 L 242.1512387749899,310.5927916748333 L 244.6272387749923,308.64279167493805 L 245.2732387750002,306.9187916748342 L 245.8592387749959,305.27679167484166 L 246.5412387749966,302.23479167482583 L 244.00323877499613,301.95879167487146 z" /><text x="168.71170105086037" y="333.9186865352027">Bosque Metropolitano Villaverde</text><path fill-rule="evenodd" fill="#66cc99" stroke="#555555" stroke-width="2.0" opacity="0.6" d="M -63.05526122500305,356.7277916749008 L -73.82726122499298,356.10979167494224 L -82.17326122499799,359.3877916749916 L -87.92926122499921,362.0777916748775 L -89.32526122499985,362.7297916749958 L -105.20726122500491,367.30379167501815 L -114.65926122499513,369.9637916749343 L -129.4332612250073,373.6297916750191 L -147.9972612249985,376.48579167498974 L -169.96726122499967,378.821791675 L -196.83326122500148,378.23779167502653 L -217.69526122500247,376.06379167491104 L -252.6532612249939,370.0617916749907 L -281.43526122500043,365.51979167491663 L -306.51326122500177,361.30179167492315 L -321.11726122500113,353.7097916750354 L -336.1032612249983,344.1397916750284 L -338.53126122499816,345.11179167503724 L -352.0832612250015,357.7197916749865 L -361.1792612250065,362.4097916749306 L -372.32726122500026,364.58379167492967 L -386.87326122500235,362.8777916749823 L -396.8532612249983,360.7597916749655 L -413.4752612250013,357.85979167488404 L -471.933261225,347.40579167497344 L -490.2212612250005,328.99579167494085 L -503.8652612250007,336.13179167493945 L -527.8172612250055,324.90579167491524 L -542.7632612250018,313.6817916749278 L -545.3592612249995,312.9357916750014 L -552.1732612250053,311.929791674891 L -551.3212612250063,315.9197916749399 L -545.913261224996,322.01979167503305 L -537.9092612249951,328.70179167494643 L -525.6892612250012,334.8977916750009 L -480.00326122499973,358.2257916749222 L -472.25526122500014,361.79379167500883 L -461.09926122499746,365.5257916749688 L -437.80926122500387,371.5597916750121 L -417.4992612249989,374.7717916750116 L -396.7232612250009,376.977791674959 L -366.5492612250018,376.13179167499766 L -322.9212612249976,374.4877916749683 L -291.37126122500194,372.9857916748733 L -266.907261225002,372.7497916749562 L -245.96326122500614,375.61179167503724 L -223.34726122499706,381.57379167492036 L -202.39726122499997,390.54379167500883 L -199.19326122500206,392.139791674912 L -188.53126122499816,392.4217916749185 L -168.50526122500014,392.23379167501116 L -139.54326122499333,389.3217916749418 L -113.79526122500101,383.86979167489335 L -91.67926122499921,377.6857916749432 L -77.76526122500218,372.9977916748612 L -70.18526122500043,367.35779167490546 L -65.9932612249977,361.5137916749809 L -63.05526122500305,356.7277916749008 z" /><text x="-317.5090971778673" y="365.18797728947226">Parque Lineal Manolito Gafotas</text><path fill-rule="evenodd" fill="#66cc99" stroke="#555555" stroke-width="2.0" opacity="0.6" d="M 124.83523877499829,266.4537916748668 L 125.02723877500102,275.02779167488916 L 125.31323877500108,283.093791674939 L 125.31323877500108,286.65379167487845 L 126.93523877500411,288.68979167495854 L 130.559238774993,291.08579167496646 L 138.47323877500457,293.77579167485237 L 145.05323877499904,296.0997916748747 L 149.155238774998,298.9337916749064 L 155.83123877499747,303.43979167495854 L 164.31923877499503,308.74379167484585 L 169.94523877499887,311.7957916749874 L 174.9032387749976,314.0477916748496 L 179.2912387749966,316.2277916749008 L 185.01323877499817,318.4797916749376 L 188.6372387750016,319.9337916748482 L 192.4512387750001,321.45979167491896 L 197.41123877499922,322.8397916748654 L 200.84323877499992,323.92979167494923 L 211.04923877499823,326.03779167484026 L 220.39523877500324,327.999791674898 L 242.9972387749949,331.63179167488124 L 243.66323877499963,325.8197916748468 L 217.91523877500003,321.9677916748915 L 217.24123877500097,309.3057916748803 L 191.1072387749955,310.01979167497484 L 185.82723877499666,309.6277916749241 L 169.16923877500085,300.73179167485796 L 161.6052387749951,295.8297916748561 L 151.54923877499823,287.4577916749404 L 150.0632387749938,286.2357916748733 L 150.0632387749938,279.50579167495016 L 153.44923877499969,279.9817916749744 L 153.33323877499788,266.2877916749567 L 128.54723877499782,266.4217916749185 L 124.83523877499829,266.4537916748668 z" /><text x="170.2855330040066" y="299.07319791250364">Borde Forestal de Orcasitas</text><path fill-rule="evenodd" fill="#66cc99" stroke="#555555" stroke-width="2.0" opacity="0.6" d="M -193.7102612250019,239.1082916749874 L -192.1642612249998,237.75429167493712 L -190.4382612249974,237.71429167489987 L -187.0962612250005,237.63829167495715 L -185.2622612250052,237.5962916749413 L -184.04026122499636,237.56829167489195 L -184.14026122500218,237.8002916749101 L -185.08226122499764,239.99829167500138 L -185.4662612250031,240.89829167496646 L -187.42626122500224,241.28429167496506 L -193.32626122499641,242.44629167491803 L -193.59826122500817,240.60229167493526 L -193.7102612250019,239.1082916749874 z" /><text x="-189.33539035889848" y="239.67435127179914">Parque Pentágono</text><path fill-rule="evenodd" fill="#66cc99" stroke="#555555" stroke-width="2.0" opacity="0.6" d="M -195.65276122500654,222.72079167491756 L -196.302761225008,222.0347916748724 L -196.1587612250005,221.48479167494224 L -194.8227612250048,220.35679167485796 L -188.21876122500544,215.27079167496413 L -187.2087612250034,214.70279167487752 L -184.97076122500584,214.85879167501116 L -183.2747612250023,215.32479167490965 L -181.4347612250058,216.04079167486634 L -179.2107612250038,216.98079167492688 L -176.17076122500293,219.09479167487007 L -177.10676122500445,219.85679167497437 L -177.69076122499973,220.29079167492455 L -179.14676122500532,221.37279167491943 L -178.46276122499694,221.88479167496553 L -182.08476122500724,224.48079167486867 L -180.6407612250041,225.5807916749618 L -185.1887612250066,229.15479167492595 L -187.64476122499764,227.1467916748952 L -185.13676122500328,224.41279167495668 L -186.81276122500276,223.62879167485517 L -188.65276122500654,225.1947916749632 L -192.33076122500643,223.89479167485842 L -195.65276122500654,222.72079167491756 z" /><text x="-185.91559646133598" y="220.89643450666279">Plaza Colonia Azcoitia</text><path fill-rule="evenodd" fill="#66cc99" stroke="#555555" stroke-width="2.0" opacity="0.6" d="M -236.07776122500945,229.30829167499905 L -236.54176122500212,231.02629167487612 L -236.86776122501033,232.23829167499207 L -234.66176122500474,232.58229167503305 L -235.09376122500544,234.18029167491477 L -233.17376122500718,234.4822916748817 L -233.41976122500637,235.39629167492967 L -234.98576122500526,235.15029167488683 L -235.3137612250066,236.3702916749171 L -238.3537612250002,235.8922916749143 L -238.9257612250076,238.01029167493107 L -239.22776122500363,239.14629167498788 L -230.11576122500264,240.57029167498695 L -227.8357612250038,240.9262916748994 L -225.8577612250083,233.5962916749413 L -224.34776122500625,233.83229167497484 L -223.6517612250027,231.25229167495854 L -236.07776122500945,229.30829167499905 z" /><text x="-231.38781571503367" y="235.1231114624201">Plaza de Manuel Mateo</text></g></svg>