<svg xmlns="http://www.w3.org/2000/svg" xmlns:svg="http://www.w3.org/2000/svg" viewBox="-300 -300 600 600" width="600" height="600"><style>madrid/style.css</style><path fill-rule="evenodd" fill="#66cc99" stroke="#555555" stroke-width="2.0" opacity="0.6" d="M 56.26000000000022,-19.61999999998079 L 56.26000000000022,100.38000000001921 L -63.73999999999978,100.38000000001921 L -63.73999999999978,-19.61999999998079 L 56.26000000000022,-19.61999999998079 z" /><g class="parks"><path fill-rule="evenodd" fill="#66cc99" stroke="#555555" stroke-width="2.0" opacity="0.6" d="M -79.11723622500176,65.57366667500173 L -75.17163622499902,63.417866674994 L -74.45523622499968,62.978666674986016 L -73.58823622500131,62.130866674968274 L -71.32803622500069,57.65006667499256 L -70.87443622499995,56.78246667496569 L -70.4034362250004,55.460666674989625 L -69.9780362249985,53.00306667496625 L -69.54603622499963,49.99886667498504 L -69.19083622500148,47.111666674973094 L -68.29323622500124,39.91466667497298 L -67.16763622500002,30.980066674979753 L -76.4076362249998,29.79326667499845 L -77.70363622499826,49.40966667496832 L -77.87103622500035,52.851266674973886 L -79.11123622500054,55.05086667498108 L -80.56083622499864,57.20666667497426 L -81.55863622499965,57.978866674995515 L -81.5268362250008,59.51546667497314 L -81.10923622500013,59.758466674989904 L -81.19623622500148,60.86846667496138 L -81.73563622500114,61.34906667500036 L -82.66563622499962,61.743866675009485 L -83.22363622500052,62.21546667497023 L -82.72983622500215,62.567666674993234 L -79.11723622500176,65.57366667500173 z" /><path fill-rule="evenodd" fill="#66cc99" stroke="#555555" stroke-width="2.0" opacity="0.6" d="M -54.219486224998036,16.718666674991255 L -54.91248622499916,15.832466674983152 L -54.983286224998665,14.610266674993909 L -57.82548622499962,12.541466674985713 L -65.89548622499933,7.437866674983525 L -66.73308622499826,6.864266674980172 L -68.7412862250003,5.687666675003129 L -71.2420862250001,4.111466674992698 L -78.46128622499964,4.143266674975166 L -78.97608622499865,4.809866675015655 L -79.97748622499967,7.8740666750090895 L -80.67528622499958,9.947666674983338 L -80.41788622500098,11.124266675004037 L -74.80488622499979,20.18306667501747 L -73.05348622499878,22.262066675000824 L -71.25108622499829,23.6738666750025 L -69.65448622500116,24.693266674978076 L -64.76268622499992,27.04646667499037 L -63.52668622499914,27.39986667498306 L -62.464086224999846,27.17366667497845 L -62.06388622499799,26.990666675017565 L -59.20068622500003,25.007066674981616 L -57.96468622500106,23.556266674990184 L -54.219486224998036,16.718666674991255 z" /><path fill-rule="evenodd" fill="#66cc99" stroke="#555555" stroke-width="2.0" opacity="0.6" d="M -13.537986225001077,7.876766674977262 L -24.15558622500066,9.211766674969113 L -63.234186224999576,14.190566675009904 L -67.61118622499998,13.680566674971487 L -72.68958622500031,10.829966674995376 L -74.02038622499822,11.010566674973234 L -76.67058622500008,15.977966675010975 L -77.28558622499986,17.117366674981895 L -77.6863862249993,17.854766674980056 L -78.6787862250003,19.535366674972465 L -80.6917862249993,22.034366674968624 L -80.743386225,22.739966674984316 L -80.1253862249996,23.52476667499286 L -78.99258622499838,24.387566674966365 L -77.88858622499902,25.1339666749991 L -75.31698622500153,26.878766674999497 L -72.27738622500146,28.92176667500462 L -70.78458622499966,27.56696667498909 L -60.60798622499897,31.726766674997634 L -58.255986225000015,28.52756667500944 L -54.86058622499877,29.975366675003897 L -58.43478622500152,34.83716667498811 L -58.61118622499998,35.113766674970975 L -56.73798622499817,35.30636667496583 L -56.43618622500071,35.23676667500695 L -56.320986224998705,34.82936667498143 L -56.48118622500078,34.38476667497889 L -56.368386224998176,33.43316667499312 L -54.89118622500064,31.56476667498646 L -53.500986224999,30.662366674965597 L -46.754586224999,27.917366674999357 L -42.32538622500033,26.623166675009998 L -32.95278622499973,24.426566674999776 L -28.884186224999212,23.249966674979078 L -26.103786225001386,21.995366674978868 L -21.777786225000455,19.759766674993443 L -18.069786224999916,18.23036667497945 L -12.198786225000731,16.42616667499533 L -13.434786224999698,9.366566674987553 L -13.537986225001077,7.876766674977262 z" /><path fill-rule="evenodd" fill="#66cc99" stroke="#555555" stroke-width="2.0" opacity="0.6" d="M 36.99791377499969,-0.590433325021877 L 31.16231377499753,1.7045666749763768 L 29.06711377499778,2.4269666749896714 L 27.09191377499883,3.1607666749914642 L 20.430713775000186,5.93276667498867 L 18.02531377500054,6.783566674988833 L 16.057313774999784,7.294166674997541 L 13.372913774999688,7.643366674979916 L -2.491086225001709,9.736766675006947 L -13.110486224999477,11.080166674975771 L -51.5494862250016,16.34996667499945 L -51.517686224999125,16.98416667499987 L -50.284086225001374,25.235366674984107 L -48.59208622500046,24.662966674994095 L -46.32168622500103,23.998166674980894 L -45.240486225000495,24.08876667502045 L -44.09148622500106,23.642966675004573 L -42.88128622500153,23.642966675004573 L -41.83848622500045,23.444366674986668 L -40.92408622500261,23.409566675007227 L -39.71088622500247,23.24576667501242 L -38.28168622500198,23.012966674985364 L -36.99108622500171,22.672166675009066 L -34.94748622500083,22.27016667499265 L -32.674686225002006,22.13036667498818 L -30.10008622500027,22.132766675014864 L -27.969486225001674,22.57616667498951 L -25.149486225001965,23.063966674977564 L -22.313886224999806,23.557166674989276 L -19.124286225000105,23.49296667499584 L -15.876486225000917,23.06936667500122 L -11.49948622500051,21.990566675012815 L -7.582086225002058,21.15476667501207 L -4.360686224999881,20.858366674990975 L -0.6940862250012287,21.10556667498895 L 3.0487137750005786,22.17956667499675 L 6.074513774998195,23.799566675006645 L 9.093713775000651,26.326766674988903 L 9.44351377500061,26.0717666749988 L 13.426913774997956,23.580566675009322 L 13.905113774999336,22.49336667500029 L 16.02731377499913,21.07256667497859 L 17.804513774999577,20.560766675014747 L 33.975113774999045,7.893566675003967 L 35.21111377499801,6.677966674993513 L 35.470913774999644,5.645966675001546 L 35.6947137749994,5.017166674981127 L 36.33071377499982,3.0119666749960743 L 37.234313774999464,-0.2250333250121912 L 36.99791377499969,-0.590433325021877 z" /><path fill-rule="evenodd" fill="#66cc99" stroke="#555555" stroke-width="2.0" opacity="0.6" d="M -33.99213622500065,50.81126667499484 L -35.387136225001086,50.506466675011325 L -36.80493622500035,49.986866674997145 L -37.95933622500161,49.56386667500192 L -38.12733622500127,49.50206667500606 L -38.35293622499921,49.75826667500951 L -40.40493622500071,52.13126667498727 L -41.74413622499924,51.44366667501163 L -41.883336225000676,51.5828666750167 L -42.26553622500069,51.96626667502278 L -42.22833622500002,52.01726667501498 L -42.712536224998985,52.267466674995376 L -40.84533622500021,54.0944666749856 L -43.204536224999174,55.48286667501088 L -44.32593622499917,54.37046667501272 L -48.259536224999465,56.6624666749849 L -48.03273622500092,56.885666674992535 L -47.555736225000146,57.3554666749842 L -47.11893622500065,57.78626667498611 L -48.18513622500177,58.124666675023036 L -47.5923362249996,59.93306667500292 L -47.59833622500082,60.305066675005946 L -46.56633622499976,66.29666667498532 L -46.70313622499998,66.49106667499291 L -46.88853622500028,66.62126667502162 L -47.60613622500023,67.34666667501733 L -47.63193622500148,68.09786667501612 L -47.63733622499967,68.24606667499756 L -47.55333622499893,69.0494666750019 L -48.19353622500057,70.45526667502418 L -49.71033622499999,73.09166667501268 L -51.92493622500115,72.9128666750039 L -51.63393622500007,76.98686667499715 L -51.950736224998764,78.5036666749802 L -55.30053622500054,80.12426667498949 L -56.3415362249998,79.5380666750134 L -60.50853622500108,83.19086667502415 L -61.30353622500115,83.58266667499265 L -62.31813622499976,84.34886667499086 L -63.0285362249997,84.97766667501128 L -73.68393622499934,89.72906667499046 L -73.52013622499908,90.042866674994 L -73.17633622500034,90.5270666750148 L -72.03933622499972,91.8098666750011 L -71.10393622499942,92.30306667501281 L -70.04073622499891,92.49566667500767 L -69.42573622500095,92.47106667501794 L -68.29653622499973,92.3846666749887 L -67.35033622500123,91.98926667500928 L -54.99633622500005,86.22086667500844 L -44.837136224999995,81.47726667499228 L -45.73293622500023,80.76446667501295 L -46.30113622499994,80.31326667498797 L -45.05973622500096,78.33446667500539 L -44.604336225000225,77.47106667498883 L -43.709136224999384,77.72066667499894 L -42.398736224999084,75.38846667499456 L -40.80513622500075,72.4016666749958 L -39.397536225000295,69.83066667501407 L -39.824136224999165,69.71126667501812 L -38.79933622500175,67.91846667500795 L -38.19393622500138,66.95426667499123 L -37.016736225001296,57.25226667501556 L -36.184536225000556,55.083266674992046 L -34.62693622500046,52.995866674988065 L -34.0881362250002,52.437866674983525 L -32.07273622499997,51.58226667500276 L -33.17493622499933,51.12446667498443 L -33.99213622500065,50.81126667499484 z" /><path fill-rule="evenodd" fill="#66cc99" stroke="#555555" stroke-width="2.0" opacity="0.6" d="M -69.47163622500011,114.46391667499847 L -60.52683622500081,115.0057166749757 L -60.55683622500146,115.29431667499011 L -62.451636224999675,133.56011667498387 L -71.17323622500044,133.08371667499887 L -69.47163622500011,114.46391667499847 z" /><path fill-rule="evenodd" fill="#66cc99" stroke="#555555" stroke-width="2.0" opacity="0.6" d="M 12.954713774999618,50.62931667496741 L 9.802313774998765,47.82191667499137 L 7.855913774999863,46.08911667499342 L 7.636313775001327,45.89351667495794 L 5.536913774998538,44.02451667499554 L -0.8128862250014208,48.25631667498965 L -3.3472862249982427,49.940516674978426 L -3.4900862249996862,50.06831667498045 L -3.6016862250016857,50.204516674988554 L -4.145286225000746,50.58551667496795 L -4.731486225000481,50.583716674984316 L -5.043486225000379,50.506316674975096 L -5.391486225000335,50.523116674958146 L -22.64928622499974,55.05971667497943 L -28.952286224999625,59.749316674962756 L -30.736686225000085,61.07711667496187 L -28.52928622499894,62.77751667496341 L -27.927486225000393,63.25931667497207 L -26.653086225000152,64.26611667496036 L -25.525686225000754,65.06111667495861 L -27.273486224999942,68.36891667499731 L -23.891886224999325,68.79911667498527 L -24.56148622499859,71.87831667499267 L -25.302486225002212,71.75831667499733 L -26.355486225000277,74.7613166749652 L -26.26968622500135,75.72611667498131 L -25.727886225000475,76.45211667497642 L -25.184286224999596,77.18051667496911 L -26.53308622499935,77.2165166749619 L -29.48268622499927,78.48551667499123 L -29.546286225000586,78.61211667497992 L -29.36028622500089,79.29491667498951 L -29.176686225000594,79.96751667496574 L -28.817286224999407,80.5123166749836 L -28.585686225000245,82.38491667498602 L -28.418286224999974,82.51511667498562 L -23.549286225001197,83.6989166749554 L -23.49948622500051,83.90231667498301 L -20.969886224998845,97.75511667500541 L -20.027286224998534,98.35151667497121 L 18.089513774999432,85.84991667498252 L 14.751113775000704,62.952716674961266 L 13.932113775001199,57.334916674968554 L 12.954713774999618,50.62931667496741 z" /><path fill-rule="evenodd" fill="#66cc99" stroke="#555555" stroke-width="2.0" opacity="0.6" d="M -14.731386225001188,13.518116674982593 L -16.13298622500224,13.763516674996936 L -17.820186225000725,14.560316675007925 L -20.985786224999174,16.62311667499307 L -16.646586225000647,17.99111667498073 L -11.72058622500117,19.28531667497009 L -10.467786225000964,19.705316674982896 L -9.7327862250022,20.241716674980125 L -7.417386224999063,22.15511667499959 L -5.2795862249986385,23.519516675005434 L -2.6065862250015925,24.96071667500655 L 1.5310137750002468,26.536316675003036 L 2.968013774998326,25.25291667501733 L 7.987013774998559,27.799916674979613 L 8.271413775000838,27.67451667500427 L 9.247013774998777,27.91391667498101 L 11.202413774999513,26.449916675017448 L 16.499813775000803,26.764316674976726 L 16.17581377500028,32.39651667496946 L 17.90861377500005,32.53811667500122 L 18.65441377499883,32.613716674997704 L 18.694613775000107,32.32331667501421 L 18.743213775000186,31.94951667499845 L 18.921413774998655,29.98031667500618 L 20.34701377500096,29.088116674975026 L 23.656013774998428,29.088116674975026 L 25.527413774998422,29.38271667501249 L 26.515013774998806,30.628316674992675 L 29.573213774998294,35.982716674974654 L 28.93421377499908,36.538316674981616 L 29.935613775000093,36.864716675001546 L 30.69641377499829,37.21871667500818 L 31.278413775000445,37.78991667498485 L 31.77941377499883,39.14051667500462 L 32.11781377499756,39.09731667500455 L 32.31461377499909,39.07271667497116 L 32.471813775000555,39.05291667500569 L 31.7488137750006,37.05251667498669 L 31.788413774998844,36.353516675007995 L 32.06921377499748,35.670116674984456 L 32.72921377499915,34.83251667500008 L 34.81301377499949,33.07211667498632 L 34.887413774999004,31.2331166749791 L 35.0038137749998,29.97071667497221 L 35.66621377499905,27.544316675019218 L 37.27121377500043,27.739916674996493 L 37.934813774998474,27.82091667500208 L 36.71561377499893,27.03251667499717 L 37.186613775000296,26.428316674981033 L 37.494413775000794,26.080916675011395 L 48.280013774998224,17.9155166749988 L 48.454613775000325,17.676116675007506 L 48.557813774999886,17.518316675006645 L 48.55541377499867,17.340116675011814 L 48.77321377499902,17.083916674993816 L 49.105613774998346,16.90631667501293 L 49.4536137749983,16.885916674989858 L 49.8184137749995,16.9831166749791 L 50.10281377499996,17.196716674996424 L 50.20481377500073,17.439716674984084 L 50.21981377500015,17.67431667499477 L 59.051813774998664,22.206116675006342 L 59.45381377499871,22.46291667498008 L 59.77301377499862,22.75931667498662 L 61.57061377499849,24.861716675004573 L 62.463413774999935,24.640916674979962 L 66.39161377500022,23.78231667500222 L 66.7708137749978,23.70191667501058 L 66.32561377499951,22.36991667500115 L 67.63721377500042,20.119916675015702 L 51.28661377499884,13.959716674988158 L 38.16041377500005,8.986316675014677 L 35.42921377499806,8.008916674982174 L 34.77761377499883,7.8847166749765165 L 34.28621377499803,7.975316675016074 L 33.980213774999356,8.17091667499335 L 33.733013774997744,8.490716674976284 L 33.61421377499755,9.379916675010463 L 33.335813774998314,11.460116674978053 L 33.139613774999816,12.017516675012303 L 32.995613774997764,12.425516675008112 L 32.35961377499916,13.311116674987716 L 31.511213775000215,13.755716674990254 L 30.347213774999545,13.9837166750076 L 28.720613774999947,14.144516675005434 L 26.80121377499927,14.310116674983874 L 19.810613774998274,14.923916674990323 L 13.71821377499873,15.522716674997355 L 5.404613774999234,16.249916674976703 L -14.731386225001188,13.518116674982593 z" /><path fill-rule="evenodd" fill="#66cc99" stroke="#555555" stroke-width="2.0" opacity="0.6" d="M -17.524086225001156,27.20216667499335 L -17.675886224998976,38.026766675000545 L -14.210286225001255,40.919966675006435 L -29.332686224999634,50.124566675003734 L -29.753886225002134,49.715366674994584 L -34.0024862249993,45.30236667500867 L -40.0534862250006,41.38256667499081 L -46.74828622500172,42.70676667499356 L -47.80668622500161,42.84356667501561 L -48.46428622500025,40.71296667501156 L -50.07288622500164,35.45936667501519 L -50.79648622499917,33.09596667501319 L -51.05568622499959,32.25056667497847 L -52.50408622500072,29.65796667500399 L -57.44088622500021,31.36496667499887 L -59.94948622499942,28.4183666750032 L -58.214886225001464,27.70676667500811 L -60.670086225001796,25.552766674984014 L -63.792486224998356,24.67856667500746 L -65.7406862250009,25.145966675001546 L -66.96768622500167,24.190766675019404 L -69.3088862250006,21.833366675011348 L -67.94568622499901,21.61496667501342 L -66.6196862249999,21.62156667500676 L -65.27568622499894,21.746366675011814 L -62.46648622500106,22.051766674994724 L -17.524086225001156,27.20216667499335 z" /><path fill-rule="evenodd" fill="#66cc99" stroke="#555555" stroke-width="2.0" opacity="0.6" d="M 36.61211377500149,108.64196667497163 L 37.09151377499984,93.50996667498839 L 23.97791377500107,94.4801666749845 L 23.804513774999577,92.90156667499105 L 23.666513774998748,92.69996667497617 L 38.100113775000864,91.83236667499295 L 41.93351377500039,91.5713666750089 L 42.650513774999126,91.70156667499396 L 43.38731377499971,92.73476667499926 L 44.72951377499885,95.73836667498108 L 44.32091377500001,98.47256667500187 L 44.08871377500145,101.0435666749836 L 44.05211377500018,102.07256667499314 L 44.45831377500144,104.97056667500874 L 44.67491377500119,107.83976667498064 L 44.62871377499869,109.10216667498753 L 36.414713774998745,108.84116667500348 L 36.61211377500149,108.64196667497163 z" /><path fill-rule="evenodd" fill="#66cc99" stroke="#555555" stroke-width="2.0" opacity="0.6" d="M 5.244413774998975,92.44256667500304 L 10.345613774998128,92.85776667499158 L 10.652813774999231,92.88896667497465 L 13.12841377499899,93.1391666749987 L 18.617813774999377,93.62156667500676 L 26.066213775000506,94.27796667499933 L 28.013813774998198,94.28276667497994 L 32.41781377499865,94.04696667498501 L 34.054013774999476,93.97256667497277 L 37.285013774997424,93.76316667499486 L 40.97921377499733,93.61016667500371 L 41.09441377499934,94.21736667497316 L 41.06681377499808,95.27036667500215 L 40.84241377499711,95.50016667500313 L 34.11881377499958,95.81936667498667 L 32.47781377499996,95.88056667496858 L 27.202613774999918,95.77136667497689 L 20.14601377500003,95.6729666749743 L 13.08821377499953,95.1515666749765 L 10.622813774998576,95.01176667501568 L 10.243613774997357,107.95436667499598 L 9.895013774998006,108.20096667498001 L -6.171786225000687,107.9405666750099 L -23.028186224999445,107.6633666750131 L -15.405786225001066,101.38796667499992 L -6.348186224999154,94.01936667501286 L -5.649786224999843,93.6059666749934 L -5.083986225001354,93.46196667497861 L -3.9103862250012753,93.34436667500995 L -2.7367862249993777,93.08156667499861 L -1.7281862250019913,92.70776667498285 L -0.9739862250025908,92.28416667498823 L -0.36138622500038764,92.0255666749872 L 0.33581377499831433,91.97576667499379 L 1.6204137749991787,92.1167666749825 L 5.244413774998975,92.44256667500304 z" /><path fill-rule="evenodd" fill="#66cc99" stroke="#555555" stroke-width="2.0" opacity="0.6" d="M -13.22493622500042,87.30581667501247 L -12.686736225001368,87.27881667499605 L -12.234936225000638,87.2560166749754 L -6.269136225000693,86.95781667498522 L -3.119136224999238,86.80001667498436 L -2.2557362250008737,86.7568166749843 L -1.1229362249996484,87.30581667501247 L 0.23786377500073286,87.5470166750165 L 2.2508637749997433,87.07301667497086 L 6.797663774999819,87.37781667499803 L 9.584063774998867,87.61661667497538 L 10.474463774999094,87.72041667498706 L 10.872263775001556,88.70201667500078 L 10.60226377500112,89.72081667500606 L 5.155463774999589,94.09901667501254 L 3.36986377500034,95.53481667499 L 2.626463774999138,96.15701667497342 L -3.5529362249981205,101.33021667497815 L -7.597536225001022,104.58461667498341 L -17.446536224999363,112.51001667500532 L -22.222536224999203,116.80601667497831 L -26.29113622499972,120.61541667499114 L -29.098536225001226,119.55401667498518 L -30.610536224998214,118.96121667501575 L -30.47073622500102,118.84241667499009 L -17.99133622500085,108.09761667497514 L -17.403336224999293,107.5912166749913 L -14.154936224998892,104.53541667500394 L -12.975936224998804,102.6700166749797 L -12.912336224999308,102.3238166749943 L -11.97873622500083,97.25861667496793 L -11.831736224999986,96.14981667498068 L -12.045936225000332,94.0678166749858 L -13.112736224999026,87.94961667498865 L -13.182336224999744,87.54881667498557 L -13.22493622500042,87.30581667501247 z" /><path fill-rule="evenodd" fill="#66cc99" stroke="#555555" stroke-width="2.0" opacity="0.6" d="M -57.25068622500112,84.56816667497333 L -59.09148622500106,83.96576667496993 L -62.96628622500248,83.51576667500194 L -63.305886224999995,83.5595666750014 L -63.21288622500106,83.4233666749933 L -61.9966862250003,83.08256667497335 L -59.61948622500131,82.6457666749775 L -55.499286225000105,83.31236667497433 L -51.58548622499984,85.1957666749804 L -47.83788622500106,87.46076667497982 L -44.80608622499858,89.2931666749937 L -40.00668622500234,92.19356667499233 L -36.13608622500033,94.53296667500399 L -35.387286224999116,94.974566674995 L -33.598686225001074,96.02876667499368 L -28.511886225000126,99.02756667499489 L -27.32748622500003,99.46616667497437 L -26.095686225000463,99.92216667496541 L -23.51868622499933,100.45736667499295 L -19.604886225000882,101.2025666749687 L -16.20828622499903,101.27396667498397 L -15.251886224999907,101.31776667498343 L -12.34428622499945,100.7993666749826 L -10.135086225000123,100.28996667500178 L -6.97008622499925,99.56096667496604 L -6.467886225000257,99.44516667498101 L -5.047686224999779,99.11816667499079 L -3.4948862250021193,98.76056667498779 L 0.9919137749984657,98.45096667499456 L 2.085113775001446,98.37536667496897 L 4.4647137749998365,98.21096667496022 L 4.666913774997738,98.19716667497414 L 4.854713775001073,98.9519666749693 L 4.776113774998521,99.4175666749943 L 0.5185137749977002,99.64616667498194 L 0.04511377500057279,99.19496667500061 L -4.888086224998915,100.00136667500192 L -6.2698862249999365,100.23296667497198 L -6.239286224999887,100.90196667499549 L -12.447486224999011,102.31676667497959 L -13.342086225000457,102.30056667496683 L -16.992486225000903,102.23456667496066 L -20.261886225000126,102.17816667498846 L -22.12608622500011,102.05516667499614 L -25.669086224999774,102.86696667497745 L -26.803686224999183,102.79136667498096 L -26.04228622499977,101.9807666749839 L -26.017686224999125,101.89616667496739 L -25.90968622500077,101.52476667497831 L -35.4202862250022,96.76136667499668 L -36.42888622499959,97.56476667500101 L -38.14248622500236,96.63956667497405 L -38.64228622500195,97.04996667499654 L -39.21168622500045,96.79016667498217 L -39.96048622499984,96.3611666749639 L -40.762686224999925,95.88176667498192 L -41.60448622500007,95.41196667499025 L -42.340686224999445,95.04056667495752 L -41.16348622500118,93.87116667498776 L -44.38968622500215,92.13956667500315 L -43.999686225000914,91.91336667499854 L -43.78668622499936,91.78976667500683 L -44.78808622500037,91.00196667495766 L -53.02728622500035,86.05856667499756 L -57.25068622500112,84.56816667497333 z" /><path fill-rule="evenodd" fill="#66cc99" stroke="#555555" stroke-width="2.0" opacity="0.6" d="M -59.77743622500202,85.87481667500106 L -60.30723622500045,86.05301667499589 L -60.44223622500067,86.01401667500613 L -60.62763622500097,85.96061667501635 L -59.076636224999675,84.37061667501985 L -58.382436225001584,84.10901667499274 L -55.99383622500136,84.5230166750116 L -47.182836224999846,86.04941667498497 L -43.754436224999154,86.660216675009 L -43.22283622500072,86.84741667502385 L -42.54543622500205,87.08561667498725 L -42.423636225001246,87.37961667501077 L -42.5190362250014,88.02041667500453 L -43.027236225001616,88.55321667500539 L -44.05083622500024,89.42801667499589 L -44.50443622500097,89.82221667499107 L -45.37623622499996,90.25601667498995 L -46.018836225000996,91.33781667501898 L -46.276836225002626,91.49321667499316 L -46.768836225000996,91.3810166750045 L -48.4620362250007,90.83381667500362 L -49.317036225000265,90.6934166749852 L -49.49523622500055,90.66401667498576 L -49.14783622499999,90.10541667502548 L -49.0860362250005,90.0064166750235 L -49.01643622499978,89.8936166750209 L -48.42003622500124,88.93421667502844 L -51.82683622500008,87.57401667498925 L -52.266636225002,87.96521667500201 L -52.456236224999884,87.95201667501533 L -52.661436225000216,87.85061667501577 L -52.50603622500239,87.4786166750273 L -52.80003622500044,87.41381667499081 L -59.77743622500202,85.87481667500106 z" /><path fill-rule="evenodd" fill="#66cc99" stroke="#555555" stroke-width="2.0" opacity="0.6" d="M -48.94173622500057,85.81901667499915 L -49.211736225001005,85.64561667498492 L -49.655136225001115,85.25501667498611 L -49.832136225000795,84.9604166749923 L -49.86333622500024,84.69221667497186 L -49.75173622500006,84.29861667497607 L -49.68273622500055,84.19841667498986 L -49.38693622500068,83.76941667497158 L -49.150536225000906,83.52761667499726 L -48.94233622499996,83.43941667499894 L -48.73713622499963,83.45141667500138 L -47.40153622500111,84.06101667496841 L -41.57133622500078,86.67881667499023 L -36.755736225000874,88.84121667497675 L -33.0891362250004,90.48761667498911 L -28.907736225000917,92.49881667501177 L -28.997736225001063,92.67761667500599 L -29.789736225002343,93.22181667496625 L -30.917736224999317,93.92081667500315 L -31.181136225000955,93.9154166749795 L -31.470936224999605,93.85181667500001 L -31.78953622500194,93.79121667497384 L -38.25693622499966,89.86601667497598 L -42.31773622499895,87.5284166749916 L -43.233936225000434,87.11261667498911 L -44.86533622500065,86.5684166749852 L -46.2753362250005,86.30501667497447 L -48.55293622499994,85.99121667497093 L -48.94173622500057,85.81901667499915 z" /><path fill-rule="evenodd" fill="#66cc99" stroke="#555555" stroke-width="2.0" opacity="0.6" d="M -35.313636225000664,82.56146667500434 L -33.749436224999954,78.87566667498322 L -33.624036225000964,78.57986667501973 L -33.516636225000184,78.29426667501684 L -32.50323622500218,75.59066667500883 L -32.22243622499991,74.90846667501319 L -21.8328362250013,77.18186667501868 L -19.646436225000798,77.03726667498995 L -20.42343622500084,79.51046667498304 L -21.573636225000882,80.99306667500059 L -22.156836225001825,81.72626667500299 L -24.755436225001176,84.35966667499451 L -25.189836225001272,84.29066667499137 L -30.064236225001878,83.5154666750168 L -35.313636225000664,82.56146667500434 z" /><path fill-rule="evenodd" fill="#66cc99" stroke="#555555" stroke-width="2.0" opacity="0.6" d="M -0.8407862249987375,57.114716675001546 L 0.9070137750004506,55.99151667499973 L 2.9338137750000897,57.23591667501023 L 1.1944137750015216,58.94171667499177 L -0.8407862249987375,57.114716675001546 z" /><path fill-rule="evenodd" fill="#66cc99" stroke="#555555" stroke-width="2.0" opacity="0.6" d="M 33.18056377500034,39.75116667497787 L 34.17596377499831,36.05516667498159 L 34.440563775000555,36.125366674983525 L 35.99816377500065,36.53756667498965 L 37.678763775000334,37.00196667500131 L 38.34176377499898,37.16096667498641 L 38.251763775000654,37.27496667498781 L 37.91936377500133,37.68056667500059 L 37.72376377500041,37.89296667497547 L 37.41476377500112,38.28176667499065 L 37.25336377500025,38.46236667496851 L 36.92156377500032,38.88056667499768 L 36.76196377500128,39.044966675006435 L 36.39296377499886,39.51836667499447 L 36.25796377499864,39.7073666749784 L 35.96456377499999,40.057166674974724 L 35.6495637750013,40.45076667497051 L 33.18056377500034,39.75116667497787 z" /><path fill-rule="evenodd" fill="#66cc99" stroke="#555555" stroke-width="2.0" opacity="0.6" d="M 8.93066377499963,20.319716674974188 L 9.528263774998777,18.45071667501179 L 9.626663775001362,16.27751667497796 L 11.015063775001181,16.246316674994887 L 12.238463775000127,16.317716674981057 L 14.707463775001088,15.371516675004386 L 15.359063775002141,15.909116674971301 L 16.619663774999935,16.54811667498143 L 17.959463775001495,17.116916674975073 L 19.36646377500074,17.453516674999264 L 21.102863775002334,17.608916674973443 L 23.432663775001856,17.62571667500015 L 25.58966377499928,17.570516674997634 L 26.573663775001478,17.52191667498846 L 27.289463774999604,17.529116674981196 L 27.786263775002226,17.66051667497959 L 28.096463775000302,17.681516674972954 L 28.32626377499946,17.62211667500378 L 28.518263775000378,17.511116674984805 L 29.481263775001935,17.131916674989043 L 31.10186377500031,16.893116675011697 L 33.29906377500083,16.783316675006063 L 33.33386377500028,17.056916675006505 L 33.09266377500171,17.56751667500066 L 32.74946377500055,17.897516674973303 L 32.25626377499975,18.127916674988228 L 31.59806377500172,18.278516674996354 L 30.72686377500213,18.36851667497831 L 24.560063775001254,18.904316674976144 L 11.462063774999478,20.139716675010277 L 8.93066377499963,20.319716674974188 z" /><path fill-rule="evenodd" fill="#66cc99" stroke="#555555" stroke-width="2.0" opacity="0.6" d="M -20.47953622500063,76.88906667500851 L -21.280536225000105,76.70006667501002 L -21.219336225001825,76.46066667498962 L -21.996936224999445,76.01486667497375 L -21.965136225002425,75.79046667499642 L -21.068736225000976,75.87566667501233 L -19.85373622500083,75.99146667499735 L -19.5957362249992,74.50766667501011 L -19.38813622500129,74.43626667499484 L -19.131936225001482,74.34806667498196 L -18.947136225000577,72.82946667501528 L -18.429936225000347,73.04126667501987 L -18.181536225001764,73.14986667501216 L -17.979336225002044,73.2704666750069 L -17.80593622500055,73.37366667497554 L -17.24013622500206,74.75366667499475 L -16.777536224999494,76.41206667500956 L -16.72293622500183,76.61126667499775 L -16.905936225000914,76.62506667498383 L -20.47953622500063,76.88906667500851 z" /><path fill-rule="evenodd" fill="#66cc99" stroke="#555555" stroke-width="2.0" opacity="0.6" d="M -26.841486225001063,89.95151667499158 L -26.610486225001296,89.70071667501179 L -26.159886224999354,89.23331667500315 L -25.855086225001287,88.86671667498013 L -28.474686225001278,87.70811667499947 L -28.93908622500021,87.48551667499123 L -29.161686225001176,87.42671667499235 L -29.036886224999762,87.24311667497386 L -28.937886224999602,87.0067166749941 L -26.01588622500094,88.04291667498183 L -25.807086224998784,87.70091667499219 L -25.698486225001034,87.49511667498155 L -25.56528622500082,87.54191667497798 L -21.146886225000344,89.13431667500117 L -20.80188622499918,89.25851667499228 L -20.92308622500059,89.43071667500772 L -21.7456862250001,90.59591667498171 L -22.73268622499927,91.9945166749967 L -26.841486225001063,89.95151667499158 z" /><path fill-rule="evenodd" fill="#66cc99" stroke="#555555" stroke-width="2.0" opacity="0.6" d="M -77.28663622500062,131.6296166749962 L -74.23143622499992,131.77601667499403 L -73.49103622500115,139.42181667499244 L -76.26003622499957,139.36841667500266 L -79.18503622500066,139.21481667499756 L -77.28663622500062,131.6296166749962 z" /><path fill-rule="evenodd" fill="#66cc99" stroke="#555555" stroke-width="2.0" opacity="0.6" d="M -90.43608622500142,62.81786667500273 L -90.62868622499991,63.51146667500143 L -91.47588622500007,66.15866667499358 L -91.45608622500004,66.9698666750046 L -91.22508622500027,67.29626667498087 L -86.6818862250002,70.2362666749832 L -78.4996862249991,70.9628666749777 L -62.91888622499937,72.34706667500723 L -59.132286225001735,74.00726667500567 L -55.50828622500194,81.33986667499994 L -54.61788622500171,82.36826667499554 L -54.38208622499951,82.78106667500106 L -54.2398862250011,83.02946667501237 L -54.00108622500011,83.45966667500034 L -53.7382862250015,84.04886667498795 L -53.761086225002146,84.79766667500371 L -53.55948622500182,85.2926666749845 L -53.09328622499925,85.80266667502292 L -52.26048622500093,86.14706667499559 L -51.54888622500039,86.12786667498585 L -51.1174862250009,86.12786667498585 L -50.88708622499871,86.12786667498585 L -50.180886225001814,86.22866667500057 L -49.34268622500167,86.4524666749785 L -48.857886224999675,86.71226667499286 L -48.54888622500039,86.87846667501435 L -42.72228622500006,89.79266667499905 L -40.680486224999186,90.53486667497782 L -39.68748622499879,90.89186667501053 L -39.44508622500143,91.13606667501153 L -39.41148622500077,91.39646667498164 L -39.51888622500155,91.6340666749893 L -42.32508622499881,94.53266667501885 L -43.676286224999785,98.01206667500082 L -44.063886224999806,99.01046667499759 L -44.09088622499985,99.08006667500013 L -44.34348622499965,99.28466667499742 L -44.59008622500187,99.48506667499896 L -44.84808622499986,99.69386667500657 L -47.236686225000085,99.54206667498511 L -49.85508622499947,101.39486667502206 L -52.771086225002364,103.62986667500809 L -52.72308622499986,104.86286667500099 L -52.92348622499958,105.04346667497884 L -53.26968622500135,105.2990666749829 L -53.516886225001144,105.48806667501049 L -53.95668622500125,105.5378666750039 L -57.95448622500044,104.28866667498369 L -81.26028622500053,104.28326667500369 L -81.438486224999,106.48466667497996 L -81.88248622500032,106.49366667499999 L -82.26288622500215,106.59626667501288 L -82.68768622500102,108.6908666750096 L -82.89348622500074,109.70606667498942 L -83.04108622500098,110.43266667498392 L -83.46168622500045,112.03586667501077 L -83.71968622500026,113.01926667499356 L -84.66648622499997,116.62826667500485 L -84.85548622500028,117.34826667502057 L -92.56068622500061,115.93646667501889 L -90.8596862250015,105.59306667500641 L -98.3614862250015,89.30246667498432 L -100.52748622500076,90.03566667498671 L -100.47768622500007,89.89826667500893 L -100.35288622500047,89.55566667500534 L -100.46988622499885,89.21666667501268 L -100.74528622500111,89.03906667497358 L -101.1766862250006,89.03366667500813 L -101.59368622500187,89.24906667500909 L -101.87388622500112,89.70446667500073 L -104.6212862249995,90.55646667497058 L -103.27608622499974,89.31986667498131 L -97.18908622500021,82.03766667500895 L -96.92328622499917,81.24326667498099 L -96.85368622499846,81.03446667501703 L -96.65208622500177,80.43326667498332 L -92.39028622499973,78.69266667497868 L -91.13148622500012,77.01206667498627 L -90.75768622500073,76.51286667499517 L -90.44508622499961,76.09526667497994 L -91.938486224999,74.1332666749804 L -93.86868622499969,70.3100666749815 L -95.70348622500023,65.95946667500539 L -96.72048622500188,63.570266675014864 L -97.34748622500047,62.130866674982826 L -99.44808622500022,57.3098666750011 L -102.63408622500174,49.99646667497291 L -104.68488622499899,48.228866674995515 L -104.65188622499954,47.98526667500846 L -97.16448622499956,43.95626667498436 L -96.70428622500185,44.048066674993606 L -96.53988622500219,44.16446667499258 L -96.45288622499902,44.34806667501107 L -96.81228622500021,44.98406667498057 L -81.33348622500125,46.46666667499812 L -76.22748622500148,50.648666675013374 L -78.13728622500093,49.71566667497973 L -82.89168622500074,48.51506667501235 L -86.6842862249996,55.88006667501759 L -86.74608622499909,59.36606667499291 L -90.2992862250012,62.350466674994095 L -90.43608622500142,62.81786667500273 z" /><path fill-rule="evenodd" fill="#66cc99" stroke="#555555" stroke-width="2.0" opacity="0.6" d="M -10.876236224999957,62.603666674986016 L -12.037836225001229,61.78766667500895 L -12.603036225000324,61.877666674990905 L -13.147836224999992,61.48766667499149 L -14.387436225000783,60.599066674971255 L -16.404636225001013,59.15366667500348 L -17.574636224999267,60.06506667500071 L -17.36343622500135,60.24626667497796 L -16.329636225002105,61.133666674999404 L -15.861036225000134,61.535666675001266 L -14.701236225002503,62.53106667500106 L -13.902636225000606,63.21686667499307 L -13.509636225002396,63.31886667499202 L -12.601836224999715,63.07226667496434 L -10.876236224999957,62.603666674986016 z" /><path fill-rule="evenodd" fill="#66cc99" stroke="#555555" stroke-width="2.0" opacity="0.6" d="M 12.158063774999391,25.034216674990603 L 10.09046377499908,23.921816674992442 L 8.949263774999054,25.518416675025946 L 10.726463774999502,26.31521667499328 L 11.814263774998835,25.342016675000195 L 12.158063774999391,25.034216674990603 z" /><path fill-rule="evenodd" fill="#66cc99" stroke="#555555" stroke-width="2.0" opacity="0.6" d="M 28.896413775000838,69.1303166749858 L 29.370413775000998,68.87891667499207 L 29.674013775000276,68.71991667500697 L 29.585813775000133,68.61611667498073 L 30.62261377499999,68.08151667499624 L 31.546013774999665,67.59851667498879 L 32.53001377500004,67.10051667496737 L 33.447413775000314,66.59951667499263 L 34.34201377499994,66.11591667497123 L 35.31041377499969,65.56751667500066 L 35.38481377500102,65.52011667500483 L 35.46101377500054,65.59991667499708 L 35.91281377499945,65.35571667499607 L 36.376613775000806,65.1253166749957 L 35.866013774999374,64.55411667496082 L 33.59921377499995,62.04491667497496 L 26.089613775000544,66.03431667499535 L 28.34441377499934,68.52071667497512 L 28.896413775000838,69.1303166749858 z" /><path fill-rule="evenodd" fill="#66cc99" stroke="#555555" stroke-width="2.0" opacity="0.6" d="M 14.528513774999738,49.53071667495533 L 15.123713775001306,49.70351667497016 L 16.0051137749997,49.96991667497787 L 16.794713774999764,50.20871667499887 L 16.955513775001236,50.245916674961336 L 16.540913774999353,50.98631667495647 L 16.139513775000523,51.703316674989765 L 15.912713775001976,51.6253166749666 L 13.54331377500057,50.922716674991534 L 13.924313774999973,50.18111667496851 L 14.288513774999956,49.47071667498676 L 14.528513774999738,49.53071667495533 z" /><path fill-rule="evenodd" fill="#66cc99" stroke="#555555" stroke-width="2.0" opacity="0.6" d="M 30.621413774999382,70.91921667497081 L 29.98421377500017,70.22501667500183 L 29.289413774999048,69.46781667497999 L 28.625813775001006,68.76461667499098 L 28.20401377500093,68.27381667500595 L 28.661213774998032,68.02121667499887 L 28.945013775000916,67.88321667500713 L 29.103413774999353,67.78301667499181 L 29.183213774998876,67.85681667500467 L 34.83401377500013,64.83221667500038 L 34.75601377500061,64.73621667498082 L 35.191613774999496,64.4998166749865 L 35.65061377499842,64.26341667499219 L 36.093413774999135,64.75001667501056 L 36.74081377499897,65.46221667497593 L 37.77701377499943,66.60161667499051 L 33.398813774998416,68.5570166749967 L 30.621413774999382,70.91921667497081 z" /><path fill-rule="evenodd" fill="#66cc99" stroke="#555555" stroke-width="2.0" opacity="0.6" d="M 8.010263774998748,64.77551667499938 L 8.856863774997692,64.54151667498809 L 8.546663774999615,63.90851667501556 L 8.199863775000267,64.01291667499754 L 8.010263774998748,64.15151667498867 L 7.91306377500041,64.2895166749804 L 7.893263775000378,64.48031667499163 L 8.010263774998748,64.77551667499938 z" /><path fill-rule="evenodd" fill="#66cc99" stroke="#555555" stroke-width="2.0" opacity="0.6" d="M -41.19273622499895,95.33771667499968 L -41.364336224998624,95.25251667498378 L -41.51733622499887,95.1769166749873 L -44.66073622499971,93.61871667498781 L -45.1587362249993,94.2217166749906 L -45.36873622500025,94.47611667498131 L -44.44593622499997,95.13851667501149 L -43.772136224999485,95.4037166749913 L -43.32393622500058,95.50271667500783 L -43.19793622499856,95.53151667499333 L -42.7323362249972,95.6377166750026 L -41.19273622499895,95.33771667499968 z" /><path fill-rule="evenodd" fill="#66cc99" stroke="#555555" stroke-width="2.0" opacity="0.6" d="M -18.803136224998525,75.47561667500122 L -18.59913622500062,76.67261667500134 L -20.001936224998644,76.81481667500339 L -19.899936224999692,77.49401667500206 L -21.296136224998918,77.63861667498713 L -21.56433622499935,77.36201667500427 L -21.192336224998144,76.68641667498741 L -20.62893622499905,75.66221667500213 L -18.803136224998525,75.47561667500122 z" /><path fill-rule="evenodd" fill="#66cc99" stroke="#555555" stroke-width="2.0" opacity="0.6" d="M -47.64738622499863,94.43486667498655 L -47.86818622499959,95.40566667498206 L -48.30738622499848,95.34806667499652 L -48.933786224999494,96.04346667497884 L -49.28838622500007,96.48026667501836 L -49.746786224999596,97.13306667501456 L -50.16498622499785,97.75766667498101 L -50.334786224999334,98.0552666750009 L -50.404386224998234,98.17646667500958 L -50.88318622500083,98.1110666749737 L -50.51718622500084,97.19366667499708 L -49.57818622499872,94.73906667499978 L -49.513986224999826,94.57106667499465 L -49.281186225000056,94.42946667500655 L -48.862986224999986,94.31666667500394 L -48.75018622499738,94.31306667500758 L -48.55938622499889,94.30646667497058 L -47.64738622499863,94.43486667498655 z" /><path fill-rule="evenodd" fill="#66cc99" stroke="#555555" stroke-width="2.0" opacity="0.6" d="M -21.937986225000714,122.47871667500294 L -24.42858622499989,126.74831667497347 L -19.54098622499987,128.45651667498169 L -16.96338622499934,125.54831667497638 L -16.755186225000216,125.31371667500935 L -21.937986225000714,122.47871667500294 z" /><path fill-rule="evenodd" fill="#66cc99" stroke="#555555" stroke-width="2.0" opacity="0.6" d="M 18.620963774998017,20.4835166749981 L 21.1001637749996,20.49011667499144 L 22.893563774998256,20.365316675015492 L 22.733363774999816,18.17111667500285 L 22.338563774999784,17.24711667498923 L 21.690563775000555,16.498316675017122 L 21.37196377500004,16.298516674985876 L 21.43616377499893,15.983516675012652 L 23.869163774999834,15.890516674990067 L 25.52216377500008,15.892916674987646 L 26.467763774999185,15.788516674991115 L 28.395563775000483,15.393716674981988 L 29.45756377499856,14.967116674990393 L 30.628163774999848,14.356916674980312 L 31.339763774998573,13.186316674982663 L 32.51336377499865,12.414716675004456 L 33.59096377499918,12.181916675006505 L 34.588163774998975,12.096116674991208 L 35.906963774998076,13.77431667498604 L 35.70416377499896,14.377916675017332 L 37.88756377499885,15.210116675021709 L 41.045363774997895,15.62651667497994 L 43.68776377499853,16.510316674990463 L 44.04656377500032,15.89351667498704 L 41.72096377499838,15.208916675008368 L 40.14416377499947,14.940116675017634 L 37.93616377500075,14.556716675011558 L 36.37316377500065,13.942916675005108 L 36.48656377499901,13.36991667500115 L 37.501763774998835,13.285916674998589 L 43.33376377499917,14.916116674998193 L 52.95536377499957,17.620316675005597 L 53.45156377499734,16.573916675013606 L 56.065163774999746,16.702916674985318 L 57.75656377500127,17.17571667500306 L 63.67556377499932,19.914716675004456 L 67.60136377499839,21.6937166749849 L 72.11216377500023,23.89631667501817 L 77.02496377499847,26.295716674998403 L 83.80676377499913,29.607716675003758 L 85.75436377499864,30.558716674990137 L 87.00356377499884,31.195916675016633 L 91.44716377500117,33.461516675015446 L 93.31496377499934,34.413716675015166 L 97.06496377499934,35.03591667499859 L 99.99956377499984,35.49131667499023 L 101.49476377499923,35.72231667500455 L 108.1553637750003,36.96551667498716 L 110.63696377499946,37.53251667501172 L 112.80596377499751,38.39411667501554 L 112.53416377499889,38.51951667499088 L 112.14776377499948,38.62871667498257 L 111.7823637750007,38.72651667498576 L 111.45296377499835,38.73731667501852 L 110.80136377499912,38.710316675002105 L 110.33636377500079,38.66651667500264 L 109.84196377499939,38.50871667498723 L 109.16216377499768,38.24111667502439 L 108.1739637749979,37.83791667499463 L 107.07176377499854,37.38011667501996 L 106.14116377500068,37.10171667500981 L 105.17456377499911,36.91631667500769 L 104.35796377500083,36.8809166749852 L 103.49216377499943,36.91631667500769 L 102.4181637749989,37.06391667498974 L 101.32436377499835,37.3243166750035 L 101.42456377499911,37.538516674991115 L 101.62796377499944,37.98671667499002 L 101.75276377499904,38.17991667498427 L 102.43976377499894,38.08871667498897 L 102.5399637749997,38.21411667500797 L 101.55716377499812,38.71811667500879 L 100.96316377499897,39.13271667499794 L 100.70816377499978,39.40991667499475 L 100.9115637750001,39.52691667499312 L 101.15996377499869,39.64871667501575 L 101.73716377500023,39.106916674994864 L 102.80216377499892,38.58551667499705 L 103.7957637749987,38.32271667498571 L 105.06776377500137,38.21891667501768 L 105.87896377499965,38.30351667497598 L 106.71056377500099,38.55851667502429 L 107.37656377500025,38.870516675000545 L 107.8511637749998,39.15671667501738 L 108.40436377500009,39.57431667498895 L 108.95576377500038,40.24271667499852 L 109.2251637749996,40.99871667502157 L 109.24556377500085,41.57771667500492 L 109.12376377500004,42.145316674985224 L 108.81956377499955,42.70151667500613 L 108.4139637749995,43.21871667499363 L 106.97936377500082,44.728316674983944 L 109.45136377499875,45.70631667498674 L 109.63256377499783,45.493916674982756 L 110.77076377499907,44.16251667498727 L 111.57236377499976,43.44971667500795 L 111.90056377499786,43.28231667501677 L 112.26656377499967,43.131716674994095 L 113.17436377500053,42.947516674976214 L 114.00236377499823,43.02011667501938 L 114.89096377499845,43.229516674997285 L 115.5953637750008,43.567316675020265 L 116.21036377499877,43.94171667500632 L 116.94596377499875,44.622716674988624 L 117.53756377500031,45.409316675009904 L 117.94856377499855,46.45871667499887 L 120.00836377499945,46.196516675001476 L 121.63556377500026,45.802316675006296 L 122.9777637749994,44.004716675015516 L 124.26776377499846,44.91851667499577 L 122.54636377499992,46.54151667498809 L 122.51756377499805,46.5685166750045 L 125.68496377500014,48.842516675023944 L 131.4779637749998,53.00111667501915 L 133.61876377500084,51.278516675010906 L 138.12116377499842,54.53051667497493 L 135.475763774999,56.53271667502122 L 131.67896377499892,53.74811667500762 L 127.36076377499921,57.15311667502101 L 130.27316377500028,59.21471667497826 L 133.31456377500035,61.368116674988414 L 132.3437637749994,62.158316675020615 L 132.61796377499923,62.391116675004014 L 132.20216377500037,62.75171667500399 L 134.51516377499865,64.35911667498294 L 135.50636377499904,63.60731667498476 L 135.5435637749997,63.279116674981196 L 137.2205637749994,64.48571667501528 L 134.31896377500016,66.85571667499607 L 133.80116377500053,66.4441166750039 L 133.31936377499915,67.23911667500215 L 133.50836377499945,67.53071667499898 L 134.84096377499736,68.12771667499328 L 140.9177637749999,74.53331667497696 L 141.25796377500046,74.8759166750242 L 144.08156377499836,75.38291667502199 L 144.24056377499983,79.04891667501943 L 146.2787637750007,80.79431667499011 L 148.18376377499953,83.00111667499004 L 149.6591637749989,83.19731667502492 L 150.4697637749996,83.81951667500834 L 157.94336377499894,89.96831667501829 L 158.18156377499872,89.81411667501379 L 159.0803637750014,90.57311667501926 L 160.64456377499846,90.22031667498231 L 160.4747637749988,91.78151667497877 L 160.7951637749993,91.88411667499167 L 160.70396377500037,93.96971667501202 L 157.98536377500022,91.91111667500809 L 157.28216377499848,92.4031166749919 L 153.92096377500093,93.83651667498634 L 152.8571637749992,94.58411667498876 L 149.6609637749989,91.74191667498962 L 149.4077637750015,91.05431667501398 L 147.08516377500018,89.49851667498297 L 144.35756377500002,87.67151667499274 L 141.89936377499907,85.56971667498874 L 141.46016377499836,85.19471667500329 L 136.98536377500022,80.78591667502769 L 135.33056377499815,78.76091667501896 L 133.33736377499918,76.0633166750049 L 131.89016377499865,74.46191667500534 L 130.57916377499896,72.86831667501247 L 128.64056377499946,70.71251667500474 L 127.83836377499756,69.84851667501789 L 128.01296377499966,69.75131667498499 L 125.06876377499793,66.58571667500655 L 121.87676377500065,62.96171667498129 L 116.43956377499853,57.11891667499731 L 115.52096377499947,56.218316675003734 L 114.42596377499831,55.29011667499435 L 113.725763774999,54.74831667501712 L 112.89236377499765,54.16451667500951 L 112.04096377499991,53.716916674980894 L 111.18176377499913,53.32811667499482 L 107.93096377499933,52.34951667499263 L 106.07936377499936,51.53531667498464 L 104.11136377499861,50.74631667500944 L 102.25796377500046,50.002916674973676 L 100.53476377499828,49.36691667500418 L 93.91676377500153,47.03351667498646 L 93.51836377499967,46.89251667499775 L 88.850363775,45.55571667502227 L 85.85996377499941,44.711516675000894 L 80.04596377499911,43.114916675011045 L 79.33196377499917,42.91871667499072 L 78.29996377499992,42.58151667501079 L 75.06176377500014,41.5231166750018 L 73.16096377499889,40.78151667499333 L 71.10536377500102,39.97931667500234 L 67.83056377499815,38.36411667500215 L 64.64456377499846,36.79271667501598 L 62.317163775000154,39.58151667499624 L 61.92896377499892,39.39371667501109 L 61.77836377499989,39.324116675008554 L 61.37456377499984,39.12851667498762 L 61.25876377500026,39.07571667501179 L 61.0463637749981,39.31151667499216 L 57.08036377499775,37.31531667498348 L 57.9791637749986,36.249116675011464 L 55.90856377500131,35.236316674985574 L 53.19116377499995,33.93131667500711 L 52.89416377499947,33.80051667500811 L 50.61476377500003,32.73011667499668 L 50.734163774997796,32.553716675014584 L 51.45656377499836,31.485116674986784 L 47.177963774998716,30.01991667499533 L 46.213163775000794,29.758316675011883 L 45.082763774998966,29.64851667500625 L 43.98476377499901,29.728916675012442 L 43.00016377499924,29.967716674989788 L 41.99816377500065,30.410516674994142 L 41.53496377499869,30.790916675017797 L 40.9727637750002,31.44731667501037 L 40.721963775000404,31.707116675024736 L 37.69376377499975,30.72791667499405 L 37.57496377499956,30.705716675001895 L 37.64576377499907,30.225116675006575 L 37.651163775000896,29.730116675025783 L 37.489163774998815,28.95371667497966 L 37.317563774999144,28.404716675009695 L 37.09376377499757,27.888116674977937 L 36.86936377500024,27.499916675005807 L 36.59876377499859,27.10031667498697 L 36.247163774998626,26.68451667498448 L 35.711963775000186,26.20871667501342 L 34.808363775000544,25.50611667498015 L 33.37976377499945,24.634916674986016 L 33.466163774999586,24.508916675011278 L 33.49316377499963,24.469916674977867 L 34.243763774999024,24.439916675022687 L 34.942163775000154,24.344516675017076 L 35.76836377499785,24.147716675011907 L 36.48356377500022,23.901116674984223 L 36.764363774998856,24.105116674982128 L 37.915763774999505,23.74151667499973 L 38.657363775000704,23.54351667498122 L 39.16436377499849,23.44451667497924 L 39.19856377499855,22.80251667498669 L 38.4131637749997,22.95371667499421 L 37.544963774998905,23.16731667498243 L 35.87876377499924,23.677316675020847 L 34.85216377500001,23.92991667498427 L 34.42016377499931,23.998316675017122 L 33.992963774999225,24.0349166750093 L 33.644363774999874,24.05171667499235 L 33.27176377499927,24.015116675000172 L 32.76116377499784,23.91791667501093 L 32.324363775000165,23.761316675008857 L 31.91936377499951,23.557316675025504 L 31.624163774999033,23.37311667499307 L 31.456163774999368,23.24471667499165 L 31.051763774998108,22.7509166750242 L 30.058763774997715,23.101916674990207 L 30.4751637749996,23.669516675014165 L 30.9725637749998,24.33911667499342 L 30.19616377499915,25.01531667500967 L 29.050763774997904,24.513116675021593 L 25.84976377499879,23.508116675002384 L 24.355763775000014,23.004116674987017 L 22.92356377499891,23.02871667497675 L 21.043163774998902,23.359316675006994 L 20.81696377499975,22.74611667499994 L 19.82576377499936,23.02331667499675 L 19.769363774999874,22.113116674983758 L 18.865763775000232,21.867116674999124 L 15.82496377499956,21.608516675012652 L 13.305563774998518,21.015716674985015 L 9.663563775000512,19.819316674998845 L 6.869963774999633,18.577916674985318 L 4.480763774998195,17.16071667500364 L 2.978963775000011,15.973916674993234 L 1.7909637749999092,14.877116675008438 L 0.3197637749981368,13.305716675022268 L -1.2138362249988859,11.045516674988903 L -2.211636224999893,8.986916674984968 L -2.955036225001095,6.55991667501803 L -3.779436225000609,1.8331166749849217 L -5.2254362249987025,-2.7922833250049734 L -5.536836225001025,-4.445283325010678 L -5.667036225000629,-6.238083324991749 L -5.863236225000946,-9.790683324987185 L -5.863236225000946,-9.959283324991702 L -5.863236225000946,-11.752683325015823 L -5.73963622500014,-13.753683324990561 L -5.617836224999337,-14.932683325008838 L -5.602236225000524,-15.01788332502474 L -5.310036224998839,-16.594083324976964 L -4.660836225000821,-19.371483324997826 L -3.7746362249999947,-22.056483324995497 L -1.4988362250023783,-27.479883325024275 L -0.9564362250002887,-28.781883325020317 L -0.5502362250008446,-30.233283325011143 L -0.26163622500098427,-31.490883324993774 L -0.10743622500012862,-32.77068332498311 L -0.0024362249987461837,-34.6756833249965 L -0.13563622500078054,-36.079083324977546 L 0.06836377499894297,-36.09468332499091 L -0.2130362250009057,-37.71228332501778 L -2.277636225000606,-43.70688332502323 L -3.8646362250019592,-48.45468332499149 L -5.6880362250012695,-51.26928332501848 L -6.664236225000423,-52.53528332502174 L -7.654836225001418,-54.02688332501566 L -8.569836225002291,-55.45548332500039 L -9.217236225000306,-56.55408332499792 L -9.736236225000539,-57.48828332500125 L -10.124436224999954,-58.336083324975334 L -10.827636224999878,-60.12048332497943 L -11.053236225001456,-61.06428332501673 L -11.238036224998723,-62.2324833249877 L -11.190036225001677,-64.78548332501668 L -11.091036224999698,-64.94208332501876 L -10.902636224998787,-65.12328332499601 L -10.598436225001933,-65.21688332498888 L -9.756036225000571,-65.1988833249925 L -8.729436225001336,-65.20488332501554 L -8.733636225000737,-65.05188332500984 L -8.73543622499892,-64.97568332498486 L -8.782236225000815,-62.5102833249839 L -6.8262362250006845,-62.50548332501785 L -1.0272362250016158,-62.35188332501275 L 0.2303637750010239,-62.32068332498602 L 0.26516377499865484,-62.456883325008675 L 1.967963774999589,-62.45088332501473 L 2.0429637750003167,-64.51008332498895 L 2.047163774997898,-64.76928332500393 L 6.844763774999592,-64.67148332500074 L 6.197363774999758,-61.088883325006464 L -0.36903622500176425,-61.14708332500595 L -0.850236225000117,-60.85428332499578 L -0.9270362249990285,-58.060083324991865 L -0.43863622499884514,-55.00308332499117 L 0.4451637749989459,-51.814683324992075 L 0.884363774997837,-50.85648332501296 L 2.9189637749987014,-45.44568332500057 L 3.3503637750000053,-44.42808332500863 L 3.5345637749996968,-43.886283324987744 L 3.752363775000049,-43.418883324979106 L 5.720363775000806,-39.218283324997174 L 6.646163774998058,-34.56408332500723 L 6.281963774999895,-32.63028332500835 L 5.889563774997441,-29.73348332500609 L 4.549163774998306,-26.012883325020084 L 3.7055637749999732,-24.062283324979944 L 1.8389637750005932,-19.372683325011167 L 1.1501637750006921,-17.03808332500921 L 0.6995637750005699,-13.850283325024066 L 0.7025637750011811,-12.42888332498842 L 0.7865637749982852,-9.836883325013332 L -4.033836225002233,-9.52368332502374 L -3.919236224999622,-8.050683324981946 L -3.7434362250005506,-6.720483324999805 L -2.7474362249995465,-1.673283324984368 L -1.6038362250001228,3.9295166750089265 L -1.249836225002582,5.680916675017215 L -0.9048362250014179,7.295516674988903 L -0.47163622500193014,8.665316675018403 L -0.11403622500074562,9.451316674996633 L 0.2969637749974936,10.291316675007693 L 1.1483637749988702,11.656316675012931 L 1.8479637749987887,12.587516675019288 L 2.689763774998937,13.620116674981546 L 3.4769637749996036,14.390516674990067 L 4.4963637750006455,15.232916674984153 L 5.918363774999307,16.29791667498648 L 7.185563775001356,17.08931667501747 L 8.342363775000194,17.73551667499123 L 10.042163774998698,18.527516674992512 L 11.926163774998713,19.19111667497782 L 13.567763775001367,19.690316675012582 L 15.472763775000203,20.076116675016237 L 16.441763774999345,20.249516674986808 L 17.448563774998547,20.364716675016098 L 18.620963774998017,20.4835166749981 z" /><path fill-rule="evenodd" fill="#66cc99" stroke="#555555" stroke-width="2.0" opacity="0.6" d="M -33.96963622500152,119.55101667500276 L -28.867836224999337,118.44521667499794 L -28.66623622499901,118.29461667501891 L -26.503236225000364,114.59261667499959 L -27.052236224999433,114.42821667499084 L -27.780036225000003,114.31541667498823 L -28.36383622500216,114.25601667501905 L -28.525836225000603,114.23921667499235 L -29.181636225001057,114.25061667500995 L -29.995236225000554,114.32381667500886 L -30.76683622499877,114.5572166750062 L -31.619436224998935,114.90101667500858 L -32.26563622499998,115.24901667499216 L -33.04203622500063,115.85621667500527 L -33.7680362250012,116.84741667499475 L -34.19523622499946,118.1482166750211 L -34.067436225001074,119.1994166750228 L -33.96963622500152,119.55101667500276 z" /><path fill-rule="evenodd" fill="#66cc99" stroke="#555555" stroke-width="2.0" opacity="0.6" d="M -27.48318622500119,116.82011667497864 L -25.55778622499929,117.47171667500515 L -22.922586225000487,112.93751667501056 L -22.954386224999325,112.74131667497568 L -23.227986224999768,112.64351667498704 L -23.55018622500029,112.76591667500907 L -24.064986224999302,113.03591667499859 L -25.041186225000274,113.41271667496767 L -25.661586225000065,113.6659166749887 L -27.40458622499864,116.64611667499412 L -27.48318622500119,116.82011667497864 z" /><path fill-rule="evenodd" fill="#66cc99" stroke="#555555" stroke-width="2.0" opacity="0.6" d="M 11.27246377499796,63.591266674993676 L 12.897263774999374,62.99966667499393 L 13.706063775000075,64.81286667499808 L 12.764063774999158,65.25446667498909 L 12.318263774997831,65.18906667499687 L 11.27246377499796,63.591266674993676 z" /><path fill-rule="evenodd" fill="#66cc99" stroke="#555555" stroke-width="2.0" opacity="0.6" d="M 8.07431377499961,50.70041667501209 L 8.626313775001108,51.06461667500844 L 11.769113774998914,52.44761667501007 L 12.415313774999959,52.661216674983734 L 14.690513775001818,51.705416674987646 L 13.84151377499984,51.57461667498865 L 13.585313775000031,51.5350166749995 L 13.353113774999656,51.499016675006715 L 13.140713775001132,51.46361667496967 L 12.692513774998588,51.05081667500781 L 12.208913774999019,51.33221667497128 L 10.160513774999345,49.52801667498716 L 10.012313774999711,49.44521667501249 L 9.861113774999467,49.36061667499598 L 8.07431377499961,50.70041667501209 z" /><path fill-rule="evenodd" fill="#66cc99" stroke="#555555" stroke-width="2.0" opacity="0.6" d="M 10.760663774999557,53.0686166749656 L 12.020063774998562,53.64581667497987 L 11.079863774999467,54.325016674993094 L 10.113263774997904,53.900816674984526 L 6.9158637749987975,52.50701667497924 L 5.9738637749997,52.13921667498653 L 9.151463774998774,50.089616674988065 L 12.114263774998108,51.30521667499852 L 11.790863774996978,51.56081667500257 L 10.760663774999557,53.0686166749656 z" /><path fill-rule="evenodd" fill="#66cc99" stroke="#555555" stroke-width="2.0" opacity="0.6" d="M 19.627313774999493,97.98791667498881 L 20.077913774999615,97.693316674995 L 26.48291377500027,97.27631667499372 L 26.80511377500079,97.57091667497298 L 26.611913774999266,100.85651667500497 L 19.659713774999545,100.73411667498294 L 19.627313774999493,97.98791667498881 z" /><path fill-rule="evenodd" fill="#66cc99" stroke="#555555" stroke-width="2.0" opacity="0.6" d="M -67.0329362249995,16.43846667499747 L -62.40333622499929,18.122066674972302 L -66.37953622500208,24.362666674962384 L -68.20593622499837,34.6508666749578 L -69.96093622499939,46.34846667498641 L -81.79293622500154,44.76926667497901 L -77.9691362249996,39.60326667498157 L -76.9029362250003,37.678466674959054 L -76.211736225001,37.48286667496723 L -75.6471362250013,31.370066674993723 L -75.48573622500044,26.226266674988437 L -74.70273622500099,23.504666674984037 L -74.08713622500181,21.843866674986202 L -72.11493622499984,19.84886667499086 L -70.83333622499958,18.539066674988135 L -67.0329362249995,16.43846667499747 z" /><path fill-rule="evenodd" fill="#66cc99" stroke="#555555" stroke-width="2.0" opacity="0.6" d="M -72.00933622499906,137.83181667499593 L -72.39393622500029,140.66621667500294 L -70.7265362249982,141.11561667500064 L -57.7719362250009,137.8708166749857 L -51.66633622500194,137.14781667501666 L -36.32553622500018,133.80521667501307 L -29.271336224999686,131.57681667502038 L -21.087936224999794,129.73901667498285 L -19.471536224999,128.54681667499244 L -15.26433622500008,126.22061667501112 L -12.545136225000533,121.3930166749924 L -16.351536225000018,122.15621667500818 L -16.3935362250013,122.32001667500299 L -17.198736224998356,125.47121667499596 L -23.937336224998944,126.91781667500618 L -26.490336224998828,127.50221667502774 L -30.273336225000094,128.89001667499542 L -34.06893622499956,129.65081667501363 L -34.965936225000405,130.69721667500562 L -45.45813622499918,133.55081667502236 L -60.02913622499909,135.8770166750037 L -68.23833622500024,137.79281667500618 L -72.00933622499906,137.83181667499593 z" /><path fill-rule="evenodd" fill="#66cc99" stroke="#555555" stroke-width="2.0" opacity="0.6" d="M -1.7478362249985366,47.28281667496776 L -0.8442362249988946,47.060816674973466 L -0.3240362249998725,47.034416674971 L 0.6881637749993388,47.44361667498015 L 0.3395637749999878,48.01421667500108 L -1.7478362249985366,47.28281667496776 z" /><path fill-rule="evenodd" fill="#66cc99" stroke="#555555" stroke-width="2.0" opacity="0.6" d="M 1.3730637749995367,46.28381667500071 L -0.0909362250004051,45.36521667501074 L -0.23373622500002966,45.330416674987646 L -0.3423362250014179,45.35621667499072 L -0.39993622499969206,45.41741667498718 L -1.0059362249994592,46.34921667499293 L -1.0173362250006903,46.414616674999706 L -0.983136225000635,46.48001667499193 L -0.9429362250011764,46.51481667497137 L 0.6008637750001071,47.18561667500762 L 0.6926637749984366,47.19461667498399 L 0.7838637749991904,47.172416674977285 L 0.8354637749998801,47.12441667498206 L 1.407263774999592,46.45361667498946 L 1.4246637750002265,46.37561667500995 L 1.3730637749995367,46.28381667500071 z" /><path fill-rule="evenodd" fill="#66cc99" stroke="#555555" stroke-width="2.0" opacity="0.6" d="M 6.15386377500181,84.53396667500783 L 7.467863775000296,83.21216667498811 L 8.462663775000692,83.78636667500541 L 9.342263775000902,84.30476667500625 L 10.32746377500007,84.87656667499687 L 11.289263775001018,85.43096667500504 L 12.310463775000244,86.01056667500234 L 12.632663775000765,86.19296667499293 L 11.318063775001065,87.5141666749987 L 6.15386377500181,84.53396667500783 z" /><path fill-rule="evenodd" fill="#66cc99" stroke="#555555" stroke-width="2.0" opacity="0.6" d="M 11.234513774999868,87.702266674969 L 5.731913775000066,84.50486667497898 L 4.560713774997566,85.67426667496329 L 10.063913775000401,88.87166667498241 L 11.234513774999868,87.702266674969 z" /><path fill-rule="evenodd" fill="#66cc99" stroke="#555555" stroke-width="2.0" opacity="0.6" d="M 15.202763774999767,85.51661667501321 L 14.243963774999429,84.94481667497894 L 13.263563775000875,84.36761667500832 L 12.25616377500046,83.78741667501163 L 11.363363775000835,83.26241667497379 L 10.364363775002857,82.7056166749826 L 9.38036377500066,82.13681667498895 L 8.398163775002104,81.56141667500196 L 7.093163774999994,82.86821667500772 L 13.879763775001265,86.59001667497796 L 15.202763774999767,85.51661667501321 z" /><path fill-rule="evenodd" fill="#66cc99" stroke="#555555" stroke-width="2.0" opacity="0.6" d="M -26.73228622500028,69.83696667500772 L -25.669686225000987,67.01336667500436 L -21.46008622500085,67.73696667497279 L -26.73228622500028,69.83696667500772 z" /><path fill-rule="evenodd" fill="#66cc99" stroke="#555555" stroke-width="2.0" opacity="0.6" d="M 0.9802137749993562,93.88106667499233 L 1.486013775000174,93.66446667502169 L 4.008413775000008,92.58566667498962 L 4.692413774999295,92.26946667500306 L 5.307413775000896,91.9814666750026 L 6.028013774997817,91.52846667499398 L 6.859013774999767,91.00466667501314 L 7.671413775000474,90.47906667500501 L 7.816613774999496,90.58466667501489 L 8.152613774998827,90.83306667501165 L 6.121013774998573,92.51426667500346 L 4.432013775000087,93.87746667499596 L 3.5968137749987363,94.57346667502134 L 3.020813774999624,95.00186667499656 L 2.8480137749993446,95.12966667499859 L 2.687213774997872,95.24786667502485 L 2.094413774999339,95.45846667500155 L 1.5742137750003167,95.55866667498776 L 1.3696137749993795,95.53346667498408 L 1.1848137750002934,95.40266667499964 L 0.9772137749987451,94.5032666750194 L 0.8944137749986112,94.14506667500245 L 0.9802137749993562,93.88106667499233 z" /><path fill-rule="evenodd" fill="#66cc99" stroke="#555555" stroke-width="2.0" opacity="0.6" d="M -47.309436224999445,75.22106667498883 L -47.95383622500049,76.43786667501263 L -44.9736362249987,77.39546667499235 L -41.85543622499972,78.50126667499717 L -41.40903622500082,78.72326667499146 L -41.2152362249999,78.60386667501007 L -41.1606362249986,78.5324666750239 L -40.318236225000874,77.43026667501545 L -42.93843622499844,76.66166667499056 L -42.313236224999855,75.5936666750058 L -42.44523622499946,75.55286667498876 L -44.17083622499922,75.02126667500124 L -44.77323622499898,76.06406667499687 L -47.309436224999445,75.22106667498883 z" /><path fill-rule="evenodd" fill="#66cc99" stroke="#555555" stroke-width="2.0" opacity="0.6" d="M -28.2732362250008,118.79126667500532 L -27.810636225000053,120.07946667500073 L -41.61723622499994,123.06626667498494 L -43.339236225001514,123.43886667500192 L -44.34663622500011,120.95966667497123 L -39.27603622500101,121.30166667500453 L -37.03563622500042,121.45286667498294 L -36.3420362249999,121.3610666749737 L -35.79723622500023,121.21286667499226 L -35.29623622500185,121.03166667500045 L -35.07603622500028,120.9524666749785 L -34.58643622500131,120.69206667499384 L -33.885036225001386,120.00026667497877 L -28.2732362250008,118.79126667500532 z" /><path fill-rule="evenodd" fill="#66cc99" stroke="#555555" stroke-width="2.0" opacity="0.6" d="M -37.45578622500034,77.79881667498557 L -37.07238622499972,77.27801667500171 L -28.179186225001104,79.33241667500988 L -28.411986225000874,79.91381667497626 L -37.45578622500034,77.79881667498557 z" /><path fill-rule="evenodd" fill="#66cc99" stroke="#555555" stroke-width="2.0" opacity="0.6" d="M -48.6169862250008,81.54506667496753 L -46.95798622499933,83.42666667500453 L -46.63998622499821,83.77646667500085 L -47.1211862250002,83.98826667500543 L -48.27918622499965,84.58046667497547 L -48.635586224998406,84.76286667498061 L -50.39178622500003,85.6220666750014 L -49.9993862249994,86.08766667498276 L -49.24158622499817,87.00626667497272 L -51.709386224998525,86.50406667498464 L -51.1261862249994,86.21246667498781 L -52.11858622499858,85.06106667499989 L -53.157786224999654,83.84066667497973 L -52.62978622499759,83.57486667498597 L -51.13218622500062,82.80206667499442 L -49.59258622500056,82.0208666749968 L -48.6169862250008,81.54506667496753 z" /><path fill-rule="evenodd" fill="#66cc99" stroke="#555555" stroke-width="2.0" opacity="0.6" d="M 24.473663775001114,57.838316674984526 L 27.829463775000477,58.471316674971604 L 26.522663775000183,63.1765166749974 L 22.945463775000462,62.63531667499046 L 24.473663775001114,57.838316674984526 z" /><path fill-rule="evenodd" fill="#66cc99" stroke="#555555" stroke-width="2.0" opacity="0.6" d="M -9.440286225000818,44.47151667496655 L -10.001886225001726,45.15191667499312 L -7.942086225000821,46.21571667496755 L -7.337286224999843,45.546716675002244 L -9.440286225000818,44.47151667496655 z" /><path fill-rule="evenodd" fill="#66cc99" stroke="#555555" stroke-width="2.0" opacity="0.6" d="M -31.65888622499915,54.95876667497214 L -30.260286225000527,54.9749666749849 L -30.859086225000283,53.39336667500902 L -31.65888622499915,54.95876667497214 z" /><path fill-rule="evenodd" fill="#66cc99" stroke="#555555" stroke-width="2.0" opacity="0.6" d="M -31.175736224999127,53.83166667498881 L -29.11413622500004,53.385266674973536 L -30.296136225000737,52.35086667499854 L -31.31253622499935,52.52906667499337 L -31.175736224999127,53.83166667498881 z" /><path fill-rule="evenodd" fill="#66cc99" stroke="#555555" stroke-width="2.0" opacity="0.6" d="M 15.29396377500052,55.19546667498071 L 16.815563775000555,55.39406667499861 L 17.037563775000308,54.5486666749639 L 17.093363775000398,54.202466674978496 L 17.34716377499899,54.230666674964596 L 17.282363774998885,54.5258666749578 L 18.014363775000675,54.62966667498404 L 18.38036377500066,52.94546667499526 L 17.95676377500058,52.896866674986086 L 18.18956377500217,51.86486667497957 L 19.477763775001222,52.029866674987716 L 19.403963775001102,52.361666674987646 L 18.934763774999738,52.301066674961476 L 18.839963775000797,52.72826667496702 L 19.978763775001426,52.87586667499272 L 21.10136377500021,53.024066674974165 L 21.18356377500095,52.598066674981965 L 20.73776377500144,52.53626667498611 L 20.81456377500035,52.21406667497649 L 21.26156377499865,52.26266667498567 L 21.365363774999423,51.85106667499349 L 22.494563775000643,52.067066674964735 L 22.013963775001685,53.77706667498569 L 21.641363775001082,53.73146667497349 L 21.17276377500093,55.42646667499503 L 20.985563775000628,55.39946667497861 L 20.74736377500085,56.27426667496911 L 20.551763775001746,56.4176666749845 L 19.709363775000384,56.288666674969136 L 19.812563774999944,55.8434666749672 L 18.796163774999513,55.707266674988205 L 18.89756377499907,55.31066667496634 L 17.770763774999068,55.14266667496122 L 17.668763775001935,55.53986667499703 L 18.661163774999295,55.68926667499181 L 18.55856377499913,56.134466674993746 L 19.54736377500194,56.26706667497638 L 19.440563775000555,56.67926667496795 L 20.59556377499939,56.85326667499612 L 21.097763775000203,56.930666674961685 L 20.536163775001114,57.57986667496152 L 18.15836377499909,56.58986667498539 L 17.912363774999903,56.909066674968926 L 17.52416377500049,57.37046667499817 L 15.104963775000215,56.06426667499181 L 15.29396377500052,55.19546667498071 z" /><path fill-rule="evenodd" fill="#66cc99" stroke="#555555" stroke-width="2.0" opacity="0.6" d="M 19.473413775000154,57.06191667499661 L 20.036213774998032,56.27771667500201 L 19.264613775001635,55.88531667497591 L 19.640813775000424,55.12751667498378 L 22.319213775001117,55.82111667499703 L 21.523013775000436,58.06571667500248 L 19.473413775000154,57.06191667499661 z" /><path fill-rule="evenodd" fill="#66cc99" stroke="#555555" stroke-width="2.0" opacity="0.6" d="M 31.62356377499964,56.73701667498972 L 33.25616377500046,56.97581667501072 L 33.24476377499923,57.02021667502413 L 32.37236377499903,60.48041667499638 L 32.23016377500062,60.459416675017565 L 30.88916377500027,60.26321667502634 L 30.73976377499821,60.24161667501903 L 31.62356377499964,56.73701667498972 z" /><path fill-rule="evenodd" fill="#66cc99" stroke="#555555" stroke-width="2.0" opacity="0.6" d="M -37.57173622500159,96.82211667498632 L -40.737336225000035,95.21411667499342 L -42.11493622499984,94.0681166749855 L -42.01473622500089,94.02011667499028 L -39.72573622500204,92.93471667500853 L -39.421536225001546,92.7901166749798 L -38.655936225000914,92.4265166749974 L -36.69813622500078,91.49771667500318 L -36.27753622500131,91.46771667500434 L -36.20193622499937,91.46231667498068 L -35.67153622499973,91.52411667497654 L -35.27913622499909,91.65611667498888 L -35.1015362249982,91.74911667501146 L -34.88133622500027,91.86431667498255 L -33.44973622500038,92.61371667501226 L -33.66453622500012,92.83271667500958 L -34.57593622500099,93.76391667501593 L -35.303136225000344,94.5061166749947 L -35.922336225001345,95.13851667501149 L -37.41873622500134,96.66551667498425 L -37.57173622500159,96.82211667498632 z" /><path fill-rule="evenodd" fill="#66cc99" stroke="#555555" stroke-width="2.0" opacity="0.6" d="M 38.252963774999444,60.595766674974584 L 38.92856377499993,61.47836667497177 L 39.195563774999755,61.928966674997355 L 39.35636377500123,62.12456667497463 L 39.751763775000654,61.961966674993164 L 40.250963774999036,61.72736667498248 L 40.07036377499935,61.50896667498455 L 40.940963774999545,61.128566674975445 L 41.70536377500139,60.95876667500124 L 41.7209637750002,60.74936667497968 L 39.26636377500108,60.71216667497356 L 39.26636377500108,60.58976667499519 L 38.252963774999444,60.595766674974584 z" /><path fill-rule="evenodd" fill="#66cc99" stroke="#555555" stroke-width="2.0" opacity="0.6" d="M -59.70423622499948,102.64586667501135 L -59.43663622500026,102.68666667498474 L -59.07063622500027,102.67646667499503 L -59.174436225001045,102.95246667502215 L -58.73583622499973,102.9980666749907 L -57.52023622500201,102.95606667501852 L -56.647236225002416,102.88046667497838 L -55.7664362250016,102.72446667499025 L -54.97383622500092,102.31646667499444 L -54.61203622500216,102.01946667498851 L -54.29763622499922,101.53166667500045 L -54.28323622500102,101.42666667500453 L -54.10503622500073,100.10906667499512 L -54.10503622500073,99.83966667500499 L -54.10203622500012,99.70346667499689 L -53.47443622500032,99.62966667498404 L -52.770636225001,99.54806667500816 L -52.71663622499909,101.46146667498397 L -52.97823622500073,103.14806667499943 L -53.54763622500104,103.14446667500306 L -54.749436224999954,103.13606667498243 L -56.56923622500108,103.1234666750097 L -59.42763622500024,103.10426667499996 L -59.68503622499884,103.10606667502725 L -59.70423622499948,102.64586667501135 z" /><path fill-rule="evenodd" fill="#66cc99" stroke="#555555" stroke-width="2.0" opacity="0.6" d="M -35.33943622500192,90.56501667498378 L -35.37063622500136,90.39281667496834 L -33.40743622500122,88.11161667499982 L -33.22203622500092,88.09121667497675 L -31.978236225000728,88.70981667500746 L -31.824036224999873,88.85621667496162 L -31.80303622500105,89.02841667497705 L -33.94983622499967,91.10801667497435 L -34.12263622499995,91.14101667497016 L -35.33943622500192,90.56501667498378 z" /><path fill-rule="evenodd" fill="#66cc99" stroke="#555555" stroke-width="2.0" opacity="0.6" d="M 70.5857637750014,118.86206667497754 L 62.10236377500041,117.99506667499372 L 58.85936377500002,117.78326667498914 L 55.96256377499958,117.86426667499472 L 52.95236377499896,118.27046667496325 L 49.88396377499885,119.14646667496709 L 48.214163775001,119.62646667499212 L 47.01116377499966,120.12506667498383 L 45.64136377499926,120.70166667498415 L 43.90436377500009,121.44746667495929 L 41.64536377500008,122.69846667499223 L 38.90036377499928,124.53266667498974 L 36.811763774998326,126.10226667500683 L 34.94636377500137,128.03606667496206 L 33.75536377499884,129.405866674977 L 32.93876377499873,130.85306667497207 L 32.69996377499956,131.6906666750001 L 32.29856377499891,133.35626667497854 L 31.57916377499896,138.28286667499924 L 31.281563775000905,140.2400666749745 L 36.43436377499893,140.68166667498008 L 41.09216377499797,138.94766667495423 L 49.246763774999636,138.30086667499563 L 49.64276377499846,137.96006667497568 L 51.95576377500038,137.481266674964 L 52.33616377499857,137.2538666749897 L 53.74736377499903,137.26106667499698 L 53.1713637749981,135.3338666749769 L 53.263163775000066,133.4792666749563 L 53.76356377499906,131.68106667496613 L 55.065563775000555,129.87026667498867 L 56.68496377500014,127.9694666749856 L 58.48676377499942,126.65666667500045 L 60.68096377499933,125.34146667497407 L 63.02636377499766,124.23386667500017 L 65.50736377499925,123.34706667499267 L 67.44416377500056,122.74526667498867 L 67.9745637750002,121.94546667498071 L 68.98076377500001,121.62146667498746 L 70.03016377499807,121.452266674969 L 70.77296377499806,120.86726667500625 L 70.9667637750008,120.3500666749751 L 71.14256377500169,119.85746667496278 L 71.34716377499899,118.94486667496676 L 70.5857637750014,118.86206667497754 z" /><path fill-rule="evenodd" fill="#66cc99" stroke="#555555" stroke-width="2.0" opacity="0.6" d="M -21.53178622499945,135.29276667498925 L -24.763386224998612,135.10736667500169 L -27.267186224999023,136.09076667501358 L -28.99398622499939,136.89776667498518 L -29.412786224998854,137.0933666750061 L -34.17738622499928,138.46556667501864 L -37.0129862249978,139.26356667501386 L -41.445186225000725,140.36336667502474 L -47.014386224998816,141.22016667501885 L -53.605386224997346,141.92096667502483 L -61.66518622500007,141.74576667502697 L -67.92378622499928,141.0935666749865 L -78.41118622499744,139.2929666750133 L -87.04578622500048,137.9303666749911 L -94.56918622500052,136.66496667498723 L -98.95038622500033,134.38736667502963 L -103.44618622499911,131.51636667503044 L -104.17458622499726,131.80796667502727 L -108.2401862250008,135.59036667500914 L -110.96898622499975,136.9973666750011 L -114.3133862249997,137.64956667498336 L -118.67718622499888,137.13776667501952 L -121.67118622499947,136.50236667500576 L -126.65778622499965,135.63236667499586 L -144.1951862249971,132.4961666750023 L -149.68158622499868,126.97316667501582 L -153.77478622499802,129.11396667499503 L -160.96038622500055,125.74616667500231 L -165.44418622500052,122.37896667499444 L -166.22298622499875,122.15516667503107 L -168.26718622500084,121.85336667498632 L -168.01158622500043,123.05036667500099 L -166.3891862249984,124.88036667501729 L -163.98798622499817,126.88496667500294 L -160.32198622500073,128.7437666750193 L -146.61618622499736,135.7421666750015 L -144.29178622499967,136.81256667501293 L -140.9449862249985,137.93216667500383 L -133.95798622499933,139.742366675011 L -127.86498622499857,140.70596667502832 L -121.6321862249988,141.3677666750009 L -112.57998622499872,141.11396667500958 L -99.49158622499817,140.62076667501242 L -90.02658622499985,140.17016667498683 L -82.6873862249995,140.0993666750146 L -76.40418622499965,140.95796667502145 L -69.61938622499838,142.7465666749922 L -63.334386224998525,145.43756667502748 L -62.37318622500061,145.91636667499552 L -59.174586224999075,146.00096667499747 L -53.16678622499967,145.94456667502527 L -44.47818622499835,145.07096667500446 L -36.7537862249992,143.4353666749812 L -30.11898622499939,141.58016667500488 L -25.944786224998097,140.1737666749832 L -23.670786224998665,138.48176667498774 L -22.413186224999663,136.72856667501037 L -21.53178622499945,135.29276667498925 z" /><path fill-rule="evenodd" fill="#66cc99" stroke="#555555" stroke-width="2.0" opacity="0.6" d="M 34.83536377500059,108.21056667498488 L 34.89296377500068,110.78276667499449 L 34.978763775001426,113.2025666749978 L 34.978763775001426,114.2705666749971 L 35.465363775001606,114.88136667500657 L 36.552563774999726,115.60016667500895 L 38.926763775001746,116.40716667498054 L 40.90076377500009,117.10436667497561 L 42.131363775000864,117.95456667499093 L 44.13416377500107,119.30636667500949 L 46.68056377500034,120.89756667497568 L 48.36836377500185,121.81316667501233 L 49.855763775000014,122.48876667498553 L 51.172163775001536,123.14276667499507 L 52.88876377499946,123.81836667499738 L 53.97596377500122,124.25456667497929 L 55.120163775001856,124.71236667499761 L 56.60816377500123,125.12636667497281 L 57.637763775001076,125.45336667500669 L 60.69956377500057,126.08576667497982 L 63.50336377500025,126.67436667499715 L 70.28396377499848,127.76396667497465 L 70.48376377500063,126.0203666749876 L 62.759363775001475,124.86476667498937 L 62.557163775001754,121.0661666749802 L 54.716963774999385,121.28036667501146 L 53.13296377500046,121.16276667499915 L 48.13556377500208,118.49396667497058 L 45.866363775001446,117.02336667497002 L 42.849563775000206,114.51176667500113 L 42.4037637750007,114.1451666749781 L 42.4037637750007,112.12616667499242 L 43.419563774999915,112.26896667500841 L 43.384763775000465,108.16076667500602 L 35.948963775001175,108.20096667500911 L 34.83536377500059,108.21056667498488 z" /><path fill-rule="evenodd" fill="#66cc99" stroke="#555555" stroke-width="2.0" opacity="0.6" d="M -60.728286224999465,100.0069166750036 L -60.26448622499811,99.60071667499142 L -59.746686224998484,99.58871667498897 L -58.74408622499868,99.56591667501198 L -58.193886225000824,99.55331667499559 L -57.827286224999625,99.54491667497496 L -57.85728622500028,99.61451667499205 L -58.13988622499892,100.2739166750107 L -58.255086224999104,100.54391667501477 L -58.84308622499884,100.6597166749998 L -60.61308622499928,101.00831667498278 L -60.69468622500062,100.4551166750025 L -60.728286224999465,100.0069166750036 z" /><path fill-rule="evenodd" fill="#66cc99" stroke="#555555" stroke-width="2.0" opacity="0.6" d="M -61.31103622500086,95.09066667499428 L -61.50603622500057,94.88486667496909 L -61.46283622499868,94.7198666750046 L -61.06203622499925,94.38146667498222 L -59.080836224999075,92.85566667500825 L -58.77783622499919,92.68526667497645 L -58.106436225001744,92.73206667501654 L -57.597636225000315,92.8718666749919 L -57.045636225000635,93.08666667497891 L -56.37843622499895,93.36866667499999 L -55.46643622500051,94.00286667498585 L -55.74723622500096,94.23146667501715 L -55.92243622499882,94.3616666750022 L -56.35923622500195,94.68626667499484 L -56.15403622499798,94.83986667499994 L -57.240636225000344,95.61866667498543 L -56.807436225000856,95.94866667500173 L -58.17183622500124,97.0208666749968 L -58.90863622499819,96.4184666749934 L -58.15623622499879,95.59826667500602 L -58.659036224999,95.36306667498138 L -59.2110362250005,95.8328666750167 L -60.31443622500046,95.44286667497363 L -61.31103622500086,95.09066667499428 z" /><path fill-rule="evenodd" fill="#66cc99" stroke="#555555" stroke-width="2.0" opacity="0.6" d="M -73.43853622500137,97.06691667501582 L -73.57773622499917,97.58231667497603 L -73.67553622500236,97.94591667501663 L -73.01373622500068,98.04911667502893 L -73.1433362250009,98.52851667499635 L -72.56733622500178,98.61911667499226 L -72.64113622500008,98.89331667499209 L -73.11093622500084,98.81951667499379 L -73.20933622499979,99.18551667500287 L -74.12133622500005,99.04211667498748 L -74.29293622500154,99.67751667500124 L -74.38353622499926,100.0183166750212 L -71.64993622499969,100.44551667501219 L -70.9659362250004,100.55231667499174 L -70.37253622500066,98.3533166749985 L -69.91953622500114,98.42411667501437 L -69.71073622499898,97.65011667500949 L -73.43853622500137,97.06691667501582 z" /></g><g class="water"><path fill-rule="evenodd" fill="#66cc99" stroke="#555555" stroke-width="2.0" opacity="0.6" d="M 5.463374674996885,1.0850883000239264 L 5.63557467499777,1.0298883000214119 L 5.834774674996879,1.115688299993053 L 5.887574674998177,1.302288300008513 L 5.900774674997592,1.7462882999971043 L 5.987174674997732,1.8668882999918424 L 6.146174674997383,1.9124883000185946 L 6.324974674998884,1.8668882999918424 L 6.4569746749984915,1.68568830001459 L 6.497174674996131,1.5242883000028087 L 6.483974674996716,1.2872882999945432 L 6.3645746749971295,1.0700883000245085 L 6.271574674998192,0.9692882999952417 L 6.278174674998809,0.7322882999869762 L 6.4239746749972255,0.580488300009165 L 6.768374674997176,0.44428830000106245 L 7.126574674997755,0.41908829999738373 L 7.464374674997089,0.44968830001016613 L 7.6827746749986545,0.5000883000029717 L 7.954574674995456,0.5858883000328206 L 8.23957467499531,0.7724882999900728 L 8.418374674996812,0.9890883000043686 L 8.537174674997004,1.236288300002343 L 8.52397467499759,1.4486883000063244 L 8.39857467499678,1.7306883000273956 L 8.378174674999173,1.85728830001608 L 8.47117467499811,2.0888883000297938 L 8.504174674997557,2.2502882999979192 L 8.451374674998078,2.356488300007186 L 8.252774674998363,2.4626883000019006 L 7.742174674996932,2.528088300008676 L 7.569974674996047,2.538288299998385 L 7.48417467499894,2.4674883000261616 L 7.3515746749963,1.8668882999918424 L 7.251974674996745,1.7714883000298869 L 7.133174674998372,1.7762882999959402 L 7.0137746749987855,1.862088300025789 L 6.874574674997348,2.144688300002599 L 6.755174674997761,2.4674883000261616 L 6.662774674998218,2.6036882999906084 L 6.4107746749959915,2.6642883000167785 L 6.192374674996245,2.719488300019293 L 5.894174674996975,2.704488300019875 L 5.649374674998398,2.553288299997803 L 5.410574674997406,2.230488300017896 L 5.284574674999021,1.8164882999990368 L 5.284574674999021,1.4834882999857655 L 5.463374674996885,1.0850883000239264 z" /><text x="7.017328266178015" y="1.5766682131169774">Lago Laguna</text><path fill-rule="evenodd" fill="#66cc99" stroke="#555555" stroke-width="2.0" opacity="0.6" d="M -30.91657532499994,63.86668830001145 L -31.26517532500111,63.48508830003266 L -31.52617532500153,63.00448829999368 L -31.659375325001747,62.63968829999794 L -31.71157532500183,62.346888300031424 L -31.716375325002446,62.117688299986185 L -31.70857532500122,61.835088300009375 L -31.6413753249999,61.56148830000893 L -31.47697532500206,61.13788830001431 L -31.178175325001575,60.68248830002267 L -30.960375325001223,60.434088300011354 L -30.633975325001302,60.234888299994054 L -30.35077532500145,60.38428829998884 L -29.937375325001994,60.483888300004764 L -29.414775325001756,60.483888300004764 L -28.97917532500105,60.41728829998465 L -28.58737532500163,60.28468830001657 L -28.26097532500171,60.08548829998472 L -28.043175324999538,59.87008829998376 L -27.917775325000548,59.50708830001531 L -27.48037532500166,59.50708830001531 L -27.043575325000347,59.62468830001308 L -26.606775325000854,59.741688300026 L -26.195175324999582,59.93788830001722 L -25.860975325000254,60.1730882999982 L -25.475175325000237,60.48628830003145 L -25.166775325002163,60.85828830001992 L -24.986775325000053,61.211088300013216 L -24.832575325001017,61.54348830001254 L -24.755775325000286,61.896288300005835 L -24.704175325003234,62.346888300031424 L -24.80677532500158,62.621088299987605 L -24.884175325001706,62.954088300000876 L -25.054575325002588,63.429288300016196 L -25.160175325001546,63.53008830000181 L -25.10737532500025,63.70108829998935 L -29.3889753250005,64.82848830000148 L -29.428575325000565,64.67788830002246 L -29.864775325000664,64.47628830002213 L -30.38017532500271,64.22488830001384 L -30.697575325002617,64.03348830000323 L -30.974775325001247,64.22488830001384 L -31.30537532500057,64.36588830000255 L -32.50777532500251,65.1908883000142 L -32.90437532500073,65.45308830001159 L -33.27457532500193,65.67448829999194 L -33.57817532500121,65.77408830000786 L -33.96157532500183,65.86468830000376 L -34.34497532500063,65.92588829998567 L -34.84717532500326,66.02668830001494 L -35.12437532500189,66.07708830000774 L -35.37577532500109,66.14788830002362 L -35.86477532500248,66.30868830002146 L -36.11137532500106,66.43948830002046 L -36.314175325002,66.57028830001946 L -36.525375324999914,66.76168829998642 L -36.72397532500145,66.95308830001159 L -36.92197532500177,67.12408829999913 L -37.080375325000205,67.42648829999962 L -37.25257532500109,67.68808829998306 L -37.3845753250007,67.92928829998709 L -37.56937532500342,68.29228830001375 L -37.74157532500067,68.6948882999859 L -37.84957532500266,68.89408830001776 L -37.98277532500106,69.10408829999506 L -38.14477532500132,69.30268830001296 L -38.38717532500232,69.49948830001813 L -38.636175325002114,69.66928829999233 L -38.95237532500141,69.8366882999835 L -39.290175325000746,69.98248830002558 L -39.78517532499973,70.16248830000404 L -40.17217532500035,70.30768829998851 L -40.53697532500155,70.4636883000203 L -40.890375325001514,70.60288829998171 L -41.11417532500127,70.70488829998067 L -41.3091753250028,70.79548830002022 L -41.61337532499965,70.94968829999561 L -41.85157532500307,71.1110883000074 L -42.009975325001506,71.27188830000523 L -42.14197532500111,71.45308829999703 L -42.28777532500317,71.65468829999736 L -42.32737532500141,71.98708830001124 L -42.30097532500258,72.44968829999561 L -42.34057532500083,72.90328830001818 L -42.40657532500336,73.20508830000472 L -42.45937532500102,73.47688830002153 L -42.5121753250005,73.95988829999988 L -42.5649753250018,74.59468829999969 L -42.59137532500063,74.96668830000272 L -42.617775325001276,75.42988830000104 L -42.67657532500016,75.89068830000178 L -42.69097532500018,76.28608830002486 L -42.6885753250026,76.56628830001864 L -42.71737532500083,76.74268829998618 L -42.72997532500085,76.8602882999985 L -42.72157532500205,76.93468830001075 L -42.62677532500129,77.04568829998607 L -42.489375324999855,77.10748829998192 L -42.38017532500089,77.17168830001901 L -42.10237532500287,77.3330883000308 L -41.811975325001185,77.53408830003173 L -41.46817532500063,77.79628830002912 L -41.13757532500131,78.02728829999978 L -40.86037532500086,78.19888830000127 L -40.60897532499985,78.41008829999191 L -40.30537532500057,78.6620882999996 L -40.080375325002024,78.90328830000362 L -39.84277532500164,79.03408829998807 L -39.644175325001925,79.15528829999676 L -39.472575325000435,79.21528830002353 L -39.419775325000955,79.35628830001224 L -39.4989753250029,79.54768830002286 L -39.68377532500017,79.63828830001876 L -39.90877532500053,79.74928829999408 L -40.199175325002216,79.79968830003054 L -40.437375325001994,79.86988830000337 L -40.714575325000624,79.96048829998472 L -41.17717532499955,80.09128830002737 L -41.626575325000886,80.20228830000269 L -42.009975325001506,80.2526882999955 L -42.274575325000114,80.32288829999743 L -42.45937532500102,80.35348830002476 L -42.60457532500186,80.28268830000889 L -42.617775325001276,80.1620882999996 L -42.59137532500063,79.95028829999501 L -42.472575325000435,79.74928829999408 L -42.39337532500031,79.57828830000653 L -42.27277532500011,79.4570882999833 L -42.07477532500161,79.19248830001743 L -41.838375325001834,78.98428830000921 L -41.679375325002184,78.69208829999843 L -41.57737532500141,78.42388830002164 L -41.55217532500137,78.16288829999394 L -41.56057532500199,78.04048830001557 L -41.64097532500091,77.88568829999713 L -41.811975325001185,77.72548829999869 L -42.16837532499994,77.47408830000495 L -42.59137532500063,77.17168830001901 L -42.716775325001436,77.12308829999529 L -42.84157532500285,77.0084883000236 L -42.875775325002905,76.87828829999489 L -42.84997532500165,76.74568830002681 L -42.8175753250016,76.5596883000253 L -42.81397532500159,76.31908830002067 L -42.807375325002795,75.91408830002183 L -42.71017532500082,75.14788830002362 L -42.670575325002574,74.4230882999982 L -42.617775325001276,73.91968829999678 L -42.59137532500063,73.51708830002462 L -42.53857532500297,73.20508830000472 L -42.472575325000435,72.98368830000982 L -42.45937532500102,72.7922882999992 L -42.446175325001605,72.50008829998842 L -42.446175325001605,72.20848829999159 L -42.472575325000435,71.92648830002872 L -42.446175325001605,71.71528830002353 L -42.36697532500148,71.48368830000982 L -42.22117532500306,71.31208830000833 L -42.04957532499975,71.10088830000313 L -41.89117532500131,70.98988829999871 L -41.679375325002184,70.86928829998942 L -41.446575325002414,70.73848829999042 L -41.234775325001465,70.64968830002181 L -41.0667753250018,70.5716883000132 L -40.7529753250019,70.44268829999783 L -40.35337532499943,70.29328829998849 L -40.062375325001994,70.1666882999998 L -39.73297532499964,70.04188829999475 L -39.42697532500097,69.93088830001943 L -39.15517532500235,69.83248830001685 L -38.90437532500073,69.71128830000816 L -38.66617532500095,69.58048830002372 L -38.30977532500037,69.31888829999662 L -38.06917532499938,69.01768830000947 L -37.96357532500224,68.8610883000074 L -37.88677532499969,68.70448830001988 L -37.767975325003135,68.43268829998851 L -37.608975325001666,68.08048830000916 L -37.46377532500264,67.79848830000265 L -37.331775325003036,67.55728829999862 L -37.212975325002844,67.29508830000123 L -37.01437532500313,67.0136882999941 L -36.5121753250005,66.58048830000916 L -36.32737532500141,66.43828830000712 L -36.14197532500111,66.32908830001543 L -35.79877532500177,66.16768830000365 L -35.5089753250013,66.06088829999499 L -35.204175325001415,65.98648830001184 L -34.741575325002486,65.89588830001594 L -34.39777532500011,65.84548830002313 L -34.12057532500148,65.80048830001033 L -33.86917532500229,65.74468830000842 L -33.61837532500249,65.6846883000253 L -33.314175325002,65.56168829998933 L -33.10837532500227,65.41528829999152 L -32.90197532500133,65.27968830002646 L -32.33497532500223,64.8884883000137 L -31.907175325002754,64.60468830002355 L -31.67797532500117,64.4402883000148 L -31.478175325000848,64.3142882999964 L -31.292175325001153,64.12408829999913 L -30.91657532499994,63.86668830001145 z" /><text x="-30.569769186263812" y="64.87568899963611">Estanque y lago de Las Cruces</text><path fill-rule="evenodd" fill="#66cc99" stroke="#555555" stroke-width="2.0" opacity="0.6" d="M -6.169875325000248,70.46653830001014 L -6.1578753250014415,70.38493830003426 L -6.112875325001369,70.30993830000807 L -6.039675325000644,70.24933830002556 L -5.945475325002917,70.20853830002306 L -5.83987532500214,70.1929383000097 L -5.732475325003179,70.20253830002912 L -5.625075325002399,70.24153830001887 L -5.542275325002265,70.3069383000111 L -5.493075325002792,70.38913830000092 L -5.483475325003383,70.47973830002593 L -5.5152753250004025,70.56733830002486 L -5.584275325003546,70.64113829999405 L -5.6820753250030975,70.6927383000002 L -5.797275325003284,70.71553830002085 L -5.916075325003476,70.70773830001417 L -6.014475325002422,70.67353829999047 L -6.094275325001945,70.61833830003161 L -6.147675325002638,70.54693830000178 L -6.169875325000248,70.46653830001014 z" /><text x="-5.826378549091126" y="70.45450413786979">Fuente Eugenia De Montijo</text><path fill-rule="evenodd" fill="#66cc99" stroke="#555555" stroke-width="2.0" opacity="0.6" d="M 27.19387467499655,50.93413830002828 L 27.350474674998623,51.2161383000348 L 27.756074674998672,51.50353830002132 L 28.036874674997307,51.59533830003056 L 28.36207467499844,51.59893830002693 L 28.76347467499545,51.565338300017174 L 29.20687467499738,51.49093830004858 L 29.55247467499794,51.381738300056895 L 29.747474674997648,51.272538300007 L 31.273274674997083,49.0513383000216 L 31.67707467499713,48.49333830001706 L 31.997474674997648,48.22093830002996 L 32.287274674998116,48.02113830004237 L 33.14947467499587,47.53873830003431 L 34.2168746749976,46.82953830002225 L 35.11327467499905,46.321938300010515 L 35.37607467499765,46.52233830005571 L 34.4586746749992,47.06173830004991 L 33.42667467499814,47.747538300041924 L 32.54107467499853,48.246138300033635 L 32.2740746749987,48.43033830005152 L 31.99627467499704,48.66613830003189 L 31.61587467499703,49.191738300040015 L 30.05047467499753,51.471138300024904 L 29.744474674997036,51.64153830001305 L 29.324474674996964,51.774738300038734 L 28.82647467499737,51.858738300041296 L 28.36747467499663,51.89653830001771 L 27.876674674998867,51.86653830004798 L 27.47827467499701,51.77713830002176 L 27.00847467499807,51.576738300034776 L 26.510474674998477,51.27013830002397 L 26.16907467499732,50.9317383000307 L 26.197874674999184,50.7445383000304 L 26.47867467499782,50.56573830002162 L 26.79547467499833,50.50633830000879 L 27.07267467499696,50.547138300025836 L 27.17587467499652,50.668938300033915 L 27.19387467499655,50.93413830002828 z" /><text x="30.387868553718114" y="49.75890171954021">Ra</text></g></svg>
